<svg xmlns="http://www.w3.org/2000/svg" width="1080" height="718">
  <path fill="#f2911a" fill-rule="evenodd" d="M573.595 343.527c-8.537 4.452-8.143 15.258.977 26.823l4.614 5.849 4.657-.651c8.465-1.184 15.101-3.56 18.653-6.678 3.067-2.693 3.504-3.66 3.504-7.751 0-7.375-4.825-12.119-12.328-12.119-1.897 0-4.01-.702-4.733-1.573-1.693-2.041-8.35-5.429-10.649-5.421-.985.004-3.097.688-4.695 1.521"/>
  <path fill="#0b8841" fill-rule="evenodd" d="M184.205 282.842c-7.581 2.693-12.217 6.793-15.955 14.108l-3.25 6.36v100.743l14.75-.276 14.75-.277.264-31.75.264-31.75 7.236-.014c12.257-.023 11.853.359 11.521-10.862l-.285-9.624-9-.5-9-.5-.299-3.553c-.208-2.482.368-4.4 1.91-6.361 2.039-2.592 2.598-2.764 7.299-2.247 2.799.307 6.306.856 7.793 1.218 2.588.63 2.907.247 7.484-8.966 3.789-7.628 4.559-9.985 3.712-11.358-3.265-5.292-28.654-8.137-39.194-4.391m289.254.408c-.263.688-.361 28.025-.218 60.75l.259 59.5 13.863.279c9.096.183 14.323-.103 15.202-.833 1.04-.863 1.406-6.781 1.637-26.458.28-23.787.425-25.516 2.36-28.105 3.919-5.245 7.016-6.811 13.54-6.848 5.724-.033 6.23.165 9.473 3.7 4.086 4.457 4.215 6.477.925 14.573-3.472 8.544-3.333 14.928.501 23.032 2.492 5.268 2.999 7.593 2.999 13.75V404h22.441c22.698 0 25.913-.517 21.909-3.522-1.017-.763-8.92-4.623-17.561-8.577-8.641-3.954-16.607-8.143-17.702-9.309-2.594-2.76-5.087-8.794-5.087-12.311 0-5.027 24.507-56.281 26.91-56.28.875 0 4.443 1.35 7.93 3 3.487 1.649 6.961 2.999 7.72 2.999.76 0 2.547-2.463 3.971-5.474 5.565-11.764 16.484-16.475 26.969-11.636 4.841 2.234 7.888 5.4 9.952 10.342 2.202 5.269 1.925 9.984-1.017 17.338-1.411 3.526-2.266 6.895-1.9 7.486.365.591 3.994 2.655 8.064 4.587 4.071 1.932 7.401 3.873 7.401 4.313 0 1.04-14.226 31.569-20.933 44.921-3.077 6.126-4.845 10.745-4.316 11.274.494.494 8.739.774 18.323.623l17.426-.274.31-3.75c.171-2.062.515-3.75.766-3.75.25 0 2.81 1.55 5.689 3.445 7.053 4.642 13.001 5.974 23.391 5.241 10.506-.741 16.999-3.53 23.917-10.274 11.185-10.902 15.74-28.828 11.915-46.888-2.074-9.789-5.933-16.795-12.705-23.065-8.24-7.628-13.175-9.651-24.928-10.218-11.015-.531-14.516.32-21.984 5.346-2.79 1.877-5.242 3.413-5.451 3.413-.208 0-.5-9.113-.649-20.25l-.271-20.25-13.863-.279c-9.369-.188-14.312.094-15.25.872-.763.634-1.387 2.816-1.387 4.85v3.698l-8.522-.447c-8.005-.42-8.913-.254-14.974 2.729-4.388 2.161-7.648 4.68-10.193 7.877-2.058 2.585-3.784 4.802-3.836 4.926-.052.125-2.521-.696-5.488-1.823-9.002-3.42-14.39-.959-18.899 8.632l-2.085 4.437-5.252-2.121c-6.83-2.758-18.173-2.967-25.521-.468-2.899.985-7.512 3.563-10.25 5.727l-4.98 3.937v-19.942c0-10.968-.273-20.653-.607-21.523-.515-1.341-2.801-1.582-15.031-1.582-10.618 0-14.551.33-14.903 1.25m122.93 24.655c-1.712 1.043-4.013 3.179-5.115 4.746-2.178 3.098-4.927 10.065-4.216 10.682 1.075.934 24.077 11.667 25.002 11.667 1.732 0 5.92-10.248 5.926-14.5.017-10.855-12.49-18.149-21.597-12.595m-272.002 6.05c-19.508 3.027-31.995 13.338-37.423 30.9-3.571 11.556-1.971 27.849 3.77 38.398 3.383 6.216 11.482 13.669 18.417 16.949 13.911 6.579 34.275 6.482 48.349-.232 5.961-2.843 15.5-11.151 15.5-13.5 0-1.758-13.726-14.47-15.625-14.47-.873 0-3.227 1.288-5.231 2.863-6.414 5.04-10.191 6.483-16.836 6.434-4.183-.03-7.231-.654-9.395-1.921-3.481-2.038-7.642-6.98-6.684-7.938.327-.328 13.122-3.619 28.433-7.314l27.838-6.719-.07-6.519c-.119-11.143-7.497-23.984-17.43-30.336-8.399-5.371-23.018-8.24-33.613-6.595m88.613-.332c-13.103 2.544-23.353 9.498-26.624 18.062-2.394 6.27-2.386 16.732.017 21.315 4.213 8.034 8.216 10.738 24.142 16.304 17.224 6.02 18.465 6.643 18.465 9.269 0 3.122-2.713 4.428-9.184 4.421-6.784-.007-11.441-1.269-21.007-5.695-4.229-1.957-8.323-3.316-9.096-3.019-1.586.608-8.713 15.018-8.713 17.616 0 1.017 2.52 3.163 6.337 5.395 17.443 10.204 44.913 10.761 59.354 1.203 10.979-7.267 14.715-21.866 8.663-33.849-3.745-7.417-7.466-9.717-26.237-16.22-12.729-4.41-16.877-7.001-15.782-9.857.911-2.372 5.607-3.816 10.354-3.182 2.304.307 8.476 2.2 13.717 4.206 5.241 2.006 10.106 3.419 10.811 3.141 1.746-.689 10.047-17.496 9.266-18.76-1.021-1.652-9.486-5.592-16.977-7.902-6.83-2.106-22.214-3.475-27.506-2.448m338.985.405C730.774 317.264 718 333.917 718 358.332c0 9.528 2.064 19.913 5.166 25.994 3.075 6.026 11.996 14.399 18.566 17.423 4.512 2.078 7.728 2.744 14.768 3.061 10.67.479 15.211-.583 22.195-5.194l5.195-3.429.305 3.657.305 3.656 13.863.279c9.369.188 14.312-.094 15.25-.872 1.143-.949 1.384-8.559 1.372-43.279-.009-23.171-.381-42.703-.827-43.407-.611-.963-4.366-1.209-15.235-1l-14.423.279-.31 3.75c-.171 2.063-.539 3.75-.817 3.75-.279 0-1.964-1.111-3.745-2.47-7.598-5.796-17.305-8.079-27.643-6.502m-481.991.883c-4.436 1.39-9.016 4.114-13.054 7.762l-3.94 3.56-.015-4.367c-.025-6.988.044-6.958-15.562-6.645l-13.923.279v88h29l.5-24.5c.477-23.378.605-24.669 2.8-28.2 3.247-5.221 7.947-7.754 16.93-9.123l7.77-1.184V314.5l-4-.187c-2.2-.103-5.128.166-6.506.598m580.506.027c-5.634 1.378-11.222 4.959-16.013 10.262-13.026 14.419-14.875 36.614-4.695 56.348 4.878 9.457 16.221 16.47 27.874 17.234 10.107.663 15.241-.354 21.836-4.325 3.157-1.902 5.911-3.457 6.119-3.457 1.299 0 .007 8.313-1.871 12.038-3.157 6.26-8.709 8.962-18.416 8.962-6.951 0-10.438-.921-23.004-6.077-4.193-1.721-5.011-.963-10.323 9.564-5.055 10.015-4.969 10.267 4.993 14.738 10.764 4.832 17.752 5.991 33.5 5.56 12.611-.346 14.676-.665 20.814-3.216 9.091-3.779 16.763-10.849 20.68-19.057l3.006-6.298v-92.269l-14.25.278-14.25.277-.5 3.904-.5 3.904-3-2.468c-5.621-4.624-12.619-6.85-21.185-6.738-4.298.057-9.165.433-10.815.836M601 317.974c0 1.224 5.538 4.155 6.338 3.355.325-.326.142-1.433-.408-2.46-1.028-1.921-5.93-2.66-5.93-.895m-276.543 19.889c-1.673 1.021-3.744 2.931-4.601 4.246-2.045 3.137-4.385 9.695-3.703 10.377.549.55 28.643-5.948 29.522-6.828.841-.841-1.505-4.337-4.729-7.05-3.887-3.271-11.764-3.626-16.489-.745m538.856.24c-6.722 1.944-12.387 13.271-10.84 21.674 2.005 10.894 7.812 16.661 16.643 16.528 8.7-.131 14.883-6.19 16.474-16.143 1.466-9.167-3.994-19.653-11.489-22.067-3.949-1.272-6.371-1.27-10.788.008m-208.754 2.163c-8.984 5.092-12.157 20.963-6.213 31.076 6.822 11.605 22.588 11.428 29.502-.331 3.716-6.322 3.77-16.365.125-23.538-4.432-8.722-15-11.975-23.414-7.207m103.441.359c-6.677 4.196-10.667 13.292-9.544 21.756 1.099 8.282 4.463 13.515 10.754 16.725 4.896 2.499 9.38 2.391 14.828-.356 13.342-6.728 13.189-31.359-.238-38.345-3.615-1.881-12.659-1.755-15.8.22"/>
</svg>
