<svg xmlns="http://www.w3.org/2000/svg" width="1024" height="1024">
  <path fill="#ffffff" fill-rule="evenodd" d="M485 177.633c-10.153 1.268-28.409 4.677-35 6.535-16.041 4.522-37.945 13.216-45 17.861-1.375.905-3.266 1.922-4.203 2.259-3.86 1.39-22.974 14.528-32.346 22.233-5.527 4.543-14.157 12.602-19.178 17.907-9.066 9.579-23.733 28.161-26.331 33.359-.746 1.492-1.883 3.388-2.527 4.213-2.587 3.312-10.93 20.111-14.899 30-11.52 28.697-17.406 65.355-14.619 91.049 1.268 11.69 5.026 31.677 7.982 42.451 4.864 17.725 17.526 45.014 27.376 59 1.55 2.2 3.863 5.575 5.141 7.5 4.583 6.902 14.881 18.663 24.408 27.877 26.736 25.858 60.228 44.643 96.61 54.188 31.618 8.296 69.036 8.465 100.447.456C633.069 574.069 692.717 502.93 702.547 416c11.71-103.546-45.081-198.709-136.661-228.997-19.606-6.485-36.018-9.157-58.386-9.508-10.45-.165-20.575-.102-22.5.138m-7.227 17.302c-19.514 5.263-36.796 15.386-53.025 31.06l-9.248 8.931 15.647.037 15.647.037 6.669-10.018c7.953-11.947 17.719-22.13 26.287-27.413 8.595-5.299 8.479-5.454-1.977-2.634m70.86 2.416c13.167 7.098 25.957 17.869 37.934 31.947l4.933 5.797 11.421-.297 11.421-.298-8.421-7.135c-16.491-13.972-35.966-25.208-53.393-30.805-10.487-3.368-11.303-3.202-3.895.791m-103.868 1.622c-17.402 6.468-37.442 18.063-52.216 30.21l-6.466 5.317 10.014.286 10.013.285 9.695-9.829c10.226-10.368 20.421-18.433 31.195-24.679 9.826-5.696 9.477-5.944-2.235-1.59m55.785.567c-1.295 1.397-3.47 4.898-4.834 7.778-2.694 5.69-8.716 23.788-8.716 26.194 0 1.249 2.33 1.488 14.5 1.488 7.975 0 14.499-.338 14.497-.75-.012-2.763-3.408-19.358-5.016-24.509C508.83 202.85 505.61 197 503.967 197c-.584 0-2.122 1.143-3.417 2.54m-15.262 2.468c-9.274 5.319-20.224 16.775-28.428 29.742l-2.056 3.25h24.738l2.324-8.907c1.278-4.899 3.886-12.436 5.796-16.75 1.91-4.314 3.715-8.405 4.012-9.093.831-1.923-.706-1.5-6.386 1.758m30.8 1.982c1.508 3.967 6.912 27.726 6.912 30.386 0 .343 4.034.624 8.965.624 8.146 0 9.07-.196 10.114-2.147.855-1.598.863-3.071.032-5.75-1.959-6.32-4.218-8.311-10.064-8.872l-5.243-.504.65-5.205c.628-5.029.538-5.29-2.652-7.715-3.089-2.348-9.138-5.807-10.156-5.807-.25 0 .399 2.246 1.442 4.99M541 201.768c0 .44 1.237 1.534 2.75 2.429 5.506 3.261 7.389 6.249 7.969 12.642.469 5.169 1.026 6.49 3.914 9.29 2.246 2.177 3.367 4.197 3.367 6.067V235h23.136l-1.969-2.75c-3.127-4.367-16.067-16.484-23.167-21.694-7.023-5.153-16-10.084-16-8.788m40-.341c0 .234 2.499 1.856 5.554 3.604 8.478 4.85 20.639 14.177 29.401 22.548 7.552 7.215 8.078 7.53 12.105 7.232l4.21-.311-6.885-5.795c-9.552-8.041-22.142-16.537-33.468-22.587-9.157-4.89-10.917-5.647-10.917-4.691m-178.556 10.377c-8.921 5.2-24.049 15.599-29.406 20.214L369.576 235h3.057c2.343 0 4.788-1.528 10.462-6.538 4.073-3.595 11.383-9.333 16.245-12.75 15.104-10.614 15.532-11.153 3.104-3.908m-49.627 39.446c-10.09 11.19-15.767 18.515-23.059 29.75-5.642 8.692-12.758 22.094-12.758 24.027 0 .671 1.971.963 5.224.775l5.225-.302 6.045-12c8.704-17.276 24.839-41.148 32.38-47.905 2.987-2.677 2.656-3.595-1.295-3.595-3.048 0-4.333 1.011-11.762 9.25m20.543-4c-7.404 7.884-15.464 18.23-21.768 27.942-6.479 9.98-15.592 27.116-15.592 29.317 0 1.259 2.473 1.491 15.87 1.491h15.871l2.729-7.75c4.362-12.388 14.712-32.825 22.789-45l7.463-11.25H378.29l-4.93 5.25m30.391 2.5c-7.385 10.275-14.1 21.687-19.423 33.011-3.755 7.989-9.328 21.655-9.328 22.876 0 .22 10.429.279 23.176.131l23.176-.268 2.757-11c3.476-13.866 9.688-31.861 14.881-43.1 2.205-4.774 4.01-8.842 4.01-9.04 0-.198-7.578-.36-16.839-.36h-16.84l-5.57 7.75m42.311 2.5c-7.566 16.162-19.045 51.434-17.305 53.174.317.317 9.256.576 19.864.576h19.288l.467-3.25c.257-1.788 1.437-10.675 2.623-19.75 1.955-14.962 5.299-34.797 6.618-39.25.475-1.606-.601-1.75-13.119-1.75h-13.637l-4.799 10.25m38.442-9c-1.759 5.075-9.504 54.706-9.504 60.905 0 1.685.984 1.845 11.385 1.845h11.385l-.513-6.393c-.498-6.194-.424-6.449 2.365-8.197 1.583-.993 3.025-1.9 3.205-2.017.179-.117 1.152-3.424 2.161-7.348 1.629-6.333 5.041-12.861 12.145-23.239 1.415-2.067 1.715-3.813 1.291-7.5-1.185-10.295.672-9.306-17.474-9.306-11.913 0-16.124.32-16.446 1.25m39.854 2.5c.341 2.063.625 4.762.631 6 .007 1.474.616 2.25 1.765 2.25 1.885 0 14.246-9.645 14.246-11.115 0-.487-3.884-.885-8.631-.885h-8.631l.62 3.75M559 243.331c0 .731 1.977 7.369 4.392 14.75 2.416 7.38 5.404 17.837 6.639 23.237 1.782 7.785 2.736 10.138 4.608 11.365 2.754 1.804 3.041 3.837.725 5.133-1.268.71-1.483 1.734-.955 4.55l.682 3.634h20.954c17.318 0 20.955-.244 20.955-1.403 0-3.074-7.453-22.778-12.942-34.212-3.198-6.664-8.162-15.776-11.032-20.25L587.807 242h-14.403c-11.322 0-14.404.285-14.404 1.331m41.424 5.889c7.124 11.74 14.43 27.593 19.558 42.436l4.783 13.844 17.117.274c9.484.151 17.118-.122 17.118-.613 0-.487-1.37-4.21-3.045-8.273-6.371-15.453-18.078-34.772-28.842-47.593l-5.704-6.795-12.701-.28-12.701-.28 4.417 7.28M631 242.527c0 .29 2.649 4.002 5.887 8.25 10.322 13.543 19.199 29.033 26.202 45.723l3.776 9 6.567.296c5.249.236 6.568 0 6.568-1.176 0-2.775-11.845-25.12-18.882-35.62-3.87-5.775-10.217-14.213-14.103-18.75-6.896-8.051-7.174-8.25-11.541-8.25-2.461 0-4.474.237-4.474.527M557.625 265.7c-.461 1.392-.099 3.412.985 5.5 2.205 4.25 2.775 2.541 1.071-3.214-1.149-3.883-1.426-4.19-2.056-2.286m-27.504 32.402c-1.26 1.173-2.006 2.756-1.689 3.582.312.814.568 2.118.568 2.898 0 1.176 3.333 1.418 19.5 1.418H568l-.015-2.25c-.038-5.56-5.638-7.983-15.566-6.736-4.138.519-8.591.501-10.947-.045-6.147-1.426-8.9-1.151-11.351 1.133M312.011 315.5c-7.349 17.271-13.934 47.747-13.991 64.75L298 386h12.856l.5-5.25c2.86-30.063 4.386-38.887 9.674-55.969 1.655-5.345 3.257-10.364 3.559-11.153.43-1.121-.698-1.511-5.163-1.781l-5.713-.347-1.702 4m19.495-.512c-2.539 4.91-8.482 26.731-10.489 38.512-1.03 6.05-2.192 15.837-2.582 21.75l-.708 10.75h18.137c16.798 0 18.136-.133 18.136-1.8 0-14.037 4.797-47.274 9.024-62.529 1.087-3.922 1.976-7.702 1.976-8.401 0-.974-3.727-1.27-15.974-1.27h-15.975l-1.545 2.988m40.391-.238c-4.158 10.855-9.472 40.965-10.545 59.751L360.695 386h51.084l.685-12.25c1.247-22.294 4.041-45.789 7.076-59.5l.498-2.25H372.95l-1.053 2.75m54.765-2c-2.042 3.358-7.606 50.684-7.641 65L419 386h27.632l2.934-6.25c1.651-3.516 5.596-9.108 9.019-12.785l6.085-6.535.65-14.465c.358-7.956.95-18.852 1.316-24.215l.666-9.75H447.21c-11.051 0-20.297.337-20.548.75m46.979 6.5c-1.607 19.61-1.742 23.205-.821 21.875.524-.756 2.193-1.511 3.708-1.678 4.08-.447 5.483-2.45 6.435-9.182.471-3.332 1.357-6.995 1.971-8.141.613-1.146.842-3.168.509-4.494-.333-1.327-.119-2.712.476-3.08 2.594-1.603.625-2.55-5.302-2.55h-6.382l-.594 7.25M529 313.147c0 2.307 7.167 9.799 14.735 15.404 11.115 8.232 17.179 14.287 19.477 19.449 6.665 14.967 7.586 17.896 6.2 19.723-.742.977-1.363 2.816-1.38 4.087-.019 1.371-2.064 4.458-5.032 7.596-2.75 2.908-5 5.581-5 5.941 0 .359 3.825.653 8.5.653h8.5v-6.267c0-15.142-3.805-59.81-5.62-65.983-.468-1.591-2.327-1.75-20.447-1.75-14.325 0-19.933.323-19.933 1.147m47.415 1.603c1.745 8.367 5.466 54.154 5.566 68.5L582 386h47.308l-.674-13.75c-.743-15.177-2.537-29.306-5.739-45.214-3.397-16.87-.293-15.036-25.45-15.036h-21.604l.574 2.75m50.59-1.5c.003.688 1.094 6.425 2.424 12.75 2.893 13.754 5.249 32.177 6.17 48.25l.673 11.75H674v-7.039c0-15.405-4.286-41.844-9.517-58.711l-2.559-8.25h-17.462c-13.306 0-17.461.298-17.457 1.25m42.474.454c.4.988 2.207 7.646 4.014 14.796 3.815 15.095 6.314 31.304 7.192 46.651l.621 10.849h15.952l-.697-10.25c-1.336-19.679-4.963-38.954-10.395-55.25l-2.666-8-7.375-.296c-6.759-.272-7.314-.147-6.646 1.5m-371.095 88.797c1.2 18.551 6.128 40.747 12.867 57.951l2.332 5.953 5.459-.289c3.002-.158 5.601-.43 5.776-.603.174-.173-1.016-4.297-2.646-9.164s-4.113-14.024-5.519-20.349c-2.248-10.114-3.155-16.762-5.288-38.75l-.509-5.25h-13.151l.679 10.501m19.647-5.751c.093 14.151 4.687 39.78 10.082 56.25 4.462 13.623 3.929 13.003 11.172 12.982l6.215-.018 4.165-8.732c6.092-12.774 6.147-13.485 1.341-17.347-2.203-1.771-4.006-3.854-4.006-4.629 0-1.529 4.393-6.274 7.308-7.895 1.709-.95 1.741-1.94.589-18.183L353.679 392H318l.031 4.75M361 398.853c0 3.77.287 9.604.639 12.966l.639 6.112 7.361-6.588c4.068-3.641 7.361-7.407 7.361-8.419 0-1.22 1.571-2.525 4.713-3.915 4.876-2.157 8.287-4.694 8.287-6.164 0-.465-6.525-.845-14.5-.845H361v6.853m33.015-5.603c.009.688.447 1.925.975 2.75.853 1.333 1.259 1.333 3.655 0 4.332-2.412 4.11-4-.562-4-2.608 0-4.077.452-4.068 1.25M419 396c0 2.2.432 4 .96 4s1.504 1.913 2.168 4.25c1.512 5.316 2.502 6.52 4.072 4.95.66-.66 2.03-1.2 3.044-1.2 2.824 0 7.17-4.479 6.37-6.565-.72-1.874 2.781-6.435 4.938-6.435.662 0 1.763-.675 2.448-1.5 1.095-1.32-.271-1.5-11.378-1.5H419v4m133.446 1.106c-1.423 2.809-3.876 6.885-5.45 9.058-1.574 2.174-3.156 5.289-3.515 6.923-.474 2.156-2.188 3.993-6.244 6.692-3.075 2.047-5.765 4.257-5.978 4.912-.213.656 1.046 1.933 2.797 2.838 3.012 1.558 3.157 1.89 2.676 6.158-.483 4.284-.337 4.613 2.88 6.511 3.774 2.227 3.77 2.22 2.428 4.728-.723 1.35-.353 2.617 1.5 5.128 2.001 2.712 2.46 4.512 2.46 9.64V466h23.841l.566-2.75c1.852-9.003 4.58-46.159 4.588-62.5L575 392h-19.966l-2.588 5.106m29.535.144c-.053 14.547-2.416 48.011-4.556 64.52l-.553 4.269 21.811-.269 21.812-.27 1.727-8c3.229-14.962 5.793-34.961 6.443-50.25l.648-15.25H582l-.019 5.25m53.587 8.5c-1.008 19.758-5.488 51.666-8.273 58.923-.411 1.072 2.864 1.327 17.02 1.327h17.53l1.016-3.25C669.753 440.707 674 416.417 674 399.039V392h-37.73l-.702 13.75m45.984-12.5c-.213.688-.663 5.75-1.001 11.25-.916 14.882-3.36 30.422-7.077 45-1.824 7.15-3.632 13.808-4.019 14.796-.645 1.644-.084 1.772 6.624 1.5l7.329-.296 3.39-10.5C692.053 438.728 697 409.789 697 395.326V392h-7.531c-5.153 0-7.654.395-7.917 1.25M317 473.533c0 1.113 5.484 11.306 10.642 19.78 7.184 11.804 16.132 23.434 25.723 33.437 6.924 7.221 8.343 8.25 11.372 8.25h3.461l-4.912-5.75c-12.629-14.786-23.358-31.33-30.786-47.476l-4-8.694-5.75-.04c-3.163-.022-5.75.2-5.75.493m19-.011c0 .992 8.229 16.995 11.815 22.978 5.641 9.41 14.327 21.256 22.18 30.25 6.925 7.93 7.371 8.25 11.491 8.25h4.287l.697-4.647c.383-2.556 1.181-5.422 1.772-6.369.842-1.349.459-2.78-1.77-6.603-1.566-2.685-4.752-8.763-7.08-13.507-3.722-7.583-4.516-8.58-6.563-8.241-1.352.224-4.835-.982-8.301-2.874-4.933-2.692-6.085-3.823-6.622-6.503-.358-1.784-1.251-3.966-1.984-4.849-.733-.884-1.233-2.911-1.111-4.507.216-2.832-1.078-3.896-2.311-1.9-1.006 1.628-8.479 1.22-9.138-.5-.53-1.38-7.362-2.287-7.362-.978m218.264 3.8c4.842 4.707 6.497 9.546 4.795 14.022-.823 2.165-.559 3.097 1.603 5.666 1.423 1.691 2.753 2.909 2.955 2.706.389-.388 5.383-24.376 5.383-25.854 0-.474-4.316-.862-9.592-.862h-9.592l4.448 4.322m21.297-2.072c-.263 1.238-1.66 8.319-3.106 15.737-1.447 7.418-2.847 13.838-3.112 14.267-.913 1.477 10.782 13.628 15.154 15.744 3.086 1.495 4.924 3.276 6.348 6.153l2.003 4.05 2.75-4.351c4.958-7.843 14.208-28.118 18.345-40.211 2.231-6.524 4.057-12.261 4.057-12.75 0-.49-9.41-.889-20.981-.889-20.95 0-20.982.003-21.458 2.25m47.953 4c-3.097 11.06-10.443 28.899-17.502 42.5L599.134 535h22.704l5.948-7.394c10.946-13.607 20.636-29.646 28.012-46.365 1.761-3.992 3.202-7.48 3.202-7.75 0-.27-7.591-.491-16.868-.491h-16.868l-1.75 6.25m40.984-1.5c-5.368 14.369-20.73 41.002-31.149 54l-2.605 3.25h4.878c4.633-.001 5.104-.262 9.378-5.194 12.114-13.979 23.326-30.948 30.672-46.422 2.38-5.013 4.328-9.401 4.328-9.75 0-.349-3.089-.634-6.864-.634h-6.864l-1.774 4.75m-217.113-.133c-9.769 3.465-16.736 13.185-16.696 23.293.058 14.367 11.291 25.07 26.311 25.07s26.253-10.703 26.311-25.07c.069-17.336-18.597-29.438-35.926-23.293m-76.337 65.941C375.185 548.542 410 571.845 410 569.63c0-.232-2.363-1.93-5.25-3.774-6.167-3.937-23.186-17.494-26.674-21.247-1.556-1.674-3.482-2.609-5.373-2.609-2.556 0-2.776.207-1.655 1.558m222.727-1c-.306.307-.063 1.869.542 3.472.944 2.499.773 3.357-1.197 6.021-2.25 3.044-2.353 7.949-.166 7.949 1.215 0 14.761-10.895 18.483-14.866l2.937-3.134h-10.02c-5.511 0-10.272.251-10.579.558m27.171 3.038c-6.248 6.521-21.3 18.692-30.108 24.345-13.123 8.422-13.169 8.517-1.28 2.593 6.082-3.03 15.223-8.381 20.313-11.892 9.781-6.747 21.975-16.631 22.071-17.892.032-.413-1.654-.75-3.746-.75-3.061 0-4.477.702-7.25 3.596m-183.252 4.936c-2.332 2.052-3.842 2.468-8.946 2.468h-6.14l3.446 3.589c5.394 5.617 18.09 14.844 27.167 19.744 8.292 4.476 22.302 9.993 23.968 9.437.488-.162-1.493-2.289-4.401-4.726-7.383-6.187-14.979-15.111-21.086-24.774-4.636-7.335-5.529-8.23-8.202-8.219-1.752.007-4.167 1.039-5.806 2.481m27.806-1.585c-1.1.502-3.687.944-5.75.983-2.062.038-3.75.357-3.75.708s2.587 4.235 5.75 8.632c7.288 10.133 17.674 19.786 25.491 23.693 7.814 3.904 9.558 3.976 6.955.287-3.512-4.979-6.911-12.602-10.144-22.75-1.752-5.5-3.493-10.307-3.869-10.681-1.161-1.159-12.569-1.836-14.683-.872m24.75.759c-1.238.238-2.25.816-2.25 1.284 0 1.657 6.26 18.576 8.514 23.01 1.259 2.475 3.401 5.537 4.76 6.805 2.288 2.133 2.595 2.183 4.106.672 2.343-2.343 3.432-4.638 5.561-11.715 1.596-5.308 4.059-15.811 4.059-17.311 0-.248-3.545-.451-7.878-.451-5.782 0-8.208-.399-9.122-1.5-1.217-1.466-3.205-1.67-7.75-.794m31.291 4.544c-3.385 15.307-5.048 21.145-7.414 26.016-2.672 5.501-2.705 5.737-.714 5.155 3.956-1.156 12.593-6.851 16.502-10.881 4.472-4.609 14.085-18.307 14.085-20.07 0-.751-2.967-1.405-8.25-1.816-13.035-1.014-13.647-.946-14.209 1.596M401.5 555.448c4.809 3.908 22.478 14.201 31.082 18.106 8.739 3.967 8.725 3.891-.566-3.131-3.567-2.695-9.472-7.718-13.122-11.162L412.257 553l-6.879.005-6.878.005 3 2.438m156.878 2.198c-1.758 1.183-2.601 1.209-4.92.153-2.004-.913-2.905-.959-3.171-.16-1.077 3.231-10.263 15.656-15.636 21.15l-6.151 6.288 4.378-1.539c10.18-3.58 23.497-11.594 32.122-19.333 4.046-3.63 4.298-4.104 2.5-4.699-1.1-.365-3.125-1.254-4.5-1.975-2.091-1.098-2.847-1.079-4.622.115m16.546 6.954c-1.333 1.43-5.939 5.255-10.236 8.5-4.296 3.245-7.182 5.9-6.413 5.9 1.831 0 25.725-11.949 25.725-12.865 0-.646-5.257-4.135-6.23-4.135-.232 0-1.512 1.17-2.846 2.6"/>
  <path fill="#04acec" fill-rule="evenodd" d="M467.5 14.667c-96.784 8.006-187.441 49.707-255.993 117.756-26.649 26.453-45.084 49.985-64.768 82.674-8.58 14.25-23.627 45.693-29.384 61.403-8.491 23.174-14.148 43.528-18.757 67.5-2.736 14.23-4.6 29.007-3.658 28.989.924-.018 9.247-2.656 14.06-4.456 4.918-1.84 15.639-5.751 23.5-8.573 2.75-.988 14.225-5.02 25.5-8.96 11.275-3.94 22.75-7.991 25.5-9.002 2.75-1.011 17.375-6.185 32.5-11.498s29.75-10.484 32.5-11.49a1307.53 1307.53 0 0 1 12.624-4.508l7.625-2.678 1.707-8.162c6.568-31.396 23.324-71.758 40.988-98.73 24.922-38.058 55.779-66.576 92.186-85.198 11.511-5.888 13.802-6.821 29.87-12.161 37.244-12.377 81.953-12.735 120-.961 51.392 15.903 98.871 50.944 132.635 97.888 23.171 32.217 37.915 64.532 48.386 106.055.262 1.035 6.328 3.755 19.735 8.847 3.716 1.412 9.566 3.663 13 5.003A70617.3 70617.3 0 0 0 818 344.148a2891.222 2891.222 0 0 0 17 6.548c6.403 2.431 9.687 3.705 27.5 10.669 4.95 1.936 13.275 5.149 18.5 7.142a1503.616 1503.616 0 0 1 16.873 6.558c9.037 3.598 10.53 3.702 9.797.685-.301-1.238-.83-5.175-1.175-8.75-2.254-23.369-12.535-64.392-22.806-91-5.501-14.252-7.087-17.96-12.617-29.5C834.51 170.19 775.116 106.891 701.5 65.778c-20.653-11.534-48.676-23.932-69.5-30.749-46.782-15.314-83.874-21.128-133-20.849-15.125.086-29.3.305-31.5.487M94.004 436.706c.015 35.854 7.797 80.395 20.494 117.294 11.757 34.17 28.121 66.707 48.269 95.977 23.204 33.712 57.163 69.155 89.733 93.658 24.374 18.337 61.936 40.221 82.895 48.297 2.808 1.081 8.48 3.376 12.605 5.099 24.74 10.331 60.333 19.788 91.849 24.404 33.683 4.932 81.503 5.372 111.651 1.026 5.5-.793 13.15-1.904 17-2.47 13.226-1.943 37.95-7.849 53.65-12.816 56.047-17.728 104.878-45.128 148.006-83.045 66.978-58.888 111.477-136.484 128.254-223.645 3.507-18.216 6.59-46.901 6.59-61.303V427h-15l-.013 9.75c-.076 55.682-18.102 122.419-46.885 173.575-47.548 84.508-121.148 146.037-213.918 178.838-25.048 8.856-55.769 15.74-87.184 19.537-21.95 2.654-65.698 2.405-88.976-.504-69.279-8.659-130.77-32.564-185.524-72.123-25.549-18.459-55.779-47.142-74.905-71.073-24.573-30.747-46.277-68.244-58.75-101.5-5.573-14.858-6.65-17.978-9.149-26.5-9.641-32.871-14.462-61.245-15.549-91.5l-.647-18-7.25-.294-7.25-.294.004 9.794m353.381 40.911c-9.769 3.465-16.736 13.185-16.696 23.293.058 14.367 11.291 25.07 26.311 25.07s26.253-10.703 26.311-25.07c.069-17.336-18.597-29.438-35.926-23.293"/>
  <path fill="#7a7a7e" fill-rule="evenodd" d="M477.773 194.935c-19.514 5.263-36.796 15.386-53.025 31.06l-9.248 8.931 15.647.037 15.647.037 6.669-10.018c7.953-11.947 17.719-22.13 26.287-27.413 8.595-5.299 8.479-5.454-1.977-2.634m70.86 2.416c13.167 7.098 25.957 17.869 37.934 31.947l4.933 5.797 11.421-.297 11.421-.298-8.421-7.135c-16.491-13.972-35.966-25.208-53.393-30.805-10.487-3.368-11.303-3.202-3.895.791m-103.868 1.622c-17.402 6.468-37.442 18.063-52.216 30.21l-6.466 5.317 10.014.286 10.013.285 9.695-9.829c10.226-10.368 20.421-18.433 31.195-24.679 9.826-5.696 9.477-5.944-2.235-1.59m55.785.567c-1.295 1.397-3.47 4.898-4.834 7.778-2.694 5.69-8.716 23.788-8.716 26.194 0 1.249 2.33 1.488 14.5 1.488 7.975 0 14.499-.338 14.497-.75-.012-2.763-3.408-19.358-5.016-24.509C508.83 202.85 505.61 197 503.967 197c-.584 0-2.122 1.143-3.417 2.54m-15.262 2.468c-9.274 5.319-20.224 16.775-28.428 29.742l-2.056 3.25h24.738l2.324-8.907c1.278-4.899 3.886-12.436 5.796-16.75 1.91-4.314 3.715-8.405 4.012-9.093.831-1.923-.706-1.5-6.386 1.758m30.8 1.982c1.508 3.967 6.912 27.726 6.912 30.386 0 .343 4.034.624 8.965.624 8.146 0 9.07-.196 10.114-2.147.855-1.598.863-3.071.032-5.75-1.959-6.32-4.218-8.311-10.064-8.872l-5.243-.504.65-5.205c.628-5.029.538-5.29-2.652-7.715-3.089-2.348-9.138-5.807-10.156-5.807-.25 0 .399 2.246 1.442 4.99M541 201.768c0 .44 1.237 1.534 2.75 2.429 5.506 3.261 7.389 6.249 7.969 12.642.469 5.169 1.026 6.49 3.914 9.29 2.246 2.177 3.367 4.197 3.367 6.067V235h23.136l-1.969-2.75c-3.127-4.367-16.067-16.484-23.167-21.694-7.023-5.153-16-10.084-16-8.788m40-.341c0 .234 2.499 1.856 5.554 3.604 8.478 4.85 20.639 14.177 29.401 22.548 7.552 7.215 8.078 7.53 12.105 7.232l4.21-.311-6.885-5.795c-9.552-8.041-22.142-16.537-33.468-22.587-9.157-4.89-10.917-5.647-10.917-4.691m-178.556 10.377c-8.921 5.2-24.049 15.599-29.406 20.214L369.576 235h3.057c2.343 0 4.788-1.528 10.462-6.538 4.073-3.595 11.383-9.333 16.245-12.75 15.104-10.614 15.532-11.153 3.104-3.908m-49.627 39.446c-10.09 11.19-15.767 18.515-23.059 29.75-5.642 8.692-12.758 22.094-12.758 24.027 0 .671 1.971.963 5.224.775l5.225-.302 6.045-12c8.704-17.276 24.839-41.148 32.38-47.905 2.987-2.677 2.656-3.595-1.295-3.595-3.048 0-4.333 1.011-11.762 9.25m20.543-4c-7.404 7.884-15.464 18.23-21.768 27.942-6.479 9.98-15.592 27.116-15.592 29.317 0 1.259 2.473 1.491 15.87 1.491h15.871l2.729-7.75c4.362-12.388 14.712-32.825 22.789-45l7.463-11.25H378.29l-4.93 5.25m30.391 2.5c-7.385 10.275-14.1 21.687-19.423 33.011-3.755 7.989-9.328 21.655-9.328 22.876 0 .22 10.429.279 23.176.131l23.176-.268 2.757-11c3.476-13.866 9.688-31.861 14.881-43.1 2.205-4.774 4.01-8.842 4.01-9.04 0-.198-7.578-.36-16.839-.36h-16.84l-5.57 7.75m42.311 2.5c-7.566 16.162-19.045 51.434-17.305 53.174.317.317 9.256.576 19.864.576h19.288l.467-3.25c.257-1.788 1.437-10.675 2.623-19.75 1.955-14.962 5.299-34.797 6.618-39.25.475-1.606-.601-1.75-13.119-1.75h-13.637l-4.799 10.25m38.442-9c-1.759 5.075-9.504 54.706-9.504 60.905 0 1.685.984 1.845 11.385 1.845h11.385l-.513-6.393c-.498-6.194-.424-6.449 2.365-8.197 1.583-.993 3.025-1.9 3.205-2.017.179-.117 1.152-3.424 2.161-7.348 1.629-6.333 5.041-12.861 12.145-23.239 1.415-2.067 1.715-3.813 1.291-7.5-1.185-10.295.672-9.306-17.474-9.306-11.913 0-16.124.32-16.446 1.25m39.854 2.5c.341 2.063.625 4.762.631 6 .007 1.474.616 2.25 1.765 2.25 1.885 0 14.246-9.645 14.246-11.115 0-.487-3.884-.885-8.631-.885h-8.631l.62 3.75M559 243.331c0 .731 1.977 7.369 4.392 14.75 2.416 7.38 5.404 17.837 6.639 23.237 1.782 7.785 2.736 10.138 4.608 11.365 2.754 1.804 3.041 3.837.725 5.133-1.268.71-1.483 1.734-.955 4.55l.682 3.634h20.954c17.318 0 20.955-.244 20.955-1.403 0-3.074-7.453-22.778-12.942-34.212-3.198-6.664-8.162-15.776-11.032-20.25L587.807 242h-14.403c-11.322 0-14.404.285-14.404 1.331m41.424 5.889c7.124 11.74 14.43 27.593 19.558 42.436l4.783 13.844 17.117.274c9.484.151 17.118-.122 17.118-.613 0-.487-1.37-4.21-3.045-8.273-6.371-15.453-18.078-34.772-28.842-47.593l-5.704-6.795-12.701-.28-12.701-.28 4.417 7.28M631 242.527c0 .29 2.649 4.002 5.887 8.25 10.322 13.543 19.199 29.033 26.202 45.723l3.776 9 6.567.296c5.249.236 6.568 0 6.568-1.176 0-2.775-11.845-25.12-18.882-35.62-3.87-5.775-10.217-14.213-14.103-18.75-6.896-8.051-7.174-8.25-11.541-8.25-2.461 0-4.474.237-4.474.527M557.625 265.7c-.461 1.392-.099 3.412.985 5.5 2.205 4.25 2.775 2.541 1.071-3.214-1.149-3.883-1.426-4.19-2.056-2.286m-27.504 32.402c-1.26 1.173-2.006 2.756-1.689 3.582.312.814.568 2.118.568 2.898 0 1.176 3.333 1.418 19.5 1.418H568l-.015-2.25c-.038-5.56-5.638-7.983-15.566-6.736-4.138.519-8.591.501-10.947-.045-6.147-1.426-8.9-1.151-11.351 1.133M312.011 315.5c-7.349 17.271-13.934 47.747-13.991 64.75L298 386h12.856l.5-5.25c2.86-30.063 4.386-38.887 9.674-55.969 1.655-5.345 3.257-10.364 3.559-11.153.43-1.121-.698-1.511-5.163-1.781l-5.713-.347-1.702 4m19.495-.512c-2.539 4.91-8.482 26.731-10.489 38.512-1.03 6.05-2.192 15.837-2.582 21.75l-.708 10.75h18.137c16.798 0 18.136-.133 18.136-1.8 0-14.037 4.797-47.274 9.024-62.529 1.087-3.922 1.976-7.702 1.976-8.401 0-.974-3.727-1.27-15.974-1.27h-15.975l-1.545 2.988m40.391-.238c-4.158 10.855-9.472 40.965-10.545 59.751L360.695 386h51.084l.685-12.25c1.247-22.294 4.041-45.789 7.076-59.5l.498-2.25H372.95l-1.053 2.75m54.765-2c-2.042 3.358-7.606 50.684-7.641 65L419 386h27.632l2.934-6.25c1.651-3.516 5.596-9.108 9.019-12.785l6.085-6.535.65-14.465c.358-7.956.95-18.852 1.316-24.215l.666-9.75H447.21c-11.051 0-20.297.337-20.548.75m46.979 6.5c-1.607 19.61-1.742 23.205-.821 21.875.524-.756 2.193-1.511 3.708-1.678 4.08-.447 5.483-2.45 6.435-9.182.471-3.332 1.357-6.995 1.971-8.141.613-1.146.842-3.168.509-4.494-.333-1.327-.119-2.712.476-3.08 2.594-1.603.625-2.55-5.302-2.55h-6.382l-.594 7.25M529 313.147c0 2.307 7.167 9.799 14.735 15.404 11.115 8.232 17.179 14.287 19.477 19.449 6.665 14.967 7.586 17.896 6.2 19.723-.742.977-1.363 2.816-1.38 4.087-.019 1.371-2.064 4.458-5.032 7.596-2.75 2.908-5 5.581-5 5.941 0 .359 3.825.653 8.5.653h8.5v-6.267c0-15.142-3.805-59.81-5.62-65.983-.468-1.591-2.327-1.75-20.447-1.75-14.325 0-19.933.323-19.933 1.147m47.415 1.603c1.745 8.367 5.466 54.154 5.566 68.5L582 386h47.308l-.674-13.75c-.743-15.177-2.537-29.306-5.739-45.214-3.397-16.87-.293-15.036-25.45-15.036h-21.604l.574 2.75m50.59-1.5c.003.688 1.094 6.425 2.424 12.75 2.893 13.754 5.249 32.177 6.17 48.25l.673 11.75H674v-7.039c0-15.405-4.286-41.844-9.517-58.711l-2.559-8.25h-17.462c-13.306 0-17.461.298-17.457 1.25m42.474.454c.4.988 2.207 7.646 4.014 14.796 3.815 15.095 6.314 31.304 7.192 46.651l.621 10.849h15.952l-.697-10.25c-1.336-19.679-4.963-38.954-10.395-55.25l-2.666-8-7.375-.296c-6.759-.272-7.314-.147-6.646 1.5m-371.095 88.797c1.2 18.551 6.128 40.747 12.867 57.951l2.332 5.953 5.459-.289c3.002-.158 5.601-.43 5.776-.603.174-.173-1.016-4.297-2.646-9.164s-4.113-14.024-5.519-20.349c-2.248-10.114-3.155-16.762-5.288-38.75l-.509-5.25h-13.151l.679 10.501m19.647-5.751c.093 14.151 4.687 39.78 10.082 56.25 4.462 13.623 3.929 13.003 11.172 12.982l6.215-.018 4.165-8.732c6.092-12.774 6.147-13.485 1.341-17.347-2.203-1.771-4.006-3.854-4.006-4.629 0-1.529 4.393-6.274 7.308-7.895 1.709-.95 1.741-1.94.589-18.183L353.679 392H318l.031 4.75M361 398.853c0 3.77.287 9.604.639 12.966l.639 6.112 7.361-6.588c4.068-3.641 7.361-7.407 7.361-8.419 0-1.22 1.571-2.525 4.713-3.915 4.876-2.157 8.287-4.694 8.287-6.164 0-.465-6.525-.845-14.5-.845H361v6.853m33.015-5.603c.009.688.447 1.925.975 2.75.853 1.333 1.259 1.333 3.655 0 4.332-2.412 4.11-4-.562-4-2.608 0-4.077.452-4.068 1.25M419 396c0 2.2.432 4 .96 4s1.504 1.913 2.168 4.25c1.512 5.316 2.502 6.52 4.072 4.95.66-.66 2.03-1.2 3.044-1.2 2.824 0 7.17-4.479 6.37-6.565-.72-1.874 2.781-6.435 4.938-6.435.662 0 1.763-.675 2.448-1.5 1.095-1.32-.271-1.5-11.378-1.5H419v4m133.446 1.106c-1.423 2.809-3.876 6.885-5.45 9.058-1.574 2.174-3.156 5.289-3.515 6.923-.474 2.156-2.188 3.993-6.244 6.692-3.075 2.047-5.765 4.257-5.978 4.912-.213.656 1.046 1.933 2.797 2.838 3.012 1.558 3.157 1.89 2.676 6.158-.483 4.284-.337 4.613 2.88 6.511 3.774 2.227 3.77 2.22 2.428 4.728-.723 1.35-.353 2.617 1.5 5.128 2.001 2.712 2.46 4.512 2.46 9.64V466h23.841l.566-2.75c1.852-9.003 4.58-46.159 4.588-62.5L575 392h-19.966l-2.588 5.106m29.535.144c-.053 14.547-2.416 48.011-4.556 64.52l-.553 4.269 21.811-.269 21.812-.27 1.727-8c3.229-14.962 5.793-34.961 6.443-50.25l.648-15.25H582l-.019 5.25m53.587 8.5c-1.008 19.758-5.488 51.666-8.273 58.923-.411 1.072 2.864 1.327 17.02 1.327h17.53l1.016-3.25C669.753 440.707 674 416.417 674 399.039V392h-37.73l-.702 13.75m45.984-12.5c-.213.688-.663 5.75-1.001 11.25-.916 14.882-3.36 30.422-7.077 45-1.824 7.15-3.632 13.808-4.019 14.796-.645 1.644-.084 1.772 6.624 1.5l7.329-.296 3.39-10.5C692.053 438.728 697 409.789 697 395.326V392h-7.531c-5.153 0-7.654.395-7.917 1.25M760 435.965c0 2.73-.871 9.458-1.936 14.951-6.372 32.872-25.898 62.809-59.307 90.929-9.451 7.955-9.342 7.618-4.43 13.619l2.426 2.965 7.374-5.94c11.845-9.542 28.997-27.284 37.769-39.069 9.6-12.897 20.766-34.638 24.612-47.92 2.592-8.954 5.955-31.942 4.918-33.62-.299-.484-2.992-.88-5.985-.88H760v4.965m29.21 7.741c-4.166 44.336-27.376 85.395-70.21 124.206-5.225 4.734-10.968 9.744-12.763 11.133l-3.263 2.526 3.1 4.214c1.704 2.318 3.469 4.215 3.922 4.215 3.29 0 35.145-30.484 46.501-44.5 16.419-20.264 29.497-43.346 36.547-64.5 3.935-11.808 7.677-30.93 8.12-41.5l.336-8-5.544-.294-5.544-.294-1.202 12.794m28.502-12.084c-.392.391-.72 4.124-.729 8.295-.047 20.256-5.311 46.126-13.652 67.083-14.296 35.92-33.897 64.05-68.151 97.803l-16.544 16.303 3.967 3.968 3.968 3.968 14.533-13.932c36.552-35.043 60.634-70.193 74.936-109.382 7.214-19.768 12.115-44.71 12.326-62.728l.134-11.5-5.038-.295c-2.772-.162-5.359.025-5.75.417m31.955.045c-.367.366-.667 4.434-.667 9.039 0 26.764-7.785 60.38-21.091 91.071-12.174 28.079-28.251 53.073-53.409 83.03-6.629 7.894-34.452 35.665-41.451 41.375l-4.45 3.631 3.45 4.009c1.898 2.205 3.959 4.047 4.58 4.093 1.513.114 31.371-28.832 42.911-41.598 31.694-35.063 56.638-77.135 68.965-116.317 7.72-24.539 12.39-51.601 12.469-72.25L861 431h-5.333c-2.934 0-5.634.3-6 .667M317 473.533c0 1.113 5.484 11.306 10.642 19.78 7.184 11.804 16.132 23.434 25.723 33.437 6.924 7.221 8.343 8.25 11.372 8.25h3.461l-4.912-5.75c-12.629-14.786-23.358-31.33-30.786-47.476l-4-8.694-5.75-.04c-3.163-.022-5.75.2-5.75.493m19-.011c0 .992 8.229 16.995 11.815 22.978 5.641 9.41 14.327 21.256 22.18 30.25 6.925 7.93 7.371 8.25 11.491 8.25h4.287l.697-4.647c.383-2.556 1.181-5.422 1.772-6.369.842-1.349.459-2.78-1.77-6.603-1.566-2.685-4.752-8.763-7.08-13.507-3.722-7.583-4.516-8.58-6.563-8.241-1.352.224-4.835-.982-8.301-2.874-4.933-2.692-6.085-3.823-6.622-6.503-.358-1.784-1.251-3.966-1.984-4.849-.733-.884-1.233-2.911-1.111-4.507.216-2.832-1.078-3.896-2.311-1.9-1.006 1.628-8.479 1.22-9.138-.5-.53-1.38-7.362-2.287-7.362-.978m218.264 3.8c4.842 4.707 6.497 9.546 4.795 14.022-.823 2.165-.559 3.097 1.603 5.666 1.423 1.691 2.753 2.909 2.955 2.706.389-.388 5.383-24.376 5.383-25.854 0-.474-4.316-.862-9.592-.862h-9.592l4.448 4.322m21.297-2.072c-.263 1.238-1.66 8.319-3.106 15.737-1.447 7.418-2.847 13.838-3.112 14.267-.913 1.477 10.782 13.628 15.154 15.744 3.086 1.495 4.924 3.276 6.348 6.153l2.003 4.05 2.75-4.351c4.958-7.843 14.208-28.118 18.345-40.211 2.231-6.524 4.057-12.261 4.057-12.75 0-.49-9.41-.889-20.981-.889-20.95 0-20.982.003-21.458 2.25m47.953 4c-3.097 11.06-10.443 28.899-17.502 42.5L599.134 535h22.704l5.948-7.394c10.946-13.607 20.636-29.646 28.012-46.365 1.761-3.992 3.202-7.48 3.202-7.75 0-.27-7.591-.491-16.868-.491h-16.868l-1.75 6.25m40.984-1.5c-5.368 14.369-20.73 41.002-31.149 54l-2.605 3.25h4.878c4.633-.001 5.104-.262 9.378-5.194 12.114-13.979 23.326-30.948 30.672-46.422 2.38-5.013 4.328-9.401 4.328-9.75 0-.349-3.089-.634-6.864-.634h-6.864l-1.774 4.75m-293.45 65.808C375.185 548.542 410 571.845 410 569.63c0-.232-2.363-1.93-5.25-3.774-6.167-3.937-23.186-17.494-26.674-21.247-1.556-1.674-3.482-2.609-5.373-2.609-2.556 0-2.776.207-1.655 1.558m222.727-1c-.306.307-.063 1.869.542 3.472.944 2.499.773 3.357-1.197 6.021-2.25 3.044-2.353 7.949-.166 7.949 1.215 0 14.761-10.895 18.483-14.866l2.937-3.134h-10.02c-5.511 0-10.272.251-10.579.558m27.171 3.038c-6.248 6.521-21.3 18.692-30.108 24.345-13.123 8.422-13.169 8.517-1.28 2.593 6.082-3.03 15.223-8.381 20.313-11.892 9.781-6.747 21.975-16.631 22.071-17.892.032-.413-1.654-.75-3.746-.75-3.061 0-4.477.702-7.25 3.596m-183.252 4.936c-2.332 2.052-3.842 2.468-8.946 2.468h-6.14l3.446 3.589c5.394 5.617 18.09 14.844 27.167 19.744 8.292 4.476 22.302 9.993 23.968 9.437.488-.162-1.493-2.289-4.401-4.726-7.383-6.187-14.979-15.111-21.086-24.774-4.636-7.335-5.529-8.23-8.202-8.219-1.752.007-4.167 1.039-5.806 2.481m27.806-1.585c-1.1.502-3.687.944-5.75.983-2.062.038-3.75.357-3.75.708s2.587 4.235 5.75 8.632c7.288 10.133 17.674 19.786 25.491 23.693 7.814 3.904 9.558 3.976 6.955.287-3.512-4.979-6.911-12.602-10.144-22.75-1.752-5.5-3.493-10.307-3.869-10.681-1.161-1.159-12.569-1.836-14.683-.872m24.75.759c-1.238.238-2.25.816-2.25 1.284 0 1.657 6.26 18.576 8.514 23.01 1.259 2.475 3.401 5.537 4.76 6.805 2.288 2.133 2.595 2.183 4.106.672 2.343-2.343 3.432-4.638 5.561-11.715 1.596-5.308 4.059-15.811 4.059-17.311 0-.248-3.545-.451-7.878-.451-5.782 0-8.208-.399-9.122-1.5-1.217-1.466-3.205-1.67-7.75-.794m31.291 4.544c-3.385 15.307-5.048 21.145-7.414 26.016-2.672 5.501-2.705 5.737-.714 5.155 3.956-1.156 12.593-6.851 16.502-10.881 4.472-4.609 14.085-18.307 14.085-20.07 0-.751-2.967-1.405-8.25-1.816-13.035-1.014-13.647-.946-14.209 1.596M401.5 555.448c4.809 3.908 22.478 14.201 31.082 18.106 8.739 3.967 8.725 3.891-.566-3.131-3.567-2.695-9.472-7.718-13.122-11.162L412.257 553l-6.879.005-6.878.005 3 2.438m156.878 2.198c-1.758 1.183-2.601 1.209-4.92.153-2.004-.913-2.905-.959-3.171-.16-1.077 3.231-10.263 15.656-15.636 21.15l-6.151 6.288 4.378-1.539c10.18-3.58 23.497-11.594 32.122-19.333 4.046-3.63 4.298-4.104 2.5-4.699-1.1-.365-3.125-1.254-4.5-1.975-2.091-1.098-2.847-1.079-4.622.115m16.546 6.954c-1.333 1.43-5.939 5.255-10.236 8.5-4.296 3.245-7.182 5.9-6.413 5.9 1.831 0 25.725-11.949 25.725-12.865 0-.646-5.257-4.135-6.23-4.135-.232 0-1.512 1.17-2.846 2.6M937 821.935c-13.2 4.03-21.176 14.659-21.176 28.22 0 11.706 6.224 21.233 17.125 26.212 6.586 3.009 17.039 2.917 23.051-.201 23.543-12.211 22.325-44.015-2.04-53.273-5.063-1.924-12.432-2.34-16.96-.958M848 917.5v93.5h57V824h-57v93.5m87.288-89.677c-9.403 3.82-15.975 14.235-14.992 23.76 1.758 17.031 19.072 27.175 34.204 20.04 6.084-2.87 8.73-5.627 11.581-12.073 8.698-19.664-10.867-39.823-30.793-31.727M930 850v17h6v-15h3.599c4.068 0 7.667 3.184 12.049 10.663 2.209 3.769 2.988 4.337 5.947 4.337 1.873 0 3.405-.216 3.405-.481 0-.477-5.516-8.969-8.62-13.269-1.359-1.883-1.388-2.25-.176-2.25 1.925 0 5.375-3.903 6.106-6.908.749-3.082-1.549-8.614-4.16-10.012-1.11-.594-6.998-1.08-13.084-1.08H930v17m-344.579-12.656c-.29.757-.374 31.026-.187 67.266.312 60.318.494 66.355 2.15 71.39 3.163 9.616 8.594 18.779 14.13 23.839 9.581 8.756 20.504 11.085 52.236 11.135L670 1011v-47h-11.045c-10.394 0-11.191-.145-13.5-2.455-2.415-2.414-2.455-2.735-2.455-19.5V925h27v-46h-26.96l-.27-21.25-.27-21.25-28.275-.266c-23.254-.218-28.37-.021-28.804 1.11M936 842.458V847h6.878c7.701 0 9.468-1.124 8.944-5.69-.319-2.781-.401-2.813-8.072-3.102l-7.75-.292v4.542M271.5 874.95c-16.045 1.661-33.146 9.638-44.005 20.526-12.569 12.603-17.898 26.932-17.858 48.024.038 19.999 5.151 34.751 16.175 46.662 15.291 16.521 37.726 23.946 64.041 21.196l6.147-.643v-52.408l-5.25 1.814c-9.606 3.318-15.864 2.097-21.092-4.116-4.731-5.622-6.061-15.691-2.906-22.005 2.423-4.851 10.095-8.953 16.748-8.955 9.446-.002 17.406 5.552 19.42 13.551.668 2.654 1.08 17.273 1.08 38.347V1011h55l-.02-32.75c-.011-18.013-.457-35.776-.992-39.473-3.211-22.202-18.416-45.491-36.284-55.575-12.369-6.98-31.735-10.163-50.204-8.252m476.478.025c-15.765 2.035-30.076 9.877-42.732 23.416-7.013 7.503-9.973 12.724-13.399 23.634-2.028 6.46-2.346 9.511-2.339 22.475.007 12.775.356 16.187 2.351 23 6.686 22.821 20.114 36.24 44.641 44.611 6.277 2.142 8.705 2.388 23.5 2.376 15.729-.011 16.944-.157 26-3.114 16.341-5.337 29.59-13.472 37.66-23.125 2.183-2.612 4.265-5.248 4.628-5.86.375-.633-4.779-6.453-11.956-13.5-6.938-6.813-13.533-13.401-14.654-14.638-1.121-1.237-2.424-2.25-2.895-2.25-.471 0-2.977 2.033-5.569 4.518-6.083 5.829-19.323 12.433-26.38 13.156-15.741 1.613-27.831-10.096-27.833-26.956-.002-18.358 15.535-32.112 27.748-24.564l3.485 2.154-3.516 2.122c-1.934 1.167-7.377 4.36-12.096 7.096-4.718 2.736-8.589 5.363-8.601 5.838-.03 1.212 13.993 26.527 15.06 27.186.48.297 2.796-.556 5.146-1.896 2.35-1.34 17.052-9.662 32.672-18.494 15.619-8.831 28.773-16.432 29.232-16.891 1.145-1.145-4.251-12.255-9.816-20.207-5.413-7.737-15.404-17.83-21.387-21.607-6.736-4.253-17.512-7.462-28.428-8.467-11.16-1.027-12.655-1.028-20.522-.013M142.5 877.378c-11.089 3.626-17.063 7.183-25.311 15.071-8.735 8.354-15.877 19.331-19.945 30.657-2.392 6.659-2.652 8.735-2.608 20.894.051 14.436.711 17.471 6.436 29.588 3.338 7.066 12.995 19.541 18.571 23.989 5.759 4.595 12.095 8.017 19.357 10.456 5.465 1.835 8.9 2.198 21.581 2.279 14.082.09 15.655-.095 23.75-2.785 5.763-1.915 8.669-3.384 8.669-4.382 0-.825-1.541-6.483-3.425-12.573-1.884-6.09-3.941-13.04-4.572-15.446-2.403-9.164-2.472-9.246-6.433-7.591-7.773 3.248-19.36.858-25.913-5.344-10.375-9.819-10.11-27.715.544-36.719 6.213-5.251 11.259-6.805 19.794-6.093l7.626.636 6.2-18.257c3.41-10.042 6.195-18.788 6.189-19.435-.005-.648-3.595-2.56-7.978-4.25-7.541-2.909-8.704-3.071-21.75-3.028-11.575.037-14.903.411-20.782 2.333M412 876.6c-8.279 2.209-16.799 6.531-23.601 11.97-7.204 5.761-10.154 9.636-14.032 18.43l-2.867 6.5-.31 48.766-.311 48.766 27.311-.266 27.31-.266.5-40c.475-37.987.601-40.138 2.5-42.749 3.522-4.84 9.47-5.038 12.9-.429 2.04 2.742 2.108 3.968 2.383 43.25l.282 40.428H499v-38.532c0-40.232.219-42.544 4.433-46.758 2.175-2.175 6.91-2.207 8.695-.057 1.096 1.319 1.473 10.027 1.872 43.25l.5 41.597 27.75.266 27.75.266v-92.929l-2.465-7.801c-3.16-10-7.065-16.094-13.652-21.3-11.283-8.919-23.404-13.137-37.915-13.192-15.111-.059-29.992 4.846-40.022 13.19l-4.555 3.789-3.945-4.027c-4.451-4.542-15.009-9.944-23.906-12.23-7.524-1.934-24.175-1.898-31.54.068"/>
</svg>
