<svg xmlns="http://www.w3.org/2000/svg" width="800" height="800">
  <path fill="#fcfbfa" fill-rule="evenodd" d="M691 580.5c0 2.389.267 2.5 6 2.5h6v31h6v-31h5.5c5.2 0 5.5-.136 5.5-2.5V578h-29v2.5m36 15.5v18h5.948l.276-15.25.276-15.25 5.957 15.25c5.134 13.141 6.257 15.25 8.124 15.25 1.863 0 3.019-2.142 8.232-15.25l6.064-15.25.062 15.25L762 614h5v-36.11l-4.648.305-4.648.305-5.032 13.27c-2.768 7.298-5.32 12.923-5.671 12.5-.351-.424-2.857-6.506-5.57-13.517l-4.931-12.748-4.75-.002L727 578v18M88.5 617.649c-23.255 4.843-37.96 18.508-43.152 40.101-2.141 8.904-2.141 26.596 0 35.5 6.016 25.017 26.472 40.667 53.242 40.733 8.492.02 20.617-2.906 27.735-6.694 6.845-3.643 16.506-13.5 19.909-20.315 8.893-17.804 9.068-44.12.414-61.965-3.879-8-13.191-17.739-20.494-21.434-10.313-5.22-27.819-7.975-37.654-5.926m134.524.954c-6.437 1.73-12.755 5.256-18.149 10.129L201 632.233V620h-28v110h30v-36.865c0-35.906.055-36.935 2.095-39.528 3.932-4.999 14.393-8.607 24.954-8.607H235v-28l-3.25.066c-1.787.036-5.714.728-8.726 1.537m61.551-.613c-7.228 1.312-14.472 3.819-19.575 6.774-5.117 2.964-15.011 11.967-14.978 13.631.032 1.628 19.292 12.162 19.746 10.8.64-1.918 9.78-8.123 14.375-9.759 5.656-2.013 17.392-2.075 22.079-.117 4.599 1.922 6.483 4.843 7.34 11.381.782 5.96 1.636 5.422-11.562 7.287-22.414 3.167-39.68 9.928-48.899 19.147-6.487 6.487-8.39 10.962-8.876 20.866-.496 10.109 1.684 17.197 7.309 23.768 10.325 12.063 32.708 13.613 53.399 3.697 3.977-1.906 7.59-3.465 8.03-3.465.44 0 1.309 2.025 1.933 4.5l1.133 4.5h26.067l-.298-44.75-.298-44.75-2.686-5.09c-6.324-11.986-18.862-18.088-38.814-18.891-5.775-.233-12.716-.021-15.425.471m138.914.115c-7.852.942-14.855 3.67-23.906 9.311-4.045 2.521-7.589 4.584-7.875 4.584-.286 0-.817-2.159-1.18-4.798-1.062-7.72-.917-7.645-12.172-6.279-5.421.658-10.644 1.425-11.606 1.704-1.639.476-1.75 3.936-1.75 54.44V731h29v-79.832l3.75-2.953c2.063-1.625 6.225-4.234 9.25-5.8 4.613-2.386 6.737-2.851 13.167-2.88 6.764-.031 7.971.25 10.251 2.391 1.422 1.334 3.032 4.034 3.578 6 .58 2.088.995 20.099.998 43.324L435 731h30.18l-.423-43.25c-.465-47.553-.686-49.426-6.894-58.448-6.029-8.763-19.118-13.027-34.374-11.197m221.72.352c-13.599 3.1-24.987 11.13-31.141 21.958-5.638 9.919-7.546 18.523-7.557 34.085-.007 8.638.519 16.106 1.372 19.5 6.604 26.256 26.67 40.323 55.117 38.641 16.859-.997 28.269-5.897 38.031-16.334 3.283-3.509 5.969-6.783 5.969-7.275 0-.663-14.286-9.079-20.021-11.794-.304-.145-3.085 2.188-6.178 5.185-4.126 3.996-7.028 5.864-10.894 7.012-15.668 4.653-29.246-1.89-33.205-16.001-.936-3.336-1.702-7.948-1.702-10.25V679h74.291l-.585-9.75c-1.592-26.547-12.608-43.072-32.93-49.397-8.315-2.588-22.499-3.236-30.567-1.396m-126.176 1.076C498.479 625.311 485 647.624 485 675.87c0 34.514 17.178 55.214 45.924 55.34 12.103.053 20.197-3.53 26.098-11.554l2.978-4.05v9.515c0 21.326-6.752 28.668-25.461 27.686-9.345-.491-14.096-2.605-16.529-7.357-.83-1.623-1.51-3.012-1.51-3.088 0-.459-27.585 4.39-28.141 4.946-1.498 1.498 5.248 12.159 10.3 16.277 8.859 7.221 20.017 10.415 36.39 10.415 24.022 0 41.064-7.52 48.062-21.209 4.778-9.345 4.865-10.653 4.877-73.541L588 620h-23.74l-1.175 5.971-1.174 5.971-4.206-4.335c-2.792-2.878-6.221-5.08-10.205-6.551-7.911-2.923-20.998-3.623-28.467-1.523m129.396 19.36C641.474 642.052 636 650.628 636 658.366V661h44.254l-.47-4.894c-.724-7.538-4.887-13.78-11.129-16.686-6.364-2.964-14.4-3.173-20.226-.527m-121.287 1.266c-5.327 2.637-9.671 8.412-11.778 15.661-2.441 8.398-1.542 30.869 1.513 37.798 4.895 11.105 14.531 15.618 26.342 12.338 10.619-2.949 16.75-15.617 16.773-34.657.016-12.648-3.147-21.496-9.849-27.551-6.621-5.981-15.4-7.351-23.001-3.589M93.5 641.939c-13.647 2.331-20.694 13.502-20.759 32.91-.079 23.645 9.958 35.523 28.602 33.849 8.929-.802 14.29-4.576 18.657-13.134 3.452-6.765 3.5-7.032 3.5-19.462 0-14.612-1.526-20.436-7.044-26.883-5.014-5.857-14.209-8.773-22.956-7.28m209.86 33.537c-20.236 3.673-31.36 11.501-31.36 22.069 0 4.544 3.084 10.344 6.682 12.567 2.881 1.781 4.489 2.06 9.34 1.62 6.352-.576 14.881-4.031 20.463-8.289l3.515-2.68v-13.382c0-7.359-.337-13.34-.75-13.291-.413.05-3.963.674-7.89 1.386"/>
  <path fill="#fc7c04" fill-rule="evenodd" d="M0 399.5V799h799V0H0v399.5m691 181c0 2.389.267 2.5 6 2.5h6v31h6v-31h5.5c5.2 0 5.5-.136 5.5-2.5V578h-29v2.5m36 15.5v18h5.948l.276-15.25.276-15.25 5.957 15.25c5.134 13.141 6.257 15.25 8.124 15.25 1.863 0 3.019-2.142 8.232-15.25l6.064-15.25.062 15.25L762 614h5v-36.11l-4.648.305-4.648.305-5.032 13.27c-2.768 7.298-5.32 12.923-5.671 12.5-.351-.424-2.857-6.506-5.57-13.517l-4.931-12.748-4.75-.002L727 578v18M88.5 617.649c-23.255 4.843-37.96 18.508-43.152 40.101-2.141 8.904-2.141 26.596 0 35.5 6.016 25.017 26.472 40.667 53.242 40.733 8.492.02 20.617-2.906 27.735-6.694 6.845-3.643 16.506-13.5 19.909-20.315 8.893-17.804 9.068-44.12.414-61.965-3.879-8-13.191-17.739-20.494-21.434-10.313-5.22-27.819-7.975-37.654-5.926m134.524.954c-6.437 1.73-12.755 5.256-18.149 10.129L201 632.233V620h-28v110h30v-36.865c0-35.906.055-36.935 2.095-39.528 3.932-4.999 14.393-8.607 24.954-8.607H235v-28l-3.25.066c-1.787.036-5.714.728-8.726 1.537m61.551-.613c-7.228 1.312-14.472 3.819-19.575 6.774-5.117 2.964-15.011 11.967-14.978 13.631.032 1.628 19.292 12.162 19.746 10.8.64-1.918 9.78-8.123 14.375-9.759 5.656-2.013 17.392-2.075 22.079-.117 4.599 1.922 6.483 4.843 7.34 11.381.782 5.96 1.636 5.422-11.562 7.287-22.414 3.167-39.68 9.928-48.899 19.147-6.487 6.487-8.39 10.962-8.876 20.866-.496 10.109 1.684 17.197 7.309 23.768 10.325 12.063 32.708 13.613 53.399 3.697 3.977-1.906 7.59-3.465 8.03-3.465.44 0 1.309 2.025 1.933 4.5l1.133 4.5h26.067l-.298-44.75-.298-44.75-2.686-5.09c-6.324-11.986-18.862-18.088-38.814-18.891-5.775-.233-12.716-.021-15.425.471m138.914.115c-7.852.942-14.855 3.67-23.906 9.311-4.045 2.521-7.589 4.584-7.875 4.584-.286 0-.817-2.159-1.18-4.798-1.062-7.72-.917-7.645-12.172-6.279-5.421.658-10.644 1.425-11.606 1.704-1.639.476-1.75 3.936-1.75 54.44V731h29v-79.832l3.75-2.953c2.063-1.625 6.225-4.234 9.25-5.8 4.613-2.386 6.737-2.851 13.167-2.88 6.764-.031 7.971.25 10.251 2.391 1.422 1.334 3.032 4.034 3.578 6 .58 2.088.995 20.099.998 43.324L435 731h30.18l-.423-43.25c-.465-47.553-.686-49.426-6.894-58.448-6.029-8.763-19.118-13.027-34.374-11.197m221.72.352c-13.599 3.1-24.987 11.13-31.141 21.958-5.638 9.919-7.546 18.523-7.557 34.085-.007 8.638.519 16.106 1.372 19.5 6.604 26.256 26.67 40.323 55.117 38.641 16.859-.997 28.269-5.897 38.031-16.334 3.283-3.509 5.969-6.783 5.969-7.275 0-.663-14.286-9.079-20.021-11.794-.304-.145-3.085 2.188-6.178 5.185-4.126 3.996-7.028 5.864-10.894 7.012-15.668 4.653-29.246-1.89-33.205-16.001-.936-3.336-1.702-7.948-1.702-10.25V679h74.291l-.585-9.75c-1.592-26.547-12.608-43.072-32.93-49.397-8.315-2.588-22.499-3.236-30.567-1.396m-126.176 1.076C498.479 625.311 485 647.624 485 675.87c0 34.514 17.178 55.214 45.924 55.34 12.103.053 20.197-3.53 26.098-11.554l2.978-4.05v9.515c0 21.326-6.752 28.668-25.461 27.686-9.345-.491-14.096-2.605-16.529-7.357-.83-1.623-1.51-3.012-1.51-3.088 0-.459-27.585 4.39-28.141 4.946-1.498 1.498 5.248 12.159 10.3 16.277 8.859 7.221 20.017 10.415 36.39 10.415 24.022 0 41.064-7.52 48.062-21.209 4.778-9.345 4.865-10.653 4.877-73.541L588 620h-23.74l-1.175 5.971-1.174 5.971-4.206-4.335c-2.792-2.878-6.221-5.08-10.205-6.551-7.911-2.923-20.998-3.623-28.467-1.523m129.396 19.36C641.474 642.052 636 650.628 636 658.366V661h44.254l-.47-4.894c-.724-7.538-4.887-13.78-11.129-16.686-6.364-2.964-14.4-3.173-20.226-.527m-121.287 1.266c-5.327 2.637-9.671 8.412-11.778 15.661-2.441 8.398-1.542 30.869 1.513 37.798 4.895 11.105 14.531 15.618 26.342 12.338 10.619-2.949 16.75-15.617 16.773-34.657.016-12.648-3.147-21.496-9.849-27.551-6.621-5.981-15.4-7.351-23.001-3.589M93.5 641.939c-13.647 2.331-20.694 13.502-20.759 32.91-.079 23.645 9.958 35.523 28.602 33.849 8.929-.802 14.29-4.576 18.657-13.134 3.452-6.765 3.5-7.032 3.5-19.462 0-14.612-1.526-20.436-7.044-26.883-5.014-5.857-14.209-8.773-22.956-7.28m209.86 33.537c-20.236 3.673-31.36 11.501-31.36 22.069 0 4.544 3.084 10.344 6.682 12.567 2.881 1.781 4.489 2.06 9.34 1.62 6.352-.576 14.881-4.031 20.463-8.289l3.515-2.68v-13.382c0-7.359-.337-13.34-.75-13.291-.413.05-3.963.674-7.89 1.386"/>
</svg>
