<svg xmlns="http://www.w3.org/2000/svg" width="752" height="1072">
  <path fill="#a64930" fill-rule="evenodd" d="M370.343 154.546c-3.753 1.645-6.542 5.428-8.162 11.07-1.448 5.047-1.478 6.353-.101 4.384.793-1.134.96-.585.685 2.25-.2 2.063.049 3.75.552 3.75.504 0 .681.901.393 2.001-.326 1.248-.127 1.757.528 1.352.675-.417.873.288.551 1.968-.31 1.622-.115 2.38.513 1.992.621-.383.795.21.449 1.532-.362 1.383-.182 1.921.5 1.5.682-.421.861.117.5 1.499-.31 1.186-.103 2.156.459 2.156.563 0 .788.901.5 2.001-.288 1.101-.182 1.791.235 1.533s1.326 1.429 2.02 3.749c1.281 4.278 4.299 11.574 6.294 15.217.603 1.1 1.661 3.08 2.353 4.4 2.839 5.422 6.13 4.517 9.779-2.686 2.934-5.792 5.227-17.548 6.798-34.856 1.335-14.708.56-19.7-3.72-23.98-2.115-2.115-3.239-2.369-10.174-2.296-4.287.044-9.216.704-10.952 1.464M135.764 296.928c-2.605.363-5.906 1.541-7.335 2.616-2.976 2.24-6.44 11.116-6.407 16.418.038 6.009 6.422 11.577 16.728 14.59 3.438 1.004 6.25 2.24 6.25 2.746 0 .505 1.117.638 2.482.296 3.023-.759 10.672.347 9.994 1.445-.268.434 3.002 1.073 7.268 1.42s9.574 1.044 11.796 1.548c2.221.504 5.08.644 6.352.311 1.272-.333 2.604-.177 2.96.347.357.523 8.748 1.765 18.648 2.759 9.9.995 19.575 2.204 21.5 2.687 5.257 1.319 6.492 1.187 5.058-.541-1.012-1.22.253-1.477 8.628-1.75 5.398-.176 9.964.017 10.147.43.553 1.244 1.916.845 2.524-.738.314-.818.25-1.44-.143-1.382-.393.059-1.389.047-2.214-.027-1.317-.117-1.32-.248-.024-1.067 1.203-.761 1.018-1.105-1-1.859-1.48-.553-2.709-.56-3.056-.017-.319.499-1.444.591-2.5.204-2.744-1.007-6.454-3.996-5.787-4.663.311-.311-.38-.318-1.534-.017-1.253.328-2.099.075-2.099-.626 0-.647-.45-.898-1-.558-.55.34-1 .093-1-.548 0-.643-.696-.899-1.552-.57-.854.327-1.306.197-1.006-.289.301-.486-.149-1.15-1-1.477-.885-.34-1.285-.171-.935.395.961 1.555-.612 1.165-6.007-1.489-2.75-1.353-5.589-2.474-6.309-2.491-.732-.017-.994-.54-.596-1.186.408-.659.278-.885-.304-.525-1.802 1.114-24.901-6.376-23.619-7.659.422-.422-.024-.463-.99-.093-1.054.405-2.497.005-3.607-1-1.018-.922-2.802-1.747-3.963-1.835-1.162-.087-2.112-.463-2.112-.835 0-.372-.787-.613-1.75-.537-.963.077-1.663-.349-1.556-.944.107-.596-.378-1.084-1.078-1.084-.7 0-3.938-1.046-7.195-2.325-3.256-1.279-7.126-2.799-8.599-3.379-1.473-.579-2.462-1.403-2.198-1.83.264-.427-.253-.495-1.149-.151-1.865.716-12.59-2.653-11.917-3.742.245-.396-.526-.466-1.713-.155-1.479.386-1.933.2-1.442-.593.393-.637.351-1.098-.094-1.024-.445.073-2.94.431-5.545.794M591.278 454.25c-.532.688-1.259 2.066-1.616 3.063-.356.998-1.05 1.565-1.542 1.261-.492-.304-.832.23-.757 1.187.075.956-.409 1.632-1.077 1.501-.749-.147-.971.395-.58 1.414.425 1.108.249 1.414-.536.929-1.091-.674-1.567.697-1.439 4.145.026.688-.401 1.25-.949 1.25-.548 0-.739.67-.424 1.49.545 1.422-2.596 2.962-4.922 2.413-1.019-.24-3.932.707-6.672 2.17-.955.51-2.418.927-3.25.927-.833 0-1.514.45-1.514 1 0 1.401-4.349 1.251-5.8-.2-.825-.825-1.523-.877-2.232-.168-.71.71.306 1.428 3.25 2.299 4.926 1.457 8.021 3.834 7.098 5.453-.35.614-.278.792.161.396.438-.397 2.043.166 3.564 1.25 1.522 1.083 3.287 1.97 3.922 1.97.635 0 .837.515.447 1.145-.487.788.103.99 1.891.648 2.454-.469 4.364 1.208 2.967 2.605-.326.327-.741 1.946-.922 3.598-.314 2.865-.156 3.003 3.412 2.982 11.108-.065 17.686-8.355 17.421-21.953-.038-1.912.381-3.753.929-4.092.956-.591 1.278-7.781.575-12.838-.664-4.773-8.949-9.019-11.405-5.845m-59.751 15.116c2.942 2.038 15.12 5.931 16.646 5.322.896-.358.766-.556-.397-.609-.948-.043-5.122-1.429-9.276-3.079-8.333-3.31-9.935-3.686-6.973-1.634"/>
  <path fill="#397350" fill-rule="evenodd" d="M240.382 186.445c-8.318 4.162-11.531 8.048-12.172 14.725-.649 6.746.844 9.347 9.947 17.33 4.39 3.85 9.413 8.935 11.162 11.299 4.391 5.936 11.151 12.957 17.681 18.364 6.008 4.976 15.622 11.837 16.585 11.837.334 0 1.801.841 3.261 1.869 4.165 2.932 7.154 3.594 7.154 1.583 0-6.331-13.642-36.47-19.894-43.952-2.298-2.75-4.766-6.125-5.485-7.5-3.013-5.761-7.504-14.744-9.045-18.091-1.894-4.115-7.096-9.394-10.161-10.314-1.356-.406-4.517.591-9.033 2.85M524.337 536.92c-3.169 3.7-4.263 9.381-2.546 13.211.831 1.853 1.565 3.819 1.63 4.369.066.55.486 2.035.932 3.299.545 1.541.32 3.052-.683 4.582-1.791 2.733-1.237 3.793 3.156 6.044 2.449 1.255 5.292 1.632 10.785 1.427 7.381-.275 11.313-1.43 8.597-2.525-.985-.398-1.018-.851-.139-1.91.634-.764.963-3.017.731-5.005-.371-3.18-.264-3.4.889-1.823 1.173 1.605 1.761 1.26 1.429-.839-.187-1.185 1.802-.882 5.392.822 3.007 1.427 3.591 1.427 6.34.005 3.61-1.866 6.15-5.223 6.15-8.128 0-2.503-5.356-10.885-8.251-12.912-1.282-.898-3.193-1.207-5.144-.832-4.51.867-12.884 4.704-14.477 6.633-1.733 2.098-3.128 2.133-3.128.079 0-.871-.562-1.392-1.25-1.159-.687.234-2.162-1.187-3.277-3.158-2.413-4.266-4.742-4.977-7.136-2.18M140.768 652.725c1.797.222 4.497.218 6-.01 1.503-.229.032-.411-3.268-.405-3.3.005-4.529.192-2.732.415m466.029.02c4.564.185 11.764.184 16-.003 4.237-.187.503-.338-8.297-.337-8.8.001-12.266.154-7.703.34M586.349 672c0 4.675.173 6.587.383 4.25.211-2.337.211-6.163 0-8.5-.21-2.337-.383-.425-.383 4.25m-252.599-2.294c1.238.238 3.262.238 4.5 0 1.238-.239.225-.434-2.25-.434s-3.488.195-2.25.434m14.557 63.794c.315 34.529.958 59.067 1.675 64 .64 4.4 1.541 16.1 2.001 26 .712 15.319.766 13.681.361-11-.262-15.95-1.033-37.55-1.714-48-.681-10.45-1.335-34.046-1.453-52.436-.118-18.389-.477-33.689-.798-34-.321-.31-.353 24.636-.072 55.436m190.003-27c.005 3.3.192 4.529.415 2.732.222-1.797.218-4.497-.01-6-.229-1.503-.411-.032-.405 3.268m-27.038-.5c0 2.475.195 3.487.434 2.25.238-1.237.238-3.263 0-4.5-.239-1.237-.434-.225-.434 2.25m-324.936 14c0 4.125.177 5.813.392 3.75.216-2.062.216-5.437 0-7.5-.215-2.062-.392-.375-.392 3.75m16.396 30c-.992 23.902-.646 98.732.398 86 1.281-15.629 2.039-74.467 1.154-89.5l-.825-14-.727 17.5m383.54-9c0 2.475.195 3.487.434 2.25.238-1.237.238-3.263 0-4.5-.239-1.237-.434-.225-.434 2.25m-129.944 24.5c.005 3.85.185 5.302.402 3.228.216-2.075.213-5.225-.008-7-.221-1.776-.398-.078-.394 3.772m-347.042 0c.008 2.75.202 3.756.432 2.236.229-1.52.223-3.77-.014-5-.237-1.23-.425.014-.418 2.764m477.024 11c.005 3.3.192 4.529.415 2.732.222-1.797.218-4.497-.01-6-.229-1.503-.411-.032-.405 3.268m.01 15.5c0 3.575.182 5.038.403 3.25.222-1.788.222-4.712 0-6.5-.221-1.788-.403-.325-.403 3.25m-.668 14.75c-.973 10.305-.792 28.454.278 27.793.856-.529 1.579-34.543.734-34.543-.206 0-.662 3.038-1.012 6.75M184.31 815.5c.005 3.3.192 4.529.415 2.732.222-1.797.218-4.497-.01-6-.229-1.503-.411-.032-.405 3.268m400.76 24.75c-.038 2.063.38 3.75.93 3.75 1.194 0 1.194-2.721 0-5.5-.689-1.604-.873-1.258-.93 1.75m-232.727 9.25c.003 4.4.179 6.076.39 3.724.212-2.352.209-5.952-.006-8s-.388-.124-.384 4.276m232.846.168c-.104 2.843-.48 5.993-.836 7-.491 1.389-.357 1.565.554.728.764-.702 1.068-3.253.836-7l-.365-5.896-.189 5.168m-383.115 19.415c.077 23.152.885 33.048 2.413 29.551 1.163-2.66-.749-50.224-2.072-51.551-.228-.229-.382 9.671-.341 22m-17.685-3.583c.001 7.15.161 9.944.353 6.208.193-3.735.192-9.585-.003-13-.194-3.414-.352-.358-.35 6.792m317.954-4c.003 4.4.179 6.076.39 3.724.212-2.352.209-5.952-.006-8s-.388-.124-.384 4.276m-1 30c.003 4.4.179 6.076.39 3.724.212-2.352.209-5.952-.006-8s-.388-.124-.384 4.276"/>
  <path fill="#b8692b" fill-rule="evenodd" d="M239.138 341.941c-9.128.545-9.312.605-7.354 2.371 2.92 2.632 11.996 3.37 15.997 1.301 2.076-1.073 2.955-2.138 2.578-3.121-.315-.821-.862-1.406-1.216-1.301-.354.106-4.856.443-10.005.75m340.69 20.686c-4.045 1.68-6.339 5.436-7.672 12.565-.521 2.784-1.929 5.431-3.981 7.481-2.652 2.65-3.175 3.936-3.175 7.798 0 5.842 3.012 8.937 10.199 10.478 2.778.596 6.379 2.201 8.003 3.567 5.415 4.557 9.187 3.414 15.312-4.639 5.256-6.912 5.514-9.254 1.755-15.94-2.72-4.84-2.724-4.873-1.036-9.428 2.18-5.881 1.133-8.772-4.153-11.468-4.694-2.395-10.124-2.542-15.252-.414M184.5 419.475c-38.154 5.578-39.897 5.991-43.885 10.398-1.588 1.754-1.808 3.214-1.41 9.353.524 8.104 3.375 15.68 7.536 20.024 4.392 4.587 10.254 3.632 29.194-4.755 4.639-2.054 14.764-5.959 22.5-8.678 20.693-7.274 39.41-17.567 38.346-21.09-.204-.675-2.601-2.352-5.326-3.727-4.634-2.338-6.023-2.511-21.455-2.67-9.39-.097-20.378.396-25.5 1.145"/>
  <path fill="#2d261c" fill-rule="evenodd" d="M373.5 151.93c-2.2.374-4.969 1.21-6.153 1.858-2.59 1.418-6.388 8.888-6.242 12.278.087 2.021.299 1.828 1.25-1.136 2.905-9.056 7.557-11.93 19.313-11.93 6.483 0 7.724.301 9.801 2.378 4.28 4.28 5.055 9.272 3.72 23.98-1.571 17.308-3.864 29.064-6.798 34.856-3.649 7.203-6.94 8.108-9.779 2.686-.692-1.32-1.75-3.3-2.353-4.4-2.082-3.801-5.022-11.021-6.816-16.738-.99-3.156-1.97-5.568-2.178-5.36-.767.767 2.866 12.728 6.313 20.781 5.653 13.206 7.818 14.442 13.766 7.858 5.491-6.078 8.655-20.123 10.205-45.291.608-9.883.451-12.46-.985-16.223-1.436-3.758-2.297-4.636-5.386-5.494-4.03-1.12-11.441-1.163-17.678-.103m-9.848 27.034c.658 3.795 3.173 11.14 3.264 9.536.031-.55-.826-3.7-1.905-7-1.078-3.3-1.69-4.441-1.359-2.536M240 184.516c-9.95 5.312-13.977 11.011-13.994 19.8-.009 4.438 1.469 6.467 13.341 18.315 6.134 6.122 13.403 13.727 16.153 16.899 7.303 8.425 15.983 15.26 28.404 22.37 10.431 5.97 13.096 6.709 13.096 3.631 0-1.977-8.663-24.723-12.998-34.129-2.053-4.454-5.284-9.854-7.182-12-4.087-4.623-12.115-18.376-13.761-23.573-2.411-7.615-9.644-14.871-14.759-14.806-.99.012-4.725 1.584-8.3 3.493m.382 1.929c-8.318 4.162-11.531 8.048-12.172 14.725-.649 6.746.844 9.347 9.947 17.33 4.39 3.85 9.413 8.935 11.162 11.299 4.391 5.936 11.151 12.957 17.681 18.364 6.008 4.976 15.622 11.837 16.585 11.837.334 0 1.801.841 3.261 1.869 4.165 2.932 7.154 3.594 7.154 1.583 0-6.331-13.642-36.47-19.894-43.952-2.298-2.75-4.766-6.125-5.485-7.5-3.013-5.761-7.504-14.744-9.045-18.091-1.894-4.115-7.096-9.394-10.161-10.314-1.356-.406-4.517.591-9.033 2.85m140.847 92.726c-1.967 1.967-1.43 3.74 1.344 4.437 3.306.83 5.321-.966 3.797-3.386-1.377-2.186-3.559-2.633-5.141-1.051M420 282.014c-15.659 1.759-32.771 6.887-44.056 13.204-6.28 3.514-13.944 10.15-13.944 12.073 0 .527-4.186 5.064-9.303 10.083-11.364 11.148-14.319 16.53-22.029 40.126-6.135 18.773-7.186 22.94-8.194 32.5-.378 3.575-.935 7.4-1.24 8.5-.304 1.1-.593 15.242-.643 31.428l-.091 29.427-2.646.708c-1.455.39-5.505.969-9 1.287-3.495.318-9.729 1.067-13.854 1.666a706.137 706.137 0 0 1-15 1.979c-9.506 1.13-24.5 5.456-28.806 8.312-3.352 2.223-7.194 8.938-7.194 12.573 0 3.654 1.913 7.086 6.519 11.691 6.501 6.502 10.046 7.777 17.738 6.382 10.965-1.988 21.817-5.916 24.628-8.915 2.788-2.973 6.629-4.149 20.917-6.402 10.494-1.655 9.987-2.269 11.661 14.114 1.769 17.302 1.626 16.475 4.545 26.277 2.751 9.238 6.145 12.973 11.788 12.973 5.665 0 13.073-3.524 14.324-6.815.658-1.731.766-10.33.307-24.359l-.71-21.683 3.391-2.072c5.961-3.641 18.141-7.754 26.584-8.977 4.505-.652 9.23-1.394 10.5-1.648 2.663-.532 12.69-1.086 35.308-1.953 8.8-.337 18.835-1.086 22.3-1.664 8.107-1.353 9.26-2.989 9.512-13.498l.188-7.831-45.5-.314c-39.268-.271-46.911-.079-55.803 1.397-7.251 1.205-10.616 1.398-11.362.652-1.227-1.227-3.527-17.48-4.419-31.235-.844-13.009.642-19.11 11.087-45.489 14.385-36.335 19.883-46.603 26.631-49.735 28.292-13.134 36.873-15.376 55.366-14.47 14.778.724 25.379 3.047 35 7.672 10.508 5.05 22.069 14.915 25.892 22.093 3.913 7.347 7.417 11.929 9.124 11.929 3.135 0 6.454-11.063 6.472-21.572.019-11.059-1.792-14.872-12.002-25.278-7.811-7.962-10.165-9.691-19.218-14.112-7.659-3.741-13.4-5.703-22.292-7.617-18.874-4.063-29.234-4.894-42.476-3.407m-293.971 16.295c-2.459 1.205-5.039 3.316-5.735 4.691-1.91 3.776-1.639 14.607.454 18.151 2.238 3.788 9.248 8.233 16.184 10.261 8.042 2.351 9.614 1.765 2-.746-11.233-3.704-16.932-8.619-16.932-14.6 0-5.427 3.443-14.274 6.429-16.522 1.429-1.075 4.73-2.253 7.335-2.616l4.736-.661-5-.074a21.067 21.067 0 0 0-9.471 2.116M147 299.536c3.575 1.337 7.107 2.438 7.849 2.447.742.01 2.767.625 4.5 1.368 1.733.743 5.851 2.385 9.151 3.649 3.3 1.264 6.79 2.978 7.756 3.81.966.831 2.003 1.264 2.305.962.965-.964-10.425-7.477-15.331-8.766-2.601-.684-8.241-2.315-12.532-3.625-10.029-3.061-12.068-2.976-3.698.155m39.5 15.196c.55.565 2.8 1.57 5 2.233 2.2.664 6.25 2.041 9 3.059 2.75 1.018 7.475 2.598 10.5 3.51 3.025.912 7.891 2.786 10.814 4.165 2.922 1.379 5.579 2.241 5.904 1.917.566-.567-9.883-5.616-11.622-5.616-.466 0-3.352-1.108-6.413-2.462-3.062-1.353-8.855-3.326-12.875-4.382-4.019-1.057-8.208-2.265-9.308-2.686-1.361-.52-1.68-.436-1 .262m49.479 18.384c1.364.544 3.164 1.587 4 2.318 2.032 1.776 6.021 2.94 6.021 1.757 0-1.049-9.115-5.227-11.185-5.128-.723.035-.199.509 1.164 1.053M150 334c1.375.44 3.85.792 5.5.782l3-.019-3-.763c-1.65-.42-4.125-.772-5.5-.782l-2.5-.019 2.5.801m437.114 125.315c-3 4.855-2.628 5.906.475 1.339 1.424-2.095 2.375-4.023 2.114-4.284-.261-.262-1.426 1.064-2.589 2.945m15.345 2.364c1.333 3.997.965 11.321-.568 11.321-.49 0-.891.9-.891 2 0 2.231 2.222 2.676 3.74.75 2.94-3.733 1.923-12.935-1.801-16.305-1.661-1.503-1.686-1.384-.48 2.234m-81.73 2.4c-.974.574-1.511 1.464-1.194 1.978 1.32 2.135 16.917 8.314 30.264 11.988 15.715 4.327 17.017 4.862 20.633 8.478 1.363 1.363 3.51 2.474 4.773 2.471 2.094-.006 2.032-.143-.705-1.561-1.65-.855-4.35-2.837-6-4.404-1.65-1.566-4.927-3.415-7.282-4.107-2.944-.865-3.96-1.58-3.25-2.29.709-.709 1.407-.657 2.232.168.66.66 2.235 1.2 3.5 1.2 4.227 0 2.364-1.531-3.45-2.836-9.575-2.15-22.469-6.242-27.243-8.647-5.774-2.909-10.042-3.756-12.278-2.438m10.798 5.287c2.942 2.038 15.12 5.931 16.646 5.322.896-.358.766-.556-.397-.609-.948-.043-5.122-1.429-9.276-3.079-8.333-3.31-9.935-3.686-6.973-1.634M569.2 472.2c-1.194 1.194-1.665 3.8-.686 3.8.282 0 1.295-.417 2.25-.927.955-.51 2.636-1.233 3.736-1.607l2-.681-2-.822c-2.855-1.174-3.938-1.125-5.3.237m31.736 8.55c-.481 5.653-1.038 7.678-2.969 10.804-2.648 4.283-8.645 7.392-14.325 7.424-3.687.021-3.829-.097-3.188-2.653.589-2.343.478-2.514-.891-1.377-2.066 1.714-1.998 5.671.11 6.48 2.546.977 11.805-1.27 15.392-3.736 1.754-1.206 4.257-4.21 5.562-6.677C603.029 486.477 603.836 480 602 480c-.55 0-1.029.337-1.064.75m-76.714 53.514c-4.863 5.176-6.562 13.762-3.613 18.263 2.379 3.63 3.468 2.048 1.392-2.024-1.53-3.002-1.617-4.089-.603-7.522 1.458-4.938 4.14-8.217 6.37-7.787.923.178 2.648 2.052 3.833 4.166 2.264 4.036 4.081 3.564 2.481-.645-.873-2.296-5.507-6.715-7.043-6.715-.379 0-1.647 1.019-2.817 2.264m23.954 1.773c-6.836 2.429-12.176 5.737-12.176 7.545 0 1.904 1.446 1.792 3.128-.244 1.593-1.929 9.967-5.766 14.477-6.633 1.951-.375 3.862-.066 5.144.832 2.895 2.027 8.251 10.409 8.251 12.912 0 2.905-2.54 6.262-6.15 8.128-2.762 1.429-3.332 1.422-6.484-.074-1.901-.902-3.998-1.434-4.661-1.183-1.736.658 5.704 3.68 9.06 3.68 3.636 0 10.245-6.498 10.213-10.042-.057-6.432-8.394-17.046-13.263-16.885-1.218.04-4.611.924-7.539 1.964m-1.364 24.477c.225 1.932-.109 4.139-.743 4.903-.879 1.059-.846 1.512.139 1.91 2.716 1.095-1.216 2.25-8.597 2.525-5.493.205-8.336-.172-10.785-1.427-4.466-2.288-4.875-3.178-2.979-6.482 2.058-3.585.849-4.829-2.637-2.713-3.826 2.321-3.619 5.84.458 7.77 1.742.825 3.894 2.72 4.783 4.211 1.929 3.235 5.959 4.217 14.718 3.583 7.094-.513 8.831-2.094 8.831-8.035 0-3.152-2.251-9.759-3.325-9.759-.15 0-.089 1.581.137 3.514M191.5 652.383c-6.118 2.672-6.045 2.242-5.539 32.525.539 32.197.48 41.042-.334 50.592-.328 3.85-.77 43.225-.984 87.5-.299 62.247-.107 81.189.846 83.54 1.684 4.152 4.194 6.46 7.024 6.46 3.073 0 12.094-8.586 13.058-12.429.397-1.579.466-15.291.154-30.471-.466-22.719.141-96.53 1.526-185.6.31-19.929-.523-25.375-4.503-29.446-1.642-1.68-3.57-3.054-4.285-3.054-.715 0-1.899-.209-2.631-.464-.733-.254-2.682.127-4.332.847m77-.424c-2.713 1.13-7.167 5.984-8.296 9.041-1.084 2.938-2.669 13.441-4.754 31.5-.825 7.15-1.906 15.7-2.401 19-1.565 10.413-2.364 16.933-2.331 19 .018 1.1-.341 3.575-.797 5.5-.456 1.925-1.076 6.982-1.378 11.238-.303 4.256-.753 9.206-1.001 11-.248 1.794-.704 6.778-1.012 11.075-.308 4.296-.754 9.246-.989 11-.538 4.003-1.292 11.29-2.038 19.687-.317 3.575-1.003 9.2-1.524 12.5-1.389 8.807-2.733 23.927-2.888 32.5-.075 4.125-.572 9.975-1.105 13-.533 3.025-1.186 8.425-1.45 12-.265 3.575-.74 8.3-1.056 10.5-1.077 7.509-1.237 27.978-.227 29.25 2.47 3.112 14.446.549 16.647-3.562.527-.986 1.473-11.894 2.102-24.24a33473.16 33473.16 0 0 1 1.878-36.482c.405-7.719 1.114-14.648 1.578-15.398.673-1.089 3.481-1.244 13.987-.769 16.949.766 18.067 1.2 19.426 7.533 1.03 4.804 2.401 15.81 3.634 29.168.33 3.575.772 8.3.982 10.5.21 2.2.674 7.825 1.031 12.5.373 4.884 1.758 11.797 3.257 16.25 2.348 6.978 2.863 7.749 5.166 7.735 3.151-.018 14.064-9.796 14.049-12.587-.016-2.865-3.733-23.537-5.986-33.289-1.094-4.735-3.353-17.609-5.021-28.609-4.361-28.756-6.903-44.864-8.522-54-4.65-26.243-6.651-39.822-8.448-57.341-2.654-25.861-6.735-55.385-8.536-61.751-.951-3.36-2.916-6.675-5.779-9.75-4.533-4.868-4.944-5.053-8.198-3.699m63.814 1.88c-6.909 2.765-9.736 5.344-9.013 8.222 1.195 4.763 4.294 6.934 9.988 6.997 2.866.031 6.879.369 8.918.75l3.706.692.545 51.5c.299 28.325.881 54.65 1.293 58.5.412 3.85.592-17.75.4-48-.191-30.25-.087-54.746.231-54.436.319.311.677 15.611.795 34 .118 18.39.772 41.986 1.453 52.436.681 10.45 1.453 32.05 1.715 48 .434 26.353.396 27.312-.418 10.5-1.798-37.141-2.421-30.312-2.144 23.5.155 30.25.494 55.983.752 57.183.258 1.201 1.357 2.465 2.441 2.809 1.084.345 2.549 1.837 3.255 3.317 1.926 4.038 7.572 4.303 10.388.488 4.455-6.034 4.548-7.453 3.932-60.016-.321-27.379-1.02-64.181-1.554-81.781-.533-17.6-1.187-46.712-1.453-64.692-.479-32.383-.464-32.699 1.585-33.349 1.138-.361 3.937-.4 6.22-.087 2.951.406 6.029-.095 10.651-1.733 5.693-2.018 6.541-2.65 6.828-5.092.557-4.733-.61-6.967-4.641-8.879-2.669-1.266-5.842-1.779-10.274-1.663-3.527.092-7.988.119-9.913.06-30.009-.921-31.534-.888-35.686.774m105.186-.657c-3.265 1.83-11.856 10.049-13.869 13.27-1.834 2.931-3.937 9.097-5.133 15.048-.678 3.371-.702 3.467-2.322 9-2.579 8.81-6.142 27.656-7.373 39-2.025 18.647-1.713 89.14.47 106.5 2.502 19.895 2.777 21.93 3.847 28.5.537 3.3 1.636 10.275 2.442 15.5 1 6.489 2.49 11.56 4.701 16 2.839 5.702 4.137 7.093 10.565 11.33 5.679 3.743 8.514 4.953 12.593 5.374 5.016.518 5.435.374 8.853-3.045 6.607-6.607 12.856-19.813 16.211-34.258 2.443-10.519 5.849-49.397 7.57-86.401 1.362-29.279.75-90.638-.963-96.5-.643-2.2-1.533-7.942-1.978-12.761-.642-6.95-1.334-9.498-3.349-12.329-3.737-5.252-13.261-12.942-17.661-14.261-4.833-1.448-11.991-1.432-14.604.033m80.5-.461c-.825.293-2.521 1.463-3.769 2.599-2.194 1.996-2.273 2.679-2.388 20.622-.171 26.788-.353 32.569-1.634 52.058-.633 9.625-1.619 28.525-2.192 42-.573 13.475-1.534 29.675-2.135 36-2.197 23.116-2.332 25.773-3.376 66.247l-.767 29.748 2.29 3.343c1.26 1.838 3.784 4.366 5.609 5.616 4.579 3.138 7.711 2.186 10.6-3.22 2.158-4.04 2.271-5.382 2.461-29.234.266-33.502 2.251-118.959 2.883-124.134l.506-4.134 8.706-3.225c4.788-1.774 10.321-4.259 12.295-5.524 9.416-6.03 13.224-27.502 9.398-52.983-2.368-15.768-3.832-19.756-8.869-24.169-8.401-7.36-24.179-13.545-29.618-11.61m-393.206.819c-.187.186-1.549.558-3.027.826-5.528 1.002-8.231 3.051-9.729 7.374-1.098 3.169-1.216 5.157-.472 7.989.678 2.584.571 10.227-.34 24.271-1.495 23.043-2.008 46.516-3.173 145-.445 37.675-.445 69.46-.001 70.632.575 1.516 1.891 2.259 4.55 2.57 3.05.356 4.342-.092 7.001-2.427 1.794-1.574 4.217-4.838 5.386-7.252 1.987-4.105 2.137-6.128 2.318-31.206.106-14.749 0-34.242-.237-43.317-.415-15.958.54-51.256 1.81-66.881l.62-7.619 4.766.334c4.316.303 5.095.005 8.25-3.15 4.157-4.157 4.51-7.749 1.096-11.163-1.314-1.314-4.126-2.669-6.25-3.012-2.124-.343-4.919-.843-6.211-1.11l-2.348-.487.738-23.7c.405-13.036 1.012-27.078 1.348-31.206l.611-7.506 10.5-.558c11.375-.605 14.239-1.691 16.062-6.091 1.415-3.417.731-5.513-3.149-9.643l-3.093-3.292-13.344.142c-7.339.079-13.496.295-13.682.482m467.706 1.302c-6.195 3.788-5.906 1.54-6.181 48.019-.139 23.451-.702 48.939-1.253 56.639-1.482 20.736-3.246 135.25-2.154 139.829.502 2.106 1.065 3.925 1.251 4.041 11.83 7.411 12.805 7.781 22.997 8.74 10.992 1.034 11.966.769 18.09-4.927 3.403-3.165 3.467-5.554.261-9.757-2.782-3.648-5.8-4.862-16.011-6.444-3.85-.596-7.611-1.689-8.358-2.427-1.142-1.128-1.172-12.445-.192-70.699.641-38.146 1.324-69.848 1.516-70.448.207-.647 4.779-1.356 11.192-1.737 9.994-.593 11.018-.844 13.092-3.213 3.377-3.857 3.032-8.925-.856-12.557-3.466-3.238-6.044-3.545-15.336-1.827-3.701.684-6.158.726-6.767.117-.904-.904-1.219-55.096-.325-55.99.218-.218 5.715-.573 12.215-.789 14.94-.495 18.05-1.041 19.307-3.389 2.128-3.976.758-12.158-2.388-14.258-.605-.404-9.2-.74-19.1-.746-15.714-.01-18.381.221-21 1.823m-149.11 15.923c-3.155 2.087-6.496 13.756-9.804 34.235-.844 5.225-2.408 11.975-3.475 15-6.022 17.065-8.345 80.344-4.045 110.17 1.136 7.881 2.903 16.13 3.927 18.33 1.023 2.2 2.599 9.4 3.501 16 2.02 14.778 4.038 22.311 6.766 25.25 2.859 3.08 4.326 2.826 5.778-1 1.63-4.292 1.761-4.74 2.42-8.25.309-1.65.793-4.017 1.074-5.26.281-1.244.729-4.169.995-6.5.266-2.332.685-5.815.931-7.74.246-1.925.716-9.35 1.046-16.5.329-7.15.795-13.958 1.036-15.13.241-1.171.714-7.471 1.051-14 .337-6.528.751-13.67.921-15.87.17-2.2.56-22.9.867-46 .515-38.789.4-43.147-1.509-57-2.764-20.057-2.487-18.995-5.988-22.982-3.253-3.705-3.708-3.933-5.492-2.753m85.177 5.485c-.877 4.191-2.85 52.57-2.211 54.235.454 1.184 1.275 1.458 2.889.966 4.745-1.446 6.325-4.12 8.247-13.951 1.579-8.079 1.595-13.584.063-21.5-.906-4.675-1.902-10.3-2.215-12.5-1.117-7.849-5.635-12.685-6.773-7.25m-259.58 34.775c-.596 1.113-2.188 13.949-3.538 28.523-1.349 14.574-3.381 34.475-4.515 44.225a6231.919 6231.919 0 0 0-2.622 22.824l-.56 5.097 4.763.653c2.62.359 9.254.653 14.741.653h9.977l-.696-6.75c-.383-3.712-1.072-8.55-1.532-10.75-.46-2.2-1.11-6.122-1.444-8.715-.334-2.593-2.653-16.768-5.154-31.5-2.5-14.732-4.719-28.135-4.932-29.785-.83-6.457-2.675-16.5-3.03-16.5-.206 0-.862.911-1.458 2.025M202.732 750c-.992 23.902-.646 98.732.398 86 1.281-15.629 2.039-74.467 1.154-89.5l-.825-14-.727 17.5m383.578 26.5c.005 3.3.192 4.529.415 2.732.222-1.797.218-4.497-.01-6-.229-1.503-.411-.032-.405 3.268m.01 15.5c0 3.575.182 5.038.403 3.25.222-1.788.222-4.712 0-6.5-.221-1.788-.403-.325-.403 3.25m-.668 14.75c-.973 10.305-.792 28.454.278 27.793.856-.529 1.579-34.543.734-34.543-.206 0-.662 3.038-1.012 6.75m-.582 33.5c-.038 2.063.38 3.75.93 3.75 1.194 0 1.194-2.721 0-5.5-.689-1.604-.873-1.258-.93 1.75m-232.727 9.25c.003 4.4.179 6.076.39 3.724.212-2.352.209-5.952-.006-8s-.388-.124-.384 4.276m232.846.168c-.104 2.843-.48 5.993-.836 7-.491 1.389-.357 1.565.554.728.764-.702 1.068-3.253.836-7l-.365-5.896-.189 5.168m-383.115 19.415c.077 23.152.885 33.048 2.413 29.551 1.163-2.66-.749-50.224-2.072-51.551-.228-.229-.382 9.671-.341 22"/>
</svg>
