<svg xmlns="http://www.w3.org/2000/svg" width="1080" height="575">
  <path fill="#717171" fill-rule="evenodd" d="M323.466 66.785c-9.982 9.454-13.61 10.912-30.269 12.165-7.841.59-15.481.778-16.977.418-3.922-.945-13.438-5.844-16.821-8.659-8.217-6.837-11.143-6.196-15.932 3.496-1.949 3.943-5.498 9.447-7.887 12.232-3.941 4.594-5.653 5.608-18.502 10.953-13.811 5.745-14.324 5.874-20.869 5.245-3.69-.354-9.523-1.53-12.963-2.613-9.968-3.138-13.246-.658-13.246 10.022 0 2.703-.984 7.912-2.187 11.577-2.008 6.115-3.057 7.515-12.75 17.013-12.371 12.121-16.523 14.195-30.459 15.215-8.128.595-9.07.883-10.9 3.339-1.957 2.628-1.963 2.829-.253 8.922 1.023 3.645 1.739 9.588 1.725 14.312-.024 7.921-.151 8.331-6.52 21.078-7.394 14.799-10.325 17.729-23.962 23.943-9.753 4.445-10.507 6.374-5.421 13.869 4.933 7.269 7.566 12.829 8.326 17.585.943 5.897-1.535 29.839-3.588 34.659-.95 2.23-5.206 7.776-9.459 12.323-6.725 7.192-7.649 8.617-7.096 10.945.349 1.472 1.621 3.351 2.826 4.176 5.612 3.843 12.471 9.965 15.257 13.618 2.386 3.128 3.803 7.094 6.386 17.872 4.106 17.136 3.879 21.026-1.938 33.156-5.704 11.895-5.124 13.11 8.013 16.786 11.418 3.194 15.173 6.339 24.765 20.741l8.735 13.116.033 14.46c.04 17.718-.25 17.335 12.919 17.119 14.055-.231 17.851.694 24.908 6.069 3.377 2.572 8.285 6.14 10.906 7.929 2.622 1.789 5.593 4.139 6.603 5.223 2.957 3.175 6.819 11.938 8.114 18.411 2.309 11.543 5.006 12.74 16.543 7.341 9.593-4.489 18.332-4.962 28.474-1.542 4.125 1.391 10.014 3.234 13.087 4.096 6.971 1.954 13.316 7.36 18.763 15.985 6.165 9.761 8.722 10 17.318 1.614 9.22-8.994 13.455-10.637 30.671-11.898 17.16-1.257 20.54-.429 32.604 7.995 9.679 6.758 11.514 6.412 16.386-3.088 4.836-9.432 10.009-15.758 14.639-17.906C403.03 497.024 408.662 495 414.339 495c3.533 0 8.707.973 13.21 2.485 5.499 1.846 8.026 2.247 9.829 1.561 3.375-1.283 3.795-2.265 4.668-10.925 1.126-11.163 3.118-15.259 10.315-21.209 10.153-8.393 26.254-24.771 30.763-31.291l4.232-6.121-10.928 10.538c-25.396 24.489-47.29 38.999-75.928 50.322-56.718 22.425-119.238 21.79-175.22-1.78-62.173-26.175-108.756-79.337-124.198-141.738-13.767-55.627-3.856-113.348 27.563-160.528 7.577-11.378 9.49-13.833 21.228-27.243 7.742-8.845 25.428-23.745 38.638-32.55 29.16-19.437 65.091-32.683 98.989-36.493 13.46-1.513 45.627-1.261 58.699.46 32.154 4.232 66.927 17.067 92.801 34.253 12.422 8.251 19.947 14.217 32.348 25.648 5.033 4.64 9.562 8.813 10.064 9.274.502.46-.581-1.413-2.406-4.163-7.926-11.943-33.141-33.875-52.215-45.418-6.138-3.714-7.689-6.405-9.844-17.082-1.144-5.668-3.719-9-6.953-9-.982 0-5.094 1.41-9.139 3.133-11.344 4.831-16.58 4.839-33.093.05-16.308-4.731-20.544-7.755-28.265-20.183-1.538-2.475-3.291-4.831-3.896-5.235-2.881-1.922-6.298-.509-12.135 5.02m322.285 146.972c-1.511.938-3.234 3.177-3.828 4.977-3.523 10.673 9.327 19.17 17.154 11.343 6.5-6.5 2.157-18.112-6.75-18.05-2.105.014-5.064.793-6.576 1.73M514 322.943V332l-12.25.004c-10.385.003-12.737.301-15.451 1.956-5.634 3.435-6.299 6.03-6.299 24.59v16.65l3.303 3.303c2.676 2.676 4.401 3.441 9.073 4.025 8.631 1.078 20.994.115 24.026-1.872 6.038-3.956 6.098-4.317 6.098-36.61V314.5l-4.25-.307-4.25-.308v9.058m105.445-5.887c-1.68.495-4.098 2.01-5.372 3.366-3.185 3.391-4.46 16.346-3.636 36.947.983 24.573 1.572 25.131 26.563 25.131h16.5l.302-4.677.302-4.677-15.019-.323c-12.806-.275-15.282-.586-16.801-2.107-1.61-1.613-1.751-3.677-1.473-21.5.246-15.711.608-20.021 1.782-21.216 1.148-1.17 4.782-1.571 16.492-1.823l15.019-.323-.302-4.677-.302-4.677-15.5-.172c-8.525-.095-16.875.233-18.555.728m-85.778 15.611c-.367.366-.66 9.704-.652 20.75.016 21.632.344 23.3 5.308 26.987 2.536 1.883 4.183 2.096 16.177 2.096 20.917 0 21.693-1.127 21.271-30.893L575.5 332.5l-4.189-.305-4.189-.304-.311 19.145c-.304 18.737-.361 19.185-2.672 21.054-1.877 1.519-3.976 1.91-10.25 1.91-12.077 0-11.889.364-11.889-23v-19h-3.833c-2.109 0-4.134.3-4.5.667M663 336.871v3.871l5.75.649c3.163.357 9.996.592 15.185.522 8.021-.109 9.631.141 10.75 1.67.723.99 1.315 2.613 1.315 3.608 0 1.638-1.063 1.809-11.25 1.811-17.974.002-22.129 3.508-21.546 18.18.528 13.313 4.745 16.183 22.976 15.638 8.967-.269 11.133-.656 13.5-2.416 4.78-3.554 5.289-5.683 5.305-22.186.024-24.652-.558-25.218-25.953-25.218H663v3.871m57.277-1.898c-1.773 1.081-3.573 3.216-4 4.746-.427 1.53-.777 11.781-.777 22.781v20h8l.5-19.203c.354-13.597.87-19.572 1.768-20.467 1.625-1.622 11.694-1.521 13.691.136 1.217 1.01 1.549 4.839 1.77 20.389l.271 19.145 4.25.307 4.25.308v-18.866c0-22.454.082-22.678 8.283-22.678 8.738 0 8.634-.254 8.946 21.784l.271 19.145 4.25.307 4.25.308v-20.607c0-22.857-.506-25.167-6.155-28.088-4.399-2.275-18.789-1.687-21.629.883-1.923 1.742-2.108 1.733-5.354-.246-4.728-2.882-17.915-2.932-22.585-.084m72.106-.43c-4.814 2.437-5.383 4.873-5.383 23.054 0 24.588.043 24.632 24.75 25.201l16.25.374V374l-14.25-.015c-7.837-.009-14.784-.355-15.437-.771-1.65-1.049-3.558-6.382-2.6-7.269.433-.401 7.92-3.572 16.638-7.046l15.851-6.317-.384-6.801c-.328-5.8-.788-7.206-3.121-9.542-2.674-2.676-3.039-2.745-15.967-3.006-10.466-.212-13.881.062-16.347 1.31m50.842.461c-1.801 1.098-3.657 3.009-4.124 4.246-1.139 3.02-2.486 36.72-1.625 40.643.622 2.832 1.03 3.107 4.603 3.107H846l.05-4.25c.027-2.337.023-10.325-.01-17.75-.071-16.147.55-17.881 6.96-19.42 4.251-1.02 4.517-1.287 4.81-4.83l.311-3.75-5.811.004c-4.042.002-6.807.611-9.085 2m27.538-.439c-5.005 2.716-5.764 5.774-5.748 23.135.016 17.058.501 19.134 5.308 22.704 2.52 1.87 4.193 2.096 15.544 2.096 19.614 0 21.137-1.745 21.127-24.218-.009-23.857-1.206-25.296-20.994-25.238-9.104.026-13.244.44-15.237 1.521M917 353.352c0 19.545.091 20.487 2.287 23.75 3.269 4.859 7.927 6.132 20.908 5.714 8.931-.287 11.159-.688 13.5-2.426 4.949-3.675 5.274-5.343 5.29-27.14L959 333h-9v18.943c0 22.678.344 22.057-12.223 22.057-11.915 0-11.777.263-11.777-22.5V333h-9v20.352m57.304-18.396c-4.771 2.909-5.453 6.719-5.106 28.544l.302 19 4.25.307 4.25.308v-18.986c0-15.54.272-19.258 1.499-20.486 1.818-1.817 11.164-3.116 15.956-2.217 6.421 1.204 6.545 1.633 6.545 22.703v18.986l4.25-.308 4.25-.307v-20c0-11-.35-21.251-.777-22.781-1.473-5.275-5.694-6.712-19.723-6.712-10.63 0-12.978.292-15.696 1.949M491.25 342.53c-2.142 1.508-2.25 2.224-2.25 14.97 0 16.201.211 16.5 11.675 16.5 13.066 0 13.613-.854 13.124-20.5l-.299-12-10-.277c-7.843-.217-10.485.065-12.25 1.307m305.307 1.693c-1.594 2.274-2.184 11.272-.796 12.129.65.402 21.977-7.848 23.151-8.955.227-.214-.101-1.515-.728-2.893-1.101-2.415-1.476-2.504-10.606-2.504-8.647 0-9.599.192-11.021 2.223M875.2 343.2c-.813.813-1.2 5.476-1.2 14.443 0 16.156.15 16.357 12.223 16.357 11.322 0 11.777-.621 11.777-16.066 0-6.636-.466-12.936-1.035-14-.915-1.709-2.169-1.934-10.8-1.934-6.262 0-10.196.431-10.965 1.2m-202 16c-.66.66-1.2 3.559-1.2 6.443 0 7.168 1.801 8.357 12.651 8.357 10.412 0 11.349-.79 11.349-9.571V358h-10.8c-7.067 0-11.215.415-12 1.2"/>
  <path fill="#e73242" fill-rule="evenodd" d="M374.922 158.598c-2.518 1.402-5.33 3.823-6.25 5.38-1.707 2.889-2.093 10.295-.782 15.002.585 2.101-.165 3.324-4.909 8-3.08 3.036-7.928 9.395-10.773 14.13l-5.174 8.611-6.017-1.949c-3.309-1.072-6.017-2.289-6.017-2.705 0-.417.9-1.572 2-2.567 2.323-2.102 2.491-3.446.734-5.849-1.186-1.623-1.474-1.627-4.587-.074-10.605 5.29-19.06-5.864-10.747-14.177 4.352-4.352 7.01-4.306 11.257.197 1.866 1.979 3.949 3.384 4.629 3.123 1.943-.745 5.55-8.813 5.898-13.19l.316-3.97-5.913-2.371c-3.253-1.304-6.628-3.229-7.5-4.279-.896-1.078-4.562-2.634-8.418-3.573-6.429-1.566-7.272-1.561-14.308.098-5.704 1.345-9.361 1.596-15.419 1.06-7.853-.695-8.781-.37-6.996 2.452.652 1.03.071 2.408-2.015 4.785-1.612 1.836-2.931 3.727-2.931 4.204 0 .477-1.575 1.796-3.5 2.931-3.861 2.279-4.561 4.133-1.559 4.133 1.068 0 2.273.537 2.678 1.192.405.656.655 7.881.556 16.056-.136 11.109-.568 15.612-1.713 17.826-1.385 2.677-1.38 3.02.051 3.569.87.334 3.361.369 5.535.077 3.623-.486 3.952-.336 3.952 1.798 0 3.429-4.429 8.099-9.528 10.046-2.46.939-4.472 2.243-4.472 2.898 0 1.801 4.073 5.253 8.264 7.004 5.909 2.469 4.385 4.534-3.346 4.534-2.155 0-3.918.417-3.918.927 0 1.274 7.156 7.073 8.728 7.073.7 0 1.272.401 1.272.892 0 1.501-4.481 2.117-8.019 1.103-1.841-.529-3.561-.748-3.821-.488-.26.26.343 2.281 1.339 4.492 2.079 4.609 9.792 12.219 14.812 14.612l3.416 1.629-3.386 5.13c-4.219 6.391-5.123 9.777-5.661 21.2-.661 14.053-5.1 22.12-13.402 24.355-9.271 2.497-20.095-4.838-23.858-16.166-1.332-4.009-1.575-7.316-1.151-15.67.55-10.848 3.076-20.969 13.251-53.089 7.905-24.954 10.93-44.783 8.564-56.125-3.12-14.95-15.672-23.265-23.133-15.323-1.676 1.784-3.355 2.448-6.191 2.448-8.465 0-11.003 4.039-10.077 16.039.535 6.938.932 8.309 2.532 8.728 1.271.332 1.687 1.031 1.259 2.114-.351.891-.888 3.967-1.193 6.836-.59 5.552 1.331 10.283 4.175 10.283.775 0 1.677.844 2.004 1.875.94 2.961 7.434 9.125 9.614 9.125 1.852 0 1.884-.181.504-2.849-2.412-4.665-3.853-11.874-3.136-15.694.369-1.967 2.156-5.237 3.97-7.267 1.815-2.029 3.814-4.673 4.444-5.874 1.736-3.314 1.37-10.449-.748-14.605-1.557-3.052-1.634-3.711-.434-3.711 8.101 0 11.39 13.091 7.734 30.792-1.684 8.156-2.426 10.537-12.763 40.973-7.475 22.011-10.459 34.593-11.323 47.74-1.121 17.061 2.578 27.299 12.498 34.594 8.67 6.376 21.915 8.67 31.18 5.401 5.169-1.824 5-1.82 5-.106 0 .767-1.273 2.757-2.829 4.423-3.696 3.956-8.652 4.889-14.816 2.788-5.804-1.977-15.291-2.076-19.767-.206-3.016 1.26-3.632 1.211-6.218-.494-2.489-1.641-9.37-2.715-9.37-1.462 0 .243.969 2.085 2.154 4.093l2.154 3.651-2.249 4.629c-1.237 2.546-2.502 7.075-2.81 10.063l-.561 5.433 3.238-.647c5.567-1.114 8.785 2.181 6.957 7.122-.608 1.645-1.63 2.213-3.982 2.213-3.085 0-3.148.09-2.566 3.677.399 2.461 1.958 5.065 4.71 7.869 3.234 3.295 4.043 4.807 3.784 7.072-.298 2.614-.725 2.911-4.579 3.189-2.338.17-4.25.632-4.25 1.028 0 .395 1.325 2.17 2.944 3.942 2.031 2.224 3.849 3.223 5.867 3.223 3.852 0 8.851 6.895 7.215 9.952-1.465 2.737-1.267 5.95.474 7.691.825.825 1.5 2.289 1.5 3.254 0 2.384 3.693 5.579 8.34 7.217 2.112.744 4.265 2.148 4.785 3.119 1.291 2.412 3.103 2.217 5.77-.621 1.394-1.485 2.963-2.2 4.144-1.892 1.044.274 3.376-.067 5.18-.757 1.805-.691 5.531-1.527 8.281-1.859 4.275-.516 4.956-.894 4.7-2.604-1.391-9.263 1.536-12.18 9.05-9.022 2.659 1.118 2.445-5.902-.25-8.21-1.317-1.128-2-2.95-2-5.335 0-4.379-2.331-6.788-7.359-7.604-4.513-.732-9.05 1.077-10.459 4.171-.932 2.046-1.456 2.243-3.88 1.461-1.541-.497-4.01-1.143-5.486-1.435-4.76-.942-7.132-5.749-7.874-15.961-.363-4.986-1.159-10.296-1.77-11.801l-1.112-2.736 3.705 1.986c4.46 2.39 10.781 2.552 16.13.411 2.164-.866 5.211-1.428 6.77-1.25 2.499.287 2.872.781 3.151 4.174.284 3.458.539 3.777 2.5 3.135 2.933-.96 5.813-.975 7.934-.041 1.366.602 1.75.294 1.75-1.402 0-2.763 1.525-5.657 5.226-9.916 2.39-2.751 2.881-4.139 2.651-7.5-.298-4.353 3.413-12.182 5.24-11.053 1.331.823 5.449 9.23 6.903 14.092 1.234 4.129 1.215 4.191-2.323 7.297-5.083 4.463-9.261 18.167-5.697 18.687.825.12 3.188.494 5.25.831l3.75.612v8.315c0 7.214-.33 8.801-2.493 11.989-2.123 3.128-2.262 3.762-.936 4.271.856.328 2.674.088 4.04-.535 4.203-1.915 4.71-1.492 4.044 3.369-.532 3.88-.371 4.5 1.164 4.5.98 0 2.368-.562 3.085-1.25 1.049-1.006 1.527-.88 2.45.645.63 1.042 2.544 3.775 4.253 6.072s3.545 5.494 4.08 7.105c1.907 5.737 9.313 7.256 9.313 1.91 0-2.548.074-2.573 5.75-1.958 6.403.695 12.125-.869 18.445-5.041l3.695-2.438 2.477 3.164c2.118 2.707 2.706 2.976 4.055 1.856.963-.799 1.578-2.891 1.578-5.366 0-2.232.54-5.551 1.201-7.378.971-2.684 1.737-3.321 4-3.321 3.52 0 3.616-1.875.299-5.818-1.375-1.634-2.496-4.031-2.491-5.326.006-1.446-1.234-3.378-3.209-5.001-2.619-2.153-2.995-2.915-2.017-4.093.979-1.18.731-1.663-1.338-2.605-6.04-2.752-12.309-.09-14.382 6.109-.98 2.929-6.55 7.734-8.965 7.734-.512 0-3.386-2.713-6.387-6.03-5.897-6.516-9.714-14.698-9.707-20.809.005-4.975 3.258-9.954 7.72-11.819 3.492-1.459 5.258-1.43 13.026.219 2.772.588 3.25.408 3.25-1.22 0-1.05-1.575-4.353-3.5-7.341-1.925-2.988-3.5-5.753-3.5-6.145 0-1.597 3.302-3.855 5.637-3.855 6.19 0 9.411 5.557 6.818 11.762-1.837 4.397-.84 5.617 3.389 4.143 3.307-1.153 6.156-5.224 6.156-8.796 0-2.799 1.809-3.592 3.892-1.707 2.4 2.172 2.643 2.086 5.026-1.77 2.439-3.945 2.715-10.9.582-14.632-1.942-3.398-1.88-5.083.159-4.301 1.4.538 1.56.144 1.025-2.531-.706-3.53-.299-3.735 3.316-1.668 3.383 1.934 4 1.849 4-.55 0-2.469-2.703-7.95-3.921-7.95-.479 0-2.298-2.225-4.043-4.944-4.993-7.78-15.165-11.239-23.612-8.027-2.057.782-3.734.636-6.988-.607-5.088-1.943-6.843-1.207-6.091 2.554.326 1.627-.058 3.597-.947 4.867-1.338 1.909-2.408 2.126-10.196 2.07-4.786-.035-9.969.42-11.517 1.012-1.548.591-5.148 1.078-8 1.081-2.852.004-6.474.679-8.049 1.5-1.576.822-3.038 1.494-3.25 1.494-1.25 0-.015-5.407 2.194-9.601 3.089-5.868 7.596-10.745 16.7-18.074 7.744-6.234 11.207-10.955 12.582-17.153 1.175-5.294 1.648-5.823 3.69-4.129 2.072 1.72 3.411-.149 3.433-4.793.018-3.894.608-4.014 3.961-.801 2.442 2.339 2.698 2.379 5.734.909 3.374-1.634 6.32-6.568 6.32-10.586 0-2.074.399-2.369 2.75-2.035 1.512.214 3.542-.201 4.511-.924 1.53-1.141 1.6-1.736.536-4.549-1.633-4.315-.219-5.753 4.74-4.823 4.806.902 8.463 4.58 8.463 8.514 0 3.396 1.398 3.855 4.699 1.543 1.18-.826 3.193-1.389 4.473-1.25 2.522.273 2.518.301 1.273-8.287-.511-3.526-.299-4.837.949-5.873 2.104-1.747 2.042-4.95-.144-7.36-.962-1.061-2.2-4.246-2.75-7.078-.798-4.108-1.432-5.212-3.135-5.454-1.977-.282-3.638 1.196-6.865 6.11-.55.837-2.46 1.821-4.245 2.187-2.89.591-3.359.364-4.285-2.073-.895-2.354-.686-3.106 1.495-5.383 2.32-2.422 3.3-5.939 2.013-7.226-.287-.287-2.277-.053-4.423.52-5.179 1.382-7.063-.145-7.033-5.703.025-4.67 3.247-12.628 5.113-12.628.679 0 3.19.947 5.582 2.105 7.045 3.411 14.283.656 14.283-5.436 0-1.516-.494-1.762-2.521-1.253-3.428.86-6.68-1.016-6.29-3.629.217-1.45 1.519-2.433 4.311-3.257 2.2-.65 5.012-1.725 6.25-2.391 2.52-1.354 3.072-5.139.75-5.139-.977 0-1.5-.978-1.5-2.806 0-2.787-2.443-6.764-6.75-10.988-1.238-1.213-2.25-3.331-2.25-4.706 0-2.934-2.035-3.252-6.364-.994-3.73 1.945-3.598 2.035-2.942-2.006.312-1.925.396-3.489.187-3.476-.21.014-2.441 1.172-4.959 2.574m-62.172 7.974c-4.304 2.335-3.267 3.428 3.25 3.428 6.49 0 7.388-.86 3.535-3.385-2.964-1.942-3.28-1.944-6.785-.043m173.708 40.678c-.263.688-.362 22.4-.219 48.25l.261 47 25.83.267c27.834.288 31.626-.177 36.767-4.502 5.331-4.486 6.856-9.26 6.881-21.547.025-12.041-1.309-16.818-5.698-20.416l-2.682-2.198 2.822-2.22c4.446-3.497 5.58-7.538 5.58-19.884 0-12.122-1.181-16.49-5.746-21.256-1.452-1.516-4.241-3.201-6.197-3.745-5.519-1.533-57.001-1.309-57.599.251m15.288 13.338c-.411.41-.746 6.52-.746 13.579V247h17.066c22.711 0 23.85-.629 23.902-13.194.028-6.716-.275-8.051-2.38-10.5l-2.411-2.806-17.343-.329c-9.539-.181-17.678.007-18.088.417m81.754 10.13c-3.221.782-8.37 5.129-10.148 8.568-1.949 3.769-3.075 29.875-1.898 44.005.847 10.165 2.939 14.139 9.059 17.209 3.364 1.688 6.421 2.052 19.565 2.335 17.149.368 22.13-.456 26.874-4.448 5.284-4.447 6.271-10.274 5.872-34.686-.324-19.835-.494-21.48-2.644-25.526-3.788-7.131-7.296-8.15-27.68-8.037-9.35.052-17.9.313-19 .58m99.95.689c-3.572 1.555-8.196 6.732-9.048 10.128-.329 1.31-.441 6.647-.25 11.859.328 8.945.517 9.655 3.348 12.628 1.65 1.733 3.9 3.655 5 4.272 1.1.618 8.262 1.41 15.917 1.761 13.088.6 14.031.78 15.853 3.03 1.482 1.831 1.821 3.415 1.444 6.756-.842 7.478-1.241 7.617-22.747 7.97l-18.967.31V303h21.032c24.666 0 26.362-.421 31.016-7.693 3.005-4.696 3.069-5.05 2.764-15.307-.289-9.71-.522-10.774-3.1-14.145-1.534-2.004-4.009-4.115-5.5-4.69-1.492-.575-8.679-1.202-15.971-1.392-11.737-.307-13.494-.581-15.296-2.384-2.752-2.752-3.027-9.535-.5-12.328 1.75-1.934 2.96-2.061 19.628-2.061 9.77 0 18.475-.273 19.345-.607 1.195-.458 1.582-2.049 1.582-6.5V230l-21.25.039c-15.397.029-22.09.405-24.3 1.368m68-.011c-4.093 1.797-8.225 6.887-9.017 11.11-.356 1.896-.484 7.028-.286 11.403.414 9.112 2.042 12.162 8.447 15.825 3.354 1.917 5.391 2.235 14.413 2.25 10.896.017 16.774 1.068 18.157 3.248 1.325 2.087.94 10.243-.582 12.327-1.305 1.787-2.968 1.966-21 2.25l-19.582.31V303h20.935c21.699 0 24.766-.458 28.91-4.317 4.423-4.118 5.503-7.566 5.535-17.683.032-10.299-.994-13.448-5.865-18-2.522-2.357-3.486-2.531-16.845-3.048-14.134-.546-17.872-1.43-19.052-4.506-1.281-3.338-.604-8.46 1.382-10.446 1.85-1.85 3.333-2 19.809-2 21.016 0 21.47-.163 21.005-7.533l-.314-4.967-21.5-.221c-16.175-.166-22.255.11-24.55 1.117m69.57.854c-8.928 4.562-10.409 10.335-9.813 38.25.306 14.323.788 19.862 1.961 22.5 3.595 8.087 9.096 10.002 28.708 9.994 16.557-.006 20.739-.839 25.591-5.099 4.994-4.385 5.775-9.387 5.372-34.395-.397-24.598-1.169-27.321-8.859-31.25-4.058-2.074-5.743-2.25-21.48-2.25s-17.421.176-21.48 2.25m75.186-.123c-2.885 1.428-4.936 3.384-6.25 5.959-1.815 3.558-1.956 6.038-1.956 34.422v30.587l6.25-.297 6.25-.298.5-28.202c.376-21.211.821-28.523 1.796-29.5.821-.822 5.106-1.481 11.685-1.798 11.281-.543 16.947.029 18.82 1.899.85.849 1.344 9.398 1.699 29.399l.5 28.202 6.25.298 6.25.297v-61.419l-2.472-4.218c-3.846-6.563-7.183-7.458-27.798-7.457-15.555.001-17.648.207-21.524 2.126M972 230.722c-7.36 2.765-10.956 9.421-10.956 20.278 0 9.012 2.191 14.605 7.089 18.099 3.031 2.162 4.763 2.466 17.367 3.05 7.7.357 14.08.695 14.179.75 2.15 1.213 3.321 4.027 3.321 7.981 0 8.565-.026 8.576-22.464 8.93l-19.628.31.296 6.19.296 6.19 20.992.271c23.098.298 24.748-.002 29.458-5.367 8.1-9.225 6.503-28.932-2.848-35.146-2.985-1.983-4.687-2.261-14-2.282-12.1-.027-17.988-1.1-19.825-3.612-1.993-2.726-1.591-9.05.723-11.364 1.851-1.851 3.333-2 19.918-2 9.855 0 18.63-.273 19.5-.607 1.195-.458 1.582-2.049 1.582-6.5V230l-21.75.079c-11.962.043-22.425.333-23.25.643m-316 6.861c-1.375.763-3.737 1.394-5.25 1.402L648 239v64.095l6.25-.297 6.25-.298.263-33.25c.283-35.666.45-34.559-4.763-31.667m-63.894 5.42c-7.524 1.147-8.444 4.305-7.934 27.233.435 19.526.091 19.137 17.348 19.595l12.471.332 3.004-3.005 3.005-3.004v-17.012c0-17.541-.616-21.357-3.702-22.946-2.396-1.233-18.669-2.036-24.192-1.193m245.56-.071c-13.884.802-14.011 1.051-13.489 26.341.425 20.613-.007 20.097 17.201 20.555 11.922.318 12.424.247 15.225-2.161l2.897-2.489.328-16.339c.343-17.106-.535-23.103-3.613-24.691-2.837-1.464-8.187-1.814-18.549-1.216M501 275v13h18c16.589 0 18.155-.155 19.975-1.975 2.672-2.672 3.332-5.86 2.834-13.684-.649-10.186-.992-10.341-22.92-10.341H501v13"/>
</svg>
