<svg xmlns="http://www.w3.org/2000/svg" width="500" height="500"><path fill="#d0cb81" fill-rule="evenodd" d="M237.5 101.69c-21.554 2.803-50.501 14.691-68.289 28.046-16.435 12.338-31.157 29.537-40.802 47.668-3.894 7.321-9.409 19.914-9.409 21.486 0 1.514 1.929-1.931 3.018-5.39 3.145-9.99 15.449-31.059 23.067-39.5 7.719-8.554 9.867-10.763 14.494-14.907 17.743-15.889 42.506-28.729 65.421-33.92 20.905-4.736 48.246-3.823 71.5 2.388 1.605.429 1.696.341.46-.446-.848-.539-7.247-2.135-14.222-3.547-10.569-2.14-15.142-2.543-27.459-2.418-8.129.082-16.129.325-17.779.54m64 7.768c5.026 2.169 8.269 2.667 4 .614-2.2-1.058-4.675-1.92-5.5-1.916-.825.004-.15.59 1.5 1.302m8.583 2.902c.23.198 4.692 2.543 9.917 5.211 5.225 2.669 12.65 6.982 16.5 9.584 13.514 9.137 30.663 26.812 39.65 40.869 3.624 5.666 11.815 22.002 13.919 27.758.66 1.805 1.396 3.086 1.636 2.846.795-.795-4.934-13.997-10.037-23.128-14.406-25.778-35.418-45.954-61.601-59.152-7.246-3.653-11.617-5.399-9.984-3.988m-63.416 1.307c-1.236 1.236-.679 4.114.915 4.726 2.61 1.002 2.914.693.859-.874-1.609-1.228-1.7-1.639-.532-2.407 1.898-1.248 4.339-.201 3.66 1.569-.303.788-.105 1.15.442.812.544-.336.989-1.211.989-1.945 0-2.031-4.768-3.447-6.333-1.881m14.583-.005c-.687.278-1.25.972-1.25 1.544 0 .627.594.546 1.5-.206 1.191-.989 1.806-.991 2.989-.009 2.027 1.682.805 3.298-2.076 2.748-1.294-.248-2.115-.065-1.824.405.76 1.23 3.813 1.054 5.164-.297.794-.794.845-1.73.165-3-.98-1.832-2.26-2.156-4.668-1.185m-28.239 1.825c-1.786 2.152-.484 4.513 2.489 4.513 1.41 0 2.824-.681 3.143-1.513.663-1.727-1.27-4.487-3.143-4.487-.69 0-1.811.669-2.489 1.487m.907.564c-1.073.663-1.126 1.141-.227 2.04 1.257 1.257 4.309.582 4.309-.953 0-1.399-2.5-2.065-4.082-1.087m40.082-.19c0 .474 1.195.633 2.655.354 2.319-.443 2.584-.236 2.093 1.639-.308 1.18-.153 2.146.346 2.146.498 0 .906-1.125.906-2.5 0-2.111-.467-2.5-3-2.5-1.65 0-3 .388-3 .861m-54.333 1.806c-.367.366-.667 1.746-.667 3.066 0 2.026.427 2.351 2.741 2.083 1.736-.2 2.873-1.006 3.099-2.196.498-2.624-3.322-4.805-5.173-2.953m.333 2.26c0 1.431.642 2.073 2.073 2.073s1.97-.539 1.739-1.739c-.502-2.606-3.812-2.897-3.812-.334m67.406-.542c-.78 2.032.325 3.642 2.403 3.499 1.525-.105 1.519-.161-.059-.573-2.784-.728-2.108-3.311.867-3.311 2.124 0 2.518.376 2.093 2-.287 1.1-.084 2 .453 2s.832-1.013.657-2.25c-.39-2.741-5.471-3.822-6.414-1.365m-80.835 3.186c-1.784 1.785-1.994 3.05-.642 3.885.51.315 1.073-.441 1.25-1.681.415-2.912 3.821-3.733 3.821-.922 0 1.1-.787 2.206-1.75 2.458-1.476.386-1.496.475-.122.573 2.595.185 4.39-2.555 2.872-4.384-1.601-1.929-3.453-1.904-5.429.071m93.786.942c-.814 2.119 1.437 4.487 4.265 4.487 3.292 0 3.399-4.493.128-5.37-3.29-.881-3.752-.788-4.393.883m.643.88c0 1.31 2.03 2.607 4.082 2.607 1.553 0 1.015-2.749-.664-3.393-2.464-.946-3.418-.726-3.418.786m-107.944 5.502c-1.442 2.696 1.007 4.677 3.88 3.139 1.135-.607 2.064-1.329 2.064-1.604 0-.275-.948.007-2.107.627-2.864 1.533-4.589-.218-2.386-2.421.9-.9 1.17-1.636.6-1.636s-1.493.853-2.051 1.895m119.611-1.228c-1.042 1.042-.798 2.06.904 3.762 1.979 1.978 5.038 2.031 5.78.1 1.069-2.788-4.526-6.021-6.684-3.862m.559 1.512c.542 1.626 3.531 3.398 4.35 2.579.369-.37.405-1.366.079-2.215-.685-1.785-5.021-2.142-4.429-.364M182.2 135.2c-1.404 1.404-1.612 4.8-.294 4.8.499 0 .688-.838.42-1.862-.577-2.206 2.456-3.765 4.091-2.103.78.792.54 1.501-.858 2.532-1.068.788-1.46 1.433-.873 1.433.588 0 1.629-.675 2.314-1.5 2.379-2.867-2.132-5.968-4.8-3.3m76.8.929c17.136 1.261 29.795 4.263 41.747 9.898 24.242 11.429 41.578 28.614 52.832 52.371l4.548 9.602h17.878c10.744 0 18.122-.396 18.49-.992.337-.546.128-1.783-.466-2.75-.989-1.612-1.056-1.592-.804.242.238 1.733-.384 2.042-4.659 2.312-7.341.465-9.158-.239-9.108-3.529.035-2.313-.38-2.783-2.458-2.783-2.191 0-2.481.407-2.348 3.289l.151 3.289-7.963-.289-7.964-.289-2.791-6.623c-4.417-10.481-13.403-23.152-23.695-33.41-5.224-5.207-9.892-9.467-10.373-9.467-.481 0-1.469-.578-2.196-1.284-4.059-3.943-25.136-14.427-33.321-16.573-9.684-2.539-22.133-4.109-31.5-3.971-6.746.099-6.344.195 4 .957m66.709-.505c-1.205 1.206-.784 4.069.791 5.376 1.036.86 1.5.898 1.5.122 0-.617-.45-1.122-1-1.122s-1-.933-1-2.073c0-1.443.532-1.966 1.75-1.719 1.067.216 1.719 1.22 1.671 2.573-.044 1.221.323 2.219.816 2.219.493 0 .753-1.238.579-2.75-.31-2.696-3.432-4.301-5.107-2.626m-94.288 1.858c-3.344.727-8.233 2.054-10.864 2.947-5.917 2.009-21.586 9.585-23.378 11.304-.727.697-1.734 1.267-2.237 1.267-1.411 0-13.812 10.542-19.824 16.851-5.367 5.633-15.652 19.948-14.884 20.716.222.223 2.376-2.573 4.786-6.212 16.12-24.341 44.151-42.433 72.48-46.78 6.445-.989 7.723-1.386 4.5-1.399-2.475-.009-7.236.578-10.579 1.306m-61.285 8.209c-.075 1.205.318 2.472.873 2.815 1.408.87 4.991-.403 4.991-1.773 0-.806-.346-.787-1.2.067-1.868 1.868-3.619 1.419-4.094-1.05-.433-2.249-.434-2.249-.57-.059m166.044.457c.42 2.818 3.349 4.723 4.892 3.18 1.872-1.872.114-5.328-2.709-5.328-1.992 0-2.437.438-2.183 2.148m.82-.27c0 1.26 2.935 3.52 3.648 2.808 1.024-1.024-.505-3.686-2.117-3.686-.842 0-1.531.395-1.531.878m-86.729 5.654c-5.907 2.938-8.569 6.148-9.928 11.968-.765 3.276-1.379 4.02-3.389 4.108-1.35.06-3.016.173-3.704.25-.957.109-1.25 5.183-1.25 21.634v21.493l-61.75.257-61.75.258-.32 2.25-.319 2.25h147.101c133.955 0 147.156-.143 147.715-1.601.338-.88-.014-2.03-.781-2.553-.83-.567-14.776-.872-34.396-.752-18.15.11-50.887.134-72.75.053L255 211v-9h4.5c2.549 0 4.5-.467 4.5-1.078 0-.667-1.807-.946-4.743-.732l-4.744.345-.838 5.269-.839 5.269-9.168-.287-9.168-.286-.651-13.924c-.357-7.658-.357-16.879 0-20.491.622-6.271.782-6.591 3.55-7.077 2.466-.432 3.153-1.287 4.597-5.722 2.085-6.4 3.258-7.862 8.437-10.517 10.233-5.246 35.842-1.83 28.196 3.761-1.253.915-2.728.978-5.637.24-5.23-1.328-8.835-.312-10.028 2.823-1.376 3.62.17 5.812 5.225 7.406 10.579 3.336 16.076 7.245 17.881 12.713 2.913 8.828-2.735 16.153-15.219 19.738l-5.351 1.537 4.5-.536c6.161-.734 12.535-3.991 15.243-7.787 1.758-2.465 2.257-4.531 2.257-9.348 0-5.472-.337-6.536-2.92-9.233-1.684-1.757-6.683-4.607-11.801-6.729-8.19-3.395-8.857-3.882-8.58-6.267.27-2.323.782-2.618 5.017-2.89 2.594-.167 5.543.139 6.554.68 2.32 1.241 3.824.322 5.141-3.142 1.675-4.408-1.731-5.892-14.67-6.39-10.003-.386-11.1-.236-15.97 2.187M161.2 153.2c-.66.66-1.2 2.04-1.2 3.066 0 1.447.619 1.796 2.75 1.55 2.16-.248 2.818-.906 3.066-3.066.246-2.131-.103-2.75-1.55-2.75-1.026 0-2.406.54-3.066 1.2m.145 1.343c-.326.849-.331 1.804-.012 2.124 1.009 1.009 3.667-.539 3.667-2.136 0-1.996-2.888-1.986-3.655.012m184.839 1.207c.248 2.16.906 2.818 3.066 3.066 2.131.246 2.75-.103 2.75-1.55a4.227 4.227 0 0 0-4.266-4.266c-1.447 0-1.796.619-1.55 2.75m.987-.102c.193 1.006 1.175 1.988 2.181 2.181 1.321.255 1.732-.156 1.477-1.477-.193-1.006-1.175-1.988-2.181-2.181-1.321-.255-1.732.156-1.477 1.477m-194.942 7.523c-1.699 1.699-1.54 4.772.284 5.472 2.121.814 4.641-1.564 4.285-4.045-.348-2.426-2.803-3.193-4.569-1.427m.438.496c-.367.366-.667 1.524-.667 2.573 0 2.725 3.416 1.831 3.82-1 .307-2.157-1.612-3.115-3.153-1.573m203 0c-1.381 1.38-.591 4.899 1.374 6.126 2.521 1.575 3.959.793 3.959-2.152 0-3.45-3.357-5.951-5.333-3.974m.333 2.281c0 2.127 2.506 3.879 3.758 2.628.819-.819-.953-3.808-2.579-4.35-.657-.219-1.179.543-1.179 1.722m-212 8.958c0 .499.9.671 2 .384 1.521-.398 2-.031 2 1.534 0 2.904-2.053 3.824-3.652 1.638-.741-1.015-1.348-1.363-1.348-.776 0 .588.683 1.636 1.519 2.33 2.044 1.696 5.492-1.257 4.756-4.073-.512-1.956-5.275-2.892-5.275-1.037m219.418.447c-.83 2.163-.111 5.927 1.216 6.363 2.087.687 4.351-2.581 3.46-4.995-.976-2.643-3.862-3.488-4.676-1.368m1.305.258c-1.279 1.278-.77 4.389.718 4.389.793 0 1.678-.384 1.968-.853.716-1.158-1.779-4.443-2.686-3.536m-109.478 6.698c-1.538 2.031-.909 8.863.921 10.021 2.772 1.753 4.987-.941 4.634-5.635-.228-3.019-.825-4.17-2.477-4.777-1.382-.508-2.506-.365-3.078.391m.755 4.559c0 4.284.816 5.482 2.872 4.211 1.926-1.19 1.032-7.486-1.122-7.894-1.431-.271-1.75.4-1.75 3.683m-119.335 1.306c-.58 2.215-.098 3.826 1.144 3.826.38 0 .691-1.35.691-3 0-3.5-1.016-3.957-1.835-.826m3.835.731c0 1.597.338 2.695.75 2.44.412-.254.75-1.561.75-2.904s-.338-2.441-.75-2.441-.75 1.307-.75 2.905m229.5-.936c0 .532.617.731 1.371.442 1.468-.563 3.007 2.168 2.073 3.679-.887 1.436-2.444 1.061-2.444-.59 0-.825-.408-1.5-.906-1.5-.499 0-.671.9-.384 2 .556 2.127 1.183 2.362 3.708 1.393 1.872-.718 2.076-3.499.382-5.193-1.441-1.441-3.8-1.585-3.8-.231m-214.232 9.781c-1.378 3.162-2.775 6.537-3.105 7.5-.54 1.575-2.313 1.75-17.762 1.75h-17.163l.537-3.75.536-3.75-1.466 3.39c-.848 1.963-1.093 3.762-.581 4.274.486.486 8.864.76 18.618.61l17.735-.274 3.369-7.75c1.853-4.262 3.013-7.75 2.578-7.75-.435 0-1.918 2.588-3.296 5.75m-23.21 2.157c-.309.498.34.671 1.441.383 1.404-.367 2.001-.031 2.001 1.125 0 2.195-2.948 3.24-4.177 1.481-.812-1.162-.907-1.145-.571.104.646 2.397 4.472 2.446 5.227.067.357-1.127.369-2.503.027-3.058-.776-1.255-3.197-1.318-3.948-.102M376 203c0 1.111.667 2 1.5 2 1.683 0 1.751-.183.893-2.418-.857-2.235-2.393-1.966-2.393.418m-265.901 10.718c-1.259.96 29.354 1.225 144.092 1.25 96.083.021 145.901-.309 146.309-.968.34-.55.029-1.014-.691-1.03-.72-.017-65.839-.13-144.71-.25-111.462-.171-143.757.051-145 .998m78.724 15.091c-1.472.171-3.215.958-3.872 1.75-1.003 1.209-.621 1.441 2.368 1.441 1.959 0 3.85.464 4.2 1.031.629 1.018-1.647 12.761-3.958 20.414-.916 3.035-1.849 4.122-4.041 4.708-2.952.789-4.753 2.662-3.895 4.049.271.439 4.066.798 8.434.798 6.228 0 7.941-.309 7.941-1.434 0-.82-1.176-1.568-2.75-1.75-1.752-.201-2.68-.86-2.556-1.816.528-4.084 5.284-25.311 5.782-25.809.314-.315 1.798-.599 3.298-.632 1.499-.032 2.951-.509 3.226-1.059.526-1.051-9.433-2.239-14.177-1.691m20.816 1.655c-3.636 2.451-5.604 5.9-5.624 9.863-.015 2.788 1.314 4.407 8.873 10.808 1.712 1.449 3.112 3.277 3.112 4.061 0 2.498-3.94 5.804-6.917 5.804-4.049 0-5.411-2.102-4.573-7.059.619-3.667.491-4.088-1.149-3.772-2.418.466-4.703 5.334-3.936 8.387.701 2.794 5.241 5.451 9.275 5.428 4.642-.028 10.747-4.076 11.128-7.38.574-4.982-.665-7.241-6.314-11.506-3.165-2.39-5.514-4.943-5.514-5.996 0-2.97 3.87-7.102 6.652-7.102 2.318 0 2.449.245 1.744 3.25-1.246 5.313-1.043 8.25.572 8.25 2.49 0 4.966-10.478 3.152-13.34-1.38-2.177-7.042-2.013-10.481.304M236.5 229.4c-7.105 3.132-13.228 13.076-13.606 22.1-.278 6.656.513 8.719 4.175 10.882 4.205 2.484 8.744 1.472 13.146-2.93l3.514-3.514 1.81 2.781c3.99 6.129 8.052 6.809 14.176 2.373 6.02-4.361 9.285-11.646 9.285-20.717 0-7.438-.733-9.091-5.055-11.405-2.502-1.338-8.083.962-11.479 4.732-3.211 3.564-6.996 10.861-7.789 15.017-.561 2.94-1.357 4.122-6.434 9.565-.915.981-2.764 2.06-4.108 2.397-4.087 1.026-5.603-.782-5.936-7.083-.468-8.846 5.648-20.598 10.721-20.598 1.835 0 1.85.176.344 4.011-.867 2.206-1.3 4.286-.963 4.623 1.391 1.391 3.586-.771 5.277-5.198l1.799-4.712-2.299-1.862c-2.691-2.179-2.682-2.178-6.578-.462m57.143-.372c-3.837 1.15-6.622 3.769-8.349 7.852-2.017 4.77-.306 8.326 5.821 12.096 4.55 2.799 5.412 4.202 4.934 8.024-.461 3.69-7.593 5.46-10.053 2.495-.811-.977-1.026-2.908-.611-5.5.547-3.425.38-3.995-1.173-3.995-5.127 0-5.866 7.431-1.135 11.411 3.716 3.128 7.598 3.305 12.917.592 3.101-1.582 4.051-2.726 4.572-5.504.823-4.385-1.049-7.471-7.134-11.76-5.158-3.636-5.845-7.063-2.118-10.565 2.776-2.607 7.225-3.022 6.291-.587-.335.874-.898 3.394-1.251 5.601-.568 3.551-.427 3.973 1.221 3.655 2.556-.492 4.855-8.581 3.473-12.218-1.048-2.754-2.499-3.067-7.405-1.597m48.857.389c-6.686 2.985-13.5 13.967-13.5 21.759 0 8.08 3.506 12.824 9.477 12.824 4.199 0 12.147-8.132 14.146-14.473 2.255-7.152 1.246-15.385-2.322-18.953-2.919-2.919-3.619-3.023-7.801-1.157m-228.25.245c-1.928.778-1.499 3.467.5 3.132.963-.162 1.749.156 1.747.706-.001.55-1.999 6.973-4.44 14.274-3.978 11.9-4.28 13.432-2.911 14.8 2.155 2.155 3.471.296 5.442-7.682l1.578-6.392 6.172-1.5c5.834-1.418 6.275-1.396 8.062.395 1.803 1.808 1.814 2.109.24 6.5-3.555 9.921-.933 11.173 3.36 1.605 2.458-5.478 3.308-6.5 5.406-6.5 2.298 0 2.513.404 2.792 5.241.239 4.142.685 5.313 2.131 5.588 3.5.666 6.414-.795 7.679-3.848 1.677-4.049.536-4.942-2.074-1.624-1.152 1.464-2.436 2.451-2.854 2.192-1.552-.959 1.989-19.855 3.947-21.066.535-.33.973-1.924.973-3.542 0-2.271-.454-2.941-1.992-2.941-2.056 0-4.374 2.268-10.184 9.964-2.332 3.088-4.365 4.667-6.597 5.123-3.08.63-4.35-.275-2.227-1.587.55-.34 1-2.599 1-5.02 0-6.424-2.584-8.503-10.439-8.401-3.333.043-6.623.306-7.311.583m48.832.056c-2.463.974-6.018 5.692-6.05 8.032-.05 3.508 2.685 2.675 4.104-1.25.696-1.925 1.616-3.5 2.043-3.5.428 0 .385 1.012-.096 2.25s-1.443 4.275-2.137 6.75c-.694 2.475-2.115 7.144-3.157 10.376-2.121 6.576-2.043 9.448.298 10.914 4.184 2.621 15.901-3.365 19.653-10.041 4.745-8.443 4.702-19.425-.089-22.781-2.06-1.443-11.577-1.932-14.569-.75m146.346 1.954c-2.682 2.894-4.005 6.586-2.963 8.271 1.23 1.991 2.552 1.054 4.152-2.943.88-2.2 1.94-4 2.355-4 1.49 0-2.275 9.092-4.19 10.116-1.45.777-1.798 1.684-1.342 3.502.339 1.35-.071 4.769-.912 7.599-1.902 6.407-1.932 8.783-.111 8.783 1.334 0 2.957-3.551 5.599-12.25 1.064-3.502 1.398-3.75 5.062-3.75 2.157 0 3.922.355 3.922.79 0 .434-.666 3.346-1.48 6.471-1.615 6.199-1.168 9.008 1.356 8.528 1.162-.22 1.932-2.18 2.705-6.888.595-3.618 1.46-7.439 1.922-8.49.462-1.051.912-2.811 1-3.911.088-1.1.758-4.59 1.489-7.756.731-3.166 1.062-6.024.735-6.35-1.254-1.254-2.541.807-4.704 7.536-2.234 6.948-2.256 6.973-5.383 6.379-1.727-.328-3.31-.739-3.518-.914-.208-.174.355-2.557 1.25-5.294 2.334-7.135 2.165-8.101-1.42-8.101-2.019 0-3.884.902-5.524 2.672m54.411-.969c-2.569 2.967-3.953 8.215-2.756 10.452.886 1.656.414 2.527-3.063 5.651-5.738 5.155-6.48 9.888-2.22 14.148 3.895 3.895 7.419 3.927 13.418.122 4.446-2.819 4.67-2.858 6.268-1.091.912 1.008 2.999 2.388 4.638 3.066 6.165 2.554 14.876-2.733 14.876-9.028 0-2.036-1.51-4.091-6.092-8.288-5.144-4.712-5.982-5.943-5.385-7.908.995-3.276 4.48-6.827 6.701-6.827 1.701 0 1.812.558 1.196 6-.548 4.85-.404 6 .75 6 3.185 0 5.241-12.245 2.248-13.393-5.726-2.197-11.967.849-14.854 7.251-1.647 3.651-1.664 4.162-.209 6.238.871 1.244 3.735 3.884 6.364 5.867 6.217 4.688 6.867 8.1 2.095 11.009-4.118 2.511-4.334 2.508-6.934-.092-1.752-1.752-2.015-2.877-1.519-6.5.331-2.409.255-4.38-.168-4.38-.422 0-3.001 2.285-5.731 5.078-2.729 2.794-6.24 5.751-7.803 6.573-2.572 1.353-3.022 1.331-4.75-.233-2.765-2.503-2.55-8.467.405-11.244 1.273-1.196 2.798-2.174 3.388-2.174.623 0 1.237-2.912 1.465-6.946.434-7.678.358-7.505 3.721-8.541 2.124-.654 2.331-.474 1.878 1.626-.28 1.298-.838 3.145-1.241 4.103-.5 1.188-.191 1.949.972 2.395 2.366.908 3.575-1.365 3.264-6.137-.261-3.994-.268-4-4.814-4.297-3.398-.221-4.947.159-6.108 1.5m-241.558 1.547c-1.348 1.748-4.281 9.482-4.281 11.289 0 1.127.683 1.337 2.75.846 5.949-1.414 9.38-7.012 6.754-11.02-1.708-2.606-3.739-3.039-5.223-1.115m47.536-.574c-.926.245-1.683 1.205-1.682 2.134.001.93-.981 4.39-2.182 7.69-3.099 8.519-6.125 19.661-5.506 20.28 1.3 1.301 10.214-5.68 12.994-10.175 3.736-6.042 4.296-15.022 1.154-18.498-1.048-1.159-2.173-2.055-2.5-1.991-.327.064-1.352.316-2.278.56m87.601 3.973c-4.829 4.829-7.369 10.677-7.396 17.03-.038 8.989 3.99 10.736 10.055 4.361 2.878-3.025 4.093-5.426 5.147-10.172 1.341-6.04 1.267-11.868-.152-11.868-.386 0-1.469 1.609-2.407 3.577-.938 1.967-2.259 3.394-2.935 3.171-2.199-.724-1.997-4.835.362-7.346 3.593-3.824 1.352-2.78-2.674 1.247m82.742 1.822c-5.687 6.477-7.57 18.976-3.475 23.071 1.258 1.258 1.81 1.253 4.3-.034 5.552-2.871 9.982-12.321 10.004-21.341.013-5.105-1.684-5.269-3.989-.387-.825 1.747-2.014 3.186-2.643 3.198-1.753.034-2.476-2.887-1.272-5.136 1.824-3.409.34-3.09-2.925.629m-197.993 3.196c-2.376 3.624-2.321 4.99.165 4.036 1.098-.422 2.986-6.512 2.288-7.381-.079-.099-1.183 1.407-2.453 3.345M178 242c0 2.491.395 3.874 1 3.5.55-.34 1-1.915 1-3.5s-.45-3.16-1-3.5c-.605-.374-1 1.009-1 3.5m70.025 2.441c-2.126 4.96-2.693 10.559-1.07 10.559.525 0 1.241-1.687 1.591-3.75.35-2.062 1.034-5.3 1.518-7.194 1.322-5.162.252-4.96-2.039.385m86.475-3.676c-2.158 1.586-3.499 5.424-3.485 9.971.021 6.441 1.608 8.736 1.76 2.546.065-2.63.797-6.694 1.627-9.032s1.417-4.243 1.304-4.235c-.113.009-.656.346-1.206.75m-108.398 3.044c-1.664 3.11-2.536 12.805-1.224 13.616.753.465 1.13-.56 1.146-3.116.013-2.095.438-5.596.945-7.781 1.046-4.515.691-5.63-.867-2.719m84.441 1.122c-.683 1.105.894 2.299 1.818 1.375.95-.951.773-2.306-.302-2.306-.518 0-1.2.419-1.516.931m-165.876.736c-1.047 1.047-.779 5.333.333 5.333.55 0 1-1.35 1-3 0-3.107-.204-3.463-1.333-2.333M213 247.832c0 .451 1.125 1.876 2.5 3.168 1.375 1.292 2.5 1.901 2.5 1.355 0-.547-1.125-1.973-2.5-3.168-1.375-1.196-2.5-1.805-2.5-1.355m143.035 3.102c-1.627 3.041-1.307 8.066.514 8.066 1.224 0 1.502-1.053 1.322-5-.126-2.75-.357-5-.515-5-.157 0-.751.87-1.321 1.934m-35.504 5.359c-.428.986-.497 2.074-.155 2.417 1.016 1.015 1.835-.411 1.367-2.382-.414-1.747-.468-1.748-1.212-.035m-212.418 18.071c-.863 1.039-.8 1.651.259 2.53 1.046.868 37.868 1.15 146.457 1.123 79.783-.02 145.781-.314 146.664-.653.883-.339 1.464-1.347 1.292-2.24-.286-1.489-12.54-1.645-146.923-1.877-123.178-.213-146.793-.035-147.749 1.117M110 275c0 .55.338 1.026.75 1.058 1.031.08 281.952.086 286 .006 1.788-.035 3.25-.514 3.25-1.064 0-.662-49-1-145-1s-145 .338-145 1m6.529 6.953c-.305.493.366 3.068 1.491 5.722 1.217 2.87 1.772 3.609 1.372 1.825-1.556-6.928-1.512-6.984 5.673-7.166l6.564-.166-.411 2.797c-.394 2.685.764 4.248 3.449 4.656 1.381.21 2.576-3.824 1.761-5.947-.478-1.246.741-1.46 7.566-1.33l8.136.156 3.051 7c8.272 18.981 29.151 42.116 45.319 50.215 2.2 1.102 5.87 2.972 8.155 4.155 4.867 2.52 17.123 6.634 22.845 7.67 2.2.398 4.9.936 6 1.196 5.08 1.2 26.541 1.376 33.461.274 8.234-1.311 26.969-6.636 28.489-8.097.522-.502 1.495-.913 2.16-.913 2.659 0 16.367-8.673 24.317-15.385 13.175-11.123 25.25-27.223 30.675-40.899 1.182-2.978 2.653-4.974 3.898-5.287 1.1-.276 8.75-.373 17-.216l15 .287-.262 3.308c-.677 8.569-14.721 35.469-24.376 46.692-9.004 10.466-11.814 13.43-17.609 18.574-12.871 11.425-29.577 21.587-43.53 26.478-4.278 1.5-7.594 2.911-7.369 3.135.803.804 15.055-4.734 22.45-8.723 26.608-14.352 47.467-35.063 61.4-60.964 4.75-8.83 10.796-24.16 10.796-27.374V281h-35.846l-4.922 10.25c-19.733 41.087-61.334 64.622-107.469 60.797-38.462-3.188-71.471-25.999-87.942-60.773l-4.844-10.227-17.946.004c-9.871.002-18.197.408-18.502.902m16.179 2.672c-.78.78.295 3.375 1.399 3.375 1.143 0 1.168-2.712.032-3.414-.473-.292-1.117-.275-1.431.039m241.959.042c-1.236 1.235-.679 6.114.76 6.667 1.481.568 2.848-.664 3.84-3.462.924-2.609-2.683-5.123-4.6-3.205m1.333 3.392c0 1.132.45 1.781 1 1.441.55-.34 1-1.266 1-2.059 0-.793-.45-1.441-1-1.441s-1 .927-1 2.059m-255.918 5.019c-.164 1.151 5.094 13.266 8.148 18.777 10.369 18.705 25.005 35.485 41.77 47.885 9.015 6.668 22.784 14.81 23.624 13.969.215-.214-2.989-2.149-7.12-4.299-4.13-2.151-8.521-4.701-9.757-5.668-1.236-.968-5.172-3.96-8.747-6.649-14.305-10.763-31.792-30.993-37.467-43.344-.821-1.787-1.95-3.924-2.509-4.749-.558-.825-2.556-4.875-4.438-9-1.882-4.125-3.459-7.24-3.504-6.922m16.585 3.589c-2.405 2.404 1.429 7.128 4.33 5.335 1.115-.689 1.158-1.367.218-3.43-1.125-2.468-3.141-3.313-4.548-1.905m.806 1.377c-.87 1.407 1.599 4.284 2.717 3.166.988-.988.041-4.21-1.238-4.21-.459 0-1.124.47-1.479 1.044m231.567.408c-1.67 2.012-.905 4.95 1.405 5.395 2.643.509 4.782-2.554 3.481-4.985-1.194-2.23-3.233-2.402-4.886-.41m1.16.748c-1.84 1.84-1.428 3.8.8 3.8 1.467 0 2-.667 2-2.5 0-2.73-.936-3.164-2.8-1.3m-227.491 9.424c-.39.39-.702 1.197-.694 1.793.009.595.413.455.899-.313 1.064-1.679 4.449-.661 3.812 1.147-.243.687-1.202 1.183-2.133 1.102-.93-.081-1.519.369-1.309 1 .211.631 1.245 1.147 2.299 1.147 2.852 0 2.736-5.883-.124-6.292-1.123-.161-2.36.027-2.75.416M363.2 310.2c-.66.66-1.2 2.235-1.2 3.5 0 1.759.563 2.3 2.393 2.3 2.633 0 3.978-2.257 3.062-5.141-.675-2.127-2.504-2.41-4.255-.659m.467.467c-.367.366-.667 1.491-.667 2.5 0 2.25 2.556 2.433 3.396.243.972-2.533-.979-4.494-2.729-2.743m-213 9c-.367.366-.667 1.708-.667 2.981 0 1.62.733 2.498 2.443 2.927 4.559 1.144 5.891-1.241 2.557-4.575-2.098-2.098-3.223-2.444-4.333-1.333m.333 2.726c0 1.405 2.876 3.065 3.767 2.174.264-.265.214-1.175-.112-2.024-.738-1.923-3.655-2.042-3.655-.15m204.163-.515c-1.505.954-1.224 5.281.377 5.807 2.115.695 4.733-2.248 4.015-4.511-.725-2.286-2.162-2.71-4.392-1.296m.504.789c-.977.977-.814 4.333.211 4.333.482 0 1.421-.655 2.086-1.456 1.776-2.141-.359-4.815-2.297-2.877m-196 8c-1.329 1.328-.623 4.286 1.264 5.296 1.464.784 2.32.643 3.547-.584 1.489-1.489 1.482-1.765-.086-3.498-1.746-1.93-3.547-2.393-4.725-1.214m.504 1.981c.193 1.006 1.175 1.988 2.181 2.181 1.321.255 1.732-.156 1.477-1.477-.193-1.006-1.175-1.988-2.181-2.181-1.321-.255-1.732.156-1.477 1.477m185.393-.069c-.924.923-1.428 2.333-1.122 3.132.307.799.558 1.641.558 1.871 0 1.068 3.888.258 4.96-1.034 2.948-3.552-1.131-7.234-4.396-3.969m.401.963c-.942 1.135-.985 1.838-.165 2.658 1.325 1.325 4.2-.607 4.2-2.822 0-1.85-2.446-1.75-4.035.164m-176.04 7.048c-2.345 2.825 1.66 6.83 4.485 4.485 1.806-1.499.919-4.756-1.466-5.379-1.029-.269-2.387.133-3.019.894m.075 1.288c0 1.26 2.935 3.52 3.648 2.808 1.024-1.024-.505-3.686-2.117-3.686-.842 0-1.531.395-1.531.878m166.25-.227c-.687.284-1.25.932-1.25 1.441s.88.376 1.955-.296c2.289-1.429 3.56-.581 2.656 1.774-.407 1.063-1.348 1.471-2.623 1.137-1.093-.286-1.988-.082-1.988.453s1.238.83 2.75.656c2.178-.25 2.75-.833 2.75-2.802 0-2.461-1.71-3.412-4.25-2.363M180 350.378c0 3.155 2.623 5.349 4.774 3.993 2.325-1.467 2.538-2.916.699-4.755-2.492-2.492-5.473-2.077-5.473.762m1-.151c0 1.537 1.937 3.773 3.27 3.773.478 0 .725-1.008.55-2.24-.345-2.418-3.82-3.813-3.82-1.533m143.75-.16c-1.86 1.097-2.371 4.431-.825 5.387 1.84 1.137 6.179-1.727 5.871-3.875-.34-2.364-2.504-3.012-5.046-1.512m.354.847c-.786.499-1.12 1.601-.765 2.528.503 1.311 1.04 1.425 2.646.566 1.108-.593 2.015-1.738 2.015-2.543 0-1.638-1.781-1.89-3.896-.551m-129.241 6.412c1.161 1.407 1.131 1.739-.202 2.251-.861.33-2.037.309-2.613-.047-.576-.357-1.048-.224-1.048.294 0 1.28 3.491 2.109 4.988 1.184 1.585-.98.926-4.205-.988-4.838-1.282-.423-1.302-.256-.137 1.156m116.936.653c-1.721 1.407-2.014 2.169-1.164 3.035 1.814 1.848 5.822.784 6.168-1.637.418-2.931-2.225-3.669-5.004-1.398m.201 1.594c0 .932.68 1.442 1.667 1.25 2.509-.486 2.853-2.823.416-2.823-1.228 0-2.083.646-2.083 1.573M204.362 362.5c-.961 2.504.431 4.5 3.138 4.5 3.281 0 4.476-2.814 1.971-4.645-2.427-1.774-4.394-1.719-5.109.145m.825 1.25c.183.962 1.341 1.894 2.573 2.07 2.462.351 2.902-.758 1.04-2.62-1.791-1.791-3.995-1.456-3.613.55m95.563-.668c-.962.56-1.75 1.925-1.75 3.034 0 1.61.554 1.953 2.75 1.7 2.154-.247 2.75-.84 2.75-2.733 0-2.784-1.253-3.453-3.75-2.001m.5.58c-.687.278-1.25 1.175-1.25 1.995 0 2.071 3.393 1.254 3.812-.918.337-1.752-.264-2.004-2.562-1.077m-84.066 5.088c.232 2.023.947 2.839 2.703 3.087 1.313.186 2.744-.24 3.18-.946 1.258-2.035-.884-4.891-3.669-4.891-2.171 0-2.486.391-2.214 2.75m1.386-.863c-.653 1.057 2.213 3.663 3.078 2.799.833-.834-.372-3.686-1.558-3.686-.534 0-1.219.399-1.52.887m67.569.445c-.817.985-.75 1.818.257 3.194 1.291 1.767 1.495 1.776 3.951.166 1.599-1.048 2.369-2.268 2.014-3.194-.713-1.857-4.729-1.964-6.222-.166M287 369.5c0 .833.889 1.5 2 1.5s2-.667 2-1.5-.889-1.5-2-1.5-2 .667-2 1.5m-56.596.889c-.697 1.816.257 3.617 1.905 3.596.719-.01.596-.406-.309-1-1.244-.817-1.268-1.134-.143-1.86.953-.615 1.025-1.08.243-1.563-.613-.379-1.376-.007-1.696.827m42.846-.66c-1.521.533-1.657 3.902-.193 4.806 1.859 1.149 6.101-.477 5.759-2.208-.348-1.764-3.605-3.284-5.566-2.598m-38.372 1.175c.758.48 1.069 1.373.691 1.984-.378.612-.21 1.112.372 1.112s1.059-.9 1.059-2c0-1.244-.662-1.994-1.75-1.985-1.384.012-1.462.198-.372.889m9.789.763c-2.738 2.738 1.794 6.227 5.507 4.24 1.475-.79 1.639-1.389.804-2.949-1.006-1.879-4.922-2.68-6.311-1.291m13.665.911c-.875 2.28 1.993 4.771 4.556 3.957 2.355-.747 2.728-2.519.912-4.335-1.699-1.699-4.752-1.488-5.468.378m14.918-.328c.229.688 1.242 1.25 2.25 1.25s2.021-.562 2.25-1.25c.264-.792-.561-1.25-2.25-1.25s-2.514.458-2.25 1.25m-27.549.382c-1.406 1.406-.642 2.368 1.882 2.368 1.622 0 2.429-.465 2.167-1.25-.481-1.446-3.02-2.147-4.049-1.118m14.027-.027c-1.089 1.089.227 2.395 2.414 2.395 1.175 0 1.85-.525 1.608-1.25-.475-1.428-3.015-2.151-4.022-1.145m-64.691 1.69c.849.968 15.12 6.882 15.556 6.445.215-.215-2.642-1.645-6.351-3.177-8.753-3.616-9.851-4.006-9.205-3.268m92.463 9.228c-2.834.728-3.917 1.293-2.5 1.304 1.375.011 4.3-.574 6.5-1.299 5.105-1.683 2.539-1.686-4-.005m-57 2.477c1.65.42 4.35.765 6 .767 2.522.002 2.363-.129-1-.824-5.066-1.048-9.159-1.001-5 .057m42.5.02c-2.475.424-10.735.79-18.356.815-7.621.024-14.108.296-14.417.604-1.16 1.16 29.52.417 35.773-.866 6.912-1.419 4.575-1.849-3-.553"/><path fill="#f4d918" fill-rule="evenodd" d="M237.5 103.002c-29.535 4.389-56.431 16.847-77.921 36.091-4.627 4.144-6.775 6.353-14.494 14.907-7.512 8.324-19.787 29.272-23.056 39.347-.686 2.115-1.871 5.04-2.632 6.5-.762 1.459-1.387 3.665-1.391 4.903-.006 2.246.028 2.25 17.025 2.25 15.326 0 17.092-.175 17.632-1.75 1.763-5.144 5.723-13.25 6.474-13.25.474 0 .863-.47.863-1.045 0-1.898 9.639-15.354 15.118-21.104C181.13 163.542 193.531 153 194.942 153c.503 0 1.51-.57 2.237-1.267 2.053-1.97 18.307-9.652 24.826-11.735 18.679-5.967 43.733-6.299 64.495-.855 8.185 2.146 29.262 12.63 33.321 16.573.727.706 1.715 1.284 2.196 1.284.481 0 5.149 4.26 10.373 9.467 10.292 10.258 19.278 22.929 23.695 33.41l2.791 6.623 7.964.289 7.963.289-.151-3.289c-.133-2.882.157-3.289 2.348-3.289 2 0 2.5.5 2.5 2.5 0 1.375.45 2.831 1 3.235 1.344.987 12.255.971 12.866-.019 1.153-1.864-10.462-27.63-17.216-38.192-8.987-14.057-26.136-31.732-39.65-40.869-15.3-10.343-33.837-18.358-51.33-22.194-10.927-2.396-37.405-3.484-47.67-1.959m9.167 10.665c-1.233 1.233-.681 4.114.905 4.722 1.987.763 5.428-1.024 5.428-2.817 0-2.051-4.757-3.482-6.333-1.905m14.485.218c-1.834 1.162-1.048 4.511 1.158 4.936 2.809.541 4.846-1.66 3.634-3.926-1.093-2.041-2.648-2.369-4.792-1.01m-28.141 1.602c-1.786 2.152-.484 4.513 2.489 4.513 1.41 0 2.824-.681 3.143-1.513.663-1.727-1.27-4.487-3.143-4.487-.69 0-1.811.669-2.489 1.487m40.989 1.93c0 2.588 1.434 3.534 4.25 2.804 1.05-.273 1.75-1.407 1.75-2.838 0-1.981-.506-2.383-3-2.383-2.506 0-3 .398-3 2.417m-54.333.25c-.367.366-.667 1.746-.667 3.066 0 2.026.427 2.351 2.741 2.083 1.736-.2 2.873-1.006 3.099-2.196.498-2.624-3.322-4.805-5.173-2.953m67.739 1.718c-.898 2.34.415 3.615 3.723 3.615 2.55 0 2.961-.344 2.691-2.25-.39-2.741-5.471-3.822-6.414-1.365m-80.879 3.231c-2.129 2.129-1.471 3.812 1.636 4.185 3.292.394 5.593-2.185 3.837-4.301-1.611-1.941-3.455-1.902-5.473.116m93.83.897c-.814 2.119 1.437 4.487 4.265 4.487 3.292 0 3.399-4.493.128-5.37-3.29-.881-3.752-.788-4.393.883m-107.301 6.382c-1.405 2.625 1.006 4.677 3.762 3.202 2.102-1.125 3.412-3.534 2.446-4.499-1.31-1.311-5.253-.487-6.208 1.297m119.611-1.228c-1.042 1.042-.798 2.06.904 3.762 1.979 1.978 5.038 2.031 5.78.1 1.069-2.788-4.526-6.021-6.684-3.862M182.2 135.2c-2.102 2.102-1.441 4.8 1.178 4.8 3.285 0 5.29-2.491 3.622-4.5-1.503-1.811-3.184-1.916-4.8-.3m143.509.424c-2.251 2.251.305 6.447 3.429 5.63 2.741-.717 2.189-5.636-.679-6.046-1.123-.161-2.36.027-2.75.416m-154.459 8.038c-1.497.604-1.664 3.964-.241 4.844 2.011 1.242 4.991-.593 4.991-3.073 0-2.399-1.66-3.017-4.75-1.771m164.93 2.486c.42 2.818 3.349 4.723 4.892 3.18 1.872-1.872.114-5.328-2.709-5.328-1.992 0-2.437.438-2.183 2.148m-81.186 4.786c-3.829 1.165-8.489 3.753-9.97 5.537-.731.881-2.094 3.948-3.028 6.815-1.444 4.435-2.131 5.29-4.597 5.722-2.768.486-2.928.806-3.55 7.077-.357 3.612-.357 12.833 0 20.491l.651 13.924 9.168.286 9.168.287.841-5.287.841-5.286 6.491-.132c18.091-.368 28.834-9.223 25.061-20.656-1.805-5.468-7.302-9.377-17.881-12.713-5.055-1.594-6.601-3.786-5.225-7.406 1.193-3.135 4.798-4.151 10.028-2.823 4.429 1.124 7.767-.351 6.756-2.985-1.176-3.064-17.77-4.975-24.754-2.851M161.2 153.2c-.66.66-1.2 2.04-1.2 3.066 0 1.447.619 1.796 2.75 1.55 2.16-.248 2.818-.906 3.066-3.066.246-2.131-.103-2.75-1.55-2.75-1.026 0-2.406.54-3.066 1.2m184.984 2.55c.248 2.16.906 2.818 3.066 3.066 2.131.246 2.75-.103 2.75-1.55a4.227 4.227 0 0 0-4.266-4.266c-1.447 0-1.796.619-1.55 2.75m-193.955 7.421c-1.699 1.699-1.54 4.772.284 5.472 2.121.814 4.641-1.564 4.285-4.045-.348-2.426-2.803-3.193-4.569-1.427m203.438.496c-1.381 1.38-.591 4.899 1.374 6.126 2.521 1.575 3.959.793 3.959-2.152 0-3.45-3.357-5.951-5.333-3.974m-212.021 12.577c-.346 1.327.002 2.833.853 3.683 1.252 1.252 1.689 1.213 3.361-.301 2.508-2.269 1.696-5.626-1.36-5.626-1.508 0-2.463.751-2.854 2.244m219.772-.891c-.83 2.163-.111 5.927 1.216 6.363 2.087.687 4.351-2.581 3.46-4.995-.976-2.643-3.862-3.488-4.676-1.368m-108.173 6.956c-1.538 2.031-.909 8.863.921 10.021 2.772 1.753 4.987-.941 4.634-5.635-.228-3.019-.825-4.17-2.477-4.777-1.382-.508-2.506-.365-3.078.391m-118.596 5.924c-.701 2.68.465 4.082 2.995 3.602 1.165-.221 1.974-1.372 2.172-3.094.269-2.328-.052-2.741-2.133-2.741-1.694 0-2.63.689-3.034 2.233m233.233.517c-.141 2.079.177 4.614.638 5.091.916.949 4.48-1.206 4.48-2.708 0-3.557-4.885-5.831-5.118-2.383m-237.893 12.271c-1.306 2.44-.532 3.979 2.003 3.979 1.956 0 3.591-3.247 2.514-4.991-1.03-1.665-3.364-1.143-4.517 1.012m-21.89 12.697c-1.259.96 29.354 1.225 144.092 1.25 96.083.021 145.901-.309 146.309-.968.34-.55.029-1.014-.691-1.03-.72-.017-65.839-.13-144.71-.25-111.462-.171-143.757.051-145 .998M178 242c0 2.491.395 3.874 1 3.5.55-.34 1-1.915 1-3.5s-.45-3.16-1-3.5c-.605-.374-1 1.009-1 3.5m70.025 2.441c-2.126 4.96-2.693 10.559-1.07 10.559.525 0 1.241-1.687 1.591-3.75.35-2.062 1.034-5.3 1.518-7.194 1.322-5.162.252-4.96-2.039.385m86.475-3.676c-2.158 1.586-3.499 5.424-3.485 9.971.021 6.441 1.608 8.736 1.76 2.546.065-2.63.797-6.694 1.627-9.032s1.417-4.243 1.304-4.235c-.113.009-.656.346-1.206.75m-108.398 3.044c-1.664 3.11-2.536 12.805-1.224 13.616.753.465 1.13-.56 1.146-3.116.013-2.095.438-5.596.945-7.781 1.046-4.515.691-5.63-.867-2.719m84.441 1.122c-.683 1.105.894 2.299 1.818 1.375.95-.951.773-2.306-.302-2.306-.518 0-1.2.419-1.516.931m-165.876.736c-1.047 1.047-.779 5.333.333 5.333.55 0 1-1.35 1-3 0-3.107-.204-3.463-1.333-2.333M213 247.832c0 .451 1.125 1.876 2.5 3.168 1.375 1.292 2.5 1.901 2.5 1.355 0-.547-1.125-1.973-2.5-3.168-1.375-1.196-2.5-1.805-2.5-1.355m143.035 3.102c-1.627 3.041-1.307 8.066.514 8.066 1.224 0 1.502-1.053 1.322-5-.126-2.75-.357-5-.515-5-.157 0-.751.87-1.321 1.934m-35.504 5.359c-.428.986-.497 2.074-.155 2.417 1.016 1.015 1.835-.411 1.367-2.382-.414-1.747-.468-1.748-1.212-.035M110 275c0 .55.338 1.026.75 1.058 1.031.08 281.952.086 286 .006 1.788-.035 3.25-.514 3.25-1.064 0-.662-49-1-145-1s-145 .338-145 1m8.494 8.009c-.35.567-.121 2.709.509 4.761 1.84 5.99 8.254 20.519 10.205 23.115.985 1.312 1.795 2.887 1.799 3.5.009 1.585 10.105 16.091 15.739 22.615 8.646 10.012 15.037 15.698 29.786 26.5 9.916 7.262 34.088 17.529 48.547 20.62 14.628 3.126 40.01 3.506 55.199.825 25.656-4.528 50.592-16.584 69.934-33.814 5.831-5.194 8.65-8.169 17.65-18.631 9.655-11.223 23.699-38.123 24.376-46.692l.262-3.308-15-.287c-8.25-.157-15.9-.06-17 .216-1.245.313-2.716 2.309-3.898 5.287-5.425 13.676-17.5 29.776-30.675 40.899-7.95 6.712-21.658 15.385-24.317 15.385-.665 0-1.638.411-2.16.913-1.52 1.461-20.255 6.786-28.489 8.097-7.303 1.163-27.987.904-34.461-.432-1.65-.34-4.35-.886-6-1.212-4.878-.965-17.403-5.198-21.345-7.215-2.01-1.028-5.68-2.898-8.155-4.155-16.821-8.54-37.435-31.259-45.819-50.496l-3.051-7-8.136-.156c-6.825-.13-8.044.084-7.566 1.33.815 2.123-.38 6.157-1.761 5.947-2.669-.406-3.842-1.973-3.455-4.615.403-2.746.381-2.757-5.838-2.892-3.434-.074-6.529.328-6.88.895m256.173 1.658c-1.236 1.235-.679 6.114.76 6.667 1.481.568 2.848-.664 3.84-3.462.924-2.609-2.683-5.123-4.6-3.205m-238 12c-2.405 2.404 1.429 7.128 4.33 5.335 1.115-.689 1.158-1.367.218-3.43-1.125-2.468-3.141-3.313-4.548-1.905m232.373 1.785c-1.67 2.012-.905 4.95 1.405 5.395 2.643.509 4.782-2.554 3.481-4.985-1.194-2.23-3.233-2.402-4.886-.41m-226.453 10.407c-1.105 1.788 1.301 6.309 3.166 5.95 2.744-.528 2.393-6.217-.409-6.616-1.185-.169-2.426.131-2.757.666M363.2 310.2c-.66.66-1.2 2.235-1.2 3.5 0 1.759.563 2.3 2.393 2.3 2.633 0 3.978-2.257 3.062-5.141-.675-2.127-2.504-2.41-4.255-.659m-212.533 9.467c-.367.366-.667 1.708-.667 2.981 0 1.62.733 2.498 2.443 2.927 4.559 1.144 5.891-1.241 2.557-4.575-2.098-2.098-3.223-2.444-4.333-1.333m204.496 2.211c-1.505.954-1.224 5.281.377 5.807 2.115.695 4.733-2.248 4.015-4.511-.725-2.286-2.162-2.71-4.392-1.296m-195.496 8.789c-1.329 1.328-.623 4.286 1.264 5.296 1.464.784 2.32.643 3.547-.584 1.489-1.489 1.482-1.765-.086-3.498-1.746-1.93-3.547-2.393-4.725-1.214m185.897 1.912c-.924.923-1.428 2.333-1.122 3.132.307.799.558 1.641.558 1.871 0 1.068 3.888.258 4.96-1.034 2.948-3.552-1.131-7.234-4.396-3.969m-175.639 8.011c-2.345 2.825 1.66 6.83 4.485 4.485 1.806-1.499.919-4.756-1.466-5.379-1.029-.269-2.387.133-3.019.894m166.325 1.061c-.687.284-1.25 1.633-1.25 2.999 0 2.119.403 2.436 2.75 2.166 2.178-.25 2.75-.833 2.75-2.802 0-2.461-1.71-3.412-4.25-2.363M180 350.378c0 3.155 2.623 5.349 4.774 3.993 2.325-1.467 2.538-2.916.699-4.755-2.492-2.492-5.473-2.077-5.473.762m144.75-.311c-1.86 1.097-2.371 4.431-.825 5.387 1.84 1.137 6.179-1.727 5.871-3.875-.34-2.364-2.504-3.012-5.046-1.512m-132.152 5.668c-1.368 1.368-.506 5.056 1.291 5.526 2.552.667 4.384-.614 3.959-2.768-.358-1.817-4.182-3.826-5.25-2.758m120.201 2.244c-1.721 1.407-2.014 2.169-1.164 3.035 1.814 1.848 5.822.784 6.168-1.637.418-2.931-2.225-3.669-5.004-1.398M204.362 362.5c-.961 2.504.431 4.5 3.138 4.5 3.281 0 4.476-2.814 1.971-4.645-2.427-1.774-4.394-1.719-5.109.145m96.388.582c-.962.56-1.75 1.925-1.75 3.034 0 1.61.554 1.953 2.75 1.7 2.154-.247 2.75-.84 2.75-2.733 0-2.784-1.253-3.453-3.75-2.001m-83.566 5.668c.232 2.023.947 2.839 2.703 3.087 1.313.186 2.744-.24 3.18-.946 1.258-2.035-.884-4.891-3.669-4.891-2.171 0-2.486.391-2.214 2.75m68.955-.418c-.817.985-.75 1.818.257 3.194 1.291 1.767 1.495 1.776 3.951.166 1.599-1.048 2.369-2.268 2.014-3.194-.713-1.857-4.729-1.964-6.222-.166m-55.82 2.28c-.809 2.108.604 3.388 3.74 3.388 2.215 0 2.941-.465 2.941-1.887 0-2.288-5.873-3.608-6.681-1.501m42.931-.883c-1.521.533-1.657 3.902-.193 4.806 1.859 1.149 6.101-.477 5.759-2.208-.348-1.764-3.605-3.284-5.566-2.598m-28.583 1.938c-2.738 2.738 1.794 6.227 5.507 4.24 1.475-.79 1.639-1.389.804-2.949-1.006-1.879-4.922-2.68-6.311-1.291m13.665.911c-.875 2.28 1.993 4.771 4.556 3.957 2.355-.747 2.728-2.519.912-4.335-1.699-1.699-4.752-1.488-5.468.378"/></svg>