<svg xmlns="http://www.w3.org/2000/svg" width="960" height="960" fill="none">
  <g clip-path="url(#a)">
    <g clip-path="url(#b)">
      <path fill="url(#c)" fill-rule="evenodd" d="M552.22 385.814c6.282-31.554 7.778-58.31-2.2-88.887-9.965-30.589-25.05-59.212-40.057-87.653-3.153-5.984-7.233-12.65-13.922-13.65-8.371-1.249-14.775 7.023-19.165 14.268a319151.456 319151.456 0 0 1-32.567 53.871c-3.663 6.059-7.446 12.587-7.1 19.659.304 5.963 3.459 11.131 6.628 16.324 1.456 2.386 2.916 4.778 4.104 7.255a39.314 39.314 0 0 1 3.846 17.126l-.148.1c6.939 10.585 12.587 21.917 18.43 33.642.62 1.245 1.243 2.494 1.87 3.748 13.564 28.809 27.696 57.036 42.014 85.486 11.152-9.94 16.803-16.296 24.135-26.41 7.432-10.225 11.672-22.479 14.132-34.879ZM521.103 257.7a1.855 1.855 0 1 0-3.114 2.016 147.309 147.309 0 0 1 21.748 103.739 1.855 1.855 0 0 0 3.661.595 151.023 151.023 0 0 0-22.295-106.35Z" clip-rule="evenodd"/>
      <path fill="url(#d)" fill-rule="evenodd" d="M353.601 326.131c-3.759-8.408-7.79-16.68-12.167-24.816a256.198 256.198 0 0 0-4.117-7.514c-4.525-8-9.509-15.961-16.593-21.81-7.084-5.849-16.706-9.311-25.606-7.036-10.089 2.597-17.273 12.067-19.956 22.132-2.683 10.065-1.635 20.723-.235 31.035.668 4.924 1.41 9.84 2.226 14.75a460.05 460.05 0 0 0 5.044 25.9c11.644 52.177 32.16 102.389 62.044 146.653 8.383 12.389 20.673 25.346 37.34 22.008 11.358-2.263 19.672-17.421 20.958-27.894 1.162-9.421-1.15-18.88-3.45-28.091-12.288-49.284-24.803-99.125-45.488-145.317Zm-29.289-33.719a1.854 1.854 0 1 0-3.243 1.8 516.746 516.746 0 0 1 60.609 183.958 1.854 1.854 0 1 0 3.677-.48 520.42 520.42 0 0 0-61.043-185.278Z" clip-rule="evenodd"/>
      <path fill="url(#e)" fill-rule="evenodd" d="M577.322 809.128a238.17 238.17 0 0 0 18.113-65.419 263.776 263.776 0 0 0 1.934-22.454c.161-3.66.247-7.307.272-10.967-79.613-7.579-161.922 19.944-220.974 73.852a436.85 436.85 0 0 0 15.69 17.433 465.066 465.066 0 0 0 9.978 10.176l.025.581c9.783-.384 19.583-.742 29.4-1.075l13.341-29.477 21.523-11.919 24.445 9.013.309.013.556-11.647 10.188-23.863 24.148-2.325 25.309 25.31 7.27 28.512 11.116 14.565h.012l.359-.284h.022c2.317 0 4.646 0 6.964.012v-.037Zm9.7-82.39a1.854 1.854 0 1 0-3.707.124 135.105 135.105 0 0 1-12.33 61.062 1.855 1.855 0 0 0 3.368 1.553 138.808 138.808 0 0 0 12.669-62.739Z" clip-rule="evenodd"/>
      <path fill="#171717" fill-rule="evenodd" d="M434.131 564.884a60.259 60.259 0 1 1 .011 120.518 60.259 60.259 0 0 1-.011-120.518Zm25.734 17.945a2.473 2.473 0 0 1 3.456-.535 51.624 51.624 0 0 1 17.482 60.738 2.473 2.473 0 1 1-4.596-1.827 46.679 46.679 0 0 0-15.807-54.92 2.473 2.473 0 0 1-.535-3.456Zm-47.284 7.925a1.237 1.237 0 1 0-2.463-.22l-.851 9.504-6.858-4.33-.65-.41-.655.4-7.855 4.8a1.237 1.237 0 1 0 1.289 2.111l7.2-4.4 7.281 4.598-1.519 16.965-.087.968.92.313 6.007 2.045-3.06 8.417-19.896 5.502-1.154.319.282 1.164 3.491 14.401a1.236 1.236 0 1 0 2.404-.582l-3.209-13.237 19.355-5.353.615-.17.218-.599 3.296-9.065 11.182 3.806-1.379 9.057a1.227 1.227 0 0 0-.076.503l-1.445 9.49a1.235 1.235 0 1 0 2.445.372l1.189-7.809 7.523 5.016.784.522.711-.617 6.545-5.673a1.237 1.237 0 1 0-1.619-1.868l-5.833 5.055-7.7-5.133 1.456-9.566.156-1.023-.98-.333-19.591-6.669.484-5.413 20.582-2.1 1.33-.136-.239-1.315-1.217.221 1.217-.222-.001-.002-.001-.008-.006-.031-.022-.122-.085-.463a871.585 871.585 0 0 0-1.305-6.967c-.758-3.953-1.643-8.386-2.099-9.981a1.236 1.236 0 0 0-2.378.679c.418 1.462 1.279 5.757 2.048 9.768.381 1.987.735 3.88.994 5.276l.181.979-18.774 1.915 1.822-20.349Z" clip-rule="evenodd"/>
      <path fill="url(#f)" d="m728.461 761.711 17.694 50.533a3933.13 3933.13 0 0 0-47.121-1.534l-14.5-19.622 6.689-18.62-12.8-18.324 10.522-2.436L713.624 746l14.837 15.711Z"/>
      <path fill="#171717" d="m684.531 791.088 14.5 19.622a4516.24 4516.24 0 0 0-42.149-.877l.581-36.487 20.957-19.2 12.8 18.324-6.689 18.618Zm4.797 91.496 5.997 15.43-23.603-.445.296-14.552 21.823-16.284-4.513 15.851ZM644.089 768.4l5.205 41.309c-2.361-.037-4.735-.062-7.1-.087l.223-12.352-19.2-14.4-5.675-22.688-22.108-16.47a263.508 263.508 0 0 0 1.929-22.453l.173.012 17.465-22.408 18.039 23.863-2.04 26.472 13.089 19.202Z"/>
      <path fill="#171717" d="m617.542 760.178-11.561 16.8 3.919 22.255-2.608 9.818v.222c-9.99-.062-19.981-.099-29.971-.111v-.037a238.17 238.17 0 0 0 18.113-65.419l22.108 16.472ZM589.4 830.654l10.175 24.729-4.945 20.079.061.309-14.9 3.178s-16.58-1.459-18.323-1.459c-1.743 0 8.729-28.215 8.729-28.215l10.757-1.459 8.446-17.162Z"/>
      <path fill="url(#g)" d="m557.847 820.107 4.278 6.838-17.891 4.142-12.439-16.136-15.925-11.573 18.102-6.54 12.871 5.675 11.004 17.594Z"/>
      <path fill="#171717" d="m531.795 814.951 12.439 16.136-39.059-4.798 1.867-4.006 8.828-18.905 15.925 11.573Z"/>
      <path fill="url(#h)" d="m514.337 887.962 12.216 27.931-52.363 4.08 12.513-20.66-8.445-11.054 3.499-17.458 19.486 17.161h13.094Z"/>
      <path fill="#171717" d="m502.121 743.375 12.797 20.364-5.823 28.808-20.945 31.418-20.364-8.729 23.282-29.674.309-6.677.556-11.647 10.188-23.863Zm-23.863 144.884 8.445 11.054-12.513 20.66s-24.444-10.473-25.309-11.053l20.364-32.877 12.512-5.242-3.499 17.458Zm-15.752-52.684 10.374 13.551-3.944 9.595-26.818-1.014 5.675-18.757 14.713-3.375Zm6.442-37.216-20.364 18.336-17.446-4.08.618-1.36 13.341-29.477 21.526-11.919-8.729 17.446 11.054 11.054Zm-54.835 103.427 1.001 11.845-12.278-1.373-8.074-1.088 4.588-8.507 9.817-10.917 4.946 10.04Zm-34.843-88.801.012.285c-15.8.68-31.581 1.434-47.342 2.262l-.013-.148.433-12.438 3.314-5.292 7.567-12.117 3.3-5.28 6.986 15.493 18.769 7.418 6.974 9.817Zm-8.247 27.227 2.967 7.591-11.622-.222.136-7.159 10.745-8.025-2.226 7.815Z"/>
      <path fill="#171717" d="m319.34 770.564 2.547-15.406 10.918 22.045 10.028 8.074.408.26-7.567 12.117-.26-.161-18.324-13.316 1.187-7.147.618-3.746.445-2.72Z"/>
      <path fill="url(#i)" d="m327.785 715.456-41.024 7.419-2.832 32.283-19.424 12.442v37.291L251.523 791.5l.111-.111 8.3-62.4s21.378-15.283 22.689-15.715c1.311-.432 6.108-30.107 6.108-30.107s-27.5-30.552-28.364-31.863l26.175-18.324h.012c11.895 27.671 24.976 54.848 40.246 80.825.318.551.651 1.107.985 1.651Z"/>
      <path fill="url(#j)" d="m310.104 862.949 17.459 18.324-10.04 10.473h-23.888l-.977-12.216-14.837-10.473 32.283-6.108Z"/>
      <path fill="#171717" d="m326.475 815.384.024.433a4235.874 4235.874 0 0 0-37.117 2.126l.655-7.579 9.6-22.688 13.094 11.56 10.9 3.054 2.844 13.094Z"/>
      <path fill="#171717" d="M264.505 804.887V767.6l19.424-12.438 2.832-32.283L299.422 746l-1.534 25.742 8.074 10.04.2.235-6.528 5.663-9.6 22.688-.655 7.58c-8.297.507-16.59 1.041-24.877 1.6l.003-14.661Zm28.153 74.643.977 12.216h-14.948l-11.783-4.798 10.917-17.891 14.837 10.473Zm-3.931-196.369s-4.8 29.674-6.108 30.107c-1.308.433-22.689 15.715-22.689 15.715l-8.3 62.4-.111.111-7.308-7.529-11.7 5.415-.087-.185 9.595-61.525 29.241-25.755-10.9-50.619c.868 1.313 28.367 31.865 28.367 31.865Z"/>
      <path fill="url(#k)" d="M253.81 552.681c-18.151 1.2-111.8-22.318-134.4-91.211-9.161-27.919-22.836-58.916-28.079-87.6-.939-5.144-1.756-10.7.52-15.394 3.61-7.455 13.18-9.508 21.451-10.027 20.092-1.249 36.438 6.751 55.64 12.834 9.038 2.869 22.033 6.9 27.461 14.664 5.836 8.346 6.046 19.214 6.961 29.353.915 10.139-.309 21.291 8.074 27.078l.568-.075c1.843 13.5 6.182 26.72 11 39.356 4.376 11.461 9.025 22.824 13.588 34.212a1253.45 1253.45 0 0 1 6.33 16.024 6112.619 6112.619 0 0 1 11.647 30.5l-.761.286Z"/>
      <path fill="#171717" d="m214.541 797.7 10.188 24.716a3201.68 3201.68 0 0 0-30.23 2.448l20.042-27.164Zm-24.877 27.5.013.087c-7.419.644-14.837 1.31-22.256 2l1.731-25.223L185.3 774.36l1.965 25.309 2.399 25.531Z"/>
      <path stroke="#171717" stroke-linecap="round" stroke-miterlimit="10" stroke-width="3.709" d="M276.648 332.956c-30.045 18.509-63.256 42.879-65.432 81.319a90.03 90.03 0 0 0 .235 13.045c.148 1.669.334 3.326.556 4.982 1.843 13.5 6.182 26.719 11 39.356 4.376 11.461 9.025 22.824 13.588 34.212a1253.45 1253.45 0 0 1 6.33 16.024 6212.465 6212.465 0 0 1 11.647 30.5 4788.28 4788.28 0 0 0 13.8 35.968 1841.352 1841.352 0 0 0 12.488 31.133 1162.46 1162.46 0 0 0 5.687 13.477c11.895 27.672 24.976 54.848 40.246 80.825.322.557.655 1.113.989 1.657a512.894 512.894 0 0 0 17.953 28.216 481.815 481.815 0 0 0 22.305 30.057 395.811 395.811 0 0 0 8.618 10.411 430.75 430.75 0 0 0 15.69 17.433 498.531 498.531 0 0 0 9.978 10.176m174.995-2.619a238.17 238.17 0 0 0 18.113-65.419 262.718 262.718 0 0 0 1.929-22.454c.161-3.66.247-7.307.272-10.967 0-3.2-.041-6.406-.123-9.619a333.21 333.21 0 0 0-4.9-47.553c-6.763-39.183-19.795-78.006-35.361-115.1-7.394-17.607-15.357-34.83-23.493-51.522-4.6-9.211-9.2-18.365-13.8-27.461-2-3.994-4.003-7.971-6.009-11.932-14.318-28.45-28.45-56.677-42.014-85.486-6.528-13.057-12.624-25.681-20.3-37.39a106.876 106.876 0 0 0-1.657-2.46 122.061 122.061 0 0 0-17.606-20.735c-25.965-23.492-63.046-9.891-90.94.284h-.012m228.915 507.839c2.324 0 4.661 0 6.986.012 9.99.012 19.98.049 29.971.111 11.634.074 23.267.19 34.9.346 2.361.025 4.735.05 7.1.087 2.535.037 5.069.074 7.592.124 14.058.222 28.108.515 42.149.878 15.703.42 31.41.931 47.121 1.533 46.786 1.83 93.572 4.624 140.458 8.778m-813.16 16.346a3165.847 3165.847 0 0 1 93.969-10.077c7.418-.705 14.837-1.372 22.256-2 1.607-.148 3.214-.284 4.822-.421a3073.718 3073.718 0 0 1 30.23-2.448 4039.654 4039.654 0 0 1 39.776-2.881c8.296-.556 16.588-1.087 24.877-1.594a4013.86 4013.86 0 0 1 37.117-2.127c1.818-.1 3.623-.2 5.441-.284a4978.531 4978.531 0 0 1 47.342-2.263c7.679-.322 15.37-.635 23.072-.94 9.78-.383 19.58-.741 29.4-1.075"/>
      <path stroke="#171717" stroke-linecap="round" stroke-miterlimit="10" stroke-width="3.709" d="M513.521 447.486c.148-.124.284-.26.433-.384 11.152-9.94 16.8-16.3 24.135-26.41 7.431-10.225 11.672-22.478 14.132-34.879 6.281-31.554 7.777-58.31-2.2-88.887-9.977-30.577-25.05-59.212-40.06-87.65-3.153-5.984-7.233-12.649-13.922-13.65-8.371-1.249-14.775 7.023-19.165 14.268a144623.803 144623.803 0 0 1-32.567 53.871c-3.66 6.059-7.443 12.587-7.1 19.659.445 8.705 6.961 15.715 10.732 23.579a39.301 39.301 0 0 1 3.845 17.125M211.438 432.377c-8.383-5.787-7.159-16.939-8.074-27.078s-1.125-21.007-6.961-29.353c-5.428-7.765-18.423-11.8-27.461-14.664-19.2-6.083-35.548-14.083-55.639-12.834-8.272.519-17.842 2.572-21.452 10.027-2.276 4.7-1.459 10.25-.52 15.394 5.243 28.685 18.918 59.682 28.079 87.6 22.6 68.893 116.249 92.41 134.4 91.211m28.39-193.908c11.647 52.177 32.16 102.389 62.044 146.653 8.383 12.389 20.673 25.346 37.34 22.008 11.363-2.263 19.672-17.421 20.958-27.894 1.162-9.421-1.15-18.88-3.45-28.091-12.29-49.284-24.8-99.125-45.488-145.318-3.759-8.407-7.79-16.679-12.167-24.815a260.279 260.279 0 0 0-4.117-7.517c-4.525-8-9.5-15.975-16.593-21.811s-16.7-9.31-25.606-7.035c-10.089 2.6-17.273 12.068-19.956 22.132-2.683 10.064-1.632 20.723-.235 31.034a496.183 496.183 0 0 0 2.226 14.751 459.56 459.56 0 0 0 5.044 25.903Zm71.86-32.839a176.728 176.728 0 0 1 95.4-3.808"/>
      <path stroke="#171717" stroke-linecap="round" stroke-miterlimit="10" stroke-width="3.709" d="M211.5 427.32c20.575-24.9 41.594-49.631 70.13-68.424m94.475 425.751c.185-.174.371-.334.556-.507 59.052-53.908 141.361-81.431 220.974-73.852.087.012.161.012.247.025m-103.488-85.178a60.255 60.255 0 0 1-37.192 55.676 60.256 60.256 0 0 1-82.165-43.907 60.267 60.267 0 0 1 3.425-34.816 60.264 60.264 0 0 1 55.668-37.204 60.26 60.26 0 0 1 60.264 60.251Z"/>
      <path stroke="#171717" stroke-linecap="round" stroke-miterlimit="10" stroke-width="3.709" d="M506.869 625.135a72.73 72.73 0 0 1-86.916 71.344 72.732 72.732 0 0 1-26.23-131.809 72.73 72.73 0 0 1 68.242-6.728 72.736 72.736 0 0 1 44.904 67.193v0Zm12.711-165.916a90.8 90.8 0 0 0-56.505 16.556m0 0a632.758 632.758 0 0 0 36.994 76.807c0 .012.012.012.012.025"/>
      <path stroke="#171717" stroke-linecap="round" stroke-miterlimit="10" stroke-width="3.709" d="m499.735 552.767.334-.185a111.252 111.252 0 0 1 57.024-14.5m-288.879 50.529c.05-.086.1-.16.161-.247 7.95-13.18 24.16-27.745 39.046-31.739.161-.037.322-.087.483-.124m-.532-.061c-13.23-25.125-23.616-53.13-36.833-78.266-.05-.087-.087-.173-.136-.26"/>
      <path stroke="#171717" stroke-linecap="round" stroke-miterlimit="10" stroke-width="3.709" d="m270.835 478.063-.3.111c-12.426 4.612-26.93 15.826-33.235 27.411m355.575 147.568-.26-.037a95.375 95.375 0 0 0-35.263 1.867c-.235.049-.47.1-.7.16m40.142 45.55a98.645 98.645 0 0 0-36.635-.086"/>
      <path stroke="#171717" stroke-linecap="round" stroke-miterlimit="10" stroke-width="3.709" d="M559.355 700.607a419.7 419.7 0 0 1-2-45.624v-.183m-54.764-108.24c-.148-.445-.3-.877-.433-1.31m-33.371-68.609c.015.026.032.05.05.074.024.025.037.049.061.074m1.262 1.78a179.02 179.02 0 0 0-1.323-1.854m92.274 183.733a91.051 91.051 0 0 0-.358-1.756M299.582 553.138c-.445-.865-.432-.84-.877-1.718m-30.639-65.655c-.433-1.013-.359-.976-.791-1.99m100.867 289.929-.099.025-21.501 6.528-3.301 5.28-7.567 12.117-3.314 5.292-.433 12.438m13.96-71.787-.149.074-23.851 11.487-2.547 15.406-.445 2.72-.618 3.746-1.187 7.147 18.324 13.316"/>
      <path stroke="#171717" stroke-linecap="round" stroke-miterlimit="10" stroke-width="3.709" d="m319.489 770.44-.149.124-13.18 11.449-6.528 5.663-9.595 22.688-.655 7.58v.061m38.403-102.549-41.024 7.419-2.832 32.283-19.424 12.438v52.153"/>
      <path stroke="#171717" stroke-linecap="round" stroke-miterlimit="10" stroke-width="3.709" d="m224.791 822.58-.062-.161-10.188-24.716 7.963-3.684 10.015-4.637 11.696-5.415 7.308 7.529 12.982 13.391.223.235m-50.187-7.419-20.042 27.165-.248.333"/>
      <path stroke="#171717" stroke-linecap="round" stroke-miterlimit="10" stroke-width="3.709" d="m222.392 793.784-12.648-20.735-24.444 1.311-16.148 27.708-1.731 25.223-.013.086"/>
      <path stroke="#171717" stroke-linecap="round" stroke-miterlimit="10" stroke-width="3.709" d="m189.664 825.201-2.399-25.532-1.965-25.309m114.332 13.316 13.094 11.56 10.905 3.054 2.844 13.094m-4.588-60.226 10.918 22.045 10.028 8.074m3.709-5.02 6.986 15.493 18.769 7.418 6.973 9.817m-92.509-90.11 12.661 23.121-1.534 25.742 8.074 10.04m289.324-38.181.148.112 22.108 16.469 5.675 22.688 19.201 14.405-.222 12.351v.087"/>
      <path stroke="#171717" stroke-linecap="round" stroke-miterlimit="10" stroke-width="3.709" d="m617.542 760.178-11.561 16.803 3.919 22.255-2.608 9.818m49.593.952v-.173l.581-36.487 20.957-19.202 10.522-2.436 24.679-5.712 14.837 15.715 17.694 50.533.333.952"/>
      <path stroke="#171717" stroke-linecap="round" stroke-miterlimit="10" stroke-width="3.709" d="m678.423 754.144 12.797 18.324-6.689 18.62 14.503 19.622.334.458m-10.472-59.645-9.892-29.959-25.606-9.891-9.31-14.553-29.093 1.743-17.459 22.404"/>
      <path stroke="#171717" stroke-linecap="round" stroke-miterlimit="10" stroke-width="3.709" d="m614.995 698.863 18.039 23.863-2.04 26.472 13.094 19.202 5.205 41.309.037.297M481.757 870.8l-12.512 5.242-20.364 32.878c.865.581 25.309 11.053 25.309 11.053l52.363-4.08-12.216-27.931h-13.094L481.757 870.8Z"/>
      <path stroke="#171717" stroke-linecap="round" stroke-miterlimit="10" stroke-width="3.709" d="m481.757 870.801-3.499 17.458 8.445 11.054-12.513 20.66m16.878-134.411-23.282 29.674 20.364 8.729 18.769-1.743"/>
      <path stroke="#171717" stroke-linecap="round" stroke-miterlimit="10" stroke-width="3.709" d="m502.121 743.375 12.797 20.364-5.823 28.808-20.945 31.418m2.918-45.092-24.445-9.014-21.526 11.919-13.341 29.477-.618 1.36 17.446 4.08 19.202-1.459"/>
      <path stroke="#171717" stroke-linecap="round" stroke-miterlimit="10" stroke-width="3.709" d="m466.623 769.859-8.729 17.446 11.054 11.054-20.364 18.336m95.65 14.392 17.891-4.142-4.278-6.838-11.004-17.594-12.871-5.675-18.102 6.54-8.828 18.905-1.867 4.006 39.059 4.798Z"/>
      <path stroke="#171717" stroke-linecap="round" stroke-miterlimit="10" stroke-width="3.709" d="m515.87 803.378 15.925 11.573 12.439 16.136m45.166-.433 33.16 5.527 18.324 32.295-27.053 3.2-16.79 3.585-2.35.507-14.9 3.178s-16.58-1.459-18.323-1.459c-1.743 0 8.729-28.215 8.729-28.215l10.757-1.459 8.446-17.159Z"/>
      <path stroke="#171717" stroke-linecap="round" stroke-miterlimit="10" stroke-width="3.709" d="m589.401 830.654 10.175 24.729-4.945 20.079m-185.464 16.284-9.817 10.917-4.588 8.507 8.074 1.088 12.278 1.373 19.152 2.126 4.575-8.952-6.331-16.147-23.343 1.088Zm284.674-25.013-21.823 16.284-.296 14.552 23.603.445 37.204.718 6.986-4.946-6.405-9.31-39.269-17.743Zm-416.02 2.324-10.917 17.891 11.783 4.798h38.836l10.04-10.473-17.459-18.324-32.283 6.108Zm279.717-48.876.309-.074 17.001-4.29-4.872-6.38h-.012l-11.116-14.565-7.27-28.512-25.309-25.31-24.148 2.325-10.188 23.863-.556 11.647-.309 6.677m71.997-88.875a55.693 55.693 0 0 0-.433-1.31m-276.093-62.403-26.175 18.324 10.905 50.619-29.241 25.755-9.595 61.525"/>
      <path stroke="#171717" stroke-linecap="round" stroke-miterlimit="10" stroke-width="3.709" d="M260.363 651.3c.865 1.311 28.364 31.863 28.364 31.863s-4.8 29.674-6.108 30.107c-1.308.433-22.689 15.715-22.689 15.715l-8.3 62.4m210.876 44.19-14.713 3.375-5.675 18.757 26.818 1.014 13.761.519 8.074-5.02v-12.438l-17.236-8.729-11.029 2.522Z"/>
      <path stroke="#171717" stroke-linecap="round" stroke-miterlimit="10" stroke-width="3.709" d="m462.407 835.451.099.124 10.374 13.551-3.944 9.595-.124.297m-95.563-26.621-10.745 8.025-.136 7.159 11.622.222 18.312.359 3.437-2.436-3.153-4.587-19.337-8.742Z"/>
      <path stroke="#171717" stroke-linecap="round" stroke-miterlimit="10" stroke-width="3.709" d="m373.249 832.397-2.226 7.815 2.967 7.591.05.136m-96.219 21.118 14.837 10.473.977 12.216m400.206-25.013-4.513 15.851 5.997 15.43.111.285m-286.269-6.553 4.946 10.04 1.001 11.845.012.086"/>
      <path fill="#171717" d="m623.517 39.973-3.512 3.65c-1.153 1.233-2.384 2.39-3.448 3.7l-3.289 3.842c-.541.645-1.11 1.266-1.628 1.931l-1.532 2.01a157.835 157.835 0 0 0-30.859 70.257 152.598 152.598 0 0 0-1.661 38.294 177.043 177.043 0 0 0 7.757 37.432 221.207 221.207 0 0 0 14.96 35.243 376.577 376.577 0 0 0 19.568 33.1c14.146 21.5 29.8 42.021 45.01 63.24 11.571 19.617 22.28 39.866 30.667 61.007 8.353 21.093 14.391 43.23 15.537 65.486a156.49 156.49 0 0 1 2.32 16.585c.436 5.618.536 11.257.3 16.887a137.383 137.383 0 0 1-6 33.653l-.862.5c-.554.325-1.357.806-2.418 1.391-2.12 1.173-4.965 2.888-8.347 4.863-6.743 4.008-15.393 8.965-22.957 14.912-7.57 5.975-14.176 13.131-16.681 22.382-2.491 9.225-.855 20.567 8.633 34.075 4.76 6.741 6.726 13.421 6.733 19.816a29.982 29.982 0 0 1-.388 4.759 33.172 33.172 0 0 1-.982 4.581 43.63 43.63 0 0 1-3.725 8.828c-6.332 11.52-17.551 21.861-28.842 32.577-5.586 5.364-11.327 10.846-16.456 16.514a142.779 142.779 0 0 0-13.352 17c-.9 1.374-1.837 2.722-2.635 4.031a3519.25 3519.25 0 0 1-2.17 3.8c-.694 1.239-1.341 2.394-1.943 3.465-.565 1.089-1.021 2.1-1.472 3.032l-2.816 6a114.994 114.994 0 0 1-7.379-30.571 155.129 155.129 0 0 1 .188-32.365c.21-2.024.558-4.032 1.043-6.009a78.714 78.714 0 0 1 2.488-8.515 165.594 165.594 0 0 1 9.466-22 268.924 268.924 0 0 1 14.548-24.937 221.52 221.52 0 0 1 4.175-6.286c1.418-2.09 2.854-4.2 4.254-6.172 2.827-4.048 5.655-7.991 8.438-11.867 11.2-15.443 21.078-29.391 27.27-39.7a205.685 205.685 0 0 0 6.98-12.274 53.74 53.74 0 0 0 1.724-3.381l.577-1.187a122.677 122.677 0 0 0 9.323-17.421c.32-.737.687-1.472.978-2.214l.837-2.23c.538-1.493 1.207-2.972 1.638-4.5.473-1.521 1.017-3.037 1.394-4.6.42-1.551.865-3.106 1.181-4.7a120.343 120.343 0 0 0 1.712-40.592 201.243 201.243 0 0 0-10.564-43.246 359.547 359.547 0 0 0-18.862-43.064 560.804 560.804 0 0 0-11.073-18.4l-5.83-9.19-5.915-9.24c-7.914-12.344-15.906-24.807-23.546-37.607a440.907 440.907 0 0 1-21.315-39.632 249.185 249.185 0 0 1-15.617-42.7 180.54 180.54 0 0 1-5.885-45.217c-.058-1.9.065-3.807.16-5.707s.176-3.8.3-5.692l.607-5.659.3-2.824.453-2.8.924-5.595c.348-1.856.8-3.692 1.2-5.535.733-3.7 1.853-7.306 2.852-10.929.461-1.823 1.17-3.575 1.744-5.36.626-1.771 1.161-3.568 1.864-5.309 1.436-3.468 2.692-7 4.358-10.354l2.377-5.076 2.637-4.942 1.318-2.465c.455-.812.958-1.6 1.436-2.4l2.894-4.775c8-12.49 17.706-23.801 28.838-33.604ZM401 812.521l-10.082-4.868c-3.357-1.635-6.634-3.425-9.957-5.131a440.621 440.621 0 0 1-37.127-22.176 432.192 432.192 0 0 1-95.759-87.7 278.912 278.912 0 0 1-25.132-35.878c-7.327-12.76-13.364-26.607-16.349-41.49a95.855 95.855 0 0 1-1.9-22.722c.011-1.909.13-3.815.354-5.711l.266-2.852c.066-.952.181-1.9.345-2.84a112.485 112.485 0 0 1 2.238-11.193c3.6-14.817 10.162-28.515 17.583-41.368 14.907-21.177 32.674-39.115 49.158-57.874 16.478-18.816 32.123-38.536 44.934-60.454a210.623 210.623 0 0 0 11.3-36.121 162.252 162.252 0 0 0 2.761-18.521 130.69 130.69 0 0 0 .425-18.508s.255-.279.736-.81a37.15 37.15 0 0 0 1.951-2.361 104.194 104.194 0 0 0 2.825-3.85c1.044-1.527 2.1-3.294 3.251-5.3a72.687 72.687 0 0 0 3.279-6.664 79.232 79.232 0 0 0 2.84-7.881c.46-1.415.821-2.846 1.141-4.308.32-1.462.635-2.968.91-4.5a74.17 74.17 0 0 0 .953-9.347c.466-12.678-2.782-25.326-10.427-33.757-7.684-8.482-19.693-12.834-37.906-10.768-9.106 1.029-16.695-.553-23.028-4.39-6.332-3.778-11.431-9.973-15.318-17.953a75.6 75.6 0 0 1-2.679-6.358 76.115 76.115 0 0 1-2.22-7.347 89.976 89.976 0 0 1-2.415-15.923 105.994 105.994 0 0 1 3.441-33.81 98.076 98.076 0 0 1 13.645-30.234 79.25 79.25 0 0 1 9.438-11.353 67.058 67.058 0 0 1 9.851-7.986 51.276 51.276 0 0 1 16.142-7.028 37.864 37.864 0 0 1 4.581-.822l1.6-.183a50.537 50.537 0 0 0-6.011 24.037 73.53 73.53 0 0 0 4.062 23.553c.874 2.161 1.608 5.864 2.7 10.8 1.092 4.936 2.519 11.1 4.688 17.988 1.077 3.44 2.322 7.05 3.752 10.732.361.92.712 1.851 1.107 2.773.395.922.747 1.837 1.216 2.894.913 2.057 1.727 4.095 2.721 6.242 3.792 8.5 8.276 17.678 12.873 27.245 4.597 9.567 9.273 19.538 13.326 29.471a247.53 247.53 0 0 1 9.846 28.651l1.621 6.418c.5 2.045.857 4.072 1.244 5.928.8 3.7 1.24 7.065 1.635 9.8.19 1.371.375 2.59.5 3.656l.256 2.719c.132 1.475.2 2.258.2 2.258a164.713 164.713 0 0 1-3.174 34.073 183.599 183.599 0 0 1-9.2 31.506 230.38 230.38 0 0 1-13.377 28.322 295.565 295.565 0 0 1-16.055 25.43 454.77 454.77 0 0 1-36.326 44.674c-6.292 6.934-12.817 13.754-19.012 20.22-6.217 6.514-12.266 12.976-18.04 19.543a258.39 258.39 0 0 0-13.613 18.633 153.267 153.267 0 0 0-11.081 19.39c-.741 1.661-1.608 3.3-2.265 4.984l-1.993 5.045c-.635 1.688-1.1 3.4-1.674 5.1-.256.854-.591 1.7-.789 2.564l-.616 2.586a99.734 99.734 0 0 0-1.963 10.425c-.218 3.5-.632 7.025-.511 10.551.135 14.145 4.282 28.656 10.642 42.56 6.369 13.941 14.83 27.351 24.09 40.395A423.601 423.601 0 0 0 401 812.521Z"/>
      <path fill="#171717" d="M613.986 411.307a70.142 70.142 0 0 0 2.652 13.149 82.757 82.757 0 0 0 4.8 12.5c3.828 7.976 8.309 15.44 12.326 22.974a124.407 124.407 0 0 1 7.594 15.5 59.817 59.817 0 0 1 4.031 16.219 53.462 53.462 0 0 1-.417 17.414 79.697 79.697 0 0 1-5.416 17.156c-4.622 8.757-10.511 16.756-16.734 24.544-5.516 7.195-11.276 14.283-16.552 21.809a130.554 130.554 0 0 0-7.52 16.3 65.444 65.444 0 0 0-7.971 16.164 93.777 93.777 0 0 0-1.593 11.741 114.402 114.402 0 0 0-.125 11.8c.188 3.927.568 7.836 1.1 11.726a147.738 147.738 0 0 0 2.177 11.562 121.139 121.139 0 0 1-.723-30.175c1.073-9.884 3.6-19.615 8.247-27.847a115.348 115.348 0 0 1 10.713-18.257c4.1-5.855 8.577-11.533 13.06-17.286 5.807-7.877 11.683-15.962 16.445-24.773 4.758-8.766 8.561-18.262 9.956-28.281a59.22 59.22 0 0 0 .147-9.822 54.574 54.574 0 0 0-1.657-9.579 73.4 73.4 0 0 0-7.433-17.578c-4.288-11.485-10.477-22.413-14.96-33.668a71.63 71.63 0 0 1-8.839-27.722 41.661 41.661 0 0 1 1.163-14.535 29.755 29.755 0 0 1 7.137-12.766 30.914 30.914 0 0 0-9.073 12.888 45.622 45.622 0 0 0-2.794 16.008M151.549 377.78a90.46 90.46 0 0 0-5.444 15.705 73.375 73.375 0 0 0-1.976 16.719 59.712 59.712 0 0 0 2.344 16.9 47.968 47.968 0 0 0 7.691 15.639 59.05 59.05 0 0 0 8.192 8.477c2.876 2.5 5.8 4.806 8.633 7.081 2.833 2.275 5.581 4.53 8.033 6.911a32.927 32.927 0 0 1 6.082 7.563 17.122 17.122 0 0 1 2.856 8.78 20.652 20.652 0 0 1-2.238 9.531c-3.016 6.386-8.253 12.2-12.183 18.989a43.503 43.503 0 0 0-7.11 17.859 53.277 53.277 0 0 0 .507 19.256 70.918 70.918 0 0 0 15.794 30.793 70.658 70.658 0 0 0 8.917 6.962 80.114 80.114 0 0 0 9.741 5.354c5.85 4.612 12.165 8.6 18.843 11.901 4.569 1.724 9.256 3.034 13.941 4.308 4.708 1.167 9.435 2.251 14.189 3.11 9.5 1.8 19.051 3.034 28.561 4.273-12.167-2.664-24.4-5.394-36.211-9.16-11.777-3.8-23.2-8.6-33.079-15.293-.972-.477-1.861-1.086-2.8-1.621-.915-.565-1.87-1.073-2.753-1.684-1.756-1.223-3.609-2.377-5.243-3.68a63.971 63.971 0 0 1-9.191-8.725 66.141 66.141 0 0 1-12.655-21.868 52.28 52.28 0 0 1-3.383-16.492 39.754 39.754 0 0 1 6.589-23.911c1.576-2.419 3.377-4.793 5.2-7.224 1.823-2.431 3.687-4.928 5.361-7.636a34.203 34.203 0 0 0 4.035-8.866 22.394 22.394 0 0 0-.622-12.73 27.644 27.644 0 0 0-6.8-10.189c-5.733-5.651-12.518-9.675-18.932-14.378a70.212 70.212 0 0 1-7.61-8.634 41.585 41.585 0 0 1-5.295-9.978 51.794 51.794 0 0 1-2.9-21.751 66.826 66.826 0 0 1 .111-8.916 69.081 69.081 0 0 1 1.341-8.879 93.427 93.427 0 0 1 5.705-17.285c4.887-11.247 11.5-21.791 18.11-32.281-8.175 10.1-16.391 20.253-22.949 31.893m231.31-296.818a58.482 58.482 0 0 0 2.126 10.2 73.22 73.22 0 0 0 3.8 9.668c3.085 6.217 6.734 11.882 10.112 17.63 4.769 7.713 9.227 15.606 10.868 24.108 2.395 8.652 1.133 18.166-2.085 27a130.815 130.815 0 0 1-11.6 19.949c-3.83 5.918-7.775 11.843-11.122 18.179a73.959 73.959 0 0 0-3.919 13.381 43.189 43.189 0 0 0-3.715 13.514 43.355 43.355 0 0 0 1.176 9.236 37.909 37.909 0 0 0 3.386 8.715 26.393 26.393 0 0 0 13.891 12.406 24.143 24.143 0 0 1-9.3-7.631 30.539 30.539 0 0 1-4.921-10.5 37.74 37.74 0 0 1 1.009-22.109c2.589-10.482 8.532-20.007 14.635-29.428a191.207 191.207 0 0 0 11.268-20.092c3.229-7.029 5.689-14.628 6.024-22.5a43.253 43.253 0 0 0-2.724-14.87 70.477 70.477 0 0 0-6.841-13.161c-3.85-8.7-8.914-17.041-12.5-25.676a56.55 56.55 0 0 1-7.016-21.47 31.75 31.75 0 0 1 .836-11.284 23.567 23.567 0 0 1 5.493-9.94 24.046 24.046 0 0 0-7.009 10.036 35.171 35.171 0 0 0-2.1 12.446M225.487 210.143a34.88 34.88 0 0 0 4.45 10.915c2 3.327 4.192 6.458 6.052 9.693 2.656 4.333 4.649 9.036 4.43 13.895.148 5.073-1.91 10.182-4.207 15.045a119.12 119.12 0 0 0-6.29 11.771 30.396 30.396 0 0 0-2.3 12.076c.34 2.64.999 5.229 1.963 7.709a35.998 35.998 0 0 0 2.009 7.7 32.363 32.363 0 0 0 14.846 14.369 30.557 30.557 0 0 1-9.826-8.987 31.948 31.948 0 0 1-5.184-11.773 29.56 29.56 0 0 1-.16-18.055c2.347-7.968 7.954-15.047 10.394-23.64.686-2.809.832-5.723.428-8.587a23.44 23.44 0 0 0-2.841-7.909c-1.857-5.083-4.906-9.758-7.353-14.538a31.948 31.948 0 0 1-5.164-11.779 17.68 17.68 0 0 1-.13-6.429 12.215 12.215 0 0 1 2.714-5.84 12.763 12.763 0 0 0-3.566 5.972 19.522 19.522 0 0 0-.525 7.167"/>
      <path stroke="#171717" stroke-linecap="round" stroke-linejoin="round" stroke-width="3.709" d="m588.523 464.965-15.71-20.073m17.376-.067-18.162 21.956M459.29 189.236 446.214 177m-1.052 14.64c4.124-6.367 8.249-12.733 12.375-19.1m-287.944 97.797a46.784 46.784 0 0 1-15.71-9.6m.189 14.081 10.317-16.68"/>
      <path stroke="url(#l)" stroke-linecap="round" stroke-linejoin="round" stroke-width="3.709" d="M769.384 358.585c-7.442-1.058-14.912 3.286-19.242 9.429-4.33 6.143-5.976 13.794-6.568 21.287a89.733 89.733 0 0 0 14.048 55.436c3.958 6.1 9.225 12.071 16.341 13.585 7.116 1.514 15.821-3.791 15.187-11.038-.647-7.38-9.772-11-17.123-10.085-14.889 1.86-26.376 15.383-29.791 29.994-3.415 14.611-.192 29.975 4.686 44.164s11.417 27.846 14.923 42.435c3.506 14.589 3.679 30.738-3.72 43.791-7.399 13.053-23.9 21.593-37.98 16.415"/>
      <path stroke="#171717" stroke-linecap="round" stroke-linejoin="round" stroke-width="3.709" d="M109.321 557.441c12.306-1.606 24.793 3.813 33.907 12.237 9.114 8.424 15.252 19.577 20.1 31 3.354 7.9 6.213 16.3 5.7 24.869-.513 8.569-5.078 17.365-12.986 20.7-10.363 4.373-21.988-1.637-31.336-7.891-5.369-3.592-11.246-8.523-10.787-14.966.585-8.216 10.914-11.859 19.123-11.181a44.88 44.88 0 0 1 38.314 60.523c-3.843 10.219-11.407 19.067-13.19 29.839-2.942 17.774 14.292 35.862 32.189 33.784"/>
      <path stroke="url(#m)" stroke-linecap="round" stroke-linejoin="round" stroke-width="3.709" d="m526.481 131.649-9.636-8.687"/>
      <path stroke="url(#n)" stroke-linecap="round" stroke-linejoin="round" stroke-width="3.709" d="m516.288 132.589 9.581-13.106"/>
      <path stroke="url(#o)" stroke-linecap="round" stroke-linejoin="round" stroke-width="3.709" d="m107.626 602.862-9.6-8.728"/>
      <path stroke="url(#p)" stroke-linecap="round" stroke-linejoin="round" stroke-width="3.709" d="M96.145 606.227a53.21 53.21 0 0 0 10.748-17.277"/>
      <path stroke="url(#q)" stroke-linecap="round" stroke-linejoin="round" stroke-width="3.709" d="m731.5 576.012-9.4-7.24"/>
      <path stroke="url(#r)" stroke-linecap="round" stroke-linejoin="round" stroke-width="3.709" d="m722.122 578.459 8.754-16.568"/>
      <path stroke="#171717" stroke-linecap="round" stroke-linejoin="round" stroke-width="3.709" d="M723.612 320.431a41.267 41.267 0 0 1-14.55-13.5m-.025 12.337 12.27-15.669m41.246 439.484-8.024-9.456m-2.798 11.497 13.091-15.71"/>
      <path fill="url(#s)" d="m119.263 284.332 7.773.633-6.318 4.572 1.801 7.589-6.301-4.595-6.662 4.056 2.423-7.412-5.917-5.082 7.8.014 3.004-7.197 2.397 7.422Z"/>
      <path fill="#171717" d="m682.67 262.211 10.019-2.514-5.978 8.424 5.486 8.753-9.859-3.083-6.629 7.922-.115-10.329-9.582-3.856 9.788-3.3.706-10.306 6.164 8.289ZM472.672 130.288l7.959 1.947-7.313 3.695.608 8.171-5.775-5.813-7.583 3.102 3.746-7.288-5.295-6.252 8.088 1.309 4.311-6.968 1.254 8.097Z"/>
      <path fill="url(#t)" d="m638.937 396.212 7.959 1.948-7.314 3.694.607 8.172-5.773-5.814-7.584 3.103 3.745-7.288-5.294-6.253 8.087 1.31 4.312-6.968 1.255 8.096Z"/>
      <path fill="#171717" d="m92.144 639.113 7.958 1.947-7.313 3.696.607 8.17-5.773-5.813-7.584 3.103 3.745-7.287-5.294-6.254 8.087 1.309 4.312-6.967 1.255 8.096Z"/>
      <path fill="#171717" d="M292.085 264.294c-18.16 5.841-22.251 29.142-21.283 45.6 1.3 22.089 7.3 43.646 13.582 64.775a642.778 642.778 0 0 0 22.464 62.958c7.532 18.166 15.225 36.6 25.642 53.346 5.321 8.553 11.711 17.739 19.655 24.057 7.754 6.166 17.066 12.254 26.9 14.242 7.018 1.419 10.035-6.951 4.659-11.052-6.281-4.792-12.221-9.208-17.339-15.314a193.244 193.244 0 0 1-14.075-18.2c-9.475-14.465-16.6-30.294-23.4-46.146-15.8-36.815-27.517-74.967-38.916-113.308-3.127-10.517-7.235-20.947-6.667-32.107.474-9.328 5.179-17.721 11.33-24.466 1.675-1.836.07-5.231-2.554-4.387l.002.002ZM94.96 355.741c-4.3 16.983-1.979 35.533 1.293 52.543a171.743 171.743 0 0 0 18.758 50.409c16.655 30.076 40.5 55.643 70.267 72.963a167.492 167.492 0 0 0 25.876 12.123c9.207 3.438 17.744 6.67 27.523 3.828a4.262 4.262 0 0 0 2.919-5.164 4.262 4.262 0 0 0-1.057-1.887c-5.64-5.99-12.255-8.432-19.686-11.623a210.762 210.762 0 0 1-20.444-10.55 202.624 202.624 0 0 1-37.074-27.168 169.746 169.746 0 0 1-29.927-35.407 203.453 203.453 0 0 1-20.669-45.02c-3-8.832-5.34-17.875-7-27.055-1.521-9.351-2.539-18.711-4.449-27.992-.661-3.213-5.559-3.04-6.328 0h-.002Zm340.848-74.514c1.163 7.459 4.455 15.305 6.985 22.418 2.53 7.113 5.421 14.07 8.333 21.023 6 14.324 12.656 28.409 19.347 42.42a1406.023 1406.023 0 0 0 20.214 40.635c3.462 6.687 6.693 13.64 10.964 19.853 2.356 3.427 4.706 6.655 6.792 10.261 2.1 3.634 3.787 6.315 7.38 8.632 3.467 2.236 8.253-.687 8.182-4.695-.127-7.131-5.068-13.871-7.71-20.372-2.882-7.092-6.641-13.731-10.166-20.517a1402.337 1402.337 0 0 1-20.677-41.461c-6.53-13.653-12.683-27.465-18.93-41.247-3.112-6.867-6.212-13.748-9.514-20.525-3.321-6.814-6.422-14.629-10.747-20.832-3.828-5.49-11.451-2-10.453 4.407Zm-199.185 78.287c-10.851 10.822-17.743 24.877-22.049 39.486-4.8 16.292-2.708 34.309.709 50.649 3.679 17.591 10.035 34.332 16.425 51.074a7225.28 7225.28 0 0 0 18.164 47.092c24.522 62.493 51.245 124.626 86.2 182.094 9.538 15.682 19.695 30.992 30.566 45.783 5.7 7.753 11.54 15.4 17.788 22.721 6.312 7.395 12.383 15.4 20.709 20.542 7.28 4.5 14.255-4.157 10.967-10.967-3.55-7.355-9.39-13.252-14.428-19.652a969.226 969.226 0 0 1-13.941-18.147 592.332 592.332 0 0 1-27.423-39.724 821.3 821.3 0 0 1-46.283-84.181c-27.991-58.14-51.762-118.708-73.943-179.277-6.476-17.685-10.887-35.322-11.028-54.2-.128-17.263 2.491-33.3 13.868-46.992 3.6-4.335-2.164-10.42-6.3-6.3l-.001-.001Z" opacity=".1"/>
    </g>
  </g>
  <defs>
    <linearGradient id="c" x1="497.203" x2="495.845" y1="195.498" y2="445.725" gradientUnits="userSpaceOnUse">
      <stop stop-color="#B7B7B7"/>
      <stop offset="1" stop-color="#6F6F6F"/>
    </linearGradient>
    <linearGradient id="d" x1="338.174" x2="336.79" y1="264.25" y2="526.522" gradientUnits="userSpaceOnUse">
      <stop stop-color="#B7B7B7"/>
      <stop offset="1" stop-color="#6F6F6F"/>
    </linearGradient>
    <linearGradient id="e" x1="487.154" x2="487.03" y1="709.049" y2="811.767" gradientUnits="userSpaceOnUse">
      <stop stop-color="#B7B7B7"/>
      <stop offset="1" stop-color="#6F6F6F"/>
    </linearGradient>
    <linearGradient id="f" x1="712.289" x2="712.122" y1="746" y2="811.883" gradientUnits="userSpaceOnUse">
      <stop stop-color="#B7B7B7"/>
      <stop offset="1" stop-color="#6F6F6F"/>
    </linearGradient>
    <linearGradient id="g" x1="538.998" x2="538.932" y1="796.838" y2="830.9" gradientUnits="userSpaceOnUse">
      <stop stop-color="#B7B7B7"/>
      <stop offset="1" stop-color="#6F6F6F"/>
    </linearGradient>
    <linearGradient id="h" x1="500.372" x2="500.253" y1="870.801" y2="919.705" gradientUnits="userSpaceOnUse">
      <stop stop-color="#B7B7B7"/>
      <stop offset="1" stop-color="#6F6F6F"/>
    </linearGradient>
    <linearGradient id="i" x1="289.654" x2="288.657" y1="632.98" y2="803.949" gradientUnits="userSpaceOnUse">
      <stop stop-color="#B7B7B7"/>
      <stop offset="1" stop-color="#6F6F6F"/>
    </linearGradient>
    <linearGradient id="j" x1="302.692" x2="302.649" y1="862.949" y2="891.589" gradientUnits="userSpaceOnUse">
      <stop stop-color="#B7B7B7"/>
      <stop offset="1" stop-color="#6F6F6F"/>
    </linearGradient>
    <linearGradient id="k" x1="172.477" x2="171.822" y1="348.319" y2="551.609" gradientUnits="userSpaceOnUse">
      <stop stop-color="#B7B7B7"/>
      <stop offset="1" stop-color="#6F6F6F"/>
    </linearGradient>
    <linearGradient id="l" x1="754.663" x2="752.199" y1="358.426" y2="614.109" gradientUnits="userSpaceOnUse">
      <stop stop-color="#B7B7B7"/>
      <stop offset="1" stop-color="#6F6F6F"/>
    </linearGradient>
    <linearGradient id="m" x1="521.663" x2="521.643" y1="122.962" y2="131.602" gradientUnits="userSpaceOnUse">
      <stop stop-color="#B7B7B7"/>
      <stop offset="1" stop-color="#6F6F6F"/>
    </linearGradient>
    <linearGradient id="n" x1="521.079" x2="521.032" y1="119.483" y2="132.517" gradientUnits="userSpaceOnUse">
      <stop stop-color="#B7B7B7"/>
      <stop offset="1" stop-color="#6F6F6F"/>
    </linearGradient>
    <linearGradient id="o" x1="102.826" x2="102.806" y1="594.134" y2="602.815" gradientUnits="userSpaceOnUse">
      <stop stop-color="#B7B7B7"/>
      <stop offset="1" stop-color="#6F6F6F"/>
    </linearGradient>
    <linearGradient id="p" x1="101.519" x2="101.448" y1="588.95" y2="606.133" gradientUnits="userSpaceOnUse">
      <stop stop-color="#B7B7B7"/>
      <stop offset="1" stop-color="#6F6F6F"/>
    </linearGradient>
    <linearGradient id="q" x1="726.8" x2="726.785" y1="568.772" y2="575.973" gradientUnits="userSpaceOnUse">
      <stop stop-color="#B7B7B7"/>
      <stop offset="1" stop-color="#6F6F6F"/>
    </linearGradient>
    <linearGradient id="r" x1="726.499" x2="726.418" y1="561.891" y2="578.369" gradientUnits="userSpaceOnUse">
      <stop stop-color="#B7B7B7"/>
      <stop offset="1" stop-color="#6F6F6F"/>
    </linearGradient>
    <linearGradient id="s" x1="116.549" x2="116.499" y1="276.91" y2="297.016" gradientUnits="userSpaceOnUse">
      <stop stop-color="#B7B7B7"/>
      <stop offset="1" stop-color="#6F6F6F"/>
    </linearGradient>
    <linearGradient id="t" x1="636.09" x2="636.033" y1="388.116" y2="409.907" gradientUnits="userSpaceOnUse">
      <stop stop-color="#B7B7B7"/>
      <stop offset="1" stop-color="#6F6F6F"/>
    </linearGradient>
    <clipPath id="a">
      <path fill="white" d="M0 0h960v960H0z"/>
    </clipPath>
    <clipPath id="b">
      <path fill="white" d="M71 39h818v883H71z"/>
    </clipPath>
  </defs>
</svg>
