<svg xmlns="http://www.w3.org/2000/svg" width="498" height="501" viewBox="0 0 498 501" version="1.1"><path d="M 152 161.271 C 149.525 161.781, 146.907 162.685, 146.182 163.279 C 145.457 163.872, 140.231 164.429, 134.570 164.515 C 124.990 164.661, 124.003 164.868, 120.341 167.501 C 118.176 169.056, 114.077 173.272, 111.231 176.868 C 105.510 184.099, 103.093 191.485, 104.897 196.230 C 105.432 197.635, 105.661 199.621, 105.407 200.643 C 104.834 202.949, 110.757 211.755, 118.650 220.332 C 125.152 227.398, 128.534 228.636, 136.972 227.036 C 144.863 225.539, 147.372 221.111, 151.535 201.332 L 153.254 193.165 150.999 189.999 C 149.052 187.264, 148.834 186.068, 149.402 181.236 C 150.228 174.206, 153.091 169.504, 158.101 166.949 C 161.903 165.009, 163.622 161.099, 160.750 160.923 C 160.063 160.881, 158.825 160.734, 158 160.595 C 157.175 160.456, 154.475 160.760, 152 161.271 M 59.161 212.547 C 58.522 213.948, 58 216.873, 58 219.047 C 58 221.923, 57.584 223, 56.475 223 C 55.637 223, 54.511 224.155, 53.974 225.567 C 53.249 227.475, 52.510 227.979, 51.097 227.531 C 47.094 226.260, 40 236.207, 40 243.091 C 40 250.148, 49.848 259.782, 63.670 266.248 C 70.216 269.310, 71.020 269.442, 83 269.429 C 93.575 269.417, 96.220 269.088, 100.176 267.296 C 105.915 264.696, 113.264 258.070, 115.399 253.571 C 116.833 250.549, 116.840 249.798, 115.468 245.910 C 112.533 237.589, 109.846 236.378, 97.943 238.008 C 91.861 238.841, 89.049 238.799, 85.767 237.829 C 79.422 235.953, 72.214 228.255, 67.438 218.252 C 63.253 209.487, 61.200 208.072, 59.161 212.547 M 190.500 222.172 C 172.833 224.640, 157.111 232.663, 155.492 240.037 C 155.149 241.596, 155.532 244.337, 156.372 246.348 L 157.857 249.903 173.679 250.280 C 195.654 250.804, 204.291 253.544, 206.325 260.637 C 207.162 263.555, 207.568 263.774, 213.210 264.364 C 220.869 265.165, 226.451 264.264, 228.609 261.880 C 229.545 260.846, 231.028 259.986, 231.905 259.968 C 236.805 259.870, 240.405 251.693, 238.577 244.813 C 236.245 236.036, 232.153 231.051, 223.500 226.445 C 215.925 222.412, 201.834 220.588, 190.500 222.172 M 278 223.650 C 265.683 227.691, 256.225 237.735, 254.557 248.547 C 254.031 251.955, 254.201 251.742, 255.790 247 C 259.158 236.953, 264.266 231.057, 273.500 226.556 C 279.298 223.731, 297.748 223.664, 303.500 226.448 C 310.500 229.836, 313.859 233.030, 316.970 239.255 C 318.636 242.591, 320 244.455, 320 243.398 C 320 237.546, 308.548 226.357, 300.177 224.033 C 296.476 223.005, 280.792 222.734, 278 223.650 M 332.456 225.253 C 332.192 225.942, 332.093 243.605, 332.238 264.503 L 332.500 302.500 351 302.427 C 369.756 302.354, 373.471 301.801, 383 297.666 C 386.610 296.099, 393.373 289.560, 396.323 284.785 C 401.789 275.936, 403.165 257.484, 399.140 247 C 394.882 235.909, 386.590 228.548, 375.015 225.582 C 367.023 223.535, 333.216 223.274, 332.456 225.253 M 409.456 225.253 C 409.192 225.942, 409.093 243.605, 409.238 264.503 L 409.500 302.500 418.500 302.794 C 433.211 303.275, 432.112 304.630, 431.944 286.220 L 431.801 270.500 444.150 270 L 456.500 269.500 456.809 264.053 C 457.396 253.716, 457.765 254, 443.731 254 L 431.500 254 431.500 247.500 L 431.500 241 444.750 241 C 452.038 241, 458.001 240.662, 458.002 240.250 C 458.003 239.838, 451.816 239.725, 444.252 240 L 430.500 240.500 430.209 247.631 L 429.917 254.762 433.637 255.460 C 435.682 255.843, 441.082 256.029, 445.637 255.871 C 450.192 255.714, 454.212 255.878, 454.570 256.237 C 454.928 256.595, 455.265 259.501, 455.319 262.694 L 455.417 268.500 442.958 269 L 430.500 269.500 430.327 285 L 430.154 300.500 420.065 300.785 L 409.976 301.070 410.238 263.285 L 410.500 225.500 434.250 225.500 C 447.313 225.500, 458.001 225.162, 458 224.750 C 458 224.338, 447.186 224, 433.969 224 C 415.634 224, 409.823 224.297, 409.456 225.253 M 333.667 225.667 C 333.300 226.033, 333 243.133, 333 263.667 L 333 301 351.250 300.988 C 363.276 300.980, 371.205 300.521, 374.500 299.641 C 387.511 296.165, 394.894 289.052, 398.553 276.467 C 401.040 267.912, 400.238 251.188, 397.022 244.545 C 389.614 229.243, 379.452 225, 350.209 225 C 341.477 225, 334.033 225.300, 333.667 225.667 M 353.750 239.564 C 353.337 239.987, 353 250.833, 353 263.667 L 353 287 359.250 286.978 C 374.155 286.926, 380.760 278.525, 379.847 260.781 C 379.161 247.441, 373.121 240.597, 361 239.424 C 357.425 239.078, 354.163 239.141, 353.750 239.564 M 279.483 243.449 C 275.987 247.157, 274.457 253.304, 276.591 255.075 C 277.273 255.642, 282.464 255.947, 288.645 255.785 L 299.500 255.500 299.822 252.131 C 300.218 247.994, 298.420 243.408, 295.640 241.460 C 294.436 240.617, 291.270 240, 288.146 240 C 283.274 240, 282.413 240.343, 279.483 243.449 M 280.104 244.535 C 278.125 246.789, 277 249.144, 277 251.035 L 277 254 288 254 L 299 254 299 250.577 C 299 248.353, 298.093 246.075, 296.411 244.077 C 294.119 241.353, 293.214 241, 288.515 241 C 283.691 241, 282.924 241.322, 280.104 244.535 M 354 263.634 L 354 286.269 360.979 285.769 C 366.535 285.372, 368.675 284.723, 371.480 282.583 C 377.184 278.232, 378.400 274.897, 378.436 263.500 C 378.463 255.077, 378.120 252.846, 376.265 249.351 C 373.056 243.306, 368.739 241, 360.632 241 L 354 241 354 263.634 M 320.800 251.500 C 321.177 254.800, 321.489 259.750, 321.493 262.500 L 321.500 267.500 299.578 267.770 C 285.913 267.938, 277.172 268.442, 276.371 269.107 C 274.717 270.480, 275.648 275.570, 278.227 279.265 C 280.098 281.945, 285.735 285.599, 286.625 284.708 C 286.867 284.467, 285.812 283.749, 284.282 283.114 C 280.637 281.600, 277 276.179, 277 272.259 L 277 269.141 299.149 269.038 C 311.331 268.981, 321.744 268.658, 322.290 268.321 C 323.507 267.569, 322.482 249.672, 321.081 247.204 C 320.428 246.054, 320.337 247.452, 320.800 251.500 M 252.630 255.250 C 251.458 259.623, 252.081 270.583, 253.874 277.148 C 256.224 285.751, 259.962 292.033, 265.256 296.280 C 271.105 300.972, 276.792 302.961, 285.816 303.470 L 293.500 303.904 287 303.058 C 277.459 301.817, 272.926 300.386, 267.822 297.005 C 258.333 290.720, 253.751 279.766, 253.703 263.250 C 253.686 257.613, 253.574 253, 253.453 253 C 253.332 253, 252.962 254.012, 252.630 255.250 M 154.647 279.554 C 150.391 283.688, 150.674 285.053, 156.702 289.476 C 162.203 293.511, 170 302.109, 170 304.139 C 170 305.098, 170.397 306.128, 170.883 306.428 C 172.321 307.317, 173.326 318.074, 172.086 319.314 C 169.535 321.865, 171.005 324.045, 177.306 327.055 C 180.775 328.712, 186.374 332.302, 189.750 335.034 C 196.378 340.397, 200.187 341.277, 205 338.558 C 209.376 336.086, 213.433 334.178, 215.688 333.532 C 217.751 332.940, 220.789 326.831, 220.145 324.570 C 219.999 324.058, 219.468 321.466, 218.964 318.809 C 218.007 313.765, 213.546 305.969, 208.005 299.658 C 201.048 291.735, 184.407 281.164, 175.219 278.831 C 173.174 278.312, 169.925 277.473, 168 276.967 C 161.345 275.219, 158.555 275.759, 154.647 279.554 M 309.467 280.386 C 306.778 282.269, 300.623 284.114, 294 285.022 L 288.500 285.775 295.094 285.532 C 299.703 285.362, 303.427 284.493, 307.465 282.645 C 313.719 279.781, 315 279.492, 315 280.943 C 315 282.353, 319.176 289.158, 319.712 288.621 C 319.967 288.366, 318.969 286.097, 317.493 283.579 C 314.688 278.792, 312.809 278.045, 309.467 280.386 M 116.366 282.988 C 115.193 283.462, 112.168 286.533, 109.645 289.812 C 100.790 301.320, 94.149 305.012, 80.984 305.747 C 72.784 306.205, 70.639 305.766, 63.750 302.219 C 62.457 301.554, 62.932 307.556, 64.531 312.088 C 65.373 314.474, 66.129 318.468, 66.211 320.963 C 66.358 325.443, 66.601 325.866, 73.061 332.894 C 74.124 334.051, 75.619 334.700, 76.469 334.374 C 77.343 334.038, 78.241 334.465, 78.594 335.385 C 79.016 336.483, 80.345 336.933, 82.879 336.834 C 84.899 336.754, 87.523 337.210, 88.710 337.845 C 89.897 338.480, 93.760 339, 97.293 339 C 102.445 339, 104.886 338.408, 109.609 336.013 C 112.849 334.370, 116.001 333.020, 116.613 333.013 C 118.356 332.993, 126.564 323.754, 129.157 318.892 C 131.249 314.971, 131.496 313.214, 131.460 302.500 C 131.424 292.073, 131.127 289.943, 129.189 286.250 C 127.090 282.248, 126.712 282.004, 122.730 282.063 C 120.403 282.098, 117.540 282.514, 116.366 282.988 M 320.626 291.678 C 321.502 295.028, 312.354 298.917, 295.500 302.359 C 294.400 302.584, 295.129 302.820, 297.120 302.884 C 303.729 303.096, 320.435 296.637, 321.682 293.388 C 322.003 292.550, 321.781 291.381, 321.189 290.789 C 320.420 290.020, 320.259 290.274, 320.626 291.678" stroke="none" fill="#ef4921" fill-rule="evenodd"/><path d="M 278.500 224.919 C 261.938 229.553, 253.603 242.689, 253.703 264 C 253.753 274.762, 256.081 283.623, 260.551 290.074 C 263.711 294.634, 270.664 299.516, 276.441 301.231 C 282.361 302.988, 296.383 302.654, 304.383 300.564 C 311.895 298.602, 321 294.303, 321 292.719 C 321 292.170, 319.650 289.527, 318 286.846 C 316.350 284.164, 315 281.527, 315 280.985 C 315 279.493, 313.761 279.762, 307.562 282.600 C 296.156 287.822, 283.745 286.562, 278.617 279.661 C 275.805 275.876, 274.652 270.748, 276.254 269.146 C 277.045 268.355, 284.158 268, 299.231 268 C 318.135 268, 321.143 267.790, 321.664 266.432 C 321.995 265.570, 321.774 260.530, 321.172 255.232 C 318.771 234.098, 309.782 225.049, 290.531 224.389 C 285.564 224.219, 280.150 224.457, 278.500 224.919 M 333.667 225.667 C 333.300 226.033, 333 243.133, 333 263.667 L 333 301 351.250 300.988 C 363.276 300.980, 371.205 300.521, 374.500 299.641 C 387.511 296.165, 394.894 289.052, 398.553 276.467 C 401.040 267.912, 400.238 251.188, 397.022 244.545 C 389.614 229.243, 379.452 225, 350.209 225 C 341.477 225, 334.033 225.300, 333.667 225.667 M 410.685 225.649 C 410.308 226.025, 410 243.149, 410 263.702 L 410 301.070 420.077 300.785 L 430.154 300.500 430.327 285 L 430.500 269.500 442.958 269 L 455.417 268.500 455.319 262.694 C 455.265 259.501, 454.928 256.595, 454.570 256.237 C 454.212 255.878, 450.192 255.714, 445.637 255.871 C 441.082 256.029, 435.682 255.843, 433.637 255.460 L 429.917 254.762 430.209 247.631 L 430.500 240.500 444 240 L 457.500 239.500 457.500 232.500 L 457.500 225.500 434.435 225.232 C 421.749 225.085, 411.061 225.272, 410.685 225.649 M 353.750 239.564 C 353.337 239.987, 353 250.833, 353 263.667 L 353 287 359.250 286.978 C 374.155 286.926, 380.760 278.525, 379.847 260.781 C 379.161 247.441, 373.121 240.597, 361 239.424 C 357.425 239.078, 354.163 239.141, 353.750 239.564 M 279.483 243.449 C 275.987 247.157, 274.457 253.304, 276.591 255.075 C 277.273 255.642, 282.464 255.947, 288.645 255.785 L 299.500 255.500 299.822 252.131 C 300.218 247.994, 298.420 243.408, 295.640 241.460 C 294.436 240.617, 291.270 240, 288.146 240 C 283.274 240, 282.413 240.343, 279.483 243.449" stroke="none" fill="#19386f" fill-rule="evenodd"/></svg>