<svg xmlns="http://www.w3.org/2000/svg" width="1080" height="259">
  <path fill="#787c80" fill-rule="evenodd" d="M96.927 33.064c-17.092 2.515-31.005 12.124-38.703 26.732-3.854 7.312-5.227 14.031-5.212 25.503.028 21.556 9.281 36.901 27.883 46.243 8.267 4.151 19.831 5.443 48.81 5.451l25.204.007 5.022-6.206c3.467-4.285 4.65-6.435 3.821-6.947-.659-.408-1.493-.266-1.852.315-.597.965-11.313.835-52.4-.637-25.006-.895-39.505-11.858-42.683-32.271-2.843-18.26 4.95-33.567 21.159-41.56l6.475-3.194 34.775-.319C151.558 45.976 164 45.503 164 44.86c0-1.006-7.631-10.722-9.5-12.095-1.347-.989-50.551-.734-57.573.299"/>
  <path fill="#9aa1a6" fill-rule="evenodd" d="M103.498 56.959c-11.937 1.094-19.66 5.711-23.949 14.319-2.106 4.227-2.545 6.513-2.527 13.168.034 12.628 5.043 21.078 15.221 25.678 5.247 2.372 5.33 2.376 44.446 2.376h39.189l3.811-4.404c2.096-2.422 4.171-5.01 4.611-5.75.665-1.119-6.292-1.346-41.3-1.346-35.394 0-42.56-.238-44.989-1.494C95.256 98.081 92 94.436 92 92.777c0-.427 19.013-.784 42.25-.792 23.238-.009 42.837-.388 43.555-.843.894-.567 1.208-2.686 1-6.735L178.5 78.5l-43.25-.261c-47.276-.285-45.87-.08-40.837-5.933l2.412-2.806 43.319-.281c23.825-.155 43.667-.63 44.092-1.055.425-.425-1.421-3.223-4.103-6.219l-4.876-5.445-31.879-.137c-17.533-.076-35.479.192-39.88.596m10.585 66.42c.23.209 11.105.704 24.167 1.1 17.044.518 23.75.411 23.75-.379 0-.77-7.257-1.1-24.167-1.1-13.291 0-23.979.171-23.75.379"/>
  <path fill="#e62d36" fill-rule="evenodd" d="M21.984 10.25c-.008.137-.097 33.55-.197 74.25l-.182 74 39.448.154c22.583.088 38.164-.203 36.447-.682-1.65-.46-6.15-1.539-10-2.398-14.71-3.281-30.914-13.749-40.156-25.943-5.351-7.059-11.492-19.649-13.476-27.631-.847-3.404-1.336-10.645-1.284-19 .081-12.913.237-13.899 3.584-22.676 4.951-12.986 9.103-19.311 18.861-28.731 9.52-9.191 17.224-13.614 30.716-17.635 4.535-1.352 8.247-2.796 8.25-3.208.004-.654-71.97-1.154-72.011-.5m171.399 66.293c-3.062 1.55-5.383 5.043-5.383 8.1 0 2.535 3.158 7.108 5.712 8.272 4.022 1.832 7.271 1.256 10.365-1.838 7.635-7.635-1.038-19.422-10.694-14.534M229 135.5v3.5h807v-7H229v3.5m231.408 6.902c-12.915 2.466-16.979 5.904-16.23 13.729.321 3.357.343 3.37 6.072 3.669 3.539.185 5.75-.104 5.75-.75 0-.578-.45-1.05-1-1.05s-1-.388-1-.863c0-1.026 13.654-3.804 23.43-4.767l6.929-.683-2.362 3.407c-1.299 1.873-4.469 6.106-7.046 9.406-6.797 8.707-13.951 20.597-13.951 23.189 0 3.01 3.533 4.929 5.766 3.13 4.108-3.308 7.178-7.54 7.205-9.932.017-1.582 3.38-7.614 8.529-15.3 9.25-13.807 10.086-16.632 6.245-21.097-2.079-2.417-2.994-2.653-11.75-3.032-5.625-.243-12.385.141-16.587.944m399.811.643c-5.553 1.117-14.058 5.768-16.417 8.978-1.02 1.388-2.11 4.099-2.422 6.024-.895 5.515 1.588 7.64 11.12 9.512 9.984 1.962 17.5 4.323 17.5 5.498 0 4.336-26.812 9.481-28.362 5.443-.876-2.283-3.099-1.806-6.532 1.401-4.283 4.001-4.079 6.789.644 8.79 3.226 1.367 5.231 1.437 14.353.5 17.947-1.844 26.753-6.922 26.862-15.489.067-5.348-4.264-7.807-19.965-11.332-4.125-.926-7.677-1.827-7.893-2.003-.866-.703 2.442-3.574 5.813-5.043 3.158-1.377 13.997-4.194 16.504-4.289.509-.019-.054 1.007-1.25 2.279-1.196 1.273-2.174 2.623-2.174 3 0 1.452 3.706.505 8.5-2.172 5.843-3.263 8.585-7.194 6.894-9.883-.906-1.442-2.709-1.787-10-1.917-4.892-.087-10.82.23-13.175.703m-356.927 8.705c-14.171 14.09-20.042 25.142-17.896 33.69.927 3.696 2.919 3.175 7.799-2.043 4.604-4.923 10.762-9.785 9.3-7.344-.477.796-1.719 2.619-2.761 4.051-1.121 1.54-1.76 3.788-1.564 5.5.506 4.44 4.39 4.372 11.271-.196 3.074-2.041 5.695-3.53 5.824-3.31.129.221.924 1.746 1.766 3.389 2.371 4.626 5.666 5.258 12.071 2.314 6.74-3.098 11.898-7.386 11.898-9.89 0-2.574-.464-2.461-6.566 1.589-5.62 3.73-9.432 4.412-11.401 2.04-.997-1.202-.62-1.821 2.128-3.497 1.836-1.119 3.821-2.037 4.409-2.039 2.342-.008 9.43-7.184 9.43-9.547 0-8.373-17.215-2.913-21.841 6.927-2.069 4.402-6.124 7.616-9.609 7.616-2.332 0-1.907-1.223 2.021-5.812 4.224-4.935 4.374-8.52.375-8.986-1.874-.218-4.625 1.336-10.332 5.836-4.277 3.372-8.018 5.891-8.313 5.596-.295-.295 4.102-5.5 9.771-11.566 10.508-11.246 16.457-19.403 15.4-21.114-1.684-2.724-5.676-.665-13.18 6.796m294.716-2.176c-6.976 6.654-16.4 18.726-18.452 23.638-1.402 3.356-9.546 9.788-12.394 9.788-3.448 0 1.81-13.215 5.487-13.789 4.94-.771 6.001-1.348 7.669-4.172 1.046-1.771 1.462-3.565.994-4.291-.443-.686-.806-2.598-.808-4.248-.003-2.603-.335-2.965-2.504-2.736-1.375.145-3.625 1.611-5 3.259-1.435 1.719-3.465 2.991-4.765 2.986-2.807-.011-9.832 6.215-8.834 7.83.394.639 1.59 1.161 2.658 1.161 2.918 0 2.405 1.126-2.809 6.172-5.232 5.064-8.101 6.828-11.101 6.828-3.587 0-2.944-2.423 2.06-7.765 5.367-5.728 5.888-8.547 1.672-9.038-3.056-.356-7.735 3.212-10.875 8.294-1.925 3.113-5.474 5.374-6.628 4.22-.259-.259.498-2.329 1.681-4.601 2.346-4.5 2.025-9.11-.634-9.11-2.293 0-7.213 5.863-8.724 10.396-1.283 3.851-6.019 8.62-7.293 7.345-.344-.344 1.061-3.99 3.121-8.103 3.406-6.8 4.004-10.638 1.659-10.638-.481 0-5.237 4.348-10.569 9.663-7.137 7.114-9.988 9.368-10.81 8.546-.822-.822-.403-2.052 1.588-4.663 1.488-1.95 3.129-3.546 3.648-3.546.518 0 2.295-1.867 3.948-4.149 2.309-3.188 2.745-4.461 1.884-5.5-2.066-2.488-5.785-1.477-10.476 2.847-8.206 7.564-9.785 14.572-4.478 19.879 1.608 1.608 3.631 2.923 4.497 2.923.866 0 3.358-1.611 5.538-3.581l3.963-3.581.678 2.831c1.556 6.506 3.39 6.725 10.293 1.228 3.947-3.142 5.716-3.961 7.561-3.498 1.324.332 3.564.165 4.978-.373 2.015-.766 2.569-.669 2.569.452 0 2.528 2.253 6.468 4.02 7.028 2.349.746 6.53-.981 11.062-4.571l3.793-3.004.313 3.683c.587 6.931 4.892 7.033 13.789.325l5.476-4.129.802 3.095c.441 1.702 1.366 3.095 2.055 3.095.689 0 3.924-2.7 7.19-6 6.287-6.354 8.966-7.902 5.455-3.153-3.004 4.063-2.415 9.541 1.071 9.948 2.431.284 13.841-6.153 15.412-8.695 1.554-2.514-.696-3.145-4.083-1.147-3.386 1.998-6.355 2.666-6.355 1.431 0-.339 1.575-2.762 3.5-5.384 3.83-5.218 4.343-7.462 1.918-8.393-2.972-1.14-4.161-.602-11.938 5.408-4.281 3.308-7.991 5.807-8.245 5.553-.254-.254 4.255-5.575 10.019-11.824 10.874-11.79 16.247-19.124 15.223-20.781-1.542-2.495-5.824-.774-11.469 4.611m-126.767 4.753c-1.242.689-2.955 2.247-3.806 3.463-.856 1.221-2.607 2.21-3.915 2.21-2.775 0-8.52 4.506-8.52 6.683 0 .827.9 1.74 2 2.027 1.1.288 2 .868 2 1.29 0 1.585-8.267 8.153-13.482 10.71-4.608 2.261-5.798 2.484-7.967 1.495-3.832-1.746-3.448-3.57 1.715-8.136 2.565-2.269 2.833-2.316 4.018-.696 1.573 2.151 3.766 1.403 6.423-2.191 4.643-6.279 3.315-9.971-3.15-8.759-5.08.953-14.603 7.719-16.474 11.704-1.601 3.411-10.225 9.064-11.651 7.638-.379-.379.747-2.928 2.503-5.664 2.45-3.817 3.12-5.864 2.879-8.788l-.314-3.813-5.5.103c-7.26.135-14.763 3.965-21.407 10.926-4.539 4.757-8.796 7.471-11.718 7.471-.547 0 .804-2.137 3.002-4.75 9.21-10.949 6.556-17.21-4.539-10.708-2.386 1.398-4.338 2.215-4.338 1.815 0-.401 1.8-2.863 4-5.472 2.2-2.609 4-5.402 4-6.207 0-1.789-1.921-2.613-4.172-1.79-2.201.805-22.792 23.246-22.812 24.862-.028 2.203 2.753 1.338 4.819-1.498 1.101-1.512 2.311-2.44 2.688-2.063.377.378-1.886 4.591-5.029 9.364-3.569 5.419-5.911 10.137-6.236 12.563-.491 3.657-.368 3.884 2.102 3.884 2.243 0 3.105-.977 5.949-6.75l3.325-6.75h8.433c7.507 0 8.897-.302 12.663-2.75 2.327-1.512 4.605-2.75 5.062-2.75.458 0 1.83 1.35 3.05 3 1.22 1.65 2.674 3 3.231 3 .557 0 3.449-1.8 6.427-4 6.163-4.553 7.028-4.856 5.45-1.907-1.378 2.576-.515 6.476 1.614 7.293 1.866.716 4.351-.497 10.33-5.044 2.416-1.838 4.68-3.342 5.031-3.342.35 0 1.144 1.346 1.765 2.99 2.266 6.003 9.494 5.806 17.731-.482l4.469-3.411.305 4.1c.573 7.695 4.761 7.639 15.12-.203 9.361-7.087 9.098-11.252-.315-4.994-6.079 4.041-7.413 3.933-6.687-.541.941-5.801 4.369-10.459 7.697-10.459 4.305 0 8.899-5.492 7.386-8.828-.418-.92-.79-2.756-.827-4.08-.084-2.92-1.329-3.427-4.328-1.765m82.82 2.612c-1.133 1.133-2.061 2.479-2.061 2.99 0 1.202 2.869 4.071 4.071 4.071 1.897 0 5.043-4.189 4.74-6.311-.421-2.959-4.129-3.371-6.75-.75m241.875 6.817c-1.971 3.458-15.344 15.421-19.754 17.672-3.997 2.04-7.682 1.738-7.682-.631 0-1.09 2.334-2.889 6.488-5 12.903-6.557 12.707-16.215-.258-12.724-4.084 1.099-10.009 6.243-13.856 12.029-2.259 3.397-12.18 8.289-15.249 7.519-4.028-1.011-4.035-3.498-.019-7.286 3.464-3.267 3.723-3.347 5.525-1.717 1.794 1.624 2.022 1.588 4.486-.704 5.056-4.704 5.502-10.914.782-10.914-2.937 0-11.943 4.349-15.244 7.36-1.29 1.177-2.948 3.299-3.686 4.717-1.834 3.523-12.794 9.309-16.075 8.486-3.738-.938-4.034-3.285-.837-6.623 2.981-3.111 5.297-3.686 7.197-1.786.873.873 1.886.372 4.149-2.05 5.809-6.219 4.715-11.005-2.218-9.705-4.963.931-14.229 7.339-16.369 11.319-1.871 3.479-4.481 5.634-8.822 7.284-4.092 1.556-3.151-2.195 2.006-8.002 3.183-3.584 4.5-5.935 4.5-8.033 0-1.632-.255-2.967-.566-2.967-1.568 0-5.486 2.789-10.434 7.428C892.627 176.34 887.661 180 885.656 180c-2.765 0-1.923-1.413 4.406-7.397 3.334-3.152 5.887-6.265 5.673-6.917-.214-.652-1.847-1.329-3.629-1.504-2.649-.261-3.872.351-6.698 3.347-7.179 7.612-8.744 15.065-4.016 19.131 3.075 2.645 4.851 2.2 9.858-2.469l2.75-2.565v3.115c0 3.22 2.161 6.259 4.451 6.259.72 0 3.916-2.025 7.103-4.5 3.188-2.475 6.068-4.5 6.402-4.5.333 0 1.113 1.346 1.734 2.99 2.283 6.047 9.495 5.805 17.885-.599 2.542-1.94 4.725-3.385 4.851-3.209.126.175.787 1.722 1.469 3.438 1.696 4.268 5.277 5.802 9.981 4.277 3.674-1.191 9.348-4.673 9.957-6.111.607-1.429 3.167-.816 3.167.759 0 2.391 4.629 6.455 7.353 6.455 1.344 0 5.001-1.345 8.126-2.989l5.683-2.989 3.169 2.341c1.743 1.288 4.005 2.637 5.026 2.999 2.487.88 8.782-.897 11.92-3.365 3.192-2.511 4.94-2.52 7.189-.035 3.045 3.366 7.796 4.373 12.112 2.57 4.846-2.025 13.422-8.566 13.422-10.237 0-2.028-1.773-1.547-6.64 1.801-5.348 3.68-6.625 3.196-2.984-1.13 2.098-2.495 2.621-4.156 2.61-8.293-.02-7.555-.801-9.673-3.567-9.673-1.292 0-2.789.823-3.327 1.829-1.35 2.522-15.519 16.205-19.183 18.526-1.646 1.042-3.298 1.589-3.672 1.215-.373-.373-.227-.992.326-1.374.553-.383 2.003-1.994 3.221-3.581 2.409-3.136 2.971-9.5 1.241-14.05-1.339-3.521-5.03-3.421-7.089.191m-23.26 6.359c-2.078 1.714-3.541 3.353-3.25 3.644.698.699 7.406-3.905 8.027-5.509.794-2.049-.768-1.439-4.777 1.865m-445.91.856c-4.253 3.868-2.244 3.93 2.272.07 1.904-1.628 2.907-2.978 2.228-3-.679-.023-2.704 1.296-4.5 2.93m81.734 2.189c-5.287 2.737-8.5 5.767-8.5 8.014 0 1.004.256 1.826.57 1.826.805 0 8.272-5.371 12.43-8.941 2.907-2.496 3.161-3.002 1.5-2.988-1.1.01-3.8.949-6 2.089m382.632 1.204c-3.019 3.115-3.14 3.486-1.625 5 2.428 2.428 4.254 1.999 6.019-1.414 1.479-2.86 1.245-6.95-.397-6.95-.405 0-2.204 1.514-3.997 3.364m24.04-.041c-3.112 3.21-3.158 3.38-1.368 5 2.369 2.143 3.492 2.113 5.541-.152 1.989-2.197 2.246-8.171.351-8.171-.717 0-2.753 1.495-4.524 3.323m-435.858-.373c-3.175 1.936-5.957 5.74-4.942 6.756 1.268 1.268 5.304-.916 7.378-3.992 3.543-5.256 2.882-6.006-2.436-2.764"/>
  <path fill="#111113" fill-rule="evenodd" d="M93.833 10.75c-.183.412-4.383 2.038-9.333 3.612C71.212 18.587 64.527 22.507 55 31.66c-9.719 9.338-13.876 15.665-18.832 28.664-3.347 8.777-3.503 9.763-3.584 22.676-.096 15.492.96 20.874 6.382 32.5 7.278 15.609 18.404 27.069 33.534 34.54 7.444 3.675 10.558 4.644 25.714 7.998 7.303 1.616 19.048.746 28.286-2.096 8.136-2.502 22.616-9.981 22.152-11.442-.198-.625-10.233-1.098-26.734-1.261-24.877-.246-26.892-.406-34.545-2.744-18.081-5.524-33.529-21.27-38.518-39.261-2.351-8.481-2.479-24.028-.268-32.59 3.645-14.11 16.068-29.424 29.26-36.067 12.831-6.462 15.064-6.831 43.903-7.265 14.437-.217 26.184-.713 26.105-1.103-.687-3.379-17.386-10.594-29.345-12.679-9.169-1.599-24.103-2.071-24.677-.78m167.783 42.062c-.315.51-2.196 4.698-4.181 9.307-1.985 4.61-6.221 14.456-9.415 21.881-3.193 7.425-8.104 18.8-10.913 25.277-2.809 6.478-5.107 12.215-5.107 12.75 0 .544 3.312.973 7.513.973h7.512l2.433-5.5 2.432-5.5h23.221l2.494 5.448c1.372 2.997 3.259 5.673 4.195 5.948.935.274 4.625.317 8.2.094 7.907-.492 7.869-.166 1.701-14.49-10.589-24.595-19.555-44.951-20.338-46.18-.463-.726-1.549-3.345-2.412-5.82-1.255-3.596-2.092-4.562-4.166-4.807-1.428-.169-2.854.109-3.169.619m48.488.906C305.15 56.159 301 63.214 301 69.196c0 4.458-.18 4.804-2.5 4.804-2.252 0-2.5.399-2.5 4.021 0 3.32.437 4.221 2.5 5.161l2.5 1.139V123h15V84h2.918c5.151 0 6.082-.85 6.082-5.549v-4.336l-4.25-.308c-3.777-.273-4.285-.606-4.561-2.996-.467-4.044 3.044-7.131 7.126-6.267 1.752.372 3.635.738 4.185.816.55.077 1.133-2.396 1.297-5.496.291-5.538.24-5.655-2.9-6.75-4.612-1.608-11.866-1.33-15.793.604m85.961-.296c-.862 1.039-1.097 9.094-.873 29.916l.308 28.495 3 4.169c1.65 2.293 4.45 5.067 6.223 6.164l3.222 1.996 4.662-4.405 4.661-4.404-3.134-4.327L411 106.7V80.385c0-24.993-.097-26.367-1.934-27.35-2.899-1.551-11.608-1.292-13.001.387M568 63.607c0 9.761-.14 10.539-1.75 9.751-.962-.471-4.937-.857-8.831-.857-6.139-.001-7.733.402-11.974 3.025-9.907 6.129-13.856 18.668-10.027 31.839 1.69 5.816 6.637 12.16 11.364 14.574 3.882 1.983 13.801 1.505 17.805-.858 4.347-2.564 5.117-2.588 5.882-.179.452 1.425 1.788 2.008 5.317 2.322 2.593.231 5.277.227 5.964-.009.968-.332 1.25-8.303 1.25-35.322V53h-15v10.607m42.495-8.379c-.305 1.25-.428 16.897-.274 34.772l.279 32.5 8.25.29 8.25.291V92.066l11.25-.283 11.25-.283-.092-4-.092-4-11.158-.283L627 82.934V66.068l10.75-.284 10.75-.284v-12l-18.725-.272-18.726-.272-.554 2.272m202.112-.646c-.334.87-.607 16.62-.607 35V123h18.032c19.224 0 22.87-.695 27.799-5.298 3.827-3.572 5.17-7.198 5.153-13.902-.024-8.897-2.904-13.549-10.814-17.463-.181-.09 1.305-1.665 3.304-3.5 6.499-5.968 7.07-16.295 1.289-23.309C851.9 53.629 849.336 53 830.139 53c-14.511 0-17.012.226-17.532 1.582M984 88v35h14.721l.631-5.25c.347-2.888.635-7.136.639-9.441.016-7.635 1.154-6.656 10.977 9.441l3.204 5.25h8.949c10.423 0 10.331 1.252.943-12.851-3.167-4.757-6.975-10.589-8.462-12.959l-2.703-4.311 3.034-3.456c1.669-1.9 4.617-4.845 6.551-6.543 1.934-1.698 3.516-3.671 3.516-4.385 0-1.07-4.916-4.803-8.359-6.349-.472-.212-4.597 3.334-9.167 7.88l-8.308 8.265-.683-4.553c-.375-2.505-.377-5.946-.003-7.648s.361-7.594-.029-13.092L998.742 53H984v35M370.761 54.708c-.225.436-.151 3.717.165 7.292.524 5.933.77 6.494 2.824 6.429 1.238-.04 4.521-.152 7.296-.25l5.045-.179-.295-6.75-.296-6.75-7.165-.292c-3.941-.161-7.349.064-7.574.5M655 60.897c0 3.842.337 7.17.75 7.396.413.226 3.807.198 7.543-.061l6.793-.47-.293-6.631-.293-6.631-7.25-.294-7.25-.294v6.985m116.5-4.01-5 .613-.29 8.25c-.261 7.399-.491 8.25-2.231 8.25-2.258 0-3.523 3.695-2.568 7.5.405 1.614 1.329 2.5 2.608 2.5 1.862 0 1.981.706 1.987 11.75.007 14.926 1.024 18.614 6.616 24 2.427 2.337 4.865 4.25 5.418 4.25 1.324 0 9.96-7.981 9.96-9.204 0-.523-1.35-2.3-3-3.95-2.996-2.996-3-3.016-3-14.857V84.133l2.75-.317c2.518-.289 2.776-.716 3.055-5.066.3-4.684.263-4.75-2.711-4.75h-3.016l-.289-8.75c-.328-9.932.043-9.631-10.289-8.363M827 74.046v9.045l6.715-.295c6.427-.283 6.816-.446 9.072-3.796 2.877-4.27 2.398-8.459-1.342-11.75-2.039-1.794-3.761-2.25-8.501-2.25H827v9.046m-389.5-1.881c-10.639 3.994-16.5 12.644-16.5 24.35 0 10.3 2.028 16.115 7.491 21.477 4.457 4.373 4.721 4.48 12.017 4.848 6.249.316 8.045.031 11.069-1.753l3.61-2.13 3.466 3.044c3.822 3.355 3.784 3.363 10.651-2.309l4.805-3.969-2.531-2.642c-2.498-2.607-2.535-2.884-2.805-21.098-.308-20.797-.171-20.492-7.999-17.908-3.405 1.123-4.268 1.064-6.867-.471-3.685-2.177-12.403-2.941-16.407-1.439m68.5-.274c-1.375.444-4.413 1.784-6.75 2.978-4.214 2.154-4.25 2.155-4.25.151 0-1.772-.645-2.018-5.25-2.006-2.887.007-6.262.285-7.5.616l-2.25.603V123h15V89.041l4.081-2.082c4.474-2.283 8.82-1.987 11.1.756.944 1.137 1.414 6.372 1.653 18.436l.335 16.849H526v-19.48c0-22.059-.864-26.037-6.397-29.456-3.739-2.311-10.051-3.319-13.603-2.173m225.03.222c-9.794 3.908-14.627 13.964-10.524 21.898 2.05 3.964 8.852 7.723 15.494 8.562 3.025.382 6.288 1.101 7.25 1.596 2.46 1.267 2.226 5.506-.381 6.901-2.959 1.583-14.616.743-18.773-1.353-1.872-.945-3.805-1.717-4.295-1.717-.491 0-.759 3.007-.597 6.682.286 6.464.393 6.71 3.296 7.56 1.65.484 7.275.965 12.5 1.069 8.355.166 10.102-.112 14.5-2.311 6.388-3.194 9.868-9.211 9.175-15.864-.862-8.27-6.781-13.054-17.187-13.889-4.519-.363-6.921-1.068-8.109-2.381-1.587-1.754-1.58-1.986.121-3.866 2.208-2.44 9.249-2.705 15.284-.576 2.219.783 4.301 1.158 4.626.833.324-.325.59-3.178.59-6.341v-5.75l-5.049-1.083c-6.149-1.319-14.578-1.305-17.921.03m155.041.052c-5.894 1.693-11.632 6.38-14.13 11.544-2.706 5.591-3.711 16.717-2.064 22.835 1.69 6.276 6.398 12.884 10.6 14.878 5.378 2.552 14.51 2.373 19.168-.375l3.65-2.154 3.302 3.201c3.287 3.186 3.317 3.193 6.103 1.424 4.024-2.554 8.3-6.701 8.3-8.05 0-.637-.89-1.964-1.978-2.948-1.816-1.644-2.001-3.322-2.25-20.405L916.5 73.5l-2.399-.339c-1.32-.187-3.428.211-4.685.884-2.355 1.26-3.123 1.149-9.916-1.435-4.557-1.734-8.486-1.864-13.429-.445m66.688.213c-2.057.759-4.854 2.11-6.215 3.001C943.368 77.46 943 77.421 943 75c0-1.748-.662-1.998-5.25-1.986-2.888.007-6.263.285-7.5.616l-2.25.603V123h14.952l.274-16.643.274-16.644 2.756-2.056c3.389-2.529 9.138-2.69 11.508-.324 1.484 1.481 1.782 4.199 2.052 18.7l.316 16.967H974v-19.684c0-17.57-.213-20.124-1.979-23.772-3.312-6.842-11.692-9.96-19.262-7.166m-603.611 2.134C343.909 77.507 344 77.498 344 75c0-1.73-.667-2-4.935-2-2.714 0-6.097.442-7.518.982l-2.583.982.268 23.768.268 23.768 7.25.294 7.25.294v-16.005c0-15.147.117-16.114 2.175-18.032 2.87-2.674 8.292-3.606 13.258-2.281 2.208.589 4.364.856 4.791.592 1.257-.777.896-12.842-.424-14.162-2.098-2.098-9.91-1.399-14.652 1.312m28.203-1.519c-2.832.42-5.644 1.07-6.25 1.444-.752.465-1.101 8.274-1.101 24.622V123h16.034l-.267-25.237c-.299-28.292.45-26.085-8.416-24.77m322.381 1.543c-3.59 2.44-3.732 2.459-3.732.5 0-1.77-.638-2.036-4.875-2.036-2.681 0-6.281.281-8 .625L680 74.25v48.834l7.75-.292 7.75-.292.274-16.737.274-16.737 3.097-1.601c2.822-1.459 8.402-1.572 13.855-.28 1.931.457 2 .177 2-8.145v-7h-5.768c-4.526 0-6.571.546-9.5 2.536m-43.482-.874c-.952.384-1.25 6.324-1.25 24.921V123h15V73l-6.25.079c-3.437.043-6.812.306-7.5.583M441.223 84.671c-2.182.877-5.223 8.051-5.223 12.321 0 10.673 7.161 16.626 15.453 12.847 2.508-1.142 2.547-1.33 2.547-12.339s-.039-11.197-2.547-12.339c-2.579-1.176-7.892-1.43-10.23-.49m113.085.524c-2.457 1.187-5.311 7.418-5.302 11.575.022 10.984 6.531 16.379 15.845 13.132l3.149-1.098V97.563c0-11.076-.038-11.259-2.547-12.402-3.101-1.414-8.183-1.398-11.145.034m334.802.201c-3.519 1.95-5.035 5.42-5.071 11.604-.053 9.175 4.747 14.783 11.687 13.657 5.9-.957 6.274-1.768 6.274-13.619 0-10.514-.048-10.739-2.547-11.877-3.318-1.512-7.357-1.42-10.343.235M260.253 89.75c-3.738 8.444-5.288 12.548-4.889 12.948.215.215 3.782.258 7.925.096l7.535-.294-3.585-8.75c-1.971-4.812-3.876-8.75-4.233-8.75-.357 0-1.596 2.138-2.753 4.75m567.172 2.584c-.281.733-.379 5.121-.218 9.75l.293 8.416 6.781.296c6.368.279 6.961.116 9.75-2.673 4.709-4.709 3.721-12.649-1.938-15.575-3.768-1.948-13.945-2.097-14.668-.214"/>
</svg>
