<svg xmlns="http://www.w3.org/2000/svg" width="180" height="98" style="shape-rendering:geometricPrecision;text-rendering:geometricPrecision;image-rendering:optimizeQuality;fill-rule:evenodd;clip-rule:evenodd"><path fill="#55936c" d="M98.5-.5h1c1.1 1.105 1.767 2.438 2 4-3.984-.345-6.65 1.321-8 5a5.576 5.576 0 0 1-3 1 57.486 57.486 0 0 1 8-10Z" style="opacity:1"/><path fill="#027937" d="M101.5 3.5c1 .333 1.667 1 2 2a8.43 8.43 0 0 0 .5 4 47.302 47.302 0 0 1 5.5 6 9.107 9.107 0 0 1 1 5c1.644-.213 3.144.12 4.5 1 .889 3.447 2.556 6.447 5 9 .342-2.12 1.175-2.453 2.5-1 1.075 2.355 1.075 4.689 0 7a6.846 6.846 0 0 0-4-1 6.845 6.845 0 0 1-1 4 25.178 25.178 0 0 0-7 4c-3.295-.949-6.628-.949-10 0v3a384.126 384.126 0 0 0-27 4.5 173.612 173.612 0 0 1-30-.5c-.904-.709-1.237-1.709-1-3a21.628 21.628 0 0 1 4-5c1.188-1.184 2.355-1.184 3.5 0a88.315 88.315 0 0 1 5.5-11c1.226-.863 2.56-.863 4 0-.268 2.62.065 5.12 1 7.5a28.83 28.83 0 0 1 4 1.5c2.49-1.558 5.157-2.558 8-3a24.93 24.93 0 0 1 1-8c1.175.219 2.175-.114 3-1a81.83 81.83 0 0 1 13.5-15 8.434 8.434 0 0 0 .5-4 5.576 5.576 0 0 0 3-1c1.35-3.679 4.016-5.345 8-5Z" style="opacity:1"/><path fill="#da797b" d="M71.5 19.5a51.639 51.639 0 0 1 1-7 72.046 72.046 0 0 0-11 1c4.263-1.86 8.763-3.194 13.5-4a20.073 20.073 0 0 1-3.5 10Z" style="opacity:1"/><path fill="#e28588" d="M61.5 13.5c-2.645 1.81-5.645 2.81-9 3 2.584-1.973 5.584-2.973 9-3Z" style="opacity:.929"/><path fill="#499064" d="M90.5 9.5a8.434 8.434 0 0 1-.5 4 81.83 81.83 0 0 0-13.5 15c-.825.886-1.825 1.219-3 1a185.328 185.328 0 0 1 17-20Z" style="opacity:1"/><path fill="#e1868a" d="M52.5 16.5c-1.533 1.745-3.533 2.745-6 3 1.533-1.745 3.533-2.745 6-3Z" style="opacity:.878"/><path fill="#e53d46" d="M71.5 19.5c-1.548.321-2.215 1.321-2 3a60.94 60.94 0 0 0-11 .5c-.88.708-1.547 1.542-2 2.5-.709.904-1.709 1.237-3 1-1.56-.02-3.06-.352-4.5-1-1.3 1.207-2.8 1.874-4.5 2a29.77 29.77 0 0 0-2 7c-.975 2.295-2.308 4.295-4 6h-3a51.272 51.272 0 0 1 2-14 6.541 6.541 0 0 0 3-3c1.302-2.322 3.302-3.655 6-4 2.467-.255 4.467-1.255 6-3 3.355-.19 6.355-1.19 9-3a72.046 72.046 0 0 1 11-1 51.639 51.639 0 0 0-1 7Z" style="opacity:1"/><path fill="#e17d7e" d="M71.5 19.5a9.173 9.173 0 0 1-2 4.5c-4.363.37-8.696.87-13 1.5.453-.958 1.12-1.792 2-2.5a60.94 60.94 0 0 1 11-.5c-.215-1.679.452-2.679 2-3Z" style="opacity:1"/><path fill="#eda8aa" d="M40.5 23.5a6.541 6.541 0 0 1-3 3c0-2 1-3 3-3Z" style="opacity:.624"/><path fill="#3c8a58" d="M103.5 5.5a164.386 164.386 0 0 1 19 24c-1.325-1.453-2.158-1.12-2.5 1-2.444-2.553-4.111-5.553-5-9-1.356-.88-2.856-1.213-4.5-1a9.107 9.107 0 0 0-1-5 47.302 47.302 0 0 0-5.5-6 8.43 8.43 0 0 1-.5-4Z" style="opacity:1"/><path fill="#d7b2b3" d="M30.5 31.5c.237-1.291-.096-2.291-1-3 .104-2.473 1.104-3.14 3-2-.528 1.836-1.194 3.503-2 5Z" style="opacity:.788"/><path fill="#e26365" d="M53.5 26.5a106.62 106.62 0 0 0-11 8 29.77 29.77 0 0 1 2-7c1.7-.126 3.2-.793 4.5-2 1.44.648 2.94.98 4.5 1Z" style="opacity:1"/><path fill="#c68788" d="M29.5 28.5c.904.709 1.237 1.709 1 3a40.936 40.936 0 0 1-.5 9c-2.97-3.997-3.137-7.997-.5-12Z" style="opacity:.843"/><path fill="#dd7e7f" d="M37.5 26.5a51.272 51.272 0 0 0-2 14h3a10.123 10.123 0 0 1-1.5 4c-4.776-6.268-4.61-12.268.5-18Z" style="opacity:1"/><path fill="#d9b4b0" d="M26.5 28.5c.597.235.93.735 1 1.5a59.247 59.247 0 0 0-1.5 7.5c-2.035-3.125-1.868-6.125.5-9Z" style="opacity:.529"/><path fill="#458d60" d="M59.5 31.5c-1.44-.863-2.774-.863-4 0a88.315 88.315 0 0 0-5.5 11c-1.145-1.184-2.312-1.184-3.5 0 2.752-4.6 5.752-9.1 9-13.5 1.912-.28 3.246.554 4 2.5Z" style="opacity:1"/><path fill="#297b44" d="M122.5 29.5a30.572 30.572 0 0 1 7 8c.086.996-.248 1.83-1 2.5-5.928 1.39-11.595 3.224-17 5.5-4.651.127-8.985 1.127-13 3h-2c-2.928.065-5.595.732-8 2h-2c-6.22.457-12.22 1.457-18 3h-16c-2.773-1.157-5.773-1.824-9-2v-1a173.612 173.612 0 0 0 30 .5 384.126 384.126 0 0 1 27-4.5v-3c3.372-.949 6.705-.949 10 0a25.178 25.178 0 0 1 7-4 6.845 6.845 0 0 0 1-4 6.846 6.846 0 0 1 4 1c1.075-2.311 1.075-4.645 0-7Z" style="opacity:1"/><path fill="#e07b7d" d="M142.5 42.5v-4c-3.018.204-6.018.537-9 1 4.387-2.097 9.054-3.263 14-3.5a63.404 63.404 0 0 1-5 6.5Z" style="opacity:1"/><path fill="#338352" d="M73.5 29.5a24.93 24.93 0 0 0-1 8c-2.843.442-5.51 1.442-8 3a28.83 28.83 0 0 0-4-1.5c-.935-2.38-1.268-4.88-1-7.5a59.463 59.463 0 0 1 5.5 7 106.25 106.25 0 0 0 8.5-9Z" style="opacity:1"/><path fill="#d2a99c" d="m129.5 37.5 2 2c-6.226 3.121-12.893 5.121-20 6 5.405-2.276 11.072-4.11 17-5.5.752-.67 1.086-1.504 1-2.5Z" style="opacity:.863"/><path fill="#e78e90" d="M142.5 42.5c-.25 2.174-1.25 3.84-3 5-.259-2.49.741-4.156 3-5Z" style="opacity:1"/><path fill="#e13b45" d="M142.5 42.5c-2.259.844-3.259 2.51-3 5v1c-1.406.473-2.073 1.473-2 3a61.53 61.53 0 0 1-10 4c-2.928.065-5.595.732-8 2a41.742 41.742 0 0 0-9 1c1.49-1.78 3.49-2.447 6-2-.219-1.175.114-2.175 1-3 2.994 1.248 5.994 1.248 9 0a6.807 6.807 0 0 0-3-1.5 58.858 58.858 0 0 1-15-2.5 75.777 75.777 0 0 1-15 1l3-2h2c4.592-.382 8.925-1.382 13-3 7.107-.879 13.774-2.879 20-6h2c2.982-.463 5.982-.796 9-1v4Z" style="opacity:1"/><path fill="#e0b8ac" d="M111.5 45.5c-4.075 1.618-8.408 2.618-13 3 4.015-1.873 8.349-2.873 13-3Z" style="opacity:.576"/><path fill="#e3b5ab" d="m96.5 48.5-3 2h-5c2.405-1.268 5.072-1.935 8-2Z" style="opacity:.624"/><path fill="#d5aaa1" d="M42.5 47.5c-.237 1.291.096 2.291 1 3v1c-1.467-.792-2.8-.792-4 0 1.69 2.02 3.356 4.02 5 6a17.908 17.908 0 0 1-6-4c-.824-1.955-.99-3.955-.5-6 1.65 2.606 3.15 2.606 4.5 0Z" style="opacity:.937"/><path fill="#d6d0c5" d="M139.5 48.5v2l-2 1c-.073-1.527.594-2.527 2-3Z" style="opacity:.302"/><path fill="#80b393" d="M139.5 50.5c2.087 1.085 3.42 2.751 4 5-2.087-1.085-3.42-2.751-4-5Z" style="opacity:.949"/><path fill="#e0c5b9" d="M43.5 51.5c3.227.176 6.227.843 9 2-3.33.285-6.33-.382-9-2Z" style="opacity:.18"/><path fill="#d7aa9e" d="M86.5 50.5c-5.654 2.276-11.654 3.276-18 3 5.78-1.543 11.78-2.543 18-3Z" style="opacity:.867"/><path fill="#d55559" d="M86.5 50.5h5c-7.4 3.65-15.4 4.984-24 4-5.195.32-10.195-.013-15-1h16c6.346.276 12.346-.724 18-3Z" style="opacity:1"/><path fill="#d4bdaa" d="M137.5 51.5c.086.996-.248 1.83-1 2.5a30.446 30.446 0 0 1-9 1.5 61.53 61.53 0 0 0 10-4Z" style="opacity:.259"/><path fill="#e83642" d="M110.5 58.5h-1c-4.51-.229-8.843.438-13 2-6.19-.117-12.357.216-18.5 1A479.182 479.182 0 0 0 58.5 60l1-1c-1.743-1.635-3.577-1.802-5.5-.5-2.355-.459-4.521-1.292-6.5-2.5 3.516-.5 7.016-.333 10.5.5 3.377-.307 6.543-.974 9.5-2 8.6.984 16.6-.35 24-4h2a75.777 75.777 0 0 0 15-1 58.858 58.858 0 0 0 15 2.5c1.124.25 2.124.75 3 1.5-3.006 1.248-6.006 1.248-9 0-.886.825-1.219 1.825-1 3-2.51-.447-4.51.22-6 2Z" style="opacity:1"/><path fill="#de5559" d="M43.5 51.5c2.67 1.618 5.67 2.285 9 2 4.805.987 9.805 1.32 15 1-2.957 1.026-6.123 1.693-9.5 2-3.484-.833-6.984-1-10.5-.5 1.979 1.208 4.145 2.041 6.5 2.5 1.923-1.302 3.757-1.135 5.5.5l-1 1c6.511.367 13.011.867 19.5 1.5a126.915 126.915 0 0 1 18.5-1v1c-14.333 2.576-28.666 2.576-43 0-1.714-1.238-3.714-1.905-6-2-.473-1.406-1.473-2.073-3-2-1.644-1.98-3.31-3.98-5-6 1.2-.792 2.533-.792 4 0Z" style="opacity:1"/><path fill="#c8b8a7" d="M127.5 55.5c-2.338 1.54-5.005 2.206-8 2 2.405-1.268 5.072-1.935 8-2Z" style="opacity:.635"/><path fill="#cebea9" d="M44.5 57.5c1.527-.073 2.527.594 3 2h-1c-1-.333-1.667-1-2-2Z" style="opacity:.576"/><path fill="#d86e6e" d="M109.5 58.5v1c-2.582-.475-4.582.192-6 2h-7v-1c4.157-1.562 8.49-2.229 13-2Z" style="opacity:1"/><path fill="#e2c2b4" d="M119.5 57.5v1l-10 1v-1h1a41.742 41.742 0 0 1 9-1Z" style="opacity:.259"/><path fill="#10763b" d="M139.5 50.5c.58 2.249 1.913 3.915 4 5 .667 0 1 .333 1 1a5.575 5.575 0 0 0 1 3 131.226 131.226 0 0 1-28 .5c.916-.278 1.582-.778 2-1.5v-1c2.995.206 5.662-.46 8-2a30.446 30.446 0 0 0 9-1.5c.752-.67 1.086-1.504 1-2.5l2-1Z" style="opacity:.957"/><path fill="#1a783e" d="M38.5 53.5a17.908 17.908 0 0 0 6 4c.333 1 1 1.667 2 2-3.519 1.308-7.185 1.308-11 0a5.576 5.576 0 0 0 1-3c-.073-1.527.594-2.527 2-3Z" style="opacity:1"/><path fill="#58916c" d="M36.5 56.5a5.576 5.576 0 0 1-1 3c3.815 1.308 7.481 1.308 11 0h1c2.286.095 4.286.762 6 2-7.008.166-14.008 0-21-.5.828-1.992 2.161-3.492 4-4.5Z" style="opacity:.866"/><path fill="#3b845a" d="M144.5 56.5a32.634 32.634 0 0 1 4 4.5c-14.996.5-29.996.667-45 .5 1.418-1.808 3.418-2.475 6-2l10-1c-.418.722-1.084 1.222-2 1.5 9.351.832 18.684.665 28-.5a5.575 5.575 0 0 1-1-3Z" style="opacity:.867"/><path fill="#a0a1a2" d="M31.5 90.5v-23h-6v23c-.992-7.816-1.326-15.816-1-24h8c.326 8.184-.008 16.184-1 24Z" style="opacity:.627"/><path fill="#adaeaf" d="M43.5 67.5h-8v23c-.992-7.816-1.326-15.816-1-24 3.213-.31 6.213.023 9 1Z" style="opacity:.553"/><path fill="#717273" d="M43.5 67.5c1.96 2.677 3.46 5.677 4.5 9l4.5-9h8v23h-6a60.94 60.94 0 0 0-.5-11l-1.5 3a38 38 0 0 1-4.5 10 67.372 67.372 0 0 1-4.5-10c.039-1.256-.461-2.256-1.5-3a60.94 60.94 0 0 0-.5 11h-6v-23h8Z" style="opacity:1"/><path fill="#6e7070" d="M71.5 73.5c1.418 1.808 3.418 2.475 6 2v6c-2.235-.295-4.235.039-6 1v1c1.765.961 3.765 1.295 6 1v6h-13v-23h13v5c-2.235-.295-4.235.039-6 1Z" style="opacity:1"/><path fill="#b5b6b7" d="M101.5 90.5v-23h-6a31.121 31.121 0 0 1-1 11c-.797-.457-1.13-1.124-1-2 .98-3.125 1.313-6.458 1-10h8c.326 8.184-.008 16.184-1 24Z" style="opacity:.426"/><path fill="#6e6f6f" d="M31.5 90.5h-6v-23h6v23Z" style="opacity:1"/><path fill="#a1a2a2" d="M52.5 67.5c2.787-.977 5.787-1.31 9-1 .326 8.184-.008 16.184-1 24v-23h-8Z" style="opacity:.675"/><path fill="#757778" d="M134.5 66.5c3.277-.284 6.443.05 9.5 1a185.324 185.324 0 0 1 7.5 23c-4.391.266-8.557-.4-12.5-2-4.091 1.804-8.258 2.137-12.5 1a234.734 234.734 0 0 0 8-23Zm4 12c1.832.64 2.165 1.64 1 3-.886-.825-1.219-1.825-1-3Z" style="opacity:1"/><path fill="#777879" d="M93.5 76.5c-.13.876.203 1.543 1 2a31.121 31.121 0 0 0 1-11h6v23c-6.38.96-10.38-1.707-12-8 .039-1.256-.461-2.256-1.5-3a60.94 60.94 0 0 0-.5 11h-8c-.166-7.674 0-15.34.5-23 2.795-1.282 5.628-1.282 8.5 0a60.038 60.038 0 0 1 5 9Z" style="opacity:1"/><path fill="#b1b2b2" d="M161.5 67.5h-8v23c-.992-7.816-1.326-15.816-1-24 3.213-.31 6.213.023 9 1Z" style="opacity:.517"/><path fill="#9e9e9f" d="M170.5 67.5c2.787-.977 5.787-1.31 9-1v24h-1v-23h-8Z" style="opacity:.698"/><path fill="#b4b5b5" d="M71.5 73.5c1.765-.961 3.765-1.295 6-1v-5h-13v23c-.992-7.816-1.326-15.816-1-24h15v7h-7Z" style="opacity:.404"/><path fill="#d2d2d3" d="m43.5 82.5-2 8a60.94 60.94 0 0 1 .5-11c1.039.744 1.539 1.744 1.5 3Z" style="opacity:.251"/><path fill="#e4e4e4" d="m54.5 90.5-2-8 1.5-3a60.94 60.94 0 0 1 .5 11Z" style="opacity:.16"/><path fill="#e0dfdf" d="M77.5 75.5c.968 2.107 1.302 4.44 1 7h-7c1.765-.961 3.765-1.295 6-1v-6Z" style="opacity:.067"/><path fill="#78797a" d="M111.5 66.5a60.94 60.94 0 0 1 11 .5c5.299 2.95 5.299 5.95 0 9-2.324-1.582-4.99-2.249-8-2-3.852 3.142-3.852 6.142 0 9 3.136 1.04 5.636.207 7.5-2.5 5.447 1.966 6.28 4.8 2.5 8.5-9.661 4.911-16.494 2.411-20.5-7.5-1.167-6.96 1.333-11.96 7.5-15Z" style="opacity:1"/><path fill="#d3d2d3" d="M71.5 83.5h7c.302 2.56-.032 4.893-1 7v-6c-2.235.295-4.235-.039-6-1Z" style="opacity:.22"/><path fill="#e7e0e0" d="m89.5 82.5-2 8a60.94 60.94 0 0 1 .5-11c1.039.744 1.539 1.744 1.5 3Z" style="opacity:.133"/><path fill="#7e7f80" d="M-.5 79.5v-1c2.004-10.356 8.337-14.19 19-11.5 6.855 3.701 6.521 6.868-1 9.5-2.507-3.452-5.34-3.786-8.5-1-1.668 5.993.498 8.493 6.5 7.5l2.5-2.5c7.329 4.106 6.829 7.606-1.5 10.5-9.566 1.571-15.232-2.262-17-11.5Z" style="opacity:1"/><path fill="#707172" d="M161.5 67.5c1.997 2.66 3.497 5.66 4.5 9l4.5-9h8v23h-6a60.93 60.93 0 0 0-.5-11l-1.5 3a37.974 37.974 0 0 1-4.5 10 67.454 67.454 0 0 1-4.5-10c.039-1.256-.461-2.256-1.5-3a60.93 60.93 0 0 0-.5 11h-6v-23h8Z" style="opacity:1"/><path fill="#ebe3e3" d="m172.5 90.5-2-8 1.5-3a60.93 60.93 0 0 1 .5 11Z" style="opacity:.133"/><path fill="#cfd0ce" d="m161.5 82.5-2 8a60.93 60.93 0 0 1 .5-11c1.039.744 1.539 1.744 1.5 3Z" style="opacity:.302"/><path fill="#5a9d76" d="M179.5 93.5v4H.5c0-.667-.333-1-1-1v-2a8146.092 8146.092 0 0 1 180-1Z" style="opacity:1"/></svg>