<svg xmlns="http://www.w3.org/2000/svg" width="172" height="160" fill="none">
  <path fill="#6E55FF" d="M84.007 4.508C78.187.178 70.872-1.107 63.925.977L16.933 15.074C7.252 17.98.743 26.72.743 36.832V137.27c0 7.252 3.337 13.894 9.156 18.218 5.82 4.331 13.142 5.615 20.082 3.532l35.08-10.527a38.64 38.64 0 0 1-1.653-11.223V91.657c0-9.579 3.493-18.727 9.853-25.745 4.667-5.17 10.722-8.983 17.489-11.02l2.412-.688v-31.47c0-7.253-3.336-13.895-9.156-18.226Z"/>
  <path fill="#6E55FF" d="M171.484 77.559v45.614c0 10.104-6.501 18.852-16.19 21.75l-46.992 14.098a22.785 22.785 0 0 1-6.587.979c-4.801 0-9.5-1.535-13.495-4.511a22.677 22.677 0 0 1-4.707-4.7 22.022 22.022 0 0 1-3.51-7.002c-.007 0-.014 0-.022.008l.015-.016a23.313 23.313 0 0 1-.932-6.508V91.657c0-4.684 1.394-9.078 3.854-12.728a22.552 22.552 0 0 1 10.244-8.294 23.35 23.35 0 0 1 2.092-.736l5.749-1.723L142.247 55.8c6.947-2.084 14.262-.799 20.081 3.532 5.82 4.331 9.156 10.973 9.156 18.226Z"/>
</svg>
