<svg xmlns="http://www.w3.org/2000/svg" width="632" height="632">
  <path fill="#07569b" fill-rule="evenodd" d="M39.495 36.008c-.287.465 1.554 5.559 4.092 11.321l4.615 10.477 6.149 2.227c7.205 2.611 78.827 29.496 82.976 31.148 2.839 1.13 6.422 5.403 5.394 6.431-.483.483-45.109-15.903-79.119-29.05-6.544-2.53-12.091-4.406-12.328-4.169-.711.711 5.482 14.046 6.907 14.872 1.149.666 46.945 17.935 79.319 29.91 9.966 3.686 14.5 6.48 14.5 8.936 0 .489-.562.886-1.25.883-.687-.004-20.375-7.252-43.75-16.108-23.375-8.856-43.543-16.337-44.818-16.624-2.582-.581-2.838-1.71 2.303 10.17.817 1.887 1.925 3.704 2.464 4.036.538.333 21.357 8.254 46.265 17.603 24.907 9.348 45.849 17.743 46.536 18.654 1.846 2.448 1.575 4.606-.5 3.981-1.618-.487-83.571-31.583-87.5-33.2-1.205-.496-1.75-.257-1.75.766 0 2.043 4.775 12.307 6.278 13.496.672.531 21.436 8.56 46.143 17.841 24.706 9.281 45.518 17.473 46.25 18.204.731.732 1.329 2.123 1.329 3.093 0 1.46-7.159-.936-41.75-13.973-22.962-8.655-43.437-16.461-45.5-17.348-4.714-2.026-4.808-1.195-.852 7.527l2.898 6.388 43.852 16.401c24.119 9.021 45.113 17.032 46.654 17.803 2.387 1.193 5.074 5.115 4.185 6.109-.238.266-51.08-18.635-81.381-30.255-5.167-1.982-9.627-3.371-9.91-3.087-.749.749 5.5 13.895 7.019 14.765.707.404 21.31 8.204 45.785 17.332 27.892 10.403 45.153 17.354 46.25 18.625 2.336 2.707 2.336 5.272 0 4.272-3.177-1.361-82.681-31.603-85.999-32.713-1.787-.598-3.493-.843-3.791-.546-.297.298.952 3.63 2.776 7.405l3.316 6.863 29.974 11.259c63.672 23.917 62.617 23.487 63.743 25.958.581 1.275.843 2.531.582 2.791-.395.396-67.201-24.358-84.731-31.396-2.959-1.187-5.613-1.926-5.899-1.641-1.163 1.163 4.632 10.37 9.779 15.535 13.637 13.686 45.599 27.424 123.515 53.088 45.07 14.846 63.712 21.927 83.985 31.905 32.112 15.804 57.876 35.99 71.51 56.029 6.579 9.67 20.091 33.477 28.8 50.744 4.23 8.385 7.927 15.248 8.217 15.25.654.005 48.57-45.732 87.973-83.971 19.434-18.861 31.377-29.688 35-31.731 9.335-5.265 17.743-7.294 30.23-7.294h11.02l-.62-3.1c-1.815-9.076-14.115-16.767-31.13-19.466-8.263-1.311-14.568-1.462-36.303-.87l-26.303.716 2.553 2.664c1.404 1.466 2.553 3.011 2.553 3.434 0 .423-7.087 4.167-15.75 8.32-8.663 4.153-34.408 16.732-57.212 27.952-22.804 11.221-41.941 20.218-42.526 19.993-1.011-.388-8.918-17.373-54.532-117.143-10.813-23.65-20.693-45.025-21.957-47.5-10.208-19.999-32.72-38.911-60.626-50.931-4.893-2.108-25.097-9.92-44.897-17.36C88.148 53.735 55.845 41.546 48.381 38.536c-4.6-1.855-8.599-2.992-8.886-2.528M533 278.845c0 3.011 3.744 5.632 7.834 5.485 4.433-.16 15.516-4.954 14.659-6.341-.343-.555-5.415-.989-11.552-.989-9.968 0-10.941.164-10.941 1.845M75.293 501.01c-11.531 1.686-25.802 11.357-31.76 21.523-7.211 12.305-7.362 30.849-.363 44.776 10.404 20.707 39.55 28.953 62.11 17.572 4.126-2.081 14.623-9.89 14.628-10.881.001-.275-2.394-3.096-5.322-6.268l-5.325-5.768-4.851 4.009c-6.823 5.638-10.922 7.37-18.539 7.835-17.423 1.062-30.284-9.626-31.621-26.278-.673-8.387 1.609-15.045 7.343-21.422 6.266-6.969 12.006-9.537 21.407-9.576 8.534-.035 15.773 2.696 22.272 8.402l3.681 3.232 5.511-4.833c3.031-2.658 5.516-5.385 5.523-6.06.03-2.882-14.814-12.6-22.987-15.048-5.027-1.506-15.65-2.101-21.707-1.215m353.185-.04c-12.645 1.903-25.913 12.061-32.098 24.575-3.118 6.309-3.696 8.59-4.137 16.33-.572 10.032.499 15.774 4.463 23.924 12.491 25.684 47.944 32.313 69.002 12.903 9.9-9.126 14.292-19.287 14.292-33.065 0-19.446-9.629-34.315-27.224-42.041-5.965-2.619-16.66-3.775-24.298-2.626m80.461.435c-9.955 2.597-16.272 10.593-16.272 20.595 0 7.888 3.084 12.815 14.508 23.177 15.521 14.077 17.661 16.322 18.409 19.303.997 3.97-1.272 7.628-5.799 9.351-3.364 1.28-4.056 1.216-8.123-.752-2.643-1.28-5.494-3.739-7.035-6.066l-2.59-3.914-6.268 3.81c-3.448 2.095-6.406 4.502-6.572 5.347-.511 2.588 7.959 11.948 13.297 14.695 6.735 3.466 19.872 3.662 26.019.388 9.321-4.965 12.94-10.92 12.967-21.339.026-9.638-2.553-14.277-13.174-23.695-21.122-18.729-21.997-19.876-18.226-23.89 3.962-4.217 9.945-3.011 15.42 3.107l3 3.353 6-5.381 6-5.382-4.48-4.578c-7.559-7.725-17.358-10.666-27.081-8.129M231.084 503.5c-.407.55-3.777 18.775-7.489 40.5-3.713 21.725-6.99 40.513-7.281 41.75-.517 2.192-.322 2.25 7.578 2.25 4.459 0 8.109-.112 8.11-.25.014-1.552 9.045-52.13 9.366-52.451.24-.24 4.327 11.52 9.082 26.132L259.095 588h6.917c5.57 0 7.098-.341 7.841-1.75.508-.962 4.372-12.1 8.587-24.75 4.214-12.65 7.875-23.627 8.135-24.393.26-.766.771-1.095 1.136-.73.365.365 2.521 12.017 4.792 25.893l4.128 25.23 7.685.292c7.441.283 7.682.22 7.632-2-.028-1.261-3.085-20.292-6.793-42.292l-6.741-40-8.111-.289-8.111-.289-9.7 29.102c-5.335 16.005-9.917 28.885-10.182 28.62-.264-.265-4.737-13.308-9.939-28.985l-9.458-28.504-7.545-.328c-4.275-.185-7.866.106-8.284.673m98.331-.583c-.228.229-.415 19.485-.415 42.79v42.374l8.25-.291 8.25-.29-.349-17.605-.348-17.606 3.223-.644c1.773-.355 5.755-.655 8.849-.667 9.822-.038 18.344-5.747 21.7-14.535 2.032-5.32 1.587-16.296-.852-21.012-2.493-4.821-7.65-9.25-12.636-10.853-4.226-1.358-34.566-2.771-35.672-1.661m220 0c-.228.229-.415 3.972-.415 8.317v7.9l7.25-.235 7.25-.236.5 34.418.5 34.419 8.237.29 8.237.29.263-34.79.263-34.79 7.25.357 7.25.356v-16.141l-23.085-.286c-12.697-.157-23.272-.098-23.5.131M144.767 543.75a42817.754 42817.754 0 0 0-16.322 42.5c-.594 1.577.142 1.75 7.44 1.75 9.275 0 8.788.394 12.978-10.503l2.69-6.997H186.5l3.164 8.5 3.165 8.5 8.585.289c4.722.159 8.586.055 8.586-.23 0-.285-1.752-4.916-3.893-10.291-2.141-5.374-9.163-23.496-15.603-40.27-6.441-16.774-12.13-31.286-12.643-32.248-.772-1.45-2.346-1.75-9.181-1.75h-8.251l-15.662 40.75m285.38-26.712c-13.921 2.855-23.327 16.398-21.766 31.338.82 7.843 3.732 13.673 9.258 18.538 13.822 12.166 34.761 8.133 43.689-8.414 3.152-5.843 3.11-20.213-.077-26.194-6.213-11.662-18.73-17.806-31.104-15.268m-84.677 2.178c-.31.809-.43 4.804-.267 8.878l.297 7.406 5.164.299c6.555.38 12.047-1.8 12.878-5.112 1.863-7.423-1.637-11.233-11.275-12.27-5.003-.539-6.343-.381-6.797.799m-176.807 7.521c-1.734 2.806-10.506 26.707-10.064 27.423.671 1.086 20.121 1.102 20.792.017.28-.453-1.886-7.029-4.813-14.613-2.927-7.584-5.588-13.356-5.915-12.827"/>
  <path fill="#fbd304" fill-rule="evenodd" d="M0 316.002v316.001l316.25-.251 316.25-.252.252-315.75L633.003 0H0v316.002m.494.498c0 173.8.115 244.751.256 157.669.141-87.082.141-229.282 0-316C.609 71.451.494 142.7.494 316.5M39.495 36.008c-.287.465 1.554 5.559 4.092 11.321l4.615 10.477 6.149 2.227c7.205 2.611 78.827 29.496 82.976 31.148 2.839 1.13 6.422 5.403 5.394 6.431-.483.483-45.109-15.903-79.119-29.05-6.544-2.53-12.091-4.406-12.328-4.169-.711.711 5.482 14.046 6.907 14.872 1.149.666 46.945 17.935 79.319 29.91 9.966 3.686 14.5 6.48 14.5 8.936 0 .489-.562.886-1.25.883-.687-.004-20.375-7.252-43.75-16.108-23.375-8.856-43.543-16.337-44.818-16.624-2.582-.581-2.838-1.71 2.303 10.17.817 1.887 1.925 3.704 2.464 4.036.538.333 21.357 8.254 46.265 17.603 24.907 9.348 45.849 17.743 46.536 18.654 1.846 2.448 1.575 4.606-.5 3.981-1.618-.487-83.571-31.583-87.5-33.2-1.205-.496-1.75-.257-1.75.766 0 2.043 4.775 12.307 6.278 13.496.672.531 21.436 8.56 46.143 17.841 24.706 9.281 45.518 17.473 46.25 18.204.731.732 1.329 2.123 1.329 3.093 0 1.46-7.159-.936-41.75-13.973-22.962-8.655-43.437-16.461-45.5-17.348-4.714-2.026-4.808-1.195-.852 7.527l2.898 6.388 43.852 16.401c24.119 9.021 45.113 17.032 46.654 17.803 2.387 1.193 5.074 5.115 4.185 6.109-.238.266-51.08-18.635-81.381-30.255-5.167-1.982-9.627-3.371-9.91-3.087-.749.749 5.5 13.895 7.019 14.765.707.404 21.31 8.204 45.785 17.332 27.892 10.403 45.153 17.354 46.25 18.625 2.336 2.707 2.336 5.272 0 4.272-3.177-1.361-82.681-31.603-85.999-32.713-1.787-.598-3.493-.843-3.791-.546-.297.298.952 3.63 2.776 7.405l3.316 6.863 29.974 11.259c63.672 23.917 62.617 23.487 63.743 25.958.581 1.275.843 2.531.582 2.791-.395.396-67.201-24.358-84.731-31.396-2.959-1.187-5.613-1.926-5.899-1.641-1.163 1.163 4.632 10.37 9.779 15.535 13.637 13.686 45.599 27.424 123.515 53.088 45.07 14.846 63.712 21.927 83.985 31.905 32.112 15.804 57.876 35.99 71.51 56.029 6.579 9.67 20.091 33.477 28.8 50.744 4.23 8.385 7.927 15.248 8.217 15.25.654.005 48.57-45.732 87.973-83.971 19.434-18.861 31.377-29.688 35-31.731 9.335-5.265 17.743-7.294 30.23-7.294h11.02l-.62-3.1c-1.815-9.076-14.115-16.767-31.13-19.466-8.263-1.311-14.568-1.462-36.303-.87l-26.303.716 2.553 2.664c1.404 1.466 2.553 3.011 2.553 3.434 0 .423-7.087 4.167-15.75 8.32-8.663 4.153-34.408 16.732-57.212 27.952-22.804 11.221-41.941 20.218-42.526 19.993-1.011-.388-8.918-17.373-54.532-117.143-10.813-23.65-20.693-45.025-21.957-47.5-10.208-19.999-32.72-38.911-60.626-50.931-4.893-2.108-25.097-9.92-44.897-17.36C88.148 53.735 55.845 41.546 48.381 38.536c-4.6-1.855-8.599-2.992-8.886-2.528M533 278.845c0 3.011 3.744 5.632 7.834 5.485 4.433-.16 15.516-4.954 14.659-6.341-.343-.555-5.415-.989-11.552-.989-9.968 0-10.941.164-10.941 1.845M75.293 501.01c-11.531 1.686-25.802 11.357-31.76 21.523-7.211 12.305-7.362 30.849-.363 44.776 10.404 20.707 39.55 28.953 62.11 17.572 4.126-2.081 14.623-9.89 14.628-10.881.001-.275-2.394-3.096-5.322-6.268l-5.325-5.768-4.851 4.009c-6.823 5.638-10.922 7.37-18.539 7.835-17.423 1.062-30.284-9.626-31.621-26.278-.673-8.387 1.609-15.045 7.343-21.422 6.266-6.969 12.006-9.537 21.407-9.576 8.534-.035 15.773 2.696 22.272 8.402l3.681 3.232 5.511-4.833c3.031-2.658 5.516-5.385 5.523-6.06.03-2.882-14.814-12.6-22.987-15.048-5.027-1.506-15.65-2.101-21.707-1.215m353.185-.04c-12.645 1.903-25.913 12.061-32.098 24.575-3.118 6.309-3.696 8.59-4.137 16.33-.572 10.032.499 15.774 4.463 23.924 12.491 25.684 47.944 32.313 69.002 12.903 9.9-9.126 14.292-19.287 14.292-33.065 0-19.446-9.629-34.315-27.224-42.041-5.965-2.619-16.66-3.775-24.298-2.626m80.461.435c-9.955 2.597-16.272 10.593-16.272 20.595 0 7.888 3.084 12.815 14.508 23.177 15.521 14.077 17.661 16.322 18.409 19.303.997 3.97-1.272 7.628-5.799 9.351-3.364 1.28-4.056 1.216-8.123-.752-2.643-1.28-5.494-3.739-7.035-6.066l-2.59-3.914-6.268 3.81c-3.448 2.095-6.406 4.502-6.572 5.347-.511 2.588 7.959 11.948 13.297 14.695 6.735 3.466 19.872 3.662 26.019.388 9.321-4.965 12.94-10.92 12.967-21.339.026-9.638-2.553-14.277-13.174-23.695-21.122-18.729-21.997-19.876-18.226-23.89 3.962-4.217 9.945-3.011 15.42 3.107l3 3.353 6-5.381 6-5.382-4.48-4.578c-7.559-7.725-17.358-10.666-27.081-8.129M231.084 503.5c-.407.55-3.777 18.775-7.489 40.5-3.713 21.725-6.99 40.513-7.281 41.75-.517 2.192-.322 2.25 7.578 2.25 4.459 0 8.109-.112 8.11-.25.014-1.552 9.045-52.13 9.366-52.451.24-.24 4.327 11.52 9.082 26.132L259.095 588h6.917c5.57 0 7.098-.341 7.841-1.75.508-.962 4.372-12.1 8.587-24.75 4.214-12.65 7.875-23.627 8.135-24.393.26-.766.771-1.095 1.136-.73.365.365 2.521 12.017 4.792 25.893l4.128 25.23 7.685.292c7.441.283 7.682.22 7.632-2-.028-1.261-3.085-20.292-6.793-42.292l-6.741-40-8.111-.289-8.111-.289-9.7 29.102c-5.335 16.005-9.917 28.885-10.182 28.62-.264-.265-4.737-13.308-9.939-28.985l-9.458-28.504-7.545-.328c-4.275-.185-7.866.106-8.284.673m98.331-.583c-.228.229-.415 19.485-.415 42.79v42.374l8.25-.291 8.25-.29-.349-17.605-.348-17.606 3.223-.644c1.773-.355 5.755-.655 8.849-.667 9.822-.038 18.344-5.747 21.7-14.535 2.032-5.32 1.587-16.296-.852-21.012-2.493-4.821-7.65-9.25-12.636-10.853-4.226-1.358-34.566-2.771-35.672-1.661m220 0c-.228.229-.415 3.972-.415 8.317v7.9l7.25-.235 7.25-.236.5 34.418.5 34.419 8.237.29 8.237.29.263-34.79.263-34.79 7.25.357 7.25.356v-16.141l-23.085-.286c-12.697-.157-23.272-.098-23.5.131M144.767 543.75a42817.754 42817.754 0 0 0-16.322 42.5c-.594 1.577.142 1.75 7.44 1.75 9.275 0 8.788.394 12.978-10.503l2.69-6.997H186.5l3.164 8.5 3.165 8.5 8.585.289c4.722.159 8.586.055 8.586-.23 0-.285-1.752-4.916-3.893-10.291-2.141-5.374-9.163-23.496-15.603-40.27-6.441-16.774-12.13-31.286-12.643-32.248-.772-1.45-2.346-1.75-9.181-1.75h-8.251l-15.662 40.75m285.38-26.712c-13.921 2.855-23.327 16.398-21.766 31.338.82 7.843 3.732 13.673 9.258 18.538 13.822 12.166 34.761 8.133 43.689-8.414 3.152-5.843 3.11-20.213-.077-26.194-6.213-11.662-18.73-17.806-31.104-15.268m-84.677 2.178c-.31.809-.43 4.804-.267 8.878l.297 7.406 5.164.299c6.555.38 12.047-1.8 12.878-5.112 1.863-7.423-1.637-11.233-11.275-12.27-5.003-.539-6.343-.381-6.797.799m-176.807 7.521c-1.734 2.806-10.506 26.707-10.064 27.423.671 1.086 20.121 1.102 20.792.017.28-.453-1.886-7.029-4.813-14.613-2.927-7.584-5.588-13.356-5.915-12.827"/>
</svg>
