<svg xmlns="http://www.w3.org/2000/svg" width="450" height="450" viewBox="0 0 450 450" version="1.1"><path d="M 159.635 162.073 C 156.270 164.720, 156.238 168.329, 159.550 171.641 C 162.509 174.600, 166.339 174.287, 169.250 170.847 C 171.663 167.995, 171.441 165.350, 168.545 162.455 C 165.547 159.456, 163.095 159.351, 159.635 162.073 M 394 182.500 L 394 189 402 189 L 410 189 410 182.500 L 410 176 402 176 L 394 176 394 182.500 M 189.385 196.617 C 183.475 198.713, 177.526 204.225, 174.501 210.409 C 167.358 225.008, 172.267 241.652, 186 249.398 C 191.026 252.233, 192.276 252.499, 200.500 252.493 C 210.085 252.485, 213.763 251.220, 220.500 245.613 L 223.500 243.116 218.884 238.455 L 214.268 233.794 210.200 236.487 C 199.305 243.696, 187 236.762, 187 223.413 C 187 210.619, 200.591 203.736, 210.083 211.723 L 213.096 214.259 215.646 211.879 C 217.048 210.571, 219.136 208.187, 220.286 206.582 L 222.376 203.664 218.646 200.440 C 216.595 198.667, 212.937 196.718, 210.516 196.108 C 204.530 194.601, 194.381 194.846, 189.385 196.617 M 248 195.690 C 242.966 196.530, 235 199.077, 235 199.846 C 235 200.281, 235.706 203.015, 236.569 205.922 C 238.055 210.926, 238.281 211.170, 240.819 210.514 C 242.294 210.133, 247.201 209.591, 251.725 209.309 C 259.837 208.804, 259.993 208.839, 262.975 211.821 C 264.816 213.663, 266 215.881, 266 217.490 C 266 219.808, 265.722 220.034, 263.750 219.317 C 262.512 218.868, 256.966 218.500, 251.425 218.500 C 242.189 218.500, 241.015 218.722, 237.331 221.161 C 232.467 224.382, 230 229.206, 230 235.500 C 230 241.795, 232.467 246.619, 237.333 249.839 C 240.806 252.138, 242.395 252.500, 249 252.500 C 255.667 252.500, 257.178 252.148, 260.802 249.750 C 265.876 246.392, 266 246.386, 266 249.500 C 266 251.944, 266.167 252, 273.500 252 L 281 252 280.994 232.750 C 280.991 222.162, 280.511 211.781, 279.928 209.679 C 278.219 203.526, 272.961 198.533, 266.188 196.633 C 260.722 195.099, 253.714 194.736, 248 195.690 M 318.500 196.569 C 316.850 197.426, 314.262 199.307, 312.750 200.750 L 310 203.374 310 199.687 L 310 196 302.500 196 L 295 196 295 224 L 295 252 302.421 252 L 309.841 252 310.171 233.564 L 310.500 215.127 313.437 212.064 C 315.374 210.043, 317.349 209, 319.237 209 C 322.827 209, 327.505 211.364, 328.562 213.713 C 329.005 214.696, 329.552 223.713, 329.779 233.750 L 330.191 252 337.595 252 L 345 252 345.006 235.750 C 345.009 226.813, 345.467 217.859, 346.024 215.853 C 347.927 209.002, 355.331 206.883, 360.923 211.589 L 364 214.178 364 233.089 L 364 252 372.068 252 L 380.135 252 379.818 229.250 C 379.548 209.947, 379.237 206.019, 377.765 203.329 C 374.947 198.177, 370.445 195.623, 363.391 195.174 C 355.963 194.701, 351.013 196.172, 346.400 200.222 L 342.971 203.233 340.818 200.495 C 339.633 198.990, 337.179 197.137, 335.364 196.379 C 330.964 194.540, 322.219 194.639, 318.500 196.569 M 394 224 L 394 252 402 252 L 410 252 410 224 L 410 196 402 196 L 394 196 394 224 M 249.500 228.155 C 241.541 232.508, 244.753 242, 254.185 242 C 260.939 242, 264.581 239.113, 266.511 232.230 C 267.045 230.324, 266.579 229.722, 263.606 228.480 C 259.471 226.752, 252.364 226.588, 249.500 228.155 M 34.039 255.189 C 31.443 257.975, 31.426 262.426, 34 265 C 37.340 268.340, 42.193 267.462, 44.444 263.109 C 45.577 260.917, 45.590 259.930, 44.518 257.380 C 42.474 252.519, 37.496 251.478, 34.039 255.189" stroke="none" fill="#393d5b" fill-rule="evenodd"/><path d="M 88.787 160.053 C 85.644 160.529, 80.469 161.964, 77.287 163.242 L 71.500 165.564 71.725 170.108 L 71.950 174.653 66.689 176.833 C 59.569 179.784, 54.345 185.114, 50.353 193.500 C 42.245 210.531, 43.679 228.107, 54.330 242.255 C 60.145 249.978, 68.800 256.535, 76.364 258.946 C 79.739 260.022, 85.204 262.023, 88.509 263.393 C 98.159 267.394, 106.502 268.327, 115.684 266.430 C 125.446 264.414, 127.573 263.292, 135.175 256.146 C 139.866 251.737, 141.180 249.910, 140.651 248.532 C 140.046 246.956, 139.169 246.802, 133.925 247.350 C 130.043 247.756, 128.112 247.628, 128.506 246.990 C 128.843 246.446, 129.879 246, 130.809 245.999 C 133.969 245.998, 144.639 240.264, 148.719 236.374 C 153.685 231.640, 156.006 224.928, 156.739 213.179 C 157.652 198.541, 152.386 185.801, 141.428 176.138 C 135.973 171.327, 128.191 167, 124.993 167 C 123.853 167, 121.237 166.141, 119.180 165.092 C 110.474 160.650, 98.233 158.621, 88.787 160.053 M 158.405 162.250 L 156.500 164.500 159 162.511 C 160.375 161.417, 161.688 160.404, 161.917 160.261 C 162.146 160.117, 161.878 160, 161.322 160 C 160.765 160, 159.453 161.012, 158.405 162.250 M 168.286 162.301 C 169.504 163.566, 170.685 164.469, 170.911 164.307 C 171.494 163.888, 167.856 160, 166.881 160 C 166.436 160, 167.068 161.035, 168.286 162.301 M 393.415 176.362 C 393.127 177.111, 393.029 180.374, 393.196 183.612 L 393.500 189.500 402.250 189.789 L 411 190.078 411 182.539 L 411 175 402.469 175 C 396.192 175, 393.799 175.360, 393.415 176.362 M 394 182.500 L 394 189 402 189 L 410 189 410 182.500 L 410 176 402 176 L 394 176 394 182.500 M 197.768 194.725 C 199.565 194.947, 202.265 194.943, 203.768 194.715 C 205.271 194.486, 203.800 194.304, 200.500 194.310 C 197.200 194.315, 195.971 194.502, 197.768 194.725 M 325.762 194.707 C 327.006 194.946, 328.806 194.937, 329.762 194.687 C 330.718 194.437, 329.700 194.241, 327.500 194.252 C 325.300 194.263, 324.518 194.468, 325.762 194.707 M 358.750 194.706 C 359.988 194.944, 362.012 194.944, 363.250 194.706 C 364.488 194.467, 363.475 194.272, 361 194.272 C 358.525 194.272, 357.512 194.467, 358.750 194.706 M 294.468 196.222 C 294.193 196.940, 294.094 209.897, 294.250 225.014 L 294.534 252.500 294.767 224.250 L 295 196 302.440 196 L 309.879 196 310.294 199.509 L 310.710 203.017 310.605 199.259 L 310.500 195.500 302.735 195.208 C 297.049 194.994, 294.835 195.265, 294.468 196.222 M 397.776 195.733 C 400.128 195.945, 403.728 195.942, 405.776 195.727 C 407.824 195.512, 405.900 195.339, 401.500 195.343 C 397.100 195.346, 395.424 195.522, 397.776 195.733 M 410.441 224 C 410.441 239.675, 410.579 246.087, 410.748 238.250 C 410.917 230.412, 410.917 217.587, 410.748 209.750 C 410.579 201.912, 410.441 208.325, 410.441 224 M 274 200.500 C 275.292 201.875, 276.574 203, 276.849 203 C 277.124 203, 276.292 201.875, 275 200.500 C 273.708 199.125, 272.426 198, 272.151 198 C 271.876 198, 272.708 199.125, 274 200.500 M 219.925 201.221 C 221.974 203.574, 222.112 204.182, 220.952 205.721 C 219.670 207.420, 219.696 207.421, 221.526 205.744 C 223.403 204.022, 223.382 203.932, 220.499 201.244 L 217.556 198.500 219.925 201.221 M 344.139 201.033 C 342.841 202.115, 342.209 203, 342.734 203 C 343.260 203, 344.505 202.100, 345.500 201 C 347.787 198.473, 347.195 198.487, 344.139 201.033 M 199.269 208.693 C 200.242 208.947, 201.592 208.930, 202.269 208.656 C 202.946 208.382, 202.150 208.175, 200.500 208.195 C 198.850 208.215, 198.296 208.439, 199.269 208.693 M 205.083 209.303 C 205.313 209.469, 206.850 210.396, 208.500 211.362 L 211.500 213.119 209.139 211.059 C 207.841 209.927, 206.303 209, 205.723 209 C 205.142 209, 204.854 209.136, 205.083 209.303 M 237.257 210 C 237.482 210.825, 238.528 211.605, 239.583 211.732 C 240.930 211.896, 241.054 211.777, 240 211.332 C 239.175 210.985, 238.128 210.205, 237.674 209.600 C 237.143 208.893, 236.994 209.035, 237.257 210 M 190.924 212.750 L 188.500 215.500 191.250 213.076 C 192.762 211.742, 194 210.505, 194 210.326 C 194 209.541, 193.190 210.180, 190.924 212.750 M 214.924 212.750 L 212.500 215.500 215.250 213.076 C 216.762 211.742, 218 210.505, 218 210.326 C 218 209.541, 217.190 210.180, 214.924 212.750 M 380.420 232.500 C 380.419 243.500, 380.565 248.136, 380.745 242.803 C 380.924 237.470, 380.925 228.470, 380.746 222.803 C 380.568 217.136, 380.421 221.500, 380.420 232.500 M 281.419 233 C 281.419 243.725, 281.566 248.113, 281.746 242.750 C 281.925 237.387, 281.925 228.613, 281.746 223.250 C 281.566 217.887, 281.419 222.275, 281.419 233 M 248.250 217.728 C 250.313 217.944, 253.688 217.944, 255.750 217.728 C 257.813 217.513, 256.125 217.336, 252 217.336 C 247.875 217.336, 246.188 217.513, 248.250 217.728 M 310.411 235 C 310.411 244.625, 310.561 248.563, 310.745 243.750 C 310.928 238.937, 310.928 231.062, 310.745 226.250 C 310.561 221.438, 310.411 225.375, 310.411 235 M 345.411 235 C 345.411 244.625, 345.561 248.563, 345.745 243.750 C 345.928 238.937, 345.928 231.062, 345.745 226.250 C 345.561 221.438, 345.411 225.375, 345.411 235 M 329.409 235.500 C 329.408 244.850, 329.558 248.810, 329.743 244.299 C 329.928 239.789, 329.929 232.139, 329.745 227.299 C 329.562 222.460, 329.410 226.150, 329.409 235.500 M 253.250 227.716 C 254.762 227.945, 257.238 227.945, 258.750 227.716 C 260.262 227.487, 259.025 227.300, 256 227.300 C 252.975 227.300, 251.738 227.487, 253.250 227.716 M 229.286 235.500 C 229.294 238.250, 229.488 239.256, 229.718 237.736 C 229.947 236.216, 229.941 233.966, 229.704 232.736 C 229.467 231.506, 229.279 232.750, 229.286 235.500 M 211.872 234.750 C 210.624 236.342, 210.660 236.374, 212.279 235.103 C 213.843 233.876, 214.389 233.997, 216.779 236.103 L 219.500 238.500 217.076 235.750 C 214.230 232.522, 213.700 232.420, 211.872 234.750 M 206.500 237.536 C 204.850 238.292, 204.201 238.930, 205.059 238.955 C 205.916 238.980, 207.491 238.339, 208.559 237.532 C 210.929 235.739, 210.423 235.740, 206.500 237.536 M 213 250.500 C 211.625 251.286, 210.976 251.945, 211.559 251.965 C 212.141 251.984, 213.491 251.339, 214.559 250.532 C 217.028 248.664, 216.239 248.648, 213 250.500 M 316.189 267.998 C 312.983 271.651, 312.632 271.681, 311.152 268.434 C 310.242 266.437, 309.376 265.939, 307.242 266.184 C 304.508 266.499, 304.500 266.522, 304.500 274.500 C 304.500 282.035, 304.631 282.519, 306.750 282.820 C 308.783 283.108, 309.002 282.722, 309.022 278.820 L 309.044 274.500 311.022 277 L 313 279.500 314.926 277.022 L 316.852 274.545 317.176 278.522 C 317.440 281.766, 317.915 282.559, 319.750 282.820 C 321.931 283.129, 322 282.881, 322 274.677 C 322 264.684, 320.555 263.022, 316.189 267.998 M 331 266.117 C 329.625 266.651, 327.723 268.081, 326.772 269.294 C 320.639 277.124, 332.305 287.268, 340.253 281.016 C 348.133 274.817, 340.450 262.444, 331 266.117 M 400.337 266.182 C 395.557 268.494, 396.791 274.116, 402.492 275.997 C 407.364 277.605, 407.021 279.348, 402 278.500 C 398.452 277.901, 398 278.048, 398 279.805 C 398 282.094, 399.823 283, 404.427 283 C 411.643 283, 413.217 275.293, 406.497 272.863 C 404.574 272.167, 403 270.998, 403 270.264 C 403 269.223, 403.457 269.174, 405.078 270.042 C 406.221 270.654, 407.796 270.908, 408.578 270.608 C 411.049 269.660, 410.121 267.238, 406.851 266.098 C 403.175 264.816, 403.159 264.817, 400.337 266.182 M 344.187 267.750 C 344.370 268.712, 345.528 269.644, 346.760 269.820 C 348.817 270.113, 349 270.669, 349 276.639 C 349 282.808, 349.115 283.123, 351.250 282.820 C 353.295 282.529, 353.500 281.959, 353.500 276.558 C 353.500 271.051, 353.683 270.572, 355.995 270.014 C 357.367 269.683, 358.637 268.645, 358.818 267.706 C 359.105 266.218, 358.169 266, 351.500 266 C 344.757 266, 343.893 266.207, 344.187 267.750 M 362.455 268.455 C 358.841 272.069, 359.101 277.065, 363.077 280.411 C 372.409 288.264, 384.115 276.257, 375.512 267.655 C 372.856 264.999, 365.457 265.452, 362.455 268.455 M 381 274.522 C 381 282.879, 381.068 283.129, 383.244 282.820 C 384.849 282.591, 385.634 281.648, 386.002 279.507 L 386.517 276.513 388.827 279.757 C 391.047 282.875, 394.262 284.003, 395.450 282.081 C 395.763 281.575, 395.266 280.409, 394.347 279.490 C 392.785 277.928, 392.788 277.628, 394.393 274.911 C 395.871 272.409, 395.928 271.620, 394.796 269.252 C 393.597 266.742, 392.933 266.474, 387.241 266.202 L 381 265.905 381 274.522 M 385.615 270.560 C 384.782 272.732, 385.695 274, 388.090 274 C 389.824 274, 391.878 271.476, 390.874 270.581 C 389.271 269.154, 386.159 269.142, 385.615 270.560 M 331.011 271.487 C 329.303 273.545, 330.553 277.723, 333.120 278.538 C 334.574 278.999, 335.880 278.565, 337.297 277.147 C 339.055 275.390, 339.188 274.709, 338.201 272.542 C 336.882 269.647, 333.010 269.079, 331.011 271.487 M 366.200 271.200 C 364.555 272.845, 364.691 276.499, 366.452 277.960 C 369.769 280.713, 374.577 276.479, 372.937 272.250 C 371.974 269.767, 368.218 269.182, 366.200 271.200" stroke="none" fill="#cc3d47" fill-rule="evenodd"/></svg>