<svg xmlns="http://www.w3.org/2000/svg" width="450" height="450" viewBox="0 0 450 450" version="1.1"><path d="M 101.198 161.878 C 100.407 162.367, 101.211 163.207, 103.529 164.312 C 107.613 166.260, 108.358 166.389, 107.500 165 C 107.147 164.428, 108.085 163.973, 109.691 163.937 C 112.106 163.882, 112.219 163.763, 110.500 163.088 C 106.963 161.698, 102.440 161.110, 101.198 161.878 M 74.926 175.428 C 57.997 179.143, 49.347 189.776, 46.514 210.357 C 46.051 213.721, 46.176 215.009, 46.923 214.548 C 47.515 214.182, 48.007 211.996, 48.015 209.691 C 48.031 205.521, 49.316 202.009, 50.229 203.643 C 50.492 204.114, 50.759 207.100, 50.822 210.277 C 51.003 219.350, 55.847 233.831, 58.212 232.369 C 58.883 231.954, 59.023 232.153, 58.573 232.881 C 57.833 234.079, 62.828 242.783, 65.555 245.046 C 66.718 246.011, 67 245.916, 67 244.563 C 67 243.547, 67.457 243.164, 68.155 243.595 C 68.876 244.041, 69.037 243.869, 68.585 243.138 C 68.187 242.494, 67.490 242.197, 67.036 242.478 C 66.581 242.759, 65.960 242.339, 65.656 241.545 C 65.262 240.520, 65.594 240.280, 66.801 240.717 C 67.807 241.081, 67.481 240.463, 66 239.199 C 63.901 237.408, 63.786 237.061, 65.285 237.033 C 66.780 237.005, 66.890 236.663, 65.959 234.924 C 64.934 233.008, 65.015 232.937, 67.010 234.005 C 68.199 234.642, 69.433 234.901, 69.752 234.581 C 70.072 234.261, 69.733 234, 69 234 C 68.267 234, 67.949 233.718, 68.293 233.373 C 68.999 232.668, 66.622 227.661, 63.955 224.238 C 62.984 222.992, 61.870 219.177, 61.473 215.738 C 61.077 212.307, 60.355 208.449, 59.868 207.164 C 59.215 205.439, 59.313 204.936, 60.242 205.242 C 60.940 205.471, 61.761 208.069, 62.087 211.078 C 62.492 214.823, 62.770 215.572, 62.984 213.500 C 63.690 206.678, 63.106 200.963, 61.542 199.399 C 60.065 197.922, 60.100 197.648, 61.967 196.028 C 64.144 194.140, 64.553 191.424, 63.025 189.006 C 62.300 187.860, 62.827 187.147, 65.290 185.943 C 67.056 185.080, 68.369 183.784, 68.208 183.063 C 68.006 182.150, 68.708 181.902, 70.515 182.248 C 71.972 182.526, 73.695 182.162, 74.437 181.420 C 75.166 180.691, 76.007 180.340, 76.306 180.639 C 77.318 181.652, 81 179.875, 81 178.374 C 81 177.553, 81.419 177.141, 81.931 177.457 C 82.443 177.774, 83.156 177.557, 83.515 176.976 C 83.874 176.394, 84.993 176.180, 86 176.500 C 87.007 176.820, 88.164 176.544, 88.570 175.886 C 89.037 175.131, 88.884 174.954, 88.155 175.405 C 87.520 175.797, 87 175.641, 87 175.059 C 87 173.711, 82.064 173.862, 74.926 175.428 M 105 179.941 C 105 180.459, 105.450 181.160, 106 181.500 C 106.550 181.840, 107 181.416, 107 180.559 C 107 179.702, 106.550 179, 106 179 C 105.450 179, 105 179.423, 105 179.941 M 77 187 C 77 187.550, 77.423 188, 77.941 188 C 78.459 188, 79.160 187.550, 79.500 187 C 79.840 186.450, 79.416 186, 78.559 186 C 77.702 186, 77 186.450, 77 187 M 96.500 187.392 C 94.300 188.085, 91.375 189.233, 90 189.945 C 86.656 191.677, 81 197.099, 81 198.574 C 81 199.223, 80.346 200.298, 79.547 200.961 C 77.274 202.848, 74.845 212.677, 75.102 218.954 C 75.229 222.087, 74.978 225.227, 74.542 225.932 C 73.958 226.877, 74.288 227.044, 75.792 226.566 C 77.462 226.036, 77.741 226.276, 77.320 227.883 C 76.675 230.350, 82.426 234.745, 92.796 239.708 L 100.092 243.200 105.296 241.486 C 108.158 240.543, 110.950 239.697, 111.500 239.606 C 112.050 239.515, 114.628 238.406, 117.228 237.141 C 122.056 234.794, 126.313 230.245, 129.527 224 C 131.762 219.656, 131.736 207.772, 129.484 204.335 C 128.668 203.090, 128 201.353, 128 200.476 C 128 199.599, 127.550 199.160, 127 199.500 C 126.450 199.840, 126 199.489, 126 198.720 C 126 197.951, 124.200 195.656, 122 193.620 C 119.800 191.585, 118 189.263, 118 188.460 C 118 186.818, 118.275 186.897, 111.500 186.576 C 108.750 186.445, 105.851 186.825, 105.058 187.419 C 103.970 188.235, 103.800 188.193, 104.367 187.250 C 105.338 185.634, 101.891 185.696, 96.500 187.392 M 154.250 211.720 C 153.563 211.966, 153 212.836, 153 213.655 C 153 214.918, 153.244 214.899, 154.619 213.524 C 156.379 211.764, 156.226 211.015, 154.250 211.720 M 64 215 C 64 215.550, 64.702 216, 65.559 216 C 66.416 216, 66.840 215.550, 66.500 215 C 66.160 214.450, 65.459 214, 64.941 214 C 64.423 214, 64 214.450, 64 215 M 153.015 219.691 C 153.007 220.896, 153.450 222.160, 154 222.500 C 155.273 223.287, 155.273 220.970, 154 219 C 153.212 217.781, 153.028 217.910, 153.015 219.691 M 69 247.845 C 69 249.185, 72.591 252.076, 73.333 251.333 C 73.702 250.964, 73.259 249.838, 72.347 248.831 C 70.598 246.899, 69 246.428, 69 247.845 M 352.286 275.500 C 352.294 278.250, 352.488 279.256, 352.718 277.736 C 352.947 276.216, 352.941 273.966, 352.704 272.736 C 352.467 271.506, 352.279 272.750, 352.286 275.500 M 305.195 274.500 C 305.215 276.150, 305.439 276.704, 305.693 275.731 C 305.947 274.758, 305.930 273.408, 305.656 272.731 C 305.382 272.054, 305.175 272.850, 305.195 274.500" stroke="none" fill="#c72742" fill-rule="evenodd"/><path d="M 153.506 214.980 C 153.161 216.069, 153.342 217.756, 153.909 218.730 C 154.714 220.113, 154.949 220.172, 154.983 219 C 155.007 218.175, 155.299 216.488, 155.630 215.250 C 156.377 212.464, 154.385 212.210, 153.506 214.980 M 331.348 267.067 C 328.588 268.088, 326 271.815, 326 274.768 C 326 280.513, 334.613 284.061, 339.777 280.443 C 342.318 278.664, 342.870 272.562, 340.750 269.687 C 339.120 267.478, 334.054 266.066, 331.348 267.067 M 402 266.768 C 397.489 268.158, 397.511 273.514, 402.033 274.507 C 408.177 275.857, 408.416 280.676, 402.280 279.525 C 399.636 279.029, 398.895 279.189, 399.222 280.185 C 399.790 281.914, 405.341 282.423, 408.014 280.992 C 412.212 278.746, 409.576 274.906, 401.693 271.782 C 401.249 271.606, 401.189 270.672, 401.559 269.707 C 402.091 268.319, 402.939 268.086, 405.616 268.588 C 407.477 268.937, 409 268.992, 409 268.709 C 409 267.801, 403.551 266.290, 402 266.768 M 305.769 273.250 C 305.276 279.792, 305.614 282, 307.107 282 C 307.598 282, 308 280.200, 308 278 C 308 273.658, 309.997 272.528, 311.975 275.750 C 312.971 277.373, 313.164 277.337, 314.646 275.250 C 316.974 271.972, 317.846 272.465, 318.193 277.250 C 318.692 284.157, 320.476 282.101, 320.794 274.250 C 321.058 267.724, 320.901 267, 319.213 267 C 318.182 267, 316.736 268.125, 316 269.500 C 315.264 270.875, 313.910 272, 312.992 272 C 312.073 272, 310.808 270.875, 310.182 269.500 C 308.092 264.914, 306.282 266.452, 305.769 273.250 M 345 267.525 C 345 267.813, 346.125 268.477, 347.500 269 C 349.790 269.871, 350 270.463, 350 276.059 C 350 283.931, 352.264 283.828, 352.404 275.949 C 352.486 271.306, 352.833 270.354, 354.750 269.513 C 358.545 267.848, 357.280 267, 351 267 C 347.700 267, 345 267.236, 345 267.525 M 363.174 269.314 C 356.669 276.239, 366.397 285.717, 374.535 280.385 C 377.946 278.150, 378.094 270.880, 374.777 268.557 C 371.403 266.193, 365.761 266.561, 363.174 269.314 M 382 274.583 C 382 280.202, 382.324 282.060, 383.250 281.756 C 383.938 281.530, 384.642 280.143, 384.816 278.673 C 385.224 275.228, 386.234 275.301, 389.347 279 C 391.751 281.857, 394 282.921, 394 281.200 C 394 280.760, 393.456 279.856, 392.790 279.190 C 391.844 278.244, 391.953 277.349, 393.293 275.080 C 394.999 272.194, 394.706 269.226, 392.573 267.765 C 391.983 267.361, 389.363 267.024, 386.750 267.015 L 382 267 382 274.583 M 368 268.728 C 363.897 270.101, 362.753 275.561, 365.960 278.464 C 369.907 282.036, 375.898 277.653, 374.028 272.561 C 373.123 270.095, 369.948 268.077, 368 268.728 M 384.938 270.117 C 384.043 271.788, 384.123 272.552, 385.318 273.746 C 387.311 275.740, 392 274.641, 392 272.181 C 392 268.018, 386.864 266.517, 384.938 270.117 M 330.035 270.934 C 327.749 275.206, 330.202 280, 334.674 280 C 337.186 280, 340 277.002, 340 274.326 C 340 269.664, 332.146 266.991, 330.035 270.934" stroke="none" fill="#dd141b" fill-rule="evenodd"/><path d="M 160.834 161.395 C 158.200 162.709, 157.736 165.125, 160 165.743 C 161.239 166.081, 161.259 165.984, 160.115 165.184 C 158.988 164.396, 159.116 164.008, 160.799 163.107 C 165.201 160.751, 170.331 162.812, 167.388 165.755 C 166.572 166.571, 166.176 167.509, 166.507 167.840 C 166.838 168.171, 167.527 167.780, 168.039 166.971 C 168.551 166.162, 168.976 165.853, 168.985 166.285 C 168.993 166.717, 168.273 168.180, 167.385 169.535 C 165.805 171.946, 162 172.981, 162 171 C 162 170.450, 161.298 170, 160.441 170 C 159.517 170, 159.173 169.530, 159.595 168.845 C 160.051 168.108, 159.868 167.963, 159.089 168.445 C 157.174 169.629, 160.808 173, 164 173 C 167.462 173, 170 170.163, 170 166.294 C 170 161.643, 165.337 159.151, 160.834 161.395 M 394 182.500 L 394 189 402 189 L 410 189 410 182.500 L 410 176 402 176 L 394 176 394 182.500 M 400.852 179.807 C 397.635 180.179, 396.737 182.809, 398.702 186.098 C 399.492 187.419, 399.930 187.801, 399.676 186.946 C 399.007 184.701, 407.239 184.679, 408.116 186.924 C 408.454 187.791, 408.763 186.634, 408.801 184.354 C 408.865 180.588, 408.625 180.176, 406.186 179.854 C 404.709 179.659, 402.308 179.638, 400.852 179.807 M 195 196.094 C 192.525 196.421, 189.150 197.236, 187.500 197.905 C 181.489 200.344, 172.348 211.361, 174.984 212.990 C 175.684 213.422, 175.947 214.277, 175.569 214.888 C 175.191 215.500, 175.359 216, 175.941 216 C 176.523 216, 177 215.325, 177 214.500 C 177 213.675, 177.402 213, 177.893 213 C 179.329 213, 180.126 209.857, 179.026 208.531 C 177.656 206.881, 178.984 205.742, 180.658 207.131 C 182.249 208.452, 182.481 206.881, 180.924 205.324 C 180.156 204.556, 180.658 204.378, 182.674 204.702 C 184.657 205.021, 185.095 204.872, 184.143 204.203 C 182.353 202.946, 183.497 202.345, 189.351 201.469 C 192.617 200.980, 193.760 200.463, 192.851 199.887 C 191.963 199.324, 192.872 199.001, 195.500 198.945 C 198.657 198.877, 199.079 198.678, 197.500 198 C 195.520 197.149, 195.520 197.140, 197.550 197.070 C 198.678 197.032, 200.052 197.452, 200.605 198.005 C 201.157 198.557, 204.354 199.120, 207.709 199.255 C 211.064 199.390, 213.620 199.806, 213.388 200.181 C 213.157 200.555, 213.425 201.144, 213.984 201.490 C 214.543 201.835, 215 201.641, 215 201.059 C 215 200.477, 215.477 200, 216.059 200 C 216.641 200, 216.797 200.520, 216.405 201.155 C 215.962 201.870, 216.130 202.038, 216.845 201.595 C 219.222 200.127, 217.919 204.234, 215.122 207.032 C 213.539 208.615, 212.526 210.227, 212.872 210.614 C 213.217 211.002, 212.625 211.003, 211.556 210.616 C 209.693 209.943, 209.685 209.995, 211.365 211.851 C 213.080 213.746, 213.218 213.681, 217.751 208.835 L 222.384 203.882 219.442 201.409 C 217.824 200.050, 215.375 198.427, 214 197.804 C 210.625 196.274, 200.525 195.365, 195 196.094 M 321.159 195.944 C 319.321 196.407, 316.283 198.271, 314.409 200.089 C 310.750 203.635, 309.662 206.126, 313.032 203.240 C 314.150 202.283, 315.388 201.493, 315.782 201.485 C 316.177 201.476, 317.123 201.075, 317.884 200.593 C 320.959 198.645, 332.860 198.460, 335.750 200.316 C 336.438 200.757, 337.450 200.840, 338 200.500 C 338.550 200.160, 339 200.359, 339 200.941 C 339 201.523, 339.436 202, 339.969 202 C 341.984 202, 339.710 199.090, 336.505 197.569 C 332.296 195.572, 325.500 194.852, 321.159 195.944 M 354.764 195.936 C 350.719 197.242, 345.285 200.814, 344.591 202.624 C 344.217 203.598, 343.354 203.966, 342.350 203.581 C 341.060 203.086, 340.955 203.241, 341.850 204.319 C 342.473 205.070, 342.649 206.041, 342.241 206.477 C 341.834 206.914, 342.487 206.758, 343.694 206.130 C 344.901 205.503, 346.170 204.534, 346.513 203.978 C 346.857 203.422, 347.552 203.223, 348.058 203.536 C 348.566 203.850, 348.683 203.337, 348.319 202.388 C 347.833 201.123, 348.013 200.890, 349 201.500 C 350.006 202.122, 350.173 201.852, 349.667 200.414 C 349.027 198.591, 349.062 198.586, 350.397 200.303 C 351.245 201.394, 351.946 201.663, 352.172 200.983 C 352.378 200.366, 355.461 199.648, 359.023 199.389 C 362.585 199.130, 366.086 198.716, 366.802 198.470 C 367.554 198.212, 367.818 198.485, 367.427 199.119 C 366.975 199.850, 367.456 199.990, 368.875 199.540 C 370.412 199.052, 371 199.290, 371 200.401 C 371 201.291, 371.576 201.716, 372.371 201.411 C 373.125 201.122, 374.002 201.563, 374.320 202.392 C 374.658 203.273, 374.401 203.780, 373.699 203.613 C 373.040 203.456, 372.837 203.517, 373.250 203.747 C 373.663 203.978, 374 205.029, 374 206.083 C 374 207.381, 374.727 208.025, 376.250 208.079 C 377.488 208.122, 377.938 208.385, 377.250 208.662 C 376.563 208.940, 376 209.606, 376 210.142 C 376 210.679, 376.450 210.840, 377 210.500 C 377.558 210.155, 377.993 210.903, 377.985 212.191 C 377.972 214.101, 377.784 214.241, 376.898 213 C 376.068 211.838, 375.979 212.064, 376.501 214 C 377.298 216.953, 377.343 218.454, 377.149 235.532 L 377 248.564 374.465 248.774 C 372.991 248.896, 371.692 248.362, 371.361 247.497 C 371.047 246.680, 370.419 246.241, 369.964 246.522 C 369.510 246.803, 368.779 246.463, 368.340 245.766 C 367.801 244.911, 367.323 245.474, 366.866 247.500 C 366.495 249.150, 366.260 242.330, 366.345 232.344 C 366.430 222.358, 366.163 214.397, 365.750 214.653 C 365.043 215.091, 364.590 213.495, 364.906 211.676 C 364.985 211.222, 364.636 211.107, 364.130 211.420 C 363.624 211.733, 362.952 211.316, 362.636 210.494 C 362.321 209.672, 361.520 209, 360.857 209 C 360.194 209, 360.742 210.160, 362.076 211.578 C 364.437 214.089, 364.508 214.644, 364.808 232.844 L 365.117 251.533 372.308 251.392 L 379.500 251.252 379.782 234.376 C 380.199 209.431, 378.788 202.917, 371.841 197.731 C 368.953 195.575, 359.093 194.539, 354.764 195.936 M 241.873 197.454 C 235.179 199.300, 235.043 199.461, 236.570 203.739 C 237.308 205.807, 237.932 208.287, 237.956 209.250 C 238.009 211.363, 238.208 211.370, 244.409 209.489 C 250.357 207.685, 257.609 207.588, 261 209.268 C 262.375 209.949, 264.516 212.520, 265.758 214.981 C 267.663 218.757, 267.980 219.029, 267.790 216.727 C 267.665 215.227, 267.221 214, 266.801 214 C 266.382 214, 266.198 212.632, 266.393 210.960 C 266.588 209.288, 266.508 208.159, 266.216 208.451 C 265.923 208.743, 264.994 208.424, 264.150 207.741 C 262.926 206.751, 262.768 206.753, 263.367 207.750 C 264.408 209.483, 263.866 209.352, 258.187 206.500 C 253.271 204.031, 247.702 202.868, 251 205 C 252.138 205.736, 251.716 205.973, 249.250 205.985 C 247.463 205.993, 246 206.450, 246 207 C 246 207.550, 245.325 208, 244.500 208 C 243.675 208, 243.113 207.438, 243.250 206.750 C 243.398 206.009, 242.468 205.509, 240.964 205.523 C 239.282 205.538, 238.429 204.999, 238.429 203.922 C 238.429 202.861, 239.042 202.460, 240.202 202.763 C 241.201 203.024, 242.228 202.570, 242.552 201.724 C 242.919 200.770, 243.893 200.421, 245.221 200.768 C 246.645 201.140, 247.084 200.946, 246.597 200.158 C 246.204 199.521, 246.359 199, 246.941 199 C 247.523 199, 248 199.338, 248.001 199.750 C 248.001 200.162, 249.126 200.565, 250.501 200.644 C 251.875 200.724, 253 200.341, 253 199.793 C 253 199.190, 255.359 198.986, 258.983 199.276 C 262.274 199.539, 264.746 199.398, 264.476 198.962 C 264.207 198.525, 265.339 198.679, 266.993 199.303 C 268.647 199.928, 270 200.790, 270 201.219 C 270 201.649, 270.705 202, 271.567 202 C 272.714 202, 272.965 202.604, 272.502 204.250 C 272.006 206.011, 272.097 206.174, 272.919 205 C 273.630 203.985, 273.974 203.904, 273.985 204.750 C 273.993 205.438, 274.923 206.923, 276.051 208.051 C 277.179 209.179, 278.541 211.092, 279.078 212.301 C 279.882 214.114, 279.961 213.906, 279.525 211.115 C 278.637 205.431, 275.169 200.987, 269.596 198.392 C 265.360 196.420, 262.981 196.033, 255.500 196.099 C 250.550 196.143, 244.418 196.753, 241.873 197.454 M 295 223.813 L 295 251.626 302.498 251.563 L 309.996 251.500 309.998 247.750 C 309.999 245.688, 309.620 244, 309.155 244 C 307.703 244, 304.957 247.620, 305.748 248.491 C 306.162 248.948, 305.918 248.985, 305.206 248.574 C 304.495 248.164, 303.145 248.414, 302.206 249.131 C 301.268 249.848, 300.834 250.040, 301.241 249.559 C 302.044 248.612, 300.309 246, 298.878 246 C 298.395 246, 298 246.900, 298 248 C 298 249.100, 297.550 250, 297 250 C 296.361 250, 296 241.345, 296 226.035 C 296 199.712, 295.649 201.197, 302.250 199.619 C 304.332 199.122, 305 199.331, 305 200.481 C 305 202.293, 306.986 202.556, 307.032 200.750 C 307.051 199.977, 307.562 200.156, 308.371 201.221 C 309.530 202.748, 309.693 202.550, 309.809 199.471 L 309.939 196 302.470 196 L 295 196 295 223.813 M 395 224 L 395 252 401.941 252 C 405.759 252, 409.141 251.581, 409.457 251.069 C 409.774 250.557, 408.900 248.916, 407.516 247.423 C 406.132 245.930, 405 245.224, 405 245.854 C 405 246.484, 404.248 247, 403.329 247 C 402.410 247, 400.815 247.762, 399.786 248.694 C 398.027 250.286, 397.953 250.286, 398.564 248.694 C 399.009 247.535, 398.706 247, 397.607 247 C 396.173 247, 396.008 244.389, 396.079 222.750 C 396.122 209.412, 396.385 199.063, 396.662 199.750 C 396.940 200.438, 397.606 201, 398.142 201 C 398.679 201, 398.796 200.479, 398.403 199.842 C 397.895 199.021, 398.385 198.899, 400.094 199.423 C 405.302 201.021, 406.570 201.065, 408.403 199.710 C 411.640 197.317, 409.347 196, 401.941 196 L 395 196 395 224 M 198.500 205 C 200.451 205.838, 200.448 205.861, 198.372 205.930 C 197.202 205.968, 195.748 206.599, 195.140 207.331 C 194.238 208.418, 195.012 208.581, 199.375 208.219 C 202.505 207.959, 205.650 208.277, 206.977 208.988 C 208.223 209.654, 208.968 209.757, 208.633 209.216 C 207.860 207.965, 199.434 203.977, 197.761 204.070 C 197.067 204.109, 197.400 204.527, 198.500 205 M 217.494 206.006 C 216.496 207.110, 215.915 208.249, 216.204 208.537 C 216.493 208.826, 217.475 207.923, 218.388 206.531 C 220.381 203.490, 219.983 203.256, 217.494 206.006 M 352.166 207.545 C 350.882 208.218, 349.340 209.260, 348.740 209.860 C 347.965 210.635, 347.274 210.642, 346.364 209.887 C 345.377 209.068, 345.173 209.301, 345.481 210.899 C 345.701 212.042, 345.303 213.554, 344.597 214.260 C 343.800 215.057, 343.607 216.293, 344.087 217.522 C 344.814 219.383, 344.864 219.367, 344.930 217.266 C 344.968 216.037, 346.304 213.572, 347.898 211.789 C 350.261 209.144, 351.541 208.545, 354.837 208.545 C 357.060 208.545, 358.794 208.484, 358.689 208.408 C 356.466 206.797, 354.172 206.493, 352.166 207.545 M 316.659 207.707 C 314.526 208.257, 311.620 210.972, 310.076 213.859 C 309.484 214.964, 309.075 220.061, 309.168 225.184 L 309.335 234.500 309.918 224.272 C 310.455 214.828, 310.711 213.834, 313.250 211.295 C 317.966 206.580, 327.753 208.520, 329.416 214.500 C 329.722 215.600, 329.979 224.488, 329.986 234.250 L 330 252 337.567 252 C 344.315 252, 345.076 251.810, 344.591 250.250 C 343.836 247.821, 343.751 238.073, 344.456 234.750 C 344.890 232.701, 344.652 232, 343.520 232 C 341.780 232, 341.688 232.475, 341.963 240.081 C 342.146 245.150, 341.916 245.825, 339.459 247.435 C 337.971 248.410, 337.061 248.711, 337.436 248.104 C 338.366 246.599, 336.700 246.705, 335.129 248.250 C 334.429 248.938, 333.961 249.050, 334.087 248.500 C 334.214 247.950, 333.981 246.733, 333.569 245.795 C 333.157 244.857, 332.974 239.161, 333.160 233.136 C 333.347 227.111, 333.169 222.703, 332.765 223.341 C 332.361 223.978, 332.021 222.475, 332.009 220 C 331.988 215.691, 329.349 209.880, 327.376 209.799 C 326.894 209.779, 325.612 209.141, 324.527 208.382 C 322.565 207.007, 320.169 206.801, 316.659 207.707 M 190 211 C 188.378 213.250, 186.514 213.710, 187.298 211.667 C 187.579 210.933, 187.175 210.333, 186.399 210.333 C 185.210 210.333, 185.223 210.691, 186.483 212.615 C 187.305 213.869, 187.571 215.147, 187.074 215.454 C 186.577 215.761, 186.020 215.561, 185.835 215.009 C 185.651 214.457, 185.454 216.141, 185.399 218.752 L 185.297 223.500 186.652 219.591 C 187.396 217.441, 189.152 214.178, 190.554 212.341 C 191.955 210.503, 192.728 209, 192.272 209 C 191.815 209, 190.793 209.900, 190 211 M 172.567 216.323 C 171.085 221.421, 172.449 233.359, 175.001 237.626 C 181.332 248.210, 188.055 252, 200.500 252 C 207.553 252, 209.900 251.577, 213.783 249.608 C 216.377 248.293, 219.366 246.258, 220.425 245.086 C 222.339 242.968, 222.331 242.936, 219.016 239.517 C 217.183 237.625, 215.293 236.319, 214.817 236.613 C 214.340 236.908, 214.015 236.778, 214.094 236.324 C 214.492 234.030, 213.728 234.051, 210.923 236.411 C 207.254 239.498, 204.361 240.340, 199.131 239.841 C 196.307 239.572, 195.375 239.815, 195.726 240.729 C 195.992 241.422, 196.632 241.727, 197.149 241.408 C 197.665 241.089, 198.665 241.307, 199.372 241.893 C 200.235 242.610, 201.742 242.647, 203.970 242.009 C 205.793 241.486, 207.620 241.265, 208.029 241.518 C 208.438 241.771, 209.049 240.970, 209.386 239.739 C 209.857 238.021, 210.204 237.816, 210.875 238.857 C 211.485 239.803, 211.957 239.879, 212.434 239.107 C 212.810 238.498, 214.104 238.052, 215.309 238.116 C 217.019 238.207, 217.113 238.333, 215.738 238.692 C 214.769 238.945, 214.237 239.575, 214.557 240.092 C 214.877 240.609, 215.552 240.777, 216.058 240.464 C 216.566 240.150, 216.683 240.663, 216.319 241.612 C 215.886 242.739, 216.044 243.091, 216.778 242.637 C 217.987 241.890, 217.615 245.779, 216.372 246.885 C 215.992 247.223, 215.978 246.675, 216.341 245.666 C 216.783 244.440, 216.589 243.970, 215.755 244.248 C 215.069 244.477, 214.507 245.527, 214.504 246.582 C 214.501 248.141, 213.851 248.463, 211.025 248.305 C 209.114 248.197, 207.306 248.505, 207.006 248.990 C 206.707 249.474, 204.040 250.191, 201.080 250.584 C 197.738 251.027, 195.921 250.936, 196.287 250.345 C 196.611 249.821, 195.554 248.893, 193.938 248.283 C 191.389 247.321, 189.663 248.086, 191.750 249.253 C 192.162 249.483, 191.825 249.477, 191 249.239 C 190.175 249.001, 189.001 248.721, 188.391 248.615 C 186.870 248.353, 184 245.383, 184 244.071 C 184 243.482, 183.502 243, 182.893 243 C 182.277 243, 182.066 243.729, 182.416 244.641 C 182.941 246.009, 182.794 246.074, 181.534 245.028 C 180.702 244.338, 180.226 243.443, 180.475 243.040 C 180.725 242.636, 179.629 241.061, 178.040 239.538 C 176.451 238.016, 175.390 236.147, 175.682 235.385 C 175.975 234.623, 175.716 234, 175.107 234 C 174.498 234, 174 232.875, 174 231.500 C 174 230.125, 174.345 229, 174.766 229 C 175.188 229, 175.525 226.568, 175.516 223.596 C 175.507 220.623, 175.193 218.381, 174.818 218.613 C 174.443 218.844, 173.968 217.789, 173.762 216.267 L 173.389 213.500 172.567 216.323 M 248.080 219.750 C 247.399 220.919, 247.051 221.048, 247.030 220.139 C 247.007 219.111, 246.087 218.949, 243.268 219.477 C 238.350 220.400, 235.783 221.840, 236.627 223.205 C 237.006 223.819, 236.856 224.029, 236.288 223.678 C 234.056 222.298, 229.961 230.697, 230.037 236.500 C 230.063 238.476, 230.081 238.477, 231.536 236.552 C 232.347 235.481, 232.754 233.799, 232.441 232.814 C 231.753 230.647, 234.894 225, 236.787 225 C 237.533 225, 238.804 224.339, 239.611 223.532 C 240.548 222.595, 242.504 222.184, 245.015 222.397 C 248.112 222.659, 249.073 222.346, 249.524 220.925 C 249.876 219.814, 251.329 218.966, 253.298 218.720 C 256.433 218.328, 256.422 218.317, 252.800 218.160 C 250.211 218.048, 248.793 218.525, 248.080 219.750 M 251.800 221.200 C 252.733 222.133, 253.267 222.133, 254.200 221.200 C 255.133 220.267, 254.867 220, 253 220 C 251.133 220, 250.867 220.267, 251.800 221.200 M 341.614 220.917 C 341.075 221.968, 342.477 225.496, 343.500 225.664 C 344.050 225.755, 344.544 224.592, 344.598 223.081 C 344.660 221.353, 344.179 220.333, 343.304 220.333 C 342.538 220.333, 341.778 220.596, 341.614 220.917 M 261.554 223.913 C 261.171 224.533, 261.660 225.051, 262.691 225.118 C 263.686 225.183, 263.150 225.546, 261.500 225.923 L 258.500 226.610 261.634 227.115 C 263.869 227.475, 264.712 227.241, 264.573 226.300 C 264.259 224.160, 262.339 222.642, 261.554 223.913 M 254.365 225.219 C 254.099 225.648, 254.782 226, 255.882 226 C 256.982 226, 258.143 225.577, 258.463 225.061 C 258.782 224.544, 258.099 224.192, 256.946 224.279 C 255.792 224.366, 254.631 224.789, 254.365 225.219 M 307.272 228 C 307.272 230.475, 307.467 231.488, 307.706 230.250 C 307.944 229.012, 307.944 226.988, 307.706 225.750 C 307.467 224.512, 307.272 225.525, 307.272 228 M 305.252 228.500 C 305.263 230.700, 305.468 231.482, 305.707 230.238 C 305.946 228.994, 305.937 227.194, 305.687 226.238 C 305.437 225.282, 305.241 226.300, 305.252 228.500 M 234.964 228.164 C 233.819 230.397, 233.846 230.424, 235.574 228.774 C 236.568 227.824, 237.107 226.773, 236.771 226.438 C 236.436 226.103, 235.623 226.880, 234.964 228.164 M 341.500 229 C 341.160 229.550, 341.097 230, 341.359 230 C 341.622 230, 342.548 230.273, 343.418 230.607 C 344.456 231.005, 345 230.662, 345 229.607 C 345 227.843, 342.485 227.407, 341.500 229 M 186.559 231 C 186.897 232.375, 187.533 235.075, 187.972 237 C 188.580 239.668, 188.797 239.926, 188.885 238.083 C 188.993 235.804, 190.500 235.948, 190.500 238.238 C 190.500 238.827, 191.287 239.425, 192.250 239.566 C 194.680 239.923, 194.464 239.310, 190.904 235.750 C 189.201 234.047, 187.388 231.719, 186.875 230.577 C 186.070 228.782, 186.027 228.839, 186.559 231 M 244 231.622 C 244 233.019, 243.768 233.054, 242.339 231.872 C 240.857 230.647, 240.786 230.715, 241.676 232.500 C 242.225 233.600, 243.535 236.300, 244.587 238.500 C 246.036 241.530, 247.167 242.577, 249.250 242.816 C 250.762 242.990, 252 243.539, 252 244.035 C 252 244.531, 251.213 244.666, 250.250 244.334 C 248.832 243.845, 248.878 244.024, 250.489 245.277 C 252.515 246.852, 254.501 246.620, 253.457 244.931 C 252.602 243.546, 254.107 243.804, 255.390 245.262 C 256 245.956, 256.394 246.338, 256.266 246.111 C 256.137 245.884, 256.812 245.105, 257.766 244.381 C 259.960 242.715, 264.405 242.536, 263.405 244.155 C 262.985 244.833, 263.128 245.039, 263.752 244.654 C 264.335 244.293, 264.582 243.117, 264.300 242.041 C 264.005 240.912, 264.679 238.952, 265.894 237.407 C 267.052 235.935, 267.954 233.553, 267.898 232.115 C 267.806 229.771, 267.714 229.842, 267.016 232.791 C 265.420 239.526, 258.942 243.564, 251.521 242.451 C 247.966 241.918, 246.894 241.219, 245.414 238.469 C 243.937 235.728, 243.826 234.678, 244.787 232.567 C 245.491 231.023, 245.567 230, 244.979 230 C 244.440 230, 244 230.730, 244 231.622 M 184.006 232.059 C 184.003 232.916, 184.661 234.491, 185.468 235.559 C 187.378 238.084, 187.397 236.990, 185.506 233.364 C 184.685 231.789, 184.010 231.201, 184.006 232.059 M 265.865 240.464 C 264.978 242.316, 265.015 242.345, 266.280 240.785 C 267.235 239.605, 267.992 239.392, 268.702 240.102 C 269.412 240.812, 269.897 240.712, 270.254 239.782 C 271.110 237.551, 266.952 238.198, 265.865 240.464 M 231.079 241.173 C 230.975 243.381, 235.510 248.695, 239.069 250.536 C 240.787 251.424, 244.736 252, 249.112 252 C 255.033 252, 257.101 251.545, 260.662 249.458 C 263.048 248.060, 265 246.673, 265 246.376 C 265 246.080, 263.538 246.713, 261.750 247.783 C 259.664 249.033, 257.067 249.638, 254.500 249.473 C 252.300 249.332, 249.658 249.663, 248.629 250.208 C 247.200 250.965, 246.944 250.900, 247.543 249.930 C 248.094 249.038, 247.848 248.844, 246.715 249.279 C 245.528 249.735, 245.265 249.472, 245.721 248.285 C 246.185 247.075, 245.985 246.896, 244.920 247.568 C 242.534 249.073, 237.599 248.903, 235.750 247.252 C 233.803 245.514, 233.347 243.478, 235.155 244.595 C 235.876 245.041, 236.037 244.869, 235.585 244.138 C 235.187 243.494, 234.443 243.226, 233.931 243.543 C 233.419 243.859, 233 243.679, 233 243.142 C 233 242.606, 233.338 241.978, 233.750 241.747 C 234.162 241.517, 233.967 241.454, 233.315 241.608 C 232.663 241.762, 231.911 241.350, 231.644 240.694 C 231.369 240.018, 231.124 240.226, 231.079 241.173 M 278 246.500 C 277.264 247.875, 276.176 249.058, 275.581 249.129 C 272.190 249.533, 269 249.532, 269 249.125 C 269 248.868, 269.788 247.722, 270.750 246.579 C 272.474 244.531, 272.469 244.526, 270.419 246.252 C 269.274 247.216, 268.037 247.703, 267.669 247.336 C 267.045 246.712, 266.852 247.223, 266.600 250.167 C 266.532 250.957, 268.757 251.321, 273.500 251.295 C 278.960 251.266, 280.413 250.954, 280.107 249.879 C 279.891 249.120, 279.773 247.488, 279.846 246.250 C 280.015 243.366, 279.651 243.416, 278 246.500 M 199 249 C 197.793 249.780, 197.951 249.972, 199.809 249.985 C 201.097 249.993, 201.845 249.558, 201.500 249 C 200.757 247.798, 200.861 247.798, 199 249 M 34.345 255.564 C 31.554 258.355, 31.360 261.039, 33.750 263.802 C 36.675 267.185, 39.633 267.458, 42.483 264.608 C 45.349 261.742, 45.649 259.372, 43.529 256.345 C 41.266 253.114, 37.145 252.764, 34.345 255.564 M 36.493 255.989 C 36.840 256.550, 36.451 256.726, 35.594 256.398 C 33.551 255.614, 32.460 260.123, 33.997 262.995 C 34.933 264.743, 35.693 265.034, 37.832 264.462 C 39.299 264.070, 41.043 263.730, 41.706 263.708 C 42.369 263.685, 42.680 263.292, 42.397 262.833 C 42.114 262.375, 42.359 262, 42.941 262 C 44.410 262, 44.211 258.861, 42.608 256.750 C 41.236 254.942, 35.397 254.215, 36.493 255.989" stroke="none" fill="#343a5d" fill-rule="evenodd"/><path d="M 88.787 160.081 C 85.644 160.542, 80.469 161.964, 77.287 163.241 L 71.500 165.563 71.711 169.997 C 71.832 172.548, 71.407 174.804, 70.711 175.310 C 69.940 175.869, 70.215 175.954, 71.468 175.542 C 72.550 175.187, 76.664 174.486, 80.610 173.986 C 93.490 172.353, 106.237 175.856, 115.735 183.639 C 118.141 185.611, 120.341 186.992, 120.625 186.709 C 121.712 185.622, 116.514 177.342, 111.336 171.914 C 107.759 168.163, 103.817 165.280, 99.712 163.412 C 93.623 160.642, 93.560 160.573, 96.500 159.911 C 99.102 159.326, 99.169 159.237, 97 159.240 C 95.625 159.242, 91.929 159.621, 88.787 160.081 M 102.269 160.693 C 103.242 160.947, 104.592 160.930, 105.269 160.656 C 105.946 160.382, 105.150 160.175, 103.500 160.195 C 101.850 160.215, 101.296 160.439, 102.269 160.693 M 158.405 162.250 L 156.500 164.500 159 162.511 C 160.375 161.417, 161.688 160.404, 161.917 160.261 C 162.146 160.117, 161.878 160, 161.322 160 C 160.765 160, 159.453 161.012, 158.405 162.250 M 168.286 162.301 C 169.504 163.566, 170.685 164.469, 170.911 164.307 C 171.494 163.888, 167.856 160, 166.881 160 C 166.436 160, 167.068 161.035, 168.286 162.301 M 119.500 166.283 C 122.800 168.064, 127.702 171.203, 130.394 173.260 C 134.977 176.763, 138.902 178.269, 137.490 175.984 C 137.144 175.425, 136.539 175.167, 136.145 175.410 C 135.751 175.654, 135.429 175.004, 135.429 173.966 C 135.429 172.184, 135.543 172.172, 137.464 173.755 C 142.343 177.775, 148.364 184.706, 151.063 189.411 C 152.668 192.210, 153.985 194.007, 153.991 193.405 C 154.010 191.108, 146.145 180.297, 141.428 176.138 C 135.973 171.327, 128.191 167, 124.993 167 C 123.853 167, 121.156 166.100, 119 165 C 112.591 161.730, 112.998 162.774, 119.500 166.283 M 393.415 176.362 C 393.127 177.111, 393.029 180.374, 393.196 183.612 L 393.500 189.500 402.250 189.789 L 411 190.078 411 182.539 L 411 175 402.469 175 C 396.192 175, 393.799 175.360, 393.415 176.362 M 394 182.500 L 394 189 402 189 L 410 189 410 182.500 L 410 176 402 176 L 394 176 394 182.500 M 197.768 194.725 C 199.565 194.947, 202.265 194.943, 203.768 194.715 C 205.271 194.486, 203.800 194.304, 200.500 194.310 C 197.200 194.315, 195.971 194.502, 197.768 194.725 M 325.762 194.707 C 327.006 194.946, 328.806 194.937, 329.762 194.687 C 330.718 194.437, 329.700 194.241, 327.500 194.252 C 325.300 194.263, 324.518 194.468, 325.762 194.707 M 358.750 194.706 C 359.988 194.944, 362.012 194.944, 363.250 194.706 C 364.488 194.467, 363.475 194.272, 361 194.272 C 358.525 194.272, 357.512 194.467, 358.750 194.706 M 294.468 196.222 C 294.193 196.940, 294.094 209.897, 294.250 225.014 L 294.534 252.500 294.767 224.250 L 295 196 302.440 196 L 309.879 196 310.294 199.509 L 310.710 203.017 310.605 199.259 L 310.500 195.500 302.735 195.208 C 297.049 194.994, 294.835 195.265, 294.468 196.222 M 397.776 195.733 C 400.128 195.945, 403.728 195.942, 405.776 195.727 C 407.824 195.512, 405.900 195.339, 401.500 195.343 C 397.100 195.346, 395.424 195.522, 397.776 195.733 M 410.441 224 C 410.441 239.675, 410.579 246.087, 410.748 238.250 C 410.917 230.412, 410.917 217.587, 410.748 209.750 C 410.579 201.912, 410.441 208.325, 410.441 224 M 274 200.500 C 275.292 201.875, 276.574 203, 276.849 203 C 277.124 203, 276.292 201.875, 275 200.500 C 273.708 199.125, 272.426 198, 272.151 198 C 271.876 198, 272.708 199.125, 274 200.500 M 219.925 201.221 C 221.974 203.574, 222.112 204.182, 220.952 205.721 C 219.670 207.420, 219.696 207.421, 221.526 205.744 C 223.403 204.022, 223.382 203.932, 220.499 201.244 L 217.556 198.500 219.925 201.221 M 344.139 201.033 C 342.841 202.115, 342.209 203, 342.734 203 C 343.260 203, 344.505 202.100, 345.500 201 C 347.787 198.473, 347.195 198.487, 344.139 201.033 M 156.195 204.500 C 156.215 206.150, 156.439 206.704, 156.693 205.731 C 156.947 204.758, 156.930 203.408, 156.656 202.731 C 156.382 202.054, 156.175 202.850, 156.195 204.500 M 199.269 208.693 C 200.242 208.947, 201.592 208.930, 202.269 208.656 C 202.946 208.382, 202.150 208.175, 200.500 208.195 C 198.850 208.215, 198.296 208.439, 199.269 208.693 M 45.320 215 C 45.320 218.575, 45.502 220.037, 45.723 218.250 C 45.945 216.463, 45.945 213.537, 45.723 211.750 C 45.502 209.963, 45.320 211.425, 45.320 215 M 205.083 209.303 C 205.313 209.469, 206.850 210.396, 208.500 211.362 L 211.500 213.119 209.139 211.059 C 207.841 209.927, 206.303 209, 205.723 209 C 205.142 209, 204.854 209.136, 205.083 209.303 M 237.257 210 C 237.482 210.825, 238.528 211.605, 239.583 211.732 C 240.930 211.896, 241.054 211.777, 240 211.332 C 239.175 210.985, 238.128 210.205, 237.674 209.600 C 237.143 208.893, 236.994 209.035, 237.257 210 M 190.924 212.750 L 188.500 215.500 191.250 213.076 C 192.762 211.742, 194 210.505, 194 210.326 C 194 209.541, 193.190 210.180, 190.924 212.750 M 214.924 212.750 L 212.500 215.500 215.250 213.076 C 216.762 211.742, 218 210.505, 218 210.326 C 218 209.541, 217.190 210.180, 214.924 212.750 M 380.420 232.500 C 380.419 243.500, 380.565 248.136, 380.745 242.803 C 380.924 237.470, 380.925 228.470, 380.746 222.803 C 380.568 217.136, 380.421 221.500, 380.420 232.500 M 281.419 233 C 281.419 243.725, 281.566 248.113, 281.746 242.750 C 281.925 237.387, 281.925 228.613, 281.746 223.250 C 281.566 217.887, 281.419 222.275, 281.419 233 M 248.250 217.728 C 250.313 217.944, 253.688 217.944, 255.750 217.728 C 257.813 217.513, 256.125 217.336, 252 217.336 C 247.875 217.336, 246.188 217.513, 248.250 217.728 M 310.411 235 C 310.411 244.625, 310.561 248.563, 310.745 243.750 C 310.928 238.937, 310.928 231.062, 310.745 226.250 C 310.561 221.438, 310.411 225.375, 310.411 235 M 345.411 235 C 345.411 244.625, 345.561 248.563, 345.745 243.750 C 345.928 238.937, 345.928 231.062, 345.745 226.250 C 345.561 221.438, 345.411 225.375, 345.411 235 M 148.223 220.557 C 147 221.413, 146 222.795, 146 223.628 C 146 225.104, 140.047 232.517, 133 239.818 C 131.075 241.813, 129.601 243.761, 129.725 244.148 C 130.119 245.378, 123.735 246.384, 116.563 246.221 C 107.600 246.018, 100.521 244.514, 92.009 241.004 C 85.166 238.182, 82.996 238.086, 85.166 240.700 C 86.032 241.744, 86.030 242.370, 85.158 243.242 C 84.521 243.879, 84 244.742, 84 245.161 C 84 246.498, 88.302 250.126, 95.384 254.763 C 100.978 258.425, 101.962 259.442, 100.634 260.185 C 98.149 261.576, 98.662 262.950, 102.250 264.509 L 105.500 265.922 101.500 266.078 L 97.500 266.235 102.500 267.114 C 108.018 268.083, 121.097 266.036, 126.180 263.407 C 127.733 262.604, 131.780 259.337, 135.175 256.146 C 139.866 251.737, 141.180 249.910, 140.651 248.532 C 140.046 246.956, 139.169 246.802, 133.925 247.350 C 130.043 247.756, 128.112 247.628, 128.506 246.990 C 128.843 246.446, 129.879 246, 130.809 245.999 C 133.813 245.998, 144.386 240.353, 148.500 236.555 C 150.700 234.524, 151.861 233.192, 151.080 233.595 C 149.985 234.160, 149.845 233.890, 150.469 232.414 C 151.685 229.536, 152.371 219, 151.343 219 C 150.849 219, 149.445 219.701, 148.223 220.557 M 329.409 235.500 C 329.408 244.850, 329.558 248.810, 329.743 244.299 C 329.928 239.789, 329.929 232.139, 329.745 227.299 C 329.562 222.460, 329.410 226.150, 329.409 235.500 M 46.409 225.193 C 47.057 230.549, 50.689 238.310, 52.131 237.419 C 52.888 236.951, 53.042 237.123, 52.562 237.899 C 51.498 239.621, 57.806 247.345, 64.558 252.587 C 67.992 255.254, 72.733 257.764, 76.581 258.952 C 80.075 260.032, 84.341 261.642, 86.060 262.531 C 87.779 263.420, 89.341 263.992, 89.531 263.803 C 89.721 263.613, 87.005 261.969, 83.497 260.150 C 71.438 253.898, 60.347 241.531, 53.380 226.569 L 51.020 221.500 50.965 225.500 L 50.910 229.500 49.465 226.500 C 48.234 223.945, 48.104 223.871, 48.589 226 C 48.902 227.375, 49.404 229.400, 49.704 230.500 C 50.003 231.600, 49.900 232.170, 49.474 231.766 C 49.048 231.363, 48.083 228.888, 47.331 226.266 C 46.129 222.080, 46.017 221.949, 46.409 225.193 M 253.250 227.716 C 254.762 227.945, 257.238 227.945, 258.750 227.716 C 260.262 227.487, 259.025 227.300, 256 227.300 C 252.975 227.300, 251.738 227.487, 253.250 227.716 M 229.286 235.500 C 229.294 238.250, 229.488 239.256, 229.718 237.736 C 229.947 236.216, 229.941 233.966, 229.704 232.736 C 229.467 231.506, 229.279 232.750, 229.286 235.500 M 211.872 234.750 C 210.624 236.342, 210.660 236.374, 212.279 235.103 C 213.843 233.876, 214.389 233.997, 216.779 236.103 L 219.500 238.500 217.076 235.750 C 214.230 232.522, 213.700 232.420, 211.872 234.750 M 206.500 237.536 C 204.850 238.292, 204.201 238.930, 205.059 238.955 C 205.916 238.980, 207.491 238.339, 208.559 237.532 C 210.929 235.739, 210.423 235.740, 206.500 237.536 M 213 250.500 C 211.625 251.286, 210.976 251.945, 211.559 251.965 C 212.141 251.984, 213.491 251.339, 214.559 250.532 C 217.028 248.664, 216.239 248.648, 213 250.500 M 308.995 267.250 C 309.585 267.938, 310.700 269.400, 311.473 270.500 C 312.805 272.397, 312.958 272.410, 314.442 270.754 C 315.303 269.793, 315.466 269.456, 314.804 270.004 C 313.010 271.489, 312.435 271.250, 311.182 268.500 C 310.555 267.125, 309.565 266, 308.982 266 C 308.241 266, 308.245 266.377, 308.995 267.250 M 321.355 274.500 C 321.352 279.450, 321.521 281.601, 321.731 279.280 C 321.940 276.959, 321.943 272.909, 321.736 270.280 C 321.530 267.651, 321.358 269.550, 321.355 274.500 M 350.750 266.743 C 357.356 267.057, 359.650 268.015, 356.975 269.342 C 356.411 269.621, 356.524 269.734, 357.225 269.592 C 357.926 269.450, 358.645 268.584, 358.823 267.667 C 359.105 266.212, 358.150 266.025, 351.323 266.199 L 343.500 266.397 350.750 266.743 M 387.980 266.743 C 390.445 266.960, 393.145 267.669, 393.980 268.319 C 395.308 269.351, 395.326 269.279, 394.128 267.750 C 393.129 266.477, 391.495 266.048, 388.128 266.175 L 383.500 266.349 387.980 266.743 M 304.150 274.191 C 304.067 278.421, 304.337 282.092, 304.750 282.348 C 305.163 282.604, 305.373 280.268, 305.217 277.157 C 304.730 267.390, 304.305 266.212, 304.150 274.191 M 409.079 268.358 C 409.016 269.850, 408.457 270.102, 406.250 269.635 C 403.623 269.079, 403.602 269.104, 405.783 270.194 C 408.362 271.483, 410.606 270.130, 409.691 267.837 C 409.348 266.975, 409.130 267.160, 409.079 268.358 M 330.872 270.750 C 329.679 272.272, 329.695 272.351, 331 271.358 C 331.825 270.729, 333.400 269.994, 334.500 269.724 C 336.400 269.257, 336.393 269.226, 334.372 269.116 C 333.202 269.052, 331.627 269.788, 330.872 270.750 M 365.872 270.750 C 364.679 272.272, 364.695 272.351, 366 271.358 C 366.825 270.729, 368.400 269.994, 369.500 269.724 C 371.400 269.257, 371.393 269.226, 369.372 269.116 C 368.202 269.052, 366.627 269.788, 365.872 270.750 M 310.556 276.250 C 312.365 279.221, 313.474 279.659, 314.595 277.845 C 315.044 277.120, 314.869 276.963, 314.127 277.422 C 313.445 277.843, 312.083 277.167, 310.913 275.826 L 308.881 273.500 310.556 276.250 M 315.405 275.155 C 314.962 275.870, 315.130 276.038, 315.845 275.595 C 316.634 275.108, 317 275.991, 317 278.382 C 317 280.307, 317.337 282.091, 317.750 282.346 C 318.163 282.600, 318.342 280.827, 318.149 278.405 C 317.804 274.068, 316.806 272.887, 315.405 275.155 M 360 276.659 C 360 277.205, 361.238 278.742, 362.750 280.076 L 365.500 282.500 363 279.500 C 361.625 277.850, 360.387 276.313, 360.250 276.083 C 360.113 275.854, 360 276.113, 360 276.659 M 410.116 277.693 C 410.052 278.900, 409 280.587, 407.777 281.443 C 406.555 282.299, 406.035 283, 406.623 283 C 408.479 283, 411.195 279.224, 410.704 277.324 C 410.316 275.826, 410.211 275.891, 410.116 277.693 M 375.606 279.848 L 373.712 282.500 376.050 280.278 C 377.337 279.056, 378.189 277.862, 377.944 277.626 C 377.700 277.389, 376.648 278.389, 375.606 279.848 M 384.881 279.781 C 384.552 281.769, 384.698 282.702, 385.253 282.147 C 385.757 281.643, 386.002 280.166, 385.797 278.865 C 385.482 276.864, 385.342 277.004, 384.881 279.781 M 353.079 279.680 C 353.027 281.113, 352.228 282.010, 350.750 282.294 L 348.500 282.728 350.781 282.864 C 353.150 283.005, 354.567 281.007, 353.673 278.783 C 353.390 278.077, 353.122 278.481, 353.079 279.680" stroke="none" fill="#ffa852" fill-rule="evenodd"/><path d="M 101.198 161.878 C 100.407 162.367, 101.211 163.207, 103.529 164.312 C 107.613 166.260, 108.358 166.389, 107.500 165 C 107.147 164.428, 108.085 163.973, 109.691 163.937 C 112.106 163.882, 112.219 163.763, 110.500 163.088 C 106.963 161.698, 102.440 161.110, 101.198 161.878 M 74.926 175.428 C 57.997 179.143, 49.347 189.776, 46.514 210.357 C 46.051 213.721, 46.176 215.009, 46.923 214.548 C 47.515 214.182, 48.007 211.996, 48.015 209.691 C 48.031 205.521, 49.316 202.009, 50.229 203.643 C 50.492 204.114, 50.759 207.100, 50.822 210.277 C 51.003 219.350, 55.847 233.831, 58.212 232.369 C 58.883 231.954, 59.023 232.153, 58.573 232.881 C 57.833 234.079, 62.828 242.783, 65.555 245.046 C 66.718 246.011, 67 245.916, 67 244.563 C 67 243.547, 67.457 243.164, 68.155 243.595 C 68.876 244.041, 69.037 243.869, 68.585 243.138 C 68.187 242.494, 67.490 242.197, 67.036 242.478 C 66.581 242.759, 65.960 242.339, 65.656 241.545 C 65.262 240.520, 65.594 240.280, 66.801 240.717 C 67.807 241.081, 67.481 240.463, 66 239.199 C 63.901 237.408, 63.786 237.061, 65.285 237.033 C 66.780 237.005, 66.890 236.663, 65.959 234.924 C 64.934 233.008, 65.015 232.937, 67.010 234.005 C 68.199 234.642, 69.433 234.901, 69.752 234.581 C 70.072 234.261, 69.733 234, 69 234 C 68.267 234, 67.949 233.718, 68.293 233.373 C 68.999 232.668, 66.622 227.661, 63.955 224.238 C 62.984 222.992, 61.870 219.177, 61.473 215.738 C 61.077 212.307, 60.355 208.449, 59.868 207.164 C 59.215 205.439, 59.313 204.936, 60.242 205.242 C 60.940 205.471, 61.761 208.069, 62.087 211.078 C 62.492 214.823, 62.770 215.572, 62.984 213.500 C 63.690 206.678, 63.106 200.963, 61.542 199.399 C 60.065 197.922, 60.100 197.648, 61.967 196.028 C 64.144 194.140, 64.553 191.424, 63.025 189.006 C 62.300 187.860, 62.827 187.147, 65.290 185.943 C 67.056 185.080, 68.369 183.784, 68.208 183.063 C 68.006 182.150, 68.708 181.902, 70.515 182.248 C 71.972 182.526, 73.695 182.162, 74.437 181.420 C 75.166 180.691, 76.007 180.340, 76.306 180.639 C 77.318 181.652, 81 179.875, 81 178.374 C 81 177.553, 81.419 177.141, 81.931 177.457 C 82.443 177.774, 83.156 177.557, 83.515 176.976 C 83.874 176.394, 84.993 176.180, 86 176.500 C 87.007 176.820, 88.164 176.544, 88.570 175.886 C 89.037 175.131, 88.884 174.954, 88.155 175.405 C 87.520 175.797, 87 175.641, 87 175.059 C 87 173.711, 82.064 173.862, 74.926 175.428 M 105 179.941 C 105 180.459, 105.450 181.160, 106 181.500 C 106.550 181.840, 107 181.416, 107 180.559 C 107 179.702, 106.550 179, 106 179 C 105.450 179, 105 179.423, 105 179.941 M 77 187 C 77 187.550, 77.423 188, 77.941 188 C 78.459 188, 79.160 187.550, 79.500 187 C 79.840 186.450, 79.416 186, 78.559 186 C 77.702 186, 77 186.450, 77 187 M 96.500 187.392 C 94.300 188.085, 91.375 189.233, 90 189.945 C 86.656 191.677, 81 197.099, 81 198.574 C 81 199.223, 80.346 200.298, 79.547 200.961 C 77.274 202.848, 74.845 212.677, 75.102 218.954 C 75.229 222.087, 74.978 225.227, 74.542 225.932 C 73.958 226.877, 74.288 227.044, 75.792 226.566 C 77.462 226.036, 77.741 226.276, 77.320 227.883 C 76.675 230.350, 82.426 234.745, 92.796 239.708 L 100.092 243.200 105.296 241.486 C 108.158 240.543, 110.950 239.697, 111.500 239.606 C 112.050 239.515, 114.628 238.406, 117.228 237.141 C 122.056 234.794, 126.313 230.245, 129.527 224 C 131.762 219.656, 131.736 207.772, 129.484 204.335 C 128.668 203.090, 128 201.353, 128 200.476 C 128 199.599, 127.550 199.160, 127 199.500 C 126.450 199.840, 126 199.489, 126 198.720 C 126 197.951, 124.200 195.656, 122 193.620 C 119.800 191.585, 118 189.263, 118 188.460 C 118 186.818, 118.275 186.897, 111.500 186.576 C 108.750 186.445, 105.851 186.825, 105.058 187.419 C 103.970 188.235, 103.800 188.193, 104.367 187.250 C 105.338 185.634, 101.891 185.696, 96.500 187.392 M 154.250 211.720 C 153.563 211.966, 153 212.836, 153 213.655 C 153 214.918, 153.244 214.899, 154.619 213.524 C 156.379 211.764, 156.226 211.015, 154.250 211.720 M 64 215 C 64 215.550, 64.702 216, 65.559 216 C 66.416 216, 66.840 215.550, 66.500 215 C 66.160 214.450, 65.459 214, 64.941 214 C 64.423 214, 64 214.450, 64 215 M 153.015 219.691 C 153.007 220.896, 153.450 222.160, 154 222.500 C 155.273 223.287, 155.273 220.970, 154 219 C 153.212 217.781, 153.028 217.910, 153.015 219.691 M 69 247.845 C 69 249.185, 72.591 252.076, 73.333 251.333 C 73.702 250.964, 73.259 249.838, 72.347 248.831 C 70.598 246.899, 69 246.428, 69 247.845 M 352.286 275.500 C 352.294 278.250, 352.488 279.256, 352.718 277.736 C 352.947 276.216, 352.941 273.966, 352.704 272.736 C 352.467 271.506, 352.279 272.750, 352.286 275.500 M 305.195 274.500 C 305.215 276.150, 305.439 276.704, 305.693 275.731 C 305.947 274.758, 305.930 273.408, 305.656 272.731 C 305.382 272.054, 305.175 272.850, 305.195 274.500" stroke="none" fill="#c72742" fill-rule="evenodd"/><path d="M 160.441 163.468 C 159.076 164.501, 158.921 164.946, 159.917 164.968 C 160.696 164.986, 161.044 165.289, 160.691 165.643 C 160.337 165.996, 159.363 165.716, 158.525 165.021 C 157.221 163.939, 157.034 164.137, 157.221 166.401 C 157.372 168.227, 157.880 168.876, 158.861 168.500 C 159.974 168.073, 160.032 168.256, 159.129 169.344 C 158.234 170.423, 158.370 171.044, 159.738 172.117 C 161.338 173.373, 161.374 173.339, 160.128 171.750 C 158.942 170.238, 158.976 170, 160.378 170 C 161.270 170, 162 170.450, 162 171 C 162 172.981, 165.805 171.946, 167.385 169.535 C 168.273 168.180, 168.993 166.717, 168.985 166.285 C 168.976 165.853, 168.551 166.162, 168.039 166.971 C 167.527 167.780, 166.838 168.171, 166.507 167.840 C 166.176 167.509, 166.572 166.571, 167.388 165.755 C 170.530 162.613, 164.289 160.558, 160.441 163.468 M 400.852 179.807 C 397.635 180.179, 396.737 182.809, 398.702 186.098 C 399.492 187.419, 399.930 187.801, 399.676 186.946 C 399.007 184.701, 407.239 184.679, 408.116 186.924 C 408.454 187.791, 408.763 186.634, 408.801 184.354 C 408.865 180.588, 408.625 180.176, 406.186 179.854 C 404.709 179.659, 402.308 179.638, 400.852 179.807 M 194.250 195.689 C 195.213 195.941, 196.787 195.941, 197.750 195.689 C 198.713 195.438, 197.925 195.232, 196 195.232 C 194.075 195.232, 193.287 195.438, 194.250 195.689 M 201.750 195.706 C 202.988 195.944, 205.012 195.944, 206.250 195.706 C 207.488 195.467, 206.475 195.272, 204 195.272 C 201.525 195.272, 200.512 195.467, 201.750 195.706 M 252.750 195.723 C 254.537 195.945, 257.462 195.945, 259.250 195.723 C 261.038 195.502, 259.575 195.320, 256 195.320 C 252.425 195.320, 250.963 195.502, 252.750 195.723 M 394.441 224 C 394.441 239.675, 394.579 246.087, 394.748 238.250 C 394.917 230.412, 394.917 217.587, 394.748 209.750 C 394.579 201.912, 394.441 208.325, 394.441 224 M 197.500 198 C 199.079 198.678, 198.657 198.877, 195.500 198.945 C 192.872 199.001, 191.963 199.324, 192.851 199.887 C 193.760 200.463, 192.617 200.980, 189.351 201.469 C 183.554 202.336, 182.327 202.959, 184.143 204.110 C 185.153 204.749, 184.967 204.973, 183.417 204.985 C 180.326 205.007, 179.785 203.915, 181.732 201.581 C 182.687 200.437, 182.013 200.822, 180.234 202.437 C 178.455 204.052, 177 205.605, 177 205.887 C 177 206.169, 177.529 205.871, 178.176 205.224 C 179.442 203.958, 182 205.310, 182 207.245 C 182 207.855, 181.477 207.811, 180.658 207.131 C 178.984 205.742, 177.656 206.881, 179.026 208.531 C 180.126 209.857, 179.329 213, 177.893 213 C 177.402 213, 177 213.675, 177 214.500 C 177 215.325, 176.564 216, 176.031 216 C 175.499 216, 175.300 215.383, 175.589 214.629 C 175.878 213.875, 175.364 212.970, 174.446 212.618 C 173.208 212.142, 172.935 212.388, 173.389 213.570 C 173.725 214.447, 174 216.053, 174 217.141 C 174 218.228, 174.338 218.910, 174.750 218.655 C 175.162 218.400, 175.507 220.623, 175.516 223.596 C 175.525 226.568, 175.188 229, 174.766 229 C 173.475 229, 173.917 233.805, 175.250 234.254 C 176.242 234.588, 176.246 234.983, 175.267 236.169 C 174.278 237.368, 174.339 238.044, 175.572 239.582 C 177.013 241.379, 177.036 241.342, 175.926 239 C 174.771 236.564, 174.820 236.574, 177.835 239.403 C 179.537 241, 180.689 242.695, 180.395 243.169 C 180.102 243.644, 179.436 243.769, 178.915 243.447 C 178.394 243.125, 178.269 242.373, 178.638 241.776 C 179.053 241.105, 178.840 240.981, 178.079 241.451 C 177.174 242.011, 177.435 242.834, 179.070 244.575 C 181.394 247.049, 183.316 246.986, 182.349 244.468 C 182.040 243.661, 182.284 243, 182.893 243 C 183.502 243, 184 243.482, 184 244.071 C 184 244.661, 184.679 245.822, 185.509 246.652 C 186.339 247.482, 186.723 248.687, 186.362 249.331 C 185.893 250.167, 186.077 250.157, 187.006 249.297 C 187.936 248.436, 188.856 248.388, 190.239 249.128 C 191.302 249.697, 192.433 249.901, 192.752 249.581 C 193.072 249.261, 192.808 249, 192.167 249 C 191.525 249, 191 248.589, 191 248.087 C 191 247.580, 192.309 247.668, 193.938 248.283 C 195.554 248.893, 196.611 249.821, 196.287 250.345 C 195.921 250.936, 197.738 251.027, 201.080 250.584 C 204.040 250.191, 206.710 249.470, 207.012 248.981 C 207.680 247.899, 212.075 248.036, 213.613 249.186 C 214.366 249.749, 214.690 249.152, 214.613 247.343 C 214.551 245.872, 215.063 244.480, 215.751 244.250 C 216.589 243.971, 216.784 244.437, 216.341 245.666 C 215.978 246.675, 215.992 247.223, 216.372 246.885 C 217.615 245.779, 217.987 241.890, 216.778 242.637 C 216.044 243.091, 215.886 242.739, 216.319 241.612 C 216.683 240.663, 216.566 240.150, 216.058 240.464 C 215.552 240.777, 214.887 240.626, 214.580 240.130 C 213.246 237.972, 217.992 238.362, 220.077 240.582 C 221.991 242.619, 222.110 243.185, 220.952 244.721 C 219.669 246.421, 219.694 246.422, 221.530 244.739 C 223.408 243.017, 223.349 242.875, 218.892 238.419 C 216.130 235.656, 214.333 234.461, 214.333 235.386 C 214.333 236.225, 214.677 236.699, 215.098 236.440 C 215.518 236.180, 216.144 236.425, 216.490 236.984 C 216.835 237.543, 216.281 238, 215.259 238 C 214.237 238, 212.860 238.540, 212.200 239.200 C 211.267 240.133, 210.974 240.078, 210.882 238.950 C 210.816 238.152, 210.854 237.050, 210.965 236.500 C 211.076 235.950, 210.792 235.875, 210.333 236.333 C 209.498 237.169, 209.357 237.661, 209.125 240.559 C 209.056 241.416, 208.614 241.880, 208.142 241.588 C 207.671 241.296, 205.793 241.486, 203.970 242.009 C 201.742 242.647, 200.235 242.610, 199.372 241.893 C 198.665 241.307, 197.665 241.089, 197.149 241.408 C 196.632 241.727, 195.978 241.386, 195.696 240.650 C 195.329 239.695, 195.943 239.409, 197.841 239.652 L 200.500 239.992 197.828 239.103 C 196.359 238.615, 194.677 237.918, 194.090 237.555 C 193.447 237.158, 193.248 237.483, 193.589 238.371 C 194.111 239.732, 193.712 239.813, 190.128 239.077 C 189.923 239.034, 190.282 238.365, 190.926 237.589 C 191.588 236.791, 191.702 235.934, 191.188 235.616 C 189.930 234.839, 189.021 235.944, 188.885 238.417 C 188.818 239.627, 188.436 239.034, 187.972 237 C 187.533 235.075, 186.897 232.375, 186.559 231 C 186.004 228.746, 186.038 228.711, 186.902 230.648 C 187.429 231.829, 188.454 233.153, 189.180 233.590 C 190.250 234.234, 190.247 234.071, 189.162 232.733 C 188.425 231.825, 187.438 228.016, 186.968 224.269 C 186.497 220.521, 185.819 216.566, 185.462 215.478 C 185.093 214.356, 185.177 213.933, 185.656 214.500 C 186.120 215.050, 187.162 215.646, 187.972 215.824 C 189.214 216.097, 189.199 215.863, 187.874 214.324 C 185.377 211.423, 184.988 210.333, 186.449 210.333 C 187.197 210.333, 187.579 210.933, 187.298 211.667 C 187.016 212.400, 187.284 213, 187.893 213 C 188.502 213, 189 212.550, 189 212 C 189 211.450, 189.477 211, 190.059 211 C 190.641 211, 190.792 211.527, 190.394 212.171 C 189.996 212.815, 190.826 212.477, 192.237 211.421 C 193.649 210.364, 194.627 209.316, 194.411 209.092 C 193.570 208.220, 196.355 205.996, 198.372 205.930 C 200.448 205.861, 200.451 205.838, 198.500 205 C 197.400 204.527, 197.008 204.109, 197.628 204.070 C 200.220 203.909, 206.448 207.364, 209.768 210.806 C 211.728 212.838, 212.751 213.713, 212.043 212.750 C 210.992 211.322, 210.993 211, 212.044 211 C 212.753 211, 213.088 210.755, 212.788 210.455 C 212.489 210.155, 213.539 208.615, 215.122 207.032 C 216.705 205.449, 218 203.418, 218 202.518 C 218 201.475, 218.453 201.154, 219.250 201.633 C 220.157 202.178, 220.137 201.936, 219.177 200.751 C 217.846 199.109, 215 199.392, 215 201.166 C 215 201.690, 214.543 201.835, 213.984 201.490 C 213.425 201.144, 213.157 200.555, 213.388 200.181 C 213.620 199.806, 211.064 199.390, 207.709 199.255 C 204.354 199.120, 201.157 198.557, 200.605 198.005 C 200.052 197.452, 198.678 197.032, 197.550 197.070 C 195.520 197.140, 195.520 197.149, 197.500 198 M 267.458 198.068 C 267.095 198.656, 266.145 198.886, 265.347 198.580 C 264.549 198.273, 264.137 198.413, 264.431 198.889 C 264.726 199.365, 262.274 199.539, 258.983 199.276 C 255.359 198.986, 253 199.190, 253 199.793 C 253 200.341, 251.875 200.724, 250.501 200.644 C 249.126 200.565, 248.001 200.162, 248.001 199.750 C 248 199.338, 247.523 199, 246.941 199 C 246.359 199, 246.204 199.521, 246.597 200.158 C 247.084 200.946, 246.645 201.140, 245.221 200.768 C 243.893 200.421, 242.919 200.770, 242.552 201.724 C 242.228 202.570, 241.201 203.024, 240.202 202.763 C 239.042 202.460, 238.429 202.861, 238.429 203.922 C 238.429 204.999, 239.282 205.538, 240.964 205.523 C 242.468 205.509, 243.398 206.009, 243.250 206.750 C 243.113 207.438, 243.675 208, 244.500 208 C 245.325 208, 246 207.550, 246 207 C 246 206.450, 247.463 205.993, 249.250 205.985 C 251.716 205.973, 252.138 205.736, 251 205 C 249.720 204.173, 249.758 204.028, 251.261 204.015 C 253.814 203.993, 262.325 208.179, 261.183 208.895 C 260.651 209.228, 261.266 210.288, 262.548 211.251 C 264.223 212.509, 265.081 212.677, 265.595 211.847 C 266.035 211.134, 265.871 210.962, 265.166 211.397 C 264.408 211.866, 264.219 211.498, 264.606 210.302 C 265.045 208.945, 264.950 208.835, 264.219 209.857 C 263.542 210.805, 263.044 210.881, 262.566 210.107 C 262.190 209.498, 262.385 209, 263 209 C 263.628 209, 263.789 208.452, 263.367 207.750 C 262.768 206.753, 262.926 206.751, 264.150 207.741 C 264.994 208.424, 265.920 208.747, 266.208 208.459 C 266.935 207.732, 266.337 212.645, 265.542 213.931 C 265.176 214.525, 265.472 214.756, 266.228 214.466 C 267.122 214.123, 267.611 214.867, 267.714 216.727 C 267.847 219.111, 267.748 219.220, 267.005 217.500 C 266.171 215.571, 266.138 215.578, 266.070 217.691 C 266.004 219.771, 264 222.167, 264 220.167 C 264 217.265, 250.439 218.042, 249.501 220.998 C 249.076 222.337, 248.058 222.655, 245.015 222.397 C 242.504 222.184, 240.548 222.595, 239.611 223.532 C 238.804 224.339, 237.533 225, 236.787 225 C 234.894 225, 231.753 230.647, 232.441 232.814 C 232.754 233.799, 232.347 235.481, 231.536 236.552 C 229.858 238.772, 229.497 241.429, 231 240.500 C 231.550 240.160, 232 240.344, 232 240.910 C 232 241.475, 232.563 241.800, 233.250 241.633 C 233.938 241.465, 234.162 241.517, 233.750 241.747 C 233.338 241.978, 233 242.606, 233 243.142 C 233 243.679, 233.419 243.859, 233.931 243.543 C 234.443 243.226, 235.187 243.494, 235.585 244.138 C 236.012 244.828, 235.877 245.042, 235.259 244.660 C 233.597 243.633, 232.960 246.722, 234.559 248.049 C 235.352 248.707, 236 248.976, 236 248.647 C 236 248.318, 237.151 248.487, 238.557 249.022 C 240.450 249.741, 240.927 249.691, 240.393 248.827 C 239.899 248.027, 240.235 247.876, 241.463 248.347 C 242.448 248.725, 243.956 248.464, 244.814 247.767 C 246.130 246.698, 246.275 246.766, 245.738 248.199 C 245.262 249.472, 245.507 249.743, 246.715 249.279 C 247.848 248.844, 248.094 249.038, 247.543 249.930 C 246.944 250.900, 247.200 250.965, 248.629 250.208 C 250.802 249.057, 256.896 249.200, 258.919 250.450 C 259.864 251.034, 260.081 250.940, 259.595 250.155 C 258.948 249.106, 260.194 248.536, 262.324 248.906 C 262.778 248.985, 262.893 248.636, 262.580 248.130 C 262.267 247.624, 262.672 246.956, 263.479 246.646 C 264.287 246.337, 265.395 246.852, 265.943 247.792 C 266.673 249.043, 266.947 249.121, 266.970 248.083 C 266.986 247.304, 267.301 246.968, 267.669 247.336 C 268.037 247.703, 269.274 247.216, 270.419 246.252 C 272.469 244.526, 272.474 244.531, 270.750 246.579 C 269.788 247.722, 269 248.897, 269 249.189 C 269 249.742, 275.999 249.399, 276.422 248.826 C 276.555 248.647, 277.465 247.375, 278.446 246 C 280.063 243.732, 280.183 243.698, 279.737 245.639 C 279.466 246.816, 279.633 248.391, 280.107 249.139 C 280.607 249.928, 280.969 242.306, 280.969 231 C 280.969 218.046, 280.644 212.004, 280 213 C 279.153 214.310, 279.029 214.297, 279.015 212.896 C 279.007 212.014, 277.910 210.116, 276.578 208.678 C 275.245 207.241, 273.865 205.150, 273.510 204.032 C 273.155 202.915, 272.221 202, 271.433 202 C 270.645 202, 270 201.550, 270 201 C 270 200.450, 269.270 200, 268.378 200 C 267.049 200, 266.980 199.729, 268 198.500 C 268.685 197.675, 268.991 197, 268.681 197 C 268.372 197, 267.821 197.481, 267.458 198.068 M 326.080 198.654 C 324.199 199.474, 321.853 199.933, 320.867 199.675 C 319.881 199.418, 318.556 199.830, 317.923 200.592 C 317.291 201.354, 316.443 201.773, 316.038 201.524 C 315.634 201.274, 314.431 201.882, 313.364 202.875 C 311.742 204.386, 311.219 204.460, 310.162 203.328 C 309.466 202.584, 309.126 201.605, 309.405 201.154 C 309.684 200.703, 309.257 200.333, 308.456 200.333 C 307.655 200.333, 307 200.708, 307 201.167 C 307 201.625, 306.550 202, 306 202 C 305.450 202, 305 201.316, 305 200.481 C 305 199.331, 304.332 199.122, 302.250 199.619 C 295.649 201.197, 296 199.712, 296 226.035 C 296 241.345, 296.361 250, 297 250 C 297.550 250, 298 249.100, 298 248 C 298 246.900, 298.395 246, 298.878 246 C 300.309 246, 302.044 248.612, 301.241 249.559 C 300.834 250.040, 301.268 249.848, 302.206 249.131 C 303.145 248.414, 304.452 248.161, 305.111 248.568 C 305.837 249.017, 306.047 248.886, 305.645 248.235 C 305.280 247.644, 306.027 246.337, 307.306 245.330 C 309.572 243.547, 309.622 243.153, 309.245 230.129 C 308.865 217.009, 309.807 211, 312.244 211 C 312.794 211, 312.641 211.787, 311.903 212.750 C 311.165 213.713, 311.784 213.409, 313.280 212.076 C 316.004 209.648, 316.877 208.340, 315 209.500 C 314.450 209.840, 314 209.602, 314 208.971 C 314 208.202, 315.399 208.006, 318.250 208.377 C 321.370 208.783, 321.836 208.700, 320 208.064 L 317.500 207.199 320.059 207.100 C 321.466 207.045, 323.491 207.676, 324.559 208.502 C 326.471 209.983, 326.470 209.996, 324.500 209.408 C 322.916 208.936, 322.805 209.027, 323.966 209.848 C 324.928 210.528, 325.839 210.548, 326.613 209.907 C 328.502 208.338, 331.997 214.944, 332.015 220.118 C 332.024 222.528, 332.361 223.978, 332.765 223.341 C 333.169 222.703, 333.347 227.111, 333.160 233.136 C 332.974 239.161, 333.157 244.857, 333.569 245.795 C 333.981 246.733, 334.214 247.950, 334.087 248.500 C 333.961 249.050, 334.429 248.938, 335.129 248.250 C 336.700 246.705, 338.366 246.599, 337.436 248.104 C 337.061 248.711, 337.971 248.410, 339.459 247.435 C 341.916 245.825, 342.146 245.150, 341.963 240.081 C 341.685 232.380, 341.767 232.005, 343.750 231.965 C 345.089 231.937, 344.912 231.590, 343 230.486 C 340.566 229.081, 340.555 229.027, 342.600 228.444 C 344.149 228.002, 344.714 227.012, 344.755 224.673 C 344.806 221.685, 344.756 221.639, 343.883 223.895 C 342.808 226.676, 342.331 226.469, 341.848 223.011 C 341.643 221.545, 342.014 220.466, 342.750 220.386 C 344.917 220.150, 344.969 220.049, 344.095 217.750 C 343.204 215.406, 345.046 212.454, 346.554 213.810 C 346.976 214.190, 346.924 213.825, 346.438 213 C 345.195 210.886, 345 208.882, 346.104 209.564 C 346.615 209.880, 346.714 210.670, 346.324 211.319 C 345.783 212.221, 345.956 212.225, 347.058 211.335 C 347.851 210.694, 348.800 210.244, 349.167 210.335 C 349.533 210.426, 350.208 210.090, 350.667 209.590 C 351.160 209.051, 350.927 209.012, 350.095 209.494 C 349.137 210.050, 348.924 209.933, 349.423 209.124 C 349.875 208.393, 351.564 208.134, 353.828 208.448 C 356.464 208.813, 356.797 208.739, 355.010 208.186 C 353.641 207.762, 352.971 207.136, 353.523 206.795 C 354.074 206.454, 355.644 206.795, 357.013 207.552 C 358.381 208.310, 359.102 208.945, 358.615 208.965 C 358.128 208.984, 359.020 210.012, 360.596 211.250 C 362.172 212.488, 363.807 213.388, 364.231 213.250 C 364.654 213.113, 365 213.477, 365 214.059 C 365 214.641, 365.337 214.909, 365.750 214.653 C 366.163 214.397, 366.430 222.358, 366.345 232.344 C 366.260 242.330, 366.495 249.150, 366.866 247.500 C 367.323 245.474, 367.801 244.911, 368.340 245.766 C 368.779 246.463, 369.510 246.803, 369.964 246.522 C 370.419 246.241, 371.047 246.680, 371.361 247.497 C 371.692 248.362, 372.991 248.896, 374.465 248.774 L 377 248.564 377.149 235.532 C 377.343 218.454, 377.298 216.953, 376.501 214 C 375.979 212.064, 376.068 211.838, 376.898 213 C 377.784 214.241, 377.972 214.101, 377.985 212.191 C 377.993 210.903, 377.558 210.155, 377 210.500 C 376.450 210.840, 376 210.679, 376 210.142 C 376 209.606, 376.563 208.940, 377.250 208.662 C 377.938 208.385, 377.488 208.122, 376.250 208.079 C 374.727 208.025, 374 207.381, 374 206.083 C 374 205.029, 373.663 203.978, 373.250 203.747 C 372.837 203.517, 373.040 203.456, 373.699 203.613 C 374.401 203.780, 374.658 203.273, 374.320 202.392 C 374.002 201.563, 373.125 201.122, 372.371 201.411 C 371.576 201.716, 371 201.291, 371 200.401 C 371 199.290, 370.412 199.052, 368.875 199.540 C 367.456 199.990, 366.975 199.850, 367.427 199.119 C 367.818 198.485, 367.554 198.212, 366.802 198.470 C 366.086 198.716, 362.585 199.130, 359.023 199.389 C 355.461 199.648, 352.385 200.344, 352.188 200.936 C 351.991 201.527, 351.040 201.036, 350.074 199.843 C 348.839 198.318, 348.101 198.027, 347.585 198.862 C 347.158 199.553, 347.353 199.935, 348.051 199.775 C 348.710 199.624, 349.477 200.125, 349.755 200.889 C 350.096 201.828, 349.838 202.018, 348.960 201.475 C 348.006 200.886, 347.844 201.152, 348.353 202.477 C 348.880 203.850, 348.740 204.040, 347.773 203.270 C 347.073 202.713, 345.629 202.396, 344.565 202.567 C 343.501 202.738, 342.005 202.117, 341.241 201.189 C 340.477 200.260, 340.137 200.063, 340.485 200.750 C 340.833 201.438, 340.641 202, 340.059 202 C 339.477 202, 339 201.523, 339 200.941 C 339 200.359, 338.530 200.172, 337.956 200.527 C 337.382 200.882, 336.277 200.645, 335.500 200 C 334.723 199.355, 333.659 199.093, 333.134 199.417 C 332.610 199.741, 331.427 199.717, 330.506 199.364 C 329.172 198.852, 329.103 198.550, 330.166 197.876 C 332.255 196.552, 329.854 197.009, 326.080 198.654 M 312.924 200.750 L 310.500 203.500 313.250 201.076 C 314.762 199.742, 316 198.505, 316 198.326 C 316 197.541, 315.190 198.180, 312.924 200.750 M 408.386 198.816 C 409.384 200.430, 404.618 201.401, 402.159 200.085 C 399.619 198.726, 397.685 198.681, 398.500 200 C 398.840 200.550, 398.679 201, 398.142 201 C 397.606 201, 396.940 200.438, 396.662 199.750 C 396.385 199.063, 396.122 209.412, 396.079 222.750 C 396.008 244.389, 396.173 247, 397.607 247 C 398.706 247, 399.009 247.535, 398.564 248.694 C 397.953 250.286, 398.027 250.286, 399.786 248.694 C 400.815 247.762, 402.372 247, 403.245 247 C 404.119 247, 405.020 246.439, 405.249 245.753 C 405.505 244.984, 406.126 245.368, 406.868 246.753 C 407.529 247.989, 408.505 249, 409.035 249 C 410.505 249, 410.318 199.315, 408.845 198.405 C 408.141 197.969, 407.962 198.130, 408.386 198.816 M 342.074 204.589 C 342.574 205.191, 342.649 206.041, 342.241 206.477 C 341.834 206.914, 342.487 206.758, 343.694 206.130 C 347.044 204.388, 347.160 203.414, 344.012 203.456 C 342.065 203.481, 341.452 203.840, 342.074 204.589 M 217.613 205.875 C 216.680 206.906, 215.989 208.144, 216.077 208.625 C 216.450 210.665, 215.901 211.392, 215.029 210.013 C 214.290 208.844, 214.125 209.004, 214.257 210.763 C 214.350 211.993, 214.471 213, 214.526 213 C 214.581 213, 215.948 211.580, 217.563 209.845 C 219.178 208.110, 219.938 207.012, 219.250 207.404 C 217.656 208.314, 217.622 206.778, 219.200 205.200 C 219.860 204.540, 220.155 204, 219.855 204 C 219.555 204, 218.546 204.844, 217.613 205.875 M 250.768 208.725 C 252.565 208.947, 255.265 208.943, 256.768 208.715 C 258.271 208.486, 256.800 208.304, 253.500 208.310 C 250.200 208.315, 248.971 208.502, 250.768 208.725 M 361.479 210.976 C 363.027 212.687, 365 212.914, 365 211.382 C 365 211.107, 364.597 211.131, 364.105 211.435 C 363.612 211.740, 362.952 211.316, 362.636 210.494 C 362.321 209.672, 361.529 209, 360.876 209 C 360.164 209, 360.405 209.790, 361.479 210.976 M 379.195 211.500 C 379.215 213.150, 379.439 213.704, 379.693 212.731 C 379.947 211.758, 379.930 210.408, 379.656 209.731 C 379.382 209.054, 379.175 209.850, 379.195 211.500 M 175.012 211.412 C 175.663 212.063, 176.392 212.008, 177.149 211.251 C 178.015 210.385, 177.771 210.142, 176.161 210.263 C 174.753 210.369, 174.361 210.761, 175.012 211.412 M 364.415 234 C 364.415 244.175, 364.564 248.338, 364.745 243.250 C 364.927 238.162, 364.927 229.837, 364.745 224.750 C 364.564 219.662, 364.415 223.825, 364.415 234 M 245 218.729 C 245.825 219.043, 246.775 219.720, 247.111 220.234 C 247.447 220.747, 247.995 220.455, 248.329 219.584 C 248.796 218.369, 248.304 218.018, 246.219 218.079 C 244.621 218.125, 244.118 218.393, 245 218.729 M 171.300 224 C 171.300 227.025, 171.487 228.262, 171.716 226.750 C 171.945 225.238, 171.945 222.762, 171.716 221.250 C 171.487 219.738, 171.300 220.975, 171.300 224 M 242.364 220.506 C 245.990 222.397, 247.084 222.378, 244.559 220.468 C 243.491 219.661, 241.916 219.003, 241.059 219.006 C 240.201 219.010, 240.789 219.685, 242.364 220.506 M 251.800 221.200 C 252.733 222.133, 253.267 222.133, 254.200 221.200 C 255.133 220.267, 254.867 220, 253 220 C 251.133 220, 250.867 220.267, 251.800 221.200 M 261.554 223.913 C 261.170 224.534, 261.657 225.043, 262.691 225.100 C 263.686 225.156, 262.700 225.634, 260.500 226.164 C 258.300 226.694, 255.027 226.900, 253.228 226.623 C 251.428 226.345, 250.188 226.495, 250.472 226.954 C 250.756 227.414, 250.293 228.057, 249.442 228.384 C 248.426 228.774, 248.111 228.553, 248.522 227.739 C 248.867 227.057, 248.503 227.287, 247.714 228.250 C 246.925 229.213, 245.746 230, 245.094 230 C 244.341 230, 244.057 231.183, 244.315 233.250 C 244.538 235.037, 244.531 235.745, 244.300 234.823 C 244.069 233.900, 243.119 232.550, 242.190 231.823 C 240.736 230.685, 240.656 230.710, 241.612 232 C 242.224 232.825, 243.019 234.735, 243.380 236.244 C 243.740 237.753, 244.365 238.882, 244.768 238.752 C 245.170 238.622, 246.613 239.300, 247.973 240.258 C 249.747 241.508, 249.989 242, 248.829 242 C 247.941 242, 246.930 241.261, 246.583 240.357 C 246.237 239.453, 245.674 238.992, 245.334 239.333 C 244.994 239.673, 245.310 240.669, 246.037 241.545 C 247.006 242.713, 248.580 243.025, 251.930 242.715 C 254.443 242.482, 255.488 242.481, 254.250 242.712 C 253.012 242.944, 252 243.539, 252 244.035 C 252 244.531, 251.213 244.666, 250.250 244.334 C 248.832 243.845, 248.878 244.024, 250.489 245.277 C 252.515 246.852, 254.501 246.620, 253.457 244.931 C 252.602 243.546, 254.107 243.804, 255.390 245.262 C 256 245.956, 256.394 246.338, 256.266 246.111 C 255.757 245.214, 259.631 243.062, 261.809 243.032 C 263.378 243.010, 263.888 243.401, 263.399 244.250 C 263.003 244.938, 263.053 245.161, 263.511 244.746 C 263.968 244.331, 264.378 242.306, 264.421 240.246 C 264.464 238.186, 264.900 236.651, 265.388 236.835 C 265.877 237.020, 266.657 236.570, 267.123 235.835 C 268.324 233.940, 268.202 230, 266.941 230 C 266.359 230, 266.203 229.480, 266.595 228.845 C 267.015 228.166, 266.872 227.961, 266.247 228.347 C 265.663 228.708, 264.131 228.540, 262.842 227.974 C 260.742 227.050, 260.721 226.986, 262.644 227.350 C 264.059 227.619, 264.718 227.285, 264.584 226.368 C 264.261 224.172, 262.351 222.624, 261.554 223.913 M 254.365 225.219 C 254.099 225.648, 254.782 226, 255.882 226 C 256.982 226, 258.143 225.577, 258.463 225.061 C 258.782 224.544, 258.099 224.192, 256.946 224.279 C 255.792 224.366, 254.631 224.789, 254.365 225.219 M 307.272 228 C 307.272 230.475, 307.467 231.488, 307.706 230.250 C 307.944 229.012, 307.944 226.988, 307.706 225.750 C 307.467 224.512, 307.272 225.525, 307.272 228 M 305.252 228.500 C 305.263 230.700, 305.468 231.482, 305.707 230.238 C 305.946 228.994, 305.937 227.194, 305.687 226.238 C 305.437 225.282, 305.241 226.300, 305.252 228.500 M 234.964 228.164 C 233.819 230.397, 233.846 230.424, 235.574 228.774 C 236.568 227.824, 237.107 226.773, 236.771 226.438 C 236.436 226.103, 235.623 226.880, 234.964 228.164 M 184.006 232.059 C 184.003 232.916, 184.661 234.491, 185.468 235.559 C 187.378 238.084, 187.397 236.990, 185.506 233.364 C 184.685 231.789, 184.010 231.201, 184.006 232.059 M 343.862 237.750 C 343.658 238.713, 343.757 241.975, 344.082 245 L 344.674 250.500 344.837 243.250 C 344.995 236.226, 344.626 234.147, 343.862 237.750 M 265.865 240.464 C 264.978 242.316, 265.015 242.345, 266.280 240.785 C 267.235 239.605, 267.992 239.392, 268.702 240.102 C 269.412 240.812, 269.897 240.712, 270.254 239.782 C 271.110 237.551, 266.952 238.198, 265.865 240.464 M 199 249 C 197.793 249.780, 197.951 249.972, 199.809 249.985 C 201.097 249.993, 201.845 249.558, 201.500 249 C 200.757 247.798, 200.861 247.798, 199 249 M 271.264 251.718 C 272.784 251.947, 275.034 251.941, 276.264 251.704 C 277.494 251.467, 276.250 251.279, 273.500 251.286 C 270.750 251.294, 269.744 251.488, 271.264 251.718 M 300.750 251.706 C 301.988 251.944, 304.012 251.944, 305.250 251.706 C 306.488 251.467, 305.475 251.272, 303 251.272 C 300.525 251.272, 299.512 251.467, 300.750 251.706 M 370.264 251.718 C 371.784 251.947, 374.034 251.941, 375.264 251.704 C 376.494 251.467, 375.250 251.279, 372.500 251.286 C 369.750 251.294, 368.744 251.488, 370.264 251.718 M 196.728 252.722 C 198.503 252.943, 201.653 252.946, 203.728 252.730 C 205.802 252.513, 204.350 252.333, 200.500 252.328 C 196.650 252.324, 194.952 252.501, 196.728 252.722 M 246.250 252.716 C 247.762 252.945, 250.238 252.945, 251.750 252.716 C 253.262 252.487, 252.025 252.300, 249 252.300 C 245.975 252.300, 244.738 252.487, 246.250 252.716 M 39.231 254.725 C 37.433 254.947, 36.219 255.545, 36.533 256.053 C 36.847 256.561, 36.406 256.709, 35.552 256.382 C 34.696 256.053, 34 256.309, 34 256.952 C 34 257.593, 33.663 257.909, 33.250 257.655 C 32.837 257.400, 32.500 258.455, 32.500 260 C 32.500 261.545, 32.868 262.582, 33.317 262.304 C 33.766 262.026, 33.991 262.632, 33.817 263.650 C 33.451 265.789, 35.717 265.716, 40.371 263.438 C 41.951 262.665, 43.526 262.207, 43.871 262.421 C 44.217 262.634, 44.500 261.539, 44.500 259.988 C 44.500 258.436, 44.106 257.242, 43.625 257.333 C 43.144 257.425, 42.523 256.875, 42.245 256.111 C 41.907 255.179, 42.163 254.983, 43.025 255.515 C 43.867 256.036, 44.063 255.911, 43.595 255.155 C 43.203 254.520, 42.796 254.072, 42.691 254.160 C 42.586 254.248, 41.029 254.502, 39.231 254.725" stroke="none" fill="#393d5b" fill-rule="evenodd"/><path d="M 94.500 161 C 94.840 161.550, 95.541 162, 96.059 162 C 96.577 162, 97 161.550, 97 161 C 97 160.450, 96.298 160, 95.441 160 C 94.584 160, 94.160 160.450, 94.500 161 M 102.006 164.442 C 104.484 165.733, 108.821 169.233, 111.645 172.218 C 119.088 180.088, 124.397 191.479, 117.682 185.171 C 114.944 182.599, 114 182.442, 114 184.559 C 114 185.416, 113.528 185.826, 112.951 185.470 C 112.228 185.023, 112.249 184.405, 113.018 183.478 C 113.877 182.443, 113.601 181.785, 111.817 180.619 C 107.244 177.628, 100.375 175.104, 93.994 174.069 C 85.155 172.635, 84.605 172.658, 86.211 174.395 C 86.920 175.162, 87.907 175.543, 88.405 175.241 C 88.902 174.938, 88.977 175.229, 88.570 175.886 C 88.164 176.544, 87.007 176.820, 86 176.500 C 84.993 176.180, 83.874 176.394, 83.515 176.976 C 83.156 177.557, 82.443 177.774, 81.931 177.457 C 81.419 177.141, 81 177.553, 81 178.374 C 81 179.875, 77.318 181.652, 76.306 180.639 C 76.007 180.340, 75.166 180.691, 74.437 181.420 C 73.695 182.162, 71.972 182.526, 70.515 182.248 C 68.708 181.902, 68.006 182.150, 68.208 183.063 C 68.369 183.784, 67.056 185.080, 65.290 185.943 C 62.827 187.147, 62.300 187.860, 63.025 189.006 C 64.553 191.424, 64.144 194.140, 61.967 196.028 C 60.100 197.648, 60.065 197.922, 61.542 199.399 C 63.106 200.963, 63.690 206.678, 62.984 213.500 C 62.770 215.572, 62.492 214.823, 62.087 211.078 C 61.761 208.069, 60.940 205.471, 60.242 205.242 C 59.313 204.936, 59.215 205.439, 59.868 207.164 C 60.355 208.449, 61.077 212.307, 61.473 215.738 C 61.870 219.177, 62.984 222.992, 63.955 224.238 C 66.622 227.661, 68.999 232.668, 68.293 233.373 C 67.949 233.718, 68.267 234, 69 234 C 69.733 234, 70.072 234.261, 69.752 234.581 C 69.433 234.901, 68.199 234.642, 67.010 234.005 C 65.015 232.937, 64.934 233.008, 65.959 234.924 C 66.890 236.663, 66.780 237.005, 65.285 237.033 C 63.786 237.061, 63.901 237.408, 66 239.199 C 67.481 240.463, 67.807 241.081, 66.801 240.717 C 65.594 240.280, 65.262 240.520, 65.656 241.545 C 65.960 242.339, 66.581 242.759, 67.036 242.478 C 67.490 242.197, 68.187 242.494, 68.585 243.138 C 69.037 243.869, 68.876 244.041, 68.155 243.595 C 67.453 243.162, 67 243.555, 67 244.596 C 67 246.192, 66.846 246.187, 64.750 244.521 C 63.513 243.537, 65.803 245.940, 69.839 249.862 C 79.058 258.817, 91.002 265.143, 99.760 265.707 L 105.500 266.077 102.250 264.587 C 98.658 262.940, 98.156 261.572, 100.634 260.185 C 101.962 259.442, 100.978 258.425, 95.384 254.763 C 88.302 250.126, 84 246.498, 84 245.161 C 84 244.742, 84.521 243.879, 85.158 243.242 C 86.030 242.370, 86.032 241.744, 85.166 240.700 C 82.996 238.086, 85.166 238.182, 92.009 241.004 C 100.521 244.514, 107.600 246.018, 116.563 246.221 C 123.735 246.384, 130.119 245.378, 129.725 244.148 C 129.601 243.761, 131.075 241.813, 133 239.818 C 140.047 232.517, 146 225.104, 146 223.628 C 146 222.211, 149.578 219, 151.156 219 C 151.547 219, 152.055 220.238, 152.284 221.750 C 152.513 223.262, 152.768 221.736, 152.850 218.357 C 152.955 214.043, 153.428 212.050, 154.438 211.662 C 155.363 211.307, 156.027 211.892, 156.302 213.305 C 156.570 214.687, 156.772 214.203, 156.846 212 C 157.038 206.353, 154.306 195.333, 151.383 189.962 C 148.882 185.368, 142.347 177.754, 137.464 173.748 C 135.546 172.174, 135.429 172.186, 135.429 173.966 C 135.429 175.004, 135.751 175.654, 136.145 175.410 C 136.539 175.167, 137.144 175.425, 137.490 175.984 C 138.934 178.321, 134.988 176.720, 129.931 172.916 C 123.198 167.853, 115.951 164.121, 114.111 164.770 C 113.174 165.100, 112.983 164.836, 113.525 163.960 C 114.109 163.014, 113.853 162.843, 112.582 163.330 C 111.622 163.699, 109.947 164, 108.859 164 C 107.772 164, 107.160 164.450, 107.500 165 C 108.405 166.465, 107.389 166.239, 103 164 C 100.844 162.900, 98.724 162.021, 98.290 162.047 C 97.855 162.072, 99.528 163.150, 102.006 164.442 M 105 179.941 C 105 180.459, 105.450 181.160, 106 181.500 C 106.550 181.840, 107 181.416, 107 180.559 C 107 179.702, 106.550 179, 106 179 C 105.450 179, 105 179.423, 105 179.941 M 77 187 C 77 187.550, 77.423 188, 77.941 188 C 78.459 188, 79.160 187.550, 79.500 187 C 79.840 186.450, 79.416 186, 78.559 186 C 77.702 186, 77 186.450, 77 187 M 96.500 187.392 C 94.300 188.085, 91.375 189.233, 90 189.945 C 86.656 191.677, 81 197.099, 81 198.574 C 81 199.223, 80.346 200.298, 79.547 200.961 C 77.274 202.848, 74.845 212.677, 75.102 218.954 C 75.229 222.087, 74.978 225.227, 74.542 225.932 C 73.958 226.877, 74.288 227.044, 75.792 226.566 C 77.462 226.036, 77.741 226.276, 77.320 227.883 C 76.675 230.350, 82.426 234.745, 92.796 239.708 L 100.092 243.200 105.296 241.486 C 108.158 240.543, 110.950 239.697, 111.500 239.606 C 112.050 239.515, 114.628 238.406, 117.228 237.141 C 122.056 234.794, 126.313 230.245, 129.527 224 C 131.762 219.656, 131.736 207.772, 129.484 204.335 C 128.668 203.090, 128 201.353, 128 200.476 C 128 199.599, 127.550 199.160, 127 199.500 C 126.450 199.840, 126 199.489, 126 198.720 C 126 197.951, 124.200 195.656, 122 193.620 C 119.800 191.585, 118 189.263, 118 188.460 C 118 186.818, 118.275 186.897, 111.500 186.576 C 108.750 186.445, 105.851 186.825, 105.058 187.419 C 103.970 188.235, 103.800 188.193, 104.367 187.250 C 105.338 185.634, 101.891 185.696, 96.500 187.392 M 48.605 204.588 C 48.272 205.454, 48 207.837, 48 209.882 C 48 211.927, 47.494 214.106, 46.875 214.725 C 45.484 216.116, 46.519 225.202, 48.557 229.500 C 49.532 231.556, 49.826 231.792, 49.490 230.250 C 49.221 229.012, 48.779 226.988, 48.510 225.750 C 48.169 224.186, 48.460 224.415, 49.465 226.500 L 50.910 229.500 50.968 225.500 L 51.026 221.500 53.532 226.500 C 56.101 231.625, 56.055 231.350, 52.809 222.173 C 51.772 219.243, 50.874 213.941, 50.814 210.390 C 50.705 203.996, 49.772 201.546, 48.605 204.588 M 46.195 208.500 C 46.215 210.150, 46.439 210.704, 46.693 209.731 C 46.947 208.758, 46.930 207.408, 46.656 206.731 C 46.382 206.054, 46.175 206.850, 46.195 208.500 M 64 215 C 64 215.550, 64.702 216, 65.559 216 C 66.416 216, 66.840 215.550, 66.500 215 C 66.160 214.450, 65.459 214, 64.941 214 C 64.423 214, 64 214.450, 64 215 M 151 229.918 C 151 230.423, 150.699 231.622, 150.330 232.582 C 149.909 233.680, 150.050 234.087, 150.709 233.680 C 152.092 232.825, 153.070 229, 151.906 229 C 151.408 229, 151 229.413, 151 229.918 M 69 247.845 C 69 249.185, 72.591 252.076, 73.333 251.333 C 73.702 250.964, 73.259 249.838, 72.347 248.831 C 70.598 246.899, 69 246.428, 69 247.845 M 347.204 269.622 C 348.512 270.011, 348.996 271.565, 349.288 276.314 L 349.669 282.500 349.584 276.010 C 349.510 270.286, 349.264 269.496, 347.500 269.317 C 346.030 269.169, 345.952 269.249, 347.204 269.622 M 381.310 275.500 C 381.315 278.800, 381.502 280.029, 381.725 278.232 C 381.947 276.435, 381.943 273.735, 381.715 272.232 C 381.486 270.729, 381.304 272.200, 381.310 275.500 M 308.168 277.857 C 308.025 281.561, 307.738 282.114, 306.250 281.548 C 304.847 281.014, 304.748 281.131, 305.750 282.141 C 307.728 284.133, 309.192 281.800, 308.736 277.382 L 308.336 273.500 308.168 277.857 M 398 279.441 C 398 280.234, 398.354 281.100, 398.786 281.368 C 399.218 281.635, 399.571 280.986, 399.571 279.927 C 399.571 278.867, 399.218 278, 398.786 278 C 398.354 278, 398 278.648, 398 279.441" stroke="none" fill="#cc3d47" fill-rule="evenodd"/></svg>