<svg xmlns="http://www.w3.org/2000/svg" width="500" height="500">
  <path fill="#525252" fill-rule="evenodd" d="M195.75 30.723c1.787.222 4.713.222 6.5 0 1.787-.221.325-.403-3.25-.403s-5.037.182-3.25.403M83.453 37.25 79.5 41.5l4.25-3.953C87.702 33.871 88.46 33 87.703 33c-.163 0-2.076 1.913-4.25 4.25m65.779-.25c0 1.925.206 2.712.457 1.75.252-.962.252-2.538 0-3.5-.251-.962-.457-.175-.457 1.75m121.714.75L267.5 41.5l3.75-3.446c2.063-1.896 3.75-3.583 3.75-3.75 0-.764-.846-.044-4.054 3.446m66.326.25c0 2.475.195 3.487.434 2.25.238-1.237.238-3.263 0-4.5-.239-1.237-.434-.225-.434 2.25m-97.986 12.5c.008 2.75.202 3.756.432 2.236.229-1.52.223-3.77-.014-5-.237-1.23-.425.014-.418 2.764m-89.141.5c-.129 3.312-.432 4.104-1.145 3-.582-.901-.975-1.025-.985-.309-.024 1.863 1.935 2.602 2.563.968.309-.808.378-2.974.152-4.814-.351-2.865-.435-2.699-.585 1.155m188.015.809c-.113 2.328-.53 3.1-1.41 2.603-.992-.56-.996-.431-.017.625 1.742 1.878 2.476.707 1.998-3.191l-.411-3.346-.16 3.309M69.355 74.5c-.003 4.95.166 7.101.376 4.78.209-2.321.212-6.371.005-9-.206-2.629-.378-.73-.381 4.22m187.994-.5c0 4.675.173 6.587.383 4.25.211-2.338.211-6.163 0-8.5-.21-2.338-.383-.425-.383 4.25m14.961.5c.005 3.3.192 4.529.415 2.732.222-1.797.218-4.497-.01-6-.229-1.503-.411-.032-.405 3.268m-188.058-1c.011 2.2.216 2.982.455 1.738.239-1.244.23-3.044-.02-4s-.446.062-.435 2.262m109.998.228c2.063.216 5.438.216 7.5 0 2.063-.215.375-.392-3.75-.392s-5.812.177-3.75.392M271 109.5c1.866 1.925 3.617 3.5 3.892 3.5.275 0-1.026-1.575-2.892-3.5-1.866-1.925-3.617-3.5-3.892-3.5-.275 0 1.026 1.575 2.892 3.5m-35.054 1.25-3.446 3.75 3.75-3.446c3.49-3.208 4.21-4.054 3.446-4.054-.167 0-1.854 1.688-3.75 3.75m-36.178 3.975c1.797.222 4.497.218 6-.01 1.503-.229.032-.411-3.268-.405-3.3.005-4.529.192-2.732.415m-82.018.981c1.237.238 3.263.238 4.5 0 1.237-.239.225-.434-2.25-.434s-3.487.195-2.25.434m187 0c1.238.238 3.262.238 4.5 0 1.238-.239.225-.434-2.25-.434s-3.488.195-2.25.434M89.482 240.5c0 59.4.121 83.553.268 53.673.147-29.879.147-78.479 0-108-.147-29.52-.268-5.073-.268 54.327M202.32 139c0 3.575.182 5.037.403 3.25.222-1.787.222-4.713 0-6.5-.221-1.787-.403-.325-.403 3.25m-.034 203.5c.008 2.75.202 3.756.432 2.236.229-1.52.223-3.77-.014-5-.237-1.23-.425.014-.418 2.764M91 360.941c0 .518.52 1.262 1.155 1.654.707.438.883.275.453-.42-.511-.827 4.787-1.212 19.596-1.426l20.296-.293-20.75-.228c-12.461-.137-20.75.148-20.75.713m165-.292c8.204.732 19.78.793 19.349.101-.257-.413-5.503-.674-11.658-.582-6.155.093-9.616.309-7.691.481m55.651.101c-.256.413 3.88.631 9.191.485 17.114-.47 18.999-.87 4.967-1.055-7.53-.099-13.901.157-14.158.57m36.349-.072c13.23.721 28.776.76 28.348.072-.256-.413-7.977-.665-17.157-.561-9.18.104-14.216.324-11.191.489m40.655.072c-.255.413 6.2.75 14.345.75s14.6-.337 14.345-.75c-.254-.413-6.71-.75-14.345-.75-7.635 0-14.091.337-14.345.75m-61.419 44.674L327 439.349l-2.75-2.425-2.75-2.424 2.437 2.763c1.34 1.52 2.809 2.391 3.263 1.937.455-.455.702-15.874.55-34.264l-.278-33.436-.236 33.924M387 377.5c-2.429 2.475-4.191 4.5-3.916 4.5.275 0 2.487-2.025 4.916-4.5 2.429-2.475 4.191-4.5 3.916-4.5-.275 0-2.487 2.025-4.916 4.5m-113.768 25.25.232 25.75.285-25.298c.21-18.585.587-25.112 1.423-24.596.698.432.862.258.423-.451-2.183-3.534-2.579.586-2.363 24.595m99.221-11.5-3.953 4.25 4.25-3.953c3.952-3.676 4.71-4.547 3.953-4.547-.163 0-2.076 1.913-4.25 4.25M102.37 398c0 5.775.165 8.137.367 5.25.202-2.887.202-7.613 0-10.5-.202-2.887-.367-.525-.367 5.25m43.752-1.096c-1.531.969-.677 3.141 1.187 3.017.817-.054.786-.241-.101-.597-.992-.398-1.021-.844-.127-1.921 1.329-1.602 1.028-1.758-.959-.499M394 412.275c0 .151 3.488 3.639 7.75 7.75l7.75 7.475-7.475-7.75c-6.943-7.198-8.025-8.206-8.025-7.475M161.252 416.5c.011 2.2.216 2.982.455 1.738.239-1.244.23-3.044-.02-4s-.446.062-.435 2.262m-13.02 1.5c0 1.925.206 2.712.457 1.75.252-.962.252-2.538 0-3.5-.251-.962-.457-.175-.457 1.75m217.096 7.5c.005 3.85.185 5.302.402 3.228.216-2.075.213-5.225-.008-7-.221-1.776-.398-.078-.394 3.772m25.63-1.25c4.144 4.415 5.042 5.209 5.042 4.458 0-.16-2.137-2.298-4.75-4.75l-4.75-4.458 4.458 4.75M101.75 437.706c1.237.238 3.263.238 4.5 0 1.237-.239.225-.434-2.25-.434s-3.487.195-2.25.434m18 0c1.237.238 3.263.238 4.5 0 1.237-.239.225-.434-2.25-.434s-3.487.195-2.25.434m13 0c1.238.238 3.262.238 4.5 0 1.238-.239.225-.434-2.25-.434s-3.488.195-2.25.434m110.5-.017c.963.252 2.537.252 3.5 0 .963-.251.175-.457-1.75-.457s-2.713.206-1.75.457m174 0c.962.252 2.538.252 3.5 0 .962-.251.175-.457-1.75-.457s-2.712.206-1.75.457M90.116 456.25c.088 1.702.228 1.822.574.494.436-1.667 9.053-1.742 170.289-1.5 93.407.141 169.621-.081 169.367-.494-.255-.413-76.937-.75-170.405-.75H90l.116 2.25"/>
  <path fill="#d5a449" fill-rule="evenodd" d="M114.75 23.706c1.237.238 3.263.238 4.5 0 1.237-.239.225-.434-2.25-.434s-3.487.195-2.25.434m188.012.001c1.244.239 3.044.23 4-.02s-.062-.446-2.262-.435c-2.2.011-2.982.216-1.738.455m34.222 5.09.484 5.703.327-4.89c.179-2.689-.039-5.255-.485-5.703-.445-.447-.592 1.753-.326 4.89M339 24.48c0 1.363 89.545 90.375 90.228 89.692.436-.436.676-20.791.533-45.233L429.5 24.5l-45.25-.26c-24.887-.143-45.25-.035-45.25.24m-143.75 1.209c.963.252 2.537.252 3.5 0 .963-.251.175-.457-1.75-.457s-2.713.206-1.75.457M149.252 30.5c.011 2.2.216 2.982.455 1.738.239-1.244.23-3.044-.02-4s-.446.062-.435 2.262m38.161 19c.001 9.9.151 13.815.333 8.699.182-5.115.181-13.215-.002-18-.183-4.784-.332-.599-.331 9.301m-13.962 23c0 19.8.134 28.042.297 18.315.164-9.727.164-25.927.001-36s-.297-2.115-.298 17.685m21.799-3.772c2.063.216 5.438.216 7.5 0 2.063-.215.375-.392-3.75-.392s-5.812.177-3.75.392m-8.054 24.463c-.108 10.28.142 18.901.554 19.157.412.256.633-5.23.49-12.191-.481-23.354-.847-25.797-1.044-6.966m57.036.809c0 1.925.206 2.713.457 1.75.252-.963.252-2.537 0-3.5-.251-.963-.457-.175-.457 1.75m-101.77 11.25-4.962 5.25 5.25-4.962c4.878-4.612 5.709-5.538 4.962-5.538-.158 0-2.52 2.362-5.25 5.25m187.991 0-3.953 4.25 4.25-3.953c2.337-2.174 4.25-4.087 4.25-4.25 0-.757-.871.001-4.547 3.953M92 102.313c0 .172 1.463 1.635 3.25 3.25l3.25 2.937-2.937-3.25c-2.738-3.029-3.563-3.71-3.563-2.937m189 1c0 .172 1.462 1.635 3.25 3.25l3.25 2.937-2.937-3.25c-2.738-3.029-3.563-3.71-3.563-2.937m-58.563 3.937-2.937 3.25 3.25-2.937c1.787-1.615 3.25-3.078 3.25-3.25 0-.773-.825-.092-3.563 2.937m-78.984 3-3.953 4.25 4.25-3.953c3.952-3.676 4.71-4.547 3.953-4.547-.163 0-2.076 1.912-4.25 4.25m187.984 0-2.937 3.25 3.25-2.937c3.029-2.738 3.71-3.563 2.937-3.563-.172 0-1.635 1.463-3.25 3.25m-157.687 9.497c6.738.173 17.762.173 24.5 0 6.738-.173 1.225-.315-12.25-.315s-18.988.142-12.25.315m-62.5 1.969c1.513.229 3.987.229 5.5 0s.275-.416-2.75-.416-4.263.187-2.75.416m188 0c1.512.229 3.988.229 5.5 0s.275-.416-2.75-.416-4.262.187-2.75.416m-181.5 11.033c15.538.155 40.963.155 56.5 0 15.538-.155 2.825-.281-28.25-.281s-43.787.126-28.25.281m309.1 1.133c-.396 1.112-110.712 112.91-159.432 161.573-17.644 17.625-36.729 36.885-42.409 42.8l-10.327 10.754 107.356-.254 107.356-.255-.218-107.5c-.191-94.219-.578-112.024-2.326-107.118M202.426 166.5c.001 12.1.145 16.913.321 10.695.176-6.218.175-16.118-.001-22-.177-5.882-.321-.795-.32 11.305m.018 141.5c0 16.775.137 23.637.304 15.25.167-8.387.167-22.113 0-30.5s-.304-1.525-.304 15.25m-56.194 40.748c8.662.167 22.837.167 31.5 0 8.662-.166 1.575-.303-15.75-.303s-24.413.137-15.75.303M339 360.833c0 .642-1.012 1.219-2.25 1.283-1.852.095-1.922.201-.394.594 1.995.513 4.455-1.232 3.327-2.36-.375-.376-.683-.158-.683.483m3.251.167c.227.846 1.677 1.569 3.326 1.659 2.517.136 2.576.088.423-.351-1.375-.28-2.872-1.027-3.326-1.659-.552-.768-.693-.652-.423.351m-228.812 5.298c-.274.714-.37 7.577-.214 15.25l.284 13.952.495-15.251c.273-8.389.369-15.251.215-15.25-.155 0-.506.585-.78 1.299M322.432 393c0 13.475.142 18.988.315 12.25.173-6.738.173-17.762 0-24.5-.173-6.738-.315-1.225-.315 12.25m71.045-14.75-7.977 8.25 8.25-7.977c4.538-4.387 8.25-8.099 8.25-8.25 0-.729-1.115.315-8.523 7.977M268.44 398.5c0 15.4.139 21.56.308 13.689.169-7.87.169-20.47-.001-28-.169-7.529-.308-1.089-.307 14.311m96.777-14.75c-.119 7.288.163 13.25.628 13.25.465 0 1.702-1.012 2.75-2.25l1.905-2.25-2.219 1.877-2.219 1.877-.314-12.877-.313-12.877-.218 13.25M158.232 381c0 1.925.206 2.712.457 1.75.252-.962.252-2.538 0-3.5-.251-.962-.457-.175-.457 1.75m223.205 9.25-2.937 3.25 3.25-2.937c1.788-1.615 3.25-3.078 3.25-3.25 0-.773-.825-.092-3.563 2.937M385 403.5c4.651 4.675 8.681 8.5 8.956 8.5.275 0-3.305-3.825-7.956-8.5s-8.681-8.5-8.956-8.5c-.275 0 3.305 3.825 7.956 8.5m-271.559-2.206c-.273.712-.372 8.018-.219 16.237.262 14.105.39 14.955 2.278 15.149 1.555.16 1.611.09.25-.311-1.568-.462-1.75-2.111-1.75-15.885v-15.369l4.25-.383 4.25-.383-4.281-.174c-2.717-.111-4.463.298-4.778 1.119m251.719 8.456c.165 10.032.579 8.863 1.064-3.002.152-3.714-.061-6.751-.474-6.75-.413.001-.678 4.389-.59 9.752M379.5 414c6.031 6.05 11.191 11 11.466 11 .275 0-4.435-4.95-10.466-11s-11.191-11-11.466-11c-.275 0 4.435 4.95 10.466 11m-172-7-13 .592 13.25.204c8.303.128 13.25-.169 13.25-.796 0-.55-.113-.908-.25-.796-.137.112-6.1.471-13.25.796m-9.75 5.723c1.787.222 4.713.222 6.5 0 1.787-.221.325-.403-3.25-.403s-5.037.182-3.25.403m155.615 8.777c.003 5.5.171 7.622.373 4.716.203-2.905.201-7.405-.004-10-.206-2.594-.371-.216-.369 5.284M122.75 433.723c1.787.222 4.713.222 6.5 0 1.787-.221.325-.403-3.25-.403s-5.037.182-3.25.403m68.75 1.958c1.1.303 2.372 1.061 2.826 1.685.546.749.689.625.422-.366-.223-.825-1.494-1.583-2.826-1.685-1.91-.145-1.999-.068-.422.366m67.75.008c.962.252 2.538.252 3.5 0 .962-.251.175-.457-1.75-.457s-2.712.206-1.75.457m113 0c.962.252 2.538.252 3.5 0 .962-.251.175-.457-1.75-.457s-2.712.206-1.75.457M342.252 437c.284 1.055 1.864 1.532 5.326 1.608l4.922.107-4.484-.426c-2.466-.235-4.862-.958-5.326-1.608-.582-.816-.717-.718-.438.319m-83.002 1.689c.962.252 2.538.252 3.5 0 .962-.251.175-.457-1.75-.457s-2.712.206-1.75.457m111.512.018c1.244.239 3.044.23 4-.02s-.062-.446-2.262-.435c-2.2.011-2.982.216-1.738.455M430 456.833c0 .884-41.225 1.227-169.75 1.414l-169.75.247 169.447.256c110.402.167 169.791-.088 170.433-.73.543-.543.679-1.294.303-1.67-.375-.376-.683-.158-.683.483"/>
  <path fill="#1d1d1d" fill-rule="evenodd" d="M105.389 25.488c-8.237 1.792-13.118 4.441-20.109 10.913C74.779 46.123 70 57.742 70 73.551c0 21.793 9.395 37.278 27.042 44.57 4.557 1.882 7.357 2.26 16.958 2.29 12.428.038 16.629-1.153 25.429-7.208C143.117 110.666 152 99.845 152 97.89c0-1.962-1.731-.645-5.52 4.198-8.206 10.49-19.648 15.174-32.048 13.119-17.245-2.857-27.263-14.188-29.443-33.3-.955-8.373-.055-21.797 1.918-28.612 2.014-6.958 7.523-15.587 12.062-18.895 8.654-6.306 23.036-7.589 32.6-2.91 6.404 3.133 10.295 7.534 15.04 17.01l3.505 7-.651-15c-.666-15.331-1.491-18.727-3.486-14.348-2.089 4.584-4.319 5.114-10.335 2.453-10.48-4.635-19.163-5.529-30.253-3.117m189.323-.41c-17.094 3.502-31.861 18.399-35.74 36.056-.758 3.448-1.065 9.855-.79 16.51.412 9.997.743 11.491 4.101 18.472 4.763 9.902 13.473 18.271 22.779 21.884 5.493 2.133 8.052 2.496 17.438 2.476 9.872-.021 11.608-.306 16.93-2.777 7.78-3.612 13.557-8.445 17.569-14.698 3.776-5.884 3.181-8.092-.802-2.974-10.302 13.237-22.988 18.192-37.235 14.542-12.105-3.101-20.267-10.786-24.229-22.813-3.187-9.671-2.866-28.434.67-39.256 5.327-16.301 14.563-23.546 30.077-23.596 8.176-.027 14.155 1.847 19.564 6.131 3.975 3.148 9.276 11.346 10.49 16.224.378 1.518 1.128 3.032 1.666 3.365 1.209.747-.033-28.697-1.267-30.026-.477-.514-1.318.153-1.956 1.554-2.167 4.754-4.022 5.005-12.548 1.694-8.685-3.372-18.701-4.41-26.717-2.768M160 26.87c0 .478 2.123 1.109 4.717 1.402 3.456.389 5.327 1.241 7 3.185L174 34.112v77.042l-2.923 2.923c-2.141 2.141-3.88 2.923-6.5 2.923-1.967 0-3.577.45-3.577 1 0 1.396 49.166 1.302 58.308-.112 8.757-1.354 13.222-3.518 17.869-8.662 11.264-12.468 7.769-29.191-7.306-34.956-2.545-.973-4.717-2.169-4.826-2.656-.108-.487 1.482-1.837 3.534-3 2.052-1.163 5.11-3.827 6.796-5.92 2.604-3.233 3.124-4.829 3.449-10.587.764-13.524-6.807-21.478-23.481-24.668-8.414-1.61-55.343-2.092-55.343-.569m30.25 3.853-3.25.404v36.835l2.577.647c4.651 1.167 22.685-.152 26.054-1.907 9.578-4.987 13.109-17.62 7.296-26.103-5.74-8.377-17.097-11.809-32.677-9.876m-1 42.983c-2.241.431-2.25.509-2.25 19.844v19.412l2.75.707c5.628 1.447 20.572.9 25.305-.927 16.084-6.209 18.066-25.874 3.528-35.009-6.108-3.838-20.241-5.778-29.333-4.027M90 240.5V348h112V133H90v107.5m114.532 131.75c-26.756 61.696-27.07 62.308-32.544 63.402-1.626.326-2.742.937-2.482 1.358.582.941 23.177.64 24.138-.321.379-.379-.703-.689-2.405-.689-2.127 0-3.722-.799-5.103-2.554-2.243-2.852-2.014-3.964 3.234-15.646l2.56-5.699 15.136-.301c8.325-.165 15.463-.075 15.862.2 1.478 1.017 7.072 15.963 7.072 18.895 0 3.241-2.188 5.105-5.993 5.105-1.169 0-1.854.439-1.523.975.705 1.14 30.514.921 30.515-.225.001-.413-.696-.75-1.549-.75-3.324 0-7.16-3.055-9.631-7.671-2.151-4.02-25.701-58.628-28.813-66.814-.526-1.383-1.355-2.515-1.842-2.515-.487 0-3.471 5.962-6.632 13.25M94.791 361.951c6.516 1.61 6.833 2.446 7.516 19.816.341 8.657.339 23.573-.005 33.148-.708 19.704-1.23 21.085-7.969 21.085-2.016 0-3.395.271-3.064.602.901.902 35.952 1.133 45.843.303 15.76-1.323 23.888-8.305 23.888-20.52 0-7.441-4.336-13.361-11.62-15.865-4.451-1.53-5.36-3.074-2.369-4.023 3.973-1.261 8.928-6.557 10.056-10.748 2.384-8.852-1.685-16.942-10.766-21.401L140.5 361.5l-24.5-.182c-14.218-.105-23.119.16-21.209.633m161.814.186c2.258.508 5.989 2.536 8.291 4.506l4.185 3.582-.291 30.784c-.27 28.639-.423 30.931-2.195 32.888-1.213 1.339-3.121 2.103-5.25 2.103-1.84 0-3.345.396-3.345.879 0 1.048 25.55.904 26.604-.15.401-.401-1.076-.729-3.282-.729-2.807 0-4.584-.632-5.917-2.103-1.758-1.941-1.93-4.222-2.227-29.608-.203-17.24.034-27.371.634-27.146.527.196 10.303 11.607 21.725 25.357s23.061 27.667 25.865 30.927l5.098 5.927.5-36.151c.49-35.445.542-36.192 2.673-38.321 1.195-1.195 3.895-2.505 6-2.912 2.375-.459-1.483-.72-10.173-.687-7.7.029-12.324.229-10.276.444 2.506.263 4.386 1.233 5.75 2.967 1.914 2.433 2.026 3.98 2.026 27.941 0 13.951-.337 25.334-.75 25.296-.413-.038-11.319-12.863-24.237-28.5L274.526 361l-11.013.107c-9.189.089-10.333.26-6.908 1.03m89.642-.18c2.06.4 4.648 1.543 5.75 2.54 1.927 1.744 2.003 3.065 2.003 34.658 0 31.512-.081 32.926-2 34.845-1.1 1.1-3.323 2-4.941 2-1.618 0-3.212.439-3.544.976-.385.622 5.393.911 15.941.798 9.099-.098 16.544-.537 16.544-.976 0-.439-1.155-.798-2.566-.798-2.785 0-6.497-1.646-7.669-3.4-1.034-1.548-.951-32.84.085-32.433 2.406.943 30.304 28.659 30.797 30.596.685 2.69-1.148 5.237-3.769 5.237-1.033 0-1.878.387-1.878.859 0 1.042 35.55.924 36.596-.121.405-.406-.374-.738-1.733-.738-6.065 0-13.234-5.291-31.496-23.246l-18.133-17.828 13.283-13.053c14.011-13.768 18.262-17.159 24.282-19.372 3.401-1.25 2.525-1.354-10.799-1.281-7.975.044-13.238.269-11.696.501 1.738.262 3.221 1.338 3.901 2.829.926 2.033.674 3.016-1.616 6.321-1.492 2.153-4.828 5.875-7.414 8.272-2.586 2.396-7.967 7.395-11.957 11.107-3.991 3.712-7.697 6.75-8.237 6.75-.597 0-.981-5.819-.981-14.889 0-17.02.667-18.795 7.562-20.123 2.436-.469-2.548-.758-13.062-.758-9.847 0-15.424.306-13.253.727m-231.997 2.705c-.924.373-1.25 4.524-1.25 15.921V396h10.288c8.702 0 10.965-.347 14.676-2.25 5.917-3.034 8.289-7.52 7.752-14.661-.361-4.793-.867-5.84-4.435-9.168-2.215-2.066-5.772-4.241-7.904-4.833-3.894-1.082-16.791-1.368-19.127-.426m92.439 13.588c-.289.688-3.262 7.514-6.607 15.171-3.345 7.656-6.082 14.069-6.082 14.25 0 .181 6.127.329 13.617.329 12.481 0 13.577-.146 13.145-1.75-1.043-3.871-12.187-29.25-12.843-29.25-.388 0-.941.563-1.23 1.25M113 416.375v16.375l3.125.625c6.993 1.399 18.128.681 22.536-1.453 8.602-4.164 11.955-11.401 8.941-19.295-3.415-8.94-10.9-12.627-25.637-12.627H113v16.375M91 456.5c0 1.327 19.5 1.5 169.5 1.5s169.5-.173 169.5-1.5-19.5-1.5-169.5-1.5-169.5.173-169.5 1.5"/>
</svg>
