<svg width="114" height="43" viewBox="0 0 114 43" fill="none" xmlns="http://www.w3.org/2000/svg">
<path d="M19.8714 6.11473H27.1171V41.8589H19.8714V39.3387C17.8358 41.4227 15.2832 42.4648 12.2136 42.4648C8.74017 42.4648 5.83216 41.1966 3.4896 38.6601C1.1632 36.1237 0 32.9734 0 29.2091C0 25.4449 1.1632 22.2945 3.4896 19.7581C5.83216 17.2217 8.74017 15.9535 12.2136 15.9535C15.2832 15.9535 17.8358 16.9955 19.8714 19.0796V6.11473ZM13.6676 35.4613C15.4447 35.4613 16.923 34.8636 18.1023 33.6681C19.2817 32.4726 19.8714 30.9862 19.8714 29.2091C19.8714 27.432 19.2817 25.9457 18.1023 24.7502C16.923 23.5547 15.4447 22.9569 13.6676 22.9569C11.9067 22.9569 10.4365 23.5547 9.25715 24.7502C8.09394 25.9457 7.51234 27.432 7.51234 29.2091C7.51234 30.9862 8.09394 32.4726 9.25715 33.6681C10.4365 34.8636 11.9067 35.4613 13.6676 35.4613Z" fill="#1E2B2F"/>
<path d="M36.6485 13.312C35.3883 13.312 34.3301 12.892 33.4739 12.0519C32.6177 11.1957 32.1895 10.1294 32.1895 8.8531C32.1895 7.59296 32.6177 6.54285 33.4739 5.70276C34.3301 4.86267 35.3883 4.44263 36.6485 4.44263C37.9409 4.44263 39.0153 4.86267 39.8715 5.70276C40.7439 6.54285 41.1801 7.59296 41.1801 8.8531C41.1801 10.1294 40.7439 11.1957 39.8715 12.0519C39.0153 12.892 37.9409 13.312 36.6485 13.312ZM33.0377 41.8589V16.5593H40.2835V41.8589H33.0377Z" fill="#1E2B2F"/>
<path d="M58.3692 42.4648C54.4757 42.4648 51.2203 41.1966 48.6031 38.6601C46.0021 36.1237 44.7016 32.9734 44.7016 29.2091C44.7016 25.4449 46.0021 22.2945 48.6031 19.7581C51.2203 17.2217 54.4757 15.9535 58.3692 15.9535C60.9379 15.9535 63.2643 16.5351 65.3484 17.6983C67.4325 18.8453 69.0642 20.4367 70.2435 22.4723C71.4229 24.4917 72.0126 26.7373 72.0126 29.2091C72.0126 31.6809 71.4229 33.9346 70.2435 35.9702C69.0642 37.9897 67.4325 39.581 65.3484 40.7442C63.2643 41.8913 60.9379 42.4648 58.3692 42.4648ZM53.9345 33.6681C55.1138 34.8636 56.5921 35.4613 58.3692 35.4613C60.1463 35.4613 61.6245 34.8636 62.8039 33.6681C63.9832 32.4726 64.5729 30.9862 64.5729 29.2091C64.5729 27.432 63.9832 25.9457 62.8039 24.7502C61.6245 23.5547 60.1463 22.9569 58.3692 22.9569C56.5921 22.9569 55.1138 23.5547 53.9345 24.7502C52.7551 25.9457 52.1654 27.432 52.1654 29.2091C52.1654 30.9862 52.7551 32.4726 53.9345 33.6681Z" fill="#1E2B2F"/>
<path d="M88.6443 42.4648C84.7508 42.4648 81.4954 41.1966 78.8782 38.6601C76.2772 36.1237 74.9767 32.9734 74.9767 29.2091C74.9767 25.4449 76.2772 22.2945 78.8782 19.7581C81.4954 17.2217 84.7508 15.9535 88.6443 15.9535C91.213 15.9535 93.5394 16.5351 95.6235 17.6983C97.7076 18.8453 99.3393 20.4367 100.519 22.4723C101.698 24.4917 102.288 26.7373 102.288 29.2091C102.288 31.6809 101.698 33.9346 100.519 35.9702C99.3393 37.9897 97.7076 39.581 95.6235 40.7442C93.5394 41.8913 91.213 42.4648 88.6443 42.4648ZM84.2096 33.6681C85.3889 34.8636 86.8672 35.4613 88.6443 35.4613C90.4214 35.4613 91.8996 34.8636 93.079 33.6681C94.2583 32.4726 94.848 30.9862 94.848 29.2091C94.848 27.432 94.2583 25.9457 93.079 24.7502C91.8996 23.5547 90.4214 22.9569 88.6443 22.9569C86.8672 22.9569 85.3889 23.5547 84.2096 24.7502C83.0302 25.9457 82.4405 27.432 82.4405 29.2091C82.4405 30.9862 83.0302 32.4726 84.2096 33.6681Z" fill="#1E2B2F"/>
<path d="M106.754 41.8589V6.11473H114V41.8589H106.754Z" fill="#1E2B2F"/>
<path d="M65.6438 13.7483C65.5124 13.8774 65.2901 13.8009 65.2659 13.6183L64.3291 6.53027C64.3074 6.36581 64.4662 6.23592 64.6231 6.28988L70.6592 8.36645C70.8161 8.42042 70.8614 8.62055 70.7431 8.73683L65.6438 13.7483Z" fill="#F8724B"/>
<path d="M60.0497 13.5593C60.0635 13.743 59.8616 13.8634 59.7066 13.764L53.6884 9.90395C53.5488 9.81438 53.5521 9.60921 53.6946 9.52424L59.1771 6.25473C59.3196 6.16976 59.5017 6.26434 59.5141 6.42977L60.0497 13.5593Z" fill="#F8724B"/>
<path d="M69.6333 17.3507C69.4497 17.3363 69.3616 17.1183 69.4835 16.9803L74.2182 11.623C74.3281 11.4987 74.5303 11.5333 74.5925 11.6871L76.9855 17.605C77.0477 17.7588 76.9264 17.9243 76.761 17.9113L69.6333 17.3507Z" fill="#F8724B"/>
</svg>
