<svg xmlns="http://www.w3.org/2000/svg" width="2216" height="326" style="shape-rendering:geometricPrecision;text-rendering:geometricPrecision;image-rendering:optimizeQuality;fill-rule:evenodd;clip-rule:evenodd">
  <path fill="#a5c1ae" d="M1467.5 5.5c4.82-1.15 9.82-1.316 15-.5.92.278 1.58.778 2 1.5a92.77 92.77 0 0 0-17-1Z" style="opacity:1"/>
  <path fill="#1a6332" d="M1467.5 5.5a92.77 92.77 0 0 1 17 1c-.15 2.442.69 3.109 2.5 2a13.88 13.88 0 0 1 4 3c-.58 3.723 1.25 5.723 5.5 6a145.75 145.75 0 0 1 1 21c-1.17 1.014-1.84 2.347-2 4-1.53 4.204-4.2 7.537-8 10-1.88-.27-3.21.396-4 2-1.54.8-3.21 1.134-5 1a42.545 42.545 0 0 1-16-2l-1.5-3c-1.39 1.054-2.89 1.22-4.5.5-.99-2.158-2.66-3.325-5-3.5-.33-.667-.67-1.333-1-2-2.24-8.236-2.57-16.57-1-25 1.41-.473 2.07-1.473 2-3 3.28-6.593 8.61-10.593 16-12Z" style="opacity:1"/>
  <path fill="#e78e8b" d="m198.5 13.5-2 2h-8c3.127-1.08 6.46-1.747 10-2Z" style="opacity:1"/>
  <path fill="#ca2c2b" d="M202.5 14.5c8.34-.166 16.673 0 25 .5l-2 2h4l-1 1a32.139 32.139 0 0 0 7.5 9.5c1.261-.26 2.261-.926 3-2 .112 5.223 2.112 9.556 6 13 .414-.457.914-.79 1.5-1a51.256 51.256 0 0 1 2 6c1.861 1.028 3.195 2.528 4 4.5 1.325-.148 2.492.018 3.5.5a22.392 22.392 0 0 1 2.5 8h4a41.541 41.541 0 0 1 1 8 131.645 131.645 0 0 0 7 3.5 13.013 13.013 0 0 0-4 4.5 6.846 6.846 0 0 1-4 1 5.728 5.728 0 0 0-3-1c-1.459.067-2.792-.266-4-1-2.692-2.68-6.025-4.014-10-4-3.511-.4-6.844-1.066-10-2v-1c2.28.246 4.28.246 6 0-1.306-1.412-2.14-3.079-2.5-5-2.601 1.226-3.435.56-2.5-2-2.017-3.182-4.517-5.849-7.5-8a73.43 73.43 0 0 0-4.5-8h-3a6.845 6.845 0 0 0-1-4c-3.24-5.071-7.407-9.405-12.5-13a73.639 73.639 0 0 1-5.5-10Z" style="opacity:1"/>
  <path fill="#c42c2c" d="M240.5 13.5c4.226 2.456 8.893 3.456 14 3a5.728 5.728 0 0 1 3 1c.12 1.086.787 1.753 2 2 4.686 1.009 9.353 2.009 14 3a5.728 5.728 0 0 1 3 1c1.107 2.469 3.107 3.469 6 3a32.517 32.517 0 0 1 7 3c1.233 2.296 3.233 3.63 6 4 1.562.233 2.895.9 4 2 .535 1.946 1.868 2.946 4 3a79.149 79.149 0 0 1 7 8 6.845 6.845 0 0 1 1 4 8.435 8.435 0 0 0-4 .5c1.237.232 2.237.732 3 1.5a317.295 317.295 0 0 1-19 23c-1 .333-1.667 1-2 2-.526 1.73-1.526 3.064-3 4-2.447 3.028-5.447 3.695-9 2-1.21-.432-2.21-1.099-3-2-.762-1.762-2.096-2.762-4-3-2.985-.826-5.651-2.159-8-4v-1a6.846 6.846 0 0 0 4-1 13.013 13.013 0 0 1 4-4.5 131.645 131.645 0 0 1-7-3.5 41.541 41.541 0 0 0-1-8h-4a22.392 22.392 0 0 0-2.5-8c-1.008-.482-2.175-.648-3.5-.5-.805-1.972-2.139-3.472-4-4.5a51.256 51.256 0 0 0-2-6 3.646 3.646 0 0 0-1.5 1c-3.888-3.444-5.888-7.777-6-13-.739 1.074-1.739 1.74-3 2a32.139 32.139 0 0 1-7.5-9.5l1-1h-4l2-2c-8.327-.5-16.66-.666-25-.5a19.24 19.24 0 0 1-6 1l2-2a224.339 224.339 0 0 1 42 0Z" style="opacity:1"/>
  <path fill="#e19090" d="M240.5 13.5c4.875.585 9.542 1.585 14 3-5.107.456-9.774-.544-14-3Z" style="opacity:1"/>
  <path fill="#1a6232" d="M632.5 13.5c7.787 1.972 15.787 3.305 24 4 2.361.174 4.694.507 7 1a228.635 228.635 0 0 1-3 21v4c-1.704 2.275-3.038 4.941-4 8-2.946.821-5.946.821-9 0l-4-1c-5.042-1.962-10.375-3.295-16-4a360.225 360.225 0 0 0-42 1.5c-.556.383-.889.883-1 1.5-1.879.841-3.879 1.175-6 1-3.042.233-5.708 1.233-8 3-2.436 1.371-5.103 2.371-8 3-8.012 1.502-15.012 5.002-21 10.5.837 1.011 1.17 2.178 1 3.5l-3 2c-1.762.762-2.762 2.096-3 4a265.465 265.465 0 0 0-13 17c-1.371 1.67-2.871 2.336-4.5 2 .019 1.608.185 3.274.5 5v1c-2.373 2.079-3.706 4.746-4 8a5.727 5.727 0 0 1-1 3c-.617.111-1.117.444-1.5 1a107.437 107.437 0 0 0-3.5 14v4c-1.567 1.181-2.401 2.847-2.5 5a1457.58 1457.58 0 0 0-1.5 24c-.009 7.616.991 14.95 3 22 .871 2.503 1.537 5.17 2 8-.329 2.728.337 5.062 2 7 1.572 2.715 2.572 5.715 3 9 .255 2.467 1.255 4.467 3 6 1.431 1.28 2.098 2.947 2 5-.338 2.825.662 4.992 3 6.5a3.647 3.647 0 0 0-1 1.5c3.966 1.073 5.466 3.407 4.5 7 1.356.88 2.856 1.214 4.5 1 .58 2.249 1.913 3.915 4 5 .667 0 1 .333 1 1 .667 2.667 2.333 4.333 5 5a170.939 170.939 0 0 0 13 11c1.233 2.296 3.233 3.63 6 4l4 2c1.836 2.088 4.169 3.421 7 4 1.459-.067 2.792.266 4 1 .558 1.29 1.558 2.123 3 2.5a66.227 66.227 0 0 0 11 2.5c2.706.075 5.373.408 8 1 1.014 1.265 2.514 1.931 4.5 2a271.382 271.382 0 0 0 38.5.5c3.242-.406 6.242-1.239 9-2.5a24.93 24.93 0 0 1 8-1c6.677-.795 13.01-2.462 19-5h1c.639.597.972 1.43 1 2.5a330.682 330.682 0 0 0-2 26.5v3c-8.293 1.371-16.293 3.371-24 6h-3a322.454 322.454 0 0 1-60 1 146.666 146.666 0 0 1-18-3c-4.002-2.11-8.335-3.443-13-4h-1c-.291-1.149-1.124-1.816-2.5-2a27.716 27.716 0 0 0-8.5-2c-2.12-2.969-5.12-4.302-9-4-1.301-1.382-2.134-3.048-2.5-5a23.577 23.577 0 0 1-3.5-1 6.802 6.802 0 0 1 3-1.5c-2.062-.564-3.895-.064-5.5 1.5a15.414 15.414 0 0 0-4.5-2c-1.527.073-2.527-.594-3-2-.762-1.762-2.096-2.762-4-3a6.547 6.547 0 0 1-3-3c-1.085-2.087-2.751-3.42-5-4-1-3-3-5-6-6 .073-1.527-.594-2.527-2-3-8.625-8.638-15.291-18.638-20-30-.032-3.494-1.365-6.161-4-8l-2-7c-.397-4.526-1.73-8.526-4-12v-4c-3.94-23.341-3.94-46.674 0-70-.175-2.121.159-4.121 1-6 1.911-3.733 3.244-7.733 4-12 3.805-12.61 9.472-24.276 17-35 2.586-1.138 4.253-3.138 5-6a115.645 115.645 0 0 1 25-26c2.973-1.31 5.307-3.31 7-6h1c2.353-.84 4.353-2.174 6-4 3.559-3.615 7.893-5.949 13-7 4.124-.9 7.791-2.566 11-5a5.728 5.728 0 0 1 3-1c3.355-.19 6.355-1.19 9-3 3.089-1.285 6.422-1.951 10-2a653.783 653.783 0 0 0 27-4 67.583 67.583 0 0 1 22 0Z" style="opacity:1"/>
  <path fill="#4f845d" d="M1484.5 6.5c5.93 1.598 9.93 5.264 12 11-4.25-.277-6.08-2.277-5.5-6a13.88 13.88 0 0 0-4-3c-1.81 1.109-2.65.442-2.5-2Z" style="opacity:1"/>
  <path fill="#80a88d" d="M1910.5 13.5a327.645 327.645 0 0 1-27 4c8.64-2.807 17.64-4.14 27-4Z" style="opacity:1"/>
  <path fill="#1a6332" d="M1936.5 13.5c6.27 1.986 12.94 3.32 20 4h1c1.46 1.51 3.29 2.51 5.5 3 .49 1.293.66 2.627.5 4v3c-1.23.652-1.89 1.819-2 3.5-.96 7.515-1.96 15.015-3 22.5a140.395 140.395 0 0 0-13-3 21.43 21.43 0 0 1-7-1c-.42-.722-1.08-1.222-2-1.5a200.416 200.416 0 0 0-52.5.5c-1.68.108-2.85.775-3.5 2l-4 1c-3.22-.154-5.88.846-8 3-12.7 6.022-24.04 14.022-34 24-1.61.86-3.27 1.026-5 .5-.96 1.147-.62 2.147 1 3-2.69.782-3.69 2.282-3 4.5a14.715 14.715 0 0 1-5 1.5c1.02.52 1.68 1.353 2 2.5-.35 1.35-.68 2.683-1 4-.33.667-.67 1.333-1 2-2.34 2.007-3.67 4.673-4 8-.33.667-.67 1.333-1 2-2.48 2.003-3.48 4.669-3 8-1.17 1.014-1.84 2.347-2 4v2c-1.15.291-1.82 1.124-2 2.5a118.733 118.733 0 0 0-3 22.5v25c-.42 4.317.25 8.317 2 12v1a40.75 40.75 0 0 0 1 10.5c.18 1.376.85 2.209 2 2.5 5.24 14.487 12.58 27.821 22 40 .92 2.589 2.59 4.589 5 6 .54 1.617.87 3.284 1 5 2.61-.1 4.94.567 7 2a129.945 129.945 0 0 0 18 12c1.55 2.431 3.88 3.764 7 4 .99-.172 1.66.162 2 1 .12 1.086.79 1.753 2 2 4.31 1.161 8.64 2.161 13 3h2c3.95 2.126 8.28 3.126 13 3 10.82 1.221 21.49 1.221 32 0 3.35.165 6.68-.002 10-.5 1.24-.232 2.24-.732 3-1.5 2.6-.765 5.26-1.099 8-1 3.98-.242 7.65-1.242 11-3 3.39-1.052 6.89-2.052 10.5-3 .5 2.646.66 5.313.5 8-2.11 8.054-3.11 16.388-3 25-1.28 1.431-2.95 2.098-5 2-4.77-.376-9.11.624-13 3a29.23 29.23 0 0 1-9 1 385.15 385.15 0 0 1-48 2h-3c-4.04-1.677-8.38-2.344-13-2-2.74.099-5.4-.235-8-1-1.34-1.293-3.01-2.126-5-2.5-3.67-.548-7.34-1.048-11-1.5-3.38-2.804-7.38-4.137-12-4-1.01-1.174-2.35-1.84-4-2-2.05.098-3.72-.569-5-2-1.53-1.745-3.53-2.745-6-3-15.86-8.533-28.86-20.2-39-35 .07-1.527-.59-2.527-2-3-1.82-1.618-3.15-3.618-4-6-.37-2.767-1.7-4.767-4-6-.61-.891-.94-1.891-1-3-1.13-4.105-2.79-7.772-5-11-1.13-4.755-2.8-9.089-5-13a6.927 6.927 0 0 1-1-4 43.188 43.188 0 0 0-2-11c-.44-6.332-.94-12.665-1.5-19-.38-.556-.88-.889-1.5-1-.83-12.014-.5-24.014 1-36 2.4-6.358 4.06-13.025 5-20v-2c2.41-3.86 4.08-8.193 5-13 3.95-11.906 9.95-22.573 18-32 2.09-1.085 3.42-2.751 4-5 1.59-3.264 3.93-5.93 7-8 2.09-1.085 3.42-2.751 4-5 2.67-.667 4.33-2.333 5-5h1c2.41-1.017 4.08-2.684 5-5 4.26-1.94 7.93-4.607 11-8 9.12-6.562 19.12-11.562 30-15 3.71-.09 7.05-1.09 10-3 2.77-1.157 5.77-1.824 9-2a327.73 327.73 0 0 0 27-4 94.246 94.246 0 0 1 26 0Z" style="opacity:1"/>
  <path fill="#90b39b" d="M1936.5 13.5c5.19.46 10.35 1.127 15.5 2 1.88.025 3.38.691 4.5 2-7.06-.68-13.73-2.014-20-4Z" style="opacity:1"/>
  <path fill="#81a98f" d="M610.5 13.5a653.783 653.783 0 0 1-27 4c2.311-1.568 4.978-2.402 8-2.5a118.17 118.17 0 0 1 19-1.5Z" style="opacity:1"/>
  <path fill="#ea918d" d="M188.5 15.5c-1.602 1.574-3.602 2.24-6 2 1.602-1.574 3.602-2.24 6-2Z" style="opacity:1"/>
  <path fill="#749e81" d="M632.5 13.5c8.363-.046 16.363 1.287 24 4-8.213-.695-16.213-2.028-24-4Z" style="opacity:1"/>
  <path fill="#d5322d" d="M202.5 14.5a73.639 73.639 0 0 0 5.5 10c5.093 3.595 9.26 7.929 12.5 13a6.845 6.845 0 0 1 1 4h3a73.43 73.43 0 0 1 4.5 8c2.983 2.151 5.483 4.818 7.5 8-.935 2.56-.101 3.226 2.5 2 .36 1.921 1.194 3.588 2.5 5-1.72.246-3.72.246-6 0a117.722 117.722 0 0 0-30 0h-4c-1.184-1.188-1.184-2.355 0-3.5-2.383-.065-3.05-.898-2-2.5-4.935-3.817-8.935-8.483-12-14-.925-1.14-1.759-1.14-2.5 0-1.634-2.98-3.3-5.98-5-9-4.256-2.208-6.256-5.541-6-10l-1 1c-.5-1.167-1.333-2-2.5-2.5.752-.67 1.086-1.504 1-2.5 1.21-.432 2.21-1.099 3-2 2.405-1.268 5.072-1.935 8-2 2.398.24 4.398-.426 6-2h8a19.24 19.24 0 0 0 6-1Z" style="opacity:1"/>
  <path fill="#588b68" d="M1957.5 17.5c3.25-.03 5.92 1.137 8 3.5a19.229 19.229 0 0 1-2 3.5 8.393 8.393 0 0 0-.5-4c-2.21-.49-4.04-1.49-5.5-3Z" style="opacity:1"/>
  <path fill="#d76e6c" d="M257.5 17.5c5.672.893 11.006 2.56 16 5-4.647-.991-9.314-1.991-14-3-1.213-.247-1.88-.914-2-2Z" style="opacity:1"/>
  <path fill="#a0bdab" d="M1451.5 17.5c.07 1.527-.59 2.527-2 3-.07-1.527.59-2.527 2-3Z" style="opacity:1"/>
  <path fill="#ea8b86" d="M174.5 19.5c-.79.901-1.79 1.568-3 2h-3c1.602-1.574 3.602-2.24 6-2Z" style="opacity:1"/>
  <path fill="#90b29b" d="M573.5 19.5c-2.645 1.81-5.645 2.81-9 3 2.584-1.973 5.584-2.973 9-3Z" style="opacity:1"/>
  <path fill="#8db199" d="M1874.5 19.5c-2.95 1.91-6.29 2.91-10 3 2.95-1.91 6.29-2.91 10-3Z" style="opacity:1"/>
  <path fill="#9ebda8" d="M663.5 18.5c.652.949.986 2.115 1 3.5-.544 6.146-1.878 11.979-4 17.5a228.635 228.635 0 0 0 3-21Z" style="opacity:1"/>
  <path fill="#ee928a" d="M168.5 21.5c-1.014 1.174-2.347 1.84-4 2 .787-1.604 2.12-2.27 4-2Z" style="opacity:1"/>
  <path fill="#d77675" d="M276.5 23.5c2.25.63 4.25 1.63 6 3-2.893.469-4.893-.531-6-3Z" style="opacity:1"/>
  <path fill="#eb7167" d="M163.5 23.5c-2.997 2.997-6.664 4.663-11 5 3.24-2.451 6.907-4.118 11-5Z" style="opacity:1"/>
  <path fill="#75a082" d="M561.5 23.5c-3.209 2.434-6.876 4.1-11 5 3.132-2.61 6.799-4.277 11-5Z" style="opacity:1"/>
  <path fill="#e23a30" d="M168.5 21.5h3c.086.996-.248 1.83-1 2.5 1.167.5 2 1.333 2.5 2.5l1-1c-.256 4.459 1.744 7.792 6 10 1.7 3.02 3.366 6.02 5 9 .741-1.14 1.575-1.14 2.5 0 3.065 5.517 7.065 10.183 12 14-1.05 1.602-.383 2.435 2 2.5-1.184 1.145-1.184 2.312 0 3.5-2.961-.036-5.294.964-7 3h-1a58.427 58.427 0 0 0-11.5 3c-1.03.336-1.53 1.003-1.5 2l-2 1h-1c-1.294-2.91-3.294-5.243-6-7a29.831 29.831 0 0 1-2-5c-1.189-.929-2.522-1.262-4-1a62.75 62.75 0 0 0-6-12c-1.89.203-3.39-.463-4.5-2a60.56 60.56 0 0 0-6.5-11 11.99 11.99 0 0 0-6-1c0-.667.333-1 1-1 2.174-.25 3.841-1.25 5-3 1.014-1.174 2.347-1.84 4-2 4.336-.337 8.003-2.003 11-5h1c1.653-.16 2.986-.826 4-2Z" style="opacity:1"/>
  <path fill="#82a98f" d="M1449.5 20.5c-1.57 8.43-1.24 16.764 1 25-4.79-8.174-5.12-16.508-1-25Z" style="opacity:1"/>
  <path fill="#749f82" d="M1496.5 17.5c3.5 6.85 3.84 13.85 1 21a145.75 145.75 0 0 0-1-21Z" style="opacity:1"/>
  <path fill="#df8e8f" d="M289.5 29.5c2.382.85 4.382 2.184 6 4-2.767-.37-4.767-1.704-6-4Z" style="opacity:1"/>
  <path fill="#f5a9a3" d="M148.5 30.5c-1.159 1.75-2.826 2.75-5 3 1.159-1.75 2.826-2.75 5-3Z" style="opacity:1"/>
  <path fill="#de8d8e" d="M299.5 35.5c1.73.526 3.064 1.526 4 3-2.132-.054-3.465-1.054-4-3Z" style="opacity:1"/>
  <path fill="#84aa91" d="M537.5 35.5c-1.647 1.826-3.647 3.16-6 4 1.302-2.322 3.302-3.655 6-4Z" style="opacity:1"/>
  <path fill="#f36c5c" d="M137.5 37.5c-.641.982-1.307 1.982-2 3 1.789 1.123 2.122 2.456 1 4a27.104 27.104 0 0 0-4.5-2 212.36 212.36 0 0 1-6.5 5c-1.105 1.1-2.438 1.767-4 2 4.479-5.147 9.813-9.147 16-12Z" style="opacity:1"/>
  <path fill="#6e9a7b" d="M1834.5 37.5c-3.07 3.393-6.74 6.06-11 8a34.26 34.26 0 0 1 11-8Z" style="opacity:1"/>
  <path fill="#7ea68b" d="M530.5 39.5c-1.693 2.69-4.027 4.69-7 6 1.719-2.72 4.053-4.72 7-6Z" style="opacity:1"/>
  <path fill="#a8c3b1" d="M1497.5 38.5c.27 1.88-.4 3.213-2 4 .16-1.653.83-2.986 2-4Z" style="opacity:1"/>
  <path fill="#8cc063" d="M404.5 53.5c-.124-2.082-1.124-3.582-3-4.5.951-.718 1.117-1.55.5-2.5-1.995 2.247-4.495 3.247-7.5 3a615.342 615.342 0 0 0 27-18c2.315.921 2.482 2.254.5 4a812.693 812.693 0 0 1-17.5 18Z" style="opacity:1"/>
  <path fill="#cb5451" d="M303.5 38.5a49.903 49.903 0 0 1 12 8.5c-1.164 2.328-2.83 4.162-5 5.5-.763-.768-1.763-1.268-3-1.5a8.435 8.435 0 0 1 4-.5 6.845 6.845 0 0 0-1-4 79.149 79.149 0 0 0-7-8Z" style="opacity:1"/>
  <path fill="#afc8b7" d="m627.5 46.5 3 2a197.535 197.535 0 0 0-46 1c.111-.617.444-1.117 1-1.5a360.225 360.225 0 0 1 42-1.5Z" style="opacity:.898"/>
  <path fill="#a6c2af" d="M1938.5 49.5c-19.39-2.883-38.73-2.55-58 1 .65-1.225 1.82-1.892 3.5-2a200.416 200.416 0 0 1 52.5-.5c.92.278 1.58.778 2 1.5Z" style="opacity:.898"/>
  <path fill="#6d9a7b" d="M627.5 46.5c5.625.705 10.958 2.038 16 4a263.213 263.213 0 0 1-13-2l-3-2Z" style="opacity:1"/>
  <path fill="#87ac93" d="M1823.5 45.5c-.92 2.316-2.59 3.983-5 5 .92-2.316 2.59-3.983 5-5Z" style="opacity:1"/>
  <path fill="#679575" d="M660.5 43.5c.654 11.166-3.679 13.833-13 8 3.054.821 6.054.821 9 0 .962-3.059 2.296-5.725 4-8Z" style="opacity:1"/>
  <path fill="#488059" d="M1451.5 47.5c2.34.175 4.01 1.342 5 3.5 1.61.72 3.11.554 4.5-.5l1.5 3a42.545 42.545 0 0 0 16 2c-7.5 1.769-14.83.935-22-2.5a38.648 38.648 0 0 1-5-5.5Z" style="opacity:1"/>
  <path fill="#91b39c" d="M1945.5 50.5c4.38.793 8.71 1.793 13 3-.42.624-1.08.957-2 1-3.91-.968-7.58-2.301-11-4Z" style="opacity:1"/>
  <path fill="#8eb199" d="M1963.5 27.5c-.82 8.961-2.49 17.628-5 26 1.04-7.485 2.04-14.985 3-22.5.11-1.681.77-2.848 2-3.5Z" style="opacity:1"/>
  <path fill="#6fa947" d="m404.5 53.5-3 4c-1.815 1.13-3.815 1.796-6 2v3a103.424 103.424 0 0 0-10.5-5c.058-1.935.891-3.602 2.5-5 2.009-1.565 4.343-2.565 7-3 3.005.247 5.505-.753 7.5-3 .617.95.451 1.782-.5 2.5 1.876.918 2.876 2.418 3 4.5Z" style="opacity:1"/>
  <path fill="#a3c0ad" d="M578.5 50.5c-2.292 1.767-4.958 2.767-8 3 2.292-1.767 4.958-2.767 8-3Z" style="opacity:1"/>
  <path fill="#f2a8a1" d="M119.5 51.5a6.544 6.544 0 0 1-3 3c0-2 1-3 3-3Z" style="opacity:1"/>
  <path fill="#acc6b4" d="M1487.5 52.5c-1.01 1.174-2.35 1.84-4 2 .79-1.604 2.12-2.27 4-2Z" style="opacity:.843"/>
  <path fill="#84ab90" d="M1817.5 50.5c-.67 2.667-2.33 4.333-5 5 1.33-2 3-3.667 5-5Z" style="opacity:1"/>
  <path fill="#9cbba6" d="M1876.5 51.5c-2.29 1.767-4.96 2.767-8 3 2.12-2.154 4.78-3.154 8-3Z" style="opacity:1"/>
  <path fill="#de3d31" d="M125.5 47.5c.674 1.525 1.674 2.858 3 4a3.647 3.647 0 0 1-1 1.5 8.435 8.435 0 0 0 4 .5c1 3.171 2.666 6.004 5 8.5l-1 1c2.57 3.275 5.904 6.442 10 9.5.929 1.189 1.262 2.522 1 4 3.397 1.068 5.397 3.401 6 7l6 2a4.934 4.934 0 0 1 .5-3c.671.752 1.504 1.086 2.5 1-4.974 4.639-9.974 9.305-15 14-1.406.473-2.073 1.473-2 3a308.607 308.607 0 0 1-3 4c-1.278.282-2.278.949-3 2a703.29 703.29 0 0 1-33-40c2.414-1.41 4.081-3.41 5-6 0-.667.333-1 1-1a6.544 6.544 0 0 0 3-3c.333-1 1-1.667 2-2a6.544 6.544 0 0 0 3-3c.333-1 1-1.667 2-2 1.562-.233 2.895-.9 4-2Z" style="opacity:1"/>
  <path fill="#79ab58" d="M387.5 52.5c-1.609 1.398-2.442 3.065-2.5 5a103.424 103.424 0 0 1 10.5 5v-3c2.185-.204 4.185-.87 6-2a159.383 159.383 0 0 1-15 15c-.418-.722-1.084-1.222-2-1.5l1-5a22.763 22.763 0 0 0-5-4c1.333-.667 1.333-1.333 0-2-2.189-.322-4.189.178-6 1.5a88.023 88.023 0 0 1 13-9Z" style="opacity:1"/>
  <path fill="#f0a59f" d="M114.5 56.5a6.544 6.544 0 0 1-3 3c0-2 1-3 3-3Z" style="opacity:1"/>
  <path fill="#8aaf96" d="M1812.5 55.5c-.58 2.249-1.91 3.915-4 5 .58-2.249 1.91-3.915 4-5Z" style="opacity:1"/>
  <path fill="#e9938f" d="M235.5 64.5v1c-10-1.333-20-1.333-30 0v-1a117.722 117.722 0 0 1 30 0Z" style="opacity:1"/>
  <path fill="#4b8159" d="M562.5 56.5a202.506 202.506 0 0 0-20 14c.17-1.322-.163-2.489-1-3.5 5.988-5.498 12.988-8.998 21-10.5Z" style="opacity:1"/>
  <path fill="#e8837b" d="M110.5 60.5c-.919 2.59-2.586 4.59-5 6 .919-2.59 2.586-4.59 5-6Z" style="opacity:1"/>
  <path fill="#e6665c" d="M201.5 64.5h4v1l-11 2c1.706-2.036 4.039-3.036 7-3Z" style="opacity:1"/>
  <path fill="#eb3f31" d="M142.5 34.5a11.99 11.99 0 0 1 6 1 60.56 60.56 0 0 1 6.5 11c1.11 1.537 2.61 2.203 4.5 2a62.75 62.75 0 0 1 6 12c1.478-.262 2.811.071 4 1a29.831 29.831 0 0 0 2 5c2.706 1.757 4.706 4.09 6 7-2.174.25-3.841 1.25-5 3a91.704 91.704 0 0 1-11 7c-.996.086-1.829-.248-2.5-1a4.934 4.934 0 0 0-.5 3l-6-2c-.603-3.599-2.603-5.932-6-7 .262-1.478-.071-2.811-1-4-4.096-3.058-7.43-6.225-10-9.5l1-1c-2.334-2.496-4-5.329-5-8.5a8.435 8.435 0 0 1-4-.5 3.647 3.647 0 0 0 1-1.5c-1.326-1.142-2.326-2.475-3-4a212.36 212.36 0 0 0 6.5-5 27.104 27.104 0 0 1 4.5 2c1.122-1.544.789-2.877-1-4a184.223 184.223 0 0 0 2-3c1.159-1.75 2.826-2.75 5-3Z" style="opacity:1"/>
  <path fill="#e69290" d="M245.5 67.5c3.975-.014 7.308 1.32 10 4-3.649-.767-6.982-2.1-10-4Z" style="opacity:1"/>
  <path fill="#f28d83" d="M193.5 67.5c-4.022 2.234-8.356 3.9-13 5-.03-.997.47-1.664 1.5-2a58.427 58.427 0 0 1 11.5-3Z" style="opacity:1"/>
  <path fill="#84aa90" d="M1801.5 68.5c-.58 2.249-1.91 3.915-4 5 .58-2.249 1.91-3.915 4-5Z" style="opacity:1"/>
  <path fill="#65984b" d="M386.5 72.5c0 .667-.333 1-1 1-1.762.762-2.762 2.096-3 4a203.582 203.582 0 0 0-16 18 17.65 17.65 0 0 0 .5-6c-.667-1.333-1.333-1.333-2 0-1.914-1.176-1.748-2.176.5-3a12.412 12.412 0 0 0-4-2.5c2.059-1.186 2.226-2.352.5-3.5a15.407 15.407 0 0 1-4.5 2 185.22 185.22 0 0 1 10.5-10l4-10c.671-.752 1.504-1.086 2.5-1 1.811-1.322 3.811-1.822 6-1.5 1.333.667 1.333 1.333 0 2a22.763 22.763 0 0 1 5 4l-1 5c.916.278 1.582.778 2 1.5Z" style="opacity:1"/>
  <path fill="#f6a8a2" d="M177.5 73.5h1c-1.681 1.507-3.681 2.507-6 3 1.159-1.75 2.826-2.75 5-3Z" style="opacity:1"/>
  <path fill="#eaa6a4" d="M259.5 72.5a5.728 5.728 0 0 1 3 1v1c-1.527.073-2.527-.594-3-2Z" style="opacity:1"/>
  <path fill="#c2d7b5" d="M385.5 73.5c-.238 1.904-1.238 3.238-3 4 .238-1.904 1.238-3.238 3-4Z" style="opacity:.102"/>
  <path fill="#bbd1c1" d="M539.5 72.5c-.238 1.904-1.238 3.238-3 4 .238-1.904 1.238-3.238 3-4Z" style="opacity:.157"/>
  <path fill="#ebb0b1" d="M291.5 75.5c0 1.333-.667 2-2 2 .333-1 1-1.667 2-2Z" style="opacity:.157"/>
  <path fill="#7da68a" d="M498.5 71.5c-.747 2.862-2.414 4.862-5 6a16.626 16.626 0 0 1 5-6Z" style="opacity:1"/>
  <path fill="#e79b96" d="M99.5 73.5c-.345 2.698-1.678 4.698-4 6 .84-2.353 2.174-4.353 4-6Z" style="opacity:1"/>
  <path fill="#578964" d="M1834.5 78.5c-3.67 5.342-7.34 10.675-11 16 .32-1.317.65-2.65 1-4-.32-1.147-.98-1.98-2-2.5 1.76-.202 3.42-.702 5-1.5-.69-2.218.31-3.718 3-4.5-1.62-.853-1.96-1.853-1-3 1.73.526 3.39.36 5-.5Z" style="opacity:1"/>
  <path fill="#e69391" d="M270.5 78.5c1.904.238 3.238 1.238 4 3-1.904-.238-3.238-1.238-4-3Z" style="opacity:1"/>
  <path fill="#cd332c" d="M105.5 66.5a703.29 703.29 0 0 0 33 40v2c-.432 1.21-1.099 2.21-2 3a64.434 64.434 0 0 1-5.5 3 127.818 127.818 0 0 1-2-3 125.796 125.796 0 0 1 2.5 10c-1.745 1.533-2.745 3.533-3 6a650.92 650.92 0 0 0-33.5-41 4.932 4.932 0 0 1-.5-3v-2c-.172-.992.162-1.658 1-2 2.322-1.302 3.655-3.302 4-6 1.3-2.932 3.3-5.266 6-7Z" style="opacity:1"/>
  <path fill="#e2847f" d="M286.5 81.5c-2.14 6.595-5.14 7.262-9 2 3.553 1.695 6.553 1.028 9-2Z" style="opacity:1"/>
  <path fill="#a4c19a" d="M356.5 83.5c-1.355 3.018-3.688 4.351-7 4a475.047 475.047 0 0 0 7-4Z" style="opacity:1"/>
  <path fill="#1a6232" d="M2129.5 87.5h1c-.03.997.47 1.664 1.5 2 4.2.939 8.37 1.939 12.5 3l5 2c1.23 2.296 3.23 3.63 6 4 .99-.172 1.66.162 2 1 1.01 2.022 2.67 3.355 5 4 .67.333 1.33.667 2 1 1.37 2.36 3.37 4.027 6 5 19.03 17.392 29.53 39.059 31.5 65 1.01 14.086.51 28.086-1.5 42a261.429 261.429 0 0 0-5 20 6.927 6.927 0 0 1-1 4c-2.07 2.479-3.4 5.479-4 9-1.48-.262-2.81.071-4 1a39.374 39.374 0 0 0-1.5 7c-1.15-2.457-2.49-2.457-4 0 .66 3.018.5 6.018-.5 9 0 .667-.33 1-1 1-.75-1.073-1.75-1.24-3-.5-1.14.741-1.14 1.575 0 2.5-2.84.504-4.18 2.171-4 5-1.64.214-3.14-.12-4.5-1-.51 1.496-.01 2.663 1.5 3.5-1.75 2.827-3.59 2.994-5.5.5l-1.5 1.5c1.47.71 2.14 1.876 2 3.5-3.36-.35-6.36.483-9 2.5.15 1.816.15 3.649 0 5.5-1.64.214-3.14-.12-4.5-1-.62.949-.45 1.782.5 2.5-1.63.494-3.3.66-5 .5-.15 3.218-.98 3.551-2.5 1a27.287 27.287 0 0 1-1.5 5c-.67.333-1.33.667-2 1-2.59-.039-4.59.961-6 3a21.129 21.129 0 0 1-7 2c-2.63.592-5.29.925-8 1-3.67-2.239-7.17-1.906-10.5 1-3.11-2.19-6.11-2.19-9 0a3.947 3.947 0 0 1-2-1c-.78 1.715-2.11 2.715-4 3a354.006 354.006 0 0 0-25.5-2c-2.58-1.972-5.58-2.972-9-3-20.39-7.052-36.39-19.718-48-38-.94-3.565-2.61-6.565-5-9-.33-.667-.67-1.333-1-2-.05-2.846-1.05-5.18-3-7a18.25 18.25 0 0 1-2-8c-.54-4.024-1.2-8.024-2-12a333.949 333.949 0 0 1 0-51 80.03 80.03 0 0 0 2-11c.2-3.13.87-6.13 2-9 1.95-1.82 2.95-4.154 3-7 .06-1.109.39-2.109 1-3 .88.131 1.54-.202 2-1 1.01-2.688 2.01-5.354 3-8 2.67-1.049 4.84-2.716 6.5-5 1.67.84 1.83.34.5-1.5 1.05-.492 2.05-.326 3 .5 1.22-2.328 1.22-4.661 0-7 3.7-6.19 9.2-9.523 16.5-10 .67-.667.67-1.333 0-2-1.69 2.348-3.52 2.515-5.5.5 1.56-.98 3.23-1.813 5-2.5.97-2.29 2.3-4.29 4-6 10.45-8.717 22.45-14.384 36-17a169.998 169.998 0 0 1 52 0Zm-14 27c8.33 2.823 15.66 7.156 22 13a6.575 6.575 0 0 0 3 3c.33 1 1 1.667 2 2-.07 1.527.59 2.527 2 3 2.67 4.333 5.33 8.667 8 13 .78 3.045 2.11 5.711 4 8a53.34 53.34 0 0 0 2 7c.73 4.945 2.07 9.612 4 14v2a174.664 174.664 0 0 1 0 37v3a218.465 218.465 0 0 0-6 20c-1.51 1.681-2.51 3.681-3 6-1.04 1.43-1.7 3.097-2 5-2.04 1.079-3.38 2.746-4 5-.33.667-.67 1.333-1 2-1.41.473-2.07 1.473-2 3-2.09 1.085-3.42 2.751-4 5-.67 0-1 .333-1 1-4.68 3.336-9.34 6.669-14 10-2.29.095-4.29.762-6 2-5.2.639-10.2 1.639-15 3h-11a321.18 321.18 0 0 0-16-4 122.475 122.475 0 0 1-18-11c-.92-2.589-2.59-4.589-5-6-.61-1.934-1.61-3.601-3-5h-1a533.013 533.013 0 0 1-11-23 692.685 692.685 0 0 0-5-23v-2c-.66-13.164.34-26.164 3-39 .67-3.333 1.33-6.667 2-10 1.89-2.289 3.22-4.955 4-8 .94-1.55 1.61-3.216 2-5a93.934 93.934 0 0 0 7-11 21.588 21.588 0 0 0 4-5c2 0 3-1 3-3a34.974 34.974 0 0 0 8-6c2.98-.826 5.65-2.159 8-4 .99.172 1.66-.162 2-1 12.59-3.438 25.26-3.772 38-1Z" style="opacity:1"/>
  <path fill="#e6a29f" d="M94.5 81.5v2l-4 4c.345-2.698 1.678-4.698 4-6Z" style="opacity:1"/>
  <path fill="#5a8c46" d="M366.5 95.5a349.24 349.24 0 0 1-3 8h-1c-2.395-3.88-6.062-7.38-11-10.5-1.333-.667-1.333-1.333 0-2a27.876 27.876 0 0 0-11-1.5c2.773-1.157 5.773-1.824 9-2 3.312.351 5.645-.982 7-4 0-.667.333-1 1-1a15.407 15.407 0 0 0 4.5-2c1.726 1.148 1.559 2.314-.5 3.5a12.412 12.412 0 0 1 4 2.5c-2.248.824-2.414 1.824-.5 3 .667-1.333 1.333-1.333 2 0a17.65 17.65 0 0 1-.5 6Z" style="opacity:1"/>
  <path fill="#9fbea9" d="M796.5 87.5h-37c12.342-2.463 24.675-2.463 37 0Z" style="opacity:1"/>
  <path fill="#a0beaa" d="M1015.5 87.5h-25c8.314-2.375 16.65-2.375 25 0Zm132 0h-23c7.66-2.52 15.32-2.52 23 0Zm194 0h-37c12.34-2.43 24.68-2.43 37 0Z" style="opacity:1"/>
  <path fill="#9fbda9" d="M1632.5 87.5h-19c6.32-2.48 12.65-2.48 19 0Z" style="opacity:1"/>
  <path fill="#8eb29a" d="M2129.5 87.5a169.998 169.998 0 0 0-52 0c2.38-1.387 5.04-2.22 8-2.5 12-2 24-2 36 0 2.96.28 5.62 1.113 8 2.5Z" style="opacity:1"/>
  <path fill="#1a6332" d="M989.5 87.5h26c3.7.052 7.36.386 11 1 3.92 2.328 8.25 3.661 13 4 5.23 1.281 9.9 3.615 14 7 1.04 2.031 2.71 3.364 5 4 3.49 3.336 6.49 7.169 9 11.5 1.08.47 2.08.303 3-.5 4.07-1.708 7.41-4.374 10-8 3.41-3.548 7.41-6.382 12-8.5a39.256 39.256 0 0 1 11-4.5c4.95-1.314 9.62-2.981 14-5 2.22-.869 4.55-1.202 7-1h23c3.4-.158 6.74.176 10 1 .11.617.44 1.117 1 1.5 3.56.598 7.06 1.431 10.5 2.5.95.405 1.61 1.072 2 2 .67-.752 1.5-1.086 2.5-1 1.46-.067 2.79.266 4 1 .99 1.908 2.65 2.908 5 3 7.75 4.08 13.41 10.08 17 18 .25 2.467 1.25 4.467 3 6 1.11 2.099 1.78 4.433 2 7-.24 2.398.43 4.398 2 6v1c.02 6.212.69 12.212 2 18v13c-1.54 11.459-2.2 23.125-2 35 .41 30.169 1.08 60.169 2 90v9h-39v-18a1854.52 1854.52 0 0 0 3-65c1.9-18.472 2.4-37.139 1.5-56 .08-3.811-.75-7.145-2.5-10v-1c-.17-1.992.5-3.658 2-5-.44-1.006-1.1-1.006-2 0-.97-2.652-2.31-4.986-4-7-6.59-11.317-16.59-17.651-30-19-.76-.768-1.76-1.268-3-1.5a121.19 121.19 0 0 0-22 0c-1.24.232-2.24.732-3 1.5a21.129 21.129 0 0 1-7 2c-2.47.255-4.47 1.255-6 3a36.107 36.107 0 0 1-7 4c-1.53-.073-2.53.594-3 2a335.533 335.533 0 0 0-11.5 10 356.196 356.196 0 0 0-1.5 32c-1 42.497-1.33 85.163-1 128h-37c.04-9.346.37-18.68 1-28 .13-13.006.46-26.006 1-39 .82-3.141 1.32-6.475 1.5-10 .67-21.333.67-42.667 0-64-.28-.916-.78-1.582-1.5-2-.33-3.333-.67-6.667-1-10a33.486 33.486 0 0 0-2.5-10c-.42-1.256-1.25-1.923-2.5-2-5-7.647-12-12.647-21-15-3.68-1.75-7.68-2.417-12-2-8.49-1.157-17.157-1.324-26-.5-1.365 1.682-2.865 1.849-4.5.5a4.934 4.934 0 0 0-.5 3c-3.602.192-6.602 1.526-9 4-.79.901-1.79 1.568-3 2a6.846 6.846 0 0 0-4 1c-2.214-2.424-3.214-1.757-3 2-1.808-.009-3.475.491-5 1.5-.671.986-.671 2.153 0 3.5-1 1.667-2.333 3-4 4a3241.506 3241.506 0 0 0-2 161h-38a4544.396 4544.396 0 0 0 2-55 1097.847 1097.847 0 0 0 0-89 98.432 98.432 0 0 0-.5-14c-.646-6.581-1.812-12.915-3.5-19l-2-13a53.782 53.782 0 0 0-2-16c4.953-.91 9.953-1.578 15-2l23-2c.065 2.928.732 5.595 2 8a120.211 120.211 0 0 0 3 17 185.977 185.977 0 0 1 3-2c3.6-1.93 6.6-4.597 9-8 .79-.901 1.79-1.568 3-2 2.295-.636 3.961-1.969 5-4 1.105-1.1 2.438-1.767 4-2 2.798-.6 5.465-1.6 8-3 .586.21 1.086.543 1.5 1a9.564 9.564 0 0 1 3-3 507.455 507.455 0 0 0 16.5-5Z" style="opacity:1"/>
  <path fill="#1a6232" d="M1304.5 87.5h37c4.03.004 8.03.338 12 1 .11.617.44 1.117 1 1.5a601.561 601.561 0 0 1 15 3.5h1c2.79 2.397 6.12 4.064 10 5 .67.333 1.33.667 2 1 .47 1.406 1.47 2.073 3 2a21.489 21.489 0 0 1 5 4c1.26 2.927 3.26 5.261 6 7 .9.79 1.57 1.79 2 3 .25 2.467 1.25 4.467 3 6 1.24 1.714 1.91 3.714 2 6 .83 4.313 1.66 8.647 2.5 13 .38.556.88.889 1.5 1a305.234 305.234 0 0 1 0 48c-.82 2.469-1.32 5.135-1.5 8-.67 22-.67 44 0 66 .21 1.558.71 2.891 1.5 4 .89 7.875 1.89 15.875 3 24-.23 2.749.11 5.416 1 8a523.64 523.64 0 0 1-27 2c-2.94-.121-5.61-.787-8-2-.89-2.554-1.22-5.221-1-8 .55-3.512-.11-6.512-2-9-8.13 7.401-17.47 12.734-28 16-3.85.26-7.52.426-11 .5 1.8.317 2.13.984 1 2-1.99.374-3.66 1.207-5 2.5-2.6.765-5.26 1.099-8 1-13 1.311-26 1.311-39 0-3.98-.242-7.65-1.242-11-3-1.01-1.174-2.35-1.84-4-2-4.47-1.153-8.14-3.486-11-7-1.08-2.087-2.75-3.42-5-4-2.96-1.903-4.96-4.57-6-8-.58-2.831-1.91-5.164-4-7a6.927 6.927 0 0 1-1-4c-2.64-13.348-2.64-26.682 0-40a6.927 6.927 0 0 1 1-4c2.27-2.112 3.6-4.779 4-8 2.82-6.498 7.16-11.831 13-16 3.7-1.452 6.7-3.785 9-7 2.51-2.424 5.51-4.09 9-5 3.45-.583 6.45-1.916 9-4h1a125.935 125.935 0 0 1 19.5-4c1.68-.108 2.85-.775 3.5-2h1c3.31-.551 6.64-.884 10-1 5.6-.27 10.93-1.27 16-3 9.63-.892 19.3-1.225 29-1h7c.17-7.674 0-15.341-.5-23-.24-2.352-1.07-4.352-2.5-6v-1c-.17-4.247-1.84-7.58-5-10-1.67-2-3.33-4-5-6-.47-1.406-1.47-2.073-3-2a105.608 105.608 0 0 0-22-7c-1.45-.802-3.12-1.302-5-1.5a342.642 342.642 0 0 0-42.5.5c-2.61.033-4.78.7-6.5 2-2.98.463-5.98.796-9 1-4.35.265-8.69.765-13 1.5-.56.383-.89.883-1 1.5a21.43 21.43 0 0 1-7 1h-3v-9c.72-.418 1.22-1.084 1.5-2 .96-5.965 1.46-11.965 1.5-18 3.26-2.068 6.93-3.068 11-3 8.57-1.104 16.91-2.77 25-5 5.64-.634 11.31-.968 17-1Zm40 113h27c-.28 18.017.05 36.017 1 54 .14 2.341-.53 4.341-2 6-9.84 6.281-20.5 10.614-32 13-7.17.769-14.17 1.769-21 3h-3c-6.9-1.245-13.9-2.578-21-4a31.639 31.639 0 0 1-6-2c-.47-1.406-1.47-2.073-3-2-.33-1-1-1.667-2-2a6.575 6.575 0 0 0-3-3c-.43-1.21-1.1-2.21-2-3-.55-3.246-1.55-6.246-3-9v-11a79.149 79.149 0 0 0 4-12c.84-.342 1.17-1.008 1-2 1.41-.473 2.07-1.473 2-3 2.33-3 5-5.667 8-8 1.53.073 2.53-.594 3-2l6-3c2.17-.25 3.84-1.25 5-3 1.46.067 2.79-.266 4-1a188.488 188.488 0 0 0 17-4c2.36-.174 4.69-.507 7-1 4.37.033 8.7-.3 13-1Z" style="opacity:1"/>
  <path fill="#6a9878" d="M2130.5 87.5c5.03.898 9.7 2.565 14 5-4.13-1.061-8.3-2.061-12.5-3-1.03-.336-1.53-1.003-1.5-2Z" style="opacity:1"/>
  <path fill="#1b6333" d="M759.5 87.5h37c4.034.004 8.034.338 12 1 4.532 2.4 9.532 4.067 15 5 1.459-.067 2.792.266 4 1 1.411 2.039 3.411 3.039 6 3a31.874 31.874 0 0 1 11 7c.58 2.249 1.913 3.915 4 5 .58 2.249 1.913 3.915 4 5 1.174 1.014 1.84 2.347 2 4-.073 1.527.594 2.527 2 3 1.983 3.299 2.983 6.966 3 11-.09 2.652.576 4.985 2 7v37a3242.22 3242.22 0 0 0-1 72c.3 9.007.8 18.007 1.5 27 .21 1.558.71 2.891 1.5 4a196.08 196.08 0 0 1 2 16v5c-6.522-.323-12.855.01-19 1a61.281 61.281 0 0 1-15-1 217.864 217.864 0 0 1-1-19c-1.291-.237-2.291.096-3 1-.667 0-1 .333-1 1-1.527-.073-2.527.594-3 2-.936 1.474-2.27 2.474-4 3-1.527-.073-2.527.594-3 2-1.527-.073-2.527.594-3 2-.79.901-1.79 1.568-3 2-2.053-.098-3.72.569-5 2-1.644-.214-3.144.12-4.5 1-.745-1.49-1.912-2.49-3.5-3a21.4 21.4 0 0 1-7 2.5 8.43 8.43 0 0 0 4 .5v3c-5.082.695-9.749 2.029-14 4h-3a217.088 217.088 0 0 1-40 0c-2.841-.06-5.507-.726-8-2-1.533-1.745-3.533-2.745-6-3-4.005-.998-7.339-2.998-10-6-1.411-2.414-3.411-4.081-6-5-2.7-1.734-4.7-4.068-6-7 .073-1.527-.594-2.527-2-3a32.508 32.508 0 0 1-3-7c-2.667-14.667-2.667-29.333 0-44 .65-.304 1.317-.637 2-1a258.802 258.802 0 0 0 10-19c1.333-3.333 3.667-5.667 7-7 3.582-1.62 6.582-3.953 9-7 2.348-.092 4.014-1.092 5-3l2-1c3.602-.192 6.602-1.526 9-4l4-1c5.309-.576 10.309-1.909 15-4 2.217-.869 4.55-1.202 7-1 3.227-.176 6.227-.843 9-2 6.226.112 12.226-.554 18-2 10.983-.75 21.983-1.416 33-2v-23c.14-5.515-1.527-10.182-5-14l-1-2c.073-1.527-.594-2.527-2-3-3.901-3.446-8.234-6.113-13-8-4.326-3.323-9.326-4.656-15-4-1.452-.802-3.118-1.302-5-1.5a366.937 366.937 0 0 0-49 1c-.916.278-1.582.778-2 1.5a41.541 41.541 0 0 1-8 1 82.641 82.641 0 0 0-15.5 2c-1.376.184-2.209.851-2.5 2h-5v-6a45.782 45.782 0 0 1 1-12 84.721 84.721 0 0 1 3-11c1.526-.494 2.859-1.161 4-2 1.879-.841 3.879-1.175 6-1 2.652.09 4.985-.576 7-2 4.622.344 8.955-.323 13-2 7.12-1.428 14.453-2.094 22-2Zm64 174c-2.353.84-4.353 2.174-6 4a168.848 168.848 0 0 1-24 8 199.346 199.346 0 0 0-21 3h-4a463.911 463.911 0 0 0-22-4c-16.213-8.714-21.213-22.048-15-40 1.841-2.349 3.174-5.015 4-8 0-.667.333-1 1-1a57.51 57.51 0 0 1 9-9 120.431 120.431 0 0 0 13-7c2.286-.095 4.286-.762 6-2 6.608-.596 12.942-1.93 19-4a754.614 754.614 0 0 1 43-1 809.182 809.182 0 0 0 1 55.5 22.527 22.527 0 0 1-4 5.5Z" style="opacity:1"/>
  <path fill="#81a88d" d="M808.5 88.5c3.688.672 7.355 1.505 11 2.5 1.82.2 3.153 1.034 4 2.5-5.468-.933-10.468-2.6-15-5Z" style="opacity:1"/>
  <path fill="#88ad94" d="M1026.5 88.5c4.68.58 9.01 1.913 13 4-4.75-.339-9.08-1.672-13-4Z" style="opacity:1"/>
  <path fill="#6e9b7c" d="M1157.5 88.5c5.9.17 11.24 1.837 16 5-1-.086-1.83.248-2.5 1-.39-.928-1.05-1.595-2-2a79.933 79.933 0 0 0-10.5-2.5c-.56-.383-.89-.883-1-1.5Z" style="opacity:1"/>
  <path fill="#7ba489" d="M1287.5 88.5c-8.09 2.23-16.43 3.896-25 5 7.97-2.833 16.31-4.5 25-5Z" style="opacity:1"/>
  <path fill="#74a082" d="M737.5 89.5c-4.045 1.677-8.378 2.344-13 2 4.067-1.554 8.4-2.22 13-2Z" style="opacity:1"/>
  <path fill="#75a082" d="M1117.5 88.5c-4.38 2.019-9.05 3.686-14 5 4.13-2.824 8.8-4.49 14-5Z" style="opacity:1"/>
  <path fill="#79a286" d="M1564.5 108.5c-.62-.111-1.12-.444-1.5-1a373.465 373.465 0 0 1-1.5-17 602.42 602.42 0 0 0-28 3 220.74 220.74 0 0 1 26.5-5c1.4.726 2.23 1.892 2.5 3.5a107.9 107.9 0 0 1 2 16.5Z" style="opacity:1"/>
  <path fill="#96b8a2" d="M1648.5 89.5c4.03.582 7.7 1.915 11 4-4.18-.282-7.85-1.615-11-4Z" style="opacity:1"/>
  <path fill="#9eb996" d="M340.5 89.5c-2.798 1.37-5.798 2.37-9 3a19.24 19.24 0 0 1-6 1c4.626-2.332 9.626-3.665 15-4Z" style="opacity:1"/>
  <path fill="#4d803e" d="M340.5 89.5c3.773-.237 7.44.263 11 1.5-1.333.667-1.333 1.333 0 2 4.938 3.12 8.605 6.62 11 10.5a102.128 102.128 0 0 0-3.5 8c-.423-1.456-1.256-1.956-2.5-1.5 1.149 2.459 1.149 4.959 0 7.5-6.923-5.253-13.257-11.253-19-18a3.65 3.65 0 0 0-1.5 1 8.193 8.193 0 0 0-2.5-4l1-2a44.093 44.093 0 0 1-3-2c3.202-.63 6.202-1.63 9-3Z" style="opacity:1"/>
  <path fill="#8db099" d="M933.5 98.5c-1.268-2.405-1.935-5.072-2-8l-23 2a285.393 285.393 0 0 1 22-4c2.218 2.852 3.218 6.185 3 10Z" style="opacity:1"/>
  <path fill="#88ae94" d="M1353.5 88.5c5.77.674 11.1 2.34 16 5a601.561 601.561 0 0 0-15-3.5c-.56-.383-.89-.883-1-1.5Z" style="opacity:1"/>
  <path fill="#8aae95" d="M1488.5 102.5v-12a434.291 434.291 0 0 1-26 3c8.71-2.384 17.71-3.717 27-4 .32 4.532-.02 8.866-1 13Z" style="opacity:1"/>
  <path fill="#7da68a" d="M724.5 91.5c-2.015 1.424-4.348 2.09-7 2 1.938-1.663 4.272-2.33 7-2Z" style="opacity:1"/>
  <path fill="#196232" d="M1488.5 102.5v7a910.412 910.412 0 0 0-3 86c.11 19.504.44 39.004 1 58.5.01 5.216.67 10.049 2 14.5.48 10.661.81 21.328 1 32h-39v-13a1973.7 1973.7 0 0 1 2-50c.67-13.829 1-27.829 1-42 0-14.35-.67-28.35-2-42v-5a689.265 689.265 0 0 0-3-38.5c-.05-2.295-.71-4.129-2-5.5v-2a20.8 20.8 0 0 1 2-6c3.62-.452 6.96-1.452 10-3h4c8.69-.738 17.36-1.738 26-3v12Z" style="opacity:1"/>
  <path fill="#1a6232" d="M1613.5 87.5h19c5.39.233 10.73.9 16 2 3.15 2.385 6.82 3.718 11 4 1.05-.15 2.05.017 3 .5a74.333 74.333 0 0 0-2 5.5c-.62.11-1.12.444-1.5 1a127.572 127.572 0 0 0-2.5 12c-.3 2.873-.97 5.539-2 8-1.66 1.938-2.33 4.272-2 7 .13.876-.2 1.543-1 2a65.97 65.97 0 0 0-15-5c-1.98-1.511-4.31-2.344-7-2.5-8.37-.684-16.7-.351-25 1-.92.278-1.58.778-2 1.5-2.58.988-5.25 1.988-8 3a9.11 9.11 0 0 1-5-1c-1.01.438-1.01 1.104 0 2-1.19.929-2.52 1.262-4 1a4.949 4.949 0 0 0-.5-3c-.5 1.167-1.33 2-2.5 2.5l3 3a14.698 14.698 0 0 0-3 3.5c0 .667-.33 1-1 1-5.83-1.43-7.83.903-6 7-.25 2.174-1.25 3.841-3 5-1.17 1.014-1.84 2.347-2 4-.06 1.109-.39 2.109-1 3-1.47.847-2.3 2.18-2.5 4-.17 15.667-.33 31.333-.5 47-.18 23.186.49 46.186 2 69 .47 8.515.47 16.848 0 25h-38v-22c.62-16.669 1.28-33.336 2-50 1.5-11.63 2.16-23.463 2-35.5 0-8.196-.67-16.03-2-23.5a141.8 141.8 0 0 1-1-19c-.5-9.357-1.34-18.691-2.5-28-.16-2.691-.99-5.024-2.5-7a51.412 51.412 0 0 0-1-7 85.693 85.693 0 0 0-2-14c3.26-.824 6.6-1.158 10-1a603.788 603.788 0 0 1 28-3c.37 5.672.87 11.339 1.5 17 .38.556.88.889 1.5 1v2c-.17 3.682 0 7.348.5 11 1.71 1.425 3.05 1.092 4-1 .33.333.67.667 1 1a74.193 74.193 0 0 1 5.5-11c0-.667.33-1 1-1 2.09-1.085 3.42-2.751 4-5 2.25-.58 3.92-1.913 5-4 0-.667.33-1 1-1 3.6-1.291 6.6-3.291 9-6 5.36-3.785 11.36-5.785 18-6Z" style="opacity:1"/>
  <path fill="#497a3e" d="M331.5 92.5a44.093 44.093 0 0 0 3 2l-1 2a8.193 8.193 0 0 1 2.5 4 3.65 3.65 0 0 1 1.5-1c5.743 6.747 12.077 12.747 19 18a21.17 21.17 0 0 0-2 7c-.489 1.495-1.155 2.829-2 4-.901.79-1.568 1.79-2 3-.897-1.098-1.73-1.098-2.5 0-.273-1.829-1.107-3.329-2.5-4.5 1.238.077 2.238-.089 3-.5a83.561 83.561 0 0 1-13-12 36.16 36.16 0 0 1-7-4 2223.123 2223.123 0 0 0-12-14l3-2c1.879-.841 3.879-1.175 6-1a19.24 19.24 0 0 0 6-1Z" style="opacity:1"/>
  <path fill="#588c68" d="M989.5 87.5a507.455 507.455 0 0 1-16.5 5 9.564 9.564 0 0 0-3 3 3.646 3.646 0 0 0-1.5-1 29.077 29.077 0 0 1-8 3c8.596-6.089 18.262-9.422 29-10Z" style="opacity:1"/>
  <path fill="#c02d29" d="M94.5 83.5a4.932 4.932 0 0 0 .5 3 650.92 650.92 0 0 1 33.5 41c-.734 1.208-1.067 2.541-1 4v1c-1.193.47-1.86 1.47-2 3a38.722 38.722 0 0 0-2 12c-1.175.219-2.175-.114-3-1a15.69 15.69 0 0 0-2-4 3.647 3.647 0 0 0-1.5 1 74.931 74.931 0 0 0-12-16 2556.055 2556.055 0 0 1-8-12l-1 1c-2.513-3.704-5.013-7.37-7.5-11a28.04 28.04 0 0 0-5-1.5c2.717-.043 3.384-1.043 2-3a14.075 14.075 0 0 0 2-7.5c.475-2.284 1.475-4.284 3-6l4-4Z" style="opacity:1"/>
  <path fill="#5b8c68" d="M523.5 93.5c-.579 2.831-1.912 5.164-4 7a29.806 29.806 0 0 1-.5-5c1.629.336 3.129-.33 4.5-2Z" style="opacity:1"/>
  <path fill="#5e906d" d="M1458.5 93.5c-3.04 1.548-6.38 2.548-10 3a20.808 20.808 0 0 0-2 6c-.97-2.448-1.31-5.115-1-8 4.37.033 8.7-.3 13-1Z" style="opacity:1"/>
  <path fill="#9db799" d="m319.5 94.5-3 2-12 2c4.626-2.332 9.626-3.665 15-4Z" style="opacity:1"/>
  <path fill="#87ac94" d="M827.5 94.5c2.319.493 4.319 1.493 6 3-2.589.039-4.589-.961-6-3Z" style="opacity:1"/>
  <path fill="#7fa78c" d="M1370.5 93.5c3.93.632 7.26 2.299 10 5-3.88-.936-7.21-2.603-10-5Z" style="opacity:1"/>
  <path fill="#7aa487" d="M1595.5 93.5c-2.4 2.709-5.4 4.709-9 6 2.45-2.777 5.45-4.777 9-6Z" style="opacity:1"/>
  <path fill="#a2bfac" d="M1177.5 94.5c2.17.25 3.84 1.25 5 3-2.35-.092-4.01-1.092-5-3Z" style="opacity:1"/>
  <path fill="#94b5a0" d="M2149.5 94.5c2.38.85 4.38 2.184 6 4-2.77-.37-4.77-1.704-6-4Z" style="opacity:1"/>
  <path fill="#f3b8b2" d="M146.5 97.5c.073 1.527-.594 2.527-2 3-.073-1.527.594-2.527 2-3Z" style="opacity:.263"/>
  <path fill="#89ae95" d="M711.5 94.5c-1.141.839-2.474 1.506-4 2a84.721 84.721 0 0 0-3 11c-.311-4.18.355-8.18 2-12a9.107 9.107 0 0 1 5-1Z" style="opacity:1"/>
  <path fill="#41703c" d="M316.5 96.5c3.986 4.611 7.986 9.278 12 14a36.16 36.16 0 0 0 7 4 83.561 83.561 0 0 0 13 12c-.762.411-1.762.577-3 .5 1.393 1.171 2.227 2.671 2.5 4.5.77-1.098 1.603-1.098 2.5 0a20.69 20.69 0 0 0-1 5 87.673 87.673 0 0 1-4 10c-1.604.787-2.271 2.12-2 4a5.727 5.727 0 0 1-1 3 343.58 343.58 0 0 1-4-1c-1.147.318-1.981.984-2.5 2a36.16 36.16 0 0 0-4-7 761.94 761.94 0 0 1-39.5-41c-2.264-1.369-4.597-2.369-7-3 3.311-.383 6.311-1.383 9-3a44.338 44.338 0 0 1 10-2l12-2Z" style="opacity:1"/>
  <path fill="#9cbaa6" d="M893.5 94.5a53.782 53.782 0 0 1 2 16 147.472 147.472 0 0 1-3-14c.043-.916.376-1.583 1-2Z" style="opacity:1"/>
  <path fill="#a2c0ac" d="M1382.5 99.5c1.53-.073 2.53.594 3 2-1.53.073-2.53-.594-3-2Z" style="opacity:1"/>
  <path fill="#a6c2b0" d="M1523.5 94.5a85.693 85.693 0 0 1 2 14 94.798 94.798 0 0 1-3-12c.04-.916.38-1.583 1-2Z" style="opacity:1"/>
  <path fill="#96b8a1" d="M1822.5 96.5c-.83 2.985-2.16 5.651-4 8 .33-3.327 1.66-5.993 4-8Z" style="opacity:1"/>
  <path fill="#7ca589" d="M2157.5 99.5c2.33.645 3.99 1.978 5 4-2.33-.645-3.99-1.978-5-4Z" style="opacity:1"/>
  <path fill="#9bb39a" d="M294.5 100.5c-2.689 1.617-5.689 2.617-9 3h-2c3.354-1.758 7.021-2.758 11-3Z" style="opacity:1"/>
  <path fill="#7aa387" d="M956.5 99.5c-1.039 2.031-2.705 3.364-5 4 1.079-2.043 2.746-3.376 5-4Z" style="opacity:1"/>
  <path fill="#95b7a0" d="M1053.5 99.5c2.25.624 3.92 1.957 5 4-2.29-.636-3.96-1.969-5-4Z" style="opacity:1"/>
  <path fill="#8fb29a" d="M1585.5 100.5c-1.08 2.087-2.75 3.42-5 4 1.08-2.087 2.75-3.42 5-4Z" style="opacity:1"/>
  <path fill="#3e6b3c" d="M283.5 103.5h2c2.403.631 4.736 1.631 7 3a761.94 761.94 0 0 0 39.5 41 36.16 36.16 0 0 1 4 7c.519-1.016 1.353-1.682 2.5-2 1.349.346 2.683.679 4 1a10.134 10.134 0 0 1-1.5 4 651.915 651.915 0 0 1-8.5 9 16.076 16.076 0 0 0-2-5 4.457 4.457 0 0 1 2-1.5 15.645 15.645 0 0 1-4-2.5l-1 2a3.647 3.647 0 0 1-1.5-1 18.453 18.453 0 0 1-.5-6 8.43 8.43 0 0 1-4-.5c-3.925-3.094-6.925-6.927-9-11.5a4.457 4.457 0 0 0-1.5 2c-1.405-3.132-3.572-5.466-6.5-7 .346-1.196.846-1.196 1.5 0 .271-2.307-.895-3.474-3.5-3.5l1-1a379.495 379.495 0 0 1-8-8 22.981 22.981 0 0 1-5-2l3-1a98.16 98.16 0 0 0-11-8 3.647 3.647 0 0 0 1-1.5c-2.289-.966-4.289-2.299-6-4a30.249 30.249 0 0 1-11 4c4.805-4.23 10.471-6.563 17-7Z" style="opacity:1"/>
  <path fill="#a1beaa" d="M519.5 101.5c-.826 2.985-2.159 5.651-4 8 .294-3.254 1.627-5.921 4-8Z" style="opacity:1"/>
  <path fill="#9ab9a4" d="M844.5 104.5c2.087 1.085 3.42 2.751 4 5-2.087-1.085-3.42-2.751-4-5Z" style="opacity:1"/>
  <path fill="#8fb29b" d="M1390.5 105.5c2.74 1.739 4.74 4.073 6 7-2.74-1.739-4.74-4.073-6-7Z" style="opacity:1"/>
  <path fill="#8bb097" d="M2164.5 104.5c2.61.943 4.61 2.61 6 5-2.63-.973-4.63-2.64-6-5Z" style="opacity:1"/>
  <path fill="#d47a76" d="M82.5 104.5a27.719 27.719 0 0 1-2 8.5c-.184 1.376-.85 2.209-2 2.5.565-4.037 1.899-7.703 4-11Z" style="opacity:1"/>
  <path fill="#efada9" d="M141.5 104.5c-.526 1.73-1.526 3.064-3 4v-2c.722-1.051 1.722-1.718 3-2Z" style="opacity:1"/>
  <path fill="#81a88d" d="M1580.5 104.5c-.58 2.249-1.91 3.915-4 5 .58-2.249 1.91-3.915 4-5Z" style="opacity:1"/>
  <path fill="#8baf97" d="M1660.5 99.5c-.58 4.677-1.91 9.01-4 13 .64-4.027 1.47-8.027 2.5-12 .38-.556.88-.89 1.5-1Z" style="opacity:1"/>
  <path fill="#709c7e" d="M1779.5 105.5c-.92 4.807-2.59 9.14-5 13 .7-4.79 2.37-9.124 5-13Z" style="opacity:1"/>
  <path fill="#86a87b" d="M362.5 103.5h1a300.724 300.724 0 0 1-9 21 21.17 21.17 0 0 1 2-7c1.149-2.541 1.149-5.041 0-7.5 1.244-.456 2.077.044 2.5 1.5a102.128 102.128 0 0 1 3.5-8Z" style="opacity:1"/>
  <path fill="#92b49d" d="M1251.5 96.5c-.04 6.035-.54 12.035-1.5 18-.28.916-.78 1.582-1.5 2 .23-6.628 1.23-13.295 3-20Z" style="opacity:1"/>
  <path fill="#649372" d="M1080.5 106.5c-2.59 3.626-5.93 6.292-10 8a45.191 45.191 0 0 1 10-8Z" style="opacity:1"/>
  <path fill="#84ab90" d="M1817.5 106.5c-.63 2.897-1.63 5.564-3 8-.48-3.331.52-5.997 3-8Z" style="opacity:1"/>
  <path fill="#da5e51" d="M136.5 111.5c-1.175 3.683-2.841 7.016-5 10a125.796 125.796 0 0 0-2.5-10 127.818 127.818 0 0 0 2 3 64.434 64.434 0 0 0 5.5-3Z" style="opacity:1"/>
  <path fill="#759f82" d="M948.5 105.5c-2.4 3.403-5.4 6.07-9 8 2.4-3.403 5.4-6.07 9-8Z" style="opacity:1"/>
  <path fill="#7aa488" d="M2115.5 114.5c-12.74-2.772-25.41-2.438-38 1 .29-1.149 1.12-1.816 2.5-2a89.9 89.9 0 0 1 27.5-1.5c3.02.098 5.69.932 8 2.5Z" style="opacity:1"/>
  <path fill="#87ac92" d="M848.5 109.5c2.087 1.085 3.42 2.751 4 5-2.087-1.085-3.42-2.751-4-5Z" style="opacity:1"/>
  <path fill="#9dbca7" d="M2075.5 116.5c-2.35 1.841-5.02 3.174-8 4 2.08-2.373 4.75-3.706 8-4Z" style="opacity:1"/>
  <path fill="#2f5a36" d="M290.5 151.5c-2.119-.032-3.452.968-4 3-3.877 2.629-8.21 4.296-13 5a29.356 29.356 0 0 0-9 2c-1.145-1.276-1.145-2.609 0-4-1.552-1.298-2.552-.965-3 1v1l-6 5h-1a19.221 19.221 0 0 0-3-5c1.368-1.094 2.535-.76 3.5 1a9.454 9.454 0 0 1 2.5-1.5c-9.128-8.612-17.461-17.445-25-26.5a4.457 4.457 0 0 0-1.5 2 4.457 4.457 0 0 0-1.5-2 31.71 31.71 0 0 1-6 2c1.353-2.238 3.353-3.571 6-4 3.799-.921 7.132-2.588 10-5 2.6-.968 4.934-2.301 7-4 1.399-1.39 3.066-2.39 5-3a24.957 24.957 0 0 0 7.5-2c2.293 1.99 4.626 3.99 7 6 .437 3.272 2.27 4.939 5.5 5-.219 1.175.114 2.175 1 3a70.468 70.468 0 0 0 8.5 8l2 4 1-1c.065 2.383.898 3.05 2.5 2a26.55 26.55 0 0 1 4 8Z" style="opacity:1"/>
  <path fill="#7ba488" d="M476.5 112.5c-.756 4.267-2.089 8.267-4 12 .361-4.415 1.694-8.415 4-12Z" style="opacity:1"/>
  <path fill="#7fa78d" d="M790.5 119.5a327.54 327.54 0 0 0-56 1c.418-.722 1.084-1.222 2-1.5a366.937 366.937 0 0 1 49-1c1.882.198 3.548.698 5 1.5Z" style="opacity:1"/>
  <path fill="#6a9878" d="M998.5 118.5c-10.504-.51-20.838.49-31 3a4.934 4.934 0 0 1 .5-3c1.635 1.349 3.135 1.182 4.5-.5 8.843-.824 17.51-.657 26 .5Z" style="opacity:1"/>
  <path fill="#97b7a2" d="M1137.5 119.5a98.524 98.524 0 0 0-28 0c.76-.768 1.76-1.268 3-1.5a121.19 121.19 0 0 1 22 0c1.24.232 2.24.732 3 1.5Z" style="opacity:1"/>
  <path fill="#81a88e" d="M1335.5 119.5a295.306 295.306 0 0 0-54 1c1.72-1.3 3.89-1.967 6.5-2a342.642 342.642 0 0 1 42.5-.5c1.88.198 3.55.698 5 1.5Z" style="opacity:1"/>
  <path fill="#a8c4b1" d="M1814.5 114.5c.27 1.88-.4 3.213-2 4 .16-1.653.83-2.986 2-4Z" style="opacity:1"/>
  <path fill="#7ca489" d="M998.5 118.5c4.32-.417 8.32.25 12 2-4.18-.351-8.18-1.018-12-2Z" style="opacity:1"/>
  <path fill="#83a98f" d="M1526.5 115.5c1.51 1.976 2.34 4.309 2.5 7 1.16 9.309 2 18.643 2.5 28-1.9-11.5-3.56-23.166-5-35Z" style="opacity:1"/>
  <path fill="#538763" d="M1564.5 110.5c.78 3.214 1.62 6.548 2.5 10 2.14-3.962 4.97-7.296 8.5-10a74.193 74.193 0 0 0-5.5 11c-.33-.333-.67-.667-1-1-.95 2.092-2.29 2.425-4 1-.5-3.652-.67-7.318-.5-11Z" style="opacity:1"/>
  <path fill="#5d8e6b" d="M790.5 119.5c5.674-.656 10.674.677 15 4-4.99-1.781-9.99-3.115-15-4Z" style="opacity:1"/>
  <path fill="#aac5b3" d="M854.5 118.5c1.406.473 2.073 1.473 2 3-1.406-.473-2.073-1.473-2-3Z" style="opacity:1"/>
  <path fill="#84aa90" d="M1199.5 115.5c1.75 1.533 2.75 3.533 3 6-1.75-1.533-2.75-3.533-3-6Z" style="opacity:1"/>
  <path fill="#82a990" d="M1398.5 115.5c1.75 1.533 2.75 3.533 3 6-1.75-1.533-2.75-3.533-3-6Z" style="opacity:1"/>
  <path fill="#e1a8a8" d="M77.5 118.5c.09 2.652-.576 4.985-2 7-.09-2.652.576-4.985 2-7Z" style="opacity:1"/>
  <path fill="#95b6a0" d="M1636.5 124.5a590.17 590.17 0 0 1-16-2c-5.99.799-11.99 1.466-18 2 .42-.722 1.08-1.222 2-1.5 8.3-1.351 16.63-1.684 25-1 2.69.156 5.02.989 7 2.5Z" style="opacity:1"/>
  <path fill="#b22926" d="M87.5 93.5a14.075 14.075 0 0 1-2 7.5c1.384 1.957.717 2.957-2 3a28.04 28.04 0 0 1 5 1.5c2.487 3.63 4.987 7.296 7.5 11l1-1c2.636 3.979 5.303 7.979 8 12a74.931 74.931 0 0 1 12 16 3.647 3.647 0 0 1 1.5-1 15.69 15.69 0 0 1 2 4c.825.886 1.825 1.219 3 1v2a2.428 2.428 0 0 1-.5 2 202.038 202.038 0 0 0-12.5 11 479.5 479.5 0 0 0-10 8 162.844 162.844 0 0 0-15-8c-1.302-2.322-3.302-3.655-6-4a18.971 18.971 0 0 1-7-5v-6a75.5 75.5 0 0 1 3-22c1.424-2.015 2.09-4.348 2-7a5.728 5.728 0 0 1 1-3c1.15-.291 1.816-1.124 2-2.5a27.719 27.719 0 0 0 2-8.5c1.103-3.997 2.77-7.664 5-11Z" style="opacity:1"/>
  <path fill="#87ad93" d="M726.5 121.5c-5.787 1.749-11.787 3.082-18 4 .291-1.149 1.124-1.816 2.5-2a82.641 82.641 0 0 1 15.5-2Z" style="opacity:1"/>
  <path fill="#abc5b3" d="M1272.5 121.5c-4.44 1.49-9.11 2.49-14 3 .11-.617.44-1.117 1-1.5a121.16 121.16 0 0 1 13-1.5Z" style="opacity:.737"/>
  <path fill="#fdcb7a" d="M154.5 137.5a71.174 71.174 0 0 0 1.5-14c-.816 1.323-1.983 1.989-3.5 2a17.858 17.858 0 0 1 5-5l1 2.5c-.655 5.16-1.989 9.993-4 14.5Z" style="opacity:1"/>
  <path fill="#89a18e" d="M246.5 121.5c-2.066 1.699-4.4 3.032-7 4 1.621-2.442 3.954-3.775 7-4Z" style="opacity:1"/>
  <path fill="#9dbca7" d="M514.5 112.5c-.914 5.354-2.581 10.354-5 15 .85-4.732 2.016-9.399 3.5-14 .383-.556.883-.889 1.5-1Z" style="opacity:.949"/>
  <path fill="#8aae96" d="M967.5 121.5c-2.756 1.704-5.756 3.037-9 4 2.398-2.474 5.398-3.808 9-4Z" style="opacity:1"/>
  <path fill="#a0bea9" d="M1102.5 121.5c-1.53 1.745-3.53 2.745-6 3 1.53-1.745 3.53-2.745 6-3Z" style="opacity:1"/>
  <path fill="#97b8a2" d="M1446.5 104.5c1.29 1.371 1.95 3.205 2 5.5a689.265 689.265 0 0 1 3 38.5 810.39 810.39 0 0 1-5-44Z" style="opacity:1"/>
  <path fill="#9cbba6" d="M1654.5 120.5c.09 2.652-.58 4.985-2 7-.33-2.728.34-5.062 2-7Z" style="opacity:.843"/>
  <path fill="#80a88e" d="M703.5 119.5v6h3c-1.068.934-2.401 1.268-4 1-.302-2.559.032-4.893 1-7Z" style="opacity:1"/>
  <path fill="#8eb19b" d="M1248.5 119.5v6h3c-1.07.934-2.4 1.268-4 1-.3-2.559.03-4.893 1-7Z" style="opacity:1"/>
  <path fill="#e59995" d="M131.5 121.5c-.767 3.649-2.1 6.982-4 10-.067-1.459.266-2.792 1-4 .255-2.467 1.255-4.467 3-6Z" style="opacity:1"/>
  <path fill="#a1bfac" d="M1357.5 126.5c1.53-.073 2.53.594 3 2-1.53.073-2.53-.594-3-2Z" style="opacity:1"/>
  <path fill="#548762" d="M1594.5 127.5a57.094 57.094 0 0 0-12 8 14.698 14.698 0 0 1 3-3.5l-3-3c1.17-.5 2-1.333 2.5-2.5.48.948.65 1.948.5 3 1.48.262 2.81-.071 4-1-1.01-.896-1.01-1.562 0-2a9.11 9.11 0 0 0 5 1Z" style="opacity:1"/>
  <path fill="#74907a" d="M239.5 125.5c-2.868 2.412-6.201 4.079-10 5 2.735-2.701 6.069-4.368 10-5Z" style="opacity:1"/>
  <path fill="#a4c1ad" d="M2137.5 127.5c2 0 3 1 3 3a6.575 6.575 0 0 1-3-3Z" style="opacity:1"/>
  <path fill="#b4ccbd" d="M2059.5 126.5c0 2-1 3-3 3a6.575 6.575 0 0 1 3-3Z" style="opacity:.42"/>
  <path fill="#a7c4b1" d="M1089.5 128.5c-.47 1.406-1.47 2.073-3 2 .47-1.406 1.47-2.073 3-2Z" style="opacity:.58"/>
  <path fill="#347147" d="M2041.5 104.5c-1.7 1.71-3.03 3.71-4 6-1.77.687-3.44 1.52-5 2.5 1.98 2.015 3.81 1.848 5.5-.5.67.667.67 1.333 0 2-7.3.477-12.8 3.81-16.5 10 1.22 2.339 1.22 4.672 0 7-.95-.826-1.95-.992-3-.5 1.33 1.84 1.17 2.34-.5 1.5-1.66 2.284-3.83 3.951-6.5 5 7.04-13.791 17.04-24.791 30-33Z" style="opacity:1"/>
  <path fill="#518660" d="M955.5 127.5c-3.992 2.664-7.992 5.33-12 8-.671-1.347-.671-2.514 0-3.5 1.525-1.009 3.192-1.509 5-1.5-.214-3.757.786-4.424 3-2a6.846 6.846 0 0 1 4-1Z" style="opacity:1"/>
  <path fill="#a2bfab" d="M818.5 131.5c1.406.473 2.073 1.473 2 3-1.406-.473-2.073-1.473-2-3Z" style="opacity:1"/>
  <path fill="#fdd086" d="M41.5 135.5a5.575 5.575 0 0 1-3-1l-1 1.5a127.226 127.226 0 0 0 3 8.5c-2.606-3.113-4.273-6.78-5-11l.5-2c2.167.988 4 2.321 5.5 4Z" style="opacity:1"/>
  <path fill="#9cbba6" d="M1204.5 128.5c1.57 1.602 2.24 3.602 2 6-1.57-1.602-2.24-3.602-2-6Z" style="opacity:1"/>
  <path fill="#b2cbba" d="M2142.5 132.5c1.41.473 2.07 1.473 2 3-1.41-.473-2.07-1.473-2-3Z" style="opacity:.157"/>
  <path fill="#a8bea4" d="M352.5 128.5c-.233 3.042-1.233 5.708-3 8a20.69 20.69 0 0 1 1-5c.432-1.21 1.099-2.21 2-3Z" style="opacity:1"/>
  <path fill="#89ae95" d="M1365.5 134.5c3.16 2.42 4.83 5.753 5 10a1058.65 1058.65 0 0 1-5-10Z" style="opacity:1"/>
  <path fill="#7ea78b" d="M1403.5 127.5c.62.111 1.12.444 1.5 1a88.96 88.96 0 0 1 2.5 13c-.62-.111-1.12-.444-1.5-1-.84-4.353-1.67-8.687-2.5-13Z" style="opacity:1"/>
  <path fill="#92b49d" d="M1812.5 120.5a901.87 901.87 0 0 1-5 25c.28-7.585 1.28-15.085 3-22.5.18-1.376.85-2.209 2-2.5Z" style="opacity:1"/>
  <path fill="#487f57" d="M1581.5 136.5c-1.3 2.932-3.3 5.266-6 7-1.83-6.097.17-8.43 6-7Z" style="opacity:1"/>
  <path fill="#568864" d="M2052.5 134.5a93.934 93.934 0 0 1-7 11c.18-1.195.51-2.362 1-3.5-1.53-1.582-2.03-3.415-1.5-5.5 2.74.707 5.24.04 7.5-2Z" style="opacity:1"/>
  <path fill="#234e32" d="M254.5 164.5a647.542 647.542 0 0 0-8 3c-2.099 1.112-4.433 1.779-7 2a61.272 61.272 0 0 0-13 3c-1.213-.247-1.88-.914-2-2 1.543-1.236 2.543-2.902 3-5l-1-1c-1 1.333-2 1.333-3 0a16.332 16.332 0 0 0-2 4 308.607 308.607 0 0 1-4 3c-1.527-.073-2.527.594-3 2-.79.901-1.79 1.568-3 2-1.527-.073-2.527.594-3 2-2.995 1.743-6.329 2.743-10 3 2.747-1.529 5.747-2.863 9-4a102.18 102.18 0 0 0-6-7.5 4.934 4.934 0 0 0-3-.5c-.466-1.701-.466-3.201 0-4.5-2.386-.444-4.72-1.611-7-3.5v-2a32.728 32.728 0 0 0 11-8c.762-1.762 2.096-2.762 4-3 4.724-2.029 8.724-5.029 12-9 1.085-2.087 2.751-3.42 5-4a31.71 31.71 0 0 0 6-2 4.457 4.457 0 0 1 1.5 2 4.457 4.457 0 0 1 1.5-2c7.539 9.055 15.872 17.888 25 26.5a9.454 9.454 0 0 0-2.5 1.5c-.965-1.76-2.132-2.094-3.5-1a19.221 19.221 0 0 1 3 5Z" style="opacity:1"/>
  <path fill="#729d80" d="M1774.5 120.5c-.94 6.975-2.6 13.642-5 20 .44-7.096 2.11-13.762 5-20Z" style="opacity:1"/>
  <path fill="#91b39b" d="M859.5 132.5c1.663 1.938 2.329 4.272 2 7-1.424-2.015-2.09-4.348-2-7Z" style="opacity:1"/>
  <path fill="#fdcf82" d="M43.5 136.5c3.04 1.18 5.706 2.847 8 5-3.415-.695-6.082-2.362-8-5Z" style="opacity:1"/>
  <path fill="#fde09c" d="M137.5 138.5c-1.085 2.087-2.751 3.42-5 4 1.085-2.087 2.751-3.42 5-4Z" style="opacity:1"/>
  <path fill="#86ac92" d="M471.5 130.5c-3.94 23.326-3.94 46.659 0 70-2.216-4.631-3.383-9.631-3.5-15a263.545 263.545 0 0 1 2-53c.278-.916.778-1.582 1.5-2Z" style="opacity:1"/>
  <path fill="#98b8a3" d="M897.5 123.5c1.688 6.085 2.854 12.419 3.5 19 .499 4.655.666 9.321.5 14a496.732 496.732 0 0 1-4-33Z" style="opacity:1"/>
  <path fill="#386539" d="M332.5 166.5a241.124 241.124 0 0 1-14 17c-.239-1.967.094-3.801 1-5.5l-16-16c-2.28-.233-4.28-1.066-6-2.5-.651 2.347-1.984 4.014-4 5a3681.322 3681.322 0 0 0 9-18h1a29.01 29.01 0 0 0 3-4.5c-2.621.427-4.621 1.927-6 4.5-.333 1-1 1.667-2 2a9.108 9.108 0 0 1-5-1c-1.006.438-1.006 1.104 0 2a7.47 7.47 0 0 1-3 2 26.55 26.55 0 0 0-4-8c-1.602 1.05-2.435.383-2.5-2l-1 1-2-4a70.468 70.468 0 0 1-8.5-8c-.886-.825-1.219-1.825-1-3-3.23-.061-5.063-1.728-5.5-5a754.952 754.952 0 0 1-7-6 24.957 24.957 0 0 1-7.5 2 160.636 160.636 0 0 1 15-8 30.249 30.249 0 0 0 11-4c1.711 1.701 3.711 3.034 6 4a3.647 3.647 0 0 1-1 1.5 98.16 98.16 0 0 1 11 8l-3 1a22.981 22.981 0 0 0 5 2 379.495 379.495 0 0 0 8 8l-1 1c2.605.026 3.771 1.193 3.5 3.5-.654-1.196-1.154-1.196-1.5 0 2.928 1.534 5.095 3.868 6.5 7a4.457 4.457 0 0 1 1.5-2c2.075 4.573 5.075 8.406 9 11.5a8.43 8.43 0 0 0 4 .5 18.453 18.453 0 0 0 .5 6c.414.457.914.791 1.5 1l1-2a15.645 15.645 0 0 0 4 2.5 4.457 4.457 0 0 0-2 1.5 16.076 16.076 0 0 1 2 5Z" style="opacity:1"/>
  <path fill="#f9b922" d="M154.5 137.5a21.435 21.435 0 0 1-1 7c-2.126 3.945-3.126 8.278-3 13 .268 1.599-.066 2.932-1 4-.948-6.162-4.614-9.162-11-9v-3c-5.751.492-7.751-1.841-6-7 2.249-.58 3.915-1.913 5-4a72.775 72.775 0 0 1 15-13c1.517-.011 2.684-.677 3.5-2a71.174 71.174 0 0 1-1.5 14Z" style="opacity:1"/>
  <path fill="#8bb097" d="M1031.5 135.5c1.25.077 2.08.744 2.5 2a33.486 33.486 0 0 1 2.5 10c-1.65-3.929-3.32-7.929-5-12Z" style="opacity:1"/>
  <path fill="#85ab92" d="M821.5 136.5c3.473 3.818 5.14 8.485 5 14a2190.115 2190.115 0 0 1-5-14Z" style="opacity:1"/>
  <path fill="#83aa90" d="M1206.5 135.5c1.56 5.761 2.22 11.761 2 18-1.31-5.788-1.98-11.788-2-18Z" style="opacity:1"/>
  <path fill="#7da68b" d="M1488.5 109.5a3318.193 3318.193 0 0 0 0 159c-1.33-4.451-1.99-9.284-2-14.5-.56-19.496-.89-38.996-1-58.5-.35-28.873.65-57.539 3-86Z" style="opacity:1"/>
  <path fill="#fbbb40" d="M51.5 141.5c4 .996 7.334 2.996 10 6-.996-.086-1.83.248-2.5 1-.604-2.186-1.77-2.352-3.5-.5a25.022 25.022 0 0 1-8 6.5 32.058 32.058 0 0 1 4 2.5c-1.049.492-2.049.326-3-.5-1.022.355-1.689 1.022-2 2-2.177-3.02-3.843-6.353-5-10 1.678 1.247 3.011 2.914 4 5l1-.5c.227-1.135.56-2.302 1-3.5 2.749.989 4.749-.011 6-3l-2-1c.863-1.226.863-2.56 0-4Z" style="opacity:1"/>
  <path fill="#6f9c7d" d="M2011.5 137.5c-.99 2.646-1.99 5.312-3 8-.46.798-1.12 1.131-2 1 .91-3.492 2.58-6.492 5-9Z" style="opacity:1"/>
  <path fill="#6b8775" d="M218.5 138.5c-3.276 3.971-7.276 6.971-12 9a14.698 14.698 0 0 1 3-3.5 88.204 88.204 0 0 0 9-5.5Z" style="opacity:1"/>
  <path fill="#7ea78c" d="M939.5 139.5a3691.699 3691.699 0 0 0-1 121 400.456 400.456 0 0 1-1 40c-.662-54.01.004-107.677 2-161Z" style="opacity:1"/>
  <path fill="#689575" d="M1167.5 138.5c1.69 2.014 3.03 4.348 4 7 .9-1.006 1.56-1.006 2 0-1.5 1.342-2.17 3.008-2 5-1.91-3.716-3.24-7.716-4-12Z" style="opacity:1"/>
  <path fill="#f9ad1f" d="m41.5 135.5 2 1c1.918 2.638 4.585 4.305 8 5 .863 1.44.863 2.774 0 4l2 1c-1.251 2.989-3.251 3.989-6 3a23.625 23.625 0 0 0-1 3.5l-1 .5c-.989-2.086-2.322-3.753-4-5-.734-1.208-1.067-2.541-1-4a127.226 127.226 0 0 1-3-8.5l1-1.5a5.575 5.575 0 0 0 3 1Z" style="opacity:1"/>
  <path fill="#b0c2b0" d="M303.5 146.5c-.333-1.333-.667-1.333-1 0h-2c1.379-2.573 3.379-4.073 6-4.5a29.01 29.01 0 0 1-3 4.5Z" style="opacity:.525"/>
  <path fill="#de8d8a" d="M127.5 132.5a200.943 200.943 0 0 0-3 16c0 .667-.333 1-1 1v-2a38.722 38.722 0 0 1 2-12c.14-1.53.807-2.53 2-3Z" style="opacity:1"/>
  <path fill="#729075" d="M298.5 148.5c-3.682 2.508-7.682 4.508-12 6 .548-2.032 1.881-3.032 4-3a7.47 7.47 0 0 0 3-2c-1.006-.896-1.006-1.562 0-2a9.108 9.108 0 0 0 5 1Z" style="opacity:1"/>
  <path fill="#fdd987" d="M62.5 147.5c2.382.851 4.382 2.184 6 4-2.767-.37-4.767-1.704-6-4Z" style="opacity:1"/>
  <path fill="#e3b7ad" d="M72.5 147.5v6c-1.495-.489-2.829-1.155-4-2h3c-.268-1.599.066-2.932 1-4Z" style="opacity:1"/>
  <path fill="#b1c4af" d="M345.5 146.5c-.16 1.653-.826 2.986-2 4-.271-1.88.396-3.213 2-4Z" style="opacity:1"/>
  <path fill="#749f81" d="M1370.5 145.5c1.43 1.648 2.26 3.648 2.5 6 .5 7.659.67 15.326.5 23h-7c1.42-.951 3.09-1.284 5-1 .25-9.373-.08-18.707-1-28Z" style="opacity:1"/>
  <path fill="#f7c31f" d="M132.5 142.5c-1.751 5.159.249 7.492 6 7v3c6.386-.162 10.052 2.838 11 9a20.69 20.69 0 0 1-1 5c-1.174 1.014-1.84 2.347-2 4a114.344 114.344 0 0 0-9.5-8c-5.701-3.176-11.534-5.176-17.5-6a21.984 21.984 0 0 1-9 6 202.038 202.038 0 0 1 12.5-11 2.428 2.428 0 0 0 .5-2c.667 0 1-.333 1-1a34.482 34.482 0 0 0 8-6Z" style="opacity:1"/>
  <path fill="#b1c8b8" d="M1572.5 148.5c.27 1.88-.4 3.213-2 4 .16-1.653.83-2.986 2-4Z" style="opacity:1"/>
  <path fill="#f8b91e" d="M61.5 147.5h1c1.233 2.296 3.233 3.63 6 4 1.171.845 2.505 1.511 4 2a18.971 18.971 0 0 0 7 5 49.367 49.367 0 0 0-11 1c.324-3.18-1.01-4.347-4-3.5a39.746 39.746 0 0 1-12.5 8.5 12.935 12.935 0 0 0-.5 5c-2.613-3.145-4.28-6.811-5-11 .311-.978.978-1.645 2-2 .951.826 1.951.992 3 .5a32.058 32.058 0 0 0-4-2.5 25.022 25.022 0 0 0 8-6.5c1.73-1.852 2.896-1.686 3.5.5.67-.752 1.504-1.086 2.5-1Z" style="opacity:1"/>
  <path fill="#fddf98" d="M153.5 144.5c-.477 4.571-1.477 8.904-3 13-.126-4.722.874-9.055 3-13Z" style="opacity:1"/>
  <path fill="#89ae95" d="M509.5 131.5a222.508 222.508 0 0 0-1 51c-2.009-7.05-3.009-14.384-3-22 .434-8.004.934-16.004 1.5-24 .099-2.153.933-3.819 2.5-5Z" style="opacity:1"/>
  <path fill="#94b59e" d="M2005.5 149.5c-.05 2.846-1.05 5.18-3 7 .43-2.657 1.43-4.991 3-7Z" style="opacity:1"/>
  <path fill="#a1beaa" d="M2152.5 148.5c2.27 2.112 3.6 4.779 4 8-1.89-2.289-3.22-4.955-4-8Z" style="opacity:1"/>
  <path fill="#7e9688" d="M202.5 150.5a32.728 32.728 0 0 1-11 8 34.253 34.253 0 0 1 11-8Z" style="opacity:1"/>
  <path fill="#84ab91" d="M861.5 139.5c1.483 7.277 2.15 14.777 2 22.5-.001 5.012-.334 9.845-1 14.5h-1v-37Z" style="opacity:1"/>
  <path fill="#a6c1af" d="M2043.5 150.5c-.78 3.045-2.11 5.711-4 8 .4-3.221 1.73-5.888 4-8Z" style="opacity:1"/>
  <path fill="#f8c21e" d="M79.5 158.5c2.698.345 4.698 1.678 6 4a72.129 72.129 0 0 0-5.5 2l-1-2c-1.916 3.585-4.75 6.085-8.5 7.5a57.696 57.696 0 0 1-8.5 10.5c-.24 2.352-1.074 4.352-2.5 6-.342-.838-1.008-1.172-2-1-.734-1.208-1.067-2.541-1-4-.16-1.653-.826-2.986-2-4-1.767-2.292-2.767-4.958-3-8-.16-1.699.007-3.366.5-5a39.746 39.746 0 0 0 12.5-8.5c2.99-.847 4.324.32 4 3.5a49.367 49.367 0 0 1 11-1Z" style="opacity:1"/>
  <path fill="#7a9580" d="M273.5 159.5c-3.389 1.776-7.056 3.109-11 4-.929-1.189-1.262-2.522-1-4 1.333-.333 1.333-.667 0-1 .448-1.965 1.448-2.298 3-1-1.145 1.391-1.145 2.724 0 4a29.356 29.356 0 0 1 9-2Z" style="opacity:1"/>
  <path fill="#768e81" d="M191.5 158.5v2l-5 2c1.079-2.043 2.746-3.376 5-4Z" style="opacity:1"/>
  <path fill="#325d3a" d="M318.5 183.5c-1.449 2.357-3.449 4.191-6 5.5-6.053 1.868-12.053 2.701-18 2.5l-4 1c-1.255-2.141-2.922-2.807-5-2-.646-2.81-2.312-4.644-5-5.5l1-1a6.802 6.802 0 0 1-3-1.5c1.09-1.109 1.09-2.109 0-3-1.381.5-2.047 1.5-2 3 .543 1.364.71 2.697.5 4-2.147-.976-4.314-.809-6.5.5-.603 2.071-1.936 3.238-4 3.5 4.327-6.658 9.994-11.991 17-16 2.295-.636 3.961-1.969 5-4 2.143-1.631 3.81-3.631 5-6 2.016-.986 3.349-2.653 4-5 1.72 1.434 3.72 2.267 6 2.5l16 16c-.906 1.699-1.239 3.533-1 5.5Z" style="opacity:1"/>
  <path fill="#8eb199" d="M1569.5 155.5a1942.66 1942.66 0 0 0-1 120 934.583 934.583 0 0 1-2-69c.17-15.667.33-31.333.5-47 .2-1.82 1.03-3.153 2.5-4Z" style="opacity:1"/>
  <path fill="#19432e" d="M191.5 160.5c2.28 1.889 4.614 3.056 7 3.5-.466 1.299-.466 2.799 0 4.5a4.934 4.934 0 0 1 3 .5 102.18 102.18 0 0 1 6 7.5c-3.253 1.137-6.253 2.471-9 4a5.727 5.727 0 0 1-3 1 50.17 50.17 0 0 0-12.5 2c-1.681.108-2.848.775-3.5 2h-2a767.815 767.815 0 0 1-17 3.5c-.556.383-.889.883-1 1.5-1.208.734-2.541 1.067-4 1a12.93 12.93 0 0 1-5-.5 14.698 14.698 0 0 0 3-3.5c.762-1.762 2.096-2.762 4-3 2.249-.58 3.915-1.913 5-4 1.873-2.949 4.539-4.949 8-6 2.87-.933 5.204-2.6 7-5 0-.667.333-1 1-1 2.87-.933 5.204-2.6 7-5 0-.667.333-1 1-1l5-2Z" style="opacity:1"/>
  <path fill="#f5ce1a" d="M146.5 170.5a29.23 29.23 0 0 0-1 9c-1.112 2.099-1.779 4.433-2 7a104.618 104.618 0 0 1-1 9 24.942 24.942 0 0 1-5-8c-2.968-.126-4.968-1.626-6-4.5-16.124-11.597-31.791-10.93-47 2-11.184 11.463-14.35 24.963-9.5 40.5 4.44 8.864 11.106 15.531 20 20l1-1a130.027 130.027 0 0 0 11.5 4 60.674 60.674 0 0 0 18-4.5c1.167-.5 2-1.333 2.5-2.5 1.011.837 2.178 1.17 3.5 1a20.69 20.69 0 0 0-1 5c-1.574 1.602-2.241 3.602-2 6-.801 1.542-1.134 3.208-1 5 .172.992-.162 1.658-1 2-.768.763-1.268 1.763-1.5 3a3.647 3.647 0 0 0-1.5-1c-.613 1.48-.946 2.813-1 4a4.457 4.457 0 0 1-1.5-2 6.978 6.978 0 0 1-3.5 2.5c-5.215-.137-10.382.03-15.5.5-2.981.419-5.314-.581-7-3a12.935 12.935 0 0 0-.5 5c-.838-.342-1.172-1.008-1-2 .039-2.589-.961-4.589-3-6a31.686 31.686 0 0 1-2-6c-.6-3.521-1.933-6.521-4-9-2.448-.973-5.115-1.306-8-1-1.25-.077-2.083-.744-2.5-2-1.666.84-1.833.34-.5-1.5-.561-1.676-1.561-3.009-3-4 1.168-1.871.668-3.371-1.5-4.5a6.807 6.807 0 0 1-1.5 3l-1-.5c.966-2.933.966-5.599 0-8-2.333-3.427-3.5-2.927-3.5 1.5l-1-2c-.068-4.503-1.235-8.67-3.5-12.5 2.22-1.889 3.053-4.056 2.5-6.5a22.763 22.763 0 0 1 4-5c.667-2 .667-4 0-6-.67-.752-1.504-1.086-2.5-1a5.728 5.728 0 0 1-1-3 29.417 29.417 0 0 0-2-7c1.426-1.648 2.26-3.648 2.5-6 3.271-3.2 6.104-6.7 8.5-10.5 3.75-1.415 6.584-3.915 8.5-7.5l1 2a72.129 72.129 0 0 1 5.5-2 162.844 162.844 0 0 1 15 8 479.5 479.5 0 0 1 10-8 21.984 21.984 0 0 0 9-6c5.966.824 11.799 2.824 17.5 6a114.344 114.344 0 0 1 9.5 8Z" style="opacity:1"/>
  <path fill="#748d80" d="M185.5 163.5c-1.796 2.4-4.13 4.067-7 5 1.796-2.4 4.13-4.067 7-5Z" style="opacity:1"/>
  <path fill="#a2b4a7" d="M254.5 164.5h1c-2.419 2.362-5.419 3.362-9 3a647.542 647.542 0 0 1 8-3Z" style="opacity:1"/>
  <path fill="#9ebda9" d="M2158.5 163.5c2.46 4.234 3.79 8.9 4 14-1.93-4.388-3.27-9.055-4-14Z" style="opacity:1"/>
  <path fill="#607e6b" d="M224.5 170.5c.528-1.347.695-2.681.5-4-.816 1.323-1.983 1.989-3.5 2a16.332 16.332 0 0 1 2-4c1 1.333 2 1.333 3 0l1 1c-.457 2.098-1.457 3.764-3 5Z" style="opacity:1"/>
  <path fill="#fbdd75" d="M148.5 166.5c-.477 4.571-1.477 8.904-3 13a29.23 29.23 0 0 1 1-9c.16-1.653.826-2.986 2-4Z" style="opacity:1"/>
  <path fill="#99b9a3" d="M2000.5 165.5a80.03 80.03 0 0 1-2 11h-1c.13-4.025 1.13-7.691 3-11Z" style="opacity:1"/>
  <path fill="#7c9488" d="M177.5 169.5c-1.796 2.4-4.13 4.067-7 5 1.796-2.4 4.13-4.067 7-5Z" style="opacity:1"/>
  <path fill="#a6b7ad" d="M217.5 171.5c-.473 1.406-1.473 2.073-3 2 .473-1.406 1.473-2.073 3-2Z" style="opacity:1"/>
  <path fill="#91a698" d="M239.5 169.5c-4.915 2.192-10.082 3.859-15.5 5-.765-1.566-.598-2.899.5-4 .12 1.086.787 1.753 2 2a61.272 61.272 0 0 1 13-3Z" style="opacity:1"/>
  <path fill="#95ac9a" d="M288.5 170.5c-1.039 2.031-2.705 3.364-5 4 1.079-2.043 2.746-3.376 5-4Z" style="opacity:1"/>
  <path fill="#649473" d="M1171.5 151.5c1.75 2.855 2.58 6.189 2.5 10 .9 18.861.4 37.528-1.5 56 .25-22.017-.08-44.017-1-66Z" style="opacity:1"/>
  <path fill="#f4d71b" d="M142.5 195.5a566.068 566.068 0 0 0 4 16.5 876.733 876.733 0 0 0-4.5 16.5c-4.09 3.592-6.923 7.592-8.5 12-.992-.172-1.658.162-2 1v1c-1.322.17-2.489-.163-3.5-1-.5 1.167-1.333 2-2.5 2.5a60.674 60.674 0 0 1-18 4.5 130.027 130.027 0 0 1-11.5-4l-1 1c-8.894-4.469-15.56-11.136-20-20-4.85-15.537-1.684-29.037 9.5-40.5 15.209-12.93 30.876-13.597 47-2 1.032 2.874 3.032 4.374 6 4.5a24.942 24.942 0 0 0 5 8Z" style="opacity:1"/>
  <path fill="#619170" d="M1735.5 174.5c-14.96 1.984-30.3 2.651-46 2h-17c20.83-1.162 41.83-1.829 63-2Z" style="opacity:1"/>
  <path fill="#87ab91" d="M1743.5 174.5c1.04-1.291 2.21-1.291 3.5 0 .78 1.887.61 3.554-.5 5 .24-2.534-.76-4.2-3-5Z" style="opacity:1"/>
  <path fill="#9fb1a7" d="M211.5 175.5c-.473 1.406-1.473 2.073-3 2 .473-1.406 1.473-2.073 3-2Z" style="opacity:1"/>
  <path fill="#86ac93" d="M793.5 175.5c-5.774 1.446-11.774 2.112-18 2 5.774-1.446 11.774-2.112 18-2Z" style="opacity:1"/>
  <path fill="#699879" d="M1337.5 175.5c-5.07 1.73-10.4 2.73-16 3l3-2c4.31-.58 8.64-.914 13-1Z" style="opacity:1"/>
  <path fill="#196232" d="M1735.5 174.5h8c2.24.8 3.24 2.466 3 5v4c-.77.763-1.27 1.763-1.5 3a127.55 127.55 0 0 0-.5 16h-1c-14.99.555-29.99.889-45 1-9.68-.032-19.35.301-29 1h-17c-.48-5.24.18-10.24 2-15a45.62 45.62 0 0 1-1-12c12.18.328 24.18-.005 36-1 15.7.651 31.04-.016 46-2Z" style="opacity:1"/>
  <path fill="#b1c9b9" d="m1324.5 176.5-3 2c-3.36.116-6.69.449-10 1 4.04-1.737 8.38-2.737 13-3Z" style="opacity:1"/>
  <path fill="#fde8ab" d="M54.5 177.5c1.174 1.014 1.84 2.347 2 4-1.604-.787-2.27-2.12-2-4Z" style="opacity:1"/>
  <path fill="#92b49f" d="M775.5 177.5c-2.773 1.157-5.773 1.824-9 2 2.671-1.618 5.671-2.285 9-2Z" style="opacity:1"/>
  <path fill="#92b49c" d="M1807.5 170.5c1.29 3.767 1.96 7.767 2 12-1.75-3.683-2.42-7.683-2-12Z" style="opacity:1"/>
  <path fill="#538864" d="M1532.5 169.5c1.33 7.47 2 15.304 2 23.5.16 12.037-.5 23.87-2 35.5v-59Z" style="opacity:1"/>
  <path fill="#789085" d="M162.5 180.5c-1.085 2.087-2.751 3.42-5 4 1.085-2.087 2.751-3.42 5-4Z" style="opacity:1"/>
  <path fill="#4d845e" d="M1768.5 176.5c.62.111 1.12.444 1.5 1 .56 6.335 1.06 12.668 1.5 19h-1a102.243 102.243 0 0 1-2-20Z" style="opacity:1"/>
  <path fill="#fbedad" d="M145.5 179.5c.329 2.728-.337 5.062-2 7 .221-2.567.888-4.901 2-7Z" style="opacity:.949"/>
  <path fill="#f3dc1d" d="M107.5 181.5c3.738 1.652 7.738 2.819 12 3.5a143.68 143.68 0 0 0 12 7l-1 1c7.311 8.909 9.645 19.076 7 30.5h-4a10.098 10.098 0 0 1-1.5 6c-2.513 1.348-4.347 3.348-5.5 6-8.233 4.257-17.233 5.424-27 3.5a10.756 10.756 0 0 1-3-2.5l-2 1-3.5-5-1 1c-.833-2.833-2.667-4.667-5.5-5.5l1-1a6.977 6.977 0 0 1-2.5-3.5 47.206 47.206 0 0 0-3.5-12c1.8-5.365 3.466-11.032 5-17h3c-.262-1.478.071-2.811 1-4 6.099-3.83 12.432-6.83 19-9Z" style="opacity:1"/>
  <path fill="#6d877a" d="M195.5 181.5c-5.071 1.935-10.405 3.268-16 4 .652-1.225 1.819-1.892 3.5-2a50.17 50.17 0 0 1 12.5-2Z" style="opacity:1"/>
  <path fill="#84ab91" d="M759.5 180.5c-4.691 2.091-9.691 3.424-15 4 4.614-2.33 9.614-3.664 15-4Z" style="opacity:1"/>
  <path fill="#5e906e" d="M2162.5 179.5c.62.111 1.12.444 1.5 1 .17 6 .33 12 .5 18 0 6.372-.67 12.372-2 18a174.664 174.664 0 0 0 0-37Z" style="opacity:1"/>
  <path fill="#629271" d="M1310.5 179.5c-.65 1.225-1.82 1.892-3.5 2-6.63.824-13.13 2.157-19.5 4 7.15-3.504 14.82-5.504 23-6Z" style="opacity:1"/>
  <path fill="#fce28c" d="M57.5 185.5c.992-.172 1.658.162 2 1a29.417 29.417 0 0 1 2 7c-1.843-2.353-3.177-5.02-4-8Z" style="opacity:1"/>
  <path fill="#87ad93" d="M740.5 185.5c-2.398 2.474-5.398 3.808-9 4 2.588-2.092 5.588-3.425 9-4Z" style="opacity:1"/>
  <path fill="#74a082" d="M1208.5 166.5v125c-.92-29.831-1.59-59.831-2-90-.2-11.875.46-23.541 2-35Z" style="opacity:1"/>
  <path fill="#859c91" d="M177.5 185.5c-5.547 2.89-11.547 4.556-18 5 .111-.617.444-1.117 1-1.5a767.815 767.815 0 0 0 17-3.5Z" style="opacity:1"/>
  <path fill="#77a185" d="M1286.5 185.5c-2.55 2.084-5.55 3.417-9 4 2.55-2.084 5.55-3.417 9-4Z" style="opacity:1"/>
  <path fill="#afc8b7" d="M2037.5 168.5a153.531 153.531 0 0 0-3 39c-1.45-11.897-1.12-23.897 1-36 .14-1.53.81-2.53 2-3Z" style="opacity:1"/>
  <path fill="#275234" d="M290.5 192.5a9.108 9.108 0 0 1-5-1 22.484 22.484 0 0 0-4 5h-1c-4.535.637-8.868 1.637-13 3a17.758 17.758 0 0 1-7-1.5c.752-.671 1.086-1.504 1-2.5 1.333-2 3-3.667 5-5 2.064-.262 3.397-1.429 4-3.5 2.186-1.309 4.353-1.476 6.5-.5.21-1.303.043-2.636-.5-4-.047-1.5.619-2.5 2-3 1.09.891 1.09 1.891 0 3a6.802 6.802 0 0 0 3 1.5l-1 1c2.688.856 4.354 2.69 5 5.5 2.078-.807 3.745-.141 5 2Z" style="opacity:1"/>
  <path fill="#5b8e6c" d="M1809.5 183.5c1.36 4.132 2.36 8.465 3 13-1.15-.291-1.82-1.124-2-2.5a40.75 40.75 0 0 1-1-10.5Z" style="opacity:1"/>
  <path fill="#738b81" d="M153.5 187.5a14.698 14.698 0 0 1-3 3.5 12.93 12.93 0 0 0 5 .5c-3.117 1.948-6.451 2.614-10 2a34.666 34.666 0 0 1 8-6Z" style="opacity:1"/>
  <path fill="#5c7d64" d="m290.5 192.5 4-1c-3.843 2.62-8.176 4.287-13 5a22.484 22.484 0 0 1 4-5 9.108 9.108 0 0 0 5 1Z" style="opacity:1"/>
  <path fill="#749f81" d="M729.5 190.5c-.986 1.908-2.652 2.908-5 3 1.159-1.75 2.826-2.75 5-3Z" style="opacity:1"/>
  <path fill="#f3e31f" d="M107.5 187.5c3.705 1.683 7.705 2.516 12 2.5 1.439.991 2.439 2.324 3 4a8.43 8.43 0 0 0 4 .5 37.718 37.718 0 0 0 4 10c-.318 1.147-.984 1.981-2 2.5 1.26 1.113 2.427 1.28 3.5.5a12.494 12.494 0 0 1 0 7 3.647 3.647 0 0 0-1.5-1 71.534 71.534 0 0 1-8 13c1.187.054 2.52.387 4 1a36.308 36.308 0 0 0-7 4v-3c-6.667 4-13.333 4-20 0l-1 .5c2.112.906 2.945 2.406 2.5 4.5-2.43-2.857-5.43-4.857-9-6a29.465 29.465 0 0 0-2.5-4.5 7.292 7.292 0 0 0 3-2c-1.35-.772-2.182-1.939-2.5-3.5a62.687 62.687 0 0 0-1.5-11 47.029 47.029 0 0 0-.5 10c-2.39-4.118-2.89-8.452-1.5-13a3.647 3.647 0 0 1 1.5 1 14.439 14.439 0 0 1 2.5-5.5c.95-.617 1.782-.451 2.5.5 1.73-2.117 3.898-3.617 6.5-4.5-1.585-.085-2.918-.251-4-.5a14.962 14.962 0 0 0 3-3.5c3.451-.747 3.784-.08 1 2 2.205.154 4.205-.512 6-2l-3-1c2.153-.099 3.819-.933 5-2.5Z" style="opacity:1"/>
  <path fill="#91b39c" d="M510.5 190.5c1.424 2.015 2.09 4.348 2 7-1.663-1.938-2.329-4.272-2-7Z" style="opacity:1"/>
  <path fill="#7aa487" d="M1037.5 157.5c.72.418 1.22 1.084 1.5 2 .67 21.333.67 42.667 0 64-.18 3.525-.68 6.859-1.5 10a859.944 859.944 0 0 0 0-76Z" style="opacity:1"/>
  <path fill="#568a66" d="M1997.5 176.5h1a333.949 333.949 0 0 0 0 51h-1c-2.6-16.955-2.6-33.955 0-51Z" style="opacity:1"/>
  <path fill="#8baf97" d="M1746.5 183.5c-.09 6.537-.75 12.87-2 19-.17-5.344 0-10.677.5-16 .23-1.237.73-2.237 1.5-3Z" style="opacity:1"/>
  <path fill="#659573" d="M724.5 193.5c-2.418 3.047-5.418 5.38-9 7 2.379-3.035 5.379-5.369 9-7Z" style="opacity:1"/>
  <path fill="#fbe788" d="M145.5 196.5c2.382.851 4.382 2.184 6 4-2.767-.37-4.767-1.704-6-4Z" style="opacity:1"/>
  <path fill="#a2b4a8" d="M280.5 196.5c-3.99 2.087-8.323 3.42-13 4v-1c4.132-1.363 8.465-2.363 13-3Z" style="opacity:.051"/>
  <path fill="#597863" d="M261.5 195.5c.086.996-.248 1.829-1 2.5a17.758 17.758 0 0 0 7 1.5v1a34.54 34.54 0 0 0-11.5 4l-1.5-1.5a25.122 25.122 0 0 1 7-7.5Z" style="opacity:1"/>
  <path fill="#568a66" d="M1344.5 199.5v1c-4.3.7-8.63 1.033-13 1 .11-.617.44-1.117 1-1.5 3.99-.499 7.99-.666 12-.5Z" style="opacity:1"/>
  <path fill="#f5cf1a" d="M142.5 195.5a5.727 5.727 0 0 1 3 1c1.233 2.296 3.233 3.63 6 4l2 1c1.918 2.638 4.585 4.305 8 5a5.727 5.727 0 0 1 3 1c.077 1.25.744 2.083 2 2.5-2.14 1.241-2.473 2.907-1 5a150.709 150.709 0 0 0-1.5 10.5 42.867 42.867 0 0 0-4.5 12c-3.053-.389-5.72.277-8 2-6.009.201-12.009.534-18 1 1.577-4.408 4.41-8.408 8.5-12a876.733 876.733 0 0 1 4.5-16.5 566.068 566.068 0 0 1-4-16.5Z" style="opacity:1"/>
  <path fill="#649575" d="M1268.5 194.5c-2.3 3.215-5.3 5.548-9 7a24.203 24.203 0 0 1 9-7Z" style="opacity:1"/>
  <path fill="#96b7a0" d="M783.5 201.5c-6.058 2.07-12.392 3.404-19 4 5.95-2.498 12.284-3.831 19-4Z" style="opacity:1"/>
  <path fill="#fae27b" d="M153.5 201.5c3.04 1.18 5.706 2.847 8 5-3.415-.695-6.082-2.362-8-5Z" style="opacity:1"/>
  <path fill="#558a66" d="M1672.5 176.5h17c-11.82.995-23.82 1.328-36 1a45.62 45.62 0 0 0 1 12c-1.82 4.76-2.48 9.76-2 15h17v1h-18v-10a86.567 86.567 0 0 1 1-18c6.63-.997 13.3-1.33 20-1Z" style="opacity:1"/>
  <path fill="#9cbba6" d="M1770.5 196.5h1a43.188 43.188 0 0 1 2 11c-1.76-3.354-2.76-7.021-3-11Z" style="opacity:1"/>
  <path fill="#afc8b8" d="M1743.5 202.5c-14.8 1.59-29.8 2.256-45 2v-1c15.01-.111 30.01-.445 45-1Z" style="opacity:1"/>
  <path fill="#85ab91" d="M1324.5 202.5a188.488 188.488 0 0 1-17 4c.73-1.545 2.06-2.378 4-2.5a49.54 49.54 0 0 1 13-1.5Z" style="opacity:1"/>
  <path fill="#86ac92" d="M1344.5 200.5v-1h28c-.33 13.51 0 26.844 1 40 .17 6.675 0 13.342-.5 20-.67.752-1.5 1.086-2.5 1 1.47-1.659 2.14-3.659 2-6a790.477 790.477 0 0 1-1-54h-27Z" style="opacity:1"/>
  <path fill="#3f7b53" d="M1350.5 199.5c7.48-.992 15.15-1.325 23-1v41c-1-13.156-1.33-26.49-1-40h-22Z" style="opacity:1"/>
  <path fill="#99b9a4" d="M1698.5 203.5v1c-9.61.949-19.28 1.282-29 1v-1c9.65-.699 19.32-1.032 29-1Z" style="opacity:1"/>
  <path fill="#bbd0c2" d="M1651.5 195.5v10h9c-3.12.979-6.46 1.313-10 1-.31-3.871.02-7.538 1-11Z" style="opacity:.774"/>
  <path fill="#538761" d="M758.5 207.5a120.431 120.431 0 0 1-13 7 12.93 12.93 0 0 1 .5-5 3.943 3.943 0 0 0 2 1c3.075-2.431 6.575-3.431 10.5-3Z" style="opacity:1"/>
  <path fill="#aec7b6" d="M1303.5 207.5c-1.16 1.75-2.83 2.75-5 3 .99-1.908 2.65-2.908 5-3Z" style="opacity:.263"/>
  <path fill="#8bae96" d="M471.5 204.5c2.27 3.474 3.603 7.474 4 12-1.905-3.715-3.238-7.715-4-12Z" style="opacity:1"/>
  <path fill="#fbdf7d" d="M59.5 207.5c-1.41 2.414-3.41 4.081-6 5 1.41-2.414 3.41-4.081 6-5Z" style="opacity:1"/>
  <path fill="#90b39c" d="M515.5 206.5c1.745 1.533 2.745 3.533 3 6-1.745-1.533-2.745-3.533-3-6Z" style="opacity:1"/>
  <path fill="#ed776d" d="M309.5 216.5a28.789 28.789 0 0 0-10-2c.12-1.086.787-1.753 2-2 3.002.834 5.668 2.167 8 4Z" style="opacity:1"/>
  <path fill="#e33d32" d="M299.5 214.5c3.473.076 6.806.742 10 2l2 1c2.435 2.391 5.435 4.058 9 5h1c2.675 2.671 6.008 4.338 10 5-.086.996.248 1.829 1 2.5 3.572.392 6.239 2.059 8 5 1.435-.311 2.768-.145 4 .5.886.825 1.219 1.825 1 3-1.406.473-2.073 1.473-2 3-1.945 4.236-4.612 7.903-8 11-1.406.473-2.073 1.473-2 3a34.832 34.832 0 0 1-7 7c-.028-2.082.639-3.916 2-5.5-4.915-1.72-7.748-4.553-8.5-8.5-6.129-4.956-10.796-10.956-14-18a51.532 51.532 0 0 1-8-9c-1.468 1.536-2.968 1.87-4.5 1 .238-1.904 1.238-3.238 3-4s2.762-2.096 3-4Z" style="opacity:1"/>
  <path fill="#b8cebf" d="M1292.5 213.5c-.47 1.406-1.47 2.073-3 2 .47-1.406 1.47-2.073 3-2Z" style="opacity:.051"/>
  <path fill="#609270" d="M1451.5 153.5c1.33 13.65 2 27.65 2 42 0 14.171-.33 28.171-1 42 .1-28.007-.24-56.007-1-84Z" style="opacity:1"/>
  <path fill="#f7c51d" d="M62.5 196.5c.996-.086 1.83.248 2.5 1 .667 2 .667 4 0 6a22.763 22.763 0 0 0-4 5c.553 2.444-.28 4.611-2.5 6.5 2.265 3.83 3.432 7.997 3.5 12.5l1 2c0-4.427 1.167-4.927 3.5-1.5.966 2.401.966 5.067 0 8l1 .5a6.807 6.807 0 0 0 1.5-3c2.168 1.129 2.668 2.629 1.5 4.5 1.439.991 2.439 2.324 3 4-1.333 1.84-1.166 2.34.5 1.5.417 1.256 1.25 1.923 2.5 2a367.466 367.466 0 0 1-29 3c-3.149-6.602-5.649-13.602-7.5-21l-1-1c-.816 1.323-1.983 1.989-3.5 2a151.064 151.064 0 0 1 18-16c2.59-.919 4.59-2.586 6-5a1833.76 1833.76 0 0 1 5-6 16.062 16.062 0 0 1-2-5Z" style="opacity:1"/>
  <path fill="#f49f98" d="M299.5 214.5c-.238 1.904-1.238 3.238-3 4 .238-1.904 1.238-3.238 3-4Z" style="opacity:1"/>
  <path fill="#f8c01f" d="m164.5 207.5 16 10c.077 1.25.744 2.083 2 2.5-.696 4.103-1.696 8.436-3 13 .752.671 1.086 1.504 1 2.5a166.607 166.607 0 0 0-16 3h-2a49.369 49.369 0 0 0-11 1c2.28-1.723 4.947-2.389 8-2a42.867 42.867 0 0 1 4.5-12c.377-3.519.877-7.019 1.5-10.5-1.473-2.093-1.14-3.759 1-5-1.256-.417-1.923-1.25-2-2.5Z" style="opacity:1"/>
  <path fill="#49805a" d="M708.5 207.5a258.802 258.802 0 0 1-10 19c-.683.363-1.35.696-2 1 1.988-7.963 5.988-14.63 12-20Z" style="opacity:1"/>
  <path fill="#7da68b" d="M1407.5 189.5a824.851 824.851 0 0 0 0 78c-.79-1.109-1.29-2.442-1.5-4-.67-22-.67-44 0-66 .18-2.865.68-5.531 1.5-8Z" style="opacity:1"/>
  <path fill="#ee867e" d="M311.5 217.5c3.492.91 6.492 2.576 9 5-3.565-.942-6.565-2.609-9-5Z" style="opacity:1"/>
  <path fill="#598b66" d="M745.5 214.5a57.51 57.51 0 0 0-9 9v-5a4.934 4.934 0 0 0 3-.5l-1-1 3-1c-1.211-.893-1.211-1.726 0-2.5a6.846 6.846 0 0 0 4 1Z" style="opacity:1"/>
  <path fill="#4b815b" d="M520.5 217.5a5741.144 5741.144 0 0 1 11 16c-1.644.214-3.144-.12-4.5-1 .966-3.593-.534-5.927-4.5-7a3.647 3.647 0 0 1 1-1.5c-2.338-1.508-3.338-3.675-3-6.5Z" style="opacity:1"/>
  <path fill="#7da589" d="M2200.5 216.5c-.42 7.105-2.08 13.772-5 20 1.43-6.844 3.1-13.511 5-20Z" style="opacity:1"/>
  <path fill="#80a78c" d="M1246.5 217.5c-.4 3.221-1.73 5.888-4 8 .4-3.221 1.73-5.888 4-8Z" style="opacity:1"/>
  <path fill="#fed890" d="M189.5 222.5c3.04 1.18 5.706 2.847 8 5-3.415-.695-6.082-2.362-8-5Z" style="opacity:1"/>
  <path fill="#8aae95" d="M1774.5 211.5c2.2 3.911 3.87 8.245 5 13-2.62-3.843-4.29-8.176-5-13Z" style="opacity:1"/>
  <path fill="#f9b627" d="M180.5 217.5a59.043 59.043 0 0 1 9 5c1.918 2.638 4.585 4.305 8 5l2 1c1.142 1.933 2.808 3.433 5 4.5-.916.278-1.582.778-2 1.5a19.22 19.22 0 0 1-6 1h-16c.086-.996-.248-1.829-1-2.5 1.304-4.564 2.304-8.897 3-13-1.256-.417-1.923-1.25-2-2.5Z" style="opacity:1"/>
  <path fill="#689675" d="M1779.5 224.5c2.21 3.228 3.87 6.895 5 11-2.61-3.145-4.28-6.811-5-11Z" style="opacity:1"/>
  <path fill="#f0958f" d="M321.5 222.5c3.647 1.157 6.98 2.823 10 5-3.992-.662-7.325-2.329-10-5Z" style="opacity:1"/>
  <path fill="#acc7b6" d="M1281.5 223.5c.07 1.527-.59 2.527-2 3-.07-1.527.59-2.527 2-3Z" style="opacity:1"/>
  <path fill="#f38074" d="M293.5 222.5c-.667 2.667-2.333 4.333-5 5 1.333-2 3-3.667 5-5Z" style="opacity:1"/>
  <path fill="#a0bda9" d="M735.5 224.5c-.826 2.985-2.159 5.651-4 8 .294-3.254 1.627-5.921 4-8Z" style="opacity:1"/>
  <path fill="#fcc972" d="M199.5 228.5c3.159 1.082 5.826 2.916 8 5.5a12.93 12.93 0 0 1-5 .5c.418-.722 1.084-1.222 2-1.5-2.192-1.067-3.858-2.567-5-4.5Z" style="opacity:1"/>
  <path fill="#a1beaa" d="M477.5 223.5c2.635 1.839 3.968 4.506 4 8-1.843-2.353-3.177-5.02-4-8Z" style="opacity:1"/>
  <path fill="#f68477" d="M288.5 227.5c-1 3-3 5-6 6a25.658 25.658 0 0 1 6-6Z" style="opacity:1"/>
  <path fill="#558965" d="M2034.5 209.5a692.685 692.685 0 0 1 5 23c-.62.111-1.12.444-1.5 1a115.368 115.368 0 0 1-3.5-24Z" style="opacity:1"/>
  <path fill="#fdd683" d="M34.5 229.5c-1.085 2.087-2.751 3.42-5 4 1.085-2.087 2.751-3.42 5-4Z" style="opacity:1"/>
  <path fill="#e66c60" d="M331.5 227.5a89.689 89.689 0 0 1 16 8c-.442 1.239-1.109 2.239-2 3 .219-1.175-.114-2.175-1-3-1.232-.645-2.565-.811-4-.5-1.761-2.941-4.428-4.608-8-5-.752-.671-1.086-1.504-1-2.5Z" style="opacity:1"/>
  <path fill="#8fb19a" d="M1278.5 228.5a79.149 79.149 0 0 1-4 12c-.03-4.579 1.3-8.579 4-12Z" style="opacity:1"/>
  <path fill="#87ad93" d="M531.5 233.5c2.087 1.085 3.42 2.751 4 5-2.087-1.085-3.42-2.751-4-5Z" style="opacity:1"/>
  <path fill="#9bbaa5" d="M1997.5 227.5h1c.8 3.976 1.46 7.976 2 12-2.23-3.576-3.23-7.576-3-12Z" style="opacity:1"/>
  <path fill="#f38175" d="M282.5 233.5c-1.285 1.952-2.951 3.618-5 5h-1c1.391-2.39 3.391-4.057 6-5Z" style="opacity:1"/>
  <path fill="#60916f" d="M2162.5 219.5a883.636 883.636 0 0 1-3.5 18c-.42 1.256-1.25 1.923-2.5 2a218.465 218.465 0 0 1 6-20Z" style="opacity:1"/>
  <path fill="#b8cfc0" d="M861.5 176.5h1a3563.192 3563.192 0 0 0-1 72h-1c.067-24.005.4-48.005 1-72Z" style="opacity:1"/>
  <path fill="#fce19b" d="M180.5 235.5h16a386.62 386.62 0 0 1-32 3 166.607 166.607 0 0 1 16-3Z" style="opacity:1"/>
  <path fill="#92b49d" d="M1834.5 236.5c2.41 1.411 4.08 3.411 5 6-2.41-1.411-4.08-3.411-5-6Z" style="opacity:1"/>
  <path fill="#81a98e" d="M1785.5 238.5c2.3 1.233 3.63 3.233 4 6-1.82-1.618-3.15-3.618-4-6Z" style="opacity:1"/>
  <path fill="#f2b6b2" d="M345.5 238.5c.073 1.527-.594 2.527-2 3-.073-1.527.594-2.527 2-3Z" style="opacity:.42"/>
  <path fill="#faad27" d="M24.5 238.5v4c2.442-.146 3.11.687 2 2.5l3 2.5c-1.291 1.027-1.291 2.027 0 3-4.973.664-9.973.997-15 1a4.934 4.934 0 0 1-3-.5 54.547 54.547 0 0 0 6-6.5c1.74-2.743 4.073-4.743 7-6Z" style="opacity:1"/>
  <path fill="#ac2725" d="M162.5 238.5c.05 2.652 1.05 3.652 3 3a16.076 16.076 0 0 0 5 2c.992-.172 1.658.162 2 1 .6 1.4 1.6 2.4 3 3-4.208.785-4.542 1.618-1 2.5l-1 1c5.494 3.505 9.16 8.338 11 14.5 1.175-.219 2.175.114 3 1a791.968 791.968 0 0 0 32 40.5c3.986.499 7.986.666 12 .5v1h-19v-1c-3.716-.551-7.216-1.884-10.5-4a313.627 313.627 0 0 0-33-40l-3-6c-5.165-5.024-9.332-10.691-12.5-17a172.406 172.406 0 0 1-22 1c.342-.838 1.008-1.172 2-1a407.946 407.946 0 0 1 18-1 49.369 49.369 0 0 1 11-1Z" style="opacity:1"/>
  <path fill="#c15751" d="M162.5 238.5h2l6 5a16.076 16.076 0 0 1-5-2c-1.95.652-2.95-.348-3-3Z" style="opacity:1"/>
  <path fill="#80a78c" d="M536.5 239.5c2 1.333 3.667 3 5 5-2.667-.667-4.333-2.333-5-5Z" style="opacity:1"/>
  <path fill="#f9b721" d="M47.5 248.5v1a84.03 84.03 0 0 1-16 1h-2c-1.291-.973-1.291-1.973 0-3l-3-2.5c1.11-1.813.442-2.646-2-2.5v-4c.922-2.316 2.589-3.983 5-5 2.249-.58 3.915-1.913 5-4 0-.667.333-1 1-1 1.517-.011 2.684-.677 3.5-2l1 1c1.851 7.398 4.351 14.398 7.5 21Z" style="opacity:1"/>
  <path fill="#a22222" d="m212.5 307.5-18-1c-2.405-1.268-5.072-1.935-8-2-1.792.134-3.458-.199-5-1-4.72-4.426-10.387-7.259-17-8.5.845-1.558.179-2.558-2-3 .951-.718 1.117-1.551.5-2.5-2.543-3.2-5.709-5.7-9.5-7.5l2-3-5.5-3.5c-5.5-6.642-10.334-13.309-14.5-20-2.528 1.017-2.528 2.184 0 3.5l-1.5 1.5a17.808 17.808 0 0 0-3.5-5c-.788 1.27-1.788 2.27-3 3-.134-1.792.199-3.458 1-5 1.574-1.602 2.241-3.602 2-6a20.69 20.69 0 0 1 1-5v-1c7.362.135 14.696-.198 22-1 3.168 6.309 7.335 11.976 12.5 17l3 6a313.627 313.627 0 0 1 33 40c3.284 2.116 6.784 3.449 10.5 4Z" style="opacity:1"/>
  <path fill="#80a78d" d="M2194.5 240.5c-.58 3.447-1.92 6.447-4 9 .6-3.521 1.93-6.521 4-9Z" style="opacity:1"/>
  <path fill="#eb3e31" d="M326.5 262.5c-1.406.473-2.073 1.473-2 3-.79.901-1.79 1.568-3 2-3.437.052-6.437 1.219-9 3.5-1.537 1.11-2.203 2.61-2 4.5-1.689-1.431-3.689-2.264-6-2.5l2-1a107.638 107.638 0 0 1-10-11.5c-.925-1.141-1.759-1.141-2.5 0-.595-1.399-.428-2.732.5-4-3.791-2.129-6.457-5.296-8-9.5a4.934 4.934 0 0 0-3-.5 4.934 4.934 0 0 0-.5-3c-.667-1.333-1.333-1.333-2 0-.697-2.084-1.864-3.751-3.5-5 2.049-1.382 3.715-3.048 5-5 3-1 5-3 6-6 2.667-.667 4.333-2.333 5-5 1.532.87 3.032.536 4.5-1a51.532 51.532 0 0 0 8 9c3.204 7.044 7.871 13.044 14 18 .752 3.947 3.585 6.78 8.5 8.5-1.361 1.584-2.028 3.418-2 5.5Z" style="opacity:1"/>
  <path fill="#7ca489" d="M2156.5 239.5c.48 2.813-.52 4.813-3 6 .49-2.319 1.49-4.319 3-6Z" style="opacity:1"/>
  <path fill="#de3c30" d="M276.5 238.5h1c1.636 1.249 2.803 2.916 3.5 5 .667-1.333 1.333-1.333 2 0 .483.948.649 1.948.5 3a4.934 4.934 0 0 1 3 .5c1.543 4.204 4.209 7.371 8 9.5-.928 1.268-1.095 2.601-.5 4 .741-1.141 1.575-1.141 2.5 0a107.638 107.638 0 0 0 10 11.5l-2 1c2.311.236 4.311 1.069 6 2.5v2c-2.475 2.741-5.475 4.741-9 6-1.527-.073-2.527.594-3 2-1.527-.073-2.527.594-3 2-.79.901-1.79 1.568-3 2-1.88-.271-3.213.396-4 2-1.89.203-3.39-.463-4.5-2a532.67 532.67 0 0 0-27-34c-1.612-1.956-1.778-3.956-.5-6 2.813.475 4.813-.525 6-3a95.974 95.974 0 0 1 14-8Z" style="opacity:1"/>
  <path fill="#5c8d6a" d="M1839.5 242.5c2.71 2.343 5.37 4.677 8 7-2.06-1.433-4.39-2.1-7-2a20.643 20.643 0 0 0-1-5Z" style="opacity:1"/>
  <path fill="#fce38f" d="M76.5 245.5c2.885-.306 5.552.027 8 1a1309.736 1309.736 0 0 1-37 3v-1c9.838-.63 19.505-1.63 29-3Z" style="opacity:1"/>
  <path fill="#fbe480" d="M84.5 246.5c2.067 2.479 3.4 5.479 4 9-2.107-2.557-3.44-5.557-4-9Z" style="opacity:1"/>
  <path fill="#d4837f" d="M172.5 244.5c2.985.826 5.651 2.159 8 4a20.69 20.69 0 0 1-5-1c-1.4-.6-2.4-1.6-3-3Z" style="opacity:1"/>
  <path fill="#eb867c" d="M262.5 246.5c-1.187 2.475-3.187 3.475-6 3 1.681-1.508 3.681-2.508 6-3Z" style="opacity:1"/>
  <path fill="#639473" d="M696.5 227.5c-2.667 14.667-2.667 29.333 0 44-5.333-14.667-5.333-29.333 0-44Z" style="opacity:1"/>
  <path fill="#fcc265" d="M17.5 244.5a54.547 54.547 0 0 1-6 6.5 4.934 4.934 0 0 0 3 .5c-1.765.961-3.765 1.295-6 1 2.4-3.403 5.4-6.07 9-8Z" style="opacity:1"/>
  <path fill="#fde0af" d="M29.5 250.5h2c-6.083 1.654-12.416 2.654-19 3-1.545-.011-2.878-.344-4-1 2.235.295 4.235-.039 6-1a113.716 113.716 0 0 0 15-1Z" style="opacity:1"/>
  <path fill="#de9b99" d="M186.5 250.5a78.817 78.817 0 0 1 12 4h-2c-3.93-.135-7.264-1.468-10-4Z" style="opacity:1"/>
  <path fill="#abc6b4" d="M1793.5 250.5c1.41.473 2.07 1.473 2 3-1.41-.473-2.07-1.473-2-3Z" style="opacity:.686"/>
  <path fill="#467e57" d="M2039.5 232.5a533.013 533.013 0 0 0 11 23c-2.07 1.093-2.73.593-2-1.5-.95-.617-1.78-.451-2.5.5-1.43-2.502-1.6-5.002-.5-7.5a4.473 4.473 0 0 0-2-1.5 99.424 99.424 0 0 1-4-13Z" style="opacity:1"/>
  <path fill="#c56f1c" d="M130.5 247.5c.241 2.398-.426 4.398-2 6-.241-2.398.426-4.398 2-6Z" style="opacity:1"/>
  <path fill="#e99a94" d="M251.5 251.5c-2.952 1.91-6.286 2.91-10 3 2.952-1.91 6.286-2.91 10-3Z" style="opacity:1"/>
  <path fill="#d1362d" d="M256.5 249.5c-1.278 2.044-1.112 4.044.5 6a532.67 532.67 0 0 1 27 34c1.11 1.537 2.61 2.203 4.5 2-1.75 1.37-3.75 2.37-6 3a20.69 20.69 0 0 0-5 1 173.55 173.55 0 0 0-4-3c-1.333 1.333-2.667 1.333-4 0a33.242 33.242 0 0 0-3.5-6c-.741-1.141-1.575-1.141-2.5 0a39.41 39.41 0 0 1-7-13 4.934 4.934 0 0 1-3-.5l1-1c-2.223-.652-3.39-2.152-3.5-4.5a51.345 51.345 0 0 1-10.5-11.5c.556-.383.889-.883 1-1.5 3.714-.09 7.048-1.09 10-3 1.43-1.037 3.097-1.704 5-2Z" style="opacity:1"/>
  <path fill="#98b9a2" d="M2002.5 247.5c1.95 1.82 2.95 4.154 3 7-1.57-2.009-2.57-4.343-3-7Z" style="opacity:1"/>
  <path fill="#b22826" d="M175.5 247.5a20.69 20.69 0 0 0 5 1l6 2c2.736 2.532 6.07 3.865 10 4-.077 1.25-.744 2.083-2 2.5 1.453 2.114 3.453 3.448 6 4-1.017 1.049-1.184 2.216-.5 3.5 9.985 9.123 18.152 19.456 24.5 31 1.89-.203 3.39.463 4.5 2 .048 2.829 1.048 5.163 3 7 1.085-2.157 2.251-2.324 3.5-.5-2.119.342-2.453 1.175-1 2.5-1.291-.237-2.291.096-3 1a72.367 72.367 0 0 1-12-.5 791.968 791.968 0 0 1-32-40.5c-.825-.886-1.825-1.219-3-1-1.84-6.162-5.506-10.995-11-14.5l1-1c-3.542-.882-3.208-1.715 1-2.5Z" style="opacity:1"/>
  <path fill="#f6b5b1" d="M335.5 252.5c.073 1.527-.594 2.527-2 3-.073-1.527.594-2.527 2-3Z" style="opacity:.525"/>
  <path fill="#95b7a1" d="M1241.5 229.5c-2.64 13.318-2.64 26.652 0 40-1.43-1.648-2.26-3.648-2.5-6-2.52-11.729-1.69-23.063 2.5-34Z" style="opacity:1"/>
  <path fill="#83aa90" d="M2151.5 250.5c-.64 2.295-1.97 3.961-4 5 .62-2.254 1.96-3.921 4-5Z" style="opacity:1"/>
  <path fill="#9c2625" d="M181.5 303.5c-2.652.09-4.985-.576-7-2-1.602-1.574-3.602-2.241-6-2-7.21-1.941-13.876-4.941-20-9-.473-1.406-1.473-2.073-3-2a23.423 23.423 0 0 1-6-2.5 65.151 65.151 0 0 0-8-6.5c-.473-1.406-1.473-2.073-3-2-1-.333-1.667-1-2-2-1.306-.967-1.973-2.301-2-4 1.582-3.376 2.249-7.042 2-11 .838-.342 1.172-1.008 1-2 1.212-.73 2.212-1.73 3-3a17.808 17.808 0 0 1 3.5 5l1.5-1.5c-2.528-1.316-2.528-2.483 0-3.5 4.166 6.691 9 13.358 14.5 20l5.5 3.5-2 3c3.791 1.8 6.957 4.3 9.5 7.5.617.949.451 1.782-.5 2.5 2.179.442 2.845 1.442 2 3 6.613 1.241 12.28 4.074 17 8.5Z" style="opacity:1"/>
  <path fill="#8aaf96" d="M1274.5 251.5c1.45 2.754 2.45 5.754 3 9-2.36-2.419-3.36-5.419-3-9Z" style="opacity:1"/>
  <path fill="#3f784f" d="M2190.5 249.5c-2.08 6.498-5.41 12.165-10 17 1-2.982 1.16-5.982.5-9 1.51-2.457 2.85-2.457 4 0 .29-2.391.79-4.724 1.5-7 1.19-.929 2.52-1.262 4-1Z" style="opacity:1"/>
  <path fill="#d7746f" d="M203.5 255.5a116.405 116.405 0 0 0 30 0c-3.345 1.717-7.011 2.384-11 2-6.755.623-13.088-.044-19-2Z" style="opacity:1"/>
  <path fill="#78a285" d="M554.5 255.5c2.382.851 4.382 2.184 6 4-2.767-.37-4.767-1.704-6-4Z" style="opacity:1"/>
  <path fill="#76a183" d="M2006.5 256.5c2.39 2.435 4.06 5.435 5 9-2.42-2.508-4.09-5.508-5-9Z" style="opacity:1"/>
  <path fill="#bd2d2a" d="M196.5 254.5h2c1.792-.134 3.458.199 5 1 5.912 1.956 12.245 2.623 19 2 .97 1.129 2.136 2.129 3.5 3 1.011-.392 1.511-1.059 1.5-2 1.239 1.507.905 2.674-1 3.5a32.337 32.337 0 0 0 8 8.5c1.141.925 1.141 1.759 0 2.5 2.827 1.996 5.161 4.496 7 7.5.825.886 1.825 1.219 3 1-.285 1.788.048 3.455 1 5 3.524 2.695 6.358 6.029 8.5 10 2.55 3.692 6.05 5.358 10.5 5-3.7 1.745-7.7 2.745-12 3a193.59 193.59 0 0 1-18 2c-1.453-1.325-1.119-2.158 1-2.5-1.249-1.824-2.415-1.657-3.5.5-1.952-1.837-2.952-4.171-3-7-1.11-1.537-2.61-2.203-4.5-2-6.348-11.544-14.515-21.877-24.5-31-.684-1.284-.517-2.451.5-3.5-2.547-.552-4.547-1.886-6-4 1.256-.417 1.923-1.25 2-2.5Z" style="opacity:1"/>
  <path fill="#c6302b" d="M241.5 254.5c-.111.617-.444 1.117-1 1.5a51.345 51.345 0 0 0 10.5 11.5c.11 2.348 1.277 3.848 3.5 4.5l-1 1a4.934 4.934 0 0 0 3 .5 39.41 39.41 0 0 0 7 13c.925-1.141 1.759-1.141 2.5 0a33.242 33.242 0 0 1 3.5 6c1.333 1.333 2.667 1.333 4 0a173.55 173.55 0 0 1 4 3l-1 2a31.686 31.686 0 0 1-6 2c-2.398-.241-4.398.426-6 2-4.45.358-7.95-1.308-10.5-5-2.142-3.971-4.976-7.305-8.5-10-.952-1.545-1.285-3.212-1-5-1.175.219-2.175-.114-3-1-1.839-3.004-4.173-5.504-7-7.5 1.141-.741 1.141-1.575 0-2.5a32.337 32.337 0 0 1-8-8.5c1.905-.826 2.239-1.993 1-3.5.011.941-.489 1.608-1.5 2-1.364-.871-2.53-1.871-3.5-3 3.989.384 7.655-.283 11-2l8-1Z" style="opacity:1"/>
  <path fill="#7fa88d" d="M2051.5 255.5c1.39 1.399 2.39 3.066 3 5-2.26-.844-3.26-2.511-3-5Z" style="opacity:1"/>
  <path fill="#a8c3b1" d="M2146.5 257.5c.07 1.527-.59 2.527-2 3-.07-1.527.59-2.527 2-3Z" style="opacity:1"/>
  <path fill="#b6cdbc" d="M501.5 261.5c1.406.473 2.073 1.473 2 3-1.406-.473-2.073-1.473-2-3Z" style="opacity:.314"/>
  <path fill="#a0bea9" d="M564.5 261.5c2.831.579 5.164 1.912 7 4-2.831-.579-5.164-1.912-7-4Z" style="opacity:1"/>
  <path fill="#84ab91" d="M2054.5 260.5c2.41 1.411 4.08 3.411 5 6-2.41-1.411-4.08-3.411-5-6Z" style="opacity:1"/>
  <path fill="#fce7a0" d="M90.5 261.5c2.039 1.411 3.039 3.411 3 6-1.507-1.681-2.507-3.681-3-6Z" style="opacity:1"/>
  <path fill="#f7b1a9" d="M326.5 262.5c.073 1.527-.594 2.527-2 3-.073-1.527.594-2.527 2-3Z" style="opacity:.631"/>
  <path fill="#a7c3b0" d="M1865.5 261.5c2.63.972 4.96 2.305 7 4-3.12-.236-5.45-1.569-7-4Z" style="opacity:.102"/>
  <path fill="#77a285" d="M2144.5 260.5c-.58 2.249-1.91 3.915-4 5 .58-2.249 1.91-3.915 4-5Z" style="opacity:1"/>
  <path fill="#f7c01f" d="M126.5 260.5c.249 3.958-.418 7.624-2 11-1.685.684-2.685 2.017-3 4a11.988 11.988 0 0 1 1 6l-2 13-2 1c.935-2.613 1.102-5.279.5-8-1.87 1.243-4.036 1.91-6.5 2a23.256 23.256 0 0 1-6.5-1 18.453 18.453 0 0 0-.5 6c-.838-.342-1.172-1.008-1-2 .073-1.527-.594-2.527-2-3a91.688 91.688 0 0 0-4-10c.114-2.716-.886-4.716-3-6l-1-4c-.16-1.699.007-3.366.5-5 1.686 2.419 4.019 3.419 7 3 5.118-.47 10.285-.637 15.5-.5a6.978 6.978 0 0 0 3.5-2.5 4.457 4.457 0 0 0 1.5 2c.054-1.187.387-2.52 1-4a3.647 3.647 0 0 1 1.5 1c.232-1.237.732-2.237 1.5-3Z" style="opacity:1"/>
  <path fill="#86ac92" d="M503.5 264.5c3 1 5 3 6 6a25.658 25.658 0 0 1-6-6Z" style="opacity:1"/>
  <path fill="#7ea68b" d="M823.5 261.5c-1.302 2.322-3.302 3.655-6 4 1.647-1.826 3.647-3.16 6-4Z" style="opacity:1"/>
  <path fill="#a2c0ac" d="M1279.5 263.5a6.575 6.575 0 0 1 3 3c-2 0-3-1-3-3Z" style="opacity:1"/>
  <path fill="#95b6a0" d="M575.5 266.5c4.979 1.069 9.646 2.735 14 5a66.227 66.227 0 0 1-11-2.5c-1.442-.377-2.442-1.21-3-2.5Z" style="opacity:1"/>
  <path fill="#498059" d="M1370.5 260.5v3c-4.53-.407-7.2 1.593-8 6-1.25.54-2.41 1.207-3.5 2a18.169 18.169 0 0 0-3.5-2c-5.28 2.829-10.94 4.496-17 5v-1c11.5-2.386 22.16-6.719 32-13Z" style="opacity:1"/>
  <path fill="#80a88d" d="M676.5 266.5c-5.99 2.538-12.323 4.205-19 5 6.024-2.424 12.357-4.091 19-5Z" style="opacity:1"/>
  <path fill="#b0c9b8" d="M1284.5 268.5c1.53-.073 2.53.594 3 2-1.53.073-2.53-.594-3-2Z" style="opacity:1"/>
  <path fill="#87ac93" d="M1874.5 266.5c5.35.914 10.35 2.581 15 5-4.36-.839-8.69-1.839-13-3-1.21-.247-1.88-.914-2-2Z" style="opacity:1"/>
  <path fill="#9ab9a4" d="M1968.5 268.5c-3.35 1.758-7.02 2.758-11 3 3.35-1.758 7.02-2.758 11-3Z" style="opacity:1"/>
  <path fill="#f36958" d="M321.5 267.5a39.312 39.312 0 0 1-11 10v-2c-.203-1.89.463-3.39 2-4.5 2.563-2.281 5.563-3.448 9-3.5Z" style="opacity:1"/>
  <path fill="#82aa90" d="M509.5 270.5c2.249.58 3.915 1.913 5 4-2.249-.58-3.915-1.913-5-4Z" style="opacity:1"/>
  <path fill="#619270" d="M1073.5 172.5c.14 42.669.47 85.335 1 128h-2c-.33-42.837 0-85.503 1-128Z" style="opacity:1"/>
  <path fill="#709c7f" d="m1891.5 271.5 13 2v1c-4.72.126-9.05-.874-13-3Z" style="opacity:1"/>
  <path fill="#fde298" d="M95.5 273.5c2.114 1.284 3.114 3.284 3 6-1.37-1.75-2.37-3.75-3-6Z" style="opacity:1"/>
  <path fill="#9fbda9" d="M1293.5 272.5c7.1 1.422 14.1 2.755 21 4a55.984 55.984 0 0 1-20-2.5c-.56-.383-.89-.883-1-1.5Z" style="opacity:1"/>
  <path fill="#8db19a" d="M1949.5 272.5c-.76.768-1.76 1.268-3 1.5-3.32.498-6.65.665-10 .5 4.14-1.063 8.47-1.73 13-2Z" style="opacity:1"/>
  <path fill="#487f58" d="M2139.5 266.5a32.539 32.539 0 0 0-7 9.5c-2.31.497-4.64.663-7 .5 4.66-3.331 9.32-6.664 14-10Z" style="opacity:1"/>
  <path fill="#f7c862" d="M124.5 271.5c.027 1.699.694 3.033 2 4-1.874 1.582-3.207 3.582-4 6a11.988 11.988 0 0 0-1-6c.315-1.983 1.315-3.316 3-4Z" style="opacity:1"/>
  <path fill="#9fbda9" d="M597.5 272.5a171.697 171.697 0 0 0 52 0c-2.758 1.261-5.758 2.094-9 2.5a271.382 271.382 0 0 1-38.5-.5c-1.986-.069-3.486-.735-4.5-2Z" style="opacity:1"/>
  <path fill="#99b9a3" d="M746.5 272.5a463.911 463.911 0 0 1 22 4 70.924 70.924 0 0 1-21-2.5c-.556-.383-.889-.883-1-1.5Z" style="opacity:1"/>
  <path fill="#acc6b5" d="M793.5 273.5c-.418.722-1.084 1.222-2 1.5a118.124 118.124 0 0 1-19 1.5 199.346 199.346 0 0 1 21-3Z" style="opacity:1"/>
  <path fill="#b0c9b9" d="M1904.5 274.5v-1c10.64.845 21.31 1.179 32 1-10.51 1.221-21.18 1.221-32 0Z" style="opacity:1"/>
  <path fill="#3d774e" d="M2179.5 267.5c-2.56 4.57-5.9 8.57-10 12-4.13 4.477-8.8 8.144-14 11 .15-1.851.15-3.684 0-5.5 2.64-2.017 5.64-2.85 9-2.5.14-1.624-.53-2.79-2-3.5l1.5-1.5c1.91 2.494 3.75 2.327 5.5-.5-1.51-.837-2.01-2.004-1.5-3.5 1.36.88 2.86 1.214 4.5 1-.18-2.829 1.16-4.496 4-5-1.14-.925-1.14-1.759 0-2.5 1.25-.74 2.25-.573 3 .5Z" style="opacity:1"/>
  <path fill="#94b69f" d="M1242.5 273.5c2.09 1.836 3.42 4.169 4 7-2.09-1.836-3.42-4.169-4-7Z" style="opacity:1"/>
  <path fill="#adc7b6" d="M1338.5 273.5v1a102.6 102.6 0 0 1-21 2 296.839 296.839 0 0 1 21-3Z" style="opacity:1"/>
  <path fill="#9bbba6" d="M517.5 277.5c1.904.238 3.238 1.238 4 3-1.904-.238-3.238-1.238-4-3Z" style="opacity:1"/>
  <path fill="#75a183" d="m1979.5 273.5-1.5 21c-.21 1.558-.71 2.891-1.5 4-.11-8.612.89-16.946 3-25Z" style="opacity:1"/>
  <path fill="#d6a9a8" d="M128.5 277.5c1.527-.073 2.527.594 3 2-1.527.073-2.527-.594-3-2Z" style="opacity:1"/>
  <path fill="#97b7a2" d="M677.5 266.5c.06-.543.393-.876 1-1 1.041 10.226.374 20.226-2 30 .312-8.861.978-17.695 2-26.5-.028-1.07-.361-1.903-1-2.5Z" style="opacity:1"/>
  <path fill="#87ac93" d="M860.5 248.5h1a1129.648 1129.648 0 0 1 2 31c-.79-1.109-1.29-2.442-1.5-4-.7-8.993-1.2-17.993-1.5-27Z" style="opacity:1"/>
  <path fill="#b1c9b9" d="M699.5 278.5c1.406.473 2.073 1.473 2 3-1.406-.473-2.073-1.473-2-3Z" style="opacity:1"/>
  <path fill="#9ab9a4" d="M2077.5 277.5a321.18 321.18 0 0 1 16 4 74.17 74.17 0 0 1-12-1.5c-1.94-.122-3.27-.955-4-2.5Z" style="opacity:1"/>
  <path fill="#afc8b7" d="M2119.5 278.5c-4.65 2.131-9.65 3.131-15 3 4.8-1.361 9.8-2.361 15-3Z" style="opacity:.263"/>
  <path fill="#4b815a" d="M524.5 282.5a15.414 15.414 0 0 1 4.5 2c1.605-1.564 3.438-2.064 5.5-1.5a6.802 6.802 0 0 0-3 1.5c1.198.44 2.365.773 3.5 1 .366 1.952 1.199 3.618 2.5 5-4.843-1.918-9.177-4.584-13-8Z" style="opacity:1"/>
  <path fill="#82aa8f" d="M827.5 282.5c.709-.904 1.709-1.237 3-1 .057 6.351.39 12.685 1 19a170.052 170.052 0 0 1-4-18Z" style="opacity:1"/>
  <path fill="#f1aca5" d="M301.5 283.5c-.473 1.406-1.473 2.073-3 2 .473-1.406 1.473-2.073 3-2Z" style="opacity:1"/>
  <path fill="#b7cdbe" d="M826.5 283.5c-.473 1.406-1.473 2.073-3 2 .473-1.406 1.473-2.073 3-2Z" style="opacity:.525"/>
  <path fill="#f09f99" d="M298.5 285.5c-.473 1.406-1.473 2.073-3 2 .473-1.406 1.473-2.073 3-2Z" style="opacity:1"/>
  <path fill="#77a183" d="M707.5 288.5c2.589.919 4.589 2.586 6 5-2.589-.919-4.589-2.586-6-5Z" style="opacity:1"/>
  <path fill="#95b7a0" d="M1252.5 288.5c2.25.58 3.92 1.913 5 4-2.25-.58-3.92-1.913-5-4Z" style="opacity:1"/>
  <path fill="#d4a1a3" d="M145.5 288.5c1.527-.073 2.527.594 3 2-1.527.073-2.527-.594-3-2Z" style="opacity:1"/>
  <path fill="#aac6b3" d="M819.5 288.5c-.473 1.406-1.473 2.073-3 2 .473-1.406 1.473-2.073 3-2Z" style="opacity:1"/>
  <path fill="#f9b11a" d="M118.5 295.5a41.541 41.541 0 0 0-1 8c-2.511-.338-4.845-.338-7 0-1.316-3.053-2.983-5.719-5-8v-1a18.453 18.453 0 0 1 .5-6c2.075.634 4.241.968 6.5 1 2.464-.09 4.63-.757 6.5-2 .602 2.721.435 5.387-.5 8Z" style="opacity:1"/>
  <path fill="#efaaa6" d="M292.5 289.5c-1.014 1.174-2.347 1.84-4 2 .787-1.604 2.12-2.271 4-2Z" style="opacity:1"/>
  <path fill="#b4cbbb" d="M1373.5 282.5c1.89 2.488 2.55 5.488 2 9-1.16-2.773-1.82-5.773-2-9Z" style="opacity:.208"/>
  <path fill="#86ac92" d="M1834.5 288.5c2.47.255 4.47 1.255 6 3-2.47-.255-4.47-1.255-6-3Z" style="opacity:1"/>
  <path fill="#fde6b5" d="M102.5 289.5c1.406.473 2.073 1.473 2 3-1.406-.473-2.073-1.473-2-3Z" style="opacity:1"/>
  <path fill="#578b66" d="M537.5 290.5c3.88-.302 6.88 1.031 9 4-3.244-.963-6.244-2.296-9-4Z" style="opacity:1"/>
  <path fill="#99baa3" d="M816.5 290.5c-.473 1.406-1.473 2.073-3 2 .473-1.406 1.473-2.073 3-2Z" style="opacity:1"/>
  <path fill="#4a815a" d="M2155.5 290.5c-3.8 3.452-8.13 6.118-13 8a27.287 27.287 0 0 0 1.5-5c1.52 2.551 2.35 2.218 2.5-1 1.7.16 3.37-.006 5-.5-.95-.718-1.12-1.551-.5-2.5 1.36.88 2.86 1.214 4.5 1Z" style="opacity:1"/>
  <path fill="#eca8a4" d="M282.5 294.5c-1.681 1.508-3.681 2.508-6 3l1-2a20.69 20.69 0 0 1 5-1Z" style="opacity:1"/>
  <path fill="#739f81" d="M546.5 294.5c2.935.217 5.769.883 8.5 2 1.376.184 2.209.851 2.5 2-4.037-.565-7.703-1.899-11-4Z" style="opacity:1"/>
  <path fill="#467e56" d="M805.5 296.5c-7.684 4.345-16.017 7.011-25 8 4.251-1.971 8.918-3.305 14-4v-3a8.43 8.43 0 0 1-4-.5 21.4 21.4 0 0 0 7-2.5c1.588.51 2.755 1.51 3.5 3 1.356-.88 2.856-1.214 4.5-1Z" style="opacity:1"/>
  <path fill="#aec6b6" d="M810.5 294.5c-1.28 1.431-2.947 2.098-5 2 1.28-1.431 2.947-2.098 5-2Z" style="opacity:1"/>
  <path fill="#a2bfac" d="M1845.5 293.5c1.65.16 2.99.826 4 2-1.88.271-3.21-.396-4-2Z" style="opacity:1"/>
  <path fill="#5a8c69" d="M1849.5 295.5c4.62-.137 8.62 1.196 12 4-4.3-.735-8.3-2.068-12-4Z" style="opacity:1"/>
  <path fill="#578965" d="M1345.5 298.5c-4.45 3.034-9.45 4.701-15 5 1.34-1.293 3.01-2.126 5-2.5 1.13-1.016.8-1.683-1-2 3.48-.074 7.15-.24 11-.5Z" style="opacity:1"/>
  <path fill="#a4c1ae" d="M2140.5 299.5c-1.68 1.508-3.68 2.508-6 3 1.41-2.039 3.41-3.039 6-3Z" style="opacity:1"/>
  <path fill="#d29595" d="M168.5 299.5c2.398-.241 4.398.426 6 2-2.398.241-4.398-.426-6-2Z" style="opacity:1"/>
  <path fill="#edb9b6" d="M270.5 299.5c-1.602 1.574-3.602 2.241-6 2 1.602-1.574 3.602-2.241 6-2Z" style="opacity:.051"/>
  <path fill="#8cb098" d="M558.5 298.5c4.665.557 8.998 1.89 13 4-4.764-.269-9.097-1.602-13-4Z" style="opacity:1"/>
  <path fill="#7da68b" d="M865.5 295.5c3.32 4.669 1.987 6.669-4 6h-15c6.145-.99 12.478-1.323 19-1v-5Z" style="opacity:1"/>
  <path fill="#a1bfab" d="M901.5 245.5a4544.396 4544.396 0 0 1-2 55h38a400.456 400.456 0 0 0 1-40 420.766 420.766 0 0 1 1 41h-41a616.655 616.655 0 0 1 3-56Z" style="opacity:1"/>
  <path fill="#9dbca7" d="M1036.5 272.5c-.63 9.32-.96 18.654-1 28h39a420.797 420.797 0 0 1-41 1c.3-9.887 1.3-19.553 3-29Z" style="opacity:1"/>
  <path fill="#97b8a2" d="M1169.5 282.5v18h39c-13.16 1.16-26.49 1.327-40 .5a4.942 4.942 0 0 1-1-2.5c.57-5.488 1.24-10.821 2-16Z" style="opacity:1"/>
  <path fill="#acc6b5" d="M1268.5 299.5c1.65.16 2.99.826 4 2-1.88.271-3.21-.396-4-2Z" style="opacity:1"/>
  <path fill="#a1bfab" d="M1450.5 287.5v13h39a400.486 400.486 0 0 1-40 1c-.32-4.863.01-9.53 1-14Z" style="opacity:1"/>
  <path fill="#a0beaa" d="M1530.5 278.5v22h38a380.89 380.89 0 0 1-39 1c-.33-7.852.01-15.518 1-23Z" style="opacity:1"/>
  <path fill="#87ad93" d="M1971.5 300.5c-4.07 1.618-8.41 2.618-13 3 3.89-2.376 8.23-3.376 13-3Z" style="opacity:1"/>
  <path fill="#fddea4" d="M120.5 294.5c-.59 4.669-1.923 9.003-4 13-.067-1.459.266-2.792 1-4a41.541 41.541 0 0 1 1-8l2-1Z" style="opacity:1"/>
  <path fill="#79a386" d="M676.5 298.5c-1.342 1.293-3.009 2.126-5 2.5a147.133 147.133 0 0 1-19 3.5c7.707-2.629 15.707-4.629 24-6Z" style="opacity:1"/>
  <path fill="#8eb19a" d="M723.5 299.5c2.467.255 4.467 1.255 6 3-2.467-.255-4.467-1.255-6-3Z" style="opacity:1"/>
  <path fill="#a9c4b2" d="M831.5 300.5a61.281 61.281 0 0 0 15 1h15c-4.822.666-9.822.999-15 1-5.381-.006-10.381-.672-15-2Z" style="opacity:1"/>
  <path fill="#8cb098" d="M1410.5 291.5c1.08 3.127 1.75 6.46 2 10a427.937 427.937 0 0 1-36 1v-3c2.39 1.213 5.06 1.879 8 2a523.64 523.64 0 0 0 27-2 19.355 19.355 0 0 1-1-8Z" style="opacity:1"/>
  <path fill="#679676" d="M1861.5 299.5c3.66.452 7.33.952 11 1.5 1.99.374 3.66 1.207 5 2.5-5.71-.276-11.05-1.61-16-4Z" style="opacity:1"/>
  <path fill="#76a083" d="M2059.5 303.5c3.42.028 6.42 1.028 9 3-3.36-.19-6.36-1.19-9-3Z" style="opacity:1"/>
  <path fill="#daa5a6" d="M186.5 304.5c2.928.065 5.595.732 8 2-2.995.206-5.662-.46-8-2Z" style="opacity:1"/>
  <path fill="#9dbca8" d="M737.5 304.5a217.088 217.088 0 0 0 40 0c-.763.768-1.763 1.268-3 1.5a389.19 389.19 0 0 0-19 1.5c-6.273-.286-12.273-1.286-18-3Z" style="opacity:1"/>
  <path fill="#95b6a0" d="M1283.5 304.5c13 1.311 26 1.311 39 0-.76.768-1.76 1.268-3 1.5a115.995 115.995 0 0 1-34 0c-.92-.278-1.58-.778-2-1.5Z" style="opacity:1"/>
  <path fill="#9bbaa6" d="M1885.5 304.5c4.62-.344 8.96.323 13 2-4.6.22-8.93-.446-13-2Z" style="opacity:1"/>
  <path fill="#306f44" d="M2119.5 305.5c-2.13.814-4.46 1.314-7 1.5-.56.383-.89.883-1 1.5a168.537 168.537 0 0 1-31 .5c-4.24-.335-8.24-1.168-12-2.5 8.52.359 17.02 1.026 25.5 2 1.89-.285 3.22-1.285 4-3 .56.522 1.23.855 2 1 2.89-2.19 5.89-2.19 9 0 3.33-2.906 6.83-3.239 10.5-1Z" style="opacity:1"/>
  <path fill="#d28c8c" d="m194.5 306.5 18 1v1c-6.226.112-12.226-.554-18-2Z" style="opacity:1"/>
  <path fill="#e09d9c" d="M252.5 304.5c-6.669 2.384-13.669 3.717-21 4v-1c.709-.904 1.709-1.237 3-1a193.59 193.59 0 0 0 18-2Z" style="opacity:1"/>
  <path fill="#9cbba7" d="M649.5 304.5c-1.109.79-2.442 1.29-4 1.5-18.844 2.158-37.511 1.991-56-.5a322.454 322.454 0 0 0 60-1Z" style="opacity:1"/>
  <path fill="#a2bfac" d="M1949.5 304.5c-4.73 1.577-9.73 2.411-15 2.5-11.17.826-22.17.659-33-.5a385.15 385.15 0 0 0 48-2Z" style="opacity:1"/>
  <path fill="#86ac92" d="M2127.5 304.5c-4.93 2.458-10.26 3.792-16 4 .11-.617.44-1.117 1-1.5 2.54-.186 4.87-.686 7-1.5 2.71-.075 5.37-.408 8-1Z" style="opacity:1"/>
  <path fill="#fcba52" d="M105.5 295.5c2.017 2.281 3.684 4.947 5 8 2.155-.338 4.489-.338 7 0-.734 1.208-1.067 2.541-1 4 .396 2.982-.271 5.649-2 8a135.986 135.986 0 0 1-9-20Z" style="opacity:1"/>
</svg>
