<svg xmlns="http://www.w3.org/2000/svg" width="500" height="500">
  <path fill="#6fb6a8" fill-rule="evenodd" d="M220 1.2c-35.763 6.093-57.169 12.767-83 25.879C84.207 53.877 41.105 100.522 19.257 154.5c-7.458 18.423-15.209 45.535-13.93 48.719.289.719.553.403.602-.719.193-4.456 6.122-25.793 10.558-38C43.633 89.803 104.947 32.485 181.03 10.682c14.689-4.209 24.13-6.141 42.192-8.636C232.221.803 234.728.22 231 .237c-3.025.014-7.975.447-11 .963m51-.221c2.475.498 9.45 1.613 15.5 2.478 6.05.865 15.918 2.686 21.929 4.046 6.01 1.36 11.102 2.3 11.314 2.088 1.285-1.286-34.926-8.266-47.243-9.107-5.775-.395-5.831-.376-1.5.495m60.418 13.07c6.005 2.172 11.083 3.783 11.285 3.581.468-.467-19.452-7.647-21.028-7.579-.646.027 3.738 1.827 9.743 3.998M358.5 25.316c22.379 11.204 43.85 25.484 57.988 38.568 3.142 2.908 3.882 3.365 2 1.236-4.494-5.084-20.051-17.258-31.956-25.008-10.381-6.757-35.613-20.201-40.532-21.596-1.375-.39 4.25 2.67 12.5 6.8m63.51 42.76c.006.233 3.854 4.474 8.552 9.424 21.999 23.178 40.645 52.356 51.926 81.256 1.558 3.991 3.004 7.086 3.212 6.877.209-.209-.949-3.726-2.574-7.816-11.007-27.708-26.518-52.54-47.372-75.838-8.182-9.14-13.765-14.788-13.744-13.903M486 167.822c0 1.607 3.233 10.279 3.669 9.842.482-.482-2.653-10.664-3.284-10.664-.212 0-.385.37-.385.822m-66 9.535c-11.074 3.006-22.7 11.228-26.537 18.768-2.158 4.241-1.532 3.664 2.701-2.489C401.54 185.821 418.546 177 428.236 177c2.857 0 2.996.181 2.487 3.25-.973 5.87-4.643 14.164-8.466 19.134-4.726 6.142-10.193 10.08-18.361 13.224-3.518 1.353-5.046 2.192-3.396 1.864 9.418-1.875 18.775-8.566 24.549-17.553 3.257-5.07 6.951-14.942 6.951-18.576 0-2.053-.464-2.335-3.75-2.276-2.062.038-5.775.618-8.25 1.29M490.112 180c-.023.825.81 4.425 1.852 8 1.041 3.575 1.924 5.825 1.961 5 .037-.825-.797-4.425-1.852-8-1.056-3.575-1.939-5.825-1.961-5m-130.576 7.942c-1.192 1.928 3.638 13.901 7.363 18.253 2.038 2.381 6 5.261 9.543 6.937 5.167 2.445 7.161 2.841 13.558 2.693 4.733-.11 5.931-.316 3.247-.557-4.252-.383-4.252-.383-3.667-4.576.322-2.305.998-5.497 1.503-7.091 1.275-4.03 1.092-4.531-.583-1.601-.786 1.375-1.449 3.4-1.474 4.5-.027 1.195-.99-.029-2.393-3.041-1.291-2.772-3.874-6.332-5.74-7.91-6.523-5.515-19.74-10.223-21.357-7.607m1.066 2.808c1.053 4.527 4.1 10.993 6.93 14.703 3.058 4.01 13.361 9.547 17.764 9.547 2.968 0 2.974-.013 2.336-4.669-1.285-9.372-7.473-16.183-18.515-20.379-7.423-2.82-9.316-2.643-8.515.798m-200.144 2.5c-.263.688-.362 23.075-.218 49.75.26 48.5.26 48.5 5.26 48.5s5 0 5.286-9.142c.286-9.143.286-9.143 9.763-18.25 5.212-5.01 9.809-9.092 10.214-9.072.405.021 5.237 7.028 10.737 15.572C215.823 292.859 214.996 292 222.089 292c3.251 0 5.911-.419 5.911-.93 0-1.112-27.869-43.07-28.607-43.07-.689 0-.765-.12 13.607 21.5 6.947 10.45 12.965 19.563 13.374 20.25.558.938-.614 1.25-4.695 1.25-5.439 0-5.439 0-17.706-18.5-6.747-10.175-12.714-18.5-13.26-18.5-.546 0-5.43 4.359-10.853 9.687-9.86 9.687-9.86 9.687-9.86 18.5s0 8.813-4.5 8.813-4.5 0-4.5-49 0-49 2.918-49c6.439 0 6.082-2.004 6.082 34.107 0 18.091.266 32.893.59 32.893.325 0 9.812-8.957 21.084-19.904 21.533-20.915 23.001-21.911 30.168-20.478 3.204.641 3.204.641-10.146 13.762-7.342 7.216-10.44 10.42-6.883 7.12 3.557-3.3 7.229-6.675 8.16-7.5.931-.825 4.543-4.2 8.027-7.5 6.335-6 6.335-6 3.417-6.632-1.604-.347-4.883-.685-7.285-.75-4.369-.118-4.369-.118-25 20.328-20.632 20.446-20.632 20.446-20.896-12.2-.199-24.59-.569-32.839-1.5-33.43-1.98-1.258-8.751-.941-9.278.434M496.31 208c.316 1.925 1.129 7.09 1.806 11.478.678 4.388 1.42 7.413 1.651 6.721.486-1.459-2.608-20.397-3.46-21.176-.315-.288-.314 1.052.003 2.977M2.699 215.224C.053 239.171-.291 248.832.946 264.448c.7 8.828 1.654 18.077 2.122 20.552.834 4.417.841 4.399.401-1-2.503-30.744-2.622-37.235-1.01-55.153.896-9.951 1.447-18.274 1.225-18.496-.221-.222-.665 1.971-.985 4.873m99.49 3.568c-1.272.39 2.103.708 7.5.708 11.493 0 16.006 1.326 21.547 6.332 4.132 3.734 5.189 5.629 7.343 13.168.735 2.571 1.315 3.544 1.354 2.27.037-1.226-.692-4.151-1.62-6.5-4.25-10.757-12.414-15.97-25.705-16.414-4.459-.15-9.148.047-10.419.436m130.488-.115c-1.234.337-1.607 1.035-1.154 2.16.368.915 2.178 5.577 4.021 10.361 7.637 19.822 8.64 22.391 9.487 24.302.488 1.1 3.202 8.069 6.032 15.487 8.058 21.125 7.674 20.513 12.885 20.513 4.978 0 3.718 2.544 17.029-34.376 6.296-17.466 6.518-18.154 5.199-16.124-.536.825-4.617 11.536-9.068 23.802-4.452 12.267-8.563 23.179-9.136 24.25-.714 1.334-2.096 1.948-4.384 1.948-3.938 0-2.132 3.769-19.094-39.846-12.617-32.443-12.703-32.897-5.994-31.547 1.65.332 3.32.899 3.712 1.26.391.361 2.499 5.601 4.683 11.645 6.244 17.28 13.835 37.664 15.416 41.4 1.862 4.399 1.377 5.377 12.115-24.412 11.073-30.717 10.457-29.243 12.406-29.707 3.183-.757 4.8.301 6.105 3.994 5.482 15.518 16.46 44.149 16.798 43.811.229-.229-3.524-11.06-8.34-24.069-5.986-16.169-9.362-23.976-10.669-24.676-3.25-1.739-6.181-.257-7.639 3.863-1.62 4.578-10.47 28.825-13.061 35.784-1.023 2.75-2.64 7.153-3.592 9.784-.952 2.631-2.194 4.629-2.76 4.441-.943-.315-3.323-6.146-7.235-17.725-.836-2.475-2.128-5.85-2.87-7.5-.743-1.65-2.974-7.661-4.957-13.359-5.384-15.461-5.438-15.546-10.112-15.77-2.2-.106-4.821.032-5.823.306m101.526.578c-1.321 1.592-19.389 50.892-18.849 51.432.22.22 2.503-5.357 5.073-12.393 13.659-37.397 13.97-38.132 16.323-38.584 1.238-.238 3.409-.211 4.826.06 2.195.419 2.486.879 1.969 3.111-.455 1.967-.353 2.246.409 1.119 1.683-2.486 1.179-4.731-1.204-5.37-3.687-.988-7.436-.714-8.547.625m40.889.331c-9.935 2.671-18.061 10.354-21.59 20.414-.868 2.475-1.764 8.1-1.991 12.5-.412 8-.412 8 .508.065 2.575-22.225 12.287-31.805 33.981-33.522 9.5-.752 9.5-.752 2-.832-4.125-.044-9.934.575-12.908 1.375m40.943.348c-.569 1.064-1.006 2.527-.972 3.25.035.724.471.304.968-.934 1.132-2.815 6.348-3.145 7.889-.5.95 1.631 1.021 1.633 1.05.035.064-3.631-7.179-5.132-8.935-1.851m-342.557.264c-.278.722-.386 17.061-.241 36.308.263 34.994.263 34.994 5.513 35.296 5.25.303 5.25.303 5.021-22-.23-22.302-.23-22.302-.52-.552-.29 21.75-.29 21.75-4.164 21.75-2.609 0-4.071-.516-4.48-1.582-.334-.87-.607-16.845-.607-35.5C74 220 74 220 77.927 220c2.639 0 4.081.498 4.398 1.52.331 1.066.425.991.315-.25-.198-2.232-8.351-3.186-9.162-1.072m327.222.664c2.86.988 6.934 2.999 9.054 4.467 4.53 3.14 5.251 3.267 5.231.921-.012-1.302-.226-1.418-.839-.453-.663 1.046-1.056 1.016-2.026-.152-1.695-2.042-11.731-6.652-14.397-6.612-1.253.018.046.816 2.977 1.829m-312.89 3.621c-2.581 1.754-3.801 2.121-4.153 1.25-.29-.717-.532-.5-.578.517-.043.963.089 1.75.295 1.75.712 0 9.626-5.173 9.626-5.585 0-.963-1.763-.261-5.19 2.068m335.723 5.098c-.383 3.069-.619 16.682-.523 30.25.242 34.321.55 31.169-3.042 31.169-2.21 0-3.278-.61-3.937-2.25-.894-2.225-.905-2.226-.968-.107-.034 1.179.649 2.416 1.519 2.75 2.227.855 7.397.756 7.525-.143.212-1.484.537-67.25.333-67.25-.115 0-.523 2.511-.907 5.581m-90.037 18.613C315.409 294.436 317.021 291 313.422 291c-1.748 0-3.634-.562-4.192-1.25-.559-.687-4.237-10.25-8.175-21.25-3.939-11-8.149-22.642-9.358-25.871-2.11-5.638-3.753-7.265-4.498-4.454-.28 1.057-.159 1.051.599-.03.692-.987 1.508.371 3.004 5 3.84 11.884 15.58 43.831 17.259 46.97.851 1.59 1.906 1.932 5.209 1.689 4.141-.304 4.141-.304 8.017-9.804 2.132-5.225 5.146-12.875 6.699-17s5.544-14.46 8.87-22.966c3.325-8.506 5.892-15.619 5.705-15.806-.187-.187-4.266 9.697-9.065 21.966m-230.757-20.235c-2.069.402-4.061 1.029-4.427 1.396-.653.653 2.717.174 9.688-1.376 4.612-1.025.014-1.043-5.261-.02m13.614 1.467c7.254 2.122 11.288 6.428 12.717 13.574.631 3.156.711 3.226.815.71.287-6.961-6.783-14.355-14.594-15.263-3.464-.402-3.372-.318 1.062.979m258.048.968C365.648 234.47 362 241.981 362 255.929c0 7.344.4 9.481 2.603 13.903 2.922 5.863 6.976 9.403 13.341 11.648 9.018 3.182 22.704 1.118 28.628-4.316 3.525-3.233 6.43-7.139 6.424-8.637-.002-.565-.849.359-1.881 2.053-7.668 12.574-28.628 15.52-40.165 5.645-5.961-5.103-7.963-10.441-7.894-21.058.079-12.343 3.034-18.924 10.469-23.318 3.532-2.087 5.217-2.349 15.127-2.349 10.855 0 11.269.082 15.5 3.086 6.311 4.478 9.164 10.737 9.99 21.914.664 9 .664 9 .446-.5-.249-10.861-2.064-15.577-8.002-20.79-4.499-3.951-9.089-5.2-19.086-5.195-6.316.004-9.073.504-13.099 2.379m-284.806 4.105c-2.872 2.662-5.639 8.276-5.528 11.219.037.98.682-.191 1.434-2.603.752-2.411 2.835-5.899 4.629-7.75 3.795-3.915 3.417-4.528-.535-.866m50.635 33.251C140 291 140 291 135.52 291c-4.479 0-4.479 0-4.771-20.75-.292-20.75-.292-20.75-.52.5C130 292 130 292 135.031 292c3.151 0 5.214-.476 5.52-1.273.269-.7.358-11.387.199-23.75-.29-22.477-.29-22.477-.52.773M352.11 264c-.166 5.339 4.852 14.916 10.351 19.757C369.309 289.785 376 292 387.359 292c8.751 0 17.842-1.899 19.139-3.997.276-.446-1.754.046-4.509 1.093-6.27 2.382-20.358 2.578-27.742.385-10.54-3.13-18.849-12.763-21.155-24.526-.846-4.316-.876-4.345-.982-.955m146.635 10.008c-.326 1.37-.839 5.642-1.139 9.492-.545 7-.545 7 .941-1.449 1.386-7.873 1.527-13.626.198-8.043m-88.057 10.584c-1.54 1.324-2.394 2.408-1.899 2.408.496 0 1.725-.911 2.732-2.024 1.399-1.545 2.023-1.723 2.64-.75.581.915.813.938.824.083.028-2.23-1.492-2.13-4.297.283M4.218 292.5c.01 1.1.362 3.35.782 5 .686 2.695.765 2.746.782.5.01-1.375-.342-3.625-.782-5-.627-1.959-.797-2.067-.782-.5m490.338 8.056c-.377 2.006-.485 3.848-.241 4.093.245.244.753-1.198 1.129-3.205.377-2.006.485-3.848.241-4.093-.245-.244-.753 1.198-1.129 3.205M6.073 302.122c-.094 2.084 4.395 19.6 5.864 22.878 1.119 2.5 1.119 2.5.533 0-2.268-9.661-6.337-24.214-6.397-22.878m7.174 27.128c.254.688 1.248 3.642 2.209 6.565.961 2.923 1.924 5.139 2.139 4.923.507-.507-3.616-12.738-4.294-12.738-.283 0-.307.563-.054 1.25m469.915 10.293c-.639 1.403-1.144 3.092-1.123 3.754.022.662.704-.328 1.515-2.198 1.709-3.938 1.348-5.373-.392-1.556m-465.093 2.786c-.097 1.166 8.156 18.779 8.594 18.341.198-.198-1.639-4.592-4.082-9.765-2.443-5.173-4.474-9.032-4.512-8.576m460.61 8.217c-2.349 4.927-2.018 5.765.437 1.11 1.116-2.115 1.852-4.022 1.636-4.238-.217-.216-1.149 1.192-2.073 3.128m-4.984 10.967c-.914 1.918-1.456 3.487-1.205 3.487.685 0 3.72-6.123 3.263-6.58-.217-.217-1.143 1.174-2.058 3.093M31.961 371.5c2.352 4.4 4.738 8.45 5.303 9 .565.55-.904-2.6-3.264-7s-4.747-8.45-5.303-9c-.557-.55.912 2.6 3.264 7M468.5 371c-.853 1.65-1.326 3-1.051 3 .275 0 1.198-1.35 2.051-3 .853-1.65 1.326-3 1.051-3-.275 0-1.198 1.35-2.051 3m-4.271 7.336a1166.37 1166.37 0 0 1-3.717 6.25c-1.749 2.914-1.749 2.914.32.414 2.364-2.857 6.529-10 5.831-10-.256 0-1.351 1.501-2.434 3.336m-424.464 6.485c5.106 8.3 16.516 23.302 24.608 32.355 34.088 38.136 81.897 66.242 130.859 76.928 10.159 2.217 35.674 5.948 39.707 5.806 2.431-.086 2.409-.13-.439-.877-1.65-.432-8.175-1.347-14.5-2.033-70.235-7.614-135.402-47.474-176.159-107.75-4.774-7.06-7.552-10.079-4.076-4.429M454 394c-1.175 1.65-1.911 3-1.636 3 .275 0 1.461-1.35 2.636-3s1.911-3 1.636-3c-.275 0-1.461 1.35-2.636 3m-8.006 10.75c-2.946 3.712-7.187 8.767-9.425 11.233-2.246 2.475-2.786 3.371-1.205 2 1.575-1.366 5.592-5.858 8.927-9.983 7.629-9.436 8.052-10 7.506-10-.246 0-2.858 3.038-5.803 6.75m-24.023 25.837c-3.559 3.622-10.408 9.752-15.221 13.62-4.812 3.869-8.75 7.26-8.75 7.536 0 1.597 23.641-18.786 28.537-24.605 4.229-5.025 2.409-3.651-4.566 3.449M394.5 453.602c-3.849 2.96-19.084 12.141-28.635 17.256-24.359 13.046-53.746 22.329-81.084 25.612-16.248 1.952-20.779 2.741-18.643 3.246 2.896.685 31.127-3.646 43.575-6.686 18.323-4.474 34.219-10.259 50.787-18.482 13.334-6.618 36.5-20.589 36.5-22.011 0-.768-.262-.656-2.5 1.065"/>
  <path fill="#33b39a" fill-rule="evenodd" d="M223.222 2.005c-18.267 2.579-27.631 4.505-42.192 8.677-51.562 14.777-97.412 46.42-129.914 89.664C23.144 137.561 6.81 180.591 2.468 228.5c-1.635 18.037-1.538 25.674.622 49 5 53.988 31.386 109.234 70.942 148.533 40.066 39.806 92.4 65.257 145.968 70.987 5.775.618 12.387 1.541 14.693 2.052 5.478 1.213 27.555 1.196 32.191-.024 1.989-.523 9.781-1.667 17.315-2.542 34.863-4.048 67.452-15.942 101.106-36.9 24.52-15.27 51.226-40.922 69.862-67.106 9.3-13.066 22.682-37.891 27.463-50.946 5.201-14.205 6.843-19.535 9.875-32.054 5.178-21.378 6.811-34.456 7.214-57.778.321-18.622.094-22.372-2.189-36.138-3.829-23.084-8.402-40.177-15.533-58.068C462.653 108.99 427.42 66.844 382.5 38.498c-13.53-8.537-37.331-19.819-52.5-24.884C295.445 2.075 254.363-2.391 223.222 2.005M420 177.357c-7.059 1.916-15.884 6.759-20.575 11.292-4.308 4.162-10.416 14.742-10.435 18.072-.005.979-1.066-.489-2.357-3.262-1.291-2.772-3.874-6.33-5.74-7.905-6.459-5.453-18.847-10-21.101-7.746-1.626 1.626 2.995 13.584 7.107 18.387 5.08 5.935 13.826 9.803 22.169 9.804 15.506.002 28.83-7.308 36.726-20.148 2.709-4.404 6.206-14.271 6.206-17.508 0-2.053-.464-2.335-3.75-2.276-2.062.038-5.775.618-8.25 1.29M160.458 193.25c-.263.688-.362 23.075-.218 49.75.26 48.5.26 48.5 5.26 48.5s5 0 5.286-9.142c.286-9.143.286-9.143 9.763-18.25 5.212-5.01 9.809-9.092 10.214-9.072.405.021 5.237 7.028 10.737 15.572C215.823 292.859 214.996 292 222.089 292c3.251 0 5.911-.429 5.911-.952 0-.524-6.557-10.756-14.57-22.738-16.207-24.233-17.012-19.663 7.54-42.81 6.365-6 6.365-6 3.447-6.632-1.604-.347-4.883-.685-7.285-.75-4.369-.118-4.369-.118-25 20.328-20.632 20.446-20.632 20.446-20.896-12.2-.199-24.59-.569-32.839-1.5-33.43-1.98-1.258-8.751-.941-9.278.434M100 219.411c-6.676 2-9.939 3.409-13.1 5.66-2.839 2.022-2.839 2.022-3.453-.775-1.178-5.364-1.246-5.425-5.688-5.104-4.259.308-4.259.308-4.259 36.308s0 36 5.25 36.302c5.25.303 5.25.303 5.25-21.568 0-24.907.867-29.777 6.223-34.961 3.942-3.815 8.561-5.835 15.277-6.681 6.187-.778 14.784 1.392 18.219 4.6 5.513 5.149 5.732 6.358 6.109 33.607.35 25.299.35 25.299 5.511 25C140.5 291.5 140.5 291.5 140.5 266c0-22.74-.208-26.041-1.919-30.5-4.387-11.428-12.341-16.682-25.973-17.155-4.749-.165-9.972.277-12.608 1.066m132.677-.734c-1.234.337-1.607 1.035-1.154 2.16.368.915 2.178 5.577 4.021 10.361 7.637 19.822 8.64 22.391 9.487 24.302.488 1.1 3.202 8.069 6.032 15.487 8.058 21.125 7.674 20.513 12.885 20.513 4.996 0 3.741 2.569 17.585-36 3.159-8.8 6.07-16.623 6.47-17.384.465-.887 1.468.911 2.789 5 3.847 11.904 15.587 43.855 17.269 46.999.851 1.59 1.906 1.932 5.209 1.689 4.141-.304 4.141-.304 8.017-9.804 2.132-5.225 5.146-12.875 6.699-17s5.845-15.15 9.537-24.5c8.305-21.029 8.309-21.045 5.317-21.846-3.789-1.015-7.518-.747-8.652.62-.582.7-5.316 12.948-10.521 27.216-5.205 14.268-9.898 26.087-10.428 26.264-1.115.371-.516 1.84-11.86-29.066-6.003-16.352-9.34-24.132-10.653-24.835-3.25-1.739-6.181-.257-7.639 3.863-1.62 4.578-10.47 28.825-13.061 35.784-1.023 2.75-2.64 7.153-3.592 9.784-.952 2.631-2.194 4.629-2.76 4.441-.943-.315-3.323-6.146-7.235-17.725-.836-2.475-2.128-5.85-2.87-7.5-.743-1.65-2.974-7.661-4.957-13.359-5.384-15.461-5.438-15.546-10.112-15.77-2.2-.106-4.821.032-5.823.306m142.415.841c-6.596 1.856-13.658 6.772-17.305 12.048-4.795 6.937-6.288 12.834-6.19 24.458.078 9.279.421 11.266 2.905 16.8 3.487 7.772 10.357 14.231 18.296 17.203 4.786 1.792 7.389 2.081 16.202 1.804 8.955-.282 11.322-.729 16.088-3.034 3.074-1.486 6.184-3.42 6.912-4.297 1.638-1.974 2.962-.358 2.985 3.643.008 1.477.713 2.911 1.597 3.25 2.227.855 7.397.756 7.524-.143.058-.413.209-16.637.334-36.054.218-33.693.142-35.349-1.657-36.312-3.66-1.959-6.19-.676-7.627 3.864-1.345 4.249-1.345 4.249-3.923 2.221-1.417-1.115-4.637-2.952-7.155-4.082-6.191-2.778-21.422-3.497-28.986-1.369m1.649 10.847c-6.227 2.328-9.013 5.153-11.935 12.105-2.453 5.834-2.406 19.965.085 25.776 4.744 11.067 18.28 16.258 32.837 12.592 6.302-1.587 13.651-8.705 15.273-14.794.653-2.452 1.031-8.077.84-12.5-.432-10.022-3.396-16.494-9.552-20.859-3.853-2.732-5.041-3.017-14-3.355-6.77-.256-10.948.063-13.548 1.035"/>
</svg>
