<svg xmlns="http://www.w3.org/2000/svg" width="623" height="361" version="1.2">
  <path d="M0 0h623v361H0z" style="fill:#fc0"/>
  <path fill-rule="evenodd" d="M594.9 180.7c0 78.3-126.9 141.8-283.4 141.8C154.9 322.5 28 259 28 180.7 28 102.5 154.9 39 311.5 39c156.5 0 283.4 63.5 283.4 141.7zm-22.4 0c0-65.9-116.8-119.3-261-119.3S50.4 114.8 50.4 180.7s116.9 119.4 261.1 119.4c144.2 0 261-53.5 261-119.4zm-296.8-24.8v-22.4h80v22.4h-28.8V228h-22.4v-72.1zm176.5-22.4V228h-22.4l-40.6-56.2V228h-22.3v-94.5h22.3l40.6 56.2v-56.2zM170.1 228v-94.5h22.3l24.9 38.2 24.9-38.2h22.3V228h-22.3v-53.5l-17 26.1h-15.8l-17-26.1V228z" style="fill:#020001"/>
</svg>
