<svg xmlns="http://www.w3.org/2000/svg" width="600" height="600">
  <path fill="#221f21" fill-rule="evenodd" d="M215.524 501.063c-5.497 2.742-10.229 7.524-13.296 13.437-3.497 6.74-4.327 20.676-1.702 28.578 2.397 7.218 11.193 16.276 17.403 17.922 5.47 1.449 12.561.499 16.337-2.189 2.753-1.96 5.734-1.878 5.734.158 0 .567.616 1.031 1.369 1.031 1.537 0 2.603-4.962 2.62-12.191.016-6.892-2.762-7.298-4.351-.636-.816 3.42-5.068 8.481-8.707 10.363-6.253 3.233-14.497.991-17.664-4.803-2.57-4.703-2.549-38.352.028-43.959 2.303-5.012 6.575-7.137 13.093-6.511 4.328.416 5.53 1.034 8.349 4.295 1.811 2.096 3.807 5.527 4.436 7.626C241.03 520.38 242 518.6 242 509c0-4.95-.265-9-.59-9-.324 0-1.337.901-2.25 2.003-1.654 1.996-1.677 1.994-6.66-.469-6.05-2.99-11.616-3.145-16.976-.471m190.803-.829c-.446.696-1.301 2.616-1.9 4.266-3.467 9.555-13.165 35.367-16.342 43.498-2.743 7.022-4.215 9.575-5.648 9.789-4.658.699-6.437 1.316-6.437 2.232 0 .582 4.505.981 11.083.981 8.42 0 10.985-.3 10.672-1.25-.23-.699-2.472-1.384-5.083-1.555-2.57-.167-4.672-.547-4.672-.842 0-.296 1.189-3.887 2.642-7.98l2.642-7.442 9.486.284 9.486.285 2.804 7.307c3.016 7.858 3 7.9-2.983 8.404-1.883.159-3.608.852-3.833 1.539-.316.962 2.97 1.25 14.256 1.25s14.572-.288 14.255-1.25c-.226-.687-2.148-1.475-4.27-1.75l-3.86-.5-4.731-13.5a3595.839 3595.839 0 0 0-9.428-26.5c-2.583-7.15-4.924-14.019-5.201-15.265-.627-2.817-1.872-3.665-2.938-2.001m-381.347.599c-2.501.851-.529 2.086 3.77 2.362l4.75.305v54l-3.783.5c-7.548.998-4.245 2.499 6.128 2.786 8.08.223 10.253.004 9.922-1-.243-.74-2.408-1.415-5.095-1.591L36 557.89v-26.945c0-14.82.195-26.945.434-26.945s4.129 5.512 8.645 12.25c4.516 6.737 10.621 15.714 13.566 19.947 2.945 4.234 5.355 8.171 5.355 8.75 0 .579.338 1.067.75 1.085.412.017 3 3.591 5.75 7.941s5.434 7.792 5.964 7.647c.582-.159 1.082-11.735 1.262-29.191l.298-28.929 4.051-.311c2.312-.177 3.899-.768 3.695-1.378-.488-1.464-19.044-1.488-19.532-.024-.216.648 1.389 1.218 3.949 1.402l4.313.311.273 18.25c.149 10.038-.107 18.25-.57 18.25-.463 0-6.661-8.748-13.773-19.44L47.5 501.121l-10.77-.311c-5.924-.17-11.211-.16-11.75.023m93.436.084c-1.239 1.241.042 2.001 3.834 2.276l4.25.307.266 27.195.266 27.194-4.531.306c-2.492.168-4.526.755-4.519 1.305.008.61 5.907 1.108 15.108 1.277 11.89.217 15.005.005 14.674-1-.241-.731-2.431-1.408-5.121-1.583l-4.7-.306.278-13.194.279-13.194 2.486-.35c4.446-.627 8.983 2.705 10.279 7.549 1.989 7.439 3.106 4.334 2.964-8.244-.13-11.458-1.338-15.787-2.69-9.634-.353 1.611-1.632 3.848-2.841 4.972-2.364 2.2-9.136 3.926-9.988 2.547-.285-.462-.674-6.24-.864-12.84l-.346-12 6.5-.315c13.573-.658 17.932 1.283 20.784 9.253.966 2.7 2.373 5.114 3.127 5.366 1.125.375 1.24-1.041.641-7.924-.4-4.609-.857-8.511-1.014-8.671-.458-.465-48.662-.753-49.122-.292m205.834-.11c-2.337.17-4.25.706-4.25 1.193 0 .487 1.913 1.023 4.25 1.193l4.25.307v54l-4.25.307c-2.894.21-4.25.768-4.25 1.75 0 1.194 2.628 1.442 15.25 1.435 16.175-.008 26.235-1.157 30.805-3.52 5.99-3.098 9.531-12.236 7.054-18.203-1.279-3.079-6.422-6.991-10.692-8.133-3.66-.979-4.147-2.736-.979-3.531 3.963-.995 9.428-6.373 10.091-9.931.966-5.184-1.479-10.735-6.092-13.829-3.953-2.652-4.507-2.734-20.5-3.035-9.04-.171-18.35-.172-20.687-.003m119-.095c-2.713.986-1.011 2.194 3.5 2.483l4.75.305v54l-4.25.307c-2.894.21-4.25.768-4.25 1.75 0 1.166 2.019 1.443 10.5 1.443 8.667 0 10.5-.262 10.5-1.5 0-1.133-1.222-1.5-5-1.5h-5v-26.5c0-14.575.337-26.483.75-26.462.413.021 9.3 12.839 19.75 28.484 10.45 15.645 19.331 28.453 19.735 28.462.404.009.854-13.147 1-29.234l.265-29.25 4.25-.307c7.512-.544 4.53-2.188-4.25-2.343-4.675-.083-9.025-.195-9.667-.25-.641-.055-1.345.435-1.563 1.089-.256.769 1.131 1.3 3.917 1.5l4.313.311.273 18.25c.149 10.038-.079 18.25-.509 18.25s-6.627-8.766-13.773-19.48L465.5 501.039l-8-.088c-4.4-.049-9.125-.225-10.5-.391s-3.062-.097-3.75.152m71.45.473c-1.445.893.48 1.629 5.3 2.026l3.5.289.266 27.195.266 27.194-4.531.306c-2.492.168-4.637.755-4.766 1.305-.146.623 5.33 1.104 14.515 1.277 12.68.238 14.75.062 14.75-1.25 0-1.144-1.133-1.527-4.516-1.527h-4.516l.266-27.25.266-27.25 4.25-.307c4.066-.295 6.136-2.146 2.5-2.236-17.004-.423-26.625-.343-27.55.228m45.05-.44c-9.16.348-11.94 1.926-4.319 2.45l4.431.305-11.931 12.374C541.369 522.679 536 528.44 536 528.677c0 .363 7.294 9.67 13.166 16.8.916 1.113 3.278 3.978 5.25 6.368 1.971 2.389 3.584 4.726 3.584 5.192 0 .466-1.808.986-4.018 1.156-2.209.169-4.009.757-4 1.307.011.618 5.363 1 14.018 1 8.646 0 14.012-.382 14.031-1 .017-.55-1.09-1.141-2.46-1.313-1.807-.226-5.726-4.189-14.281-14.441-16.898-20.25-16.482-19.633-14.825-21.999.761-1.087 5.076-5.749 9.589-10.361 7.811-7.984 8.414-8.386 12.575-8.386 4.354 0 5.798-1.239 2.789-2.393-.87-.334-1.882-.514-2.25-.401-.367.113-4.605.355-9.418.539m-219.083 2.922c-.367.366-.667 6.041-.667 12.609v11.943l7.437-.376c9.168-.463 11.974-2.533 12.935-9.538.957-6.983-.713-11.764-4.782-13.695-3.347-1.589-13.628-2.238-14.923-.943m60.723 16.083c-.301.962-1.911 5.425-3.579 9.916-1.668 4.492-2.731 8.654-2.363 9.25.379.613 3.736 1.084 7.72 1.084h7.051l-.484-3.25c-.704-4.721-5.877-18.75-6.914-18.75-.486 0-1.13.788-1.431 1.75m-60.792 10.986c-.329.328-.598 6.597-.598 13.931V558l6.75-.015c3.712-.008 7.875-.577 9.25-1.264 7.38-3.687 8.1-20.55 1.033-24.204-2.851-1.474-15.384-2.833-16.435-1.781"/>
  <path fill="#ec3c43" fill-rule="evenodd" d="M4.75 5.076C3.091 6.046 3 17.983 3 233.468c0 125.053.273 228.08.607 228.95.794 2.07 8.577 2.089 27.048.065 36.783-4.032 60.795-8.314 87.845-15.668 8.25-2.242 16.243-4.295 17.762-4.561 1.519-.267 3.009-.883 3.309-1.369.301-.487 1.36-.885 2.355-.885.994 0 4.005-.842 6.691-1.871a1353.53 1353.53 0 0 1 10.883-4.097c6.519-2.418 17.802-6.768 21-8.096 9.252-3.841 34.582-15.894 35.5-16.892.275-.299 3.2-1.941 6.5-3.648 12.056-6.237 32.76-18.973 33.333-20.505.184-.49.773-.891 1.309-.891.536 0 2.636-1.266 4.667-2.813 2.03-1.548 7.966-6.012 13.191-9.921 5.225-3.908 10.415-7.93 11.534-8.936 1.118-1.007 5.393-4.74 9.5-8.296 9.097-7.878 19.771-18.053 29.315-27.945 9.475-9.82 9.465-9.808 14.637-16.117 2.468-3.01 4.742-5.697 5.053-5.972.975-.86 10.362-12.461 12.461-15.399 1.1-1.54 4.052-5.568 6.561-8.95 4.919-6.633 10.828-15.112 12.439-17.85.55-.934 4.262-6.817 8.25-13.073 3.987-6.256 7.25-11.904 7.25-12.551 0-.647.398-1.177.883-1.177.486 0 1.135-.788 1.441-1.75.307-.963 2.207-4.675 4.222-8.25 9.47-16.797 21.073-41.381 28.791-61 10.73-27.276 18.146-50.03 24.117-74 1.439-5.775 3.035-12.075 3.548-14 4.487-16.867 13.024-69.307 11.526-70.805C465.36 4.027 6.747 3.909 4.75 5.076M451.286 515.5c.008 2.75.202 3.756.432 2.236.229-1.52.223-3.77-.014-5-.237-1.23-.425.014-.418 2.764M77.3 547c0 3.025.187 4.263.416 2.75.229-1.513.229-3.987 0-5.5s-.416-.275-.416 2.75m373.972 1c0 2.475.195 3.487.434 2.25.238-1.237.238-3.263 0-4.5-.239-1.237-.434-.225-.434 2.25"/>
  <path fill="#bfc4c4" fill-rule="evenodd" d="M0 300.002v300.001l300.25-.251 300.25-.252.252-299.75L601.003 0H0v300.002m.493.498c0 165 .116 232.351.257 149.669.141-82.682.141-217.682 0-300C.609 67.851.493 135.5.493 300.5M4.75 5.076C3.091 6.046 3 17.983 3 233.468c0 125.053.273 228.08.607 228.95.794 2.07 8.577 2.089 27.048.065 36.783-4.032 60.795-8.314 87.845-15.668 8.25-2.242 16.243-4.295 17.762-4.561 1.519-.267 3.009-.883 3.309-1.369.301-.487 1.36-.885 2.355-.885.994 0 4.005-.842 6.691-1.871a1353.53 1353.53 0 0 1 10.883-4.097c6.519-2.418 17.802-6.768 21-8.096 9.252-3.841 34.582-15.894 35.5-16.892.275-.299 3.2-1.941 6.5-3.648 12.056-6.237 32.76-18.973 33.333-20.505.184-.49.773-.891 1.309-.891.536 0 2.636-1.266 4.667-2.813 2.03-1.548 7.966-6.012 13.191-9.921 5.225-3.908 10.415-7.93 11.534-8.936 1.118-1.007 5.393-4.74 9.5-8.296 9.097-7.878 19.771-18.053 29.315-27.945 9.475-9.82 9.465-9.808 14.637-16.117 2.468-3.01 4.742-5.697 5.053-5.972.975-.86 10.362-12.461 12.461-15.399 1.1-1.54 4.052-5.568 6.561-8.95 4.919-6.633 10.828-15.112 12.439-17.85.55-.934 4.262-6.817 8.25-13.073 3.987-6.256 7.25-11.904 7.25-12.551 0-.647.398-1.177.883-1.177.486 0 1.135-.788 1.441-1.75.307-.963 2.207-4.675 4.222-8.25 9.47-16.797 21.073-41.381 28.791-61 10.73-27.276 18.146-50.03 24.117-74 1.439-5.775 3.035-12.075 3.548-14 4.487-16.867 13.024-69.307 11.526-70.805C465.36 4.027 6.747 3.909 4.75 5.076m210.774 495.987c-5.457 2.722-10.199 7.49-13.363 13.437-2.437 4.579-2.661 5.968-2.661 16.5 0 10.671.193 11.828 2.679 16.058 3.772 6.416 10.808 12.592 15.909 13.966 5.304 1.428 12.434.453 16.178-2.213 2.753-1.96 5.734-1.878 5.734.158 0 .567.643 1.031 1.428 1.031 1.594 0 2.973-8.029 2.405-14-.518-5.448-1.868-4.664-5.185 3.015-4.942 11.439-19.959 13.639-25.381 3.718-2.57-4.703-2.549-38.352.028-43.959 2.303-5.012 6.575-7.137 13.093-6.511 4.328.416 5.53 1.034 8.349 4.295 1.811 2.096 3.807 5.527 4.436 7.626C241.03 520.38 242 518.6 242 509c0-4.95-.265-9-.59-9-.324 0-1.337.901-2.25 2.003-1.654 1.996-1.677 1.994-6.66-.469-6.05-2.99-11.616-3.145-16.976-.471m190.757-.802c-.52.681-1.445 2.589-2.054 4.239-.61 1.65-3.656 9.975-6.77 18.5-10.714 29.334-12.933 34.474-15.02 34.787-4.658.699-6.437 1.316-6.437 2.232 0 .582 4.505.981 11.083.981 8.42 0 10.985-.3 10.672-1.25-.23-.699-2.472-1.384-5.083-1.555-2.57-.167-4.672-.547-4.672-.842 0-.296 1.189-3.887 2.642-7.98l2.642-7.442 9.465.284 9.465.285 2.393 6.372c3.221 8.576 3.148 8.957-1.779 9.321-2.295.169-4.358.87-4.584 1.557-.316.962 2.97 1.25 14.256 1.25s14.572-.288 14.255-1.25c-.226-.687-2.131-1.475-4.233-1.75l-3.821-.5-4.753-13.5a3676.575 3676.575 0 0 0-9.466-26.5c-2.592-7.15-4.94-14.019-5.217-15.265-.631-2.836-1.757-3.581-2.984-1.974m-381.262.572c-2.557.837-.585 2.085 3.731 2.362l4.75.305v54l-3.783.5c-7.548.998-4.245 2.499 6.128 2.786 8.08.223 10.253.004 9.922-1-.243-.74-2.408-1.415-5.095-1.591L36 557.89v-27.145c0-16.589.359-26.776.922-26.195 1.019 1.049 29.113 42.606 34.919 51.651 2.012 3.136 4.109 5.573 4.659 5.417.629-.179 1.098-11.092 1.265-29.451L78.03 503h4.068c2.576 0 3.931-.414 3.693-1.128-.507-1.52-19.048-1.601-19.553-.085-.216.648 1.389 1.218 3.949 1.402l4.313.311.273 18.25c.149 10.038-.076 18.25-.502 18.25s-6.624-8.769-13.773-19.487L47.5 501.026l-6.5-.152c-3.575-.084-8.404-.202-10.731-.263-2.326-.061-4.689.039-5.25.222m93.398.084c-1.219 1.219-.05 2.085 2.833 2.098 5.959.028 5.808-.739 5.517 28.054L126.5 557.5l-4.5.5c-2.475.275-4.389.95-4.252 1.5.147.596 6.345 1.112 15.342 1.277 11.89.217 15.005.005 14.674-1-.24-.729-2.425-1.408-5.092-1.582L138 557.89v-25.852l2.651-.665c4.449-1.117 9.24 2.19 10.614 7.326 2.055 7.687 3.25 4.403 3.009-8.275-.219-11.502-1.404-15.663-2.735-9.603-.931 4.241-4.503 7.156-9.114 7.439l-3.925.24-.5-12c-.309-7.418-.118-12.308.5-12.806 1.58-1.274 18.773-.165 21.229 1.369 2.186 1.365 4.049 4.521 6.342 10.743 2.04 5.536 3.231 2.253 2.437-6.718l-.716-8.088-3.146-.044c-25.113-.353-45.898-.371-46.229-.039m205.833-.11c-2.337.17-4.25.706-4.25 1.193 0 .487 1.913 1.023 4.25 1.193l4.25.307v54l-4.25.307c-3.065.222-4.25.746-4.25 1.878 0 1.389 2.278 1.518 19.75 1.12 17.14-.391 20.357-.721 24.342-2.502 5.216-2.33 8.77-6.68 9.591-11.739 1.314-8.097-2.268-12.512-12.933-15.939-2.786-.895-2.011-1.964 3.189-4.401 4.98-2.334 8.061-6.598 8.061-11.157 0-4.043-2.854-8.942-6.671-11.452-3.643-2.394-4.633-2.531-20.329-2.816-9.075-.164-18.413-.161-20.75.008m119-.095c-2.58.938-1.114 2.289 2.5 2.303 2.063.009 4.2.346 4.75.75 1.264.929 1.734 21.391.917 39.985l-.625 14.25h-3.896c-2.796 0-3.896.423-3.896 1.5 0 1.238 1.833 1.5 10.5 1.5s10.5-.262 10.5-1.5c0-1.133-1.222-1.5-5-1.5h-5v-26.5c0-14.575.337-26.486.75-26.469.413.017 9.272 12.842 19.688 28.5C484.854 549.189 493.735 562 494.173 562c.438 0 .916-13.163 1.062-29.25l.265-29.25 4.25-.307c7.512-.544 4.53-2.188-4.25-2.343-4.675-.083-9.025-.195-9.667-.25-.641-.055-1.345.435-1.563 1.089-.256.769 1.131 1.3 3.917 1.5l4.313.311.273 18.25c.149 10.038-.076 18.249-.5 18.248-.425-.001-6.62-8.776-13.766-19.5L465.513 501l-8.006-.069c-4.404-.038-9.132-.205-10.507-.371s-3.062-.097-3.75.152m71.433.484c-1.424.88.53 1.621 5.317 2.015l3.5.289.266 27.195.266 27.194-4.531.306c-2.492.168-4.637.755-4.766 1.305-.146.623 5.33 1.104 14.515 1.277 12.68.238 14.75.062 14.75-1.25 0-1.144-1.133-1.527-4.516-1.527h-4.516l.266-27.25.266-27.25 4.313-.311c2.759-.198 4.172-.734 3.921-1.487-.433-1.3-27.018-1.763-29.051-.506m45.067-.451c-9.202.35-11.934 1.93-4.237 2.45l4.514.305-11.973 12c-6.585 6.6-11.991 12.4-12.014 12.889-.032.718 9.981 13.749 11.997 15.611 1.375 1.271 9.963 12.696 9.963 13.255 0 .346-1.808.768-4.018.938-2.209.169-4.009.757-4 1.307.011.618 5.363 1 14.018 1 8.646 0 14.012-.382 14.031-1 .017-.55-1.107-1.142-2.498-1.316-1.826-.229-4.957-3.289-11.256-11-4.8-5.876-8.996-10.909-9.325-11.184-.328-.275-2.709-3.114-5.29-6.308-5.535-6.85-5.934-5.71 6.392-18.306 7.811-7.984 8.414-8.386 12.575-8.386 4.354 0 5.798-1.239 2.789-2.393-.87-.334-1.882-.514-2.25-.401-.367.113-4.605.355-9.418.539m-219 2.828c-.413.418-.75 6.135-.75 12.703v11.943l7.497-.379c6.487-.328 7.85-.732 10.125-3.007 2.315-2.315 2.628-3.427 2.628-9.333 0-5.896-.315-7.02-2.614-9.319-2.195-2.194-3.701-2.675-9.375-2.991-3.719-.208-7.098-.035-7.511.383m60.64 16.177c-.301.962-1.911 5.425-3.579 9.916-1.668 4.492-2.731 8.654-2.363 9.25.377.61 3.705 1.084 7.611 1.084 8.329 0 8.237.309 3.803-12.75-3.101-9.134-4.403-10.918-5.472-7.5m-59.683 11.068c-1.508.29-1.707 1.893-1.707 13.755V558l6.75-.015c8.121-.017 11.18-1.377 13.498-5.999 3.156-6.292 1.732-16.811-2.603-19.221-2.206-1.226-12.899-2.532-15.938-1.947"/>
</svg>
