<svg xmlns="http://www.w3.org/2000/svg" width="436" height="406">
  <path fill="#2fa84c" fill-rule="evenodd" d="m190.829 95.628-.171 2.872-.116 3.5-.117 3.5-1.759 14-1.759 14-1.578 12.776-1.579 12.776.044 2.724.043 2.724-1.408 9.678-1.409 9.678-.522 7.822-.523 7.822-1.918 12.458-1.919 12.457.439.71.439.709-1.594 10.729-1.594 10.729 1.932 2.604 1.933 2.604 1.903 1.007 1.904 1.007 7.046 4.644 7.045 4.645 1.093 1.348 1.092 1.349 1.76 5.5 1.76 5.5 1.41 3.542 1.41 3.541.279 1.904.28 1.905 1.229.409 1.229.41-.553-14.856-.552-14.855-1.5-15-1.499-15-.481-11.299-.482-11.299-1.598-16.94-1.599-16.941.461-.76.462-.761-1.812-20-1.812-20-.561-12.63-.561-12.629-.66-5.612-.659-5.611-1.364-1.131L191 92.755l-.171 2.873m-35.824 64.86-1.052 2.766-.859 3.823-.859 3.824.423.424.423.423-1.519 6.876-1.52 6.876-.5 2.998-.499 2.998-1.753 1.281-1.752 1.281-50.919-.095-50.919-.096-.835 1.317-.834 1.316v2l.947 1.5.947 1.5 39.788.5 39.787.5 2.25 1.972 2.25 1.972v1.654l14.498 14.451L156.997 237l.751.015.752.016 5.448 4.984 5.448 4.985h1.39l.511-1.331.511-1.332-1.83-9.418-1.83-9.419-1.623-9-1.623-9-.105-2.5-.105-2.5-1.378-6.293-1.378-6.293-.332-3.707-.333-3.707-1.617-8-1.617-8-.384-3.782-.384-3.783-.607-.606-.606-.606-1.051 2.765m148.952 136.605-2.543.936-1.707 2.89-1.707 2.89v3.382l1.711 2.897 1.711 2.896 3.289 1.086 3.289 1.085 3.418-1.128 3.418-1.128 1.582-2.414L318 308.07v-4.169l-1.47-2.842-1.469-2.842-3.18-1.109-3.179-1.108-1.101.079-1.101.079-2.543.935M.636 302.25l.586 3.25 1.488 5.344 1.487 5.345.265 2.155.265 2.156L6 325l1.273 4.5.265 2.156.265 2.155 1.544 5.345 1.543 5.344.523 3 .523 3 1.61 6.5 1.609 6.5 1.558 6 1.558 6 .237 2 .237 2 .127 1.25L19 382h19.882l.762-1.232.761-1.233.115-1.517.116-1.518 1.606-6.5 1.607-6.5 1.661-8 1.661-8 1.508-6 1.509-6 .487-4.731.488-4.731.832-2.769.833-2.769.086 3.685.086 3.684 1.433 6.816 1.433 6.815.487 4.046.487 4.046 1.636 6.315 1.636 6.314-.408.408-.407.407 2.214 9.232 2.214 9.232 10.006.284 10.006.283.786-3.283.786-3.284.201-1.587.201-1.587 1.594-5.413 1.593-5.413 4.104-16.824 4.104-16.824.974-2.563.974-2.562.561-3.53.561-3.531.939-2.469.939-2.47.561-3.53.561-3.531.901-2.369.901-2.369-9.631.286-9.63.286-1.201 4.74-1.202 4.741.399.399.399.399-1.636 6.314-1.636 6.315-.473 4.046-.473 4.046-1.438 5.608-1.437 5.609-.375 3.891-.374 3.892-.768 5.283-.769 5.284-.616-.617-.617-.617-.051-.666-.052-.667-.83-6-.83-6-.267-3.016-.267-3.016-1.07-3.984-1.071-3.984-.584-5-.583-5-1.418-5.53-1.418-5.531-.59-4.912-.589-4.913-.499-.807-.499-.807H43l-.118 1.75-.119 1.75.091.667.091.667-1.971 7.526-1.972 7.526-.449 3.506-.448 3.506L37 330l-1.105 4.102-.461 3.6-.46 3.601-1.487 6.41L32 354.124v6.994l-.9-.556-.9-.556-.043-3.253-.044-3.253-1.945-8.694-1.946-8.695.445-.445.445-.445-1.585-6.115-1.584-6.115-.337-3.746-.338-3.745-1.875-8.25-1.875-8.25H.05l.586 3.25m347.141 4.306-.557.557-2.86.375-2.86.374-.25.194-.25.194-1 .25-1 .25-2 .125-2 .125v13h-8v14h8l.142 14.25.143 14.25.265 3.124.266 3.123 2.327 3.55 2.326 3.549 3.016 1.821 3.015 1.822 8.449.148 8.449.148 1.301-.5 1.301-.499v-14.432l-4.949.073-4.948.073-1.281-1.28-1.282-1.28-.383-13.97-.384-13.97H366v-14h-13v-16h-4.667l-.556.556m-228.791 15.712-2.486.958-3.584 1.464-3.583 1.464 1.325 5.109 1.325 5.109 1.177.727 1.176.727 2.082-1.358 2.082-1.357 4.963-1.108 4.963-1.107 3.537.612 3.537.611 1.684 1.252 1.683 1.253.629 2.505.629 2.505-8.83 1.014-8.83 1.013-5.406 2.715-5.405 2.715-1.35 1.705-1.349 1.704-1.978 3.71-1.977 3.71v9.179l1.653 3.201 1.654 3.2 3.096 2.709 3.097 2.708 4.651 1.118 4.652 1.117 4.848-.67 4.849-.67 4.13-2.882 4.13-2.882.595 2.976.595 2.976h16.642l-.285-9.25-.286-9.25-.407-12.5-.406-12.5-.551-2.271-.55-2.27-2.123-2.982-2.123-2.982-3.181-2.337-3.18-2.338-3-1.118-3-1.118-9.514.113-9.515.114-2.485.957m65.014.586-3.5 1.593-3.658 3.604-3.659 3.605-1.235 4.123-1.235 4.123 1.263 4.513 1.263 4.512 2.24 1.468 2.24 1.467 1.436 1.319 1.436 1.319 3.286 1.75 3.285 1.75 1.669.004 1.669.003 3.25 1.982 3.25 1.982v4.959l-2.224 1.19-2.224 1.19-4.026-.099-4.026-.099-5.5-1.993-5.5-1.994-1.944 5.943-1.945 5.943 1.069 1.069 1.07 1.07 3.875 1.352 3.875 1.352 10.507-.229 10.507-.228 5.117-3.35 5.117-3.35 1.534-2.598 1.535-2.599.691-3.691.692-3.69-1.626-4.81-1.626-4.809-4.794-3.25-4.794-3.25-1.43-.023-1.43-.024-5-2.726-5-2.727-.301-2.112-.302-2.111 3.302-1.558 3.301-1.557 4 .874 4 .874 2.651.643 2.65.642 1.6-5.501 1.599-5.502v-.975l-3.75-1.476-3.75-1.476-8.5-.002-8.5-.002-3.5 1.593m68.108.226L249 324.971v-1.357l-2.645 3.193L243.71 330h-1.828l.555-.897.554-.898-.62-3.102-.621-3.103H226v84h19v-29.905l2.552 2.365 2.552 2.365 4.975 1.194 4.975 1.193 3.723-.685 3.723-.685 4-1.816 4-1.816 2.751-2.646 2.75-2.646 1.864-3.709 1.863-3.709 1.264-5.366 1.263-5.366-.563-6.134-.564-6.134-.484-2.133-.484-2.133-2.122-4.159-2.121-4.158-1.958-1.958L277 326h-2v-1.63l-3.265-1.556-3.264-1.557-6.627-.034-6.627-.033-3.109 1.89M395 322.027l-1.5.769-4.186 1.725-4.186 1.725-3.15 3.08-3.15 3.079-2.607 5.048-2.607 5.047-.208 8.5-.207 8.5 2.061 5 2.061 5 3.09 3.359 3.089 3.359 3.5 2.226 3.5 2.226 6.36 1.237 6.359 1.237 7.094-1.197 7.093-1.196 4.241-2.64 4.242-2.64 3.422-4.485 3.422-4.486 1.133-4.693 1.134-4.693v-11.751l-1.477-4.975-1.478-4.975-3.638-4.251-3.638-4.25-5.635-2.821-5.634-2.821-8.5-.006-8.5-.006-1.5.769m-96 30.011v30.037l9.25-.287 9.25-.288.265-29.75.265-29.75H299v30.038m99.815-16.319-2.684 1.665-1.675 3.714-1.675 3.713-.265 6.345-.266 6.344 1.25 3 1.249 3 2.47 2.823 2.47 2.823 3.406.04 3.405.041 1.199-.114 1.2-.113 3.005-3.216 3.006-3.216.66-5.284.66-5.284-.675-5.409-.676-5.409-3.488-3.591-3.487-3.591-3.202.027-3.202.026-2.685 1.666m-148.598 1.842-2.228 1.56-1.495 2.89-1.494 2.89v15.198l1.456 2.816 1.456 2.815 3.591 1.704 3.591 1.704 2.956-.649 2.956-.649 2.773-2.773 2.773-2.773.391-2.397.39-2.397.02-6 .02-6-.662-2.5-.661-2.5-2.581-2.25-2.581-2.25h-8.443l-2.228 1.561m-115.768 16.323-.384.384-2.413.265-2.414.265-2.619 1.716L124 358.23l-.11.635-.109.635-.271 3.203-.271 3.203 1.893 1.714 1.894 1.713 3.237-.009 3.237-.01 2.034-.656 2.033-.655 1.717-2.906 1.716-2.906V353.5h-6.167l-.384.384"/>
  <path fill="#84c34c" fill-rule="evenodd" d="m195.409 5.616.716 5.884 1.479 22 1.479 22 1.382 20.5 1.382 20.5 1.039 14 1.038 14 1.571 22.5 1.571 22.5 1.504 20 1.504 20 1.386 21.84 1.386 21.839.594.594.593.594.926-.934.925-.933 1.123-6.5 1.124-6.5 1.323-8 1.324-8 2.126-13.5 2.127-13.5 1.035-5.154 1.036-5.155 2.67-.67 2.671-.67 43.028.206 43.029.206 3.77-.746 3.769-.747 4.951-4.451 4.951-4.451 6.998-14.184 6.998-14.184 1.916-6 1.915-6 1.866-8 1.866-8-.055-16-.055-16-1.794-5.847-1.794-5.847-1.932-4.367-1.931-4.366-3.572-4.679-3.571-4.679-2.648-2.472-2.648-2.473-5.269-3.385-5.27-3.385h-1.159l-3.151-1.393-3.151-1.392-7-1.61-7-1.61-9.357.002-9.356.003-9.144 1.618-9.143 1.619-8.5 4-8.5 4-9.79 9.632-9.791 9.631-1.414.315-1.414.314-1.796-2.307-1.795-2.308-7.321-7.378-7.321-7.379-.929-2.444L209 45.87v-4.994l4.625 3.312 4.625 3.312 5.625 5.213 5.625 5.212 1.374.038 1.374.037 6.347-6.41 6.348-6.411 5.278-3.014 5.279-3.015 5.5-2.008 5.5-2.008 7-1.815 7-1.815h28l7 1.792 7 1.792 2 .82 2 .82 5 2.284 5 2.283 4.5 3.552 4.5 3.553 2.044 2.05 2.043 2.05 3.049 4 3.049 4 3.281 7 3.281 7 1.863 9 1.864 9 .013 9.557.013 9.557-1.92 10.443-1.92 10.443-3.085 9.28-3.085 9.28-4.398 8.72-4.397 8.72-3.377 5.5-3.377 5.5-3.419 5.096-3.42 5.096-2.882 1.654-2.882 1.654-46.169.015-46.169.016-1.353.857-1.352.857-1.883 10.377-1.882 10.378-.953 7-.952 7-2.574 14.5-2.573 14.5-1.128 7.629-1.127 7.63.653 2.602.653 2.603 2.936 1.518 2.936 1.518h5.913l6.343-2.967 6.343-2.968 6.493-3.585 6.493-3.584 10.007-6.121 10.007-6.12.5-.577.5-.578 5-3.411 5-3.412 7.5-6.064 7.5-6.064 4.994-4.524 4.994-4.525 9.795-10 9.795-10 3.961-5.25L342 197l3.888-5.25 3.889-5.25 3.545-5.599 3.546-5.598 5.479-11.402 5.48-11.401 3.102-10.052 3.103-10.052 1.467-8.948 1.466-8.948.014-10.5.013-10.5-1.384-8.5-1.385-8.5-2.054-6.241-2.055-6.241-2.641-5.259-2.641-5.258-3.666-4.5-3.666-4.499-2.5-2.543-2.5-2.542-4.192-3.247-4.193-3.247-7.148-3.576-7.147-3.576-5.16-1.47-5.16-1.47-5-.999-5-.998-14-.039-14-.039-6 1.055-6 1.054-5 1.173-5 1.173-.95.894-.95.895h-3.142l-7.944 4.65-7.944 4.651-3.035 2.845-3.035 2.845-2.076.004-2.075.005-2.364-2.516-2.364-2.516-7.725-4.529-7.726-4.53-1.16-1.396-1.159-1.397-4.193-12.231-4.193-12.23-1.386-.462-1.386-.462.716 5.885m-44.908 15.396-6.999.871-5.501 1.65-5.501 1.649-5.368 2.452-5.369 2.452-5.758 3.91-5.758 3.911-6.645 7.281-6.646 7.282-4.417 9.015-4.417 9.015-1.811 7-1.811 7v33l1.356 7.5 1.356 7.5 3.569 11.5 3.569 11.5L99.6 166l5.249 10.5 3.082 4.25 3.082 4.25h28.844l1.48-1.48 1.481-1.48.65-4.27.651-4.27 1.86-10 1.86-10 1.645-9.5 1.645-9.5 1.392-7 1.391-7 .66-4.762.659-4.763.812-.502.813-.502.521 1.764.52 1.765 1.048 7.5 1.048 7.5 2.546 14.5 2.546 14.5 1.401 8.5 1.4 8.5 1.151 7 1.152 7 .868.913.869.913.9-2.413.901-2.413.673-8.5.673-8.5.922-7.5.921-7.5 1.013-9.5 1.012-9.5 1.562-15 1.563-15 1.469-13 1.469-13 .947-9 .946-9 1.08-10.5 1.08-10.5 1.048-6.672 1.049-6.672-1.05-1.962-1.05-1.961-3.277-.57-3.277-.569-12.5-.476-12.5-.476-6.999.87M278 93.84l-2.5.745-.526 4.457-.526 4.458-.701 1.117-.701 1.118-4.647.523-4.646.524-.861 1.359-.861 1.359-.016 7.775-.015 7.775 2.565.975 2.565.975h5.625l1.054 1.27 1.053 1.269.319 4.481.319 4.48h18l1.046-5.5 1.047-5.5 5.453-1.051 5.454-1.051.294-8.43.294-8.43-1.735-1.269-1.735-1.269h-5.454l-1.582-.607-1.582-.607v-7.404l-1.366-1.867-1.365-1.868-5.885-.276-5.884-.276-2.5.745m-83.805 5.66.037 3 .461-1.769.461-1.769-.498-1.231-.498-1.231.037 3m1 11 .037 3 .461-1.769.461-1.769-.498-1.231-.498-1.231.037 3m1.077 20.5v4.5l.434-2.25.433-2.25-.433-2.25-.434-2.25v4.5m.96 12v3.5l.457-1.75.458-1.75-.458-1.75-.457-1.75v3.5m.963 11.5.037 3 .461-1.769.461-1.769-.498-1.231-.498-1.231.037 3m-15 10 .037 3 .461-1.769.461-1.769-.498-1.231-.498-1.231.037 3m16.057 11 .02 4 .435-2.262.435-2.261-.455-1.739-.455-1.738.02 4m.98 12.5v3.5l.457-1.75.458-1.75-.458-1.75-.457-1.75v3.5m-125.413 5.749 24.319.287 23.681-.287 23.681-.287h-48l-48 .001 24.319.286m126.433 3.751.02 4 .435-2.262.435-2.261-.455-1.739-.455-1.738.02 4m-23.057 9 .037 3 .461-1.769.461-1.769-.498-1.231-.498-1.231.037 3M129 209.313v.313l3.25 2.937 3.25 2.937-2.937-3.25-2.937-3.25H129v.313m73.195 9.187.037 3 .461-1.769.461-1.769-.498-1.231-.498-1.231.037 3m1.057 12 .02 4 .435-2.262.435-2.261-.455-1.739-.455-1.738.02 4m-52.252 1 2.349 2.5h1L152 231.5l-2.349-2.5h-1l2.349 2.5m53.252 9 .02 4 .435-2.262.435-2.261-.455-1.739-.455-1.738.02 4m-36.38 5.75 1.373 1.75H172l-.015-1.75-.016-1.75-.908 1.436-.909 1.435-1.826-1.435-1.826-1.436 1.372 1.75m37.323 6.25.037 3 .461-1.769.461-1.769-.498-1.231-.498-1.231.037 3m-10.109 12.118 2.414 3.118.447-.398.447-.399-2.861-2.719-2.861-2.72 2.414 3.118M206.232 273v3.5l.457-1.75.458-1.75-.458-1.75-.457-1.75v3.5m1.054 11.5.014 5 .418-2.764.417-2.763-.431-2.237-.432-2.236.014 5M315 299l2 2v2.333l.635-.635.636-.636-1.659-2.531-1.658-2.531H313l2 2m-229.349-.25-.466.75 6.657-.276 6.658-.276 3-.314 3-.314-9.191-.16-9.191-.16-.467.75m266.053 7.046 1.204.765.345 7.97.345 7.969.201-8.75L354 305l-1.75.015-1.75.016 1.204.765M52.136 322.168 52 323.836l-.647 1.832-.647 1.832 1.231-1.135 1.232-1.134-.448-2.366-.449-2.365-.136 1.668m314.057 6.582L366 336h-13l.215 12.25.215 12.25.317-11.75.316-11.75h12l.52-1.355.52-1.356-.359-6.394-.359-6.395-.192 7.25M225.232 326v3.5l.457-1.75.458-1.75-.458-1.75-.457-1.75v3.5M152 327.5l2.349 2.5h1L153 327.5l-2.349-2.5h-1l2.349 2.5m23.924.25-2.424 2.75 3-2.5 3-2.5.417-.25.416-.25h-1.984l-2.425 2.75M424 326.313v.313l3.25 2.937 3.25 2.937-2.937-3.25-2.937-3.25H424v.313m-180.559 2.155-1.941 1.468 1.128.032 1.127.032 1.245-1.5 1.245-1.5h-.863l-1.941 1.468m-116.191 5.221 1.75.458 1.75-.458 1.75-.457h-7l1.75.457m81.75 1.238v.926l-1.75.458-1.75.457 2.25.116L210 337v-3h-1v.927m190.441.628-1.941 1.555 2.5-1.19 2.5-1.191.417-.364.416-.365h-1.951l-1.941 1.555m-70.691 1.151 2.25.433 2.25-.433 2.25-.434h-9l2.25.434m-201.5 5.983 1.75.458 1.75-.458 1.75-.457h-7l1.75.457M47.195 347.5l.037 3 .461-1.769.461-1.769-.498-1.231-.498-1.231.037 3m388.133 4 .008 7 .394-3.772.393-3.773-.401-3.227-.402-3.228.008 7M206 348.35v.42l2.623 1.719 2.623 1.718-.679-1.098-.678-1.098-1.945-1.041-1.944-1.04v.42m-29.278 3.7 2.222 2.339.43-.445.43-.444-2.652-1.894-2.652-1.894 2.222 2.338m-103.45 4.162.319 2.712.705.705.704.704-.015-1.916-.016-1.917-1.008-1.5-1.008-1.5.319 2.712M30 358.441v1.441l1 .618 1 .618V357h-2v1.441m164 2.729 2.5 2.438.35-.237.35-.238-.656-1.061-.655-1.061-2.195-1.139-2.194-1.14 2.5 2.438m-71 3.489v.992l2.75 2.425 2.75 2.424-2.5-3-2.5-3-.25-.417-.25-.416v.992m236.269 2.034 1.769.461 1.231-.498 1.231-.498-3 .037-3 .037 1.769.461M159.286 374.5l.014 5 .418-2.764.417-2.763-.431-2.237-.432-2.236.014 5m221.714 0 3.392 3.5h1L382 374.5l-3.392-3.5h-1l3.392 3.5m-174.955 3.124-3.456 2.454-.544.588-.545.588 3.073-1.561 3.073-1.561 1.299-1.566 1.3-1.566-.373.086-.372.085-3.455 2.453m-67.545.964-3 2.577 3.25-2.15 3.25-2.151V376l-.25.005-.25.005-3 2.578"/>
</svg>
