<svg xmlns="http://www.w3.org/2000/svg" width="538" height="213" fill="#505ae9" xmlns:v="https://vecta.io/nano"><path d="M105.46 119c-4.353-.27-8.611-1.395-12.53-3.31l44.49-43.73L153.6 56c-5.275-7.415-12.254-13.454-20.35-17.609a56.82 56.82 0 0 0-26.17-6.271c-27.49.3-52.19 21.48-54.74 49.16a52.54 52.54 0 0 0 9.11 34.38 58.26 58.26 0 0 0 15.61 15.57c8.439 5.78 18.339 9.056 28.56 9.45 19 .59 36.34-9.68 46.83-24.5l-15.51-14.56c-3.143 5.51-7.744 10.048-13.297 13.114s-11.845 4.542-18.183 4.266h0zM74 85.56c.45-17.39 15.28-30.8 31.68-31.68a33.42 33.42 0 0 1 15 2.72L77.14 100A31 31 0 0 1 74 85.56h0zm85.51-55.08v103.57c-.77 2-1.59 5.56-2.94 8.58a25.56 25.56 0 0 1-4.41 6.65c-6.73 7.84-16 10.54-18.74 11.25l-17.53.18v21.51h13.81a34.97 34.97 0 0 0 2.87.12 34.24 34.24 0 0 0 15.49-3.68h.05a32.12 32.12 0 0 0 2.37-1.12 33.69 33.69 0 0 0 6-3.68h0a55.54 55.54 0 0 0 3-1.91 33.03 33.03 0 0 0 4.63-4.05h0a33.83 33.83 0 0 0 7.89-9.5c1.942-2.468 3.524-5.198 4.7-8.11a33.36 33.36 0 0 0 4.8-17.3V30.48h-21.99z"/><path d="M116.83 120.37l-.52.89.32-.4.2-.49zm.75-1.18l-.34.21-.34.77.09-.08.59-.9zm1.27-.81l-.42.44.93-.74-.51.3zm179.03-33.62v-1.05-.13A53.26 53.26 0 0 0 296.16 72a54.6 54.6 0 0 0-52.93-40.54c-30.19 0-54.66 24.23-54.66 54.12a54.43 54.43 0 0 0 48.62 53.78h60.38l.3-52v-1.83c.03-.22.02-.53.01-.77zm-23.12 33.94c-5.12.08-14.49.1-32.32-.28a31.76 31.76 0 0 1-15.13-3.93 33.01 33.01 0 0 1-12.498-12.164c-2.999-5.102-4.572-10.917-4.552-16.836 0-18.2 14.5-32.94 32.4-32.94 14.66 0 25.37 10.1 29.56 19.46a.42.42 0 0 1 0 .1A33.66 33.66 0 0 1 275 83.58l-.24 35.12zm94.48-65.11V31.2h-16.16v.48A42.56 42.56 0 0 0 326.32 41h0l-.21.13c-3.271 2.225-6.196 4.921-8.68 8-4.235 3.737-7.624 8.334-9.939 13.485A39.7 39.7 0 0 0 304 79v61.25h22.08V79a35 35 0 0 1 34-26.6 34.69 34.69 0 0 1 9.17 1.22l-.01-.03zm115.68 31.18v-1.06-.13A53.21 53.21 0 0 0 483.19 72a54.6 54.6 0 0 0-52.93-40.54c-30.19 0-54.66 24.23-54.66 54.12a54.43 54.43 0 0 0 48.62 53.78h60.39l.29-52v-1.82c.03-.23.02-.54.02-.77zM461.8 118.7c-5.13.08-14.5.1-32.33-.28a31.76 31.76 0 0 1-15.13-3.93 32.99 32.99 0 0 1-12.469-12.173c-2.991-5.102-4.556-10.913-4.531-16.827 0-18.2 14.5-32.94 32.4-32.94 14.66 0 25.37 10.1 29.56 19.46.021.031.037.065.05.1A33.67 33.67 0 0 1 462 83.58l-.2 35.12z"/></svg>