<svg xmlns="http://www.w3.org/2000/svg" width="500" height="500" viewBox="0 0 500 500" version="1.1"><path d="M 183.458 184 C 183.458 207.375, 183.589 216.938, 183.749 205.250 C 183.909 193.563, 183.909 174.438, 183.749 162.750 C 183.589 151.063, 183.458 160.625, 183.458 184 M 198.250 142.747 C 205.263 142.919, 216.738 142.919, 223.750 142.747 C 230.763 142.575, 225.025 142.435, 211 142.435 C 196.975 142.435, 191.238 142.575, 198.250 142.747 M 211.679 169.294 C 211.950 169.730, 211.711 170.644, 211.146 171.324 C 209.976 172.734, 209.103 198.061, 210.250 197.348 C 210.662 197.092, 211 191.339, 211 184.563 C 211 175.623, 211.360 171.947, 212.311 171.157 C 213.035 170.556, 218.739 169.939, 225.061 169.779 L 236.500 169.488 223.843 168.994 C 216.882 168.722, 211.408 168.857, 211.679 169.294 M 315.302 173.605 C 315.680 175.593, 315.352 177.481, 314.389 178.855 C 313.311 180.394, 313.232 181, 314.110 181 C 314.783 181, 315.146 181.119, 314.917 181.263 C 314.688 181.408, 309.029 181.296, 302.342 181.013 C 295.656 180.731, 290.371 180.799, 290.599 181.165 C 290.826 181.530, 290.447 182.064, 289.756 182.352 C 289.065 182.639, 294.575 182.790, 302 182.687 C 314.529 182.513, 315.477 182.367, 315.183 180.650 C 315.009 179.632, 315.286 179.059, 315.798 179.375 C 316.840 180.019, 316.430 172.060, 315.372 171.099 C 315.009 170.769, 314.978 171.897, 315.302 173.605 M 217.750 197.740 C 221.188 197.936, 226.813 197.936, 230.250 197.740 C 233.688 197.545, 230.875 197.385, 224 197.385 C 217.125 197.385, 214.313 197.545, 217.750 197.740 M 197.191 227.747 C 204.171 227.918, 215.871 227.919, 223.191 227.748 C 230.511 227.577, 224.800 227.436, 210.500 227.436 C 196.200 227.435, 190.211 227.575, 197.191 227.747 M 183.419 264 C 183.419 274.725, 183.566 279.113, 183.746 273.750 C 183.925 268.387, 183.925 259.613, 183.746 254.250 C 183.566 248.887, 183.419 253.275, 183.419 264 M 210.232 249 C 210.232 250.925, 210.438 251.713, 210.689 250.750 C 210.941 249.787, 210.941 248.213, 210.689 247.250 C 210.438 246.287, 210.232 247.075, 210.232 249 M 199.191 284.747 C 206.171 284.918, 217.871 284.919, 225.191 284.748 C 232.511 284.577, 226.800 284.436, 212.500 284.436 C 198.200 284.435, 192.211 284.575, 199.191 284.747 M 280.250 284.746 C 286.163 284.923, 295.837 284.923, 301.750 284.746 C 307.663 284.569, 302.825 284.425, 291 284.425 C 279.175 284.425, 274.337 284.569, 280.250 284.746" stroke="none" fill="#d6ba01" fill-rule="evenodd"/><path d="M 129.250 81.689 C 130.213 81.941, 131.787 81.941, 132.750 81.689 C 133.713 81.438, 132.925 81.232, 131 81.232 C 129.075 81.232, 128.287 81.438, 129.250 81.689 M 125 213 C 125 280.650, 125.338 336, 125.750 336 C 126.162 336, 126.500 280.650, 126.500 213 C 126.500 145.350, 126.162 90, 125.750 90 C 125.338 90, 125 145.350, 125 213 M 373.500 213 C 373.500 280.650, 373.837 336, 374.250 336 C 374.663 336, 375 280.650, 375 213 C 375 145.350, 374.663 90, 374.250 90 C 373.837 90, 373.500 145.350, 373.500 213 M 150.461 115.250 C 150.199 115.938, 150.103 160.375, 150.247 214 L 150.510 311.500 150.755 213.255 L 151 115.010 249.750 114.750 L 348.500 114.490 249.719 114.245 C 171.433 114.051, 150.838 114.259, 150.461 115.250 M 349.481 213 C 349.481 267.175, 349.602 289.337, 349.750 262.250 C 349.898 235.162, 349.898 190.837, 349.750 163.750 C 349.602 136.662, 349.481 158.825, 349.481 213 M 183.653 140.750 C 183.397 141.162, 190.458 141.384, 199.344 141.243 C 229.535 140.762, 232.560 140.412, 208.309 140.206 C 195.004 140.093, 183.909 140.338, 183.653 140.750 M 253.183 140.749 C 264.009 140.910, 282.009 140.910, 293.183 140.749 C 304.358 140.588, 295.500 140.456, 273.500 140.456 C 251.500 140.455, 242.358 140.587, 253.183 140.749 M 314.725 140.717 C 315.587 141.329, 316.043 146.614, 316.263 158.543 L 316.576 175.500 316.538 158.082 C 316.506 143.470, 316.258 140.599, 315 140.256 C 313.916 139.961, 313.839 140.089, 314.725 140.717 M 185.483 184.250 L 185.500 225.500 211 225.500 L 236.500 225.500 236.557 215.748 L 236.615 205.995 236.271 215.498 L 235.928 225 210.975 225 L 186.022 225 185.744 184 L 185.466 143 185.483 184.250 M 236.343 152.500 C 236.346 156.900, 236.522 158.576, 236.733 156.224 C 236.945 153.872, 236.942 150.272, 236.727 148.224 C 236.512 146.176, 236.339 148.100, 236.343 152.500 M 236.150 164.219 L 236 167.938 223.750 168.253 L 211.500 168.568 223.781 168.784 C 237.150 169.019, 237.551 168.850, 236.724 163.334 C 236.364 160.931, 236.277 161.065, 236.150 164.219 M 216.500 170.655 C 226.088 171.389, 236.778 171.440, 236.349 170.750 C 236.092 170.338, 230.621 170.079, 224.191 170.175 C 217.761 170.271, 214.300 170.487, 216.500 170.655 M 267.218 183.750 L 267.437 197.500 267.748 184.184 L 268.059 170.868 278.032 171.184 C 283.517 171.358, 288.003 171.162, 288.002 170.750 C 288.001 170.338, 283.275 170, 277.500 170 L 267 170 267.218 183.750 M 313.500 174.748 L 313.500 179.500 301.844 179.500 C 295.433 179.500, 290.397 179.838, 290.653 180.250 C 291.453 181.541, 312.468 181.132, 313.800 179.800 C 315.096 178.504, 315.486 170.001, 314.250 169.998 C 313.837 169.997, 313.500 172.135, 313.500 174.748 M 209.392 184 C 209.392 191.425, 209.549 194.463, 209.742 190.750 C 209.934 187.037, 209.934 180.963, 209.742 177.250 C 209.549 173.537, 209.392 176.575, 209.392 184 M 211.389 184.500 C 211.390 191.650, 211.550 194.444, 211.742 190.708 C 211.935 186.973, 211.934 181.123, 211.739 177.708 C 211.545 174.294, 211.387 177.350, 211.389 184.500 M 236.382 185.500 C 236.384 192.100, 236.546 194.670, 236.741 191.211 C 236.937 187.752, 236.936 182.352, 236.738 179.211 C 236.540 176.070, 236.380 178.900, 236.382 185.500 M 298.287 183.740 C 301.469 183.939, 306.419 183.937, 309.287 183.736 C 312.154 183.535, 309.550 183.372, 303.500 183.374 C 297.450 183.376, 295.104 183.541, 298.287 183.740 M 315.997 212.797 L 316.494 228.500 316.775 213.578 C 316.929 205.370, 316.705 198.304, 316.278 197.875 C 315.850 197.445, 315.724 204.161, 315.997 212.797 M 209.652 199.250 C 209.908 199.662, 215.910 200, 222.989 200 C 235.528 200, 235.873 200.058, 236.344 202.250 C 236.770 204.233, 236.808 204.203, 236.664 202 L 236.500 199.500 222.843 199 C 215.331 198.725, 209.395 198.838, 209.652 199.250 M 267.436 228.305 C 267.161 229.023, 267.078 235.211, 267.251 242.055 L 267.568 254.500 267.784 241.296 L 268 228.091 274.750 227.742 L 281.500 227.392 274.719 227.196 C 269.915 227.057, 267.791 227.381, 267.436 228.305 M 313.781 254.549 L 314.062 282 291.031 282 L 268 282 268 269.534 L 268 257.068 278.502 256.731 L 289.004 256.393 278.252 256.447 L 267.500 256.500 267.500 269.500 L 267.500 282.500 291 282.500 L 314.500 282.500 314.767 255.567 C 314.913 240.753, 314.688 228.288, 314.267 227.865 C 313.845 227.443, 313.626 239.451, 313.781 254.549 M 315.999 256.701 C 315.724 272.212, 315.845 284.557, 316.266 284.135 C 316.688 283.713, 316.912 271.022, 316.765 255.934 L 316.498 228.500 315.999 256.701 M 183.651 243.750 C 183.395 244.162, 187.305 244.380, 192.342 244.234 C 208.883 243.752, 210.717 243.363, 197.309 243.180 C 190.054 243.081, 183.908 243.338, 183.651 243.750 M 211.286 249.500 C 211.294 252.250, 211.488 253.256, 211.718 251.736 C 211.947 250.216, 211.941 247.966, 211.704 246.736 C 211.467 245.506, 211.279 246.750, 211.286 249.500 M 185.465 264.249 L 185.500 282.500 211.250 282.767 C 225.412 282.914, 237 282.689, 237.001 282.267 C 237.001 281.845, 225.536 281.627, 211.523 281.783 L 186.045 282.066 185.738 264.032 L 185.430 245.998 185.465 264.249 M 208.601 249.517 C 208.745 254.564, 210 255.147, 210 250.167 C 210 247.875, 209.662 246, 209.250 245.999 C 208.838 245.999, 208.545 247.582, 208.601 249.517 M 209.652 256.250 C 209.908 256.663, 215.910 257, 222.989 257 C 235.528 257, 235.873 257.058, 236.344 259.250 C 236.770 261.233, 236.808 261.203, 236.664 259 L 236.500 256.500 222.843 256 C 215.331 255.725, 209.395 255.838, 209.652 256.250 M 236.272 266 C 236.272 268.475, 236.467 269.488, 236.706 268.250 C 236.944 267.012, 236.944 264.988, 236.706 263.750 C 236.467 262.512, 236.272 263.525, 236.272 266 M 369.382 376.500 C 369.384 383.100, 369.546 385.670, 369.741 382.211 C 369.937 378.752, 369.936 373.352, 369.738 370.211 C 369.540 367.070, 369.380 369.900, 369.382 376.500" stroke="none" fill="#e0c010" fill-rule="evenodd"/><path d="M 117.461 82.250 C 117.200 82.938, 117.103 141.775, 117.247 213 L 117.508 342.500 117.754 212.333 C 117.949 109.321, 118.261 82.061, 119.250 81.662 C 120.229 81.267, 120.222 81.141, 119.219 81.079 C 118.514 81.036, 117.723 81.563, 117.461 82.250 M 382.485 212.500 C 382.485 284, 382.604 313.103, 382.750 277.172 C 382.895 241.242, 382.895 182.742, 382.750 147.172 C 382.604 111.603, 382.485 141, 382.485 212.500 M 187.250 89.750 C 221.762 89.896, 278.237 89.896, 312.750 89.750 C 347.262 89.604, 319.025 89.485, 250 89.485 C 180.975 89.485, 152.737 89.604, 187.250 89.750 M 142.463 107.245 C 142.200 107.935, 142.101 155.975, 142.242 214 L 142.500 319.500 250 319.500 L 357.500 319.500 357.500 213 L 357.500 106.500 250.220 106.245 C 164.924 106.043, 142.843 106.248, 142.463 107.245 M 143 213 L 143 319 250 319 L 357 319 357 213 L 357 107 250 107 L 143 107 143 213 M 149.461 115.250 C 149.199 115.938, 149.100 160.375, 149.242 214 L 149.500 311.500 250 311.500 L 350.500 311.500 350.755 213.555 C 350.895 159.685, 350.670 115.270, 350.255 114.855 C 349.840 114.440, 349.617 158.402, 349.760 212.550 L 350.019 311 250 311 L 149.981 311 150.240 212.500 C 150.383 158.325, 150.373 114, 150.219 114 C 150.064 114, 149.723 114.563, 149.461 115.250 M 184 183.983 L 184 226.967 210.250 227.233 L 236.500 227.500 236.500 240.898 L 236.500 254.296 223.250 254.177 C 215.548 254.108, 210 254.453, 210 255 C 210 255.528, 215.830 256.065, 223.250 256.221 L 236.500 256.500 236.779 269.750 L 237.058 283 211.029 283 L 185 283 185 264.500 L 185 246 198.059 246 C 206.510 246, 210.900 245.647, 210.500 245 C 210.139 244.417, 204.490 244, 196.941 244 L 184 244 184 264 C 184 275, 184.338 284.026, 184.750 284.057 C 193.244 284.707, 314.363 284.037, 315.063 283.337 C 315.653 282.747, 315.922 266.052, 315.761 239.939 L 315.500 197.500 291.250 197.232 L 267 196.964 267 183.482 L 267 170 277.500 170 L 288 170 288 176 C 288 180.132, 288.389 182.001, 289.250 182.002 C 290.150 182.003, 290.404 180.308, 290.158 175.945 L 289.817 169.886 302.910 170.193 L 316.004 170.500 316.002 155.750 C 316.001 147.637, 315.663 140.999, 315.250 140.998 C 314.837 140.997, 314.636 147.289, 314.802 154.980 L 315.105 168.964 290.802 169.232 L 266.500 169.500 266.500 183.500 L 266.500 197.500 290.750 197.768 L 315 198.036 315 212.018 L 315 226 291.107 226 C 270.242 226, 267.137 226.200, 266.607 227.582 C 266.273 228.452, 266 234.490, 266 241 C 266 247.510, 266.273 253.548, 266.607 254.418 C 267.111 255.733, 269.141 256, 278.607 256 L 290 256 290 241.500 L 290 227 302.500 227 L 315 227 315 255 L 315 283 291.029 283 L 267.058 283 266.747 269.750 L 266.437 256.500 266.218 269.750 L 266 283 252.028 283 L 238.056 283 237.778 269.250 C 237.625 261.688, 237.620 229.968, 237.766 198.762 L 238.032 142.024 275.266 141.750 C 299.117 141.574, 289.406 141.390, 248.250 141.237 L 184 141 184 183.983 M 185.683 142.650 C 185.308 143.026, 185 161.933, 185 184.667 L 185 226 211.029 226 L 237.058 226 236.779 212.750 L 236.500 199.500 223.250 199.221 C 215.963 199.068, 209.999 198.618, 209.999 198.221 C 209.998 197.824, 215.961 197.500, 223.249 197.500 L 236.500 197.500 236.500 170 L 236.500 142.500 211.433 142.233 C 197.647 142.086, 186.059 142.274, 185.683 142.650 M 267.700 227.633 C 266.755 228.579, 266.802 253.797, 267.750 254.204 C 268.163 254.381, 272.900 254.376, 278.279 254.194 L 288.057 253.861 287.779 240.681 L 287.500 227.500 277.950 227.216 C 272.698 227.060, 268.086 227.248, 267.700 227.633 M 187.750 336.750 C 221.988 336.896, 278.013 336.896, 312.250 336.750 C 346.488 336.604, 318.475 336.485, 250 336.485 C 181.525 336.485, 153.512 336.604, 187.750 336.750 M 184.250 343.750 C 220.413 343.895, 279.588 343.895, 315.750 343.750 C 351.913 343.604, 322.325 343.485, 250 343.485 C 177.675 343.485, 148.088 343.604, 184.250 343.750 M 187.264 356.718 C 188.784 356.947, 191.034 356.941, 192.264 356.704 C 193.494 356.467, 192.250 356.279, 189.500 356.286 C 186.750 356.294, 185.744 356.488, 187.264 356.718 M 300.750 356.706 C 301.988 356.944, 304.012 356.944, 305.250 356.706 C 306.488 356.467, 305.475 356.272, 303 356.272 C 300.525 356.272, 299.512 356.467, 300.750 356.706 M 119.460 358.245 C 119.187 358.954, 119.093 371.002, 119.250 385.017 L 119.536 410.500 119.768 384.250 L 120 358 137.940 358 L 155.879 358 156.294 361.509 L 156.710 365.017 156.605 361.259 L 156.500 357.500 138.227 357.227 C 124.031 357.016, 119.844 357.242, 119.460 358.245 M 224.451 358.267 C 224.184 358.964, 224.093 371.002, 224.250 385.017 L 224.536 410.500 224.768 384.305 L 225 358.110 229.750 357.735 L 234.500 357.360 229.719 357.180 C 226.639 357.064, 224.764 357.451, 224.451 358.267 M 263.779 357.741 C 268.041 357.983, 269.839 358.452, 269.375 359.203 C 268.958 359.876, 269.149 360.026, 269.862 359.585 C 272.335 358.057, 269.630 357.008, 263.691 357.193 L 257.500 357.385 263.779 357.741 M 337.437 358.303 C 337.140 359.077, 337.059 362.588, 337.256 366.105 L 337.615 372.500 337.807 365.250 L 338 358 342.978 358 L 347.957 358 348.261 376.750 L 348.565 395.500 348.532 376.500 L 348.500 357.500 343.239 357.197 C 339.424 356.978, 337.829 357.282, 337.437 358.303 M 372 357.558 C 375.716 358.367, 380.814 358.509, 380.371 357.791 C 380.102 357.356, 377.771 357.052, 375.191 357.116 C 372.611 357.180, 371.175 357.379, 372 357.558 M 252.946 361.750 L 249.500 365.500 253.250 362.054 C 256.740 358.846, 257.460 358, 256.696 358 C 256.529 358, 254.842 359.688, 252.946 361.750 M 283.946 363.750 L 280.500 367.500 284.250 364.054 C 286.313 362.158, 288 360.471, 288 360.304 C 288 359.540, 287.154 360.260, 283.946 363.750 M 380.413 377.500 C 380.414 387.400, 380.564 391.315, 380.746 386.199 C 380.928 381.084, 380.927 372.984, 380.744 368.199 C 380.561 363.415, 380.412 367.600, 380.413 377.500 M 321.094 363.442 C 321.970 364.574, 323.433 366.613, 324.344 367.973 C 325.255 369.332, 326 369.970, 326 369.389 C 326 368.808, 324.538 366.770, 322.750 364.858 C 320.962 362.947, 320.217 362.310, 321.094 363.442 M 187.762 365.707 C 189.006 365.946, 190.806 365.937, 191.762 365.687 C 192.718 365.437, 191.700 365.241, 189.500 365.252 C 187.300 365.263, 186.518 365.468, 187.762 365.707 M 244.462 371.250 L 239.500 376.500 244.750 371.538 C 247.637 368.808, 250 366.446, 250 366.288 C 250 365.541, 249.074 366.372, 244.462 371.250 M 203.743 381.241 C 204.283 390.314, 204.753 391.466, 204.869 384 C 204.924 380.425, 204.610 376.934, 204.170 376.241 C 203.731 375.549, 203.539 377.799, 203.743 381.241 M 140.500 379.597 C 145.103 380.346, 152.777 380.444, 152.347 379.750 C 152.091 379.337, 148.871 379.061, 145.191 379.136 C 141.511 379.211, 139.400 379.419, 140.500 379.597 M 215.286 383.500 C 215.294 386.250, 215.488 387.256, 215.718 385.736 C 215.947 384.216, 215.941 381.966, 215.704 380.736 C 215.467 379.506, 215.279 380.750, 215.286 383.500 M 163.286 384.500 C 163.294 387.250, 163.488 388.256, 163.718 386.736 C 163.947 385.216, 163.941 382.966, 163.704 381.736 C 163.467 380.506, 163.279 381.750, 163.286 384.500 M 174.272 384 C 174.272 386.475, 174.467 387.488, 174.706 386.250 C 174.944 385.012, 174.944 382.988, 174.706 381.750 C 174.467 380.512, 174.272 381.525, 174.272 384 M 276.252 384.500 C 276.263 386.700, 276.468 387.482, 276.707 386.238 C 276.946 384.994, 276.937 383.194, 276.687 382.238 C 276.437 381.282, 276.241 382.300, 276.252 384.500 M 238.437 391.250 L 235.500 394.500 238.750 391.563 C 240.537 389.948, 242 388.485, 242 388.313 C 242 387.540, 241.175 388.221, 238.437 391.250" stroke="none" fill="#c7aa01" fill-rule="evenodd"/><path d="M 118 212.500 L 118 343 250 343 L 382 343 382 212.500 L 382 82 250 82 L 118 82 118 212.500 M 125.246 212.750 L 125.500 336.500 250 336.500 L 374.500 336.500 374.754 212.750 L 375.008 89 250 89 L 124.992 89 125.246 212.750 M 143 213 L 143 319 250 319 L 357 319 357 213 L 357 107 250 107 L 143 107 143 213 M 149.463 115.245 C 149.200 115.935, 149.100 160.375, 149.242 214 L 149.500 311.500 250 311.500 L 350.500 311.500 350.500 213 L 350.500 114.500 250.220 114.245 C 170.525 114.043, 149.843 114.248, 149.463 115.245 M 275.266 141.762 L 238.032 142.024 237.766 198.762 C 237.620 229.968, 237.625 261.688, 237.778 269.250 L 238.056 283 252.028 283 L 266 283 266.098 269.750 C 266.153 262.462, 266.114 250.562, 266.014 243.305 C 265.913 236.048, 266.124 229.185, 266.483 228.055 C 267.117 226.057, 267.799 226, 291.067 226 L 315 226 315 212.018 L 315 198.036 290.750 197.768 L 266.500 197.500 266.500 183.500 L 266.500 169.500 290.778 169.232 L 315.056 168.964 314.778 155.314 C 314.612 147.137, 314.099 141.631, 313.500 141.582 C 312.950 141.537, 295.745 141.618, 275.266 141.762 M 181.500 357.865 C 170.707 360.698, 164.766 369.052, 164.150 382.263 C 163.535 395.418, 167.195 403.100, 176.740 408.693 C 180.689 411.008, 182.465 411.388, 189.416 411.404 C 198.569 411.426, 202.117 410.063, 208.280 404.157 C 212.861 399.768, 215 393.334, 215 383.944 C 215 367.532, 206.876 358.265, 191.785 357.464 C 187.778 357.252, 183.150 357.432, 181.500 357.865 M 296.500 357.431 C 295.950 357.648, 294.236 358.105, 292.691 358.446 C 288.466 359.381, 281.369 366.475, 279.303 371.829 C 277.125 377.472, 276.893 390.669, 278.872 396.336 C 280.733 401.665, 285.599 406.881, 290.966 409.300 C 297.577 412.280, 310.008 412.166, 315.500 409.075 C 325.941 403.199, 330.536 391.941, 327.993 378.463 C 325.459 365.033, 317.603 357.948, 304.596 357.358 C 300.693 357.182, 297.050 357.214, 296.500 357.431 M 120 384.555 L 120 411.110 124.750 410.805 L 129.500 410.500 129.782 399.282 L 130.065 388.065 141.282 387.782 L 152.500 387.500 152.814 384.243 C 153.009 382.215, 152.632 380.814, 151.814 380.530 C 151.091 380.280, 146 379.857, 140.500 379.591 C 135 379.324, 130.366 379.082, 130.202 379.053 C 130.039 379.024, 130.039 376.188, 130.202 372.750 L 130.500 366.500 143.250 366.220 L 156 365.940 156 361.970 L 156 358 138 358 L 120 358 120 384.555 M 225 384.555 L 225 411.110 229.750 410.805 L 234.500 410.500 235 402.175 C 235.498 393.877, 235.514 393.836, 239.835 389.810 C 242.219 387.588, 244.526 386.159, 244.961 386.635 C 245.397 387.111, 246.933 389.653, 248.375 392.283 C 249.818 394.914, 251.633 398.064, 252.410 399.283 C 253.187 400.503, 254.942 403.525, 256.309 406 L 258.796 410.500 265.398 410.796 C 269.029 410.958, 272 410.868, 272 410.595 C 272 410.322, 267.484 403.236, 261.965 394.849 C 256.446 386.461, 252.059 379.043, 252.215 378.364 C 252.372 377.685, 256.550 372.938, 261.500 367.815 L 270.500 358.500 264.061 358.197 L 257.622 357.895 246.362 369.697 L 235.102 381.500 235.051 369.750 L 235 358 230 358 L 225 358 225 384.555 M 338 377.878 C 338 399.161, 338.595 402.472, 343.163 406.625 C 347.460 410.532, 350.257 411.347, 359.500 411.384 C 367.712 411.417, 368.864 411.176, 372.659 408.637 C 379.266 404.217, 379.873 401.617, 380.049 376.991 L 380.182 358.500 375.091 358.198 L 370 357.895 370 377.225 C 370 398.756, 369.678 399.983, 363.333 402.634 C 358.420 404.687, 352.557 402.962, 349.958 398.699 C 348.207 395.828, 348.007 393.578, 348.004 376.750 L 348 358 343 358 L 338 358 338 377.878 M 182.574 367.266 C 177.211 370.318, 174.235 376.396, 174.235 384.302 C 174.235 394.504, 178.295 400.703, 186.476 402.993 C 196.634 405.837, 205 396.889, 205 383.181 C 205 375.210, 201.394 368.972, 195.282 366.370 C 190.733 364.433, 187.104 364.689, 182.574 367.266 M 297.741 366.429 C 293.013 368.116, 291.430 369.431, 289.521 373.259 C 287.453 377.404, 287.478 390.646, 289.561 394.822 C 292.671 401.056, 300.119 404.634, 306.384 402.904 C 314.745 400.596, 318.593 393.534, 317.769 382.011 C 317.166 373.585, 314.360 368.775, 308.730 366.514 C 304.194 364.693, 302.641 364.681, 297.741 366.429" stroke="none" fill="#891d17" fill-rule="evenodd"/><path d="M 114.441 83.468 C 112.794 84.714, 112.748 84.941, 114.143 84.968 C 115.047 84.986, 116.045 84.325, 116.362 83.500 C 117.077 81.637, 116.867 81.633, 114.441 83.468 M 126.463 91.246 C 126.200 91.936, 126.101 147.175, 126.243 214 L 126.500 335.500 250 335.500 L 373.500 335.500 373.500 213 L 373.500 90.500 250.220 90.246 C 152.123 90.044, 126.843 90.248, 126.463 91.246 M 142 213 C 142 314.237, 142.094 320, 143.750 320.002 C 163.220 320.023, 351.588 320.044, 354.250 320.026 L 358 320 358 213 L 358 106 250 106 L 142 106 142 213 M 151 213 L 151 311 250 311 L 349 311 349 213 L 349 115 250 115 L 151 115 151 213 M 183.460 141.243 C 183.195 141.934, 183.095 161.625, 183.239 185 L 183.500 227.500 210 228 L 236.500 228.500 236.491 241 L 236.481 253.500 224.241 253.781 L 212 254.062 212 249.653 C 212 247.111, 211.412 244.757, 210.611 244.092 C 209.678 243.318, 204.989 243.031, 196.361 243.219 L 183.500 243.500 183.500 264 L 183.500 284.500 250 284.500 L 316.500 284.500 316.500 241 L 316.500 197.500 292.250 197.232 L 268 196.964 268 183.946 L 268 170.928 277.750 171.214 L 287.500 171.500 287.810 176.978 C 287.981 179.991, 288.605 182.756, 289.198 183.122 C 291.043 184.263, 312.844 184.154, 315.012 182.993 C 316.963 181.949, 317.030 181.123, 316.770 161.204 L 316.500 140.500 250.221 140.243 C 197.730 140.039, 183.842 140.247, 183.460 141.243 M 186 183.983 L 186 225 210.934 225 L 235.867 225 236.184 214.750 C 236.680 198.655, 237.991 200.103, 222.639 199.778 L 209.500 199.500 209.500 184 L 209.500 168.500 222.750 168.221 L 236 167.942 236.045 164.471 C 236.070 162.562, 236.112 157.063, 236.137 152.250 L 236.183 143.500 211.091 143.233 L 186 142.966 186 183.983 M 290.411 171.372 C 290.107 172.163, 290.003 174.315, 290.180 176.155 L 290.500 179.500 302 179.500 L 313.500 179.500 313.500 175 L 313.500 170.500 302.231 170.217 C 293.165 169.989, 290.855 170.215, 290.411 171.372 M 212 184 L 212 197 223.941 197 L 235.882 197 236.191 184.750 C 236.361 178.012, 236.361 172.162, 236.191 171.750 C 236.021 171.338, 230.509 171, 223.941 171 L 212 171 212 184 M 290.493 228.217 C 290.234 228.923, 289.905 235.575, 289.761 243 L 289.500 256.500 278.750 256.784 L 268 257.068 268 269.534 L 268 282 291.016 282 L 314.032 282 313.766 254.750 L 313.500 227.500 302.231 227.217 C 293.766 227.005, 290.846 227.253, 290.493 228.217 M 268 241 L 268 254 278 254 L 288 254 288 241 L 288 228 278 228 L 268 228 268 241 M 186 263.984 L 186 282.034 211.204 281.767 L 236.408 281.500 236.256 271 C 236.172 265.225, 236.080 259.712, 236.052 258.750 C 236.005 257.176, 234.693 257, 222.969 257 C 208.552 257, 208.802 257.120, 208.604 250.148 L 208.500 246.500 197.250 246.217 L 186 245.934 186 263.984" stroke="none" fill="#f8eb07" fill-rule="evenodd"/></svg>