<svg xmlns="http://www.w3.org/2000/svg" width="764" height="392">
  <path fill="#0f5f19" fill-rule="evenodd" d="M364.5 29.105c-7.15 3.313-24.25 11.554-38 18.313A46977.866 46977.866 0 0 1 268 76.104L234.5 92.5l-91.355.188c-50.245.104-91.645.478-92 .833-.984.984-1.308 187.365-.328 189.116.759 1.356 11.387 1.55 92.77 1.697l91.913.166 36 17.842c97.916 48.53 106.734 52.691 111.626 52.674 4.936-.017 7.116-1.039 102.781-48.159 21.124-10.405 40.249-19.343 42.5-19.863 2.403-.555 40.937-.955 93.348-.97L711.01 286l-.255-95.75-.255-95.75L618 94l-92.5-.5L490 75.856c-19.525-9.704-42.475-21.008-51-25.121-8.525-4.112-24.704-12.035-35.954-17.606-11.249-5.571-21.599-10.111-23-10.089-1.4.022-8.396 2.751-15.546 6.065M349.968 57.39c-16.793 8.31-48.068 23.66-69.5 34.11l-38.968 19-83.5-.352c-45.925-.194-84.737-.033-86.25.358l-2.75.711v77.284c0 69.551.158 77.346 1.582 77.892.87.334 39.982.607 86.915.607h85.333l20.335 10.118c19.188 9.547 66.393 32.55 102.649 50.021 8.972 4.324 16.895 7.861 17.605 7.861.71 0 14.294-6.349 30.186-14.11 45.539-22.237 70.513-34.464 89.395-43.768l17.5-8.622 86.75-.271 86.75-.272v-77.371c0-69.631-.158-77.433-1.582-77.979-.87-.334-40.145-.607-87.277-.607-73.829 0-85.987-.204-87.797-1.472-1.156-.809-15.094-7.736-30.973-15.392C419.694 62.987 387.499 47.056 383 43.985c-2.472-1.687-2.84-1.537-33.032 13.405m-203.56 76.576c-17.509 3.748-32.522 15.926-38.39 31.143-4.251 11.025-5.587 20.219-4.177 28.756 1.382 8.368 5.792 19.498 10.032 25.316 4.339 5.954 14.173 13.194 23.127 17.027 7.09 3.034 8.156 3.207 19.5 3.156 10.002-.045 13.248-.467 19.5-2.537l7.5-2.483.676-4.422c.935-6.116.993-27.926.074-27.905-.412.009-2.6 1.921-4.862 4.25-2.62 2.698-6.354 5.11-10.294 6.651-5.696 2.228-6.67 2.328-12.365 1.269-8.863-1.649-14.461-4.859-18.375-10.538-4.408-6.396-5.72-11.637-4.966-19.837.782-8.515 1.67-10.763 6.249-15.832 4.944-5.473 10.45-8.137 18.081-8.75 7.867-.631 13.462 1.351 20.886 7.398 2.952 2.404 5.599 4.372 5.882 4.372.283 0 .514-6.998.514-15.551v-15.551l-3.495-1.461c-9.782-4.086-26.778-6.252-35.097-4.471m462.855 2.548c-11.809 2.566-24.608 11.253-31.166 21.153-1.686 2.546-4.445 8.206-6.132 12.579-7.177 18.613-2.086 41.928 12.244 56.062 6.688 6.598 15.859 11.826 25.02 14.265 10.024 2.669 25.242 1.212 36.021-3.448l4.75-2.054v-15.035c0-8.27-.278-15.036-.618-15.036-.34 0-2.231 1.416-4.203 3.147-1.971 1.731-6.446 4.487-9.943 6.123-7.622 3.567-11.736 3.413-21.101-.79-13.863-6.221-18.627-18.39-14.023-35.821 2.032-7.696 11.734-15.248 22.054-17.168 5.301-.986 13.596 1.748 21.295 7.019l6.539 4.477v-29.946l-3.888-1.984c-9.019-4.601-24.935-6.131-36.849-3.543M339 188.5V240l21.75-.004c26.428-.005 37.451-1.494 48.031-6.489 9.065-4.28 15.56-10.76 20.114-20.068 4.667-9.537 6.079-15.469 6.093-25.584.029-20.984-11.709-39.105-29.704-45.856-10.309-3.867-20.254-4.996-44.034-4.998L339 137v51.5m34.5-27.662c-5.55.627-5.501.381-5.485 27.534.009 14.159.431 25.783.968 26.628 1.642 2.588 13.285 1.783 21.283-1.472 7.622-3.102 9.765-5.322 12.693-13.149 3.444-9.203 2.106-23.266-2.879-30.267-3.995-5.611-17.447-10.304-26.58-9.274"/>
  <path fill="#f8ed06" fill-rule="evenodd" d="M349.968 57.39c-16.793 8.31-48.068 23.66-69.5 34.11l-38.968 19-83.5-.352c-45.925-.194-84.737-.033-86.25.358l-2.75.711v77.284c0 69.551.158 77.346 1.582 77.892.87.334 39.982.607 86.915.607h85.333l20.335 10.118c19.188 9.547 66.393 32.55 102.649 50.021 8.972 4.324 16.895 7.861 17.605 7.861.71 0 14.294-6.349 30.186-14.11 45.539-22.237 70.513-34.464 89.395-43.768l17.5-8.622 86.75-.271 86.75-.272v-77.371c0-69.631-.158-77.433-1.582-77.979-.87-.334-40.145-.607-87.277-.607-73.829 0-85.987-.204-87.797-1.472-1.156-.809-15.094-7.736-30.973-15.392C419.694 62.987 387.499 47.056 383 43.985c-2.472-1.687-2.84-1.537-33.032 13.405m-203.56 76.576c-17.509 3.748-32.522 15.926-38.39 31.143-4.251 11.025-5.587 20.219-4.177 28.756 1.382 8.368 5.792 19.498 10.032 25.316 4.339 5.954 14.173 13.194 23.127 17.027 7.09 3.034 8.156 3.207 19.5 3.156 10.002-.045 13.248-.467 19.5-2.537l7.5-2.483.676-4.422c.935-6.116.993-27.926.074-27.905-.412.009-2.6 1.921-4.862 4.25-2.62 2.698-6.354 5.11-10.294 6.651-5.696 2.228-6.67 2.328-12.365 1.269-8.863-1.649-14.461-4.859-18.375-10.538-4.408-6.396-5.72-11.637-4.966-19.837.782-8.515 1.67-10.763 6.249-15.832 4.944-5.473 10.45-8.137 18.081-8.75 7.867-.631 13.462 1.351 20.886 7.398 2.952 2.404 5.599 4.372 5.882 4.372.283 0 .514-6.998.514-15.551v-15.551l-3.495-1.461c-9.782-4.086-26.778-6.252-35.097-4.471m462.855 2.548c-11.809 2.566-24.608 11.253-31.166 21.153-1.686 2.546-4.445 8.206-6.132 12.579-7.177 18.613-2.086 41.928 12.244 56.062 6.688 6.598 15.859 11.826 25.02 14.265 10.024 2.669 25.242 1.212 36.021-3.448l4.75-2.054v-15.035c0-8.27-.278-15.036-.618-15.036-.34 0-2.231 1.416-4.203 3.147-1.971 1.731-6.446 4.487-9.943 6.123-7.622 3.567-11.736 3.413-21.101-.79-13.863-6.221-18.627-18.39-14.023-35.821 2.032-7.696 11.734-15.248 22.054-17.168 5.301-.986 13.596 1.748 21.295 7.019l6.539 4.477v-29.946l-3.888-1.984c-9.019-4.601-24.935-6.131-36.849-3.543M339 188.5V240l21.75-.004c26.428-.005 37.451-1.494 48.031-6.489 9.065-4.28 15.56-10.76 20.114-20.068 4.667-9.537 6.079-15.469 6.093-25.584.029-20.984-11.709-39.105-29.704-45.856-10.309-3.867-20.254-4.996-44.034-4.998L339 137v51.5m34.5-27.662c-5.55.627-5.501.381-5.485 27.534.009 14.159.431 25.783.968 26.628 1.642 2.588 13.285 1.783 21.283-1.472 7.622-3.102 9.765-5.322 12.693-13.149 3.444-9.203 2.106-23.266-2.879-30.267-3.995-5.611-17.447-10.304-26.58-9.274"/>
</svg>
