<svg xmlns="http://www.w3.org/2000/svg" width="1568" height="524">
  <path fill="#040404" fill-rule="evenodd" d="M181.446 103.466c-14.281 4.556-23.49 13.629-28.441 28.02-7.783 22.621 7.924 48.949 31.916 53.499 3.301.626 32.232 1.015 75.505 1.015 75.142 0 75.857-.043 85.779-5.105 6.472-3.301 14.466-11.976 18.081-19.621 2.677-5.659 3.262-8.205 3.557-15.472.726-17.917-8.094-32.288-24.62-40.117L336.5 102.5l-75.5-.164c-59.363-.128-76.367.113-79.554 1.13m71.054 98.022c-10.328 2.802-20.397 10.541-25.874 19.887-5.485 9.36-5.595 11.061-5.611 86.739-.009 42.645.375 71.671.993 74.926 3.345 17.638 17.836 31.394 35.739 33.924 19.749 2.792 38.616-9.174 45.356-28.764 1.796-5.219 1.896-9.438 1.886-79.107-.011-77.604 0-77.391-4.559-86.241-8.797-17.077-29.581-26.342-47.93-21.364"/>
  <path fill="#faca22" fill-rule="evenodd" d="M233 .957c-26.547 2.669-58.886 12.143-85.5 25.048C70.014 63.577 15.742 137.296 2.472 223 .242 237.401-.564 270.673.929 286.676c5.511 59.059 31.03 114.188 72.936 157.563 64.304 66.558 160.129 94.223 249.951 72.16 50.74-12.463 94.574-38.483 131.109-77.827 47.447-51.095 73.246-123.915 68.314-192.822-4.769-66.637-30.247-122.863-76.702-169.272C407.21 37.189 363.457 14.529 304.5 2.914c-9.287-1.83-15.128-2.21-37.5-2.439-14.575-.15-29.875.067-34 .482M1004 69.5V100h14V39h-14v30.5M817.455 42.455c-1.35 1.35-2.455 3.62-2.455 5.045 0 3.468 4.168 7.508 7.705 7.468 5.512-.063 9.243-5.264 7.242-10.097-2.227-5.375-8.35-6.559-12.492-2.416m81.719-.141C894.738 47.036 898.082 55 904.5 55c3.818 0 7.5-3.698 7.5-7.534 0-6.76-8.215-10.06-12.826-5.152m-264.957-.176c-10.045 1.625-18.554 7.954-22.552 16.773-3.276 7.226-2.992 18.884.641 26.293 3.235 6.6 6.986 10.09 14.694 13.672 7.514 3.492 21.571 3.592 30.25.217l5.75-2.237V66h-24v12h10v4.883c0 4.219-.306 4.966-2.25 5.487-7.394 1.981-16.141-1.031-19.695-6.782-2.752-4.452-3.091-13.683-.675-18.356 4.443-8.592 15.209-11.132 24.333-5.742l2.981 1.761 4.128-4.376c2.27-2.406 4.139-4.866 4.153-5.466.04-1.727-9.147-6.263-14.032-6.929a820.068 820.068 0 0 1-6.443-.901c-1.1-.162-4.377.089-7.283.559M752 71.5V100l14.75-.042c16.392-.046 20.778-1.058 28.575-6.597 10.984-7.803 13.512-27.715 4.972-39.149C794.228 46.088 784.585 43 765.29 43H752v28.5m173-17c0 5.444-.03 5.5-3 5.5-2.933 0-3 .111-3 5s.067 5 3 5h3v10.032c0 15.319 2.784 19.954 12.469 20.757 2.991.248 6.584.163 7.985-.188 2.297-.577 2.546-1.121 2.546-5.563v-4.923l-4.25-.308-4.25-.307-.286-9.75-.286-9.75H948V60h-9V49h-14v5.5M766 71.499v16.775l6.417-.515c12.35-.992 17.726-5.923 17.726-16.259 0-10.234-4.978-14.84-17.393-16.094l-6.75-.682v16.775m-80.509-10.634c-12.336 5.604-16.091 22.687-7.21 32.802 9.629 10.967 27.961 10.179 36.21-1.558 2.724-3.876 3.009-5.021 3.009-12.109 0-7.084-.285-8.232-3-12.087-4.278-6.074-10.166-8.918-18.407-8.891-4.201.014-8.047.683-10.602 1.843m165.99-.471c-4.113 1.792-9.149 7.75-10.421 12.329-5.197 18.716 10.996 34.022 27.155 25.666 2.702-1.397 2.785-1.363 2.785 1.162 0 1.543-1.19 3.793-2.923 5.526-3.774 3.774-9.674 3.968-16.441.542l-4.704-2.381-2.966 4.311c-1.631 2.371-2.966 4.753-2.966 5.292 0 1.638 8.134 5.005 14.5 6.002 11.925 1.869 21.072-1.421 26-9.352l3-4.827.319-22.332.318-22.332h-6.568c-5.869 0-6.569.21-6.569 1.97 0 1.868-.188 1.842-3.64-.5-4.161-2.824-11.756-3.308-16.879-1.076m112.019.208c-2.2.804-4.89 2.35-5.978 3.435-1.97 1.966-1.964 1.988 1.596 5.548l3.574 3.573 3.404-2.075c4.046-2.467 9.147-2.697 11.333-.512 3.061 3.062 1.871 4.114-5.34 4.718C960.191 76.287 954 80.972 954 88.98c0 3.2.703 4.817 3.355 7.71 3.021 3.297 3.964 3.705 9.468 4.104 4.934.356 6.793.04 9.645-1.642 2.822-1.666 3.532-1.79 3.532-.618 0 1.141 1.474 1.466 6.653 1.466h6.653l-.589-14.519c-.677-16.709-2.388-21.56-8.722-24.729-4.311-2.157-14.792-2.233-20.495-.15M816 80v20h14V60h-14v20m82 0v20h14V60h-14v20m-208.077-7.077C687.631 75.216 687 76.742 687 80s.631 4.784 2.923 7.077c3.265 3.265 5.809 3.63 10.043 1.44C708.369 84.172 704.547 70 694.973 70c-1.17 0-3.442 1.315-5.05 2.923m167.154-.334C854.508 74.75 854 75.897 854 79.533c0 6.034 3.161 9.667 8.412 9.667 5.461 0 8.861-3.565 8.861-9.293 0-3.533-.547-4.763-3.152-7.091-3.92-3.502-7.075-3.567-11.044-.227M971.5 83.724c-4.711 1.158-6.115 5.341-2.451 7.302 3.325 1.779 8.559-.462 9.871-4.226.594-1.704 1.08-3.256 1.08-3.449 0-.489-6.078-.223-8.5.373M1273 217v133h59V84h-59v133M181.446 103.466c-14.281 4.556-23.49 13.629-28.441 28.02-7.783 22.621 7.924 48.949 31.916 53.499 3.301.626 32.232 1.015 75.505 1.015 75.142 0 75.857-.043 85.779-5.105 6.472-3.301 14.466-11.976 18.081-19.621 2.677-5.659 3.262-8.205 3.557-15.472.726-17.917-8.094-32.288-24.62-40.117L336.5 102.5l-75.5-.164c-59.363-.128-76.367.113-79.554 1.13M659.5 170.974c-10.602 2.298-21.649 6.08-30 10.271-7.12 3.573-19.24 11.784-22.474 15.227l-2.298 2.447 14.305 15.29c7.868 8.41 14.575 15.406 14.905 15.547.33.141 3.066-1.614 6.081-3.901 6.503-4.932 17.332-10.095 24.981-11.91 8.303-1.971 20.482-1.696 27 .61 10.065 3.56 17 12.832 17 22.731v2.401l-15.92.626c-72.193 2.843-105.615 28.809-94.844 73.687 5.819 24.241 30.486 40.314 61.764 40.245 18.815-.042 34.522-5.767 45.248-16.493L711 332v18h53v-50.539c0-28.149-.461-54.842-1.041-60.25-4.079-38.03-19.791-59.339-49.672-67.366-11.63-3.123-41.186-3.602-53.787-.871m211 0c-10.602 2.298-21.649 6.08-30 10.271-7.12 3.573-19.24 11.784-22.474 15.227l-2.298 2.447 14.305 15.29c7.868 8.41 14.575 15.406 14.905 15.547.33.141 3.066-1.614 6.081-3.901 6.503-4.932 17.332-10.095 24.981-11.91 8.303-1.971 20.482-1.696 27 .61 7.92 2.801 14.412 9.476 15.882 16.328 2.032 9.477 3.284 8.719-15.646 9.463-65.481 2.575-98.787 24.364-95.763 62.65.369 4.672 1.574 11.197 2.677 14.5 7.562 22.638 30.951 36.757 60.85 36.734 18.907-.015 34.614-5.765 45.25-16.566l5.75-5.839V350h53v-50.539c0-28.149-.461-54.842-1.041-60.25-4.078-38.026-19.519-59.021-49.46-67.252-11.772-3.236-41.141-3.772-53.999-.985m262-1.012c-8.503.977-21.06 5.081-28.5 9.315-3.025 1.721-8.537 6.093-12.25 9.714l-6.75 6.585V174h-56v261h59V332.075l4.75 4.627c12.731 12.402 28.639 18.298 49.368 18.298 21.889 0 40.441-7.585 55.655-22.755 31.417-31.324 36.004-89.124 10.128-127.598-16.654-24.762-45.658-38.104-75.401-34.685m233.5 4.563c0 .289 16.452 39.273 36.56 86.63l36.56 86.105-3.224 8.12c-4.551 11.46-8.265 18.668-11.298 21.93-6.039 6.493-18.062 8.905-30.953 6.209-4.32-.904-7.988-1.503-8.151-1.331-.535.563-6.599 48.041-6.188 48.452.221.22 3.954 1.116 8.297 1.99 11.101 2.235 35.542 2.279 45.397.081 21.162-4.72 37.4-18.445 48.76-41.211 2.876-5.765 59.464-149.772 84.912-216.087.46-1.199-4.172-1.413-30.501-1.413h-31.044l-2.376 7.75c-16.915 55.171-32.366 104.249-32.821 104.25-.313 0-9.313-25.2-20-55.999l-19.43-56h-32.25c-17.737-.001-32.25.235-32.25.524M252.5 201.488c-10.328 2.802-20.397 10.541-25.874 19.887-5.485 9.36-5.595 11.061-5.611 86.739-.009 42.645.375 71.671.993 74.926 3.345 17.638 17.836 31.394 35.739 33.924 19.749 2.792 38.616-9.174 45.356-28.764 1.796-5.219 1.896-9.438 1.886-79.107-.011-77.604 0-77.391-4.559-86.241-8.797-17.077-29.581-26.342-47.93-21.364m868.194 16.633c-12.314 1.742-24.934 11.769-31.012 24.641-3.049 6.456-3.182 7.263-3.182 19.29 0 12.525.008 12.568 3.811 20.264 7.048 14.259 17.216 21.73 32.336 23.759 13.663 1.833 24.293-1.958 33.706-12.021 10.153-10.854 14.067-28.166 10.136-44.835-1.954-8.29-4.682-13.442-10.297-19.445-9.23-9.867-20.943-13.712-35.498-11.653m-439.015 56.935c-12.18 1.415-20.179 4.454-25.639 9.737-3.998 3.87-4.985 5.538-5.553 9.382-1.968 13.31 9.458 21.8 27.659 20.552 13.159-.901 23.312-6.906 28.354-16.767 2.478-4.848 4.5-13.897 4.5-20.144V274l-11.25.131c-6.187.073-14.32.489-18.071.925m211 0c-12.177 1.415-20.179 4.454-25.643 9.737-3.453 3.339-5.069 5.797-5.563 8.457-1.511 8.144 1.959 14.81 9.903 19.027 3.481 1.847 5.765 2.191 14.645 2.206 9.873.016 10.929-.184 17.142-3.243 11.655-5.737 17.044-14.408 18.424-29.642l.689-7.598-11.388.131c-6.263.073-14.458.489-18.209.925"/>
</svg>
