<svg xmlns="http://www.w3.org/2000/svg" width="450" height="450"><path d="M270.532 117.618c-13.937 2.515-13.847 2.881.72 2.922 16.091.045 26.604 1.85 38.748 6.653 15.655 6.192 30.16 16.528 40.753 29.038 8.791 10.382 13.866 18.505 10.11 16.185-.625-.387.796 1.724 3.158 4.691 4.978 6.252 13.008 22.703 15.323 31.393 4.342 16.297 3.991 37.005-.89 52.458-5.225 16.538-10.619 25.535-23.798 39.691-3.661 3.932-6.656 7.697-6.656 8.366C348 311.32 359.777 322 362.319 322c4.155 0 19.452-16.967 26.598-29.5 2.046-3.589 2.067-3.743.204-1.5-1.142 1.375-2.087 2.762-2.099 3.083-.012.321-.655.584-1.428.584-.773 0-2.391-1.973-3.596-4.385-1.204-2.412-3.046-4.92-4.094-5.574-2.579-1.611-2.411-2.857 1.084-8.035 8.137-12.058 15.415-30.322 18.03-45.247.781-4.458 1.08-12.69.808-22.256-.368-12.948-.241-14.777.862-12.426 1.218 2.598 1.26 2.613.732.256-.309-1.375-2.588-6.775-5.067-12-14.921-31.46-38.722-52.536-71.709-63.497-16.724-5.557-35.213-6.935-52.112-3.885m-39.812 12.97c-1.528.829-2.518 1.93-2.198 2.448.32.518-.004.721-.72.451-1.74-.655-7.99 3.602-18.363 12.507-8.921 7.658-10.439 9.535-10.439 12.905 0 2.944 5.796 9.092 10.473 11.109 4.929 2.126 6.049 1.648 13.471-5.752 6.355-6.335 11.863-10.292 21.556-15.487 4.473-2.397 6.097-3.664 4.5-3.51-1.375.132-2.77.609-3.101 1.059-.789 1.074-11.054-9.258-10.342-10.41.301-.487-.151-.617-1.005-.29-.854.328-1.552.112-1.552-.48 0-.591-.64-.83-1.423-.529-2.099.805-1.348-2.315.982-4.077 2.494-1.887 1.698-1.863-1.839.056m47.544 8.13c1.52.229 3.77.223 5-.014 1.23-.237-.014-.425-2.764-.418-2.75.008-3.756.202-2.236.432m14 0c1.52.229 3.77.223 5-.014 1.23-.237-.014-.425-2.764-.418-2.75.008-3.756.202-2.236.432m62.694 27.532c4.144 4.415 5.042 5.209 5.042 4.458 0-.16-2.137-2.298-4.75-4.75l-4.75-4.458 4.458 4.75M176.5 172.402c-13.435 4.26-21.56 11.97-26.423 25.074-1.774 4.778-2.154 7.614-1.897 14.151.176 4.497.623 7.989.994 7.762.371-.227.881.38 1.134 1.349.363 1.39.484 1.304.576-.405.162-3.03 7.51-5.774 13.615-5.086 6.314.712 11.054 4.237 14.16 10.533 2.104 4.265 2.487 6.14 1.991 9.757-.711 5.185-3.163 9.428-5.515 9.542-1.1.053-1.212.248-.343.597 1.055.424 1.055.81 0 2.113-1.091 1.346-1.058 1.453.208.683.825-.502 5.81-.938 11.077-.97 8.795-.053 10.137-.333 16.425-3.429 11.772-5.795 18.702-14.732 21.664-27.935 1.456-6.494-.014-16.959-3.282-23.365-2.832-5.551-11.446-14.508-16.377-17.029-8.911-4.557-20.002-5.88-28.007-3.342m-61.75 42.304c1.237.238 3.263.238 4.5 0 1.237-.239.225-.434-2.25-.434s-3.487.195-2.25.434m12.25 2.607c0 .172 1.463 1.635 3.25 3.25l3.25 2.937-2.937-3.25c-2.738-3.029-3.563-3.71-3.563-2.937M404.378 234c0 6.325.163 8.912.361 5.75.198-3.162.198-8.338 0-11.5-.198-3.162-.361-.575-.361 5.75M125 250.5c-1.375.786-2.024 1.445-1.441 1.465.582.019 1.932-.626 3-1.433 2.469-1.868 1.68-1.884-1.559-.032m45 0c-1.375.786-2.024 1.445-1.441 1.465.582.019 1.932-.626 3-1.433 2.469-1.868 1.68-1.884-1.559-.032m-67.544 9.754c-.265.69-.357 17.902-.206 38.25l.275 36.996.238-37.72.237-37.72 12.75-.313 12.75-.312-12.781-.218c-9.489-.161-12.906.106-13.263 1.037m52.294-.511c3.988.189 10.512.189 14.5 0 3.988-.19.725-.346-7.25-.346s-11.238.156-7.25.346m72.5-.054c.963.252 2.537.252 3.5 0 .963-.251.175-.457-1.75-.457s-2.713.206-1.75.457m13.019.004c.973.254 2.323.237 3-.037.677-.274-.119-.481-1.769-.461-1.65.02-2.204.244-1.231.498m57.023.049c3.735.193 9.585.192 13-.003 3.414-.194.358-.352-6.792-.35-7.15.001-9.944.161-6.208.353M131.457 300.5c-.001 22.55.131 31.918.292 20.817.16-11.101.161-29.551 0-41-.16-11.449-.292-2.367-.292 20.183m82.293-36.928c-3.877 2.103-3.438 2.829.5.827 3.77-1.918 4.437-2.414 3.167-2.359-.505.022-2.155.711-3.667 1.532m40.645 12.928c.001 7.7.158 10.718.348 6.706.191-4.011.189-10.311-.002-14-.192-3.688-.348-.406-.346 7.294m-25.954 11.055c-1.83 1.467-1.798 1.487.559.365 3.061-1.458 3.628-1.92 2.358-1.92-.537 0-1.849.7-2.917 1.555m-6.004 4.695-2.937 3.25 3.25-2.937c3.029-2.738 3.71-3.563 2.937-3.563-.172 0-1.635 1.462-3.25 3.25m-35.151 14.25c.008 2.75.202 3.756.432 2.236.229-1.52.223-3.77-.014-5-.237-1.23-.425.014-.418 2.764m63.214 17.618c-1.65 1.029-2.538 1.874-1.973 1.877.566.003 2.028-.696 3.25-1.552l2.223-1.556.217 13.306.218 13.307.313-12.919c.173-7.105-.037-13.237-.467-13.627-.429-.389-2.131.134-3.781 1.164m-13.236 3.6c1.52.229 3.77.223 5-.014 1.23-.237-.014-.425-2.764-.418-2.75.008-3.756.202-2.236.432M204 342.5c1.292 1.375 2.574 2.5 2.849 2.5.275 0-.557-1.125-1.849-2.5-1.292-1.375-2.574-2.5-2.849-2.5-.275 0 .557 1.125 1.849 2.5m-107.076 4.25L94.5 349.5l2.75-2.424c2.57-2.266 3.209-3.076 2.424-3.076-.179 0-1.416 1.238-2.75 2.75m-15.488 5.555c-.275.718-.374 6.906-.218 13.75L81.5 378.5l6 .071 6 .072-5.75-.369-5.75-.369v-25.772l2.75-.417 2.75-.416-2.781-.15c-1.53-.083-3.007.437-3.283 1.155m150.314 1.418c1.787.222 4.713.222 6.5 0 1.787-.221.325-.403-3.25-.403s-5.037.182-3.25.403" fill="#c6758a" fill-rule="evenodd"/><path d="M255.5 121.409c-11.797 2.736-25.167 9.153-25.167 12.079 0 .921.565 1.381 1.334 1.086.733-.281 1.333-.027 1.333.564 0 .592.698.808 1.552.48.854-.327 1.306-.197 1.005.29-.301.487 1.794 3.238 4.656 6.115 2.861 2.877 5.373 4.72 5.58 4.097.208-.623.734-.913 1.169-.644.435.269 4.077-.629 8.093-1.995 24.968-8.492 52.111-6.971 74.233 4.161 10.324 5.195 18.004 10.65 25.856 18.363 3.771 3.704 6.854 6.456 6.852 6.115-.009-1.507-4.78-8.257-11.171-15.804-14.017-16.555-33.729-28.57-54.825-33.416-11.294-2.595-32.393-3.372-40.5-1.491m142.327 87.785c.271 9.545-.028 17.777-.809 22.232-2.615 14.925-9.893 33.189-18.03 45.247-3.495 5.178-3.663 6.424-1.084 8.035 1.048.654 2.916 3.215 4.152 5.69 2.496 4.998 3.596 5.28 6.245 1.602 5.702-7.916 11.64-23.782 14.284-38.17 2.961-16.113.911-45.286-4.005-56.977-.961-2.285-1.103.038-.753 12.341m-289.659 7.952c-6.473 3.204-9.668 8.639-9.668 16.445 0 5.319.441 6.861 3 10.484 3.76 5.323 9.091 8.156 15.347 8.156 16.802 0 25.224-19.986 13.302-31.567-6.328-6.147-14.142-7.398-21.981-3.518m38.265 6.377c-9.748 16.634 7.298 35.287 24.313 26.607 2.265-1.156 4.358-2.489 4.65-2.962.292-.473-1.815-1.942-4.682-3.264-9.07-4.182-15.694-11.317-19.806-21.334l-1.613-3.93-2.862 4.883M227 260.082c-8.626 1.498-19.386 7.109-25.322 13.205-24.932 25.605-14.342 67.523 19.675 77.883 5.661 1.724 8.532 1.996 16.5 1.562 5.306-.289 11.11-1.066 12.897-1.727l3.25-1.201V323.251l-4.25 2.124c-6.491 3.245-15.82 2.955-22.022-.685-12.735-7.473-14.486-24.75-3.465-34.183 7.052-6.036 16.912-7.272 25.068-3.143l4.669 2.364v-27.41l-5.25-1.147c-8.046-1.759-15.69-2.142-21.75-1.089M102.803 299.25c-.285 36.916-.422 39.487-2.303 43.237-2.538 5.059-7.156 8.141-13.511 9.014l-4.989.687v26.079l9.966-.48c8.609-.414 10.843-.911 16.392-3.643 8.531-4.199 14.175-10.025 18.546-19.144l3.596-7.5.299-43.75.299-43.75h-27.991l-.304 39.25m45.437 7 .26 46.25h28l.26-46.25.26-46.25h-29.04l.26 46.25m125.564-.5c-9.118 25.163-16.377 46.087-16.132 46.5.245.413 6.67.75 14.276.75h13.83l1.77-6.539c.974-3.597 2.156-6.778 2.627-7.069 1.532-.947 28.834-.787 29.672.175.448.513 1.637 3.746 2.642 7.183l1.828 6.25h14.448c11.143 0 14.342-.286 13.98-1.25-.258-.687-2.749-7.55-5.535-15.25s-8.081-22.325-11.767-32.5C326.845 280.262 320 260.944 320 260.415c0-.228-6.664-.415-14.809-.415h-14.809l-16.578 45.75m29.181-11.5c-.601 2.337-2.446 8.685-4.1 14.105-1.655 5.42-2.862 10.001-2.683 10.18.554.554 16.804.792 17.342.254.717-.716-7.767-28.789-8.7-28.789-.422 0-1.258 1.913-1.859 4.25" fill="#0a6cb6" fill-rule="evenodd"/></svg>