<svg xmlns="http://www.w3.org/2000/svg" width="450" height="450" viewBox="0 0 450 450" version="1.1"><path d="" stroke="none" fill="#000000" fill-rule="evenodd"/><path d="M 270.532 117.618 C 256.582 120.136, 256.670 120.499, 271.245 120.549 C 288.265 120.608, 298.379 122.478, 311.794 128.047 C 326.641 134.210, 340.406 144.156, 350.867 156.280 C 358.729 165.391, 364.456 174.636, 360.863 172.416 C 360.238 172.029, 361.659 174.140, 364.021 177.107 C 368.999 183.359, 377.029 199.810, 379.344 208.500 C 383.686 224.797, 383.335 245.505, 378.454 260.958 C 373.229 277.496, 367.835 286.493, 354.656 300.649 C 350.995 304.581, 348 308.346, 348 309.015 C 348 311.320, 359.777 322, 362.319 322 C 366.474 322, 381.771 305.033, 388.917 292.500 C 390.963 288.911, 390.984 288.757, 389.121 291 C 387.979 292.375, 387.034 293.762, 387.022 294.083 C 387.010 294.404, 386.325 294.667, 385.500 294.667 C 384.545 294.667, 384 293.706, 384 292.025 C 384 290.106, 382.913 288.579, 380.024 286.442 C 377.837 284.824, 376.037 282.960, 376.024 282.300 C 376.011 281.640, 377.345 279.108, 378.988 276.673 C 387.074 264.691, 394.623 245.790, 397.058 231.426 C 397.791 227.101, 398.090 218.451, 397.826 209.170 C 397.458 196.222, 397.585 194.393, 398.688 196.744 C 399.906 199.342, 399.948 199.357, 399.420 197 C 399.111 195.625, 396.832 190.225, 394.353 185 C 379.432 153.540, 355.631 132.464, 322.644 121.503 C 305.920 115.946, 287.431 114.568, 270.532 117.618 M 230.720 130.588 C 229.192 131.417, 228.202 132.518, 228.522 133.036 C 228.842 133.554, 228.518 133.757, 227.802 133.487 C 226.062 132.832, 219.812 137.089, 209.439 145.994 C 200.518 153.652, 199 155.529, 199 158.899 C 199 161.843, 204.796 167.991, 209.473 170.008 C 214.402 172.134, 215.522 171.656, 222.944 164.256 C 229.239 157.981, 234.684 154.054, 244.500 148.709 C 248.350 146.613, 250.600 145.136, 249.500 145.426 C 247.150 146.047, 245.293 145.079, 244.830 142.992 C 244.404 141.069, 238.893 136.037, 237.191 136.016 C 236.471 136.007, 236.130 135.599, 236.432 135.110 C 236.735 134.620, 235.316 133.907, 233.279 133.524 L 229.575 132.830 232.037 130.937 C 234.992 128.666, 234.503 128.536, 230.720 130.588 M 278.264 138.718 C 279.784 138.947, 282.034 138.941, 283.264 138.704 C 284.494 138.467, 283.250 138.279, 280.500 138.286 C 277.750 138.294, 276.744 138.488, 278.264 138.718 M 292.264 138.718 C 293.784 138.947, 296.034 138.941, 297.264 138.704 C 298.494 138.467, 297.250 138.279, 294.500 138.286 C 291.750 138.294, 290.744 138.488, 292.264 138.718 M 253 144 C 251.172 145.181, 252.751 145.181, 255.500 144 C 256.819 143.433, 256.989 143.122, 256 143.086 C 255.175 143.055, 253.825 143.467, 253 144 M 326.083 146.373 C 327.112 147.294, 333 149.999, 333 149.551 C 333 148.975, 327.456 146, 326.383 146 C 325.989 146, 325.854 146.168, 326.083 146.373 M 336 151.350 C 336 151.581, 337.180 152.543, 338.623 153.489 C 340.066 154.434, 340.941 154.713, 340.567 154.109 C 339.854 152.955, 336 150.626, 336 151.350 M 354.500 166 C 357.209 168.750, 359.650 171, 359.925 171 C 360.200 171, 358.209 168.750, 355.500 166 C 352.791 163.250, 350.350 161, 350.075 161 C 349.800 161, 351.791 163.250, 354.500 166 M 182.750 171.723 C 184.537 171.945, 187.463 171.945, 189.250 171.723 C 191.037 171.502, 189.575 171.320, 186 171.320 C 182.425 171.320, 180.963 171.502, 182.750 171.723 M 158.946 182.750 L 155.500 186.500 159.250 183.054 C 162.740 179.846, 163.460 179, 162.696 179 C 162.529 179, 160.842 180.688, 158.946 182.750 M 148.328 208.500 C 148.333 212.350, 148.513 213.802, 148.730 211.728 C 148.946 209.653, 148.943 206.503, 148.722 204.728 C 148.501 202.952, 148.324 204.650, 148.328 208.500 M 224.300 210 C 224.300 213.025, 224.487 214.262, 224.716 212.750 C 224.945 211.238, 224.945 208.762, 224.716 207.250 C 224.487 205.738, 224.300 206.975, 224.300 210 M 114.750 214.706 C 115.987 214.944, 118.013 214.944, 119.250 214.706 C 120.487 214.467, 119.475 214.272, 117 214.272 C 114.525 214.272, 113.513 214.467, 114.750 214.706 M 127 217.313 C 127 217.485, 128.463 218.948, 130.250 220.563 L 133.500 223.500 130.563 220.250 C 127.825 217.221, 127 216.540, 127 217.313 M 148.616 218.558 C 148.290 219.408, 148.434 219.850, 148.936 219.540 C 149.438 219.229, 150.055 219.769, 150.308 220.738 C 150.667 222.113, 150.793 222.019, 150.884 220.309 C 151.025 217.643, 149.438 216.417, 148.616 218.558 M 151 223.642 C 151 224.179, 151.700 225.491, 152.555 226.559 C 154.022 228.389, 154.042 228.357, 152.920 226 C 151.462 222.939, 151 222.372, 151 223.642 M 404.378 234 C 404.378 240.325, 404.541 242.912, 404.739 239.750 C 404.937 236.588, 404.937 231.412, 404.739 228.250 C 404.541 225.088, 404.378 227.675, 404.378 234 M 212.924 236.750 L 210.500 239.500 213.250 237.076 C 214.762 235.742, 216 234.505, 216 234.326 C 216 233.541, 215.190 234.180, 212.924 236.750 M 175.500 245 C 174.400 245.473, 174.118 245.891, 174.872 245.930 C 176.036 245.989, 176.036 246.253, 174.872 247.661 C 173.628 249.167, 173.694 249.200, 175.583 248.024 C 176.729 247.311, 177.667 246.113, 177.667 245.364 C 177.667 244.614, 177.629 244.032, 177.583 244.070 C 177.537 244.109, 176.600 244.527, 175.500 245 M 183.250 247.716 C 184.762 247.945, 187.238 247.945, 188.750 247.716 C 190.262 247.487, 189.025 247.300, 186 247.300 C 182.975 247.300, 181.738 247.487, 183.250 247.716 M 107.441 250.445 C 108.509 251.300, 109.821 252, 110.358 252 C 111.628 252, 111.061 251.538, 108 250.080 C 105.643 248.958, 105.611 248.978, 107.441 250.445 M 125 250.500 C 123.625 251.286, 122.976 251.945, 123.559 251.965 C 124.141 251.984, 125.491 251.339, 126.559 250.532 C 129.028 248.664, 128.239 248.648, 125 250.500 M 170 250.500 C 168.625 251.286, 167.976 251.945, 168.559 251.965 C 169.141 251.984, 170.491 251.339, 171.559 250.532 C 174.028 248.664, 173.239 248.648, 170 250.500 M 118.269 252.693 C 119.242 252.947, 120.592 252.930, 121.269 252.656 C 121.946 252.382, 121.150 252.175, 119.500 252.195 C 117.850 252.215, 117.296 252.439, 118.269 252.693 M 163.269 252.693 C 164.242 252.947, 165.592 252.930, 166.269 252.656 C 166.946 252.382, 166.150 252.175, 164.500 252.195 C 162.850 252.215, 162.296 252.439, 163.269 252.693 M 102.456 260.254 C 102.192 260.943, 102.099 278.381, 102.250 299.004 L 102.525 336.500 102.763 298.280 L 103 260.060 115.750 259.747 L 128.500 259.435 115.719 259.217 C 106.232 259.056, 102.813 259.323, 102.456 260.254 M 154.750 259.743 C 158.738 259.932, 165.262 259.932, 169.250 259.743 C 173.238 259.553, 169.975 259.397, 162 259.397 C 154.025 259.397, 150.762 259.553, 154.750 259.743 M 227.250 259.689 C 228.213 259.941, 229.787 259.941, 230.750 259.689 C 231.713 259.438, 230.925 259.232, 229 259.232 C 227.075 259.232, 226.287 259.438, 227.250 259.689 M 240.269 259.693 C 241.242 259.947, 242.592 259.930, 243.269 259.656 C 243.946 259.382, 243.150 259.175, 241.500 259.195 C 239.850 259.215, 239.296 259.439, 240.269 259.693 M 297.292 259.742 C 301.027 259.935, 306.877 259.934, 310.292 259.739 C 313.706 259.545, 310.650 259.387, 303.500 259.389 C 296.350 259.390, 293.556 259.550, 297.292 259.742 M 131.457 300.500 C 131.456 323.050, 131.588 332.418, 131.749 321.317 C 131.909 310.216, 131.910 291.766, 131.749 280.317 C 131.589 268.868, 131.457 277.950, 131.457 300.500 M 213.750 263.572 C 209.873 265.675, 210.312 266.401, 214.250 264.399 C 218.020 262.481, 218.687 261.985, 217.417 262.040 C 216.912 262.062, 215.262 262.751, 213.750 263.572 M 254.395 276.500 C 254.396 284.200, 254.553 287.218, 254.743 283.206 C 254.934 279.195, 254.932 272.895, 254.741 269.206 C 254.549 265.518, 254.393 268.800, 254.395 276.500 M 206.306 268.573 L 203.500 271.146 206.750 268.885 C 208.537 267.641, 210 266.484, 210 266.312 C 210 265.523, 208.894 266.200, 206.306 268.573 M 228.441 287.555 C 226.611 289.022, 226.643 289.042, 229 287.920 C 232.061 286.462, 232.628 286, 231.358 286 C 230.821 286, 229.509 286.700, 228.441 287.555 M 222.437 292.250 L 219.500 295.500 222.750 292.563 C 225.779 289.825, 226.460 289, 225.687 289 C 225.515 289, 224.052 290.462, 222.437 292.250 M 187.286 306.500 C 187.294 309.250, 187.488 310.256, 187.718 308.736 C 187.947 307.216, 187.941 304.966, 187.704 303.736 C 187.467 302.506, 187.279 303.750, 187.286 306.500 M 250.500 324.118 C 248.850 325.147, 247.962 325.992, 248.527 325.995 C 249.093 325.998, 250.555 325.299, 251.777 324.443 L 254 322.887 254.217 336.193 L 254.435 349.500 254.748 336.581 C 254.921 329.476, 254.711 323.344, 254.281 322.954 C 253.852 322.565, 252.150 323.088, 250.500 324.118 M 237.264 327.718 C 238.784 327.947, 241.034 327.941, 242.264 327.704 C 243.494 327.467, 242.250 327.279, 239.500 327.286 C 236.750 327.294, 235.744 327.488, 237.264 327.718 M 298.750 338.743 C 302.738 338.932, 309.262 338.932, 313.250 338.743 C 317.238 338.553, 313.975 338.397, 306 338.397 C 298.025 338.397, 294.762 338.553, 298.750 338.743 M 201 339.313 C 201 339.485, 202.463 340.948, 204.250 342.563 L 207.500 345.500 204.563 342.250 C 201.825 339.221, 201 338.540, 201 339.313 M 96.924 346.750 L 94.500 349.500 97.250 347.076 C 99.820 344.810, 100.459 344, 99.674 344 C 99.495 344, 98.258 345.238, 96.924 346.750 M 81.436 352.305 C 81.161 353.023, 81.062 359.211, 81.218 366.055 L 81.500 378.500 87.500 378.571 L 93.500 378.643 87.750 378.274 L 82 377.905 82 365.019 L 82 352.133 84.750 351.716 L 87.500 351.300 84.719 351.150 C 83.189 351.067, 81.712 351.587, 81.436 352.305 M 231.750 353.723 C 233.537 353.945, 236.463 353.945, 238.250 353.723 C 240.037 353.502, 238.575 353.320, 235 353.320 C 231.425 353.320, 229.963 353.502, 231.750 353.723" stroke="none" fill="#bccbee" fill-rule="evenodd"/><path d="M 172.892 174.296 C 162.977 178.478, 157.170 183.839, 152.321 193.287 C 150.193 197.433, 149.554 200.305, 149.197 207.324 C 148.673 217.636, 149.345 218.907, 154.041 216.479 C 159.114 213.856, 168.716 214.783, 173.389 218.348 C 180.700 223.924, 183.168 234.485, 178.984 242.290 C 176.443 247.032, 177.050 247.331, 188.240 246.853 C 194.873 246.570, 197.667 245.927, 202.421 243.593 C 217.221 236.326, 224.744 223.438, 223.792 206.980 C 222.999 193.270, 215.465 181.816, 203.299 175.826 C 197.595 173.019, 195.473 172.536, 187.602 172.255 C 179.820 171.978, 177.687 172.274, 172.892 174.296" stroke="none" fill="#cf0b16" fill-rule="evenodd"/><path d="M 256.500 121.383 C 248.918 122.841, 235.993 127.887, 232.037 130.933 L 229.575 132.830 233.279 133.524 C 235.316 133.907, 236.735 134.620, 236.432 135.110 C 236.130 135.599, 236.471 136.007, 237.191 136.016 C 238.545 136.033, 245.162 141.429, 245.059 142.433 C 244.692 145.982, 246.810 146.204, 254.907 143.465 C 280.177 134.915, 307.537 136.551, 330.231 147.969 C 339.682 152.725, 351.372 161.396, 357.460 168.166 C 366.347 178.051, 360.398 167.326, 350.867 156.280 C 336.659 139.814, 316.427 127.512, 296 122.920 C 284.697 120.379, 265.589 119.636, 256.500 121.383 M 397.827 209.194 C 398.090 218.454, 397.791 227.104, 397.058 231.426 C 394.623 245.790, 387.074 264.691, 378.988 276.673 C 377.345 279.108, 376.011 281.640, 376.024 282.300 C 376.037 282.960, 377.837 284.824, 380.024 286.442 C 382.913 288.579, 384 290.106, 384 292.025 C 384 299.459, 390.984 290.107, 396.602 275.151 C 402.398 259.719, 404.260 247.851, 403.683 230 C 403.204 215.154, 401.459 203.700, 398.663 197.051 C 397.586 194.489, 397.461 196.310, 397.827 209.194 M 109.466 216.400 C 101.833 219.725, 97.153 228.247, 98.449 236.458 C 100.429 248.994, 114.377 255.930, 125.842 250.080 C 133.272 246.290, 137.462 236.822, 135.139 229.070 C 133.629 224.029, 128.626 218.159, 124.298 216.351 C 120.233 214.653, 113.425 214.675, 109.466 216.400 M 146.449 223.497 C 138.817 236.520, 147.402 252.266, 162.073 252.153 C 166.500 252.118, 174.092 249.278, 175.396 247.168 C 175.688 246.695, 173.581 245.226, 170.714 243.904 C 161.749 239.770, 153.628 231.004, 150.563 222.153 L 149.328 218.584 146.449 223.497 M 227 260.119 C 214.302 262.164, 199.840 272.393, 193.783 283.616 C 178.908 311.174, 194.583 345.786, 224.781 352.059 C 231.268 353.407, 245.776 352.811, 250.750 350.993 L 254 349.804 254 336.528 L 254 323.251 249.750 325.375 C 243.259 328.620, 233.930 328.330, 227.728 324.690 C 214.993 317.217, 213.242 299.940, 224.263 290.507 C 231.315 284.471, 241.175 283.235, 249.331 287.364 L 254 289.728 254 275.968 L 254 262.208 245.250 260.602 C 235.671 258.844, 235.028 258.827, 227 260.119 M 102.794 299.250 C 102.517 336.177, 102.382 338.736, 100.500 342.487 C 97.962 347.546, 93.344 350.628, 86.989 351.501 L 82 352.188 82 365.228 L 82 378.267 91.966 377.787 C 100.575 377.373, 102.809 376.876, 108.358 374.144 C 119.197 368.809, 125.585 360.887, 129.388 348.068 C 130.757 343.456, 131 336.403, 131 301.318 L 131 260 117.044 260 L 103.087 260 102.794 299.250 M 148.240 306.250 L 148.500 352.500 162.500 352.500 L 176.500 352.500 176.760 306.250 L 177.020 260 162.500 260 L 147.980 260 148.240 306.250 M 273.824 305.750 C 264.726 330.913, 257.470 351.837, 257.700 352.250 C 257.930 352.663, 264.332 353, 271.927 353 L 285.736 353 287.452 346.750 C 288.395 343.313, 289.891 339.938, 290.775 339.250 C 291.883 338.388, 296.663 338, 306.166 338 L 319.950 338 322.129 345.500 L 324.308 353 338.761 353 C 349.910 353, 353.105 352.714, 352.739 351.750 C 352.478 351.063, 344.893 330.140, 335.882 305.255 L 319.500 260.010 304.933 260.005 L 290.366 260 273.824 305.750 M 303.089 293.685 C 302.439 296.333, 300.538 302.923, 298.865 308.329 C 297.193 313.734, 295.982 318.315, 296.175 318.509 C 296.753 319.086, 312.993 319.340, 313.553 318.781 C 314.151 318.183, 306.156 290.905, 305.025 289.685 C 304.610 289.237, 303.738 291.037, 303.089 293.685" stroke="none" fill="#0a6cb6" fill-rule="evenodd"/></svg>