<svg xmlns="http://www.w3.org/2000/svg" width="1196" height="1400">
  <path fill="#f9f8f7" fill-rule="evenodd" d="M581 96.611c-46.841 2.628-81.96 9.268-123.213 23.295-83.5 28.393-157.45 83.133-210.013 155.459-24.001 33.024-42.48 67.944-57.225 108.135-2.018 5.5-4.089 11.125-4.602 12.5-3.093 8.29-11.349 41.883-13.648 55.538l-2.71 16.094 1.883 8.246 1.884 8.246-2.803 5.688c-3.929 7.974-4.49 16.212-1.673 24.552 2.055 6.085 2.083 6.67.623 12.966-1.624 7.005-1.167 11.443 1.947 18.896.853 2.041 1.55 5.997 1.55 8.792 0 5.743 1.775 9.873 5.505 12.807 5.065 3.984 12.492 4.34 83.495 3.999 66.681-.32 67.557-.35 72.166-2.48 5.674-2.623 7.427-5.194 8.355-12.254.391-2.976 2.234-8.588 4.095-12.472 2.841-5.929 3.384-8.174 3.384-13.997 0-6.508.239-7.251 3.867-12.029 5.719-7.533 7.55-13.229 6.807-21.183l-.612-6.554 6.293-6.701c3.462-3.685 8.026-9.84 10.144-13.677 7.339-13.298 13.895-23.835 19.84-31.886 40.489-54.834 96.556-89.079 164.161-100.27 8.792-1.456 16.52-1.817 38.5-1.8 24.243.019 28.98.291 40 2.301 26.372 4.809 46.677 11.3 67.978 21.732 35.647 17.457 64.079 40.555 89.174 72.446 6.49 8.247 12.865 17.993 20.482 31.31 4.815 8.417 9.684 15.421 13.455 19.353l5.911 6.164v7.937c0 9.672 1.086 13.137 6.327 20.195 3.8 5.118 4.093 6.001 4.677 14.094.492 6.827 1.183 9.591 3.301 13.205 1.641 2.8 3.051 7.219 3.64 11.406.83 5.902 1.43 7.267 4.389 9.99 5.818 5.355 7.616 5.465 83.791 5.141l69.375-.295 4.537-2.667c5.524-3.248 6.681-5.444 7.288-13.833.259-3.575 1.407-8.525 2.551-11 2.347-5.078 2.696-11.832.949-18.364-1.005-3.757-.896-5.244.75-10.265 2.861-8.727 2.471-16.408-1.256-24.743-2.981-6.664-3.033-7.026-1.708-12 2.67-10.027.924-27.021-5.252-51.128-11.885-46.387-25.665-80.159-48.352-118.5-46.888-79.238-117.673-141.367-202.547-177.775-41.506-17.805-88.108-29.479-132.46-33.181-13.425-1.121-45.617-1.96-55-1.433m-4.5 13.043c-29.563 2.352-42.725 3.994-60 7.486-70.739 14.298-133.708 44.684-190 91.683-13.924 11.625-42.856 41.248-54.548 55.85C224.01 324.545 195.996 387.295 182.964 464c-1.074 6.325-1.956 11.837-1.959 12.25-.003.413 22.382.75 49.745.75l49.75-.001 6.901-22.249c3.795-12.238 6.945-22.749 7-23.359.054-.611-8.217-9.963-18.38-20.784-10.164-10.821-18.831-20.303-19.261-21.071-1.117-1.997 1.105-6.265 3.612-6.938 1.17-.314 10.903-.638 21.628-.72 10.725-.082 24.737-.426 31.137-.764l11.638-.614-15.388-25.988C300.924 340.219 294 327.801 294 326.917c0-.884.895-2.417 1.989-3.407 1.92-1.737 2.975-1.685 30.021 1.491 15.417 1.811 28.311 3.011 28.655 2.668.343-.344-5.741-15.153-13.521-32.909C333.365 277.003 327 261.5 327 260.309c0-2.373 2.424-5.309 4.383-5.309.683 0 16.216 6.56 34.519 14.577 18.303 8.017 33.415 14.43 33.584 14.25.168-.18-1.185-12.927-3.008-28.327-2.934-24.791-3.149-28.258-1.873-30.25.807-1.261 2.45-2.25 3.735-2.25 1.262 0 13.693 6.758 27.625 15.019 13.932 8.26 25.539 14.811 25.793 14.557.254-.254.87-14.749 1.371-32.211.777-27.141 1.146-32.012 2.545-33.557.9-.994 2.475-1.808 3.501-1.808 1.062 0 11.874 9.497 25.089 22.037 19.025 18.051 23.354 21.713 23.941 20.25.395-.983 3.019-16.412 5.833-34.287s5.541-34.16 6.061-36.19c.985-3.843 3.405-5.42 6.709-4.371.994.316 10.557 14.284 21.25 31.04 10.693 16.757 19.746 30.479 20.118 30.494.372.015 6.447-11.282 13.5-25.103 13.823-27.089 15.455-29.183 19.548-25.091 1.176 1.177 7.57 12.805 14.207 25.841 6.638 13.035 12.467 23.741 12.954 23.79.486.05 9.394-13.185 19.795-29.41 10.4-16.225 19.527-30.121 20.28-30.88 1.723-1.734 6.134-.756 7.399 1.642.505.956 3.531 18.059 6.725 38.006 3.194 19.948 6.114 36.148 6.488 36 .375-.147 10.65-9.707 22.833-21.244 12.183-11.537 22.822-21.352 23.643-21.811 1.956-1.095 5.222-.013 6.352 2.105.494.925 1.23 15.994 1.637 33.486.617 26.569.968 31.716 2.132 31.269.767-.294 12.43-7.096 25.918-15.115 25.174-14.966 28.3-16.212 30.774-12.26.777 1.241.183 9.275-2.208 29.858-1.799 15.487-3.08 28.35-2.846 28.584.234.234 15.448-6.166 33.809-14.222 31.38-13.767 33.534-14.562 35.884-13.249 1.375.769 2.627 2.283 2.783 3.364.155 1.082-6.229 16.817-14.187 34.967-7.959 18.15-14.03 33.156-13.492 33.347.539.191 13.553-1.107 28.922-2.885C901.34 321.454 902 321.497 902 326.94c0 1.682-5.642 12.211-15.019 28.025-8.26 13.932-14.848 25.502-14.639 25.711.209.209 14.505.645 31.769.969 44.247.832 43.768.209 19.639 25.544-8.937 9.385-17.513 18.572-19.056 20.416l-2.805 3.353 5.669 18.271c3.118 10.049 6.311 20.408 7.095 23.021l1.424 4.75h99.961l-.497-2.25c-.274-1.238-1.62-8.833-2.991-16.879-11.832-69.431-41.638-135.477-86.244-191.101-38.346-47.819-85.396-85.848-140.023-113.179-50.582-25.307-102.024-39.242-160.783-43.555-12.845-.943-39.347-1.149-49-.382m-55.391 90.599c-2.965 18.836-5.806 35.363-6.313 36.727-1.047 2.818-2.515 3.983-5.047 4.005-.962.008-11.916-9.694-24.34-21.561-12.425-11.867-22.802-21.365-23.06-21.106-.258.258-.858 14.281-1.332 31.162-.768 27.299-1.06 30.91-2.646 32.663-1.214 1.341-2.524 1.784-4.102 1.388-1.275-.32-13.362-7.14-26.86-15.156-13.499-8.016-24.696-14.417-24.883-14.225-.186.193.961 11.15 2.55 24.35 1.589 13.2 2.969 25.892 3.067 28.204.203 4.802-1.382 7.296-4.638 7.296-1.237 0-16.482-6.254-33.877-13.897C352.232 272.46 338 266.44 338 266.727c0 .286 6.015 14.302 13.367 31.147 7.351 16.844 13.662 31.576 14.023 32.737.426 1.369-.011 2.935-1.245 4.459l-1.902 2.348-28.192-3.306c-15.505-1.818-28.34-3.149-28.522-2.958-.182.19 6.361 11.596 14.54 25.346 15.198 25.549 16.797 29.431 12.972 31.478-1.163.623-14.581 1.312-33.029 1.697-17.089.357-30.945.997-30.791 1.422.153.426 7.029 7.906 15.279 16.623 8.25 8.717 16.022 16.997 17.27 18.4l2.271 2.552-7.152 22.914c-3.933 12.603-7.365 23.477-7.627 24.164-.375.985 6.936 1.25 34.52 1.25h34.996l5.062-10.25c27.868-56.44 79.57-103.307 140.16-127.055 18.033-7.067 43.685-13.248 65.5-15.78 13.671-1.588 44.681-1.586 58 .002 89.647 10.692 165.658 63.918 206.118 144.333l4.402 8.75h69.729l-7.371-23.25c-4.054-12.788-7.26-23.996-7.125-24.907.136-.911 8.122-9.911 17.747-20l17.5-18.343-32-.744c-31.051-.722-32.053-.808-33.773-2.889-1.071-1.296-1.527-2.921-1.152-4.102.341-1.076 7.143-12.971 15.116-26.434 7.972-13.463 14.276-24.697 14.009-24.964-.268-.268-12.466.937-27.108 2.678-14.641 1.74-27.732 2.886-29.091 2.545-5.249-1.318-4.587-3.737 10.354-37.824 7.751-17.683 13.992-32.233 13.869-32.334-.123-.1-14.399 6.054-31.724 13.675-17.325 7.622-32.722 13.865-34.215 13.875-5.077.034-5.178-1.712-1.776-30.558 1.718-14.571 2.982-27.166 2.808-27.99-.23-1.087-5.655 1.682-19.817 10.118-29.131 17.351-31.668 18.688-34.036 17.937-1.143-.363-2.442-1.634-2.886-2.825-.444-1.19-1.133-15.664-1.531-32.164-.398-16.5-.899-30.178-1.113-30.395-.215-.217-7.875 6.758-17.023 15.5s-19.529 18.483-23.069 21.645c-11.611 10.371-11.586 10.414-18.272-31.772-2.961-18.688-5.668-34.785-6.015-35.771-.463-1.315-5.672 6.098-19.518 27.774-20.008 31.325-21.337 32.82-25.68 28.89-1.134-1.027-7.459-12.602-14.055-25.724-6.596-13.121-12.359-23.472-12.807-23.002-.448.47-6.101 11.205-12.56 23.855-6.46 12.65-12.421 23.787-13.245 24.75-2.107 2.458-5.717 2.176-7.867-.616-1.003-1.301-9.698-14.782-19.323-29.958-9.625-15.176-17.725-27.61-18-27.632-.275-.021-2.926 15.372-5.891 34.209m40.786-22.888c-3.626 1.808-5.017 5.351-3.53 8.994 2.366 5.8 10.491 5.78 12.7-.031 2.223-5.845-3.739-11.671-9.17-8.963m69.105-.582c-4.77 1.519-6.769 8.305-3.43 11.644 5.666 5.666 14.944-.614 11.635-7.876-1.116-2.449-5.714-4.56-8.205-3.768m-138.443 15.44c-2.389 3.409-1.954 7.319 1.078 9.704 1.449 1.14 3.413 2.073 4.365 2.073.952 0 2.916-.933 4.365-2.073 3.032-2.385 3.467-6.295 1.078-9.704-2.189-3.125-8.697-3.125-10.886 0M694 192c-2.698 2.698-2.556 7.129.314 9.826 4.61 4.33 11.686 1.407 11.686-4.826 0-3.849-3.151-7-7-7-1.667 0-3.889.889-5 2m-100.927 14.635c-1.14 1.449-2.073 3.413-2.073 4.365 0 3.002 3.912 7 6.85 7 4.529 0 7.15-2.566 7.15-7 0-2.883-.574-4.289-2.223-5.443-3.409-2.389-7.319-1.954-9.704 1.078m-59.245 4.575c-5.396 1.827-5.37 10.494.038 12.734 5.983 2.479 11.561-3.086 9.085-9.063-1.373-3.314-5.395-4.932-9.123-3.671m124.023-.007c-3.844 1.301-5.449 5.739-3.465 9.577 2.7 5.221 9.531 5.216 12.233-.01 3.02-5.841-2.378-11.731-8.768-9.567m-224.976 5.172c-1.306.651-2.956 2.395-3.666 3.875-1.085 2.264-1.042 3.172.269 5.707 4.148 8.022 15.935 2.282 12.473-6.076-1.439-3.473-5.779-5.149-9.076-3.506m323.87 1.375c-4.235 4.737-1.057 12.25 5.182 12.25 3.162 0 7.073-3.871 7.073-7 0-.952-.933-2.916-2.073-4.365-2.477-3.149-7.748-3.607-10.182-.885m-284.29 12.705c-2.973 2.973-3.158 6.842-.455 9.545 4.536 4.536 12.015 1.787 11.985-4.405-.018-3.655-.725-4.895-3.669-6.445-3.271-1.722-5.146-1.411-7.861 1.305m242.734-.416c-4.54 4.229-1.716 11.961 4.368 11.961 6.755 0 9.928-7.317 5.129-11.826-2.904-2.728-6.657-2.781-9.497-.135m-338.874 23.968c-6.814 2.746-4.817 13.326 2.516 13.326 6.882 0 9.865-8.067 4.534-12.26-2.87-2.258-3.757-2.393-7.05-1.066m437.32 1.066c-5.129 4.034-2.2 12.26 4.365 12.26s9.494-8.226 4.365-12.26c-1.449-1.14-3.413-2.073-4.365-2.073-.952 0-2.916.933-4.365 2.073m-393.807 3.137c-5.396 1.827-5.37 10.494.038 12.734 5.983 2.479 11.561-3.086 9.085-9.063-1.373-3.314-5.395-4.932-9.123-3.671m351.536-.04c-7.855 3.803-2.39 16.154 5.67 12.816 5.714-2.367 5.931-10.314.351-12.856-2.905-1.324-3.209-1.322-6.021.04m-401.807 41.053c-2.23 3.182-1.922 7.086.757 9.603 2.904 2.727 5.673 2.759 9.051.101 5.295-4.164 2.165-11.927-4.808-11.927-2.425 0-3.904.658-5 2.223m447.516.412c-1.14 1.449-2.073 3.413-2.073 4.365 0 .952.933 2.916 2.073 4.365 3.97 5.048 11.956 2.334 12.139-4.126.197-6.925-7.899-9.995-12.139-4.604m-491 4c-1.14 1.449-2.073 3.413-2.073 4.365 0 .952.933 2.916 2.073 4.365 3.968 5.045 12.26 2.207 12.26-4.196 0-6.882-8.067-9.865-12.26-4.534m534.978-.877c-2.743 2.221-3.026 7.508-.548 10.245 2.684 2.966 7.838 2.65 10.424-.638 2.722-3.46 2.617-5.912-.382-8.91-2.887-2.888-6.464-3.151-9.494-.697M332.364 345.17c-5.446 2.637-4.958 10.73.768 12.726 6.257 2.181 11.516-3.809 8.487-9.666-.846-1.637-2.569-3.252-3.829-3.589-2.796-.749-2.785-.75-5.426.529m526.531.195c-3.364 1.677-4.923 5.257-3.752 8.616 2.055 5.893 9.649 6.425 12.754.893 3.121-5.56-3.306-12.349-9.002-9.509M289 359c-4.536 4.536-1.787 12.015 4.405 11.985 3.655-.018 4.895-.725 6.445-3.669 1.722-3.271 1.411-5.146-1.305-7.861-2.973-2.973-6.842-3.158-9.545-.455m609.807.75c-.827.962-1.748 2.449-2.048 3.302-.838 2.388 1.808 7.676 4.225 8.443 7.435 2.36 12.928-6.44 7.443-11.925-2.114-2.114-7.74-2.009-9.62.18m-597.352 41.705c-4.645 4.644-1.698 11.545 4.929 11.545 4.099 0 6.616-2.598 6.616-6.829 0-6.554-6.892-9.37-11.545-4.716M889 399.719c-5.591 2.019-6.838 8.69-2.293 12.265 4.478 3.523 11.293.213 11.293-5.484 0-4.241-5.194-8.155-9-6.781M263 422c-4.259 4.259-1.146 12 4.826 12 3.464 0 7.174-3.685 7.174-7.126 0-5.884-7.815-9.059-12-4.874m661.174.314c-4.468 4.757-1.402 11.686 5.171 11.686 4.14 0 6.655-2.581 6.655-6.829 0-6.49-7.426-9.54-11.826-4.857m-339.809 4.179c-14.344 3.12-26.375 9.726-37.347 20.507-18.324 18.005-27.926 43.491-26.75 71 1.497 35.027 20.448 65.021 49.365 78.133 10.529 4.774 18.23 6.124 31.867 5.588 13.877-.546 22.313-3.006 33.879-9.877 7.606-4.518 19.468-15.684 24.419-22.984 11.802-17.403 18.146-40.458 16.719-60.764-1.188-16.911-7.269-35.53-15.602-47.771-5.02-7.373-16.508-18.825-23.371-23.297-15.821-10.307-35.918-14.289-53.179-10.535m6.791 9.623c-22.567 2.787-41.567 17.588-52.597 40.973-12.415 26.321-10.03 60.472 5.873 84.086 13.941 20.701 35.718 32.172 57.887 30.492 15.906-1.205 28.11-7.025 40.181-19.161 10.927-10.986 16.714-21.241 21.235-37.627 2.482-8.997 2.412-33.713-.122-42.877-10.261-37.112-39.828-59.917-72.457-55.886M178.991 498c-.004 1.925-.292 5.863-.639 8.75l-.631 5.25h168.115l2.582-7.753c1.42-4.265 2.582-8.202 2.582-8.75 0-.655-29.53-.997-86-.997h-86l-.009 3.5m666.501-2.159c.283.737 1.526 4.67 2.761 8.74l2.247 7.4 84.033.01 84.032.009-.334-7.25c-.185-3.988-.424-7.851-.533-8.586-.163-1.101-15.356-1.364-86.459-1.5-71.758-.136-86.175.061-85.747 1.177M178 534.25V539h161.75l.625-3.125c1.401-7.005 9.396-6.375-80.875-6.375H178v4.75m677.401-4.09c-.224.363-.219 1.263.012 2 .231.737.691 2.577 1.023 4.09l.602 2.75h162.072l-.305-4.54-.305-4.539-81.345-.211c-44.74-.115-81.529.087-81.754.45M178.19 557.75c.317 1.647 5.022 1.765 79.574 2.006 78.734.254 79.236.243 79.236-1.75 0-1.991-.587-2.006-79.573-2.006-75.246 0-79.555.095-79.237 1.75m681 0c.317 1.647 5.022 1.765 79.574 2.006 78.734.254 79.236.243 79.236-1.75 0-1.991-.587-2.006-79.573-2.006-75.246 0-79.555.095-79.237 1.75m-267.426 61.246c-5.314 1.6-9.851 5.266-17.121 13.837-25.039 29.518-57.078 83.908-63.18 107.256-2.469 9.445-1.592 24.017 2.04 33.911 5.691 15.504 20.428 42.908 35.092 65.255 4.603 7.015 8.669 13.95 9.036 15.41l.666 2.654-8.247-.636c-11.586-.893-21.303.718-38.05 6.31-39.214 13.094-76.445 35.395-102.595 61.452-13.314 13.266-15.704 17.513-16.248 28.874-.457 9.521 1.624 16.056 9.133 28.681 24.523 41.236 61.352 83.914 98.21 113.809 17.532 14.22 32.064 16.458 41.718 6.425 4.794-4.981 6.782-11.348 6.782-21.718 0-15.316-5.44-49.276-11.981-74.792-3.626-14.143-3.779-17.247-.926-18.774 6.029-3.227 49.925-6.476 74.407-5.508 28.081 1.11 47.685 3.542 50.75 6.296 2.32 2.084 2.248 3.054-1.216 16.365-7.705 29.6-12.442 60.84-11.886 78.37.329 10.362.578 11.554 3.359 16.108 5.582 9.142 16.499 12.016 28.527 7.51 13.636-5.108 56.905-45.376 78.54-73.091 17.972-23.023 30.599-41.299 38.69-56 7.572-13.759 8.597-25.566 3.189-36.755-5.327-11.024-30.748-33.429-55.953-49.314-12.208-7.694-38.109-20.26-53.045-25.735-19.188-7.034-26.374-8.541-40.205-8.435-11.11.085-12.25-.071-12.25-1.684 0-.978 4.207-8.258 9.349-16.178 15.828-24.38 29.937-51.011 35.395-66.811 3.639-10.534 3.812-25.367.415-35.588-3-9.028-11.982-27.782-20.594-43-5.342-9.439-22.581-36.494-26.762-42-8.193-10.791-18.072-22.459-22.234-26.263-7.154-6.538-14.836-8.641-22.805-6.241m-42.005 2.427c-4.802 1.714-6.273 2.692-24.259 16.122-37.912 28.311-83.533 53.684-104.171 57.937-19.084 3.932-77.119 4.569-101.691 1.115-12.899-1.814-16.559-3.441-27.138-12.068-9.823-8.011-12.902-9.529-19.324-9.529-3.916 0-5.686.558-8.033 2.533-6.237 5.248-6.546 14.168-1.061 30.568 7.427 22.204 12.401 26.645 33.918 30.283 23.812 4.026 38.012 5.056 69.5 5.041 37.869-.018 68.408-3.108 85-8.601 16.283-5.39 60.267-41.046 86.808-70.371 18.008-19.898 25.856-33.542 22.691-39.454-.651-1.218-1.516-1.828-1.922-1.356-.406.471-3.61 4.457-7.119 8.857-26.572 33.318-62.102 66.348-94.47 87.825-6.278 4.165-8.163 4.857-18 6.603-27.052 4.803-37.394 5.574-73.988 5.521-36.317-.052-48.198-.998-75.166-5.979l-9.166-1.693-2.962-6.639c-4.431-9.928-9.373-26.042-9.55-31.138-.239-6.884 2.257-6.481 11.496 1.855 4.208 3.797 10.571 8.987 14.139 11.533 6.083 4.341 7.135 4.72 16.848 6.072 29.077 4.049 73.835 4.513 102.482 1.064 11.887-1.431 14.288-2.083 25.548-6.939 33.113-14.28 66.417-34.381 94.331-56.932 19.557-15.8 25.334-21.356 23.5-22.602-1.957-1.331-3.689-1.253-8.241.372m88.975-.622c-1.5.626-.974 1.499 3.5 5.814 28.6 27.578 73.242 56.365 115.5 74.48 9.935 4.259 12.768 5.001 24.5 6.416 28.416 3.428 73.903 2.975 102.508-1.02 8.667-1.211 10.15-1.75 16.151-5.875 3.634-2.498 10.111-7.709 14.393-11.579 8.103-7.324 9.632-8.045 11.721-5.529 1.017 1.226.748 3.332-1.442 11.25-2.928 10.587-10.42 30.242-11.528 30.242-.378 0-5.603.873-11.612 1.939-26.985 4.791-37.351 5.563-73.925 5.511-36.559-.053-45.829-.763-72.415-5.546-9.983-1.796-12.18-2.57-17.5-6.16-33.714-22.749-68.865-55.603-96.788-90.46-5.806-7.249-6.651-7.956-7.176-6-1.09 4.067-.622 7.172 1.897 12.583 11.683 25.097 83.807 90.526 108.196 98.152 17.921 5.604 62.558 9.622 96.286 8.666 27.845-.789 61.006-4.659 71.426-8.335 10.656-3.76 17.521-14.727 22.705-36.274C938.833 683.69 934.46 675 923.018 675c-5.683 0-9.424 1.806-17.518 8.455-7.961 6.54-13.865 10.216-18.582 11.569-8.948 2.566-37.74 4.185-65.418 3.678-42.875-.785-48.954-1.998-76.315-15.231-25.885-12.518-46.282-25.23-76.185-47.478-19.347-14.395-25.167-17.316-30.266-15.192m-45.234 7.767c-6.668 3.539-30.852 36.138-47.799 64.432-9.461 15.795-22.282 42.203-24.289 50.028-2.007 7.827-1.459 17.855 1.425 26.095 5.279 15.083 26.295 52.941 40.733 73.377 9.785 13.85 25.836 33.97 28.7 35.976 2.208 1.547 8.237 2.034 11.184.903 1.953-.749 18.318-20.976 28.393-35.092 15.426-21.614 37.729-61.968 42.666-77.195 2.232-6.886 2.289-18.861.125-26.114-1.873-6.28-12.951-29.363-20.156-42.003-12.041-21.122-34.488-53.073-46.155-65.697-5.555-6.01-9.822-7.366-14.827-4.71m-55 240.45c-19.224 2.952-56.397 18.223-79 32.453-14.42 9.079-31.143 22.219-42.669 33.529-16.303 15.998-16.483 18.523-2.938 41.24 24.653 41.35 56.691 78.348 95.176 109.911 13.272 10.884 18.923 13.395 23.46 10.422 4.564-2.99 4.898-5.495 3.142-23.573-3.116-32.088-10.423-65.894-20.523-94.947-2.762-7.946-4.799-14.808-4.526-15.25 1.051-1.701 2.339-.617 5.287 4.447 1.681 2.888 3.444 5.838 3.918 6.558.707 1.071 2.469 1.031 9.768-.227 23.435-4.037 36.553-4.999 68.405-5.02 31.824-.021 46.002 1.004 69 4.987 9.658 1.672 8.956 2.014 14.225-6.925 2.641-4.479 4.775-5.971 4.775-3.339 0 .706-2.442 8.58-5.426 17.496-11.257 33.631-20.611 81.278-20.558 104.72.036 15.937 8.354 16.362 26.702 1.362 34.51-28.211 65.387-62.562 87.967-97.862 13.392-20.936 16.529-26.719 17.063-31.456.988-8.767-.143-11.123-10.075-20.989-29.65-29.456-69.35-52.516-111.249-64.623-16.92-4.889-27.67-3.986-38.121 3.204-2.308 1.587-9.188 8.944-15.289 16.347-9.281 11.262-11.734 13.652-15.02 14.637-6.912 2.071-10.034.042-22.135-14.382-11.607-13.835-14.319-16.429-20.391-19.51-3.1-1.573-15.54-4.783-15.902-4.103-.036.068-2.316.47-5.066.893m180.717 57.543c-8.599 6.022-5.012 19.439 5.197 19.439 7.642 0 12.477-6.189 10.481-13.417-1.764-6.388-10.413-9.71-15.678-6.022m23.609.151c-9.011 5.59-4.856 19.288 5.85 19.288 3.769 0 5.005-.517 7.423-3.106 4.668-4.997 3.659-12.833-2.089-16.229-3.56-2.103-7.747-2.085-11.184.047m-289.114 7.072c-2.591 2.632-4.712 5.235-4.712 5.785 0 .549 2.476 3.445 5.503 6.434l5.502 5.434-5.502 5.56c-3.027 3.059-5.503 6.015-5.503 6.57 0 1.263 9.233 10.433 10.505 10.433.516 0 3.439-2.476 6.498-5.503l5.56-5.502 5.434 5.502c2.989 3.027 5.951 5.503 6.582 5.503.631 0 3.291-2.292 5.911-5.093l4.764-5.093-5.812-5.873-5.812-5.873 5.838-6.12 5.838-6.12-5.643-5.643-5.642-5.643-6.011 5.948-6.01 5.947-5.779-5.718c-3.178-3.146-6.008-5.719-6.288-5.719-.279 0-2.629 2.153-5.221 4.784m263.949 17.828c-6.643 6.643-2.289 18.395 6.812 18.384 10.385-.013 14.837-13.463 6.41-19.365-3.709-2.598-10.119-2.122-13.222.981m23.416.465c-4.877 4.877-3.945 12.797 1.913 16.258 10.699 6.32 21.693-7.498 12.933-16.258-2.492-2.492-3.903-3.077-7.423-3.077s-4.931.585-7.423 3.077m-70.008 217.011c-49.361 9.683-77.441 57.617-57.891 98.824 4.699 9.905 16.697 21.455 27.822 26.783 10.471 5.016 17.624 6.97 30.329 8.287 16.421 1.703 32.505-1.065 42.366-7.289 2.19-1.383 6.386-5.573 9.324-9.312l5.343-6.799 3.569 4.432c6.235 7.742 10.393 11.242 17.061 14.363 7.52 3.519 13.848 3.84 36.749 1.867 18.96-1.635 22.818-3.927 26.871-15.971l2.264-6.729 1.125 2.978c2.496 6.608 5.615 11.812 8.709 14.529 7.457 6.547 19.177 6.062 26.33-1.091 5.544-5.544 6.233-9.203 5.434-28.845-.724-17.783-.062-22.115 3.38-22.115 3.169 0 4.035 4.576 4.351 23 .275 16.005.501 17.908 2.65 22.277 7.818 15.894 30.257 14.945 35.723-1.51 1.467-4.419 1.61-7.546 1.02-22.272-.698-17.427-.078-22.495 2.755-22.495 3.505 0 4.139 2.985 4.647 21.899.489 18.202.564 18.73 3.5 24.601 3.701 7.402 8.917 10.751 16.868 10.832 10.033.103 16.998-5.851 19.617-16.769.99-4.126 1.735-5.501 2.767-5.105.776.298 1.529.542 1.674.542.144 0 2.432 2.706 5.085 6.014 8.779 10.945 20.644 16.781 35.989 17.701 11.132.668 18.527-.78 25.588-5.008 10.126-6.063 12.74-16.034 6.912-26.361-1.65-2.924-3-5.741-3-6.26 0-.519 2.754-4.113 6.121-7.986 7.076-8.141 7.345-8.138 13.582.123 6.014 7.966 6.116 8.993 1.287 12.938-8.41 6.868-10.286 15.826-5.047 24.088 4.322 6.816 7.638 8.251 19.057 8.251 8.348 0 10.182-.335 15.121-2.761 13.043-6.405 19.937-16.021 20.679-28.844.387-6.679.112-8.408-2.108-13.257-1.404-3.067-4.159-7.679-6.122-10.251-4.667-6.111-4.581-8.418.46-12.411 11.079-8.775 9.796-24.517-2.451-30.08-12.208-5.544-30.657.736-41.434 14.104-2.438 3.025-5.032 5.853-5.763 6.285-.919.543-2.77-1.07-5.997-5.226-8.491-10.933-18.088-15.887-32.521-16.786-19.207-1.196-34.246 7.621-45.367 26.596-1.99 3.396-4.028 5.921-4.529 5.611-.501-.309-2.645-4.264-4.765-8.788-4.662-9.948-8.401-14.393-15.234-18.113-10.849-5.904-20.591-6.882-35.704-3.584-8.568 1.87-9.63 1.901-16.953.488-6.14-1.184-12.093-1.375-27.812-.89-23.514.725-27.037 1.729-30.762 8.762-2.063 3.896-2.227 5.811-2.73 31.858-.379 19.641-.885 28.064-1.739 28.918-.938.938-1.315.891-1.709-.214-1.317-3.695-2.547-15.385-2.57-24.417-.076-30.566-12.018-45.037-38.185-46.271-19.524-.921-32.929 6.473-36.163 19.946-.354 1.472.009 5.747.805 9.5 1.335 6.291 1.308 7.099-.342 10.325-2.996 5.86-5.196 5.136-8.938-2.941-3.661-7.9-7.349-11.313-14.21-13.148-9.503-2.542-18.7 1.128-22.707 9.059-1.88 3.721-2.25 6.075-2.25 14.308 0 5.419-.458 10.709-1.017 11.754-2.279 4.258-14.817 4.419-25.057.322-4.905-1.963-11.185-8.938-12.75-14.161-3.641-12.154 1.255-26.316 11.429-33.055 6.049-4.006 10.097-5.095 24.522-6.595 16.939-1.761 22.297-5.417 24.372-16.634 1.677-9.069-4.649-18.391-14.458-21.304-5.795-1.721-17.589-1.965-24.972-.517m-256.61 1.792c-8.41 3.82-12.599 12.449-10.53 21.694 1.249 5.582 6.715 15.482 11.879 21.515 3.995 4.667 9.42 6.494 14.84 4.998 12.962-3.579 20.066-18.186 15.884-32.662-3.954-13.69-19.534-21.241-32.073-15.545m-301.959 1.327c-4.431 1.548-9.268 5.465-11.234 9.095-1.587 2.929-1.708 7.229-1.438 51.198.33 53.833.438 54.766 7.161 61.489 9.482 9.482 26.804 6.515 32.119-5.501 1.029-2.326 2.219-6.645 2.644-9.597 1.202-8.354 2.651-7.862 16.171 5.491 11.722 11.578 16.386 14.689 24.168 16.12 4.465.822 11.238-.889 16.138-4.077 4.703-3.059 6.404-3.039 12.557.154 6.152 3.192 11.471 3.968 16.996 2.48 8.353-2.25 14.037-9.938 14.203-19.213.289-16.202-1.681-61.621-2.755-63.53-1.673-2.972-1.548-9.312.27-13.662 2.312-5.534 1.94-14.507-.818-19.722-6-11.347-24.162-12.469-32.942-2.034-4.19 4.979-5.246 11.729-3.244 20.73 1.598 7.183 1.597 7.979-.017 13.732-1.449 5.164-1.605 8.516-1.007 21.69.737 16.275.191 23.66-1.967 26.612-1.202 1.643-1.52 1.592-5.143-.833-6.398-4.282-27.981-25.506-29.768-29.272-2.212-4.662-1.08-6.765 8.915-16.557 13.715-13.436 17.466-20.987 15.391-30.981-2.652-12.774-17.295-17.984-28.721-10.219-2.185 1.485-6.357 5.532-9.271 8.994-6.798 8.077-8.26 7.97-12.549-.918-1.758-3.644-4.47-7.512-6.028-8.597-5.896-4.109-13.496-5.287-19.831-3.072m303.983 10.054c-5.289 4.55-3.198 12.764 3.631 14.264 6.54 1.437 7.547 5.882 2.812 12.418-1.69 2.334-2.852 4.464-2.583 4.734 1.032 1.031 11.456-6.621 13.378-9.82 6.278-10.452 1.434-22.559-9.445-23.604-4.176-.402-5.34-.102-7.793 2.008m258.28-1.275c-17.161 3.058-34.304 13.179-43.806 25.86-20.035 26.742-13.776 61.291 13.756 75.929 19.344 10.284 54.379 10.757 65.132.879 3.586-3.294 4.976-6.687 6.634-16.195 2.534-14.531 1.702-27.404-1.969-30.451-2.229-1.85-7.74-1.441-12.362.916l-4.164 2.125 2.147 4.208c2.38 4.665 3.646 18.077 2.456 26.014-.657 4.381-.816 4.55-5.382 5.731-7.408 1.916-21.242 2.402-28.851 1.013-9.62-1.756-18.162-6.033-23.547-11.79-14.047-15.018-12.256-43.593 3.632-57.954 10.894-9.847 28.88-15.042 42.676-12.328 7.306 1.437 7.993.989 8.629-5.636.685-7.127-1.504-8.753-12.098-8.986-4.48-.098-10.277.201-12.883.665m-508.904 4.844c-3.79 6.86-12.857 17.814-26.629 32.17l-11.991 12.5.526-21.703c.465-19.156.331-22.002-1.142-24.25-2.004-3.058-5.139-3.275-12.579-.872-4.509 1.456-5.099 1.945-4.517 3.75 2.996 9.297 3.509 15.231 3.548 41.075.022 14.85-.24 32.85-.583 40-.546 11.387-.398 13.434 1.192 16.5 2.27 4.376 6.228 5.017 12.859 2.084 3.548-1.569 4.478-2.445 4.049-3.811-1.777-5.648-2.728-14.854-3.229-31.273l-.564-18.5 13.85 14.055c7.618 7.731 19.926 20.456 27.351 28.278 12.731 13.412 13.714 14.221 17.25 14.195 4.085-.03 7.162-2.353 8.79-6.633 1.349-3.548 1.195-5.395-.45-5.395-3.258 0-20.235-15.153-39.86-35.577l-11.904-12.388 16.409-15.956c19.205-18.677 22.593-22.967 20.959-26.552-1.059-2.325-4.403-4.584-8.694-5.875-1.612-.485-2.512.326-4.641 4.178m51.641-.669c-3.351 1.842-5.454 5.166-5.478 8.655-.031 4.648 1.42 6.845 5.385 8.153 4.138 1.366 9.403-.433 11.962-4.086 5.19-7.41-3.87-17.121-11.869-12.722m123.456 18.18c-6.962 2.062-14.992 6.221-20.841 10.794-3.604 2.818-6.515 2.341-9.488-1.557-1.436-1.883-5.114-4.648-8.173-6.144-5.229-2.559-6.055-2.675-13.758-1.947-4.508.426-12.533.678-17.835.561-10.721-.238-13.849.772-18.128 5.858-3.707 4.405-5.099 11.723-4.455 23.413.303 5.505.141 17.241-.361 26.08-.758 13.359-.653 17.085.622 22.086 1.858 7.282 5.58 12.235 11.519 15.33 8.254 4.303 19.765 1.442 24.781-6.159 2.647-4.01 2.661-4.135 2.667-23.094.003-10.484.395-19.866.871-20.849 1.803-3.724 10.009-6.02 13.537-3.788.979.621 1.641 4.067 2.158 11.235 1.453 20.18 10.935 35.03 27.287 42.736 20.96 9.877 45.174 5.592 61.641-10.909 10.466-10.488 14.951-21.434 14.951-36.487 0-14.49-3.626-23.872-13.167-34.072-12.877-13.765-34.107-18.927-53.828-13.087m151.044-.758c-9.538 2.516-18.076 7.338-24.509 13.842-10.22 10.332-14.611 21.32-14.616 36.575-.01 28.669 21.309 50 49.97 50 13.181 0 23.134-3.36 33.854-11.427 19.818-14.916 26.042-42.391 14.68-64.812-3.481-6.87-13.515-16.741-20.379-20.049-11.693-5.636-27.106-7.267-39-4.129m-143 11.543c-21.661 3.512-35.845 23.487-32.219 45.372 2.754 16.622 14.074 27.769 31.178 30.702 18.371 3.15 35.862-5.934 44.255-22.983 3.052-6.2 3.286-7.389 3.286-16.696 0-8.738-.337-10.741-2.635-15.641-5.172-11.029-15.043-18.548-27.299-20.793-6.703-1.228-8.785-1.223-16.566.039m148.233-.015c-7.101 1.183-16.396 6.03-21.415 11.168-2.268 2.322-5.517 7.146-7.221 10.721-2.853 5.989-3.097 7.326-3.097 17 0 9.27.307 11.144 2.625 16 3.99 8.357 9.011 13.466 17.179 17.48 30.284 14.881 64.661-10.493 58.782-43.387-2.679-14.99-14.033-26.133-29.551-29.002-6.682-1.235-9.788-1.232-17.302.02m573.953.451c-10.439 2.809-19.47 11.48-20.734 19.908-1.01 6.735 1.836 11.842 11.469 20.582 4.515 4.097 8.855 8.663 9.644 10.148 4.868 9.161-3.744 16.757-15.117 13.334-2.67-.803-4.927-1.365-5.016-1.247-3.225 4.267-3.095 9.042.318 11.747 2.306 1.827 3.647 2.099 8.303 1.685 14.207-1.263 26.013-11.838 25.919-23.219-.035-4.308-4.06-10.335-11.859-17.757-12.461-11.857-13.912-17.225-6.1-22.564 3.073-2.099 4.274-2.319 10.108-1.849 6.312.507 6.674.416 7.75-1.946 1.755-3.851 1.35-7.116-1.094-8.827-2.698-1.89-6.554-1.889-13.591.005m-310.86.42c-8.101 1.723-14.326 6.69-14.326 11.43 0 2.477 2.612 6.588 4.186 6.588.589 0 2.788-1.551 4.886-3.446 4.445-4.016 10.559-5.94 16.93-5.328 8.99.864 13.532 4.908 14.628 13.024l.642 4.75h-10.547c-12.496 0-20.509 2.104-27.237 7.153-10.318 7.743-12.289 22.567-4.291 32.27 8.208 9.957 23.574 11.263 36.352 3.089l5.316-3.401.661 3.009c.897 4.083 4.277 5.565 9.221 4.043 6.415-1.976 6.554-2.239 4.079-7.736-2.001-4.445-2.279-7.127-2.845-27.427-.397-14.226-1.084-23.603-1.868-25.5-1.693-4.096-5.821-8.276-10.595-10.73-4.529-2.329-18.12-3.293-25.192-1.788m68.768-.117c-1.209.813-1.209 1.628 0 5.791 1.499 5.163 1.814 22.508.907 49.941-.563 17.015-.136 18.403 5.654 18.403 3.244 0 10.345-2.334 10.345-3.4 0-.276-.675-3.094-1.5-6.261-1.1-4.223-1.5-11.288-1.5-26.486v-20.728l6.386-3.143c10.86-5.347 21.375-3.984 25.347 3.285 1.517 2.776 1.838 6.876 2.267 29.021.543 27.986.47 27.664 6.23 27.697 1.501.008 4.478-.684 6.614-1.539l3.885-1.555-1.339-3.885c-.761-2.209-1.573-10.488-1.883-19.195-.299-8.421-.765-19.046-1.035-23.612l-.491-8.301 5.506-2.521c12.565-5.752 23.193-3.731 27.615 5.251 2.356 4.786 2.393 5.29 2.101 28.503-.261 20.702-.097 23.832 1.321 25.25 2.048 2.049 6.321 2.065 11.373.043l3.938-1.575-1.597-3.675c-1.236-2.842-1.74-8.879-2.226-26.674-.45-16.464-1.026-23.853-2.027-26-2.576-5.531-6.76-10.033-11.642-12.526-9.175-4.686-25.794-2.773-35.413 4.076l-2.734 1.947-5.144-3.462c-6.049-4.071-9.969-4.976-18.561-4.286-4.503.361-7.991 1.413-12.143 3.662-3.535 1.915-5.97 2.723-6.193 2.055-.201-.605-1.332-2.223-2.512-3.595-2.33-2.709-9.074-4.172-11.549-2.506m159.406.534c-12.312 3.894-20.757 13.154-24.465 26.828-2.028 7.476-.984 21.079 2.131 27.773 6.576 14.131 22.818 21.706 40.998 19.122 12.685-1.803 16.862-5.491 14.09-12.442-.826-2.07-1.783-3.61-2.128-3.421-14.09 7.72-28.046 7.377-36.568-.9-4.339-4.214-6.059-7.787-7.098-14.751-.716-4.799-.684-4.881 1.662-4.292 5.134 1.288 26.61 1.844 32.6.843 12.546-2.095 17.267-6.412 17.274-15.795.008-10.237-8.168-20.373-18.819-23.331-4.939-1.372-14.759-1.189-19.677.366m-773.138 1.226-4.139 1.467 1.639 4.704c1.398 4.014 1.601 8.983 1.387 33.881-.22 25.426-.05 29.379 1.321 30.75 2.004 2.004 7.292 2.012 12.274.019l3.885-1.555-1.615-4.195c-1.354-3.52-1.616-8.97-1.624-33.804-.007-23.512-.29-29.946-1.372-31.25-1.656-1.995-6.159-2.001-11.756-.017m44.771-.729c-1.136.721-1.15 1.518-.082 4.735 1.396 4.205 1.757 22.18.984 49.008-.361 12.546-.167 16.497.873 17.75 1.701 2.05 7.972 2.106 12.741.113 3.041-1.27 3.479-1.84 2.887-3.75-2.87-9.254-3.563-14.518-3.621-27.528l-.064-14.277 3.39-4.723c3.895-5.428 9.001-9.224 12.407-9.224 2.373 0 5.697 2.589 6.581 5.125.375 1.076.966.942 2.718-.614 8.918-7.922 2.282-20.027-9.198-16.779-3.436.973-10.488 6.558-14.051 11.128l-2.698 3.462-.015-5.411c-.009-2.976-.346-5.906-.75-6.511-1.976-2.959-9.067-4.426-12.102-2.504m86.425 9.545c-5.554 2.05-8.576 4.493-12.239 9.891-8.117 11.962-6.303 29.39 3.975 38.188 7.007 5.997 16.741 7.853 26.274 5.009 6.424-1.917 11.29-6.037 14.966-12.673 2.674-4.829 2.965-6.242 2.959-14.356-.006-7.3-.416-9.765-2.17-13.053-2.696-5.052-7.502-9.817-12.215-12.109-4.775-2.322-16.38-2.805-21.55-.897m150.436-.566c-12.687 4.16-19.806 15.56-18.766 30.05.823 11.453 7.352 20.114 17.774 23.576 15.437 5.127 31.73-4.258 35.035-20.18 2.808-13.523-2.475-25.841-13.537-31.567-4.349-2.251-16.091-3.327-20.506-1.879m491.506.784c-5.123 2.696-8.414 6.494-10.532 12.157-1.121 2.996-1.817 5.668-1.547 5.938 1.013 1.014 23.783 2.046 29.126 1.321 6.753-.917 8.908-2.832 8.908-7.917 0-4.563-2.404-8.546-6.759-11.202-4.04-2.463-14.764-2.629-19.196-.297m-637 13.71c-4.146 1.876-6.523 4.807-7.55 9.308-2.062 9.04 3.393 16.323 12.227 16.323 4.356 0 5.464-.441 8.344-3.321 4.08-4.08 5.197-9.041 3.334-14.807-2.23-6.901-9.905-10.422-16.355-7.503m147.716.136c-3.623 1.574-7.156 7.881-7.194 12.844-.029 3.754 2.608 9.182 5.314 10.938 11.538 7.487 24.519-4.784 18.782-17.754-3.021-6.828-9.632-9.186-16.902-6.028m265.921 12.962c-7.676 1.857-11.326 5.769-11.906 12.76-.391 4.712-.118 5.754 2.235 8.55 4.747 5.641 15.718 6.722 24.216 2.385 6.324-3.228 6.88-4.491 6.51-14.792l-.328-9.13-3.682-.609c-5.43-.898-11.006-.624-17.045.836"/>
  <path fill="#694918" fill-rule="evenodd" d="M576.5 109.654c-29.563 2.352-42.725 3.994-60 7.486-70.739 14.298-133.708 44.684-190 91.683-13.924 11.625-42.856 41.248-54.548 55.85C224.01 324.545 195.996 387.295 182.964 464c-1.074 6.325-1.956 11.837-1.959 12.25-.003.413 22.382.75 49.745.75l49.75-.001 6.901-22.249c3.795-12.238 6.945-22.749 7-23.359.054-.611-8.217-9.963-18.38-20.784-10.164-10.821-18.831-20.303-19.261-21.071-1.117-1.997 1.105-6.265 3.612-6.938 1.17-.314 10.903-.638 21.628-.72 10.725-.082 24.737-.426 31.137-.764l11.638-.614-15.388-25.988C300.924 340.219 294 327.801 294 326.917c0-.884.895-2.417 1.989-3.407 1.92-1.737 2.975-1.685 30.021 1.491 15.417 1.811 28.311 3.011 28.655 2.668.343-.344-5.741-15.153-13.521-32.909C333.365 277.003 327 261.5 327 260.309c0-2.373 2.424-5.309 4.383-5.309.683 0 16.216 6.56 34.519 14.577 18.303 8.017 33.415 14.43 33.584 14.25.168-.18-1.185-12.927-3.008-28.327-2.934-24.791-3.149-28.258-1.873-30.25.807-1.261 2.45-2.25 3.735-2.25 1.262 0 13.693 6.758 27.625 15.019 13.932 8.26 25.539 14.811 25.793 14.557.254-.254.87-14.749 1.371-32.211.777-27.141 1.146-32.012 2.545-33.557.9-.994 2.475-1.808 3.501-1.808 1.062 0 11.874 9.497 25.089 22.037 19.025 18.051 23.354 21.713 23.941 20.25.395-.983 3.019-16.412 5.833-34.287s5.541-34.16 6.061-36.19c.985-3.843 3.405-5.42 6.709-4.371.994.316 10.557 14.284 21.25 31.04 10.693 16.757 19.746 30.479 20.118 30.494.372.015 6.447-11.282 13.5-25.103 13.823-27.089 15.455-29.183 19.548-25.091 1.176 1.177 7.57 12.805 14.207 25.841 6.638 13.035 12.467 23.741 12.954 23.79.486.05 9.394-13.185 19.795-29.41 10.4-16.225 19.527-30.121 20.28-30.88 1.723-1.734 6.134-.756 7.399 1.642.505.956 3.531 18.059 6.725 38.006 3.194 19.948 6.114 36.148 6.488 36 .375-.147 10.65-9.707 22.833-21.244 12.183-11.537 22.822-21.352 23.643-21.811 1.956-1.095 5.222-.013 6.352 2.105.494.925 1.23 15.994 1.637 33.486.617 26.569.968 31.716 2.132 31.269.767-.294 12.43-7.096 25.918-15.115 25.174-14.966 28.3-16.212 30.774-12.26.777 1.241.183 9.275-2.208 29.858-1.799 15.487-3.08 28.35-2.846 28.584.234.234 15.448-6.166 33.809-14.222 31.38-13.767 33.534-14.562 35.884-13.249 1.375.769 2.627 2.283 2.783 3.364.155 1.082-6.229 16.817-14.187 34.967-7.959 18.15-14.03 33.156-13.492 33.347.539.191 13.553-1.107 28.922-2.885C901.34 321.454 902 321.497 902 326.94c0 1.682-5.642 12.211-15.019 28.025-8.26 13.932-14.848 25.502-14.639 25.711.209.209 14.505.645 31.769.969 44.247.832 43.768.209 19.639 25.544-8.937 9.385-17.513 18.572-19.056 20.416l-2.805 3.353 5.669 18.271c3.118 10.049 6.311 20.408 7.095 23.021l1.424 4.75h99.961l-.497-2.25c-.274-1.238-1.62-8.833-2.991-16.879-11.832-69.431-41.638-135.477-86.244-191.101-38.346-47.819-85.396-85.848-140.023-113.179-50.582-25.307-102.024-39.242-160.783-43.555-12.845-.943-39.347-1.149-49-.382m-55.391 90.599c-2.965 18.836-5.806 35.363-6.313 36.727-1.047 2.818-2.515 3.983-5.047 4.005-.962.008-11.916-9.694-24.34-21.561-12.425-11.867-22.802-21.365-23.06-21.106-.258.258-.858 14.281-1.332 31.162-.768 27.299-1.06 30.91-2.646 32.663-1.214 1.341-2.524 1.784-4.102 1.388-1.275-.32-13.362-7.14-26.86-15.156-13.499-8.016-24.696-14.417-24.883-14.225-.186.193.961 11.15 2.55 24.35 1.589 13.2 2.969 25.892 3.067 28.204.203 4.802-1.382 7.296-4.638 7.296-1.237 0-16.482-6.254-33.877-13.897C352.232 272.46 338 266.44 338 266.727c0 .286 6.015 14.302 13.367 31.147 7.351 16.844 13.662 31.576 14.023 32.737.426 1.369-.011 2.935-1.245 4.459l-1.902 2.348-28.192-3.306c-15.505-1.818-28.34-3.149-28.522-2.958-.182.19 6.361 11.596 14.54 25.346 15.198 25.549 16.797 29.431 12.972 31.478-1.163.623-14.581 1.312-33.029 1.697-17.089.357-30.945.997-30.791 1.422.153.426 7.029 7.906 15.279 16.623 8.25 8.717 16.022 16.997 17.27 18.4l2.271 2.552-7.152 22.914c-3.933 12.603-7.365 23.477-7.627 24.164-.375.985 6.936 1.25 34.52 1.25h34.996l5.062-10.25c27.868-56.44 79.57-103.307 140.16-127.055 18.033-7.067 43.685-13.248 65.5-15.78 13.671-1.588 44.681-1.586 58 .002 89.647 10.692 165.658 63.918 206.118 144.333l4.402 8.75h69.729l-7.371-23.25c-4.054-12.788-7.26-23.996-7.125-24.907.136-.911 8.122-9.911 17.747-20l17.5-18.343-32-.744c-31.051-.722-32.053-.808-33.773-2.889-1.071-1.296-1.527-2.921-1.152-4.102.341-1.076 7.143-12.971 15.116-26.434 7.972-13.463 14.276-24.697 14.009-24.964-.268-.268-12.466.937-27.108 2.678-14.641 1.74-27.732 2.886-29.091 2.545-5.249-1.318-4.587-3.737 10.354-37.824 7.751-17.683 13.992-32.233 13.869-32.334-.123-.1-14.399 6.054-31.724 13.675-17.325 7.622-32.722 13.865-34.215 13.875-5.077.034-5.178-1.712-1.776-30.558 1.718-14.571 2.982-27.166 2.808-27.99-.23-1.087-5.655 1.682-19.817 10.118-29.131 17.351-31.668 18.688-34.036 17.937-1.143-.363-2.442-1.634-2.886-2.825-.444-1.19-1.133-15.664-1.531-32.164-.398-16.5-.899-30.178-1.113-30.395-.215-.217-7.875 6.758-17.023 15.5s-19.529 18.483-23.069 21.645c-11.611 10.371-11.586 10.414-18.272-31.772-2.961-18.688-5.668-34.785-6.015-35.771-.463-1.315-5.672 6.098-19.518 27.774-20.008 31.325-21.337 32.82-25.68 28.89-1.134-1.027-7.459-12.602-14.055-25.724-6.596-13.121-12.359-23.472-12.807-23.002-.448.47-6.101 11.205-12.56 23.855-6.46 12.65-12.421 23.787-13.245 24.75-2.107 2.458-5.717 2.176-7.867-.616-1.003-1.301-9.698-14.782-19.323-29.958-9.625-15.176-17.725-27.61-18-27.632-.275-.021-2.926 15.372-5.891 34.209m40.786-22.888c-3.626 1.808-5.017 5.351-3.53 8.994 2.366 5.8 10.491 5.78 12.7-.031 2.223-5.845-3.739-11.671-9.17-8.963m69.105-.582c-4.77 1.519-6.769 8.305-3.43 11.644 5.666 5.666 14.944-.614 11.635-7.876-1.116-2.449-5.714-4.56-8.205-3.768m-138.443 15.44c-2.389 3.409-1.954 7.319 1.078 9.704 1.449 1.14 3.413 2.073 4.365 2.073.952 0 2.916-.933 4.365-2.073 3.032-2.385 3.467-6.295 1.078-9.704-2.189-3.125-8.697-3.125-10.886 0M694 192c-2.698 2.698-2.556 7.129.314 9.826 4.61 4.33 11.686 1.407 11.686-4.826 0-3.849-3.151-7-7-7-1.667 0-3.889.889-5 2m-100.927 14.635c-1.14 1.449-2.073 3.413-2.073 4.365 0 3.002 3.912 7 6.85 7 4.529 0 7.15-2.566 7.15-7 0-2.883-.574-4.289-2.223-5.443-3.409-2.389-7.319-1.954-9.704 1.078m-59.245 4.575c-5.396 1.827-5.37 10.494.038 12.734 5.983 2.479 11.561-3.086 9.085-9.063-1.373-3.314-5.395-4.932-9.123-3.671m124.023-.007c-3.844 1.301-5.449 5.739-3.465 9.577 2.7 5.221 9.531 5.216 12.233-.01 3.02-5.841-2.378-11.731-8.768-9.567m-224.976 5.172c-1.306.651-2.956 2.395-3.666 3.875-1.085 2.264-1.042 3.172.269 5.707 4.148 8.022 15.935 2.282 12.473-6.076-1.439-3.473-5.779-5.149-9.076-3.506m323.87 1.375c-4.235 4.737-1.057 12.25 5.182 12.25 3.162 0 7.073-3.871 7.073-7 0-.952-.933-2.916-2.073-4.365-2.477-3.149-7.748-3.607-10.182-.885m-284.29 12.705c-2.973 2.973-3.158 6.842-.455 9.545 4.536 4.536 12.015 1.787 11.985-4.405-.018-3.655-.725-4.895-3.669-6.445-3.271-1.722-5.146-1.411-7.861 1.305m242.734-.416c-4.54 4.229-1.716 11.961 4.368 11.961 6.755 0 9.928-7.317 5.129-11.826-2.904-2.728-6.657-2.781-9.497-.135m-338.874 23.968c-6.814 2.746-4.817 13.326 2.516 13.326 6.882 0 9.865-8.067 4.534-12.26-2.87-2.258-3.757-2.393-7.05-1.066m437.32 1.066c-5.129 4.034-2.2 12.26 4.365 12.26s9.494-8.226 4.365-12.26c-1.449-1.14-3.413-2.073-4.365-2.073-.952 0-2.916.933-4.365 2.073m-393.807 3.137c-5.396 1.827-5.37 10.494.038 12.734 5.983 2.479 11.561-3.086 9.085-9.063-1.373-3.314-5.395-4.932-9.123-3.671m351.536-.04c-7.855 3.803-2.39 16.154 5.67 12.816 5.714-2.367 5.931-10.314.351-12.856-2.905-1.324-3.209-1.322-6.021.04m-401.807 41.053c-2.23 3.182-1.922 7.086.757 9.603 2.904 2.727 5.673 2.759 9.051.101 5.295-4.164 2.165-11.927-4.808-11.927-2.425 0-3.904.658-5 2.223m447.516.412c-1.14 1.449-2.073 3.413-2.073 4.365 0 .952.933 2.916 2.073 4.365 3.97 5.048 11.956 2.334 12.139-4.126.197-6.925-7.899-9.995-12.139-4.604m-491 4c-1.14 1.449-2.073 3.413-2.073 4.365 0 .952.933 2.916 2.073 4.365 3.968 5.045 12.26 2.207 12.26-4.196 0-6.882-8.067-9.865-12.26-4.534m534.978-.877c-2.743 2.221-3.026 7.508-.548 10.245 2.684 2.966 7.838 2.65 10.424-.638 2.722-3.46 2.617-5.912-.382-8.91-2.887-2.888-6.464-3.151-9.494-.697M332.364 345.17c-5.446 2.637-4.958 10.73.768 12.726 6.257 2.181 11.516-3.809 8.487-9.666-.846-1.637-2.569-3.252-3.829-3.589-2.796-.749-2.785-.75-5.426.529m526.531.195c-3.364 1.677-4.923 5.257-3.752 8.616 2.055 5.893 9.649 6.425 12.754.893 3.121-5.56-3.306-12.349-9.002-9.509M289 359c-4.536 4.536-1.787 12.015 4.405 11.985 3.655-.018 4.895-.725 6.445-3.669 1.722-3.271 1.411-5.146-1.305-7.861-2.973-2.973-6.842-3.158-9.545-.455m609.807.75c-.827.962-1.748 2.449-2.048 3.302-.838 2.388 1.808 7.676 4.225 8.443 7.435 2.36 12.928-6.44 7.443-11.925-2.114-2.114-7.74-2.009-9.62.18m-597.352 41.705c-4.645 4.644-1.698 11.545 4.929 11.545 4.099 0 6.616-2.598 6.616-6.829 0-6.554-6.892-9.37-11.545-4.716M889 399.719c-5.591 2.019-6.838 8.69-2.293 12.265 4.478 3.523 11.293.213 11.293-5.484 0-4.241-5.194-8.155-9-6.781M263 422c-4.259 4.259-1.146 12 4.826 12 3.464 0 7.174-3.685 7.174-7.126 0-5.884-7.815-9.059-12-4.874m661.174.314c-4.468 4.757-1.402 11.686 5.171 11.686 4.14 0 6.655-2.581 6.655-6.829 0-6.49-7.426-9.54-11.826-4.857m-333.018 13.802c-22.567 2.787-41.567 17.588-52.597 40.973-12.415 26.321-10.03 60.472 5.873 84.086 13.941 20.701 35.718 32.172 57.887 30.492 15.906-1.205 28.11-7.025 40.181-19.161 10.927-10.986 16.714-21.241 21.235-37.627 2.482-8.997 2.412-33.713-.122-42.877-10.261-37.112-39.828-59.917-72.457-55.886M178.991 498c-.004 1.925-.292 5.863-.639 8.75l-.631 5.25h168.115l2.582-7.753c1.42-4.265 2.582-8.202 2.582-8.75 0-.655-29.53-.997-86-.997h-86l-.009 3.5m666.501-2.159c.283.737 1.526 4.67 2.761 8.74l2.247 7.4 84.033.01 84.032.009-.334-7.25c-.185-3.988-.424-7.851-.533-8.586-.163-1.101-15.356-1.364-86.459-1.5-71.758-.136-86.175.061-85.747 1.177M178 534.25V539h161.75l.625-3.125c1.401-7.005 9.396-6.375-80.875-6.375H178v4.75m677.401-4.09c-.224.363-.219 1.263.012 2 .231.737.691 2.577 1.023 4.09l.602 2.75h162.072l-.305-4.54-.305-4.539-81.345-.211c-44.74-.115-81.529.087-81.754.45M178.19 557.75c.317 1.647 5.022 1.765 79.574 2.006 78.734.254 79.236.243 79.236-1.75 0-1.991-.587-2.006-79.573-2.006-75.246 0-79.555.095-79.237 1.75m681 0c.317 1.647 5.022 1.765 79.574 2.006 78.734.254 79.236.243 79.236-1.75 0-1.991-.587-2.006-79.573-2.006-75.246 0-79.555.095-79.237 1.75M554.5 626.646c-30.266 28.325-73.711 56.421-114.331 73.939-11.26 4.856-13.661 5.508-25.548 6.939-28.647 3.449-73.405 2.985-102.482-1.064-9.713-1.352-10.765-1.731-16.848-6.072-3.568-2.546-9.931-7.736-14.139-11.533-9.239-8.336-11.735-8.739-11.496-1.855.177 5.096 5.119 21.21 9.55 31.138l2.962 6.639 9.166 1.693c26.968 4.981 38.849 5.927 75.166 5.979 36.594.053 46.936-.718 73.988-5.521 9.837-1.746 11.722-2.438 18-6.603 25.149-16.687 57.038-44.619 77.808-68.154 12.552-14.224 27.094-32.188 26.003-32.123-.439.026-3.949 2.995-7.799 6.598m80.2-5.396c28.287 37.413 67.406 74.878 103.885 99.494 5.32 3.59 7.517 4.364 17.5 6.16 26.586 4.783 35.856 5.493 72.415 5.546 36.574.052 46.94-.72 73.925-5.511 6.009-1.066 11.234-1.939 11.612-1.939 1.108 0 8.6-19.655 11.528-30.242 2.19-7.918 2.459-10.024 1.442-11.25-2.089-2.516-3.618-1.795-11.721 5.529-4.282 3.87-10.759 9.081-14.393 11.579-6.001 4.125-7.484 4.664-16.151 5.875-28.605 3.995-74.092 4.448-102.508 1.02-11.732-1.415-14.565-2.157-24.5-6.416-30.252-12.968-60.158-30.304-86.183-49.956-10.822-8.173-28.303-23.015-32.988-28.008-2.847-3.034-5.835-4.489-3.863-1.881m-41.2 7.318c-6.668 3.539-30.852 36.138-47.799 64.432-9.461 15.795-22.282 42.203-24.289 50.028-2.007 7.827-1.459 17.855 1.425 26.095 5.279 15.083 26.295 52.941 40.733 73.377 9.785 13.85 25.836 33.97 28.7 35.976 2.208 1.547 8.237 2.034 11.184.903 1.953-.749 18.318-20.976 28.393-35.092 15.426-21.614 37.729-61.968 42.666-77.195 2.232-6.886 2.289-18.861.125-26.114-1.873-6.28-12.951-29.363-20.156-42.003-12.041-21.122-34.488-53.073-46.155-65.697-5.555-6.01-9.822-7.366-14.827-4.71m-55 240.45c-19.224 2.952-56.397 18.223-79 32.453-14.42 9.079-31.143 22.219-42.669 33.529-16.303 15.998-16.483 18.523-2.938 41.24 24.653 41.35 56.691 78.348 95.176 109.911 13.272 10.884 18.923 13.395 23.46 10.422 4.564-2.99 4.898-5.495 3.142-23.573-3.116-32.088-10.423-65.894-20.523-94.947-2.762-7.946-4.799-14.808-4.526-15.25 1.051-1.701 2.339-.617 5.287 4.447 1.681 2.888 3.444 5.838 3.918 6.558.707 1.071 2.469 1.031 9.768-.227 23.435-4.037 36.553-4.999 68.405-5.02 31.824-.021 46.002 1.004 69 4.987 9.658 1.672 8.956 2.014 14.225-6.925 2.641-4.479 4.775-5.971 4.775-3.339 0 .706-2.442 8.58-5.426 17.496-11.257 33.631-20.611 81.278-20.558 104.72.036 15.937 8.354 16.362 26.702 1.362 34.51-28.211 65.387-62.562 87.967-97.862 13.392-20.936 16.529-26.719 17.063-31.456.988-8.767-.143-11.123-10.075-20.989-29.65-29.456-69.35-52.516-111.249-64.623-16.92-4.889-27.67-3.986-38.121 3.204-2.308 1.587-9.188 8.944-15.289 16.347-9.281 11.262-11.734 13.652-15.02 14.637-6.912 2.071-10.034.042-22.135-14.382-11.607-13.835-14.319-16.429-20.391-19.51-3.1-1.573-15.54-4.783-15.902-4.103-.036.068-2.316.47-5.066.893m180.717 57.543c-8.599 6.022-5.012 19.439 5.197 19.439 7.642 0 12.477-6.189 10.481-13.417-1.764-6.388-10.413-9.71-15.678-6.022m23.609.151c-9.011 5.59-4.856 19.288 5.85 19.288 3.769 0 5.005-.517 7.423-3.106 4.668-4.997 3.659-12.833-2.089-16.229-3.56-2.103-7.747-2.085-11.184.047m-289.114 7.072c-2.591 2.632-4.712 5.235-4.712 5.785 0 .549 2.476 3.445 5.503 6.434l5.502 5.434-5.502 5.56c-3.027 3.059-5.503 6.015-5.503 6.57 0 1.263 9.233 10.433 10.505 10.433.516 0 3.439-2.476 6.498-5.503l5.56-5.502 5.434 5.502c2.989 3.027 5.951 5.503 6.582 5.503.631 0 3.291-2.292 5.911-5.093l4.764-5.093-5.812-5.873-5.812-5.873 5.838-6.12 5.838-6.12-5.643-5.643-5.642-5.643-6.011 5.948-6.01 5.947-5.779-5.718c-3.178-3.146-6.008-5.719-6.288-5.719-.279 0-2.629 2.153-5.221 4.784m263.949 17.828c-6.643 6.643-2.289 18.395 6.812 18.384 10.385-.013 14.837-13.463 6.41-19.365-3.709-2.598-10.119-2.122-13.222.981m23.416.465c-4.877 4.877-3.945 12.797 1.913 16.258 10.699 6.32 21.693-7.498 12.933-16.258-2.492-2.492-3.903-3.077-7.423-3.077s-4.931.585-7.423 3.077m-324.594 230.184c-5.289 4.55-3.198 12.764 3.631 14.264 6.54 1.437 7.547 5.882 2.812 12.418-1.69 2.334-2.852 4.464-2.583 4.734 1.032 1.031 11.456-6.621 13.378-9.82 6.278-10.452 1.434-22.559-9.445-23.604-4.176-.402-5.34-.102-7.793 2.008m258.28-1.275c-17.161 3.058-34.304 13.179-43.806 25.86-20.035 26.742-13.776 61.291 13.756 75.929 19.344 10.284 54.379 10.757 65.132.879 3.586-3.294 4.976-6.687 6.634-16.195 2.534-14.531 1.702-27.404-1.969-30.451-2.229-1.85-7.74-1.441-12.362.916l-4.164 2.125 2.147 4.208c2.38 4.665 3.646 18.077 2.456 26.014-.657 4.381-.816 4.55-5.382 5.731-7.408 1.916-21.242 2.402-28.851 1.013-9.62-1.756-18.162-6.033-23.547-11.79-14.047-15.018-12.256-43.593 3.632-57.954 10.894-9.847 28.88-15.042 42.676-12.328 7.306 1.437 7.993.989 8.629-5.636.685-7.127-1.504-8.753-12.098-8.986-4.48-.098-10.277.201-12.883.665m-508.904 4.844c-3.79 6.86-12.857 17.814-26.629 32.17l-11.991 12.5.526-21.703c.465-19.156.331-22.002-1.142-24.25-2.004-3.058-5.139-3.275-12.579-.872-4.509 1.456-5.099 1.945-4.517 3.75 2.996 9.297 3.509 15.231 3.548 41.075.022 14.85-.24 32.85-.583 40-.546 11.387-.398 13.434 1.192 16.5 2.27 4.376 6.228 5.017 12.859 2.084 3.548-1.569 4.478-2.445 4.049-3.811-1.777-5.648-2.728-14.854-3.229-31.273l-.564-18.5 13.85 14.055c7.618 7.731 19.926 20.456 27.351 28.278 12.731 13.412 13.714 14.221 17.25 14.195 4.085-.03 7.162-2.353 8.79-6.633 1.349-3.548 1.195-5.395-.45-5.395-3.258 0-20.235-15.153-39.86-35.577l-11.904-12.388 16.409-15.956c19.205-18.677 22.593-22.967 20.959-26.552-1.059-2.325-4.403-4.584-8.694-5.875-1.612-.485-2.512.326-4.641 4.178m51.641-.669c-3.351 1.842-5.454 5.166-5.478 8.655-.031 4.648 1.42 6.845 5.385 8.153 4.138 1.366 9.403-.433 11.962-4.086 5.19-7.41-3.87-17.121-11.869-12.722m131.5 28.965c-21.661 3.512-35.845 23.487-32.219 45.372 2.754 16.622 14.074 27.769 31.178 30.702 18.371 3.15 35.862-5.934 44.255-22.983 3.052-6.2 3.286-7.389 3.286-16.696 0-8.738-.337-10.741-2.635-15.641-5.172-11.029-15.043-18.548-27.299-20.793-6.703-1.228-8.785-1.223-16.566.039m148.233-.015c-7.101 1.183-16.396 6.03-21.415 11.168-2.268 2.322-5.517 7.146-7.221 10.721-2.853 5.989-3.097 7.326-3.097 17 0 9.27.307 11.144 2.625 16 3.99 8.357 9.011 13.466 17.179 17.48 30.284 14.881 64.661-10.493 58.782-43.387-2.679-14.99-14.033-26.133-29.551-29.002-6.682-1.235-9.788-1.232-17.302.02m573.953.451c-10.439 2.809-19.47 11.48-20.734 19.908-1.01 6.735 1.836 11.842 11.469 20.582 4.515 4.097 8.855 8.663 9.644 10.148 4.868 9.161-3.744 16.757-15.117 13.334-2.67-.803-4.927-1.365-5.016-1.247-3.225 4.267-3.095 9.042.318 11.747 2.306 1.827 3.647 2.099 8.303 1.685 14.207-1.263 26.013-11.838 25.919-23.219-.035-4.308-4.06-10.335-11.859-17.757-12.461-11.857-13.912-17.225-6.1-22.564 3.073-2.099 4.274-2.319 10.108-1.849 6.312.507 6.674.416 7.75-1.946 1.755-3.851 1.35-7.116-1.094-8.827-2.698-1.89-6.554-1.889-13.591.005m-310.86.42c-8.101 1.723-14.326 6.69-14.326 11.43 0 2.477 2.612 6.588 4.186 6.588.589 0 2.788-1.551 4.886-3.446 4.445-4.016 10.559-5.94 16.93-5.328 8.99.864 13.532 4.908 14.628 13.024l.642 4.75h-10.547c-12.496 0-20.509 2.104-27.237 7.153-10.318 7.743-12.289 22.567-4.291 32.27 8.208 9.957 23.574 11.263 36.352 3.089l5.316-3.401.661 3.009c.897 4.083 4.277 5.565 9.221 4.043 6.415-1.976 6.554-2.239 4.079-7.736-2.001-4.445-2.279-7.127-2.845-27.427-.397-14.226-1.084-23.603-1.868-25.5-1.693-4.096-5.821-8.276-10.595-10.73-4.529-2.329-18.12-3.293-25.192-1.788m68.768-.117c-1.209.813-1.209 1.628 0 5.791 1.499 5.163 1.814 22.508.907 49.941-.563 17.015-.136 18.403 5.654 18.403 3.244 0 10.345-2.334 10.345-3.4 0-.276-.675-3.094-1.5-6.261-1.1-4.223-1.5-11.288-1.5-26.486v-20.728l6.386-3.143c10.86-5.347 21.375-3.984 25.347 3.285 1.517 2.776 1.838 6.876 2.267 29.021.543 27.986.47 27.664 6.23 27.697 1.501.008 4.478-.684 6.614-1.539l3.885-1.555-1.339-3.885c-.761-2.209-1.573-10.488-1.883-19.195-.299-8.421-.765-19.046-1.035-23.612l-.491-8.301 5.506-2.521c12.565-5.752 23.193-3.731 27.615 5.251 2.356 4.786 2.393 5.29 2.101 28.503-.261 20.702-.097 23.832 1.321 25.25 2.048 2.049 6.321 2.065 11.373.043l3.938-1.575-1.597-3.675c-1.236-2.842-1.74-8.879-2.226-26.674-.45-16.464-1.026-23.853-2.027-26-2.576-5.531-6.76-10.033-11.642-12.526-9.175-4.686-25.794-2.773-35.413 4.076l-2.734 1.947-5.144-3.462c-6.049-4.071-9.969-4.976-18.561-4.286-4.503.361-7.991 1.413-12.143 3.662-3.535 1.915-5.97 2.723-6.193 2.055-.201-.605-1.332-2.223-2.512-3.595-2.33-2.709-9.074-4.172-11.549-2.506m159.406.534c-12.312 3.894-20.757 13.154-24.465 26.828-2.028 7.476-.984 21.079 2.131 27.773 6.576 14.131 22.818 21.706 40.998 19.122 12.685-1.803 16.862-5.491 14.09-12.442-.826-2.07-1.783-3.61-2.128-3.421-14.09 7.72-28.046 7.377-36.568-.9-4.339-4.214-6.059-7.787-7.098-14.751-.716-4.799-.684-4.881 1.662-4.292 5.134 1.288 26.61 1.844 32.6.843 12.546-2.095 17.267-6.412 17.274-15.795.008-10.237-8.168-20.373-18.819-23.331-4.939-1.372-14.759-1.189-19.677.366m-773.138 1.226-4.139 1.467 1.639 4.704c1.398 4.014 1.601 8.983 1.387 33.881-.22 25.426-.05 29.379 1.321 30.75 2.004 2.004 7.292 2.012 12.274.019l3.885-1.555-1.615-4.195c-1.354-3.52-1.616-8.97-1.624-33.804-.007-23.512-.29-29.946-1.372-31.25-1.656-1.995-6.159-2.001-11.756-.017m44.771-.729c-1.136.721-1.15 1.518-.082 4.735 1.396 4.205 1.757 22.18.984 49.008-.361 12.546-.167 16.497.873 17.75 1.701 2.05 7.972 2.106 12.741.113 3.041-1.27 3.479-1.84 2.887-3.75-2.87-9.254-3.563-14.518-3.621-27.528l-.064-14.277 3.39-4.723c3.895-5.428 9.001-9.224 12.407-9.224 2.373 0 5.697 2.589 6.581 5.125.375 1.076.966.942 2.718-.614 8.918-7.922 2.282-20.027-9.198-16.779-3.436.973-10.488 6.558-14.051 11.128l-2.698 3.462-.015-5.411c-.009-2.976-.346-5.906-.75-6.511-1.976-2.959-9.067-4.426-12.102-2.504m86.425 9.545c-5.554 2.05-8.576 4.493-12.239 9.891-8.117 11.962-6.303 29.39 3.975 38.188 7.007 5.997 16.741 7.853 26.274 5.009 6.424-1.917 11.29-6.037 14.966-12.673 2.674-4.829 2.965-6.242 2.959-14.356-.006-7.3-.416-9.765-2.17-13.053-2.696-5.052-7.502-9.817-12.215-12.109-4.775-2.322-16.38-2.805-21.55-.897m150.436-.566c-12.687 4.16-19.806 15.56-18.766 30.05.823 11.453 7.352 20.114 17.774 23.576 15.437 5.127 31.73-4.258 35.035-20.18 2.808-13.523-2.475-25.841-13.537-31.567-4.349-2.251-16.091-3.327-20.506-1.879m491.506.784c-5.123 2.696-8.414 6.494-10.532 12.157-1.121 2.996-1.817 5.668-1.547 5.938 1.013 1.014 23.783 2.046 29.126 1.321 6.753-.917 8.908-2.832 8.908-7.917 0-4.563-2.404-8.546-6.759-11.202-4.04-2.463-14.764-2.629-19.196-.297m-223.363 26.808c-7.676 1.857-11.326 5.769-11.906 12.76-.391 4.712-.118 5.754 2.235 8.55 4.747 5.641 15.718 6.722 24.216 2.385 6.324-3.228 6.88-4.491 6.51-14.792l-.328-9.13-3.682-.609c-5.43-.898-11.006-.624-17.045.836"/>
</svg>
