<svg xmlns="http://www.w3.org/2000/svg" width="400" height="400" shape-rendering="geometricPrecision" image-rendering="optimizeQuality" fill-rule="evenodd" xmlns:v="https://vecta.io/nano"><path fill="#ffe8bb" d="M196.5 26.5c1.753 2.646 2.753 5.646 3 9l-2-2c-.057-1.109-.39-2.109-1-3v-4z" opacity=".353"/><path fill="#fee8c6" d="M196.5 26.5c-.765-1.16-1.765-2.16-3-3-.586.209-1.086.543-1.5 1a188.07 188.07 0 0 0-4.5 18c-1.424 2.014-2.09 4.348-2 7-1.574 1.602-2.241 3.602-2 6-1.424 2.014-2.09 4.348-2 7v1c-1.972 6.424-3.305 13.09-4 20-.979 3.125-1.313 6.458-1 10-1.098-8.248-.598-16.581 1.5-25l13-46c4.489-3.043 6.322-1.709 5.5 4z" opacity=".227"/><path fill="#eb9b2f" d="M196.5 26.5v4c-1.25-.077-2.083-.744-2.5-2l-1 1a34.25 34.25 0 0 1-1.5 8c-1.668 1.515-3.001 3.182-4 5a188.07 188.07 0 0 1 4.5-18c.414-.457.914-.791 1.5-1 1.235.84 2.235 1.84 3 3z"/><path fill="#ffebca" d="M199.5 35.5c2.424 5.347 4.091 11.013 5 17-2.646-5.282-4.313-10.948-5-17z" opacity=".239"/><path fill="#eea344" d="M197.5 33.5l2 2c.687 6.052 2.354 11.718 5 17-.329 2.728.337 5.062 2 7 .934 1.068 1.268 2.401 1 4-1.574-.437-2.741-1.437-3.5-3-.818-4.621-2.318-8.955-4.5-13-.93-4.637-1.597-9.304-2-14z"/><path fill="#ecae54" d="M185.5 49.5c.241 2.398-.426 4.398-2 6-.241-2.398.426-4.398 2-6z" opacity=".878"/><path fill="#eeb061" d="M183.5 55.5c.09 2.652-.576 4.986-2 7-.09-2.652.576-4.986 2-7z" opacity=".953"/><path fill="#ffe7c6" d="M204.5 52.5c1.424 2.014 2.09 4.348 2 7-1.663-1.938-2.329-4.272-2-7z" opacity=".18"/><path fill="#f19007" d="M196.5 30.5c.61.891.943 1.891 1 3 .403 4.696 1.07 9.363 2 14 2.182 4.045 3.682 8.379 4.5 13 .759 1.563 1.926 2.563 3.5 3v5a111.41 111.41 0 0 1 2 27c-.702 6.069-3.036 11.402-7 16-10.961 6.453-18.461 3.453-22.5-9a52.56 52.56 0 0 1-1.5-7 145.05 145.05 0 0 1 .5-17c1.895-4.825 2.728-9.825 2.5-15v-1c1.424-2.014 2.09-4.348 2-7 1.574-1.602 2.241-3.602 2-6-.09-2.652.576-4.986 2-7 .999-1.818 2.332-3.485 4-5a34.25 34.25 0 0 0 1.5-8l1-1c.417 1.256 1.25 1.923 2.5 2z"/><path fill="#fee6c2" d="M111.5 79.5a623.27 623.27 0 0 0-27-20c-.979-1.645-2.312-2.979-4-4l-1 2c1.526 3.154 2.192 6.487 2 10-2.114-4.693-3.447-9.693-4-15a8.8 8.8 0 0 1 5 1.5 1085.23 1085.23 0 0 1 29 25.5z" opacity=".263"/><path fill="#eca241" d="M84.5 59.5c-1.195.366-1.861 1.199-2 2.5 1.685 3.638 2.351 7.471 2 11.5l-3-6c.192-3.513-.474-6.846-2-10l1-2c1.688 1.021 3.021 2.355 4 4z"/><path fill="#feeec3" d="M207.5 63.5c1.268 2.405 1.935 5.072 2 8l-2-3v-5z" opacity=".184"/><path fill="#e8a036" d="M181.5 63.5c.228 5.175-.605 10.175-2.5 15a145.05 145.05 0 0 0-.5 17c-.983-3.798-1.317-7.798-1-12 .695-6.91 2.028-13.576 4-20z"/><path fill="#f3c685" d="M207.5 68.5l2 3c.951 1.419 1.284 3.085 1 5 .323 6.522-.01 12.855-1 19a111.41 111.41 0 0 0-2-27z" opacity=".525"/><path fill="#e9a139" d="M84.5 73.5c.958.453 1.792 1.12 2.5 2 .945 3.994 1.778 7.994 2.5 12-2.18-4.385-3.847-9.052-5-14z" opacity=".988"/><path fill="#fcdeb3" d="M111.5 79.5c10.149 6.982 17.982 15.982 23.5 27 .977 2.24 1.477 4.573 1.5 7 .317 4.202-.017 8.202-1 12a112.97 112.97 0 0 0-.5-15 26.68 26.68 0 0 1-4.5-10c-6.01-7.341-12.344-14.341-19-21z" opacity=".251"/><path fill="#ffe9c5" d="M263.5 91.5c1.382-2.894 3.382-5.394 6-7.5a585.95 585.95 0 0 1 39-31.5c.586.209 1.086.543 1.5 1a454.23 454.23 0 0 1-16 53c-4.264 12.26-12.097 21.427-23.5 27.5-12.877 4.621-19.877.121-21-13.5.713-11.756 5.38-21.422 14-29z" opacity=".067"/><path fill="#ea9d33" d="M303.5 71.5c-1.068 5.631-2.735 10.965-5 16-.776-6.266.891-11.599 5-16z"/><path fill="#f19006" d="M306.5 61.5c-.693 3.442-1.693 6.775-3 10-4.109 4.401-5.776 9.734-5 16-3.509 2.739-4.843 6.406-4 11h-3c.128-2.155-.372-4.155-1.5-6-1.321 3.27-1.987 6.603-2 10l2.5-3c.611 3.662.277 7.329-1 11a22.58 22.58 0 0 1-4 8c-2.087 1.085-3.42 2.751-4 5-4.584 4.594-9.917 7.927-16 10-3.469-.047-6.802-.713-10-2l-3-4c-.371-6.819.295-13.486 2-20 1.397-5.129 4.064-9.463 8-13a70.87 70.87 0 0 0 10-10c3.267-1.927 6.267-4.261 9-7a16.06 16.06 0 0 0 5-2l2 1c.38-1.521.546-3.187.5-5 2.79-2.689 5.79-5.023 9-7a11.47 11.47 0 0 1 2.5 1c.632-2.561 1.632-4.895 3-7 .996.086 1.829-.248 2.5-1a8.43 8.43 0 0 1 .5 4z"/><path fill="#e9ac54" d="M282.5 75.5l-1 2c-2.733 2.739-5.733 5.073-9 7 2.731-3.734 6.064-6.734 10-9z" opacity=".949"/><path fill="#eb9b2c" d="M303.5 58.5c-1.368 2.105-2.368 4.439-3 7a11.47 11.47 0 0 0-2.5-1c-3.21 1.977-6.21 4.311-9 7 .046 1.813-.12 3.479-.5 5l-2-1a16.06 16.06 0 0 1-5 2l1-2c6.442-6.383 13.442-12.05 21-17z"/><path fill="#e5af53" d="M306.5 61.5a8.43 8.43 0 0 0-.5-4c-.671.752-1.504 1.086-2.5 1 .645-1.312 1.645-2.312 3-3 1.293 2.136 1.293 4.136 0 6z" opacity=".957"/><path fill="#eda649" d="M89.5 89.5l2 1c1.541 4.62 2.874 9.287 4 14-.617-.111-1.117-.444-1.5-1l-4.5-14z"/><path fill="#efb160" d="M272.5 84.5a70.87 70.87 0 0 1-10 10c.057-1.109.39-2.109 1-3 2.733-2.739 5.733-5.073 9-7z" opacity=".922"/><path fill="#ed9824" d="M298.5 87.5l-5.5 18c-.902 1.931-2.069 3.597-3.5 5 1.277-3.671 1.611-7.338 1-11l-2.5 3c.013-3.397.679-6.73 2-10 1.128 1.845 1.628 3.845 1.5 6h3c-.843-4.594.491-8.261 4-11z"/><path fill="#f19007" d="M84.5 59.5a623.27 623.27 0 0 1 27 20c6.656 6.659 12.99 13.659 19 21a26.68 26.68 0 0 0 4.5 10 112.97 112.97 0 0 1 .5 15v2l-7 6c-3.35.165-6.683-.002-10-.5-11.232-6.721-18.898-16.221-23-28.5-1.126-4.713-2.459-9.38-4-14-.683-.363-1.35-.696-2-1v-2c-.722-4.006-1.555-8.006-2.5-12-.708-.88-1.542-1.547-2.5-2 .351-4.029-.315-7.862-2-11.5.139-1.301.805-2.134 2-2.5z"/><path fill="#fee7c2" d="M81.5 67.5l3 6c1.153 4.948 2.82 9.615 5 14v2l4.5 14c.383.556.883.889 1.5 1 4.102 12.279 11.768 21.779 23 28.5 3.317.498 6.65.665 10 .5 3.533-.529 5.867-2.529 7-6v-2c.983-3.798 1.317-7.798 1-12 2.958 7.714 1.291 14.881-5 21.5-9.337 1.609-17.337-.891-24-7.5-5.059-4.451-8.892-9.784-11.5-16-6.07-14.286-10.903-28.953-14.5-44z" opacity=".184"/><path fill="#fddfb3" d="M210.5 76.5c2.992 11.75 1.492 23.084-4.5 34-11.178 10.414-20.178 8.748-27-5-1.47-3.878-2.303-7.878-2.5-12-.313-3.542.021-6.875 1-10-.317 4.202.017 8.202 1 12a52.56 52.56 0 0 0 1.5 7c4.039 12.453 11.539 15.453 22.5 9 3.964-4.598 6.298-9.931 7-16 .99-6.145 1.323-12.478 1-19z" opacity=".227"/><path fill="#f0af52" d="M254.5 107.5c-1.705 6.514-2.371 13.181-2 20-1.151-5.15-1.317-10.484-.5-16 .608-1.566 1.442-2.9 2.5-4z" opacity=".914"/><path fill="#efbd74" d="M285.5 118.5c-.58 2.249-1.913 3.915-4 5 .58-2.249 1.913-3.915 4-5z" opacity=".541"/><path fill="#5e3a21" d="M203.5 129.5h1c3.795 1.117 7.795 1.783 12 2 3.077 1.683 6.41 3.017 10 4 15.296 6.147 28.296 15.48 39 28-2.528-.684-4.695-2.018-6.5-4-.419 1.172-1.085 2.172-2 3-3.608-4.559-8.108-7.559-13.5-9l-10-6c-2.885-2.076-4.885-4.909-6-8.5-1.783-.232-3.45.268-5 1.5a113.54 113.54 0 0 1-14-6 330.05 330.05 0 0 0-30 1c-1.102.676-2.102 1.342-3 2h-2a44.91 44.91 0 0 0-13.5 3c-2.12-.959-4.287-1.126-6.5-.5 1.227 1.587.894 2.921-1 4l-10 5c-.752.671-1.086 1.504-1 2.5-.891.61-1.891.943-3 1-2.408-.561-4.741-1.061-7-1.5-.906 1.699-1.239 3.533-1 5.5-2.091-.182-4.091.152-6 1-2.935 3.255-6.268 5.922-10 8 13.453-17.58 31.12-28.913 53-34 2.652.09 4.985-.576 7-2h1a112.31 112.31 0 0 1 28 0z"/><path fill="#d3b9ae" d="M204.5 129.5h8l4 2c-4.205-.217-8.205-.883-12-2z" opacity=".078"/><path fill="#f6c586" d="M135.5 127.5c-1.133 3.471-3.467 5.471-7 6l7-6z" opacity=".416"/><path fill="#aa917e" d="M174.5 129.5c-2.015 1.424-4.348 2.09-7 2 2.015-1.424 4.348-2.09 7-2z" opacity=".78"/><path fill="#fffefc" d="M212.5 129.5c3.281-.08 6.281.587 9 2h-5l-4-2z" opacity=".009"/><path fill="#cdb9ad" d="M216.5 131.5h5l5 4c-3.59-.983-6.923-2.317-10-4z" opacity=".137"/><path fill="#f1c985" d="M255.5 131.5c3.198 1.287 6.531 1.953 10 2-1.788 1.122-3.788 1.289-6 .5-1.82-.2-3.153-1.034-4-2.5z" opacity=".545"/><path fill="#fae3bf" d="M379.5 144.5v-1l2-3c1.548-.321 2.215-1.321 2-3-5.584-.245-10.917.422-16 2h-3c-5.545 1.522-11.212 2.188-17 2 12.348-2.649 24.848-4.982 37.5-7l2.5 2.5c-2.209 3.044-4.875 5.544-8 7.5z" opacity=".573"/><path fill="#6b3a10" d="M233.5 147.5c-7.277-3.737-14.944-6.404-23-8-.763-.768-1.763-1.268-3-1.5a103.11 103.11 0 0 0-32-.5c.898-.658 1.898-1.324 3-2a330.05 330.05 0 0 1 30-1 113.54 113.54 0 0 0 14 6c1.55-1.232 3.217-1.732 5-1.5 1.115 3.591 3.115 6.424 6 8.5z"/><path fill="#eaac57" d="M381.5 140.5c-.47-1.193-1.47-1.86-3-2a49.27 49.27 0 0 1-11 1c5.083-1.578 10.416-2.245 16-2 .215 1.679-.452 2.679-2 3z" opacity=".988"/><path fill="#6b360d" d="M173.5 137.5c-1.171.845-2.505 1.511-4 2-5.203.509-9.87 2.176-14 5-4.82 1.574-9.153 3.907-13 7h-1c-.086-.996.248-1.829 1-2.5l10-5c1.894-1.079 2.227-2.413 1-4 2.213-.626 4.38-.459 6.5.5a44.91 44.91 0 0 1 13.5-3z"/><path fill="#f28f02" d="M210.5 139.5c8.056 1.596 15.723 4.263 23 8l10 6 11 10c1.912 3.495 3.579 7.162 5 11 .063 1.981-.604 3.648-2 5 .438 1.006 1.104 1.006 2 0a20.2 20.2 0 0 1 1.5 6c1.706-.808 2.539-2.141 2.5-4 2.135-.353 3.468.48 4 2.5-1.446 4.56-3.446 8.727-6 12.5h-4v3a104.21 104.21 0 0 1-16 13.5c-6.842 6.675-13.509 13.508-20 20.5-.722-.418-1.222-1.084-1.5-2a6.8 6.8 0 0 1-1.5 3c-1.195-1.797-2.862-2.797-5-3 2.042-12.966 1.042-25.633-3-38a20.53 20.53 0 0 1 3-4.5c-4.305-1.803-6.971-4.97-8-9.5-.683-.363-1.35-.696-2-1-.021-4.372-2.021-6.038-6-5 .431.793.765 1.627 1 2.5-1.352 1.964-2.186 4.131-2.5 6.5l-1-4-1 1c-.7 9.133-2.2 18.133-4.5 27-3.005-4.497-6.172-8.831-9.5-13 1.178 3.117 1.511 6.45 1 10-1.682-1.365-1.849-2.865-.5-4.5-4.302-3.544-6.802-8.044-7.5-13.5-1.011.837-2.178 1.17-3.5 1-2.353-2.36-4.353-5.027-6-8a19.37 19.37 0 0 0-1-8c-1.503-.552-3.169-.552-5 0 .128-5.953-.539-6.287-2-1-2.411.363-3.911-.637-4.5-3-1.518 2.114-1.851 4.447-1 7 .667 1.333 1.333 1.333 2 0 .498 3.317.665 6.65.5 10l-2 8a114.67 114.67 0 0 1-1.5-15c-2.269-3.373-5.435-5.373-9.5-6 1.212-2.423 3.212-3.423 6-3 .437-3.307-.23-6.307-2-9 1.165-1.084 2.498-1.917 4-2.5-1.199-1.694-2.532-3.194-4-4.5 4.209-1.288 8.209-2.955 12-5 1.6.051 3.1.384 4.5 1 2.107-1.833 4.607-2.999 7.5-3.5-1.333-.667-1.333-1.333 0-2 5.223-.02 10.223-1.02 15-3 9.347-.566 18.68-.399 28 .5z"/><path fill="#bd7519" d="M169.5 139.5c-4.44 2.038-9.107 3.704-14 5 4.13-2.824 8.797-4.491 14-5z"/><path fill="#feebc8" d="M-.5 135.5c22.39 1.565 44.39 5.398 66 11.5 8.077 3.611 14.91 8.778 20.5 15.5a4.93 4.93 0 0 1 .5 3h-1c-.58-2.249-1.913-3.915-4-5-1.694-2.69-4.027-4.69-7-6l-4-3c-3.3-2.142-6.967-3.475-11-4-.417-.722-1.084-1.222-2-1.5-5.111-.429-10.111-1.262-15-2.5-2.014-1.424-4.348-2.09-7-2-3.307-.551-6.64-.884-10-1-7.033-2.754-14.367-3.42-22-2 .688 1.355 1.688 2.355 3 3l7 8c-4.942-3.603-9.608-7.603-14-12v-2z" opacity=".096"/><path fill="#efba74" d="M35.5 141.5c2.652-.09 4.986.576 7 2-2.652.09-4.986-.576-7-2z" opacity=".663"/><path fill="#f1b869" d="M6.5 141.5c3.6 1.93 6.6 4.597 9 8h-2l-7-8z" opacity=".929"/><path fill="#f2b76a" d="M25.5 140.5a108.99 108.99 0 0 0-20-1.5c.752.671 1.086 1.504 1 2.5-1.312-.645-2.312-1.645-3-3 7.633-1.42 14.967-.754 22 2z" opacity=".667"/><path fill="#e08911" d="M210.5 139.5c-9.32-.899-18.653-1.066-28-.5-4.777 1.98-9.777 2.98-15 3-1.333.667-1.333 1.333 0 2-2.893.501-5.393 1.667-7.5 3.5-1.4-.616-2.9-.949-4.5-1-3.791 2.045-7.791 3.712-12 5h-1c3.847-3.093 8.18-5.426 13-7 4.893-1.296 9.56-2.962 14-5 1.495-.489 2.829-1.155 4-2h2a103.11 103.11 0 0 1 32 .5c1.237.232 2.237.732 3 1.5z"/><path fill="#ea9e37" d="M364.5 139.5c-1.519.91-3.185 1.743-5 2.5-13.079 2.352-26.079 5.186-39 8.5v3h-6c2.602-2.31 5.602-4.143 9-5.5 7.918-1.726 15.585-3.892 23-6.5h1c5.788.188 11.455-.478 17-2z"/><path fill="#f09006" d="M381.5 140.5l-2 3a874.54 874.54 0 0 1-44 36h-1c-6.454 1.078-12.954 2.411-19.5 4-4.659-1.694-9.159-3.694-13.5-6-.139-5.305.861-10.305 3-15 2.667-2 5-4.333 7-7 .473-1.406 1.473-2.073 3-2h6v-3c12.921-3.314 25.921-6.148 39-8.5 1.815-.757 3.481-1.59 5-2.5h3a49.27 49.27 0 0 0 11-1c1.53.14 2.53.807 3 2z"/><path fill="#ee9213" d="M25.5 140.5c3.36.116 6.693.449 10 1 2.014 1.424 4.348 2.09 7 2 4.889 1.238 9.889 2.071 15 2.5.916.278 1.583.778 2 1.5.947 1.478 2.281 2.478 4 3-3.032.005-6.032.338-9 1l-9-1.5-2-4c-3.943-.893-7.776-2.059-11.5-3.5a54.48 54.48 0 0 0-4.5 2c5.819 9.386 4.819 10.22-3 2.5-.948-.483-1.948-.649-3-.5-1.046 2.382-1.046 4.715 0 7h-2c-1.105-1.1-2.438-1.767-4-2v-2c-2.4-3.403-5.4-6.07-9-8 .086-.996-.248-1.829-1-2.5a108.99 108.99 0 0 1 20 1.5z"/><path fill="#fcdcaa" d="M379.5 143.5v1c-11.859 13.202-25.192 24.536-40 34l-4 1a874.54 874.54 0 0 0 44-36z" opacity=".184"/><path fill="#ffedd5" d="M13.5 149.5h2v2c-1.333 0-2-.667-2-2z" opacity=".063"/><path fill="#f19004" d="M63.5 150.5c2.264.719 4.597 1.052 7 1l4 3c.392 1.679.892 3.346 1.5 5 8.136 3.893 10.969 10.226 8.5 19l-7 2.5 1 1-6 .5a173.29 173.29 0 0 0-20-3c-3.204-.883-5.871-2.55-8-5-1.085-2.087-2.751-3.42-5-4-1.085-2.087-2.751-3.42-5-4-1.194-.772-2.193-1.772-3-3-1.085-2.087-2.751-3.42-5-4l-5-6c-1.046-2.285-1.046-4.618 0-7 1.052-.149 2.052.017 3 .5 7.819 7.72 8.819 6.886 3-2.5a54.48 54.48 0 0 1 4.5-2c3.724 1.441 7.557 2.607 11.5 3.5l2 4 9 1.5c2.968-.662 5.968-.995 9-1z"/><path fill="#eaa33f" d="M59.5 147.5c4.033.525 7.7 1.858 11 4-2.403.052-4.736-.281-7-1-1.719-.522-3.053-1.522-4-3z"/><path fill="#ffeccc" d="M15.5 151.5c1.562.233 2.895.9 4 2l3 4c-2.927-1.257-5.261-3.257-7-6z" opacity=".275"/><path fill="#eee4dc" d="M221.5 131.5c29.082 9.752 49.416 28.752 61 57l-2-1v-1c.073-1.527-.594-2.527-2-3-2.843-7.698-7.176-14.365-13-20-10.704-12.52-23.704-21.853-39-28l-5-4z" opacity=".075"/><path fill="#f2b564" d="M19.5 153.5h2l5 6h-2a3 3 0 0 0-2-2l-3-4z" opacity=".918"/><path fill="#fec" d="M346.5 141.5c-7.415 2.608-15.082 4.774-23 6.5-3.398 1.357-6.398 3.19-9 5.5-1.527-.073-2.527.594-3 2-3.333 1.333-5.667 3.667-7 7-4.373 4.094-5.707 9.094-4 15v2c-.617-.111-1.117-.444-1.5-1-1.706-9.76 1.46-17.593 9.5-23.5 11.384-7.854 24.05-12.354 38-13.5z" opacity=".157"/><path fill="#5f3618" d="M138.5 152.5c-6.021 5.354-11.688 11.021-17 17-2.143 1.631-3.81 3.631-5 6-2.45-.202-4.783.131-7 1a20.69 20.69 0 0 1 1-5c.915-2.254 2.248-4.254 4-6 3.732-2.078 7.065-4.745 10-8 1.909-.848 3.909-1.182 6-1-.239-1.967.094-3.801 1-5.5 2.259.439 4.592.939 7 1.5z"/><path fill="#fff7e7" d="M22.5 157.5a3 3 0 0 1 2 2c-1.333 0-2-.667-2-2z" opacity=".008"/><path fill="#f18f02" d="M142.5 151.5h1c1.468 1.306 2.801 2.806 4 4.5-1.502.583-2.835 1.416-4 2.5 1.77 2.693 2.437 5.693 2 9-2.788-.423-4.788.577-6 3 4.065.627 7.231 2.627 9.5 6a114.67 114.67 0 0 0 1.5 15l2-8c-.333 16.68.001 33.347 1 50 1.633 4.196 2.799 8.529 3.5 13 .902 1.931 2.069 3.597 3.5 5 .61.891.943 1.891 1 3a12.99 12.99 0 0 0 1 5.5c-.336 1.03-1.003 1.53-2 1.5-1.422-1.425-3.089-2.425-5-3a28.07 28.07 0 0 0-5-5c-3.588-5.588-8.588-9.255-15-11-.221-1.235-.888-2.235-2-3-3.089-.799-5.756-2.299-8-4.5-1.887-.78-3.554-.613-5 .5v2c.605 4.532 2.272 8.532 5 12v1c.27 5.183 1.27 10.183 3 15 .586-.209 1.086-.543 1.5-1 1.217 2.02 1.383 4.02.5 6 .346 1.196.846 1.196 1.5 0 2.112 2.136 1.945 4.136-.5 6a7.11 7.11 0 0 0 5 1c.149 1.052-.017 2.052-.5 3a43.98 43.98 0 0 0-6 7c-.195-1.707-.195-3.374 0-5-1.333.667-2.333 1.667-3 3-2.865-3.026-5.698-6.193-8.5-9.5.457-.414.791-.914 1-1.5-2.651-1.796-4.985-3.796-7-6l-1-2c-1.352-5.217-3.018-10.383-5-15.5-4.368-15.687-5.035-31.52-2-47.5.869-2.383 2.369-4.383 4.5-6 .816-5.28 2.316-10.28 4.5-15 .742-2.48 1.742-4.813 3-7 1.19-2.369 2.857-4.369 5-6 7.665-5.34 14.665-11.34 21-18z"/><path fill="#efb25e" d="M311.5 155.5c-2 2.667-4.333 5-7 7 1.333-3.333 3.667-5.667 7-7z" opacity=".898"/><path fill="#eba953" d="M26.5 159.5c2.249.58 3.915 1.913 5 4-2.249-.58-3.915-1.913-5-4z" opacity=".965"/><path fill="#eb9522" d="M74.5 154.5c2.973 1.31 5.307 3.31 7 6 .58 2.249 1.913 3.915 4 5h1v4a44.83 44.83 0 0 1-1 10 17.9 17.9 0 0 1-6 4c-7.12.325-14.12-.341-21-2-2.398.241-4.398-.426-6-2a173.29 173.29 0 0 1 20 3l6-.5-1-1 7-2.5c2.469-8.774-.364-15.107-8.5-19-.608-1.654-1.108-3.321-1.5-5z"/><path fill="#ffe8c1" d="M24.5 159.5h2c1.085 2.087 2.751 3.42 5 4 .806 1.228 1.806 2.228 3 3 1.085 2.087 2.751 3.42 5 4l3 4c-2.095-.912-4.095-2.079-6-3.5a197.26 197.26 0 0 1-12-11.5z" opacity=".231"/><path fill="#ecb262" d="M81.5 160.5c2.087 1.085 3.42 2.751 4 5-2.087-1.085-3.42-2.751-4-5z" opacity=".957"/><path fill="#653713" d="M243.5 153.5c5.392 1.441 9.892 4.441 13.5 9 .915-.828 1.581-1.828 2-3 1.805 1.982 3.972 3.316 6.5 4-.785 4.096.382 7.43 3.5 10-.152 5.086 1.515 9.753 5 14a52.56 52.56 0 0 1 1.5 7c-4.761-11.856-11.761-22.19-21-31l-11-10z"/><path fill="#ca7d1c" d="M141.5 151.5h1c-6.335 6.66-13.335 12.66-21 18 5.312-5.979 10.979-11.646 17-17 1.109-.057 2.109-.39 3-1z"/><path fill="#f4ece3" d="M212.5 129.5h-8-1c-.763-.768-1.763-1.268-3-1.5l-10-.5c-5.255-.166-10.255.501-15 2h-1c-2.652-.09-4.985.576-7 2-21.88 5.087-39.547 16.42-53 34-1.752 1.746-3.085 3.746-4 6-7.695 10.065-12.695 21.398-15 34-.768.763-1.268 1.763-1.5 3a146.11 146.11 0 0 0-1 31c.278.916.778 1.582 1.5 2 .508 3.697 1.174 7.364 2 11-.154 3.216.846 5.883 3 8 14.414 35.223 40.414 56.223 78 63v1c-36.429-5.311-62.595-24.644-78.5-58-17.694-49.474-5.86-90.641 35.5-123.5 18.96-11.695 39.46-17.528 61.5-17.5 5.685 1.072 11.185 2.405 16.5 4z" opacity=".067"/><path fill="#e0cec3" d="M203.5 129.5a112.31 112.31 0 0 0-28 0c4.745-1.499 9.745-2.166 15-2l10 .5c1.237.232 2.237.732 3 1.5z" opacity=".145"/><path fill="#f0b161" d="M34.5 166.5c2.249.58 3.915 1.913 5 4-2.249-.58-3.915-1.913-5-4z" opacity=".878"/><path fill="#edb462" d="M39.5 170.5c2.249.58 3.915 1.913 5 4h-2l-3-4z" opacity=".875"/><path fill="#ecac4f" d="M304.5 162.5c-2.139 4.695-3.139 9.695-3 15h-1c-1.707-5.906-.373-10.906 4-15z" opacity=".976"/><path fill="#603a22" d="M265.5 163.5c5.824 5.635 10.157 12.302 13 20-.073 1.527.594 2.527 2 3v1 1c-.996-.086-1.829.248-2.5 1l-1 7c-.278-.916-.778-1.582-1.5-2a52.56 52.56 0 0 0-1.5-7c-3.485-4.247-5.152-8.914-5-14-3.118-2.57-4.285-5.904-3.5-10z"/><path fill="#fee8c0" d="M163.5 178.5c1.647 2.973 3.647 5.64 6 8 1.75 3.835 3.75 7.501 6 11l2 6c-5.828-10.302-12.661-19.968-20.5-29-2.543 22.834-1.71 45.501 2.5 68l-2-3a226.12 226.12 0 0 1-2.5-67c.718-.951 1.551-1.117 2.5-.5 1.866 2.363 3.866 4.53 6 6.5z" opacity=".161"/><path fill="#feedc8" d="M42.5 174.5h2c2.129 2.45 4.796 4.117 8 5 1.602 1.574 3.602 2.241 6 2 1.181 1.567 2.847 2.401 5 2.5a128.51 128.51 0 0 0 16 .5c-2.24 1.187-4.74 1.854-7.5 2-7.536-.401-14.703-2.235-21.5-5.5-2.92-1.946-5.587-4.113-8-6.5z" opacity=".051"/><path fill="#f2b466" d="M86.5 169.5c.656 1.122.989 2.455 1 4 .139 2.383-.528 4.383-2 6a44.83 44.83 0 0 0 1-10z" opacity=".765"/><path fill="#ffebc8" d="M86.5 165.5c3.767 6.087 3.1 11.921-2 17.5-1.525 1.009-3.192 1.509-5 1.5v-1a17.9 17.9 0 0 0 6-4c1.472-1.617 2.139-3.617 2-6-.011-1.545-.344-2.878-1-4v-4z" opacity=".071"/><path fill="#facf94" d="M300.5 177.5h1c1.505 2.55 3.505 4.55 6 6a20.69 20.69 0 0 0-5-1c.073-1.527-.594-2.527-2-3v-2z" opacity=".298"/><path fill="#fff8ee" d="M300.5 179.5c1.406.473 2.073 1.473 2 3-1.406-.473-2.073-1.473-2-3z" opacity=".008"/><path fill="#603c24" d="M110.5 171.5a20.69 20.69 0 0 0-1 5c-.92 2.381-.92 4.714 0 7l-3 8c-.586-.209-1.086-.543-1.5-1l-1 8c-1.847-3.824-3.68-3.824-5.5 0a34.35 34.35 0 0 1-2 10 29.39 29.39 0 0 0 2 9c-.686 3.265-1.686 6.432-3 9.5.405.945 1.072 1.612 2 2-1.219 1.438-1.885 3.105-2 5a127 127 0 0 1 2 18.5h-1c-.826-3.636-1.492-7.303-2-11-1.419-12.046-1.085-24.046 1-36 2.305-12.602 7.305-23.935 15-34z"/><path fill="#e89a2b" d="M301.5 177.5c4.341 2.306 8.841 4.306 13.5 6 6.546-1.589 13.046-2.922 19.5-4-8.362 4.867-17.362 6.201-27 4-2.495-1.45-4.495-3.45-6-6z"/><path fill="#e9ac52" d="M58.5 181.5c6.88 1.659 13.88 2.325 21 2v1a128.51 128.51 0 0 1-16-.5c-2.153-.099-3.819-.933-5-2.5z" opacity=".904"/><path fill="#ffecc5" d="M339.5 178.5c-3.046 2.857-6.713 4.69-11 5.5-9.055 3.777-17.721 3.277-26-1.5a20.69 20.69 0 0 1 5 1c9.638 2.201 18.638.867 27-4h1l4-1z" opacity=".165"/><path fill="#9d8677" d="M278.5 183.5c1.406.473 2.073 1.473 2 3-1.406-.473-2.073-1.473-2-3z" opacity=".663"/><path fill="#fee5bb" d="M203.5 178.5c2.583 5.826 4.583 11.826 6 18v3c-2.309-7.408-5.142-14.741-8.5-22-7.932 19.019-10.098 38.352-6.5 58-1.249-2.587-2.249-5.254-3-8v-17c.638-12.198 3.304-23.865 8-35h3c-.237 1.291.096 2.291 1 3z" opacity=".141"/><path fill="#b29a8b" d="M280.5 187.5l2 1v3h-1c-.057-1.109-.39-2.109-1-3v-1z" opacity=".42"/><path fill="#683a11" d="M116.5 175.5c-1.258 2.187-2.258 4.52-3 7-2.715 2.264-4.215 5.264-4.5 9-2.773 3.481-4.273 7.481-4.5 12-2.619 9.013-3.619 18.346-3 28l-2-26c1.433-1.836 1.933-3.836 1.5-6-.671-.752-1.504-1.086-2.5-1 1.82-3.824 3.653-3.824 5.5 0l1-8c.414.457.914.791 1.5 1l3-8c-.92-2.286-.92-4.619 0-7 2.217-.869 4.55-1.202 7-1z"/><path fill="#d78317" d="M113.5 182.5c-2.184 4.72-3.684 9.72-4.5 15-2.131 1.617-3.631 3.617-4.5 6 .227-4.519 1.727-8.519 4.5-12 .285-3.736 1.785-6.736 4.5-9z"/><path fill="#f2ae57" d="M175.5 197.5c2.413 1.18 3.413 3.18 3 6h-1l-2-6z"/><path fill="#ed9315" d="M203.5 178.5c-.904-.709-1.237-1.709-1-3h-3c-4.696 11.135-7.362 22.802-8 35-.828 6.487-1.328 13.154-1.5 20-.2-1.82-1.034-3.153-2.5-4a125.19 125.19 0 0 0-7-20c.073-1.527-.594-2.527-2-3 .413-2.82-.587-4.82-3-6-2.25-3.499-4.25-7.165-6-11 1.322.17 2.489-.163 3.5-1 .698 5.456 3.198 9.956 7.5 13.5-1.349 1.635-1.182 3.135.5 4.5.511-3.55.178-6.883-1-10 3.328 4.169 6.495 8.503 9.5 13 2.3-8.867 3.8-17.867 4.5-27l1-1 1 4c.314-2.369 1.148-4.536 2.5-6.5-.235-.873-.569-1.707-1-2.5 3.979-1.038 5.979.628 6 5z"/><path fill="#eec370" d="M209.5 196.5c1.424 2.015 2.09 4.348 2 7l-2-3v-1-3z" opacity=".573"/><path fill="#f2b76d" d="M178.5 203.5c1.406.473 2.073 1.473 2 3-1.406-.473-2.073-1.473-2-3z" opacity=".698"/><path fill="#eb9111" d="M254.5 163.5c9.239 8.81 16.239 19.144 21 31a51.57 51.57 0 0 1 1 7c-.91-1.519-1.743-3.185-2.5-5l-1 2c-.206-3.123-.873-6.123-2-9-.414-.457-.914-.791-1.5-1a7.11 7.11 0 0 0-1 5h-3a18.96 18.96 0 0 1-3 7l.5 2a13.92 13.92 0 0 0 4-3l.5 3c-1.52 4.123-2.353 8.456-2.5 13-.273 1.829-1.107 3.329-2.5 4.5.877 3.508 1.21 7.174 1 11l-1 .5c-.825-3.622-1.325-7.289-1.5-11-1.147 2.899-1.981 5.899-2.5 9-.368 1.675-1.368 2.675-3 3 .463-2.982.796-5.982 1-9 2.193-2.022 3.193-4.689 3-8v-5c1.117-3.795 1.783-7.795 2-12-1.459-.067-2.792.266-4 1v-3h4c2.554-3.773 4.554-7.94 6-12.5-.532-2.02-1.865-2.853-4-2.5.039 1.859-.794 3.192-2.5 4a20.2 20.2 0 0 0-1.5-6c-.896 1.006-1.562 1.006-2 0 1.396-1.352 2.063-3.019 2-5-1.421-3.838-3.088-7.505-5-11z"/><path fill="#ffebd0" d="M259.5 206.5v4 5l-2 3c.217-4.205.883-8.205 2-12z" opacity=".094"/><path fill="#fac77b" d="M211.5 207.5c1.155 6.821 1.321 13.821.5 21-.232 1.237-.732 2.237-1.5 3a180.81 180.81 0 0 0 1-24z" opacity=".431"/><path fill="#613614" d="M280.5 188.5c.61.891.943 1.891 1 3 .104 2.59-.563 4.923-2 7 .691 2.391 1.691 2.391 3 0 3.645 7.488 3.978 15.155 1 23a127.59 127.59 0 0 0 2 9c-.346 1.196-.846 1.196-1.5 0-.535 3.469-1.702 6.469-3.5 9a392.58 392.58 0 0 0-.5-28c-.39-2.604-1.224-4.938-2.5-7 .237-1.291-.096-2.291-1-3a51.57 51.57 0 0 0-1-7c.722.418 1.222 1.084 1.5 2l1-7c.671-.752 1.504-1.086 2.5-1z"/><path fill="#facb8c" d="M259.5 215.5c.193 3.311-.807 5.978-3 8-.284-1.915.049-3.581 1-5l2-3z" opacity=".655"/><path fill="#c3afa1" d="M95.5 205.5c-2.085 11.954-2.419 23.954-1 36-.722-.418-1.222-1.084-1.5-2a146.11 146.11 0 0 1 1-31c.232-1.237.732-2.237 1.5-3z" opacity=".468"/><path fill="#ffe8c5" d="M177.5 203.5h1c-.073 1.527.594 2.527 2 3a125.19 125.19 0 0 1 7 20 53.76 53.76 0 0 1 2 8v5l-5.5-20c-2.462-5.252-4.629-10.585-6.5-16z" opacity=".153"/><path fill="#ba731e" d="M277.5 204.5c1.276 2.062 2.11 4.396 2.5 7a392.58 392.58 0 0 1 .5 28h-1a180.64 180.64 0 0 0-2-35z"/><path fill="#eb9825" d="M163.5 178.5c-2.134-1.97-4.134-4.137-6-6.5-.949-.617-1.782-.451-2.5.5a226.12 226.12 0 0 0 2.5 67 60.48 60.48 0 0 0 3 12c-1.431-1.403-2.598-3.069-3.5-5-.701-4.471-1.867-8.804-3.5-13-.999-16.653-1.333-33.32-1-50 .165-3.35-.002-6.683-.5-10-.667 1.333-1.333 1.333-2 0-.851-2.553-.518-4.886 1-7 .589 2.363 2.089 3.363 4.5 3 1.461-5.287 2.128-4.953 2 1 1.831-.552 3.497-.552 5 0a19.37 19.37 0 0 1 1 8z"/><path fill="#eda442" d="M191.5 210.5v17c.51 2.888-.156 5.221-2 7a53.76 53.76 0 0 0-2-8c1.466.847 2.3 2.18 2.5 4 .172-6.846.672-13.513 1.5-20z"/><path fill="#fff0cc" d="M209.5 200.5l2 3v4a180.81 180.81 0 0 1-1 24 83.25 83.25 0 0 1-7 19c-.992.172-1.658-.162-2-1 8.728-15.145 11.395-31.479 8-49z" opacity=".086"/><path fill="#f1bb6c" d="M191.5 227.5c.751 2.746 1.751 5.413 3 8v4l-2.5-4-.5 3.5c1.242 8.657 1.242 17.157 0 25.5.322-5.858-.011-11.525-1-17-.973-2.448-1.306-5.115-1-8v-5c1.844-1.779 2.51-4.112 2-7z"/><path fill="#f08f05" d="M276.5 201.5c.904.709 1.237 1.709 1 3a180.64 180.64 0 0 1 2 35v5a220.37 220.37 0 0 0-7 20c-3.263 4.862-6.263 9.862-9 15l-16 17c-11.468 8.222-24.135 14.055-38 17.5-4.332.583-8.665 1.083-13 1.5.011-1.517.677-2.684 2-3.5 7.617-2.02 13.617-6.187 18-12.5 2-2.667 4.333-5 7-7 2.087-1.085 3.42-2.751 4-5a3 3 0 0 1 2-2c2.004-1.173 3.504-2.84 4.5-5 2.763 5.287 3.596 4.953 2.5-1 .622-2.874 1.622-5.54 3-8l12-26c1.574-1.602 2.241-3.602 2-6 1.574-1.602 2.241-3.602 2-6v-1c1.632-.325 2.632-1.325 3-3 .519-3.101 1.353-6.101 2.5-9 .175 3.711.675 7.378 1.5 11l1-.5c.21-3.826-.123-7.492-1-11 1.393-1.171 2.227-2.671 2.5-4.5.147-4.544.98-8.877 2.5-13l-.5-3a13.92 13.92 0 0 1-4 3l-.5-2a18.96 18.96 0 0 0 3-7h3a7.11 7.11 0 0 1 1-5c.586.209 1.086.543 1.5 1 1.127 2.877 1.794 5.877 2 9l1-2c.757 1.815 1.59 3.481 2.5 5z"/><path fill="#efa445" d="M120.5 235.5c1.446-1.113 3.113-1.28 5-.5 2.244 2.201 4.911 3.701 8 4.5 1.112.765 1.779 1.765 2 3-5.125-2.188-10.125-4.521-15-7z"/><path fill="#f0ac54" d="M255.5 233.5c.241 2.398-.426 4.398-2 6-.241-2.398.426-4.398 2-6z" opacity=".875"/><path fill="#ffeac0" d="M120.5 235.5c4.875 2.479 9.875 4.812 15 7l2 3a122.81 122.81 0 0 1-13-7c-.42 1.826-.42 3.826 0 6-1.067-2.464-2.4-4.797-4-7v-2z" opacity=".11"/><path fill="#603518" d="M98.5 198.5c.996-.086 1.829.248 2.5 1 .433 2.164-.067 4.164-1.5 6l2 26c.943 8.049 2.276 16.049 4 24-.722-.418-1.222-1.084-1.5-2l-1 2c-.915-5.824-2.249-6.157-4-1-.383-.556-.883-.889-1.5-1v-1a127 127 0 0 0-2-18.5c.115-1.895.781-3.562 2-5-.928-.388-1.595-1.055-2-2 1.314-3.068 2.314-6.235 3-9.5a29.39 29.39 0 0 1-2-9 34.35 34.35 0 0 0 2-10z"/><path fill="#efb259" d="M253.5 239.5c.241 2.398-.426 4.398-2 6-.241-2.398.426-4.398 2-6z" opacity=".973"/><path fill="#f0ae55" d="M120.5 237.5c1.6 2.203 2.933 4.536 4 7a20.69 20.69 0 0 0 1 5c-2.728-3.468-4.395-7.468-5-12z" opacity=".894"/><path fill="#eca643" d="M135.5 242.5c6.412 1.745 11.412 5.412 15 11h-2c-1.965-2.978-4.632-4.978-8-6-.473-1.406-1.473-2.073-3-2l-2-3z"/><path fill="#fff4dd" d="M137.5 245.5c1.527-.073 2.527.594 3 2-1.527.073-2.527-.594-3-2z" opacity=".075"/><path fill="#f3bc6e" d="M211.5 246.5c-.84 2.353-2.174 4.353-4 6 .345-2.698 1.678-4.698 4-6z" opacity=".443"/><path fill="#fff3d7" d="M124.5 244.5c2.49 3.126 3.823 6.792 4 11-.813-1.761-1.813-3.428-3-5v-1a20.69 20.69 0 0 1-1-5z" opacity=".027"/><path fill="#fbd196" d="M157.5 239.5l2 3 3 8v4h-1c-.057-1.109-.39-2.109-1-3a60.48 60.48 0 0 1-3-12z" opacity=".325"/><path fill="#fff0ce" d="M140.5 247.5c3.368 1.022 6.035 3.022 8 6a27.68 27.68 0 0 1-8-6z" opacity=".039"/><path fill="#fee2b6" d="M259.5 210.5v-4a12.93 12.93 0 0 0-.5-5c-22.189 16.52-40.523 36.52-55 60-4.013 7.906-7.513 15.906-10.5 24v-2c1.651-7.632 4.151-14.965 7.5-22 1.699-3.421 3.865-6.421 6.5-9 1.826-1.647 3.16-3.647 4-6a94.1 94.1 0 0 1 10-13c6.491-6.992 13.158-13.825 20-20.5a104.21 104.21 0 0 0 16-13.5c1.208-.734 2.541-1.067 4-1-.217 4.205-.883 8.205-2 12z" opacity=".067"/><path fill="#ffebcc" d="M256.5 223.5l-1 9v1c-1.574 1.602-2.241 3.602-2 6-1.574 1.602-2.241 3.602-2 6l-12 26c-3.714 4.383-7.047 9.05-10 14a3 3 0 0 0-2 2c-2.087 1.085-3.42 2.751-4 5-2.667 2-5 4.333-7 7a79.8 79.8 0 0 0-9 6.5c-1.525 1.009-3.192 1.509-5 1.5 20.898-14.743 36.065-34.077 45.5-58l8.5-26z" opacity=".063"/><path fill="#7e4209" d="M279.5 244.5c-1.2 6.467-2.867 12.8-5 19l-2 1a220.37 220.37 0 0 1 7-20z"/><path fill="#c6b2a4" d="M96.5 252.5h1v1l2 7c-2.154-2.117-3.154-4.784-3-8z" opacity=".141"/><path fill="#da8517" d="M104.5 203.5c-3.035 15.98-2.368 31.813 2 47.5 1.982 5.117 3.648 10.283 5 15.5a88.01 88.01 0 0 0-6-11c-1.724-7.951-3.057-15.951-4-24-.619-9.654.381-18.987 3-28z"/><path fill="#ed9317" d="M203.5 178.5l2 1c1.029 4.53 3.695 7.697 8 9.5a20.53 20.53 0 0 0-3 4.5c4.042 12.367 5.042 25.034 3 38 2.138.203 3.805 1.203 5 3a6.8 6.8 0 0 0 1.5-3c.278.916.778 1.582 1.5 2a94.1 94.1 0 0 0-10 13c-2.322 1.302-3.655 3.302-4 6-2.635 2.579-4.801 5.579-6.5 9-3.349 7.035-5.849 14.368-7.5 22-.617.111-1.117.444-1.5 1-2.519 9.37-3.019 18.703-1.5 28v1 2h-7v-1-7c.389-3.053-.277-5.72-2-8v-2c.165-3.84-.835-7.34-3-10.5a3.43 3.43 0 0 1 1.5-2.5c1.011.837 2.178 1.17 3.5 1 1.51 1.228 3.01 1.228 4.5 0 1.974-4.451 2.807-9.118 2.5-14 .968-2.107 1.302-4.441 1-7 1.242-8.343 1.242-16.843 0-25.5l.5-3.5a51.22 51.22 0 0 1 2.5 4c1.508 1.681 2.508 3.681 3 6 .548 1.894 1.548 3.56 3 5 1.114 1.276 2.114 1.276 3 0a83.25 83.25 0 0 0 7-19c.768-.763 1.268-1.763 1.5-3 .821-7.179.655-14.179-.5-21v-4c.09-2.652-.576-4.985-2-7-1.417-6.174-3.417-12.174-6-18z"/><path fill="#f8c581" d="M197.5 245.5l3 2c.838.342 1.172 1.008 1 2 .342.838 1.008 1.172 2 1-.886 1.276-1.886 1.276-3 0-1.452-1.44-2.452-3.106-3-5z" opacity=".804"/><path fill="#ffefd6" d="M194.5 235.5l6 12-3-2c-.492-2.319-1.492-4.319-3-6v-4z" opacity=".043"/><path fill="#ffeccd" d="M190.5 247.5c.989 5.475 1.322 11.142 1 17 .302 2.559-.032 4.893-1 7-.981 4.248-2.148 8.581-3.5 13-.986.671-2.153.671-3.5 0-2.63-2.128-5.13-4.461-7.5-7a139.22 139.22 0 0 1-8.5-12l2 1c4.269 6.604 9.602 12.271 16 17 3.818-11.064 5.484-23.064 5-36z" opacity=".027"/><path fill="#e5d9cf" d="M282.5 188.5c.617.111 1.117.444 1.5 1 14.61 45.038 4.11 83.538-31.5 115.5-22.573 16.932-47.573 23.432-75 19.5v-1c46.26 3.126 80.426-15.541 102.5-56 10.213-25.093 11.046-50.426 2.5-76v-3z" opacity=".137"/><path fill="#5e381d" d="M281.5 191.5h1c8.546 25.574 7.713 50.907-2.5 76-22.074 40.459-56.24 59.126-102.5 56-37.586-6.777-63.586-27.777-78-63l-2-7c.617.111 1.117.444 1.5 1 1.751-5.157 3.085-4.824 4 1l1-2c.278.916.778 1.582 1.5 2 1.275 5.874 3.608 11.208 7 16 .149 1.052-.017 2.052-.5 3-.654-1.196-1.154-1.196-1.5 0 .377 2.324 1.377 2.991 3 2 .854 1.022 1.854 1.855 3 2.5-1.447 4.906.553 7.239 6 7l2 6c2.56.384 4.894 1.217 7 2.5 5.415 4.087 11.082 7.754 17 11 5.199 4.967 11.532 7.634 19 8 5.178 1.585 10.512 2.252 16 2 8.824 1.157 17.824 1.324 27 .5 5.158-1.356 10.158-3.189 15-5.5 1.236.746 2.57 1.079 4 1-.17-1.322.163-2.489 1-3.5 4.034-.617 7.367-2.451 10-5.5 1.268.928 2.601 1.095 4 .5l-1-1c1.165-1.992 2.498-3.825 4-5.5a48.83 48.83 0 0 0 16-17c3.06-2.38 6.393-4.38 10-6 .218-3.134.551-6.467 1-10 2.133-6.2 3.8-12.533 5-19v-5h1c1.798-2.531 2.965-5.531 3.5-9 .654 1.196 1.154 1.196 1.5 0a127.59 127.59 0 0 1-2-9c2.978-7.845 2.645-15.512-1-23-1.309 2.391-2.309 2.391-3 0 1.437-2.077 2.104-4.41 2-7z"/><path fill="#f1b967" d="M227.5 287.5c-.58 2.249-1.913 3.915-4 5 .58-2.249 1.913-3.915 4-5z" opacity=".847"/><path fill="#844809" d="M263.5 279.5a48.83 48.83 0 0 1-16 17l16-17z"/><path fill="#efa951" d="M143.5 285.5a35.23 35.23 0 0 1 6 8c-1.675-1.502-3.508-2.835-5.5-4a8.43 8.43 0 0 1-.5-4z" opacity=".961"/><path fill="#ea9b31" d="M161.5 254.5h1c.908 3.487 2.574 6.487 5 9v2a139.22 139.22 0 0 0 8.5 12c2.37 2.539 4.87 4.872 7.5 7v1c-1.322.17-2.489-.163-3.5-1a3.43 3.43 0 0 0-1.5 2.5c2.165 3.16 3.165 6.66 3 10.5-4.45-12.899-11.45-24.232-21-34v-2c.997.03 1.664-.47 2-1.5a12.99 12.99 0 0 1-1-5.5z"/><path fill="#663912" d="M112.5 271.5h1a149.33 149.33 0 0 0 18 23c-2.106-1.283-4.44-2.116-7-2.5l-2-6c-5.447.239-7.447-2.094-6-7-1.146-.645-2.146-1.478-3-2.5-1.623.991-2.623.324-3-2 .346-1.196.846-1.196 1.5 0 .483-.948.649-1.948.5-3z"/><path fill="#e68f18" d="M125.5 250.5c1.187 1.572 2.187 3.239 3 5-.155 3.216.845 5.883 3 8 2.979 7.294 6.979 13.96 12 20v2c-2.223-.614-3.889-1.948-5-4-1.509 2.156-2.509 4.49-3 7-4.616.541-4.949 1.874-1 4 2.177-1.004 2.511-.338 1 2a7.25 7.25 0 0 0 2 2.5 142.67 142.67 0 0 1 12 6.5c.363.683.696 1.35 1 2h-2c-5.918-3.246-11.585-6.913-17-11a149.33 149.33 0 0 1-18-23c-.057-1.109-.39-2.109-1-3 2.015 2.204 4.349 4.204 7 6-.209.586-.543 1.086-1 1.5 2.802 3.307 5.635 6.474 8.5 9.5.667-1.333 1.667-2.333 3-3-.195 1.626-.195 3.293 0 5a43.98 43.98 0 0 1 6-7c.483-.948.649-1.948.5-3a7.11 7.11 0 0 1-5-1c2.445-1.864 2.612-3.864.5-6-.654 1.196-1.154 1.196-1.5 0 .883-1.98.717-3.98-.5-6-.414.457-.914.791-1.5 1-1.73-4.817-2.73-9.817-3-15z"/><path fill="#ef9d33" d="M239.5 271.5c-1.378 2.46-2.378 5.126-3 8 1.096 5.953.263 6.287-2.5 1-.996 2.16-2.496 3.827-4.5 5 2.953-4.95 6.286-9.617 10-14z"/><path fill="#f1b35b" d="M190.5 271.5c.307 4.882-.526 9.549-2.5 14-1.49 1.228-2.99 1.228-4.5 0v-1c1.347.671 2.514.671 3.5 0 1.352-4.419 2.519-8.752 3.5-13z"/><path fill="#663712" d="M274.5 263.5c-.449 3.533-.782 6.866-1 10-3.607 1.62-6.94 3.62-10 6 2.737-5.138 5.737-10.138 9-15l2-1z"/><path fill="#ffedca" d="M130.5 258.5c4.059 8.451 8.393 16.785 13 25-5.021-6.04-9.021-12.706-12-20a20.69 20.69 0 0 1-1-5z" opacity=".027"/><path fill="#fff2e1" d="M167.5 263.5c1.406.473 2.073 1.473 2 3l-2-1v-2z" opacity=".063"/><path fill="#854607" d="M105.5 255.5a88.01 88.01 0 0 1 6 11l1 2c.61.891.943 1.891 1 3h-1c-3.392-4.792-5.725-10.126-7-16z"/><path fill="#fed7a2" d="M128.5 255.5c1.406.473 2.073 1.473 2 3a20.69 20.69 0 0 0 1 5c-2.155-2.117-3.155-4.784-3-8z" opacity=".353"/><path fill="#f2ba6f" d="M155.5 258.5c1.911.575 3.578 1.575 5 3v2l-4-3-1-2z" opacity=".863"/><path fill="#fee8bf" d="M148.5 253.5h2a28.07 28.07 0 0 1 5 5l1 2c-3.264-1.594-5.931-3.927-8-7z" opacity=".129"/><path fill="#ffedcb" d="M162.5 250.5c1.909 4.166 3.575 8.499 5 13-2.426-2.513-4.092-5.513-5-9v-4z" opacity=".18"/><path fill="#f9ca8a" d="M193.5 283.5v2c.237 1.291-.096 2.291-1 3-1.715 7.764-2.382 15.764-2 24-1.519-9.297-1.019-18.63 1.5-28 .383-.556.883-.889 1.5-1z" opacity=".271"/><path fill="#ebb051" d="M151.5 295.5c2.333 1.667 4.333 3.667 6 6-3-1-5-3-6-6z" opacity=".98"/><path fill="#ed900c" d="M143.5 285.5a8.43 8.43 0 0 0 .5 4c1.992 1.165 3.825 2.498 5.5 4a3 3 0 0 1 2 2c1 3 3 5 6 6 3.181 2.092 6.181 4.425 9 7 .077 1.25.744 2.083 2 2.5-.948.483-1.948.649-3 .5-5.853-.101-10.853-2.101-15-6-.304-.65-.637-1.317-1-2a142.67 142.67 0 0 0-12-6.5 7.25 7.25 0 0 1-2-2.5c1.511-2.338 1.177-3.004-1-2-3.949-2.126-3.616-3.459 1-4 .491-2.51 1.491-4.844 3-7 1.111 2.052 2.777 3.386 5 4z"/><path fill="#ffe7c0" d="M156.5 260.5l4 3c9.55 9.768 16.55 21.101 21 34v2c.302 2.873.969 5.539 2 8v7c-5.971-1.054-11.637-3.054-17-6-2.819-2.575-5.819-4.908-9-7-1.667-2.333-3.667-4.333-6-6a3 3 0 0 0-2-2 35.23 35.23 0 0 0-6-8v-2c5.766 7.6 12.432 14.434 20 20.5a40.98 40.98 0 0 0 19 8.5c-1.566-12.597-5.732-24.263-12.5-35-4.357-5.848-8.857-11.515-13.5-17z" opacity=".294"/><path fill="#f5bd79" d="M181.5 299.5c1.723 2.28 2.389 4.947 2 8-1.031-2.461-1.698-5.127-2-8z" opacity=".427"/><path fill="#fff2dc" d="M202.5 307.5c-.901 2.227-2.567 3.227-5 3a12.18 12.18 0 0 1 5-3z" opacity=".114"/><path fill="#7a3f0a" d="M148.5 305.5h2c4.147 3.899 9.147 5.899 15 6l2 2c-7.468-.366-13.801-3.033-19-8z"/><path fill="#d48b2f" d="M166.5 308.5c5.363 2.946 11.029 4.946 17 6v1c-5.488.252-10.822-.415-16-2l-2-2c1.052.149 2.052-.017 3-.5-1.256-.417-1.923-1.25-2-2.5z"/><path fill="#fff5d2" d="M192.5 288.5c-1.284 8.05-1.117 16.05.5 24 1.33-1.082 2.83-1.749 4.5-2-1.536 2.592-3.869 3.592-7 3v-1c-.382-8.236.285-16.236 2-24z" opacity=".145"/><path fill="#74400e" d="M247.5 296.5c-1.502 1.675-2.835 3.508-4 5.5l1 1c-1.399.595-2.732.428-4-.5-2.633 3.049-5.966 4.883-10 5.5-.837 1.011-1.17 2.178-1 3.5-1.43.079-2.764-.254-4-1-4.842 2.311-9.842 4.144-15 5.5-9.176.824-18.176.657-27-.5h7 6c4.335-.417 8.668-.917 13-1.5 13.865-3.445 26.532-9.278 38-17.5z"/><path fill="#eaa64b" d="M216.5 299.5c-4.383 6.313-10.383 10.48-18 12.5-1.323.816-1.989 1.983-2 3.5h-6v-2c3.131.592 5.464-.408 7-3 2.433.227 4.099-.773 5-3 1.808.009 3.475-.491 5-1.5a79.8 79.8 0 0 1 9-6.5z"/><path fill="#ffeac5" d="M213.5 345.5l6-2c4.686.381 9.019-.619 13-3 .656-1.122.989-2.455 1-4-.149-1.82-.816-3.32-2-4.5-13.589-.295-26.922.872-40 3.5-5.584-.245-10.917.422-16 2h-2c-5.569-.124-10.902.543-16 2h-3c-5.019 1.551-6.019 4.218-3 8v1 1l1 2c-1.911-.074-3.078-1.074-3.5-3-.543-3.368-.376-6.701.5-10l77.5-9c5.627-.583 8.46 1.917 8.5 7.5-.241 3.456-1.908 5.79-5 7-5.623 1.029-11.29 1.529-17 1.5z" opacity=".329"/><path fill="#ecaf59" d="M232.5 340.5c.769-5.731-1.731-8.397-7.5-8l-33.5 3c13.078-2.628 26.411-3.795 40-3.5 1.184 1.18 1.851 2.68 2 4.5-.011 1.545-.344 2.878-1 4z" opacity=".929"/><path fill="#eca74b" d="M191.5 335.5c-5.116 1.306-10.449 1.973-16 2 5.083-1.578 10.416-2.245 16-2z" opacity=".949"/><path fill="#eaa74d" d="M173.5 337.5c-5.116 1.306-10.449 1.973-16 2 5.098-1.457 10.431-2.124 16-2z" opacity=".953"/><path fill="#f09009" d="M232.5 340.5c-3.981 2.381-8.314 3.381-13 3-4.29-.302-8.29.364-12 2-5.322.48-10.655.813-16 1-5.354.069-10.687.402-16 1-7.983.666-15.983.999-24 1v-1c-.484-3.288.516-5.955 3-8h3c5.551-.027 10.884-.694 16-2h2c5.551-.027 10.884-.694 16-2l33.5-3c5.769-.397 8.269 2.269 7.5 8z"/><path fill="#e8a247" d="M154.5 339.5c-2.484 2.045-3.484 4.712-3 8-3.019-3.782-2.019-6.449 3-8z"/><path fill="#f6ca83" d="M219.5 343.5l-6 2h-6c3.71-1.636 7.71-2.302 12-2z" opacity=".333"/><path fill="#f7c077" d="M191.5 346.5c-5.098 1.457-10.431 2.124-16 2v-1c5.313-.598 10.646-.931 16-1z" opacity=".376"/><path fill="#e89c2f" d="M175.5 347.5v1c-3.462.982-7.129 1.315-11 1-4.405.592-8.738.592-13 0v-1c8.017-.001 16.017-.334 24-1z"/><path fill="#f7cc90" d="M151.5 349.5c4.262.592 8.595.592 13 0-3.736 1.489-7.736 2.156-12 2l-1-2z" opacity=".349"/><path fill="#fff2d3" d="M207.5 345.5h6a1624.89 1624.89 0 0 1-57 7c-1.545-.011-2.878-.344-4-1 4.264.156 8.264-.511 12-2 3.871.315 7.538-.018 11-1 5.569.124 10.902-.543 16-2 5.345-.187 10.678-.52 16-1z" opacity=".075"/><path fill="#fff6d6" d="M217.5 350.5c-4.118 1.209-8.451 1.876-13 2 4.067-1.554 8.4-2.22 13-2z" opacity=".033"/><path fill="#f5bd72" d="M217.5 350.5h1c2.885-.306 5.552.027 8 1l-22 2v-1c4.549-.124 8.882-.791 13-2z" opacity=".843"/><path fill="#ea9b2e" d="M226.5 351.5c.958.453 1.792 1.119 2.5 2 1.716 4.839.216 8.006-4.5 9.5-2.31.497-4.643.663-7 .5-.111-.617-.444-1.117-1-1.5 3.988-.282 7.821-1.115 11.5-2.5.896-2.525.396-4.692-1.5-6.5-7.865 1.218-15.865 1.718-24 1.5v-1h2l22-2z"/><path fill="#f6c179" d="M202.5 353.5v1c-4.993.416-9.993.749-15 1 4.75-1.531 9.75-2.198 15-2z" opacity=".816"/><path fill="#ffeed0" d="M204.5 352.5v1h-2c-5.25-.198-10.25.469-15 2-4.29-.302-8.29.364-12 2h-5c-5.068-.457-9.735.543-14 3-.086-.996.248-1.829 1-2.5a465.9 465.9 0 0 1 47-5.5z" opacity=".231"/><path fill="#edab54" d="M187.5 355.5c-3.71 1.636-7.71 2.302-12 2 3.71-1.636 7.71-2.302 12-2z"/><path fill="#ef9009" d="M217.5 363.5c-5.027.003-10.027.336-15 1-5.375-.328-10.708.005-16 1-5.071.372-9.738 1.372-14 3-5.064.599-10.064.599-15 0v-1c-.445-2.865.222-5.365 2-7.5 3.93-.242 7.597-1.075 11-2.5h5c4.29.302 8.29-.364 12-2 5.007-.251 10.007-.584 15-1 8.135.218 16.135-.282 24-1.5 1.896 1.808 2.396 3.975 1.5 6.5-3.679 1.385-7.512 2.218-11.5 2.5.556.383.889.883 1 1.5z"/><path fill="#f0b867" d="M170.5 357.5c-3.403 1.425-7.07 2.258-11 2.5-1.778 2.135-2.445 4.635-2 7.5-.968-2.107-1.302-4.441-1-7 4.265-2.457 8.932-3.457 14-3z" opacity=".741"/><path fill="#eb9e35" d="M202.5 364.5c-7.029 2.243-14.363 3.243-22 3l-8 1c4.262-1.628 8.929-2.628 14-3 5.292-.995 10.625-1.328 16-1z"/><path fill="#fee8c2" d="M218.5 350.5c3.512-.875 7.012-1.208 10.5-1 3.484 4.706 3.317 9.206-.5 13.5-16.578 2.773-33.244 4.94-50 6.5l2-2c7.637.243 14.971-.757 22-3 4.973-.664 9.973-.997 15-1 2.357.163 4.69-.003 7-.5 4.716-1.494 6.216-4.661 4.5-9.5-.708-.881-1.542-1.547-2.5-2-2.448-.973-5.115-1.306-8-1z" opacity=".098"/><path fill="#edb869" d="M180.5 367.5l-2 2h-1c-5.197-.136-10.363.197-15.5 1-2.008.193-3.508-.474-4.5-2 4.936.599 9.936.599 15 0l8-1z" opacity=".745"/><path fill="#feebc5" d="M156.5 360.5c-.302 2.559.032 4.893 1 7v1c.992 1.526 2.492 2.193 4.5 2 5.137-.803 10.303-1.136 15.5-1-6.443 1.703-13.109 2.203-20 1.5-3.452-3.406-3.786-6.906-1-10.5z" opacity=".071"/><path fill="#fee6bf" d="M196.5 373.5l-5 2c-5.598-.344-10.932.322-16 2-8.716-.963-11.049 2.37-7 10 2.247.874 4.58 1.208 7 1 5.551-.027 10.884-.694 16-2 2.448-.973 5.115-1.306 8-1 6.598-.125 12.931-1.125 19-3 .667 0 1-.333 1-1 2.776-3.01 2.442-5.844-1-8.5a186.63 186.63 0 0 0-21 .5c7.124-1.705 14.457-2.538 22-2.5 4.388 4.244 4.722 8.578 1 13a567.96 567.96 0 0 1-48.5 6.5c-6.574-.795-8.908-4.461-7-11l2.5-2.5c9.548-2.101 19.215-3.268 29-3.5z" opacity=".094"/><path fill="#f09007" d="M219.5 381.5c0 .667-.333 1-1 1-5.344-.166-10.677.001-16 .5-1.442.377-2.442 1.21-3 2.5-2.885-.306-5.552.027-8 1-5.584-.245-10.917.422-16 2-2.42.208-4.753-.126-7-1-4.049-7.63-1.716-10.963 7-10 5.551-.027 10.884-.694 16-2a160.56 160.56 0 0 1 26-.5c1.75 1.754 2.417 3.921 2 6.5z"/><path fill="#eaa345" d="M191.5 375.5c-5.116 1.306-10.449 1.973-16 2 5.068-1.678 10.402-2.344 16-2z" opacity=".984"/><path fill="#e99f3c" d="M219.5 381.5c.417-2.579-.25-4.746-2-6.5a160.56 160.56 0 0 0-26 .5l5-2h1a186.63 186.63 0 0 1 21-.5c3.442 2.656 3.776 5.49 1 8.5z"/><path fill="#ec9d30" d="M218.5 382.5c-6.069 1.875-12.402 2.875-19 3 .558-1.29 1.558-2.123 3-2.5 5.323-.499 10.656-.666 16-.5z"/><path fill="#f6c484" d="M191.5 386.5c-5.116 1.306-10.449 1.973-16 2 5.083-1.578 10.416-2.245 16-2z" opacity=".353"/></svg>