<svg xmlns="http://www.w3.org/2000/svg" width="500" height="500" viewBox="0 0 500 500" version="1.1"><path d="" stroke="none" fill="#000000" fill-rule="evenodd"/><path d="" stroke="none" fill="#000000" fill-rule="evenodd"/><path d="" stroke="none" fill="#000000" fill-rule="evenodd"/><path d="M 225.261 72.217 C 224.690 72.923, 223.645 76.116, 222.938 79.314 C 221.215 87.113, 218.789 89, 210.488 89 C 200.630 89, 199.662 91.884, 207.500 97.904 C 209.700 99.594, 212.063 101.449, 212.750 102.027 C 214.417 103.430, 214.313 108.398, 212.489 114.409 C 209.059 125.715, 211.510 127.534, 219.460 119.583 C 226.379 112.665, 229.085 112.348, 236.671 117.573 C 241.082 120.612, 242.175 120.976, 243.977 120.012 C 246.322 118.757, 246.144 117.277, 242.872 110.790 C 239.534 104.174, 240.256 101.223, 246.659 95.312 C 253.841 88.680, 253.156 87.220, 242.662 86.792 L 235.500 86.500 233.235 81.500 C 228.455 70.950, 227.339 69.650, 225.261 72.217 M 258.015 76.250 C 258.024 77.487, 258.501 79.175, 259.076 80 C 259.854 81.116, 259.957 80.667, 259.481 78.250 C 258.848 75.036, 258.884 75, 262.671 75.012 C 264.777 75.018, 270.100 75.913, 274.500 77 C 278.900 78.087, 283.175 78.947, 284 78.910 C 287.498 78.756, 267.072 74.073, 262.750 74.038 C 258.475 74.004, 258.002 74.225, 258.015 76.250 M 174 85.304 C 163.894 89.873, 159.995 91.920, 161.307 91.970 C 161.751 91.986, 166.476 89.905, 171.807 87.344 C 177.138 84.782, 182.961 82.645, 184.747 82.594 C 186.533 82.542, 187.995 82.162, 187.997 81.750 C 188.004 79.990, 182.873 81.293, 174 85.304 M 260.679 86.500 C 260.996 89.250, 261.424 91.688, 261.628 91.917 C 262.331 92.704, 261.800 86.498, 260.951 84 C 260.378 82.314, 260.289 83.128, 260.679 86.500 M 154.500 95 C 152.850 96.093, 151.950 96.980, 152.500 96.971 C 153.503 96.955, 158.940 93.058, 158 93.029 C 157.725 93.020, 156.150 93.907, 154.500 95 M 261.067 99 C 261.017 100.375, 260.347 103.864, 259.578 106.754 C 258.808 109.643, 258.525 111.794, 258.947 111.533 C 260.046 110.853, 262.335 99.455, 261.695 97.848 C 261.400 97.106, 261.117 97.625, 261.067 99 M 131.977 110.238 C 113.048 125.727, 96.582 145.871, 86.624 165.725 C 81.616 175.708, 82.116 176.274, 87.309 166.500 C 92.064 157.550, 101.048 143.572, 105.948 137.500 C 110.823 131.458, 121.946 120.105, 128.382 114.600 C 133.202 110.478, 135.236 108.840, 139.917 105.314 C 140.146 105.141, 140.135 104.802, 139.893 104.560 C 139.651 104.318, 136.089 106.873, 131.977 110.238 M 195.557 117.928 C 197.146 121.173, 197.139 121.425, 195.426 122.678 C 194.432 123.405, 194.064 124, 194.609 124 C 195.924 124, 198.006 121.869, 197.978 120.550 C 197.966 119.972, 197.038 118.375, 195.918 117 L 193.880 114.500 195.557 117.928 M 372.703 137.469 C 373.691 138.826, 374.916 139.951, 375.424 139.969 C 375.933 139.986, 375.292 138.875, 374 137.500 C 371.002 134.309, 370.393 134.294, 372.703 137.469 M 379.536 146.095 C 380.001 146.868, 382.397 150.650, 384.861 154.500 C 388.984 160.943, 396.315 175.568, 399.647 184 C 400.920 187.220, 400.983 187.260, 400.441 184.500 C 398.955 176.931, 383.489 147.656, 379.759 145.351 C 379.066 144.923, 378.988 145.184, 379.536 146.095 M 36.565 171.895 C 36.260 172.388, 36.748 173.073, 37.649 173.419 C 39.596 174.166, 40.458 173.550, 39.541 172.067 C 38.737 170.766, 37.313 170.684, 36.565 171.895 M 89.629 175.791 C 89.360 176.226, 90.796 176.418, 92.820 176.219 C 98.354 175.672, 99.013 175.168, 94.309 175.079 C 92.004 175.036, 89.898 175.356, 89.629 175.791 M 86.012 182.591 C 83.393 183.727, 81.948 183.842, 80.215 183.052 C 78.945 182.473, 77.140 182.037, 76.203 182.081 C 73.614 182.205, 80.052 184.906, 83 184.933 C 84.375 184.945, 86.625 184.076, 88 183 C 90.989 180.662, 90.630 180.588, 86.012 182.591 M 117 185.919 C 117.825 186.497, 119.261 186.976, 120.191 186.985 C 122.852 187.009, 123.365 188.926, 121.348 191.313 L 119.500 193.500 121.750 191.595 C 125.641 188.301, 124.851 187.142, 117.500 185.355 C 115.868 184.958, 115.776 185.062, 117 185.919 M 387.500 189 L 378.500 189.622 387.500 189.741 C 392.450 189.806, 397.400 189.473, 398.500 189 L 400.500 188.141 398.500 188.259 C 397.400 188.325, 392.450 188.658, 387.500 189 M 68.600 224.600 C 68.225 228.259, 68.122 231.456, 68.371 231.705 C 68.620 231.954, 69.143 229.177, 69.533 225.533 C 69.923 221.890, 70.026 218.693, 69.762 218.429 C 69.498 218.164, 68.975 220.941, 68.600 224.600 M 110.310 235.500 C 110.315 238.800, 110.502 240.029, 110.725 238.232 C 110.947 236.435, 110.943 233.735, 110.715 232.232 C 110.486 230.729, 110.304 232.200, 110.310 235.500 M 110.179 249.500 C 110.190 253.900, 110.534 258.625, 110.943 260 C 111.352 261.375, 111.496 258.225, 111.263 253 C 110.725 240.940, 110.152 239.089, 110.179 249.500 M 112.070 269.083 C 112.109 270.413, 112.548 272.400, 113.047 273.500 C 113.678 274.894, 113.768 274.288, 113.344 271.500 C 112.637 266.857, 111.969 265.589, 112.070 269.083 M 360.083 298.376 C 360.313 298.584, 368.600 298.984, 378.500 299.265 C 389.348 299.574, 393.520 299.477, 389 299.020 C 381.079 298.219, 359.375 297.736, 360.083 298.376 M 396.162 310.543 C 394.487 314.220, 394.807 315.005, 396.618 311.662 C 397.464 310.100, 397.969 308.636, 397.741 308.407 C 397.512 308.179, 396.802 309.140, 396.162 310.543 M 337.174 326.026 C 333.144 330.411, 330.234 334, 330.708 334 C 331.486 334, 338.721 326.149, 343.323 320.312 C 346.759 315.953, 344.495 318.057, 337.174 326.026 M 322.958 340.660 L 318.500 345.321 323.250 341.449 C 325.863 339.319, 328 337.222, 328 336.788 C 328 335.497, 327.614 335.793, 322.958 340.660 M 256.500 370.691 C 254.850 370.894, 248.550 371.471, 242.500 371.971 L 231.500 372.881 244.764 372.403 C 252.060 372.140, 259.035 371.520, 260.264 371.026 C 262.551 370.106, 261.783 370.038, 256.500 370.691" stroke="none" fill="#f5d10a" fill-rule="evenodd"/><path d="M 39.695 173.381 C 39.316 174.481, 49.193 179.883, 60 184.485 C 66.680 187.330, 94.883 200.873, 120 213.298 L 138.500 222.450 157 239.475 C 167.175 248.839, 181.125 261.910, 188 268.522 C 194.927 275.185, 206.925 285.216, 214.911 291.022 C 222.837 296.785, 232.201 303.640, 235.721 306.255 C 244.883 313.064, 247.482 314.179, 254.586 314.349 C 262.008 314.527, 263.251 313.660, 263.923 307.838 C 263.966 307.474, 265.688 306.904, 267.750 306.572 C 270.951 306.056, 298.262 304.036, 307.500 303.631 C 314.819 303.311, 312.885 301.544, 295.675 292.829 C 286.258 288.059, 278.399 283.697, 278.212 283.135 C 278.024 282.572, 277.270 282.343, 276.537 282.624 C 275.803 282.906, 274.938 282.709, 274.616 282.187 C 274.288 281.657, 270.927 281.449, 267.014 281.715 C 262.305 282.035, 260 281.832, 260 281.096 C 260 280.493, 259.311 280, 258.469 280 C 257.626 280, 256.678 279.325, 256.362 278.500 C 256.045 277.675, 255.159 277, 254.393 277 C 253.627 277, 253 276.550, 253 276 C 253 275.450, 252.325 275, 251.500 275 C 250.675 275, 250 274.647, 250 274.216 C 250 273.784, 248.571 272.587, 246.824 271.555 C 245.077 270.523, 242.940 269.074, 242.074 268.334 C 241.208 267.595, 236.709 264.395, 232.076 261.224 C 219.056 252.312, 220.159 251.126, 237.401 255.500 C 245.670 257.598, 249.449 257.986, 260.878 257.912 C 268.370 257.864, 276.750 257.524, 279.500 257.156 C 284.144 256.534, 284.487 256.297, 284.323 253.823 C 284.223 252.327, 284.758 250.923, 285.542 250.622 C 286.310 250.328, 292.239 251.938, 298.719 254.200 C 307.686 257.331, 312.411 258.407, 318.500 258.704 C 329.002 259.218, 348.245 257.784, 348.685 256.454 C 348.875 255.879, 346.099 253.255, 342.515 250.624 C 336.369 246.111, 334.633 244, 337.069 244 C 339.396 244, 359.182 249.370, 371 253.209 L 383.500 257.270 395 256.573 C 401.325 256.189, 408.750 255.713, 411.500 255.515 C 414.250 255.317, 420.775 254.880, 426 254.544 C 442.179 253.503, 458 251.722, 458 250.941 C 458 250.296, 453.521 248.229, 450.500 247.480 C 442.392 245.468, 440.027 244.768, 416.500 237.416 C 411.550 235.870, 407.163 234.525, 406.750 234.427 C 406.337 234.330, 405.887 234.160, 405.750 234.051 C 405.613 233.941, 404.375 233.655, 403 233.414 C 401.625 233.174, 399.825 232.689, 399 232.338 C 398.175 231.987, 396.739 231.549, 395.808 231.365 C 394.878 231.181, 392.178 230.355, 389.808 229.530 C 387.439 228.704, 384.967 228.023, 384.315 228.015 C 383.663 228.007, 381.863 227.481, 380.315 226.846 C 378.767 226.212, 376.825 225.563, 376 225.405 C 374.162 225.052, 358.985 220.355, 353.500 218.441 C 351.300 217.674, 348.375 216.844, 347 216.597 C 345.625 216.350, 344.500 216.081, 344.500 215.998 C 344.500 215.915, 343.825 215.677, 343 215.470 C 340.051 214.729, 327.299 211.054, 315.500 207.544 C 303.776 204.057, 292.042 201.546, 283 200.591 C 257.019 197.844, 244.539 197.822, 223.500 200.483 C 215.863 201.449, 210.136 202.127, 206 202.556 C 203.525 202.812, 200.375 203.208, 199 203.436 C 195.047 204.092, 187.786 204.992, 182.945 205.425 C 172.300 206.378, 165.252 207.222, 161.900 207.944 C 157.666 208.857, 145.861 205.770, 135.346 201.003 C 131.703 199.351, 128.124 198, 127.392 198 C 125.801 198, 118 194.040, 118 193.232 C 118 192.921, 118.285 192.951, 118.633 193.299 C 119.497 194.163, 123.267 189.241, 122.586 188.139 C 122.286 187.655, 120.570 186.918, 118.771 186.502 C 116.972 186.086, 115.050 185.588, 114.500 185.397 C 112.956 184.858, 102.800 181.954, 100 181.250 C 95.370 180.085, 91.337 180.624, 88.255 182.818 C 84.688 185.359, 82.458 185.520, 77.270 183.616 C 74.163 182.476, 66.969 180.253, 63.750 179.440 C 63.337 179.335, 62.888 179.157, 62.750 179.043 C 62.612 178.929, 61.245 178.630, 59.712 178.378 C 58.178 178.127, 55.703 177.420, 54.212 176.808 C 52.720 176.195, 50.739 175.545, 49.808 175.362 C 48.878 175.180, 46.308 174.407, 44.098 173.646 C 41.226 172.656, 39.970 172.581, 39.695 173.381" stroke="none" fill="#0a6c12" fill-rule="evenodd"/><path d="M 259.012 75.750 C 259.018 76.162, 259.688 78.975, 260.500 82 C 263.018 91.383, 262.239 104.824, 258.773 111.770 C 258.002 113.315, 257.967 114.367, 258.662 115.062 C 259.224 115.624, 265.267 117.453, 272.092 119.128 C 299.629 125.885, 324.390 142.418, 341.544 165.500 C 344.814 169.900, 347.769 173.725, 348.110 174 C 348.452 174.275, 349.712 176.300, 350.912 178.500 C 357.300 190.220, 357.579 190.514, 362.001 190.201 C 362.277 190.182, 369.252 189.890, 377.501 189.552 C 396.829 188.761, 400.002 188.282, 399.992 186.162 C 399.978 183.239, 390.350 163.272, 384.352 153.730 C 378.031 143.672, 378.300 144.055, 374.005 139 C 372.370 137.075, 371.025 135.155, 371.016 134.734 C 371.007 134.312, 366.089 129.137, 360.086 123.234 C 348.518 111.856, 345.733 109.330, 345.249 109.777 C 345.084 109.929, 343.498 108.694, 341.725 107.032 C 339.951 105.369, 338.163 104.007, 337.750 104.005 C 337.337 104.002, 336.175 103.213, 335.166 102.250 C 333.009 100.192, 329.550 98.127, 322 94.389 C 318.975 92.892, 316.275 91.395, 316 91.063 C 315.324 90.246, 310.466 88.138, 305 86.288 C 302.525 85.450, 300.214 84.311, 299.864 83.757 C 299.514 83.203, 298.051 82.750, 296.614 82.750 C 295.176 82.750, 294 82.421, 294 82.020 C 294 81.618, 290.288 80.501, 285.750 79.537 C 281.212 78.572, 275.043 77.157, 272.040 76.392 C 266.144 74.889, 258.993 74.537, 259.012 75.750 M 182 82.700 C 181.175 83.019, 176.900 84.978, 172.500 87.054 C 168.100 89.129, 162.925 91.526, 161 92.379 C 159.075 93.232, 155.700 95.066, 153.500 96.455 C 151.300 97.843, 148.582 99.387, 147.459 99.885 C 146.336 100.384, 144.819 101.514, 144.086 102.396 C 143.354 103.278, 142.173 104, 141.461 104 C 140.749 104, 140.017 104.346, 139.833 104.768 C 139.650 105.191, 138.287 106.473, 136.806 107.619 C 126.857 115.306, 113.112 128.617, 105.951 137.500 C 100.699 144.015, 90.292 160.464, 85.921 169.157 C 81.242 178.463, 81.659 180.579, 87.493 177.136 C 91.337 174.869, 95.435 174.432, 99.203 175.888 C 104.228 177.830, 119.006 182.146, 121.873 182.509 C 124.662 182.862, 125.289 182.335, 129.381 176.197 C 135.571 166.912, 150.275 150.615, 158.571 143.845 C 166.943 137.014, 179.017 129.736, 188.494 125.810 C 192.340 124.216, 195.877 122.523, 196.353 122.047 C 196.840 121.560, 195.711 118.390, 193.769 114.794 C 190.668 109.052, 189.292 105.525, 188.388 101 C 188.223 100.175, 187.910 95.675, 187.693 91 C 187.346 83.541, 187.065 82.477, 185.399 82.310 C 184.354 82.206, 182.825 82.382, 182 82.700 M 74.764 200.228 C 72.701 201.791, 71.783 205.867, 70.011 221.334 C 69.454 226.193, 68.680 231.593, 68.289 233.334 C 67.383 237.381, 67.416 244.628, 68.383 253.500 C 68.802 257.350, 69.295 262.525, 69.477 265 C 70.996 285.668, 80.614 312.451, 94.339 334.232 C 105.411 351.802, 123.249 370.444, 141.500 383.519 C 181.520 412.188, 237.118 420.907, 288 406.493 C 315.732 398.637, 337.968 385.043, 361.558 361.524 C 371.419 351.693, 382 339.261, 382 337.506 C 382 337.151, 383.251 334.979, 384.781 332.680 C 386.310 330.381, 388.186 327.262, 388.950 325.750 C 389.713 324.238, 390.712 323, 391.169 323 C 391.626 323, 392 322.350, 392 321.555 C 392 320.761, 393.637 316.598, 395.637 312.305 C 399.837 303.292, 400.273 301.202, 398.082 300.577 C 397.212 300.329, 388.625 299.835, 379 299.480 C 369.375 299.125, 360.528 298.684, 359.341 298.500 C 357.637 298.236, 356.425 299.392, 353.591 303.983 C 351.616 307.183, 350 310.103, 350 310.472 C 350 310.841, 349.438 311.770, 348.750 312.537 C 345.973 315.633, 345 316.948, 345 317.605 C 345 319.694, 320.914 345, 318.925 345 C 318.484 345, 316.669 346.329, 314.890 347.953 C 313.112 349.577, 311.331 350.705, 310.933 350.459 C 310.535 350.213, 309.941 350.712, 309.612 351.569 C 309.283 352.426, 308.561 352.847, 308.007 352.504 C 307.453 352.162, 307 352.359, 307 352.941 C 307 353.523, 306.363 354, 305.583 354 C 304.804 354, 304.017 354.337, 303.833 354.750 C 303.520 355.455, 294.210 360.451, 293.041 360.542 C 292.743 360.565, 291.042 361.362, 289.260 362.312 C 287.479 363.263, 285.904 363.961, 285.760 363.863 C 285.617 363.765, 283.413 364.608, 280.863 365.736 C 278.313 366.864, 274.488 368.021, 272.363 368.306 C 270.238 368.592, 265.800 369.605, 262.500 370.557 C 253.066 373.279, 226.646 373.001, 213.521 370.042 C 176.030 361.589, 144.902 339.439, 128.339 309.429 C 126.843 306.718, 125.142 304.169, 124.559 303.765 C 123.906 303.312, 123.883 303.019, 124.500 303 C 125.057 302.983, 124.999 302.644, 124.369 302.235 C 121.608 300.440, 111.418 271.334, 112.330 267.846 C 112.595 266.832, 112.473 265.793, 112.059 265.537 C 110.952 264.852, 110.627 260.179, 110.562 244 C 110.529 236.025, 110.969 227.025, 111.538 224 C 112.108 220.975, 112.431 217.813, 112.256 216.972 C 111.963 215.561, 90.438 204.439, 88.750 204.827 C 88.338 204.922, 88 204.523, 88 203.941 C 88 203.359, 87.550 203.160, 87 203.500 C 86.450 203.840, 86 203.615, 86 203 C 86 202.385, 85.586 202.138, 85.081 202.450 C 84.575 202.763, 83.552 202.452, 82.807 201.759 C 82.062 201.067, 81.013 200.421, 80.476 200.324 C 79.939 200.227, 78.812 199.880, 77.971 199.552 C 77.131 199.224, 75.687 199.528, 74.764 200.228" stroke="none" fill="#ee1d0d" fill-rule="evenodd"/></svg>