<svg xmlns="http://www.w3.org/2000/svg" width="720" height="720">
  <path fill="#126729" fill-rule="evenodd" d="M101.892 524.449c-10.995 3.033-21.7 11.764-26.641 21.73-9.041 18.235-2.885 41.741 13.086 49.973 8.878 4.576 29.239 6.016 49.663 3.512l9.5-1.164.646-13.5c.356-7.425.93-16.999 1.276-21.275l.629-7.775-16.276.275-16.275.275-.294 7.25-.294 7.25h10.346l-.703 6.215c-.387 3.419-.921 6.569-1.188 7-.267.432-3.848.785-7.958.785-11.1 0-16.736-2.805-20.515-10.21-4.554-8.923-.547-24.293 7.85-30.113 8.122-5.628 20.678-7.227 32.796-4.176 3.278.825 6.747 1.683 7.71 1.906 1.564.363 1.75-.522 1.75-8.328v-8.733l-6.365-1.173c-8.317-1.533-32.817-1.358-38.743.276m314.108.433c-15.174 4.897-23.447 12.628-28.036 26.201-1.755 5.189-2.089 8.044-1.746 14.917.88 17.619 10.324 28.78 28.317 33.467 6.085 1.585 22.144 1.959 30.465.709l4.5-.676 1.864-7.803c1.025-4.292 1.604-8.062 1.288-8.378-.316-.317-4.836-.039-10.044.616-16.814 2.117-25.519-.948-30.648-10.788-1.831-3.513-2.136-5.365-1.725-10.486 1.058-13.185 9.191-21.257 23.265-23.091 4.441-.578 7.366-.24 17.75 2.055l2.75.608v-17.067l-5.049-1.083c-8.042-1.725-26.518-1.276-32.951.799m-250.437.368c-.729 2.436-3.576 42.364-3.548 49.75.044 11.398 3.377 17.057 12.985 22.047 7.291 3.787 25.794 5.042 38.5 2.612 11.285-2.159 17.71-6.341 21.751-14.159 1.68-3.251 2.224-6.902 2.906-19.5.461-8.525 1.284-20.675 1.83-27 .546-6.325.997-12.288 1.003-13.25.009-1.569-1.218-1.75-11.865-1.75H217.25l-.625 3.125c-.344 1.719-.631 5.881-.637 9.25-.007 3.369-.662 13.446-1.455 22.394-1.549 17.462-2.568 20.639-7.573 23.595-5.429 3.208-16.45 1.377-18.814-3.124-1.989-3.787-2.278-11.108-1.204-30.499.617-11.133 1.341-21.254 1.609-22.491.483-2.232.393-2.25-11.063-2.25-8.375 0-11.654.344-11.925 1.25m89.106-.5c-.248.413-.509 5.925-.581 12.25-.141 12.43-1.635 37.05-3.125 51.5-.511 4.95-.936 9.573-.946 10.274-.013 1.004 6.108 1.257 28.957 1.196 15.936-.043 29.153-.391 29.371-.774.218-.383.707-3.959 1.086-7.946l.69-7.25H293.12c-9.351 0-17.19-.337-17.421-.75-.487-.872 1.875-46.227 2.812-54l.633-5.25h-12.013c-6.607 0-12.215.337-12.462.75m66.998-.083c-.367.366-.677 6.779-.689 14.25-.012 7.471-.674 23.483-1.472 35.583-.798 12.1-1.463 22.788-1.479 23.75-.024 1.571 1.201 1.75 11.973 1.75h12v-5.846c0-3.216.292-9.966.65-15l.649-9.154h28.422l.631-5.25c.347-2.888.635-6.487.639-8L373 554h-29.091l.295-6.75.296-6.75 17.25-.274 17.25-.273v-3.337c0-1.835.286-5.425.636-7.976l.636-4.64h-28.969c-15.934 0-29.27.3-29.636.667m166.037 12.583c-3.669 7.288-12.486 24.048-19.594 37.247-7.108 13.198-12.714 24.335-12.458 24.75.834 1.349 24 .89 25.049-.497.52-.687 2.907-5.638 5.303-11l4.356-9.75h28.54l3.337 10.75 3.337 10.75 12.336.282 12.335.282-.536-2.282c-.296-1.255-3.087-9.032-6.204-17.282-6.965-18.436-12.779-34.307-16.65-45.446-1.614-4.645-3.422-9.032-4.017-9.75-.794-.956-4.737-1.304-14.773-1.304h-13.69l-6.671 13.25m73.955-2c-.355 6.188-1.515 20.025-2.576 30.75-1.062 10.725-2.217 22.763-2.568 26.75l-.636 7.25h8.479c11.905 0 11.643.199 11.636-8.857-.009-11.975 2.249-43.143 3.126-43.143.434 0 1.073 1.688 1.419 3.75.346 2.063 1.026 5.1 1.51 6.75.76 2.59 6.534 28.711 8.455 38.25l.655 3.25h9.885c8.845 0 9.998-.209 10.951-1.99 1.442-2.695 12.265-36.006 15.517-47.76.343-1.237 1.102-2.25 1.687-2.25.886 0 .568 27.531-.567 49-.131 2.486-.078 2.502 9.59 2.786 9.429.277 9.736.217 10.188-2 .382-1.872 1.423-37.152 1.97-66.786l.12-6.5-14.922-.278c-8.208-.152-15.272.073-15.699.5-1.426 1.428-12.484 33.557-14.293 41.528-1.335 5.882-1.591 5.106-9.661-29.25-.969-4.125-2.032-8.737-2.362-10.25l-.601-2.75h-30.657l-.646 11.25m-58.469 13.968c-6.464 13.736-6.669 12.782 2.743 12.782 6.032 0 8.067-.334 8.067-1.326 0-.729-1.125-4.545-2.5-8.481-1.375-3.935-2.5-7.812-2.5-8.615 0-4.04-2.31-1.797-5.81 5.64m-331.481 75.559c-3.067 1.894-4.255 4.926-3.215 8.203.542 1.71.954 1.893 2.102.94 1.119-.929 1.17-1.496.237-2.622-.963-1.16-.629-1.897 1.737-3.831 3.691-3.017 4.296-3.017 8.385 0 3.43 2.531 5.375 2.558 4.417.061-1.63-4.249-8.875-5.708-13.663-2.751m20.817 1.173c-1.807 3.494-1.936 5.05-.419 5.05.609 0 .873-.609.588-1.353-.286-.744.341-2.09 1.393-2.99 2.046-1.753 2.535-3.657.938-3.657-.536 0-1.661 1.328-2.5 2.95M309 627.567c0 4.113-.199 4.505-2 3.933-1.1-.349-2-.185-2 .365s.9 1.286 2 1.635c1.803.572 2 1.513 2 9.567 0 7.274.279 8.933 1.5 8.933 1.22 0 1.5-1.645 1.5-8.807 0-8.681.039-8.822 2.75-9.878l2.75-1.072-3.019-.7c-2.816-.654-2.994-.963-2.645-4.622.295-3.088.033-3.921-1.231-3.921-1.239 0-1.605 1.041-1.605 4.567m13.177-3.014c.452 2.172 2.227 2.305 2.633.197.21-1.095-.28-1.75-1.31-1.75-.961 0-1.512.647-1.323 1.553M204 625c0 .55.9 1 2 1s2-.45 2-1-.9-1-2-1-2 .45-2 1m63.5 5.934c-7.354 3.051-9.38 15.235-3.249 19.529 3.146 2.204 10.967 1.991 13.888-.377 3.396-2.753 1.562-3.706-3.093-1.607-3.319 1.497-4.455 1.594-6.881.589-2.498-1.035-5.16-4.571-5.167-6.865-.001-.387 4.274-.56 9.5-.384 8.854.297 11.525-.451 8.434-2.361-.588-.363-.847-1.238-.576-1.944.703-1.831-4.306-6.202-7.856-6.856-1.65-.305-3.9-.18-5 .276m21.495 1.301c-3.517 3.776-2.286 6.571 4.505 10.232 3.3 1.78 6 3.752 6 4.384 0 .632.45 1.149 1 1.149s1-1.013 1-2.25c0-1.667-1.165-2.832-4.5-4.496-4.813-2.402-8.341-5.893-7.436-7.358.839-1.357 4.188-1.075 7.486.63 2.611 1.35 2.95 1.353 2.95.025 0-1.579-4.84-4.551-7.411-4.551-.831 0-2.448 1.006-3.594 2.235m151.114 8.854c-.159 9.021.063 10.911 1.279 10.911 1.159 0 1.538-1.879 1.791-8.887.371-10.27.181-11.761-1.586-12.439-1.002-.384-1.336 1.961-1.484 10.415m104.052-9.041c-1.738 1.058-3.161 2.412-3.161 3.01 0 .598 1.154.18 2.564-.93 2.644-2.08 4.105-1.951 8.295.734 2.186 1.4 2.333 1.374 2-.352-.197-1.025-1.749-2.431-3.448-3.124-2.684-1.095-3.503-1.008-6.25.662m-328.217-.548c-.035 0-.212 4.612-.395 10.25-.308 9.505-.195 10.25 1.559 10.25 1.707 0 1.892-.828 1.892-8.465 0-7.345.256-8.602 1.934-9.5 2.208-1.181 6.395-1.373 7.428-.339.942.942 3.642 1.289 3.623.466-.057-2.47-2.061-3.132-8.786-2.905-3.956.134-7.221.243-7.255.243m22.056-.039c0 .254.913 1.312 2.029 2.351 1.116 1.04 2.215 2.859 2.443 4.043.228 1.184.735 2.67 1.126 3.303.44.712.27.879-.443.437-1.271-.785-1.372.005-.334 2.618.419 1.057 1.159 1.417 1.932.94.989-.611.914-1.918-.353-6.213-.882-2.992-2.063-6.002-2.624-6.69-.968-1.185-3.776-1.772-3.776-.789m15.664.289c-1.153 1.906-3.57 11.592-3.088 12.373.298.483.065.877-.517.877-.582 0-1.073 1.013-1.091 2.25-.029 2.036-.153 2.09-1.307.572-1.697-2.231-3.743-.851-2.993 2.018.455 1.739 1.198 2.197 3.188 1.964 2.308-.271 2.872-1.205 5.119-8.478 1.389-4.496 2.863-8.508 3.275-8.917 1.268-1.255.831-3.409-.691-3.409-.793 0-1.645.337-1.895.75m68.836-.117c-.605.219-.875 4.31-.684 10.365.249 7.871.622 10.002 1.75 10.002 1.149 0 1.434-1.976 1.434-9.941 0-9.619-.378-11.196-2.5-10.426m9.5 9.867c0 8.532.273 10.5 1.458 10.5 1.125 0 1.525-1.751 1.75-7.672.279-7.322.426-7.747 3.223-9.293 3.05-1.687 4.566-4.035 2.605-4.035-.623 0-2.146 1.094-3.385 2.432-1.559 1.682-2.692 2.161-3.674 1.554-1.174-.726-1.106-.999.385-1.571 1.42-.545 1.521-.874.472-1.539-2.582-1.637-2.834-.782-2.834 9.624m33.25-8.828c-3.118 1.514-4.345 3.328-2.25 3.328.55 0 1-.378 1-.839 0-.462 1.177-1.376 2.616-2.032 2.238-1.019 3.324-.84 7.5 1.242 5.082 2.532 5.775 2.389 3.428-.709-1.867-2.463-8.208-2.974-12.294-.99m49.384 7.336c.109 5.374.678 9.663 1.397 10.53 1.378 1.659 5.726 1.912 7.969.462 1.527-.987 1.526-.987-5.16-1.398-.912-.056-2.037-.512-2.5-1.012-.471-.51-.4-.662.16-.346.64.362.927-2.554.797-8.089-.146-6.239-.572-8.733-1.525-8.935-1.03-.218-1.281 1.724-1.138 8.788m15.759-7.426c.334.87.659 3.907.722 6.75l.115 5.168.827-4c1.351-6.531 1.144-9.5-.664-9.5-1.055 0-1.398.544-1 1.582m34.607-.617c0 .53.9 1.446 2 2.035 1.566.838 2 .76 2-.358 0-.785-.712-1.701-1.582-2.035-2.124-.815-2.418-.772-2.418.358m15.525 1.356c-1.682 2.567-2.951 12.061-1.492 11.159.5-.309 1.204-2.785 1.564-5.502.361-2.717 1.049-4.697 1.529-4.4.481.297.874.325.874.063 0-.263.273-1.189.607-2.059.932-2.428-1.368-1.877-3.082.739m14.069-1.525c-4.297.543-6.521 3.814-6.561 9.649-.045 6.802 3.4 10.555 9.689 10.555 5.302 0 9.096-2.319 10.914-6.672 1.615-3.865 1.661-4.328.43-4.328-.513 0-1.076 1.237-1.25 2.75-.178 1.547-.863 2.641-1.566 2.5-.687-.138-1.25.09-1.25.506 0 .416-1.4 1.375-3.11 2.133-2.703 1.196-3.551 1.166-6.474-.228-3.217-1.534-3.54-2.123-4.883-8.911-.19-.962.01-1.75.444-1.75s1.018-.874 1.298-1.943c.304-1.164 1.843-2.289 3.836-2.806 3.835-.994 2.788-1.999-1.517-1.455m5.406.343c0 .473 1.012.868 2.25.876 1.863.013 1.992.198.75 1.076-1.22.863-1.232.989-.062.673 2.491-.674 2.251-2.495-.396-3.001-1.398-.267-2.542-.098-2.542.376m16.743.111c.544.688 1.238 1.925 1.544 2.75.316.855.589.317.634-1.25.055-1.902-.421-2.75-1.543-2.75-1.159 0-1.34.358-.635 1.25M204 642v10h2.655c2.555 0 2.59-.072.916-1.921-.956-1.057-1.653-3.194-1.549-4.75.435-6.488-.09-13.329-1.022-13.329-.6 0-1 4-1 10m186.442-9.235c-4.019 2.791-6.34 13.235-2.942 13.235.825 0 1.5.845 1.5 1.878 0 3.568 4.74 5.195 10.907 3.743 5.679-1.337 9.356-8.274 7.219-13.621l-.999-2.5-.212 3a583.83 583.83 0 0 0-.313 4.703c-.109 1.819-6.15 6.797-8.249 6.797-4.045 0-10.26-6.402-9.522-9.808.429-1.983 4.413-6.306 6.669-7.239 1.819-.751 1.774-.831-.5-.874-1.375-.027-2.976.282-3.558.686M171.5 634c-.34.55.196 1.007 1.191 1.015 1.543.013 1.589.165.309 1.031-1.099.743-.725.834 1.399.339 2.057-.48 2.694-.344 2.191.469-.416.674-.066 1.146.851 1.146.857 0 1.559.477 1.559 1.059s.422.798.939.479c.516-.319 1.344.145 1.839 1.031.496.885 1.307 1.457 1.802 1.271.495-.187 1.189 1.01 1.542 2.66l.641 3 .103-3c.138-4.013-.427-4.681-7.062-8.35-6.369-3.522-6.443-3.544-7.304-2.15m94.703.256c-.573.69-1.335 2.421-1.692 3.846l-.651 2.591 6.575-.152c8.262-.19 9.821-1.472 6.048-4.97-3.017-2.795-8.472-3.494-10.28-1.315M230 637.701c0 .909.577 1.292 1.447.958 1.109-.426 1.535.544 1.82 4.143l.373 4.698.18-5.133c.153-4.375-.115-5.211-1.82-5.657-1.349-.353-2-.03-2 .991m312.677.698c-.699 1.822.14 2.601 2.801 2.601 2.96 0 6.522 3.571 6.522 6.539 0 2.024-.493 2.461-2.777 2.461-1.528 0-3.807-.721-5.065-1.602-2.938-2.057-4.025-1.014-1.664 1.596 2.115 2.336 8.042 2.674 10.756.614.962-.731 1.75-2.447 1.75-3.813 0-2.771-1.559-4.317-7.642-7.58-3.36-1.802-4.243-1.956-4.681-.816m-73.168 1.851c.13 1.237.322 3.15.427 4.25.172 1.799.287 1.76 1.149-.395.989-2.474.385-6.105-1.016-6.105-.438 0-.69 1.013-.56 2.25M168 644.955c0 2.091 4.299 6.975 6.295 7.151 2.98.262 7.305-.379 8.352-1.238.63-.518.926-1.783.657-2.812-.476-1.82-.54-1.82-2.396.036-2.679 2.679-4.099 2.408-8.339-1.592-4.312-4.066-4.569-4.153-4.569-1.545m209.1-.698c-.055.966-1.216 2.727-2.58 3.913-2.616 2.274-7.52 3.385-7.52 1.703 0-.545-.457-.708-1.016-.363-1.942 1.2.002 2.236 4.359 2.324 5.471.109 8.788-2.872 7.604-6.834-.489-1.636-.782-1.893-.847-.743m141.209 1.928c.318.927.041 1.886-.615 2.13-.847.316-.721.943.434 2.158 1.36 1.43 2.694 1.598 8.093 1.02 6.176-.661 6.443-.801 5.997-3.135-.442-2.312-.566-2.353-2.325-.761-1.762 1.595-10.392 3.02-9.495 1.568.234-.378-.271-1.582-1.121-2.676-1.161-1.494-1.402-1.569-.968-.304m-44.059 2.35c-2.764 2.673-2.829 3.465-.285 3.465 2.145 0 4.736-3.779 3.378-4.927-.464-.392-1.855.266-3.093 1.462M287 648.331c0 1.373 3.355 3.468 6 3.748 3.795.4 6-.187 6-1.598 0-1.103-.656-1.355-2.392-.919-1.365.343-3.707-.079-5.451-.981-3.72-1.923-4.157-1.95-4.157-.25m-54 .728c0 .582-.45.781-1 .441s-1 .084-1 .941.675 1.559 1.5 1.559c.833 0 1.5-.889 1.5-2 0-1.1-.225-2-.5-2s-.5.477-.5 1.059"/>
  <path fill="#f7e47b" fill-rule="evenodd" d="M331.75 95.706c1.238.238 3.262.238 4.5 0 1.238-.239.225-.434-2.25-.434s-3.488.195-2.25.434M478.5 144c2.148 2.2 4.131 4 4.406 4 .275 0-1.258-1.8-3.406-4s-4.131-4-4.406-4c-.275 0 1.258 1.8 3.406 4M209 152.5c-2.429 2.475-4.191 4.5-3.916 4.5.275 0 2.487-2.025 4.916-4.5 2.429-2.475 4.191-4.5 3.916-4.5-.275 0-2.487 2.025-4.916 4.5m286.5 8.5c2.148 2.2 4.131 4 4.406 4 .275 0-1.258-1.8-3.406-4s-4.131-4-4.406-4c-.275 0 1.258 1.8 3.406 4m14.306 18.014c5.603 7.954 6.15 9.589 3.444 10.297-1.64.428-1.638.464.031.573 3.582.233 2.983-2.974-1.867-10.009-2.663-3.862-5.282-7.294-5.822-7.627-.539-.333 1.357 2.711 4.214 6.766M366 232.666c-1.925.827-11.6 6.576-21.5 12.777-23.323 14.607-40.983 25.459-56.402 34.658C275.79 287.444 269 292.694 269 294.868c0 2.547 5.739.777 17.778-5.483 6.997-3.639 31.397-16.07 54.222-27.625 22.825-11.555 42.136-21.605 42.914-22.334 1.909-1.789.004-4.098-5.414-6.563-4.769-2.169-7.796-2.217-12.5-.197m51 .979-12.5 4.047c-26.218 8.487-52.869 20.446-94 42.182-27.777 14.678-32.981 17.795-33.31 19.946-.298 1.958-.126 1.982 5 .714 2.921-.722 8.01-2.444 11.31-3.825 16.193-6.779 30.324-12.365 43.5-17.197 7.975-2.925 15.625-5.769 17-6.321 1.375-.551 6.55-2.431 11.5-4.177 10.371-3.657 19.303-7.011 35.5-13.329 6.325-2.467 14.543-5.417 18.262-6.556 11.798-3.614 12.663-4.688 8.119-10.088-2.174-2.584-7.461-6.257-8.581-5.962-.165.043-.975.298-1.8.566m31 12.497c-1.925.528-10.025 2.958-18 5.399a3743.837 3743.837 0 0 1-30 9.011c-17.629 5.2-60.766 19.728-72 24.249-45.372 18.258-62.5 26.397-62.5 29.699 0 3.279 3.538 2.896 14.118-1.526 5.435-2.271 11.363-4.571 13.173-5.11 1.81-.539 7.885-2.802 13.5-5.029 28.523-11.309 82.333-27.426 104.709-31.36 4.125-.725 13.088-2.479 19.919-3.897 13.138-2.727 18.751-3.287 16.09-1.604-.821.518-3.971 1.202-7 1.52-3.03.318-8.209 1.195-11.509 1.948-3.3.754-9.6 2.167-14 3.14-33.069 7.317-58.91 15.012-101.5 30.225-29.623 10.581-32.152 11.875-32.525 16.643-.089 1.127-.505 3.288-.926 4.8-.74 2.658-.636 2.75 3.093 2.744 2.122-.003 5.436-.444 7.365-.979 1.929-.536 7.104-1.639 11.5-2.45 4.396-.811 11.122-2.166 14.946-3.01 28.47-6.287 60.675-9.53 95.547-9.621 29.055-.076 44.175 1.281 62.831 5.638 31.438 7.342 47.553 16.173 53.481 29.306 2.937 6.508 3.489 21.841 1.19 33.111-3.368 16.513-13.776 38.721-23.84 50.867-5.003 6.038-7.282 9.857-6.406 10.734 1.625 1.624 6.394-2.107 19.772-15.469 21.249-21.224 32.93-39.686 42.367-66.963 7.902-22.837 11.325-39.173 10.025-47.841-2.343-15.627-23.098-23.717-66.42-25.89-7.425-.372-14.383-1.004-15.463-1.403-1.945-.719-1.945-.735.023-1.788 1.092-.585 6.695-1.22 12.451-1.413 13.068-.436 13.799-1.579 5.3-8.279-7.699-6.071-14.826-9.544-19.582-9.544-2.133 0-11.333.912-20.444 2.026-14.762 1.806-18.592 1.932-17.202.564.23-.225 5.5-1.336 11.713-2.469 6.212-1.132 11.725-2.325 12.25-2.649 2.715-1.679-.718-6.741-7.714-11.376-5.029-3.331-11.002-3.968-18.332-1.954m-44.5 43.357c-25.138 3.991-81.958 17.348-87.5 20.568-4.199 2.441 7.328.429 26.5-4.623 20.159-5.313 56.077-13.312 65.275-14.537 7.094-.945 11.871-2.906 6.725-2.762-1.65.046-6.6.656-11 1.354M466 354c-1.122 2.2-1.816 4-1.541 4 .275 0 1.419-1.8 2.541-4 1.122-2.2 1.816-4 1.541-4-.275 0-1.419 1.8-2.541 4m59.343 11.5c.003 4.4.179 6.076.39 3.724.212-2.352.209-5.952-.006-8s-.388-.124-.384 4.276m-82.87 20.75-6.973 7.25 7.25-6.973c6.734-6.477 7.707-7.527 6.973-7.527-.152 0-3.415 3.262-7.25 7.25m-99.223 39.485c2.613.206 6.887.206 9.5 0 2.613-.206.475-.375-4.75-.375s-7.363.169-4.75.375M380.3 531c0 3.025.187 4.263.416 2.75.229-1.513.229-3.987 0-5.5s-.416-.275-.416 2.75m-231.964 5c0 4.125.177 5.813.392 3.75.216-2.062.216-5.437 0-7.5-.215-2.062-.392-.375-.392 3.75m39.964 4c0 3.025.187 4.263.416 2.75.229-1.513.229-3.987 0-5.5s-.416-.275-.416 2.75m51.972 4c0 2.475.195 3.487.434 2.25.238-1.237.238-3.263 0-4.5-.239-1.237-.434-.225-.434 2.25m37.088 16c0 5.225.169 7.362.375 4.75s.206-6.888 0-9.5-.375-.475-.375 4.75m-153.61-5.26c3.438.196 9.063.196 12.5 0 3.438-.195.625-.355-6.25-.355s-9.687.16-6.25.355M373.336 562c0 4.125.177 5.813.392 3.75.216-2.062.216-5.437 0-7.5-.215-2.062-.392-.375-.392 3.75m-223.981 17.5c-.003 4.95.166 7.101.376 4.78.209-2.321.212-6.371.005-9-.206-2.629-.378-.73-.381 4.22m427.917-4.5c0 2.475.195 3.487.434 2.25.238-1.237.238-3.263 0-4.5-.239-1.237-.434-.225-.434 2.25m72.125 10c0 7.975.156 11.237.346 7.25.189-3.987.189-10.513 0-14.5-.19-3.987-.346-.725-.346 7.25m-373.222-6.75L276 583l17.25-.224 17.25-.224-16.694-.3-16.693-.3-.382-4.226-.382-4.226-.174 4.75m154.601 5.483c2.352.212 5.952.209 8-.006s.124-.388-4.276-.384c-4.4.003-6.076.179-3.724.39m-120.49 6.767c.008 2.75.202 3.756.432 2.236.229-1.52.223-3.77-.014-5-.237-1.23-.425.014-.418 2.764M204 629.156c0 1.191.591 1.502 2.102 1.107 1.232-.322 2.468.027 2.985.844.573.904.888.975.898.202.008-.655-.442-1.474-1.001-1.819-.559-.346-.827-.935-.596-1.309.232-.375-.661-.681-1.983-.681-1.572 0-2.405.574-2.405 1.656m-17.388.412c-.26.679.395 1.462 1.457 1.74 1.362.356 1.931-.008 1.931-1.235 0-1.981-2.669-2.378-3.388-.505m35.638.148c1.512.229 3.988.229 5.5 0s.275-.416-2.75-.416-4.262.187-2.75.416m31.375.082c-.311.502.505.709 1.813.459 1.698-.325 2.53.073 2.912 1.394.465 1.608.509 1.589.332-.151-.211-2.085-4.027-3.369-5.057-1.702m80.596.317c2.047.463 4.66.495 5.807.07 1.41-.521.203-.794-3.721-.841-5.352-.065-5.515-.005-2.086.771m82.439-.438c.638.456 1.376 2.178 1.641 3.826.44 2.746.469 2.71.34-.426-.087-2.107-.718-3.578-1.641-3.826-1.013-.272-1.123-.134-.34.426m97.974.107c-.267.431.719.768 2.191.75 2.634-.033 2.684.09 3.242 7.966l.566 8 .184-7.168c.1-3.943-.09-7.88-.424-8.75-.621-1.619-4.887-2.21-5.759-.798m14.778.585c-.289.753-.358 3.791-.154 6.75l.372 5.381.185-6.184c.177-5.922.301-6.201 2.935-6.6l2.75-.416-2.781-.15c-1.55-.084-3.015.456-3.307 1.219M214.343 638.5c.003 4.4.179 6.076.39 3.724.212-2.352.209-5.952-.006-8s-.388-.124-.384 4.276M545 635.465c0 .805 1.013 1.996 2.25 2.645 2.206 1.158 2.215 1.141.439-.861-1.394-1.571-1.509-2.162-.5-2.566.856-.343.704-.552-.439-.604-.962-.043-1.75.58-1.75 1.386M320.336 643c0 4.125.177 5.813.392 3.75.216-2.062.216-5.437 0-7.5-.215-2.062-.392-.375-.392 3.75m-84.993 1.5c.003 4.4.179 6.076.39 3.724.212-2.352.209-5.952-.006-8s-.388-.124-.384 4.276m208.977-.5c0 3.575.182 5.038.403 3.25.222-1.788.222-4.712 0-6.5-.221-1.788-.403-.325-.403 3.25m-81.17-1.821c-.152 2.722 2.053 5.821 4.144 5.821.633 0 .18-.68-1.006-1.511-1.187-.831-2.344-2.743-2.573-4.25l-.415-2.739-.15 2.679m-84.817 2.375c0 .795.563 1.446 1.25 1.446.688 0 1.477.563 1.755 1.25.306.76.535.578.583-.465.043-.943-.746-2.156-1.754-2.696-1.385-.741-1.834-.627-1.834.465"/>
  <path fill="#da002c" fill-rule="evenodd" d="M326 97.198c-9.261 1.122-23.612 4.168-35.476 7.531-30.653 8.688-63.869 30.042-86.708 55.743-15.01 16.891-24.661 31.453-33.819 51.028-15.947 34.089-21.044 79.58-13.332 119 11.205 57.277 49.734 108.652 101.105 134.814 31.82 16.205 56.281 22.037 92.23 21.988 20.38-.028 26.991-.736 44.005-4.712 49.743-11.624 96.042-45.468 122.797-89.762 4.688-7.762 5.369-9.64 6.695-18.477 2.741-18.258-.848-27.737-13.635-36.009-7.719-4.993-24.585-12.342-28.326-12.342-1.589 0-2.606.845-3.31 2.75-10.417 28.186-17.684 40.539-33.605 57.127-13.23 13.784-36.025 27.946-54.621 33.934-27.58 8.882-55.525 8.783-82.651-.293-29.561-9.891-53.41-28.134-70.939-54.264-9.146-13.634-16.883-33.254-19.792-50.189-2.335-13.589-2.145-35.909.409-48.065 7.915-37.681 28.4-68.235 58.973-87.958 14.87-9.593 34.792-17.25 52.179-20.055 11.664-1.881 40.94-.781 51.821 1.948 17.998 4.514 37.218 13.856 51.885 25.218 2.228 1.725 5.009 1.847 42.25 1.847 21.926 0 39.865-.373 39.865-.829 0-2.612-14.245-20.528-25.462-32.021-27.554-28.234-59.097-45.972-97.038-54.569-17.891-4.054-47.382-5.577-65.5-3.383"/>
  <path fill="#aeabb2" fill-rule="evenodd" d="M343.287 95.74c3.182.199 8.132.197 11-.004 2.867-.201.263-.364-5.787-.362-6.05.002-8.396.167-5.213.366M321 97l-4.5.7 4 .076c2.2.042 6.025-.285 8.5-.725l4.5-.801-4 .025c-2.2.014-6.025.34-8.5.725m46.5.046c2.75.428 6.8.762 9 .741l4-.037-4.5-.801c-2.475-.44-6.525-.774-9-.741l-4.5.059 5 .779M303 100.5c-2.475.717-3.825 1.339-3 1.383.825.043 3.75-.548 6.5-1.313 2.75-.765 4.1-1.387 3-1.382-1.1.004-4.025.595-6.5 1.312m85.5-.564c1.1.445 4.025 1.08 6.5 1.412l4.5.603-5-1.456c-5.381-1.567-9.423-1.944-6-.559m-97.835 3.571c-2.659.731-5.096 1.591-5.416 1.911-.999.999 1.035.623 7.251-1.34 6.832-2.158 5.476-2.58-1.835-.571m121.785 2.916c5.472 1.931 10.095 3.365 10.274 3.187.443-.444-13.505-5.396-17.224-6.116-1.65-.32 1.477.999 6.95 2.929m-136.95 2.522c-2.2 1.041-3.55 1.896-3 1.9 1.364.009 9.255-3.684 8-3.745-.55-.026-2.8.804-5 1.845m159.523 6.88c22.066 11.2 36.207 21.591 53.518 39.325 7.167 7.343 14.499 15.487 16.293 18.1 1.794 2.613 3.496 4.75 3.782 4.75 1.913 0-12.055-16.485-23.616-27.872-13.984-13.773-35.709-28.95-52.684-36.804-11.347-5.25-9.864-3.879 2.707 2.501m-171.415-1.806c-3.241 1.576-6.391 3.389-7 4.028-.937.983 13.102-5.556 14.309-6.664 1.18-1.085-2.067.086-7.309 2.636m-23.295 13.642c-15.902 10.878-29.74 23.228-40.718 36.337-7.537 9.001-11.69 14.539-7.126 9.502 1.495-1.65 6.125-6.948 10.289-11.774 4.163-4.826 10.759-11.617 14.656-15.091 6.156-5.487 23.558-18.8 29.185-22.326 1.046-.655 1.592-1.218 1.214-1.25-.378-.033-3.753 2.038-7.5 4.602m94.437 31.071c2.337.211 6.163.211 8.5 0 2.337-.21.425-.383-4.25-.383s-6.587.173-4.25.383m20.978-.01c1.775.221 4.925.224 7 .008 2.074-.217.622-.397-3.228-.402-3.85-.004-5.548.173-3.772.394M322.5 160c-2.676.681-2.73.763-.5.763 1.375 0 3.85-.343 5.5-.763 2.676-.681 2.73-.763.5-.763-1.375 0-3.85.343-5.5.763m48 .057c5.066 1.048 9.159 1.001 5-.057-1.65-.42-4.35-.765-6-.767-2.522-.002-2.363.129 1 .824m14 2.789c3.092 1.324 8.276 2.347 6.5 1.283-.825-.495-3.075-1.178-5-1.519-2.361-.418-2.849-.341-1.5.236m-96.75 9.222c-2.062 1.089-3.75 2.203-3.75 2.476 0 .446 7.899-3.246 8.917-4.167 1.15-1.041-1.853-.058-5.167 1.691M413 174.31c0 .275 2.137 1.749 4.75 3.275 2.613 1.526 7.428 4.719 10.7 7.095l5.95 4.32h40.3c31.876 0 40.3-.265 40.3-1.268 0-1.339-4.718-8.732-5.572-8.732-.275 0 .641 1.679 2.036 3.732s2.536 4.078 2.536 4.5c0 .422-17.91.768-39.8.768h-39.8l-5.95-4.32c-6.557-4.76-15.45-10.154-15.45-9.37m-226.202 5.94c-2.905 3.87-4.058 5.75-3.527 5.75.215 0 1.844-2.025 3.622-4.5 3.687-5.134 3.607-6.183-.095-1.25m77.541 7.219c-11.042 8.834-25.773 25.952-31.222 36.281-2.436 4.617-.129 2.032 3.462-3.88 6.725-11.071 18.631-24.188 30.213-33.288 5.56-4.368 6.848-5.582 5.92-5.582-.158 0-3.926 2.911-8.373 6.469M176 198c-1.122 2.2-1.816 4-1.541 4 .275 0 1.419-1.8 2.541-4 1.122-2.2 1.816-4 1.541-4-.275 0-1.419 1.8-2.541 4m49.251 41.72c-2.24 5.295-3.775 10.053-2.995 9.28.815-.808 5.706-13.372 5.345-13.732-.181-.181-1.238 1.822-2.35 4.452m-68.695 9.836c-.377 2.006-.485 3.848-.241 4.093.245.244.753-1.198 1.129-3.205.377-2.006.485-3.848.241-4.093-.245-.244-.753 1.198-1.129 3.205M219 258c-.674 2.809-1.027 5.307-.783 5.55.243.243.976-1.874 1.629-4.704.653-2.83 1.006-5.327.784-5.55-.223-.222-.956 1.895-1.63 4.704m-66.35 19.154c-.806 11.344-.723 26.884.174 32.812.372 2.457.699-5.98.726-18.75.028-12.769-.017-23.216-.1-23.216s-.443 4.119-.8 9.154m62.759 14.346c-.001 9.35.149 13.31.334 8.799.185-4.51.186-12.16.002-17-.183-4.839-.335-1.149-.336 8.201M155.218 327c-.01 1.375.342 3.625.782 5 .627 1.959.797 2.067.782.5-.01-1.1-.362-3.35-.782-5-.686-2.695-.765-2.746-.782-.5m322.448.75c-.762 1.512-1.662 4.1-1.999 5.75-.659 3.221.039 1.969 2.337-4.193.848-2.273 1.956-3.31 3.844-3.6l2.652-.407-2.724-.15c-2.05-.113-3.068.531-4.11 2.6m13.834 1.215c1.1.461 4.137 1.766 6.75 2.901 2.613 1.135 4.75 1.848 4.75 1.586 0-.672-11.008-5.466-12.374-5.389-.619.035-.226.441.874.902m12.5 5.367c0 .211 2.696 2.048 5.992 4.082 6.566 4.053 10.52 8.557 12.581 14.334.842 2.359 1.356 2.99 1.383 1.698.069-3.211-5.421-11.044-10.158-14.494-4.411-3.213-9.798-6.303-9.798-5.62m-279 9.067c0 1.169 6.818 15.601 7.37 15.601.455 0-6.11-14.943-6.992-15.917-.208-.229-.378-.087-.378.316m243.202 8.123c-1.197 2.463-1.966 4.478-1.709 4.478.677 0 4.718-8.123 4.265-8.575-.209-.21-1.36 1.634-2.556 4.097m-306.155 2.208c-.059 1.537 3.077 9.48 3.554 9.002.193-.192-.517-2.574-1.578-5.291-1.061-2.718-1.95-4.388-1.976-3.711m295.127 16.138c-9.248 13.184-26.795 29.099-41.424 37.571-2.613 1.513-4.75 2.976-4.75 3.251 0 .988 9.673-5.148 18.5-11.736 11.585-8.646 27.273-25.055 31.493-32.942 2.004-3.744.317-2.041-3.819 3.856m-288.09 1.632c0 .55.862 2.575 1.916 4.5 1.054 1.925 1.916 3.05 1.916 2.5 0-.55-.862-2.575-1.916-4.5-1.054-1.925-1.916-3.05-1.916-2.5m76.073 5.637c7.844 9.279 9.264 10.709 16.839 16.948 8.619 7.1 16.963 12.896 22.004 15.285 3.795 1.798 3.295 1.429-7.384-5.46-10.046-6.479-20.37-15.379-28.159-24.275-3.677-4.199-6.901-7.635-7.165-7.635-.263 0 1.476 2.312 3.865 5.137m277.465 2.613c-.455 3.403-2.478 7.727-7.133 15.25-3.573 5.775-5.596 9.438-4.494 8.14 4.894-5.765 12.295-19.53 12.771-23.753.668-5.933-.345-5.611-1.144.363m-347.603 4.465c-.026.985 9.01 15.785 9.637 15.785.279 0-.517-1.687-1.769-3.75-5.845-9.628-7.85-12.695-7.868-12.035M188 405.27c0 1.136 12.946 16.877 19.392 23.58 6.167 6.411 18.743 17.315 26.108 22.637 5.737 4.145 2.262.896-6.467-6.047-11.614-9.238-21.162-18.657-29.634-29.236-9.578-11.958-9.399-11.75-9.399-10.934m314.638 8.093c-8.593 11.218-27.703 29.096-41.568 38.887-6.815 4.813-12.07 8.75-11.678 8.75 1.131 0 16.437-10.766 23.979-16.867 11.586-9.371 30.56-29.362 35.008-36.883 1.956-3.308-.655-.528-5.741 6.113M292 413.5c2.475 1.325 4.95 2.41 5.5 2.41.55 0-1.025-1.085-3.5-2.41-2.475-1.325-4.95-2.41-5.5-2.41-.55 0 1.025 1.085 3.5 2.41m113-.5c-1.925 1.054-3.05 1.916-2.5 1.916.55 0 2.575-.862 4.5-1.916 1.925-1.054 3.05-1.916 2.5-1.916-.55 0-2.575.862-4.5 1.916m-103.5 4.387c1.65.751 4.125 1.642 5.5 1.979 2.008.493 1.909.344-.5-.753-1.65-.751-4.125-1.642-5.5-1.979-2.008-.493-1.909-.344.5.753m92.5.113c-1.925.741-2.825 1.362-2 1.379.825.017 2.85-.587 4.5-1.343 3.862-1.768 2.066-1.794-2.5-.036m-9.5 3.028c-2.2.725-3.1 1.333-2 1.35 1.1.018 3.35-.586 5-1.342 3.779-1.73 2.239-1.735-3-.008m-73 .337c1.1.482 3.575 1.161 5.5 1.51 2.403.436 2.873.36 1.5-.24-1.1-.482-3.575-1.161-5.5-1.51-2.403-.436-2.873-.36-1.5.24m12.5 3.165c1.925.454 6.2 1.061 9.5 1.349l6 .523-7-1.389c-7.745-1.538-14.631-1.929-8.5-.483m39.5.642-7 1.254 6.967-.513c6.413-.472 8.522-.955 7.45-1.704-.229-.16-3.567.273-7.417.963m-19.25 2.056c2.063.216 5.438.216 7.5 0 2.063-.215.375-.392-3.75-.392s-5.812.177-3.75.392m-96.75 33.885c2.446 1.9 21.587 11.633 22.022 11.199.171-.172-5.163-3.111-11.855-6.532s-11.267-5.521-10.167-4.667M438 466.5c-2.475 1.325-4.145 2.43-3.71 2.455 1.062.061 8.71-3.869 8.71-4.475 0-.663.041-.68-5 2.02m-151.144 12.128c1.846.805 4.771 1.684 6.5 1.953 1.729.269.444-.42-2.856-1.531-6.958-2.343-8.438-2.514-3.644-.422m120.144.331c-3.025 1.009-5.119 1.882-4.654 1.938 1.22.148 11.654-2.957 11.654-3.468 0-.678-1.126-.432-7 1.53m-105.5 3.931c1.1.448 4.025 1.09 6.5 1.426 2.687.364 3.694.281 2.5-.206-1.1-.448-4.025-1.09-6.5-1.426-2.687-.364-3.694-.281-2.5.206m88.5.61c-2.475.717-3.825 1.339-3 1.383.825.043 3.75-.548 6.5-1.313 2.75-.765 4.1-1.387 3-1.382-1.1.004-4.025.595-6.5 1.312m-72.5 2.514c4.269 1.424 26.705 3.185 35 2.747 6.854-.362 6.812-.374-2-.591-8.396-.207-24.325-1.511-32.461-2.657-3.517-.496-3.521-.493-.539.501m45.25 1.709c1.788.222 4.712.222 6.5 0 1.788-.221.325-.403-3.25-.403s-5.038.182-3.25.403m-247.5 35.019c3.713.192 9.787.192 13.5 0 3.713-.193.675-.35-6.75-.35s-10.463.157-6.75.35m313-.003c3.163.198 8.337.198 11.5 0 3.163-.198.575-.361-5.75-.361s-8.913.163-5.75.361m-329.406 1.655c-9.224 3.295-18.291 10.689-22.658 18.479-3.073 5.481-2.078 5.325 1.148-.181 4.861-8.294 14.504-15.433 24.666-18.261 2.475-.689 3.6-1.273 2.5-1.298-1.1-.025-3.645.542-5.656 1.261m65.823-.727c-.367.366-.589 3.629-.494 7.25l.172 6.583.578-6.5.577-6.5 12-.549 12-.549-12.083-.201c-6.646-.11-12.384.099-12.75.466m51.707.8c-.309.807-.331 2.044-.047 2.75.283.706.551.286.594-.933.076-2.125.521-2.23 10.829-2.538l10.75-.321-10.781-.213c-8.693-.171-10.891.072-11.345 1.255m37.624-.717c-.002.413 3.711.629 8.25.481 14.956-.489 16.436-.879 4.002-1.056-6.738-.096-12.251.162-12.252.575m67.401.007c-.73.492-1.283 9.361-1.637 26.243-.294 14.025-.344 24.598-.111 23.495.233-1.103.745-12.578 1.136-25.5l.713-23.495 28.931-.266c22.443-.206 29.132.019 29.826 1 .673.951.793.893.486-.234-.349-1.282-4.61-1.535-29.326-1.743-15.904-.134-29.413.091-30.018.5m90.337 1.661c-9.4 3.866-17.646 10.36-20.323 16.007-1.451 3.061-1.45 3.063.268.575 5.446-7.886 13.665-13.67 24.319-17.114 3.025-.978 4.6-1.792 3.5-1.808-1.1-.017-4.594 1.036-7.764 2.34m34.347-2.051c.23.202 2.217.642 4.417.977 2.788.424 3.394.334 2-.297-1.92-.87-7.276-1.437-6.417-.68m47.613.357c-2.961 5.052-18.61 36.341-17.981 35.952.465-.287 4.881-8.431 9.815-18.098l8.97-17.577h13.55c9.467-.001 13.949.376 14.875 1.249 1.069 1.009 1.237.961.868-.25-.374-1.227-3.115-1.55-15.05-1.776-8.026-.152-14.797.073-15.047.5m83.262.012c10.724.221 15.723.693 16.326 1.541.626.882.755.805.46-.277-.341-1.251-3.049-1.507-16.326-1.541l-15.918-.042 15.458.319m41.649.846c-.961 2.504-.712 2.941.643 1.127 1.044-1.399 3.554-1.723 15.25-1.972l14-.298-14.643-.22c-12.562-.188-14.729.006-15.25 1.363m-473.857.138c2.131.391 2.25.876 2.25 9.208v8.795l-2.75-.498c-3.482-.631-2.678.271 1.037 1.163l2.786.668-.286-9.778c-.283-9.657-.318-9.779-2.787-9.874-2.175-.084-2.208-.043-.25.316m43.536 5.78c.008 2.75.202 3.756.432 2.236.229-1.52.223-3.77-.014-5-.237-1.23-.425.014-.418 2.764m372.203 6.844c-.395 6.309-.506 12.075-.248 12.814.258.738.81-4.194 1.228-10.961.417-6.767.528-12.533.247-12.814-.281-.281-.833 4.651-1.227 10.961m34.167-5.844c.335 2.2.775 4.188.977 4.417.757.859.19-4.497-.68-6.417-.631-1.394-.721-.788-.297 2m21.46-.402c-.614 1.76-1.084 3.696-1.046 4.301.039.606.716-.66 1.504-2.812.789-2.152 1.259-4.087 1.046-4.301-.214-.213-.891 1.052-1.504 2.812M215.36 538c0 5.225.169 7.362.375 4.75s.206-6.888 0-9.5-.375-.475-.375 4.75m62.912-5c0 2.475.195 3.487.434 2.25.238-1.237.238-3.263 0-4.5-.239-1.237-.434-.225-.434 2.25m-25.559 16.88c-.432 11.209-.594 20.572-.359 20.808.606.605 1.896-31.258 1.486-36.688-.187-2.475-.694 4.671-1.127 15.88m126.462-15.154-.175 5.227-17.25.273-17.25.274-.131 3.5-.13 3.5.444-3.25.444-3.25h16.968c18.917 0 18.3.25 17.643-7.136-.386-4.334-.39-4.328-.563.862M240.272 536c0 2.475.195 3.487.434 2.25.238-1.237.238-3.263 0-4.5-.239-1.237-.434-.225-.434 2.25m213.728.917c0 2.997-.488 5.113-1.25 5.421-.747.301-.545.536.5.583 1.464.066 1.75-.819 1.75-5.421 0-3.025-.225-5.5-.5-5.5s-.5 2.212-.5 4.917m72.081-4.282c-.044.625.576 2.65 1.38 4.5.803 1.851 1.458 2.69 1.455 1.865-.008-1.848-2.722-7.943-2.835-6.365M163.32 544c0 3.575.182 5.038.403 3.25.222-1.788.222-4.712 0-6.5-.221-1.788-.403-.325-.403 3.25m-42.57-4.268c2.337.211 6.162.211 8.5 0 2.338-.21.425-.383-4.25-.383s-6.588.173-4.25.383m65.827 16.103c-.407 8.984-.527 16.548-.267 16.809.635.634 2.049-30.074 1.465-31.795-.253-.742-.792 6.002-1.198 14.986m-80.929-11.725c-2.582 1.71-5.206 4.064-5.83 5.231-.754 1.407.099.956 2.533-1.339 2.018-1.904 5.127-4.239 6.909-5.19 1.782-.95 2.755-1.747 2.161-1.77-.593-.023-3.191 1.357-5.773 3.068m314.815.167c-2.615 1.802-5.456 4.39-6.314 5.75-1.028 1.63-.28 1.195 2.195-1.279 2.066-2.063 5.421-4.631 7.456-5.705 2.035-1.075 3.187-1.974 2.559-1.999-.627-.024-3.28 1.431-5.896 3.233m86.22-2.627c-.375.376-.683 1.133-.683 1.683s.326.674.725.275c.399-.399 1.295.764 1.991 2.583l1.266 3.309-.596-3.5c-.652-3.825-1.639-5.414-2.703-4.35m-229.397 4.85c.008 2.75.202 3.756.432 2.236.229-1.52.223-3.77-.014-5-.237-1.23-.425.014-.418 2.764m320.884-.5c-.016 1.375.357 3.4.83 4.5l.859 2-.029-2c-.016-1.1-.39-3.125-.83-4.5l-.801-2.5-.029 2.5m-359.679 13.342c-.398 7.954-.515 15.069-.26 15.81.255.741.802-5.545 1.215-13.97.413-8.425.53-15.539.26-15.81-.271-.27-.817 6.016-1.215 13.97m339.651-6.092.142 5.25.716-4c.606-3.384.738-3.551.858-1.083.078 1.604.421 2.637.762 2.296.916-.916-.551-7.713-1.665-7.713-.525 0-.891 2.362-.813 5.25m50.626 3.498c.475 15.534.878 17.061 1.057 4.002.096-7.013-.162-12.751-.575-12.752-.413-.002-.63 3.936-.482 8.75M344.079 552.2c-.07 1.515 1.545 1.732 14.828 2 8.198.165 14.697-.037 14.441-.45-.257-.413-6.702-.75-14.324-.75-10.15 0-13.992-.334-14.362-1.25-.309-.766-.535-.592-.583.45m167.545 2.8c.686 3.967 2.35 7.631 2.27 5-.026-.825-.683-3.075-1.461-5l-1.415-3.5.606 3.5m22.363-.047c.523 1.825 1.253 3.595 1.623 3.933 1.012.926-.612-5.243-1.663-6.319-.526-.538-.51.472.04 2.386M649.36 562c0 5.225.169 7.362.375 4.75s.206-6.888 0-9.5-.375-.475-.375 4.75m-532.693-6.333c-.367.366-.667 4.191-.667 8.5V572h4.937c4.82 0 4.946.077 5.34 3.25.397 3.2.405 3.192.563-.5L127 571h-10.088l.294-7.25.294-7.25h16.656c9.16 0 16.446-.337 16.19-.75-.574-.927-32.756-1.007-33.679-.083M385.32 564c0 3.575.182 5.038.403 3.25.222-1.788.222-4.712 0-6.5-.221-1.788-.403-.325-.403 3.25m-289.992 1.5c.005 3.85.185 5.302.402 3.228.216-2.075.213-5.225-.008-7-.221-1.776-.398-.078-.394 3.772m315.045-.253c.135 4.12.747 7.235 1.571 8 1.096 1.018 1.193.98.516-.204-.458-.801-1.165-4.401-1.571-8l-.737-6.543.221 6.747M276.336 567c0 4.125.177 5.813.392 3.75.216-2.062.216-5.437 0-7.5-.215-2.062-.392-.375-.392 3.75M498 561.201c0 .439 2.137.763 4.75.72 5.228-.087 4.805-.572-1-1.148-2.062-.204-3.75-.012-3.75.428M577.3 566c0 3.025.187 4.263.416 2.75.229-1.513.229-3.987 0-5.5s-.416-.275-.416 2.75m-428.014.5c.008 2.75.202 3.756.432 2.236.229-1.52.223-3.77-.014-5-.237-1.23-.425.014-.418 2.764m63.244 3.064c-.576 5.381-1.272 7.211-3.862 10.162-2.205 2.511-2.516 3.196-1.03 2.268 3.354-2.095 5.322-6.321 6.011-12.909.35-3.347.399-6.085.11-6.085-.289 0-.842 2.954-1.229 6.564m159.62-3.314L372 570h-28.799l-.699 12.25c-.384 6.737-.523 13.6-.309 15.25.215 1.65.763-3.638 1.219-11.75l.83-14.75h13.91c15.105 0 15.404-.116 14.572-5.666-.357-2.383-.448-2.238-.574.916M469.5 570c-1.939 3.85-3.3 7-3.025 7 .275 0 2.086-3.15 4.025-7 1.939-3.85 3.3-7 3.025-7-.275 0-2.086 3.15-4.025 7m135.5-5.667c0 .917-.45 1.667-1 1.667s-1 .675-1 1.5.441 1.5.981 1.5c1.158 0 2.539-4.813 1.639-5.713-.341-.341-.62.13-.62 1.046M161.336 574c0 4.125.177 5.813.392 3.75.216-2.062.216-5.437 0-7.5-.215-2.062-.392-.375-.392 3.75m422.863-3.5c0 1.1.361 3.125.801 4.5.634 1.98.801 2.084.801.5 0-1.1-.361-3.125-.801-4.5-.634-1.98-.801-2.084-.801-.5m-332.913 8c.008 2.75.202 3.756.432 2.236.229-1.52.223-3.77-.014-5-.237-1.23-.425.014-.418 2.764m367.83-1.402c-.614 1.76-1.084 3.696-1.046 4.301.039.606.716-.66 1.504-2.812.789-2.152 1.259-4.087 1.046-4.301-.214-.213-.891 1.052-1.504 2.812m8.643 9.152c-.399 10.04-.215 12.521 1.018 13.75 1.317 1.312 1.399 1.314.657.01-.467-.819-.715-7.007-.552-13.75.163-6.743.087-12.26-.17-12.26-.256 0-.685 5.513-.953 12.25M97.84 576.511c1.042 2.15 3.712 4.718 6.16 5.924.825.406.424-.137-.89-1.208-1.315-1.071-3.257-3.022-4.317-4.337-1.464-1.815-1.693-1.906-.953-.379m89.223-.695c-.105 2.183 1.848 5.072 4.21 6.228l2.227 1.09-2.206-1.817c-1.213-.999-2.647-2.942-3.186-4.317-.54-1.375-1.01-1.908-1.045-1.184M576.32 582c0 3.575.182 5.038.403 3.25.222-1.788.222-4.712 0-6.5-.221-1.788-.403-.325-.403 3.25m-427.96 5c0 5.225.169 7.362.375 4.75s.206-6.888 0-9.5-.375-.475-.375 4.75m355.556-8.042 14.416.542 1.756 5c.966 2.75 1.792 4.518 1.834 3.928.043-.589-.639-3.177-1.516-5.75L518.812 578l-14.656.208-14.656.208 14.416.542M275.32 581.5c.195 1.901 1.043 2.014 17.149 2.275 12.021.195 17.17.631 17.722 1.5.542.853.783.694.794-.525.014-1.6-1.476-1.75-17.412-1.75-15.733 0-17.476-.17-17.942-1.75-.401-1.361-.47-1.305-.311.25m-150.32.793c0 1.343-1.437 1.685-8.25 1.963l-8.25.337 8.281.203c6.671.164 8.397-.096 8.874-1.339.326-.849.311-1.824-.031-2.167-.343-.343-.624.108-.624 1.003m264.012-.973c-.007.451 1.319 2.754 2.946 5.118 2.639 3.837 11.298 10.562 13.598 10.562.485 0-1.64-1.577-4.722-3.505-3.44-2.152-6.802-5.338-8.707-8.25-1.707-2.61-3.109-4.376-3.115-3.925m-313.404 3.497c1.041 1.824 2.763 4.074 3.827 5 1.125.979.73.01-.945-2.317-4.007-5.566-5.115-6.598-2.882-2.683m159.914.113c-.936 2.949-5.402 8.025-8.979 10.207-1.674 1.021-2.482 1.857-1.796 1.859 3.04.009 13.546-12.036 11.918-13.664-.265-.266-.78.454-1.143 1.598m82.75 2.07c0 2.475.195 3.487.434 2.25.238-1.237.238-3.263 0-4.5-.239-1.237-.434-.225-.434 2.25m268.837-3c-.039.825.556 3.75 1.321 6.5.765 2.75 1.423 4.325 1.461 3.5.039-.825-.556-3.75-1.321-6.5-.765-2.75-1.423-4.325-1.461-3.5m-155.359.706c1.238.238 3.262.238 4.5 0 1.238-.239.225-.434-2.25-.434s-3.488.195-2.25.434m-268.72 2.028c-.016.679 1.208 2.501 2.72 4.048 1.512 1.548 2.024 1.893 1.137.766-.888-1.126-2.112-2.948-2.72-4.048-.608-1.1-1.12-1.445-1.137-.766M555.6 592.6c-.375 3.659-.478 6.856-.229 7.105.249.249.772-2.528 1.162-6.172.39-3.643.493-6.84.229-7.104-.264-.265-.787 2.512-1.162 6.171m-104.676.657c-1.415 6.205-1.448 6.247-5.424 6.851l-4 .608 3.628.142c1.995.078 4.119-.451 4.721-1.176 1.194-1.438 3.609-11.558 2.922-12.244-.233-.233-1.065 2.385-1.847 5.819M546.509 589c1.184 4.037 2.613 5.942 1.876 2.5-.354-1.65-1.086-3.45-1.627-4-.645-.657-.731-.142-.249 1.5m-237.237 5c0 2.475.195 3.487.434 2.25.238-1.237.238-3.263 0-4.5-.239-1.237-.434-.225-.434 2.25m146.748.96c-2.445 4.794-2.439 4.667-.27 5.492 1.362.519 1.485.399.554-.539-.928-.935-.756-2.066.77-5.059 1.082-2.12 1.742-3.854 1.467-3.854-.275 0-1.409 1.782-2.521 3.96m67.551.534c1.022 5.193 1.818 5.523 12.801 5.31l10.128-.195-10.414-.555-10.414-.554-1.345-3.5c-1.218-3.169-1.289-3.217-.756-.506M317.404 598c.077 2.008.639 2.524 2.858 2.622 2.407.106 2.447.066.311-.311-1.544-.272-2.603-1.243-2.859-2.622-.334-1.795-.39-1.739-.31.311M143 599l-4.5.7 4.191.15c2.305.082 4.469-.3 4.809-.85.34-.55.479-.932.309-.85-.17.083-2.334.465-4.809.85m-46 .951c2.498.849 8.704 1.38 7.917.677-.229-.204-2.667-.632-5.417-.949-3.372-.39-4.186-.301-2.5.272m84 .049c1.375.44 3.625.792 5 .782 2.246-.017 2.195-.096-.5-.782-1.65-.42-3.9-.772-5-.782-1.567-.015-1.459.155.5.782m30.5 0c-2.676.681-2.73.763-.5.763 1.375 0 3.85-.343 5.5-.763 2.676-.681 2.73-.763.5-.763-1.375 0-3.85.343-5.5.763m-79.75.706c1.238.238 3.262.238 4.5 0 1.238-.239.225-.434-2.25-.434s-3.488.195-2.25.434m134.5.036c3.712.192 9.788.192 13.5 0 3.712-.193.675-.35-6.75-.35s-10.462.157-6.75.35m198.03-.006c2.629.207 6.679.204 9-.005 2.321-.21.17-.379-4.78-.376-4.95.003-6.849.175-4.22.381m134.97-.008c2.063.216 5.438.216 7.5 0 2.063-.215.375-.392-3.75-.392s-5.812.177-3.75.392m-486.5 1.004c2.337.211 6.162.211 8.5 0 2.337-.21.425-.383-4.25-.383s-6.588.173-4.25.383m82.026.001c2.352.212 5.952.209 8-.006s.124-.388-4.276-.384c-4.4.003-6.076.179-3.724.39m230.974-.001c2.337.211 6.163.211 8.5 0 2.337-.21.425-.383-4.25-.383s-6.587.173-4.25.383M173.5 622.167c-9.69 5.36-8.443 14.673 2.4 17.921 4.116 1.233 6.203 4.319 4.635 6.855-1.056 1.708-5.312 1.212-6.728-.784-.719-1.013-2.326-2.382-3.572-3.043-1.872-.994-2.367-.934-2.858.343-1.892 4.932 3.352 10.101 10.097 9.951 5.743-.128 8.268-1.817 9.66-6.462 1.071-3.577.984-4.314-.8-6.703-1.103-1.476-4.09-3.832-6.639-5.235-6.71-3.692-7.479-4.654-5.393-6.741 1.623-1.622 1.963-1.582 6.189.726 3.296 1.801 4.765 2.149 5.59 1.324 1.97-1.97-.099-5.424-4.428-7.389-4.821-2.189-5.465-2.25-8.153-.763m18.026 2.783c-2.166 4.189-1.979 7.05.461 7.05 1.929 0 5.013-5.304 5.013-8.622 0-2.58-3.907-1.458-5.474 1.572m12.187-2.329c-1.467 1.466-.637 4.268 1.461 4.934 2.263.718 5.205-1.899 4.512-4.015-.405-1.238-4.955-1.938-5.973-.919M308 626.319c0 3.596-.331 4.432-1.712 4.32-2.517-.204-2.81 3.061-.345 3.843 1.874.595 2.057 1.449 2.057 9.585 0 8.862.02 8.933 2.5 8.933 2.479 0 2.5-.074 2.5-8.892 0-8.65.068-8.908 2.5-9.519 3.109-.78 3.231-2.794.25-4.102-1.529-.671-2.41-2.108-2.75-4.487-.383-2.68-1.027-3.575-2.75-3.82-2.045-.29-2.25.088-2.25 4.139m12.359-2.812c-.353.92.057 2.337.927 3.207 2.124 2.124 4.941.907 4.534-1.96-.394-2.777-4.513-3.717-5.461-1.247m-148.65 1.27c-3.067 1.894-4.255 4.926-3.215 8.203.542 1.71.954 1.893 2.102.94 1.119-.929 1.17-1.496.237-2.622-.963-1.16-.629-1.897 1.737-3.831 3.691-3.017 4.296-3.017 8.385 0 3.43 2.531 5.375 2.558 4.417.061-1.63-4.249-8.875-5.708-13.663-2.751m20.817 1.173c-1.807 3.494-1.936 5.05-.419 5.05.609 0 .873-.609.588-1.353-.286-.744.341-2.09 1.393-2.99 2.046-1.753 2.535-3.657.938-3.657-.536 0-1.661 1.328-2.5 2.95M309 627.567c0 4.113-.199 4.505-2 3.933-1.1-.349-2-.185-2 .365s.9 1.286 2 1.635c1.803.572 2 1.513 2 9.567 0 7.274.279 8.933 1.5 8.933 1.22 0 1.5-1.645 1.5-8.807 0-8.681.039-8.822 2.75-9.878l2.75-1.072-3.019-.7c-2.816-.654-2.994-.963-2.645-4.622.295-3.088.033-3.921-1.231-3.921-1.239 0-1.605 1.041-1.605 4.567m13.177-3.014c.452 2.172 2.227 2.305 2.633.197.21-1.095-.28-1.75-1.31-1.75-.961 0-1.512.647-1.323 1.553M204 625c0 .55.9 1 2 1s2-.45 2-1-.9-1-2-1-2 .45-2 1m34.053 4.967c-.741.458-1.087 1.656-.773 2.681 1.632 5.333 6.926 18.958 7.646 19.678.457.457 2.043.683 3.525.502 2.451-.298 3.005-1.235 6.103-10.328 3.934-11.546 4.064-12.505 1.696-12.485-2.817.025-3.959 1.257-4.616 4.985l-.616 3.5 1.329-3.5c.732-1.925 2.078-3.645 2.992-3.823 1.678-.327 2.295 1.861.911 3.232-.412.409-1.886 4.421-3.275 8.917-2.247 7.273-2.811 8.207-5.119 8.478-1.99.233-2.733-.225-3.188-1.964-.75-2.869 1.296-4.249 2.993-2.018 1.154 1.518 1.278 1.464 1.307-.572.018-1.237.37-2.251.782-2.252.412-.001.821-1.464.907-3.25l.157-3.248-1.508 3.491-1.509 3.492-1.404-2.992c-1.346-2.866-1.384-2.881-.906-.345.334 1.773.006 2.834-.994 3.218-.821.315-1.493.174-1.493-.314 0-.487-.301-1.672-.67-2.632-.493-1.284-.32-1.53.655-.928.879.544 1.085.433.613-.332-.391-.633-.898-2.119-1.126-3.303-.228-1.184-1.403-3.073-2.61-4.198-1.497-1.395-1.796-2.179-.941-2.464 1.678-.559 3.329 1.212 4.753 5.101.646 1.763 1.208 2.448 1.25 1.521.215-4.765-4.024-9.607-6.871-7.848m26.845 1.32c-6.406 4.31-7.362 13.978-1.899 19.212 4.671 4.475 15.925 3.465 17.525-1.573.939-2.959-.129-3.527-3.812-2.03-5.945 2.418-7.403 2.413-9.853-.037-2.722-2.722-2.771-2.703 8.141-3.092l7.5-.267-.141-3.193c-.15-3.377-3.726-9.307-5.614-9.307-.616 0 .034 1.237 1.443 2.75s2.37 3.271 2.134 3.908c-.235.637.046 1.452.625 1.809 2.839 1.755.258 2.526-8.197 2.447-7.363-.068-8.638-.28-6.25-1.035 1.65-.522 4.635-.712 6.633-.421 2.488.362 4.015.069 4.842-.928 1.793-2.161-3.224-6.53-7.499-6.53-3.68 0-4.737 1.015-6.382 6.124-1.487 4.623.001 8.258 4.071 9.944 2.426 1.005 3.562.908 6.881-.589 4.655-2.099 6.489-1.146 3.093 1.607-2.921 2.368-10.742 2.581-13.888.377-3.221-2.256-4.668-8.541-2.918-12.676 2.133-5.04 5.204-7.265 9.857-7.143 2.595.068 3.541-.2 2.666-.754-2.316-1.468-5.421-.984-8.958 1.397m23.557.168c-2.771 2.77-3.19 6.667-.957 8.9.824.825 3.299 2.293 5.5 3.264 2.671 1.179 4.002 2.406 4.002 3.69 0 1.962-1.411 2.017-6.5.256-1.1-.381-.718.049.849.955 1.691.978 3.824 1.402 5.25 1.045 1.708-.429 2.401-.185 2.401.846 0 .798-1.012 1.645-2.25 1.883-1.947.375-1.883.452.474.57 2.077.104 3.087-.566 4.25-2.814.839-1.623 1.526-3.57 1.526-4.326 0-1.58-4.112-5.724-5.68-5.724-1.432 0-6.32-3.923-6.32-5.073 0-1.41 3.256-1.048 5.441.605 2.711 2.051 4.559 1.829 4.559-.547 0-2.179-5.264-5.975-8.295-5.981-.988-.002-2.9 1.101-4.25 2.451m77.435-1.081c-1.769.923-3.158 1.055-4.311.41-4.083-2.285-4.579-.64-4.579 15.185V661h3c2.899 0 3-.155 3-4.607 0-3.582.318-4.485 1.429-4.059 4.373 1.678 8.516 1.746 11.528.188 7.903-4.087 7.528-18.013-.588-21.883-4.172-1.99-6.072-2.043-9.479-.265m25.517.198c-4.149 2.047-7.818 8.624-7.024 12.592 1.571 7.857 8.486 12.025 16.409 9.892 4.853-1.307 7.105-4.131 7.736-9.7l.436-3.856-1.057 3.646c-1.787 6.166-6.345 9.213-13.341 8.918-3.553-.15-5.566-1.664-5.566-4.186 0-1.033-.675-1.878-1.5-1.878-2.11 0-1.979-6.855.192-10.027 2.246-3.283 3.33-3.952 6.308-3.894 2.274.043 2.319.123.5.874-2.256.933-6.24 5.256-6.669 7.239-.738 3.406 5.477 9.808 9.522 9.808 2.099 0 8.14-4.978 8.249-6.797.45-7.523.51-7.768 1.398-5.703.771 1.794.867 1.813.93.184.122-3.163-1.747-5.394-5.921-7.064-4.975-1.99-6.65-1.998-10.602-.048m22.843-.841c-1.953.681-1.698 18.185.307 21.046 1.411 2.015 2.392 2.223 10.5 2.223H434v-23h-6v8.393c0 8.961-.371 9.607-5.523 9.607-3.039 0-3.191-.311-3.867-7.906-.837-9.41-1.93-8.932-1.401.611.317 5.713.126 8.018-.627 7.59-.615-.35-.72-.223-.242.295.463.5 1.588.956 2.5 1.012 6.686.411 6.687.411 5.16 1.398-2.243 1.45-6.591 1.197-7.969-.462-.72-.868-1.288-5.163-1.398-10.558-.167-8.269-.023-9.054 1.591-8.632.977.256 1.776.105 1.776-.335 0-1.071-2.199-1.824-3.75-1.282m25.448-.095c-.384.383-.698 5.827-.698 12.097v11.4l2.706-.317c2.665-.311 2.707-.429 2.75-7.727.043-7.178.138-7.464 3.044-9.081 3.232-1.8 4.464-6.853 1.5-6.155-2.528.596-5.422.504-7.052-.223-.854-.381-1.866-.378-2.25.006m41.575.885c-1.3.911-3.07 4.312-4.412 8.477-1.232 3.826-2.366 6.83-2.521 6.675-.154-.154-1.018-3.181-1.918-6.727-1.925-7.58-2.848-8.946-6.044-8.946-3.053 0-3.001.799.705 11.008 1.696 4.671 3.323 9.28 3.617 10.242.371 1.217 1.564 1.75 3.917 1.75 1.86 0 3.383-.117 3.383-.26 0-.143 1.57-4.756 3.49-10.25 4.644-13.295 4.607-15.348-.217-11.969m11.041.429c-4.514 2.753-5.603 5.377-5.102 12.301.35 4.841.886 6.314 2.828 7.779 5.832 4.399 14.445 3.093 18.448-2.797 1.382-2.034 2.512-4.762 2.512-6.064 0-4.28-3.099-9.179-7.098-11.219-4.812-2.455-7.561-2.455-11.588 0m50.552-.479c-4.924 2.751-4.622 8.886.557 11.319 1.417.665 3.702 1.736 5.077 2.379 2.765 1.293 3.425 4.831.901 4.831-.879 0-3.156-.739-5.058-1.642-4.125-1.957-6.19-.809-4.437 2.467 1.287 2.403 4.289 3.523 8.988 3.35 4.802-.177 7.274-2.727 6.905-7.124-.265-3.151-.891-3.868-5.549-6.364-2.888-1.548-5.25-3.46-5.25-4.25 0-1.804 1.774-1.781 5 .063 3.419 1.955 5 1.845 5-.345 0-4.39-7.487-7.28-12.134-4.684m-338.653.376c-.946.601-1.211 3.573-1 11.235.285 10.34.306 10.419 2.787 10.514 2.175.084 2.208.043.25-.316-2.155-.395-2.25-.834-2.25-10.346 0-5.956.4-9.934 1-9.934.93 0 1.42 6.399 1.04 13.576-.09 1.692.508 3.634 1.328 4.315 1.301 1.08 1.533.014 1.812-8.349.176-5.273.17-10.027-.013-10.564-.403-1.183-3.181-1.256-4.954-.131m10.787.054c0 .496 3.455.712 7.679.48 7.291-.4 9.246.184 9.306 2.781.019.823-2.681.476-3.623-.466-1.033-1.034-5.22-.842-7.428.339-1.676.897-1.934 2.154-1.934 9.431 0 7.911-.13 8.42-2.25 8.828-1.929.372-1.858.453.5.57L220 653v-16.909l3.547-.666c1.95-.366 3.848-.364 4.216.004.368.369.91 4.36 1.203 8.87.524 8.052.584 8.207 3.284 8.517l2.75.317-.004-8.317c-.003-6.526-.43-9.016-1.985-11.566-1.97-3.232-2.027-3.25-9.996-3.25-4.408 0-8.015.405-8.015.901m73.995 1.334c-3.517 3.776-2.286 6.571 4.505 10.232 3.3 1.78 6 3.752 6 4.384 0 .632.45 1.149 1 1.149s1-1.013 1-2.25c0-1.667-1.165-2.832-4.5-4.496-4.813-2.402-8.341-5.893-7.436-7.358.839-1.357 4.188-1.075 7.486.63 2.611 1.35 2.95 1.353 2.95.025 0-1.579-4.84-4.551-7.411-4.551-.831 0-2.448 1.006-3.594 2.235m32.452-1.638c-.667.277-.968 4.381-.82 11.171.234 10.705.241 10.733 2.804 11.048l2.569.317v-10.96c0-9.071-.273-11.064-1.582-11.566-.87-.334-1.657-.571-1.75-.528-.092.043-.642.276-1.221.518M331 641.605V653h2.5c2.682 0 2.561.414 2.85-9.759.137-4.792.439-5.434 3.4-7.235 1.788-1.087 3.25-2.811 3.25-3.83 0-1.592-.845-1.861-6-1.91l-6-.056v11.395m109.109-.516c-.159 9.021.063 10.911 1.279 10.911 1.159 0 1.538-1.879 1.791-8.887.371-10.27.181-11.761-1.586-12.439-1.002-.384-1.336 1.961-1.484 10.415m74.281-9.662c-.331.862-.439 5.159-.24 9.549.298 6.548.751 8.369 2.524 10.142 2.211 2.211 3.546 2.383 13.326 1.72l5.5-.373.305-7.982c.435-11.37-.285-14.483-3.35-14.483-2.308 0-2.462.344-2.573 5.75-.2 9.718-.938 11.706-4.472 12.051-4.299.42-5.27-1.282-5.612-9.846-.275-6.869-.475-7.48-2.552-7.775-1.351-.192-2.496.308-2.856 1.247m29.771.621c-1.738 1.058-3.161 2.412-3.161 3.01 0 .598 1.154.18 2.564-.93 2.644-2.08 4.105-1.951 8.295.734 2.186 1.4 2.333 1.374 2-.352-.197-1.025-1.749-2.431-3.448-3.124-2.684-1.095-3.503-1.008-6.25.662m-221.661-.415c-.605.219-.875 4.31-.684 10.365.249 7.871.622 10.002 1.75 10.002 1.149 0 1.434-1.976 1.434-9.941 0-9.619-.378-11.196-2.5-10.426m9.5 9.867c0 8.532.273 10.5 1.458 10.5 1.125 0 1.525-1.751 1.75-7.672.279-7.322.426-7.747 3.223-9.293 3.05-1.687 4.566-4.035 2.605-4.035-.623 0-2.146 1.094-3.385 2.432-1.559 1.682-2.692 2.161-3.674 1.554-1.174-.726-1.106-.999.385-1.571 1.42-.545 1.521-.874.472-1.539-2.582-1.637-2.834-.782-2.834 9.624m33.25-8.828c-3.118 1.514-4.345 3.328-2.25 3.328.55 0 1-.378 1-.839 0-.462 1.177-1.376 2.616-2.032 2.238-1.019 3.324-.84 7.5 1.242 5.082 2.532 5.775 2.389 3.428-.709-1.867-2.463-8.208-2.974-12.294-.99m65.143-.09c.334.87.659 3.907.722 6.75l.115 5.168.827-4c1.351-6.531 1.144-9.5-.664-9.5-1.055 0-1.398.544-1 1.582m34.607-.617c0 .53.9 1.446 2 2.035 1.566.838 2 .76 2-.358 0-.785-.712-1.701-1.582-2.035-2.124-.815-2.418-.772-2.418.358m15.525 1.356c-1.682 2.567-2.951 12.061-1.492 11.159.5-.309 1.204-2.785 1.564-5.502.361-2.717 1.049-4.697 1.529-4.4.481.297.874.325.874.063 0-.263.273-1.189.607-2.059.932-2.428-1.368-1.877-3.082.739m14.069-1.525c-4.297.543-6.521 3.814-6.561 9.649-.045 6.802 3.4 10.555 9.689 10.555 5.302 0 9.096-2.319 10.914-6.672 1.615-3.865 1.661-4.328.43-4.328-.513 0-1.076 1.237-1.25 2.75-.178 1.547-.863 2.641-1.566 2.5-.687-.138-1.25.09-1.25.506 0 .416-1.4 1.375-3.11 2.133-2.703 1.196-3.551 1.166-6.474-.228-3.217-1.534-3.54-2.123-4.883-8.911-.19-.962.01-1.75.444-1.75s1.018-.874 1.298-1.943c.304-1.164 1.843-2.289 3.836-2.806 3.835-.994 2.788-1.999-1.517-1.455m5.406.343c0 .473 1.012.868 2.25.876 1.863.013 1.992.198.75 1.076-1.22.863-1.232.989-.062.673 2.491-.674 2.251-2.495-.396-3.001-1.398-.267-2.542-.098-2.542.376m16.743.111c.544.688 1.238 1.925 1.544 2.75.316.855.589.317.634-1.25.055-1.902-.421-2.75-1.543-2.75-1.159 0-1.34.358-.635 1.25M171.5 634c-.34.55.196 1.007 1.191 1.015 1.543.013 1.589.165.309 1.031-1.099.743-.725.834 1.399.339 2.057-.48 2.694-.344 2.191.469-.416.674-.066 1.146.851 1.146.857 0 1.559.477 1.559 1.059s.422.798.939.479c.516-.319 1.344.145 1.839 1.031.496.885 1.307 1.457 1.802 1.271.495-.187 1.189 1.01 1.542 2.66l.641 3 .103-3c.138-4.013-.427-4.681-7.062-8.35-6.369-3.522-6.443-3.544-7.304-2.15m96.25 1.08c-2.266 1.32-2.417 5.39-.168 4.527.87-.334 3.345-.607 5.5-.607 4.658 0 5.04-1.369.968-3.474-3.433-1.776-3.954-1.812-6.3-.446m98.943.62c-1.878.487-3.693 4.071-3.693 7.294 0 4.66 7.98 6.895 11.345 3.177 2.245-2.48 2.085-6.741-.345-9.171-1.952-1.952-3.635-2.251-7.307-1.3m27.807.127c-2.586.523-3.469 1.967-3.469 5.673 0 3.459.706 4.754 3.393 6.223 5.091 2.782 11.361-4.349 8.143-9.261-1.506-2.299-4.65-3.326-8.067-2.635m100.353-.176c-2.983.826-3.86 8.2-1.282 10.778 1.88 1.879 7.761 2.081 9.226.315.573-.69 1.331-2.406 1.684-3.813 1.128-4.493-4.454-8.714-9.628-7.28M230 637.701c0 .909.577 1.292 1.447.958 1.109-.426 1.535.544 1.82 4.143l.373 4.698.18-5.133c.153-4.375-.115-5.211-1.82-5.657-1.349-.353-2-.03-2 .991m312.677.698c-.699 1.822.14 2.601 2.801 2.601 2.96 0 6.522 3.571 6.522 6.539 0 2.024-.493 2.461-2.777 2.461-1.528 0-3.807-.721-5.065-1.602-2.938-2.057-4.025-1.014-1.664 1.596 2.115 2.336 8.042 2.674 10.756.614.962-.731 1.75-2.447 1.75-3.813 0-2.771-1.559-4.317-7.642-7.58-3.36-1.802-4.243-1.956-4.681-.816m-73.168 1.851c.13 1.237.322 3.15.427 4.25.172 1.799.287 1.76 1.149-.395.989-2.474.385-6.105-1.016-6.105-.438 0-.69 1.013-.56 2.25M168 644.955c0 2.091 4.299 6.975 6.295 7.151 2.98.262 7.305-.379 8.352-1.238.63-.518.926-1.783.657-2.812-.476-1.82-.54-1.82-2.396.036-2.679 2.679-4.099 2.408-8.339-1.592-4.312-4.066-4.569-4.153-4.569-1.545m209.1-.698c-.055.966-1.216 2.727-2.58 3.913-2.616 2.274-7.52 3.385-7.52 1.703 0-.545-.457-.708-1.016-.363-1.942 1.2.002 2.236 4.359 2.324 5.471.109 8.788-2.872 7.604-6.834-.489-1.636-.782-1.893-.847-.743m141.209 1.928c.318.927.041 1.886-.615 2.13-.847.316-.721.943.434 2.158 1.36 1.43 2.694 1.598 8.093 1.02 6.176-.661 6.443-.801 5.997-3.135-.442-2.312-.566-2.353-2.325-.761-1.762 1.595-10.392 3.02-9.495 1.568.234-.378-.271-1.582-1.121-2.676-1.161-1.494-1.402-1.569-.968-.304M286 647.845c0 2.536 3.156 5.171 6.079 5.076 1.394-.045 1.785-.289.921-.573-4.329-1.426-6.101-2.852-5.657-4.551.258-.988.062-1.797-.437-1.797-.498 0-.906.83-.906 1.845m188.25.69c-2.764 2.673-2.829 3.465-.285 3.465 2.145 0 4.736-3.779 3.378-4.927-.464-.392-1.855.266-3.093 1.462m-241.25.524c0 .582-.45.781-1 .441s-1 .084-1 .941.675 1.559 1.5 1.559c.833 0 1.5-.889 1.5-2 0-1.1-.225-2-.5-2s-.5.477-.5 1.059"/>
</svg>
